<?xml version="1.0" encoding="utf-8" standalone="no"?>
<!DOCTYPE svg PUBLIC "-//W3C//DTD SVG 1.1//EN"
  "http://www.w3.org/Graphics/SVG/1.1/DTD/svg11.dtd">
<svg xmlns:xlink="http://www.w3.org/1999/xlink" width="864pt" height="864pt" viewBox="0 0 864 864" xmlns="http://www.w3.org/2000/svg" version="1.1">
 <metadata>
  <rdf:RDF xmlns:dc="http://purl.org/dc/elements/1.1/" xmlns:cc="http://creativecommons.org/ns#" xmlns:rdf="http://www.w3.org/1999/02/22-rdf-syntax-ns#">
   <cc:Work>
    <dc:type rdf:resource="http://purl.org/dc/dcmitype/StillImage"/>
    <dc:date>2022-02-07T13:00:47.009145</dc:date>
    <dc:format>image/svg+xml</dc:format>
    <dc:creator>
     <cc:Agent>
      <dc:title>Matplotlib v3.5.1, https://matplotlib.org/</dc:title>
     </cc:Agent>
    </dc:creator>
   </cc:Work>
  </rdf:RDF>
 </metadata>
 <defs>
  <style type="text/css">*{stroke-linejoin: round; stroke-linecap: butt}</style>
 </defs>
 <g id="figure_1">
  <g id="patch_1">
   <path d="M 0 864 
L 864 864 
L 864 0 
L 0 0 
z
" style="fill: #ffffff"/>
  </g>
  <g id="axes_1">
   <g id="patch_2">
    <path d="M 108 768.96 
L 777.6 768.96 
L 777.6 103.68 
L 108 103.68 
z
" style="fill: #ffffff"/>
   </g>
   <g id="PolyCollection_1">
    <defs>
     <path id="m139d73809f" d="M 138.436364 -95.040006 
L 138.436364 -95.04 
L 141.476768 -95.04 
L 144.517172 -95.04 
L 147.557577 -95.04 
L 150.597981 -95.04 
L 153.638385 -95.04 
L 156.67879 -95.04 
L 159.719194 -95.04 
L 162.759598 -95.04 
L 165.800003 -95.04 
L 168.840407 -95.04 
L 171.880811 -95.04 
L 174.921216 -95.04 
L 177.96162 -95.04 
L 181.002024 -95.04 
L 184.042429 -95.04 
L 187.082833 -95.04 
L 190.123237 -95.04 
L 193.163641 -95.04 
L 196.204046 -95.04 
L 199.24445 -95.04 
L 202.284854 -95.04 
L 205.325259 -95.04 
L 208.365663 -95.04 
L 211.406067 -95.04 
L 214.446472 -95.04 
L 217.486876 -95.04 
L 220.52728 -95.04 
L 223.567685 -95.04 
L 226.608089 -95.04 
L 229.648493 -95.04 
L 232.688898 -95.04 
L 235.729302 -95.04 
L 238.769706 -95.04 
L 241.810111 -95.04 
L 244.850515 -95.04 
L 247.890919 -95.04 
L 250.931324 -95.04 
L 253.971728 -95.04 
L 257.012132 -95.04 
L 260.052537 -95.04 
L 263.092941 -95.04 
L 266.133345 -95.04 
L 269.17375 -95.04 
L 272.214154 -95.04 
L 275.254558 -95.04 
L 278.294963 -95.04 
L 281.335367 -95.04 
L 284.375771 -95.04 
L 287.416176 -95.04 
L 290.45658 -95.04 
L 293.496984 -95.04 
L 296.537389 -95.04 
L 299.577793 -95.04 
L 302.618197 -95.04 
L 305.658602 -95.04 
L 308.699006 -95.04 
L 311.73941 -95.04 
L 314.779815 -95.04 
L 317.820219 -95.04 
L 320.860623 -95.04 
L 323.901027 -95.04 
L 326.941432 -95.04 
L 329.981836 -95.04 
L 333.02224 -95.04 
L 336.062645 -95.04 
L 339.103049 -95.04 
L 342.143453 -95.04 
L 345.183858 -95.04 
L 348.224262 -95.04 
L 351.264666 -95.04 
L 354.305071 -95.04 
L 357.345475 -95.04 
L 360.385879 -95.04 
L 363.426284 -95.04 
L 366.466688 -95.04 
L 369.507092 -95.04 
L 372.547497 -95.04 
L 375.587901 -95.04 
L 378.628305 -95.04 
L 381.66871 -95.04 
L 384.709114 -95.04 
L 387.749518 -95.04 
L 390.789923 -95.04 
L 393.830327 -95.04 
L 396.870731 -95.04 
L 399.911136 -95.04 
L 402.95154 -95.04 
L 405.991944 -95.04 
L 409.032349 -95.04 
L 412.072753 -95.04 
L 415.113157 -95.04 
L 418.153562 -95.04 
L 421.193966 -95.04 
L 424.23437 -95.04 
L 427.274775 -95.04 
L 430.315179 -95.04 
L 433.355583 -95.04 
L 436.395988 -95.04 
L 439.436392 -95.04 
L 442.476796 -95.04 
L 445.517201 -95.04 
L 448.557605 -95.04 
L 451.598009 -95.04 
L 454.638413 -95.04 
L 457.678818 -95.04 
L 460.719222 -95.04 
L 463.759626 -95.04 
L 466.800031 -95.04 
L 469.840435 -95.04 
L 472.880839 -95.04 
L 475.921244 -95.04 
L 478.961648 -95.04 
L 482.002052 -95.04 
L 485.042457 -95.04 
L 488.082861 -95.04 
L 491.123265 -95.04 
L 494.16367 -95.04 
L 497.204074 -95.04 
L 500.244478 -95.04 
L 503.284883 -95.04 
L 506.325287 -95.04 
L 509.365691 -95.04 
L 512.406096 -95.04 
L 515.4465 -95.04 
L 518.486904 -95.04 
L 521.527309 -95.04 
L 524.567713 -95.04 
L 527.608117 -95.04 
L 530.648522 -95.04 
L 533.688926 -95.04 
L 536.72933 -95.04 
L 539.769735 -95.04 
L 542.810139 -95.04 
L 545.850543 -95.04 
L 548.890948 -95.04 
L 551.931352 -95.04 
L 554.971756 -95.04 
L 558.012161 -95.04 
L 561.052565 -95.04 
L 564.092969 -95.04 
L 567.133374 -95.04 
L 570.173778 -95.04 
L 573.214182 -95.04 
L 576.254587 -95.04 
L 579.294991 -95.04 
L 582.335395 -95.04 
L 585.375799 -95.04 
L 588.416204 -95.04 
L 591.456608 -95.04 
L 594.497012 -95.04 
L 597.537417 -95.04 
L 600.577821 -95.04 
L 603.618225 -95.04 
L 606.65863 -95.04 
L 609.699034 -95.04 
L 612.739438 -95.04 
L 615.779843 -95.04 
L 618.820247 -95.04 
L 621.860651 -95.04 
L 624.901056 -95.04 
L 627.94146 -95.04 
L 630.981864 -95.04 
L 634.022269 -95.04 
L 637.062673 -95.04 
L 640.103077 -95.04 
L 643.143482 -95.04 
L 646.183886 -95.04 
L 649.22429 -95.04 
L 652.264695 -95.04 
L 655.305099 -95.04 
L 658.345503 -95.04 
L 661.385908 -95.04 
L 664.426312 -95.04 
L 667.466716 -95.04 
L 670.507121 -95.04 
L 673.547525 -95.04 
L 676.587929 -95.04 
L 679.628334 -95.04 
L 682.668738 -95.04 
L 685.709142 -95.04 
L 688.749547 -95.04 
L 691.789951 -95.04 
L 694.830355 -95.04 
L 697.87076 -95.04 
L 700.911164 -95.04 
L 703.951568 -95.04 
L 706.991973 -95.04 
L 710.032377 -95.04 
L 713.072781 -95.04 
L 716.113185 -95.04 
L 719.15359 -95.04 
L 722.193994 -95.04 
L 725.234398 -95.04 
L 728.274803 -95.04 
L 731.315207 -95.04 
L 734.355611 -95.04 
L 737.396016 -95.04 
L 740.43642 -95.04 
L 743.476824 -95.04 
L 743.476824 -95.107494 
L 743.476824 -95.107494 
L 740.43642 -96.34818 
L 737.396016 -100.502141 
L 734.355611 -100.310315 
L 731.315207 -97.017684 
L 728.274803 -96.388624 
L 725.234398 -96.653079 
L 722.193994 -97.166633 
L 719.15359 -97.708112 
L 716.113185 -98.279936 
L 713.072781 -98.922164 
L 710.032377 -99.413025 
L 706.991973 -99.721143 
L 703.951568 -99.905924 
L 700.911164 -100.491836 
L 697.87076 -101.641309 
L 694.830355 -102.968605 
L 691.789951 -103.783267 
L 688.749547 -104.314078 
L 685.709142 -104.951185 
L 682.668738 -105.802232 
L 679.628334 -106.942126 
L 676.587929 -108.415654 
L 673.547525 -110.397263 
L 670.507121 -112.142608 
L 667.466716 -113.743589 
L 664.426312 -115.232518 
L 661.385908 -116.639112 
L 658.345503 -118.275469 
L 655.305099 -119.716685 
L 652.264695 -121.2964 
L 649.22429 -122.616332 
L 646.183886 -123.852108 
L 643.143482 -125.510029 
L 640.103077 -127.118655 
L 637.062673 -128.644109 
L 634.022269 -130.674505 
L 630.981864 -133.002756 
L 627.94146 -134.990614 
L 624.901056 -136.516683 
L 621.860651 -138.479979 
L 618.820247 -140.591675 
L 615.779843 -141.510416 
L 612.739438 -141.523851 
L 609.699034 -141.472194 
L 606.65863 -142.189217 
L 603.618225 -143.999217 
L 600.577821 -146.182123 
L 597.537417 -148.674748 
L 594.497012 -151.186207 
L 591.456608 -153.350013 
L 588.416204 -155.266997 
L 585.375799 -157.40198 
L 582.335395 -159.756309 
L 579.294991 -161.805984 
L 576.254587 -163.695027 
L 573.214182 -166.577659 
L 570.173778 -168.813607 
L 567.133374 -170.490324 
L 564.092969 -172.541934 
L 561.052565 -175.582445 
L 558.012161 -178.426247 
L 554.971756 -180.052525 
L 551.931352 -181.166419 
L 548.890948 -182.231555 
L 545.850543 -183.370913 
L 542.810139 -183.787843 
L 539.769735 -184.257388 
L 536.72933 -186.851777 
L 533.688926 -189.960847 
L 530.648522 -191.943507 
L 527.608117 -192.817355 
L 524.567713 -194.149413 
L 521.527309 -196.137768 
L 518.486904 -195.467535 
L 515.4465 -193.363759 
L 512.406096 -191.147369 
L 509.365691 -188.484579 
L 506.325287 -187.285563 
L 503.284883 -188.466076 
L 500.244478 -191.022423 
L 497.204074 -192.713772 
L 494.16367 -195.276931 
L 491.123265 -202.874252 
L 488.082861 -213.193246 
L 485.042457 -223.299336 
L 482.002052 -233.579691 
L 478.961648 -245.076858 
L 475.921244 -260.633621 
L 472.880839 -278.065959 
L 469.840435 -296.555975 
L 466.800031 -311.006469 
L 463.759626 -323.906344 
L 460.719222 -341.414004 
L 457.678818 -362.951601 
L 454.638413 -390.98211 
L 451.598009 -421.012837 
L 448.557605 -451.794314 
L 445.517201 -484.24136 
L 442.476796 -513.922879 
L 439.436392 -538.627086 
L 436.395988 -557.592146 
L 433.355583 -575.027663 
L 430.315179 -594.009477 
L 427.274775 -610.861779 
L 424.23437 -625.630657 
L 421.193966 -643.464437 
L 418.153562 -658.426693 
L 415.113157 -668.527784 
L 412.072753 -679.970665 
L 409.032349 -689.80828 
L 405.991944 -690.263774 
L 402.95154 -686.877167 
L 399.911136 -687.235575 
L 396.870731 -693.655823 
L 393.830327 -698.671144 
L 390.789923 -704.343809 
L 387.749518 -711.320241 
L 384.709114 -710.298823 
L 381.66871 -703.15744 
L 378.628305 -697.394332 
L 375.587901 -696.978018 
L 372.547497 -700.011873 
L 369.507092 -704.278277 
L 366.466688 -707.936137 
L 363.426284 -710.275282 
L 360.385879 -704.808048 
L 357.345475 -693.441311 
L 354.305071 -679.970549 
L 351.264666 -665.080752 
L 348.224262 -651.267441 
L 345.183858 -631.486938 
L 342.143453 -610.46622 
L 339.103049 -592.856882 
L 336.062645 -574.542775 
L 333.02224 -553.893954 
L 329.981836 -533.11729 
L 326.941432 -510.667357 
L 323.901027 -487.737312 
L 320.860623 -465.377758 
L 317.820219 -445.733549 
L 314.779815 -428.844818 
L 311.73941 -415.160651 
L 308.699006 -406.120075 
L 305.658602 -395.053703 
L 302.618197 -380.563909 
L 299.577793 -363.518851 
L 296.537389 -342.968068 
L 293.496984 -323.046191 
L 290.45658 -304.596369 
L 287.416176 -287.401698 
L 284.375771 -272.292424 
L 281.335367 -258.321484 
L 278.294963 -247.831023 
L 275.254558 -239.741536 
L 272.214154 -230.642893 
L 269.17375 -220.684488 
L 266.133345 -212.171705 
L 263.092941 -204.701184 
L 260.052537 -197.001042 
L 257.012132 -188.629301 
L 253.971728 -178.933421 
L 250.931324 -170.371156 
L 247.890919 -163.85812 
L 244.850515 -157.914999 
L 241.810111 -152.042044 
L 238.769706 -145.210135 
L 235.729302 -137.628735 
L 232.688898 -131.856898 
L 229.648493 -127.080569 
L 226.608089 -121.615415 
L 223.567685 -116.574076 
L 220.52728 -112.993334 
L 217.486876 -109.969299 
L 214.446472 -106.759861 
L 211.406067 -104.213434 
L 208.365663 -102.626273 
L 205.325259 -102.716761 
L 202.284854 -103.73956 
L 199.24445 -103.377075 
L 196.204046 -101.240005 
L 193.163641 -98.891451 
L 190.123237 -97.245036 
L 187.082833 -96.382416 
L 184.042429 -96.066183 
L 181.002024 -96.118673 
L 177.96162 -96.258276 
L 174.921216 -95.993912 
L 171.880811 -95.608689 
L 168.840407 -95.582751 
L 165.800003 -96.215226 
L 162.759598 -97.982201 
L 159.719194 -98.901214 
L 156.67879 -97.078075 
L 153.638385 -95.500363 
L 150.597981 -95.106526 
L 147.557577 -95.049432 
L 144.517172 -95.041513 
L 141.476768 -95.040165 
L 138.436364 -95.040006 
z
" style="stroke: #0000ff; stroke-width: 3"/>
    </defs>
    <g clip-path="url(#pdd73a0f7a0)">
     <use xlink:href="#m139d73809f" x="0" y="864" style="fill: #0000ff; fill-opacity: 0.25; stroke: #0000ff; stroke-width: 3"/>
    </g>
   </g>
   <g id="PolyCollection_2">
    <defs>
     <path id="mad4d69ac17" d="M 142.432158 -95.040003 
L 142.432158 -95.04 
L 145.447997 -95.04 
L 148.463836 -95.04 
L 151.479674 -95.04 
L 154.495513 -95.04 
L 157.511351 -95.04 
L 160.52719 -95.04 
L 163.543028 -95.04 
L 166.558867 -95.04 
L 169.574705 -95.04 
L 172.590544 -95.04 
L 175.606383 -95.04 
L 178.622221 -95.04 
L 181.63806 -95.04 
L 184.653898 -95.04 
L 187.669737 -95.04 
L 190.685575 -95.04 
L 193.701414 -95.04 
L 196.717252 -95.04 
L 199.733091 -95.04 
L 202.74893 -95.04 
L 205.764768 -95.04 
L 208.780607 -95.04 
L 211.796445 -95.04 
L 214.812284 -95.04 
L 217.828122 -95.04 
L 220.843961 -95.04 
L 223.8598 -95.04 
L 226.875638 -95.04 
L 229.891477 -95.04 
L 232.907315 -95.04 
L 235.923154 -95.04 
L 238.938992 -95.04 
L 241.954831 -95.04 
L 244.970669 -95.04 
L 247.986508 -95.04 
L 251.002347 -95.04 
L 254.018185 -95.04 
L 257.034024 -95.04 
L 260.049862 -95.04 
L 263.065701 -95.04 
L 266.081539 -95.04 
L 269.097378 -95.04 
L 272.113216 -95.04 
L 275.129055 -95.04 
L 278.144894 -95.04 
L 281.160732 -95.04 
L 284.176571 -95.04 
L 287.192409 -95.04 
L 290.208248 -95.04 
L 293.224086 -95.04 
L 296.239925 -95.04 
L 299.255764 -95.04 
L 302.271602 -95.04 
L 305.287441 -95.04 
L 308.303279 -95.04 
L 311.319118 -95.04 
L 314.334956 -95.04 
L 317.350795 -95.04 
L 320.366633 -95.04 
L 323.382472 -95.04 
L 326.398311 -95.04 
L 329.414149 -95.04 
L 332.429988 -95.04 
L 335.445826 -95.04 
L 338.461665 -95.04 
L 341.477503 -95.04 
L 344.493342 -95.04 
L 347.50918 -95.04 
L 350.525019 -95.04 
L 353.540858 -95.04 
L 356.556696 -95.04 
L 359.572535 -95.04 
L 362.588373 -95.04 
L 365.604212 -95.04 
L 368.62005 -95.04 
L 371.635889 -95.04 
L 374.651728 -95.04 
L 377.667566 -95.04 
L 380.683405 -95.04 
L 383.699243 -95.04 
L 386.715082 -95.04 
L 389.73092 -95.04 
L 392.746759 -95.04 
L 395.762597 -95.04 
L 398.778436 -95.04 
L 401.794275 -95.04 
L 404.810113 -95.04 
L 407.825952 -95.04 
L 410.84179 -95.04 
L 413.857629 -95.04 
L 416.873467 -95.04 
L 419.889306 -95.04 
L 422.905144 -95.04 
L 425.920983 -95.04 
L 428.936822 -95.04 
L 431.95266 -95.04 
L 434.968499 -95.04 
L 437.984337 -95.04 
L 441.000176 -95.04 
L 444.016014 -95.04 
L 447.031853 -95.04 
L 450.047692 -95.04 
L 453.06353 -95.04 
L 456.079369 -95.04 
L 459.095207 -95.04 
L 462.111046 -95.04 
L 465.126884 -95.04 
L 468.142723 -95.04 
L 471.158561 -95.04 
L 474.1744 -95.04 
L 477.190239 -95.04 
L 480.206077 -95.04 
L 483.221916 -95.04 
L 486.237754 -95.04 
L 489.253593 -95.04 
L 492.269431 -95.04 
L 495.28527 -95.04 
L 498.301108 -95.04 
L 501.316947 -95.04 
L 504.332786 -95.04 
L 507.348624 -95.04 
L 510.364463 -95.04 
L 513.380301 -95.04 
L 516.39614 -95.04 
L 519.411978 -95.04 
L 522.427817 -95.04 
L 525.443656 -95.04 
L 528.459494 -95.04 
L 531.475333 -95.04 
L 534.491171 -95.04 
L 537.50701 -95.04 
L 540.522848 -95.04 
L 543.538687 -95.04 
L 546.554525 -95.04 
L 549.570364 -95.04 
L 552.586203 -95.04 
L 555.602041 -95.04 
L 558.61788 -95.04 
L 561.633718 -95.04 
L 564.649557 -95.04 
L 567.665395 -95.04 
L 570.681234 -95.04 
L 573.697072 -95.04 
L 576.712911 -95.04 
L 579.72875 -95.04 
L 582.744588 -95.04 
L 585.760427 -95.04 
L 588.776265 -95.04 
L 591.792104 -95.04 
L 594.807942 -95.04 
L 597.823781 -95.04 
L 600.83962 -95.04 
L 603.855458 -95.04 
L 606.871297 -95.04 
L 609.887135 -95.04 
L 612.902974 -95.04 
L 615.918812 -95.04 
L 618.934651 -95.04 
L 621.950489 -95.04 
L 624.966328 -95.04 
L 627.982167 -95.04 
L 630.998005 -95.04 
L 634.013844 -95.04 
L 637.029682 -95.04 
L 640.045521 -95.04 
L 643.061359 -95.04 
L 646.077198 -95.04 
L 649.093036 -95.04 
L 652.108875 -95.04 
L 655.124714 -95.04 
L 658.140552 -95.04 
L 661.156391 -95.04 
L 664.172229 -95.04 
L 667.188068 -95.04 
L 670.203906 -95.04 
L 673.219745 -95.04 
L 676.235584 -95.04 
L 679.251422 -95.04 
L 682.267261 -95.04 
L 685.283099 -95.04 
L 688.298938 -95.04 
L 691.314776 -95.04 
L 694.330615 -95.04 
L 697.346453 -95.04 
L 700.362292 -95.04 
L 703.378131 -95.04 
L 706.393969 -95.04 
L 709.409808 -95.04 
L 712.425646 -95.04 
L 715.441485 -95.04 
L 718.457323 -95.04 
L 721.473162 -95.04 
L 724.489 -95.04 
L 727.504839 -95.04 
L 730.520678 -95.04 
L 733.536516 -95.04 
L 736.552355 -95.04 
L 739.568193 -95.04 
L 742.584032 -95.04 
L 742.584032 -95.114333 
L 742.584032 -95.114333 
L 739.568193 -96.928698 
L 736.552355 -101.835896 
L 733.536516 -99.101377 
L 730.520678 -96.445696 
L 727.504839 -96.40635 
L 724.489 -96.828997 
L 721.473162 -97.370914 
L 718.457323 -97.844294 
L 715.441485 -98.312266 
L 712.425646 -99.028013 
L 709.409808 -99.551269 
L 706.393969 -99.84739 
L 703.378131 -100.021192 
L 700.362292 -100.6803 
L 697.346453 -101.827775 
L 694.330615 -103.102285 
L 691.314776 -103.728719 
L 688.298938 -104.197742 
L 685.283099 -105.157013 
L 682.267261 -106.27907 
L 679.251422 -107.549678 
L 676.235584 -109.015903 
L 673.219745 -110.801984 
L 670.203906 -112.2554 
L 667.188068 -113.720298 
L 664.172229 -115.273868 
L 661.156391 -116.823293 
L 658.140552 -118.842055 
L 655.124714 -120.387046 
L 652.108875 -121.556615 
L 649.093036 -122.467773 
L 646.077198 -123.494623 
L 643.061359 -125.254349 
L 640.045521 -126.563339 
L 637.029682 -128.270099 
L 634.013844 -130.4788 
L 630.998005 -132.767627 
L 627.982167 -134.732893 
L 624.966328 -136.229827 
L 621.950489 -137.980202 
L 618.934651 -139.698003 
L 615.918812 -140.860917 
L 612.902974 -141.025055 
L 609.887135 -140.825921 
L 606.871297 -140.804185 
L 603.855458 -142.669098 
L 600.83962 -145.031125 
L 597.823781 -147.594169 
L 594.807942 -149.817342 
L 591.792104 -151.542499 
L 588.776265 -152.868397 
L 585.760427 -154.376025 
L 582.744588 -156.45548 
L 579.72875 -158.987592 
L 576.712911 -160.974551 
L 573.697072 -163.790124 
L 570.681234 -166.117456 
L 567.665395 -167.482194 
L 564.649557 -169.489947 
L 561.633718 -172.552102 
L 558.61788 -175.49186 
L 555.602041 -176.917426 
L 552.586203 -178.582278 
L 549.570364 -179.998633 
L 546.554525 -181.086135 
L 543.538687 -181.905962 
L 540.522848 -181.503394 
L 537.50701 -183.621821 
L 534.491171 -187.355406 
L 531.475333 -191.025909 
L 528.459494 -193.122235 
L 525.443656 -195.011717 
L 522.427817 -197.544917 
L 519.411978 -197.580408 
L 516.39614 -194.544582 
L 513.380301 -192.087316 
L 510.364463 -189.646058 
L 507.348624 -188.1862 
L 504.332786 -187.481944 
L 501.316947 -189.176422 
L 498.301108 -191.686917 
L 495.28527 -192.454409 
L 492.269431 -197.100274 
L 489.253593 -207.016011 
L 486.237754 -216.844756 
L 483.221916 -225.938707 
L 480.206077 -235.527737 
L 477.190239 -249.033447 
L 474.1744 -265.154365 
L 471.158561 -284.541828 
L 468.142723 -302.05401 
L 465.126884 -313.30154 
L 462.111046 -327.694027 
L 459.095207 -345.898282 
L 456.079369 -368.117025 
L 453.06353 -396.56198 
L 450.047692 -426.642919 
L 447.031853 -457.471079 
L 444.016014 -487.248867 
L 441.000176 -513.270219 
L 437.984337 -533.72568 
L 434.968499 -549.227438 
L 431.95266 -564.8012 
L 428.936822 -583.249329 
L 425.920983 -599.858664 
L 422.905144 -616.179744 
L 419.889306 -632.959317 
L 416.873467 -645.98546 
L 413.857629 -656.341899 
L 410.84179 -670.434882 
L 407.825952 -679.647169 
L 404.810113 -678.732428 
L 401.794275 -674.715383 
L 398.778436 -672.749697 
L 395.762597 -677.566623 
L 392.746759 -680.904232 
L 389.73092 -687.585402 
L 386.715082 -691.089479 
L 383.699243 -689.097625 
L 380.683405 -687.75365 
L 377.667566 -689.39884 
L 374.651728 -692.751025 
L 371.635889 -696.335912 
L 368.62005 -698.340026 
L 365.604212 -702.609125 
L 362.588373 -706.882162 
L 359.572535 -703.099469 
L 356.556696 -695.242974 
L 353.540858 -682.802383 
L 350.525019 -671.587603 
L 347.50918 -660.38336 
L 344.493342 -641.743942 
L 341.477503 -624.685906 
L 338.461665 -609.266885 
L 335.445826 -587.251657 
L 332.429988 -561.900244 
L 329.414149 -538.670778 
L 326.398311 -514.580815 
L 323.382472 -493.22647 
L 320.366633 -473.270923 
L 317.350795 -453.633576 
L 314.334956 -434.417157 
L 311.319118 -418.32358 
L 308.303279 -408.974397 
L 305.287441 -402.005126 
L 302.271602 -390.036761 
L 299.255764 -373.885357 
L 296.239925 -355.401378 
L 293.224086 -338.866013 
L 290.208248 -323.03393 
L 287.192409 -307.759238 
L 284.176571 -292.653049 
L 281.160732 -276.69279 
L 278.144894 -265.438825 
L 275.129055 -256.797543 
L 272.113216 -246.392669 
L 269.097378 -234.194006 
L 266.081539 -224.195247 
L 263.065701 -215.021947 
L 260.049862 -205.828249 
L 257.034024 -197.645439 
L 254.018185 -189.914754 
L 251.002347 -181.876303 
L 247.986508 -174.089058 
L 244.970669 -166.77193 
L 241.954831 -159.365796 
L 238.938992 -151.271604 
L 235.923154 -142.588404 
L 232.907315 -134.890704 
L 229.891477 -129.436347 
L 226.875638 -124.967922 
L 223.8598 -120.519104 
L 220.843961 -116.84948 
L 217.828122 -113.739268 
L 214.812284 -110.538602 
L 211.796445 -107.689069 
L 208.780607 -105.470295 
L 205.764768 -105.144055 
L 202.74893 -105.952513 
L 199.733091 -105.461113 
L 196.717252 -103.6743 
L 193.701414 -101.285591 
L 190.685575 -99.01075 
L 187.669737 -97.574291 
L 184.653898 -96.990511 
L 181.63806 -97.065103 
L 178.622221 -97.412128 
L 175.606383 -97.044593 
L 172.590544 -96.141754 
L 169.574705 -95.673233 
L 166.558867 -95.347074 
L 163.543028 -95.189168 
L 160.52719 -95.123536 
L 157.511351 -95.070363 
L 154.495513 -95.046172 
L 151.479674 -95.040868 
L 148.463836 -95.04026 
L 145.447997 -95.040066 
L 142.432158 -95.040003 
z
" style="stroke: #ff0000; stroke-width: 3"/>
    </defs>
    <g clip-path="url(#pdd73a0f7a0)">
     <use xlink:href="#mad4d69ac17" x="0" y="864" style="fill: #ff0000; fill-opacity: 0.25; stroke: #ff0000; stroke-width: 3"/>
    </g>
   </g>
   <g id="PolyCollection_3">
    <defs>
     <path id="ma97cc2bc7e" d="M 138.499225 -95.040078 
L 138.499225 -95.04 
L 141.55784 -95.04 
L 144.616456 -95.04 
L 147.675071 -95.04 
L 150.733686 -95.04 
L 153.792301 -95.04 
L 156.850916 -95.04 
L 159.909531 -95.04 
L 162.968146 -95.04 
L 166.026762 -95.04 
L 169.085377 -95.04 
L 172.143992 -95.04 
L 175.202607 -95.04 
L 178.261222 -95.04 
L 181.319837 -95.04 
L 184.378452 -95.04 
L 187.437067 -95.04 
L 190.495683 -95.04 
L 193.554298 -95.04 
L 196.612913 -95.04 
L 199.671528 -95.04 
L 202.730143 -95.04 
L 205.788758 -95.04 
L 208.847373 -95.04 
L 211.905988 -95.04 
L 214.964604 -95.04 
L 218.023219 -95.04 
L 221.081834 -95.04 
L 224.140449 -95.04 
L 227.199064 -95.04 
L 230.257679 -95.04 
L 233.316294 -95.04 
L 236.37491 -95.04 
L 239.433525 -95.04 
L 242.49214 -95.04 
L 245.550755 -95.04 
L 248.60937 -95.04 
L 251.667985 -95.04 
L 254.7266 -95.04 
L 257.785215 -95.04 
L 260.843831 -95.04 
L 263.902446 -95.04 
L 266.961061 -95.04 
L 270.019676 -95.04 
L 273.078291 -95.04 
L 276.136906 -95.04 
L 279.195521 -95.04 
L 282.254136 -95.04 
L 285.312752 -95.04 
L 288.371367 -95.04 
L 291.429982 -95.04 
L 294.488597 -95.04 
L 297.547212 -95.04 
L 300.605827 -95.04 
L 303.664442 -95.04 
L 306.723058 -95.04 
L 309.781673 -95.04 
L 312.840288 -95.04 
L 315.898903 -95.04 
L 318.957518 -95.04 
L 322.016133 -95.04 
L 325.074748 -95.04 
L 328.133363 -95.04 
L 331.191979 -95.04 
L 334.250594 -95.04 
L 337.309209 -95.04 
L 340.367824 -95.04 
L 343.426439 -95.04 
L 346.485054 -95.04 
L 349.543669 -95.04 
L 352.602284 -95.04 
L 355.6609 -95.04 
L 358.719515 -95.04 
L 361.77813 -95.04 
L 364.836745 -95.04 
L 367.89536 -95.04 
L 370.953975 -95.04 
L 374.01259 -95.04 
L 377.071206 -95.04 
L 380.129821 -95.04 
L 383.188436 -95.04 
L 386.247051 -95.04 
L 389.305666 -95.04 
L 392.364281 -95.04 
L 395.422896 -95.04 
L 398.481511 -95.04 
L 401.540127 -95.04 
L 404.598742 -95.04 
L 407.657357 -95.04 
L 410.715972 -95.04 
L 413.774587 -95.04 
L 416.833202 -95.04 
L 419.891817 -95.04 
L 422.950433 -95.04 
L 426.009048 -95.04 
L 429.067663 -95.04 
L 432.126278 -95.04 
L 435.184893 -95.04 
L 438.243508 -95.04 
L 441.302123 -95.04 
L 444.360738 -95.04 
L 447.419354 -95.04 
L 450.477969 -95.04 
L 453.536584 -95.04 
L 456.595199 -95.04 
L 459.653814 -95.04 
L 462.712429 -95.04 
L 465.771044 -95.04 
L 468.829659 -95.04 
L 471.888275 -95.04 
L 474.94689 -95.04 
L 478.005505 -95.04 
L 481.06412 -95.04 
L 484.122735 -95.04 
L 487.18135 -95.04 
L 490.239965 -95.04 
L 493.298581 -95.04 
L 496.357196 -95.04 
L 499.415811 -95.04 
L 502.474426 -95.04 
L 505.533041 -95.04 
L 508.591656 -95.04 
L 511.650271 -95.04 
L 514.708886 -95.04 
L 517.767502 -95.04 
L 520.826117 -95.04 
L 523.884732 -95.04 
L 526.943347 -95.04 
L 530.001962 -95.04 
L 533.060577 -95.04 
L 536.119192 -95.04 
L 539.177807 -95.04 
L 542.236423 -95.04 
L 545.295038 -95.04 
L 548.353653 -95.04 
L 551.412268 -95.04 
L 554.470883 -95.04 
L 557.529498 -95.04 
L 560.588113 -95.04 
L 563.646729 -95.04 
L 566.705344 -95.04 
L 569.763959 -95.04 
L 572.822574 -95.04 
L 575.881189 -95.04 
L 578.939804 -95.04 
L 581.998419 -95.04 
L 585.057034 -95.04 
L 588.11565 -95.04 
L 591.174265 -95.04 
L 594.23288 -95.04 
L 597.291495 -95.04 
L 600.35011 -95.04 
L 603.408725 -95.04 
L 606.46734 -95.04 
L 609.525955 -95.04 
L 612.584571 -95.04 
L 615.643186 -95.04 
L 618.701801 -95.04 
L 621.760416 -95.04 
L 624.819031 -95.04 
L 627.877646 -95.04 
L 630.936261 -95.04 
L 633.994877 -95.04 
L 637.053492 -95.04 
L 640.112107 -95.04 
L 643.170722 -95.04 
L 646.229337 -95.04 
L 649.287952 -95.04 
L 652.346567 -95.04 
L 655.405182 -95.04 
L 658.463798 -95.04 
L 661.522413 -95.04 
L 664.581028 -95.04 
L 667.639643 -95.04 
L 670.698258 -95.04 
L 673.756873 -95.04 
L 676.815488 -95.04 
L 679.874103 -95.04 
L 682.932719 -95.04 
L 685.991334 -95.04 
L 689.049949 -95.04 
L 692.108564 -95.04 
L 695.167179 -95.04 
L 698.225794 -95.04 
L 701.284409 -95.04 
L 704.343025 -95.04 
L 707.40164 -95.04 
L 710.460255 -95.04 
L 713.51887 -95.04 
L 716.577485 -95.04 
L 719.6361 -95.04 
L 722.694715 -95.04 
L 725.75333 -95.04 
L 728.811946 -95.04 
L 731.870561 -95.04 
L 734.929176 -95.04 
L 737.987791 -95.04 
L 741.046406 -95.04 
L 744.105021 -95.04 
L 747.163636 -95.04 
L 747.163636 -95.089054 
L 747.163636 -95.089054 
L 744.105021 -95.464353 
L 741.046406 -96.884487 
L 737.987791 -99.10465 
L 734.929176 -99.717382 
L 731.870561 -98.186998 
L 728.811946 -96.867707 
L 725.75333 -96.650879 
L 722.694715 -97.039637 
L 719.6361 -97.646278 
L 716.577485 -98.241168 
L 713.51887 -98.74834 
L 710.460255 -99.178728 
L 707.40164 -99.522052 
L 704.343025 -99.874845 
L 701.284409 -100.494043 
L 698.225794 -101.466368 
L 695.167179 -102.58275 
L 692.108564 -103.596241 
L 689.049949 -104.363581 
L 685.991334 -104.962661 
L 682.932719 -105.651253 
L 679.874103 -106.688433 
L 676.815488 -108.244056 
L 673.756873 -110.160641 
L 670.698258 -111.978511 
L 667.639643 -113.563362 
L 664.581028 -115.107638 
L 661.522413 -116.675811 
L 658.463798 -118.136954 
L 655.405182 -119.501846 
L 652.346567 -121.081738 
L 649.287952 -122.907776 
L 646.229337 -124.789459 
L 643.170722 -126.575099 
L 640.112107 -128.14201 
L 637.053492 -129.718663 
L 633.994877 -131.728236 
L 630.936261 -133.911051 
L 627.877646 -135.706956 
L 624.819031 -137.328567 
L 621.760416 -139.226455 
L 618.701801 -140.932317 
L 615.643186 -141.830495 
L 612.584571 -142.332367 
L 609.525955 -143.060888 
L 606.46734 -144.185835 
L 603.408725 -145.631468 
L 600.35011 -147.49656 
L 597.291495 -149.82236 
L 594.23288 -152.269267 
L 591.174265 -154.664856 
L 588.11565 -157.188482 
L 585.057034 -159.908897 
L 581.998419 -162.535261 
L 578.939804 -164.889027 
L 575.881189 -167.374553 
L 572.822574 -170.132185 
L 569.763959 -172.450022 
L 566.705344 -174.183283 
L 563.646729 -176.209706 
L 560.588113 -178.937745 
L 557.529498 -181.512843 
L 554.470883 -183.183178 
L 551.412268 -184.105322 
L 548.353653 -184.680174 
L 545.295038 -185.116367 
L 542.236423 -185.904654 
L 539.177807 -187.675159 
L 536.119192 -190.08601 
L 533.060577 -191.90403 
L 530.001962 -192.525571 
L 526.943347 -192.632642 
L 523.884732 -193.225234 
L 520.826117 -194.007795 
L 517.767502 -193.920616 
L 514.708886 -192.672148 
L 511.650271 -190.389942 
L 508.591656 -188.160789 
L 505.533041 -187.899673 
L 502.474426 -189.611396 
L 499.415811 -191.721276 
L 496.357196 -194.467031 
L 493.298581 -199.765765 
L 490.239965 -208.302356 
L 487.18135 -218.900058 
L 484.122735 -230.124515 
L 481.06412 -241.67718 
L 478.005505 -254.960761 
L 474.94689 -270.646156 
L 471.888275 -287.45615 
L 468.829659 -303.9051 
L 465.771044 -319.502902 
L 462.712429 -336.28052 
L 459.653814 -356.679884 
L 456.595199 -381.6086 
L 453.536584 -410.125226 
L 450.477969 -440.881635 
L 447.419354 -473.8007 
L 444.360738 -507.159985 
L 441.302123 -537.501251 
L 438.243508 -562.209007 
L 435.184893 -582.080982 
L 432.126278 -600.640517 
L 429.067663 -618.471524 
L 426.009048 -634.359565 
L 422.950433 -649.497858 
L 419.891817 -664.100614 
L 416.833202 -676.866012 
L 413.774587 -688.411464 
L 410.715972 -697.929003 
L 407.657357 -702.446739 
L 404.598742 -702.933759 
L 401.540127 -704.634272 
L 398.481511 -710.299779 
L 395.422896 -717.156838 
L 392.364281 -723.288696 
L 389.305666 -728.44017 
L 386.247051 -728.64 
L 383.188436 -721.722434 
L 380.129821 -711.994582 
L 377.071206 -705.56342 
L 374.01259 -705.108554 
L 370.953975 -708.509917 
L 367.89536 -711.695366 
L 364.836745 -711.713242 
L 361.77813 -706.258321 
L 358.719515 -694.740275 
L 355.6609 -679.2787 
L 352.602284 -662.424602 
L 349.543669 -644.645999 
L 346.485054 -623.263503 
L 343.426439 -599.361897 
L 340.367824 -578.106066 
L 337.309209 -560.401826 
L 334.250594 -544.210155 
L 331.191979 -527.852693 
L 328.133363 -509.223702 
L 325.074748 -487.552596 
L 322.016133 -464.822583 
L 318.957518 -444.230214 
L 315.898903 -427.689202 
L 312.840288 -415.304725 
L 309.781673 -405.501104 
L 306.723058 -393.913927 
L 303.664442 -377.841557 
L 300.605827 -357.99347 
L 297.547212 -335.11707 
L 294.488597 -311.414837 
L 291.429982 -289.781949 
L 288.371367 -270.895567 
L 285.312752 -254.917083 
L 282.254136 -242.135569 
L 279.195521 -232.318901 
L 276.136906 -224.484223 
L 273.078291 -217.04384 
L 270.019676 -209.66448 
L 266.961061 -202.931414 
L 263.902446 -196.468275 
L 260.843831 -189.331147 
L 257.785215 -180.872129 
L 254.7266 -171.170071 
L 251.667985 -162.122669 
L 248.60937 -155.621275 
L 245.550755 -150.916295 
L 242.49214 -146.170142 
L 239.433525 -140.539092 
L 236.37491 -134.752234 
L 233.316294 -130.060482 
L 230.257679 -125.738212 
L 227.199064 -120.47127 
L 224.140449 -115.131272 
L 221.081834 -110.879031 
L 218.023219 -107.372288 
L 214.964604 -104.145233 
L 211.905988 -101.659572 
L 208.847373 -100.399764 
L 205.788758 -100.404713 
L 202.730143 -101.02613 
L 199.671528 -100.877572 
L 196.612913 -99.386139 
L 193.554298 -97.488272 
L 190.495683 -96.150828 
L 187.437067 -95.488803 
L 184.378452 -95.21875 
L 181.319837 -95.122948 
L 178.261222 -95.114168 
L 175.202607 -95.168641 
L 172.143992 -95.350894 
L 169.085377 -95.967453 
L 166.026762 -97.588489 
L 162.968146 -99.97846 
L 159.909531 -100.96643 
L 156.850916 -99.255075 
L 153.792301 -96.820955 
L 150.733686 -95.506557 
L 147.675071 -95.122699 
L 144.616456 -95.050961 
L 141.55784 -95.04111 
L 138.499225 -95.040078 
z
" style="stroke: #008000; stroke-width: 3"/>
    </defs>
    <g clip-path="url(#pdd73a0f7a0)">
     <use xlink:href="#ma97cc2bc7e" x="0" y="864" style="fill: #008000; fill-opacity: 0.25; stroke: #008000; stroke-width: 3"/>
    </g>
   </g>
   <g id="matplotlib.axis_1">
    <g id="xtick_1">
     <g id="line2d_1">
      <defs>
       <path id="mf5740174cc" d="M 0 0 
L 0 3.5 
" style="stroke: #000000; stroke-width: 0.8"/>
      </defs>
      <g>
       <use xlink:href="#mf5740174cc" x="140.012827" y="768.96" style="stroke: #000000; stroke-width: 0.8"/>
      </g>
     </g>
     <g id="text_1">
      <!-- 0.0 -->
      <g transform="translate(132.061265 783.558437)scale(0.1 -0.1)">
       <defs>
        <path id="DejaVuSans-30" d="M 2034 4250 
Q 1547 4250 1301 3770 
Q 1056 3291 1056 2328 
Q 1056 1369 1301 889 
Q 1547 409 2034 409 
Q 2525 409 2770 889 
Q 3016 1369 3016 2328 
Q 3016 3291 2770 3770 
Q 2525 4250 2034 4250 
z
M 2034 4750 
Q 2819 4750 3233 4129 
Q 3647 3509 3647 2328 
Q 3647 1150 3233 529 
Q 2819 -91 2034 -91 
Q 1250 -91 836 529 
Q 422 1150 422 2328 
Q 422 3509 836 4129 
Q 1250 4750 2034 4750 
z
" transform="scale(0.015625)"/>
        <path id="DejaVuSans-2e" d="M 684 794 
L 1344 794 
L 1344 0 
L 684 0 
L 684 794 
z
" transform="scale(0.015625)"/>
       </defs>
       <use xlink:href="#DejaVuSans-30"/>
       <use xlink:href="#DejaVuSans-2e" x="63.623047"/>
       <use xlink:href="#DejaVuSans-30" x="95.410156"/>
      </g>
     </g>
    </g>
    <g id="xtick_2">
     <g id="line2d_2">
      <g>
       <use xlink:href="#mf5740174cc" x="259.24023" y="768.96" style="stroke: #000000; stroke-width: 0.8"/>
      </g>
     </g>
     <g id="text_2">
      <!-- 0.2 -->
      <g transform="translate(251.288668 783.558437)scale(0.1 -0.1)">
       <defs>
        <path id="DejaVuSans-32" d="M 1228 531 
L 3431 531 
L 3431 0 
L 469 0 
L 469 531 
Q 828 903 1448 1529 
Q 2069 2156 2228 2338 
Q 2531 2678 2651 2914 
Q 2772 3150 2772 3378 
Q 2772 3750 2511 3984 
Q 2250 4219 1831 4219 
Q 1534 4219 1204 4116 
Q 875 4013 500 3803 
L 500 4441 
Q 881 4594 1212 4672 
Q 1544 4750 1819 4750 
Q 2544 4750 2975 4387 
Q 3406 4025 3406 3419 
Q 3406 3131 3298 2873 
Q 3191 2616 2906 2266 
Q 2828 2175 2409 1742 
Q 1991 1309 1228 531 
z
" transform="scale(0.015625)"/>
       </defs>
       <use xlink:href="#DejaVuSans-30"/>
       <use xlink:href="#DejaVuSans-2e" x="63.623047"/>
       <use xlink:href="#DejaVuSans-32" x="95.410156"/>
      </g>
     </g>
    </g>
    <g id="xtick_3">
     <g id="line2d_3">
      <g>
       <use xlink:href="#mf5740174cc" x="378.467634" y="768.96" style="stroke: #000000; stroke-width: 0.8"/>
      </g>
     </g>
     <g id="text_3">
      <!-- 0.4 -->
      <g transform="translate(370.516071 783.558437)scale(0.1 -0.1)">
       <defs>
        <path id="DejaVuSans-34" d="M 2419 4116 
L 825 1625 
L 2419 1625 
L 2419 4116 
z
M 2253 4666 
L 3047 4666 
L 3047 1625 
L 3713 1625 
L 3713 1100 
L 3047 1100 
L 3047 0 
L 2419 0 
L 2419 1100 
L 313 1100 
L 313 1709 
L 2253 4666 
z
" transform="scale(0.015625)"/>
       </defs>
       <use xlink:href="#DejaVuSans-30"/>
       <use xlink:href="#DejaVuSans-2e" x="63.623047"/>
       <use xlink:href="#DejaVuSans-34" x="95.410156"/>
      </g>
     </g>
    </g>
    <g id="xtick_4">
     <g id="line2d_4">
      <g>
       <use xlink:href="#mf5740174cc" x="497.695037" y="768.96" style="stroke: #000000; stroke-width: 0.8"/>
      </g>
     </g>
     <g id="text_4">
      <!-- 0.6 -->
      <g transform="translate(489.743474 783.558437)scale(0.1 -0.1)">
       <defs>
        <path id="DejaVuSans-36" d="M 2113 2584 
Q 1688 2584 1439 2293 
Q 1191 2003 1191 1497 
Q 1191 994 1439 701 
Q 1688 409 2113 409 
Q 2538 409 2786 701 
Q 3034 994 3034 1497 
Q 3034 2003 2786 2293 
Q 2538 2584 2113 2584 
z
M 3366 4563 
L 3366 3988 
Q 3128 4100 2886 4159 
Q 2644 4219 2406 4219 
Q 1781 4219 1451 3797 
Q 1122 3375 1075 2522 
Q 1259 2794 1537 2939 
Q 1816 3084 2150 3084 
Q 2853 3084 3261 2657 
Q 3669 2231 3669 1497 
Q 3669 778 3244 343 
Q 2819 -91 2113 -91 
Q 1303 -91 875 529 
Q 447 1150 447 2328 
Q 447 3434 972 4092 
Q 1497 4750 2381 4750 
Q 2619 4750 2861 4703 
Q 3103 4656 3366 4563 
z
" transform="scale(0.015625)"/>
       </defs>
       <use xlink:href="#DejaVuSans-30"/>
       <use xlink:href="#DejaVuSans-2e" x="63.623047"/>
       <use xlink:href="#DejaVuSans-36" x="95.410156"/>
      </g>
     </g>
    </g>
    <g id="xtick_5">
     <g id="line2d_5">
      <g>
       <use xlink:href="#mf5740174cc" x="616.92244" y="768.96" style="stroke: #000000; stroke-width: 0.8"/>
      </g>
     </g>
     <g id="text_5">
      <!-- 0.8 -->
      <g transform="translate(608.970877 783.558437)scale(0.1 -0.1)">
       <defs>
        <path id="DejaVuSans-38" d="M 2034 2216 
Q 1584 2216 1326 1975 
Q 1069 1734 1069 1313 
Q 1069 891 1326 650 
Q 1584 409 2034 409 
Q 2484 409 2743 651 
Q 3003 894 3003 1313 
Q 3003 1734 2745 1975 
Q 2488 2216 2034 2216 
z
M 1403 2484 
Q 997 2584 770 2862 
Q 544 3141 544 3541 
Q 544 4100 942 4425 
Q 1341 4750 2034 4750 
Q 2731 4750 3128 4425 
Q 3525 4100 3525 3541 
Q 3525 3141 3298 2862 
Q 3072 2584 2669 2484 
Q 3125 2378 3379 2068 
Q 3634 1759 3634 1313 
Q 3634 634 3220 271 
Q 2806 -91 2034 -91 
Q 1263 -91 848 271 
Q 434 634 434 1313 
Q 434 1759 690 2068 
Q 947 2378 1403 2484 
z
M 1172 3481 
Q 1172 3119 1398 2916 
Q 1625 2713 2034 2713 
Q 2441 2713 2670 2916 
Q 2900 3119 2900 3481 
Q 2900 3844 2670 4047 
Q 2441 4250 2034 4250 
Q 1625 4250 1398 4047 
Q 1172 3844 1172 3481 
z
" transform="scale(0.015625)"/>
       </defs>
       <use xlink:href="#DejaVuSans-30"/>
       <use xlink:href="#DejaVuSans-2e" x="63.623047"/>
       <use xlink:href="#DejaVuSans-38" x="95.410156"/>
      </g>
     </g>
    </g>
    <g id="xtick_6">
     <g id="line2d_6">
      <g>
       <use xlink:href="#mf5740174cc" x="736.149843" y="768.96" style="stroke: #000000; stroke-width: 0.8"/>
      </g>
     </g>
     <g id="text_6">
      <!-- 1.0 -->
      <g transform="translate(728.198281 783.558437)scale(0.1 -0.1)">
       <defs>
        <path id="DejaVuSans-31" d="M 794 531 
L 1825 531 
L 1825 4091 
L 703 3866 
L 703 4441 
L 1819 4666 
L 2450 4666 
L 2450 531 
L 3481 531 
L 3481 0 
L 794 0 
L 794 531 
z
" transform="scale(0.015625)"/>
       </defs>
       <use xlink:href="#DejaVuSans-31"/>
       <use xlink:href="#DejaVuSans-2e" x="63.623047"/>
       <use xlink:href="#DejaVuSans-30" x="95.410156"/>
      </g>
     </g>
    </g>
    <g id="text_7">
     <!-- Similarity -->
     <g transform="translate(404.97625 801.795625)scale(0.16 -0.16)">
      <defs>
       <path id="DejaVuSans-53" d="M 3425 4513 
L 3425 3897 
Q 3066 4069 2747 4153 
Q 2428 4238 2131 4238 
Q 1616 4238 1336 4038 
Q 1056 3838 1056 3469 
Q 1056 3159 1242 3001 
Q 1428 2844 1947 2747 
L 2328 2669 
Q 3034 2534 3370 2195 
Q 3706 1856 3706 1288 
Q 3706 609 3251 259 
Q 2797 -91 1919 -91 
Q 1588 -91 1214 -16 
Q 841 59 441 206 
L 441 856 
Q 825 641 1194 531 
Q 1563 422 1919 422 
Q 2459 422 2753 634 
Q 3047 847 3047 1241 
Q 3047 1584 2836 1778 
Q 2625 1972 2144 2069 
L 1759 2144 
Q 1053 2284 737 2584 
Q 422 2884 422 3419 
Q 422 4038 858 4394 
Q 1294 4750 2059 4750 
Q 2388 4750 2728 4690 
Q 3069 4631 3425 4513 
z
" transform="scale(0.015625)"/>
       <path id="DejaVuSans-69" d="M 603 3500 
L 1178 3500 
L 1178 0 
L 603 0 
L 603 3500 
z
M 603 4863 
L 1178 4863 
L 1178 4134 
L 603 4134 
L 603 4863 
z
" transform="scale(0.015625)"/>
       <path id="DejaVuSans-6d" d="M 3328 2828 
Q 3544 3216 3844 3400 
Q 4144 3584 4550 3584 
Q 5097 3584 5394 3201 
Q 5691 2819 5691 2113 
L 5691 0 
L 5113 0 
L 5113 2094 
Q 5113 2597 4934 2840 
Q 4756 3084 4391 3084 
Q 3944 3084 3684 2787 
Q 3425 2491 3425 1978 
L 3425 0 
L 2847 0 
L 2847 2094 
Q 2847 2600 2669 2842 
Q 2491 3084 2119 3084 
Q 1678 3084 1418 2786 
Q 1159 2488 1159 1978 
L 1159 0 
L 581 0 
L 581 3500 
L 1159 3500 
L 1159 2956 
Q 1356 3278 1631 3431 
Q 1906 3584 2284 3584 
Q 2666 3584 2933 3390 
Q 3200 3197 3328 2828 
z
" transform="scale(0.015625)"/>
       <path id="DejaVuSans-6c" d="M 603 4863 
L 1178 4863 
L 1178 0 
L 603 0 
L 603 4863 
z
" transform="scale(0.015625)"/>
       <path id="DejaVuSans-61" d="M 2194 1759 
Q 1497 1759 1228 1600 
Q 959 1441 959 1056 
Q 959 750 1161 570 
Q 1363 391 1709 391 
Q 2188 391 2477 730 
Q 2766 1069 2766 1631 
L 2766 1759 
L 2194 1759 
z
M 3341 1997 
L 3341 0 
L 2766 0 
L 2766 531 
Q 2569 213 2275 61 
Q 1981 -91 1556 -91 
Q 1019 -91 701 211 
Q 384 513 384 1019 
Q 384 1609 779 1909 
Q 1175 2209 1959 2209 
L 2766 2209 
L 2766 2266 
Q 2766 2663 2505 2880 
Q 2244 3097 1772 3097 
Q 1472 3097 1187 3025 
Q 903 2953 641 2809 
L 641 3341 
Q 956 3463 1253 3523 
Q 1550 3584 1831 3584 
Q 2591 3584 2966 3190 
Q 3341 2797 3341 1997 
z
" transform="scale(0.015625)"/>
       <path id="DejaVuSans-72" d="M 2631 2963 
Q 2534 3019 2420 3045 
Q 2306 3072 2169 3072 
Q 1681 3072 1420 2755 
Q 1159 2438 1159 1844 
L 1159 0 
L 581 0 
L 581 3500 
L 1159 3500 
L 1159 2956 
Q 1341 3275 1631 3429 
Q 1922 3584 2338 3584 
Q 2397 3584 2469 3576 
Q 2541 3569 2628 3553 
L 2631 2963 
z
" transform="scale(0.015625)"/>
       <path id="DejaVuSans-74" d="M 1172 4494 
L 1172 3500 
L 2356 3500 
L 2356 3053 
L 1172 3053 
L 1172 1153 
Q 1172 725 1289 603 
Q 1406 481 1766 481 
L 2356 481 
L 2356 0 
L 1766 0 
Q 1100 0 847 248 
Q 594 497 594 1153 
L 594 3053 
L 172 3053 
L 172 3500 
L 594 3500 
L 594 4494 
L 1172 4494 
z
" transform="scale(0.015625)"/>
       <path id="DejaVuSans-79" d="M 2059 -325 
Q 1816 -950 1584 -1140 
Q 1353 -1331 966 -1331 
L 506 -1331 
L 506 -850 
L 844 -850 
Q 1081 -850 1212 -737 
Q 1344 -625 1503 -206 
L 1606 56 
L 191 3500 
L 800 3500 
L 1894 763 
L 2988 3500 
L 3597 3500 
L 2059 -325 
z
" transform="scale(0.015625)"/>
      </defs>
      <use xlink:href="#DejaVuSans-53"/>
      <use xlink:href="#DejaVuSans-69" x="63.476562"/>
      <use xlink:href="#DejaVuSans-6d" x="91.259766"/>
      <use xlink:href="#DejaVuSans-69" x="188.671875"/>
      <use xlink:href="#DejaVuSans-6c" x="216.455078"/>
      <use xlink:href="#DejaVuSans-61" x="244.238281"/>
      <use xlink:href="#DejaVuSans-72" x="305.517578"/>
      <use xlink:href="#DejaVuSans-69" x="346.630859"/>
      <use xlink:href="#DejaVuSans-74" x="374.414062"/>
      <use xlink:href="#DejaVuSans-79" x="413.623047"/>
     </g>
    </g>
   </g>
   <g id="matplotlib.axis_2">
    <g id="ytick_1">
     <g id="line2d_7">
      <defs>
       <path id="m2704394b9c" d="M 0 0 
L -3.5 0 
" style="stroke: #000000; stroke-width: 0.8"/>
      </defs>
      <g>
       <use xlink:href="#m2704394b9c" x="108" y="768.96" style="stroke: #000000; stroke-width: 0.8"/>
      </g>
     </g>
     <g id="text_8">
      <!-- 0.0 -->
      <g transform="translate(85.096875 772.759219)scale(0.1 -0.1)">
       <use xlink:href="#DejaVuSans-30"/>
       <use xlink:href="#DejaVuSans-2e" x="63.623047"/>
       <use xlink:href="#DejaVuSans-30" x="95.410156"/>
      </g>
     </g>
    </g>
    <g id="ytick_2">
     <g id="line2d_8">
      <g>
       <use xlink:href="#m2704394b9c" x="108" y="680.259464" style="stroke: #000000; stroke-width: 0.8"/>
      </g>
     </g>
     <g id="text_9">
      <!-- 0.5 -->
      <g transform="translate(85.096875 684.058683)scale(0.1 -0.1)">
       <defs>
        <path id="DejaVuSans-35" d="M 691 4666 
L 3169 4666 
L 3169 4134 
L 1269 4134 
L 1269 2991 
Q 1406 3038 1543 3061 
Q 1681 3084 1819 3084 
Q 2600 3084 3056 2656 
Q 3513 2228 3513 1497 
Q 3513 744 3044 326 
Q 2575 -91 1722 -91 
Q 1428 -91 1123 -41 
Q 819 9 494 109 
L 494 744 
Q 775 591 1075 516 
Q 1375 441 1709 441 
Q 2250 441 2565 725 
Q 2881 1009 2881 1497 
Q 2881 1984 2565 2268 
Q 2250 2553 1709 2553 
Q 1456 2553 1204 2497 
Q 953 2441 691 2322 
L 691 4666 
z
" transform="scale(0.015625)"/>
       </defs>
       <use xlink:href="#DejaVuSans-30"/>
       <use xlink:href="#DejaVuSans-2e" x="63.623047"/>
       <use xlink:href="#DejaVuSans-35" x="95.410156"/>
      </g>
     </g>
    </g>
    <g id="ytick_3">
     <g id="line2d_9">
      <g>
       <use xlink:href="#m2704394b9c" x="108" y="591.558928" style="stroke: #000000; stroke-width: 0.8"/>
      </g>
     </g>
     <g id="text_10">
      <!-- 1.0 -->
      <g transform="translate(85.096875 595.358146)scale(0.1 -0.1)">
       <use xlink:href="#DejaVuSans-31"/>
       <use xlink:href="#DejaVuSans-2e" x="63.623047"/>
       <use xlink:href="#DejaVuSans-30" x="95.410156"/>
      </g>
     </g>
    </g>
    <g id="ytick_4">
     <g id="line2d_10">
      <g>
       <use xlink:href="#m2704394b9c" x="108" y="502.858392" style="stroke: #000000; stroke-width: 0.8"/>
      </g>
     </g>
     <g id="text_11">
      <!-- 1.5 -->
      <g transform="translate(85.096875 506.65761)scale(0.1 -0.1)">
       <use xlink:href="#DejaVuSans-31"/>
       <use xlink:href="#DejaVuSans-2e" x="63.623047"/>
       <use xlink:href="#DejaVuSans-35" x="95.410156"/>
      </g>
     </g>
    </g>
    <g id="ytick_5">
     <g id="line2d_11">
      <g>
       <use xlink:href="#m2704394b9c" x="108" y="414.157855" style="stroke: #000000; stroke-width: 0.8"/>
      </g>
     </g>
     <g id="text_12">
      <!-- 2.0 -->
      <g transform="translate(85.096875 417.957074)scale(0.1 -0.1)">
       <use xlink:href="#DejaVuSans-32"/>
       <use xlink:href="#DejaVuSans-2e" x="63.623047"/>
       <use xlink:href="#DejaVuSans-30" x="95.410156"/>
      </g>
     </g>
    </g>
    <g id="ytick_6">
     <g id="line2d_12">
      <g>
       <use xlink:href="#m2704394b9c" x="108" y="325.457319" style="stroke: #000000; stroke-width: 0.8"/>
      </g>
     </g>
     <g id="text_13">
      <!-- 2.5 -->
      <g transform="translate(85.096875 329.256538)scale(0.1 -0.1)">
       <use xlink:href="#DejaVuSans-32"/>
       <use xlink:href="#DejaVuSans-2e" x="63.623047"/>
       <use xlink:href="#DejaVuSans-35" x="95.410156"/>
      </g>
     </g>
    </g>
    <g id="ytick_7">
     <g id="line2d_13">
      <g>
       <use xlink:href="#m2704394b9c" x="108" y="236.756783" style="stroke: #000000; stroke-width: 0.8"/>
      </g>
     </g>
     <g id="text_14">
      <!-- 3.0 -->
      <g transform="translate(85.096875 240.556002)scale(0.1 -0.1)">
       <defs>
        <path id="DejaVuSans-33" d="M 2597 2516 
Q 3050 2419 3304 2112 
Q 3559 1806 3559 1356 
Q 3559 666 3084 287 
Q 2609 -91 1734 -91 
Q 1441 -91 1130 -33 
Q 819 25 488 141 
L 488 750 
Q 750 597 1062 519 
Q 1375 441 1716 441 
Q 2309 441 2620 675 
Q 2931 909 2931 1356 
Q 2931 1769 2642 2001 
Q 2353 2234 1838 2234 
L 1294 2234 
L 1294 2753 
L 1863 2753 
Q 2328 2753 2575 2939 
Q 2822 3125 2822 3475 
Q 2822 3834 2567 4026 
Q 2313 4219 1838 4219 
Q 1578 4219 1281 4162 
Q 984 4106 628 3988 
L 628 4550 
Q 988 4650 1302 4700 
Q 1616 4750 1894 4750 
Q 2613 4750 3031 4423 
Q 3450 4097 3450 3541 
Q 3450 3153 3228 2886 
Q 3006 2619 2597 2516 
z
" transform="scale(0.015625)"/>
       </defs>
       <use xlink:href="#DejaVuSans-33"/>
       <use xlink:href="#DejaVuSans-2e" x="63.623047"/>
       <use xlink:href="#DejaVuSans-30" x="95.410156"/>
      </g>
     </g>
    </g>
    <g id="ytick_8">
     <g id="line2d_14">
      <g>
       <use xlink:href="#m2704394b9c" x="108" y="148.056247" style="stroke: #000000; stroke-width: 0.8"/>
      </g>
     </g>
     <g id="text_15">
      <!-- 3.5 -->
      <g transform="translate(85.096875 151.855466)scale(0.1 -0.1)">
       <use xlink:href="#DejaVuSans-33"/>
       <use xlink:href="#DejaVuSans-2e" x="63.623047"/>
       <use xlink:href="#DejaVuSans-35" x="95.410156"/>
      </g>
     </g>
    </g>
    <g id="text_16">
     <!-- Density -->
     <g transform="translate(77.769375 466.73375)rotate(-90)scale(0.16 -0.16)">
      <defs>
       <path id="DejaVuSans-44" d="M 1259 4147 
L 1259 519 
L 2022 519 
Q 2988 519 3436 956 
Q 3884 1394 3884 2338 
Q 3884 3275 3436 3711 
Q 2988 4147 2022 4147 
L 1259 4147 
z
M 628 4666 
L 1925 4666 
Q 3281 4666 3915 4102 
Q 4550 3538 4550 2338 
Q 4550 1131 3912 565 
Q 3275 0 1925 0 
L 628 0 
L 628 4666 
z
" transform="scale(0.015625)"/>
       <path id="DejaVuSans-65" d="M 3597 1894 
L 3597 1613 
L 953 1613 
Q 991 1019 1311 708 
Q 1631 397 2203 397 
Q 2534 397 2845 478 
Q 3156 559 3463 722 
L 3463 178 
Q 3153 47 2828 -22 
Q 2503 -91 2169 -91 
Q 1331 -91 842 396 
Q 353 884 353 1716 
Q 353 2575 817 3079 
Q 1281 3584 2069 3584 
Q 2775 3584 3186 3129 
Q 3597 2675 3597 1894 
z
M 3022 2063 
Q 3016 2534 2758 2815 
Q 2500 3097 2075 3097 
Q 1594 3097 1305 2825 
Q 1016 2553 972 2059 
L 3022 2063 
z
" transform="scale(0.015625)"/>
       <path id="DejaVuSans-6e" d="M 3513 2113 
L 3513 0 
L 2938 0 
L 2938 2094 
Q 2938 2591 2744 2837 
Q 2550 3084 2163 3084 
Q 1697 3084 1428 2787 
Q 1159 2491 1159 1978 
L 1159 0 
L 581 0 
L 581 3500 
L 1159 3500 
L 1159 2956 
Q 1366 3272 1645 3428 
Q 1925 3584 2291 3584 
Q 2894 3584 3203 3211 
Q 3513 2838 3513 2113 
z
" transform="scale(0.015625)"/>
       <path id="DejaVuSans-73" d="M 2834 3397 
L 2834 2853 
Q 2591 2978 2328 3040 
Q 2066 3103 1784 3103 
Q 1356 3103 1142 2972 
Q 928 2841 928 2578 
Q 928 2378 1081 2264 
Q 1234 2150 1697 2047 
L 1894 2003 
Q 2506 1872 2764 1633 
Q 3022 1394 3022 966 
Q 3022 478 2636 193 
Q 2250 -91 1575 -91 
Q 1294 -91 989 -36 
Q 684 19 347 128 
L 347 722 
Q 666 556 975 473 
Q 1284 391 1588 391 
Q 1994 391 2212 530 
Q 2431 669 2431 922 
Q 2431 1156 2273 1281 
Q 2116 1406 1581 1522 
L 1381 1569 
Q 847 1681 609 1914 
Q 372 2147 372 2553 
Q 372 3047 722 3315 
Q 1072 3584 1716 3584 
Q 2034 3584 2315 3537 
Q 2597 3491 2834 3397 
z
" transform="scale(0.015625)"/>
      </defs>
      <use xlink:href="#DejaVuSans-44"/>
      <use xlink:href="#DejaVuSans-65" x="77.001953"/>
      <use xlink:href="#DejaVuSans-6e" x="138.525391"/>
      <use xlink:href="#DejaVuSans-73" x="201.904297"/>
      <use xlink:href="#DejaVuSans-69" x="254.003906"/>
      <use xlink:href="#DejaVuSans-74" x="281.787109"/>
      <use xlink:href="#DejaVuSans-79" x="320.996094"/>
     </g>
    </g>
   </g>
   <g id="patch_3">
    <path d="M 108 768.96 
L 108 103.68 
" style="fill: none; stroke: #000000; stroke-width: 0.8; stroke-linejoin: miter; stroke-linecap: square"/>
   </g>
   <g id="patch_4">
    <path d="M 777.6 768.96 
L 777.6 103.68 
" style="fill: none; stroke: #000000; stroke-width: 0.8; stroke-linejoin: miter; stroke-linecap: square"/>
   </g>
   <g id="patch_5">
    <path d="M 108 768.96 
L 777.6 768.96 
" style="fill: none; stroke: #000000; stroke-width: 0.8; stroke-linejoin: miter; stroke-linecap: square"/>
   </g>
   <g id="patch_6">
    <path d="M 108 103.68 
L 777.6 103.68 
" style="fill: none; stroke: #000000; stroke-width: 0.8; stroke-linejoin: miter; stroke-linecap: square"/>
   </g>
   <g id="legend_1">
    <g id="patch_7">
     <path d="M 484.15 186.935 
L 766.4 186.935 
Q 769.6 186.935 769.6 183.735 
L 769.6 114.88 
Q 769.6 111.68 766.4 111.68 
L 484.15 111.68 
Q 480.95 111.68 480.95 114.88 
L 480.95 183.735 
Q 480.95 186.935 484.15 186.935 
z
" style="fill: #ffffff; opacity: 0.8; stroke: #cccccc; stroke-linejoin: miter"/>
    </g>
    <g id="patch_8">
     <path d="M 487.35 130.2375 
L 519.35 130.2375 
L 519.35 119.0375 
L 487.35 119.0375 
z
" style="fill: #0000ff; fill-opacity: 0.25; stroke: #0000ff; stroke-width: 3; stroke-linejoin: miter"/>
    </g>
    <g id="text_17">
     <!-- Training vs Test set similarity -->
     <g transform="translate(532.15 130.2375)scale(0.16 -0.16)">
      <defs>
       <path id="DejaVuSans-54" d="M -19 4666 
L 3928 4666 
L 3928 4134 
L 2272 4134 
L 2272 0 
L 1638 0 
L 1638 4134 
L -19 4134 
L -19 4666 
z
" transform="scale(0.015625)"/>
       <path id="DejaVuSans-67" d="M 2906 1791 
Q 2906 2416 2648 2759 
Q 2391 3103 1925 3103 
Q 1463 3103 1205 2759 
Q 947 2416 947 1791 
Q 947 1169 1205 825 
Q 1463 481 1925 481 
Q 2391 481 2648 825 
Q 2906 1169 2906 1791 
z
M 3481 434 
Q 3481 -459 3084 -895 
Q 2688 -1331 1869 -1331 
Q 1566 -1331 1297 -1286 
Q 1028 -1241 775 -1147 
L 775 -588 
Q 1028 -725 1275 -790 
Q 1522 -856 1778 -856 
Q 2344 -856 2625 -561 
Q 2906 -266 2906 331 
L 2906 616 
Q 2728 306 2450 153 
Q 2172 0 1784 0 
Q 1141 0 747 490 
Q 353 981 353 1791 
Q 353 2603 747 3093 
Q 1141 3584 1784 3584 
Q 2172 3584 2450 3431 
Q 2728 3278 2906 2969 
L 2906 3500 
L 3481 3500 
L 3481 434 
z
" transform="scale(0.015625)"/>
       <path id="DejaVuSans-20" transform="scale(0.015625)"/>
       <path id="DejaVuSans-76" d="M 191 3500 
L 800 3500 
L 1894 563 
L 2988 3500 
L 3597 3500 
L 2284 0 
L 1503 0 
L 191 3500 
z
" transform="scale(0.015625)"/>
      </defs>
      <use xlink:href="#DejaVuSans-54"/>
      <use xlink:href="#DejaVuSans-72" x="46.333984"/>
      <use xlink:href="#DejaVuSans-61" x="87.447266"/>
      <use xlink:href="#DejaVuSans-69" x="148.726562"/>
      <use xlink:href="#DejaVuSans-6e" x="176.509766"/>
      <use xlink:href="#DejaVuSans-69" x="239.888672"/>
      <use xlink:href="#DejaVuSans-6e" x="267.671875"/>
      <use xlink:href="#DejaVuSans-67" x="331.050781"/>
      <use xlink:href="#DejaVuSans-20" x="394.527344"/>
      <use xlink:href="#DejaVuSans-76" x="426.314453"/>
      <use xlink:href="#DejaVuSans-73" x="485.494141"/>
      <use xlink:href="#DejaVuSans-20" x="537.59375"/>
      <use xlink:href="#DejaVuSans-54" x="569.380859"/>
      <use xlink:href="#DejaVuSans-65" x="613.464844"/>
      <use xlink:href="#DejaVuSans-73" x="674.988281"/>
      <use xlink:href="#DejaVuSans-74" x="727.087891"/>
      <use xlink:href="#DejaVuSans-20" x="766.296875"/>
      <use xlink:href="#DejaVuSans-73" x="798.083984"/>
      <use xlink:href="#DejaVuSans-65" x="850.183594"/>
      <use xlink:href="#DejaVuSans-74" x="911.707031"/>
      <use xlink:href="#DejaVuSans-20" x="950.916016"/>
      <use xlink:href="#DejaVuSans-73" x="982.703125"/>
      <use xlink:href="#DejaVuSans-69" x="1034.802734"/>
      <use xlink:href="#DejaVuSans-6d" x="1062.585938"/>
      <use xlink:href="#DejaVuSans-69" x="1159.998047"/>
      <use xlink:href="#DejaVuSans-6c" x="1187.78125"/>
      <use xlink:href="#DejaVuSans-61" x="1215.564453"/>
      <use xlink:href="#DejaVuSans-72" x="1276.84375"/>
      <use xlink:href="#DejaVuSans-69" x="1317.957031"/>
      <use xlink:href="#DejaVuSans-74" x="1345.740234"/>
      <use xlink:href="#DejaVuSans-79" x="1384.949219"/>
     </g>
    </g>
    <g id="patch_9">
     <path d="M 487.35 153.7225 
L 519.35 153.7225 
L 519.35 142.5225 
L 487.35 142.5225 
z
" style="fill: #ff0000; fill-opacity: 0.25; stroke: #ff0000; stroke-width: 3; stroke-linejoin: miter"/>
    </g>
    <g id="text_18">
     <!-- Training set inner similarity -->
     <g transform="translate(532.15 153.7225)scale(0.16 -0.16)">
      <use xlink:href="#DejaVuSans-54"/>
      <use xlink:href="#DejaVuSans-72" x="46.333984"/>
      <use xlink:href="#DejaVuSans-61" x="87.447266"/>
      <use xlink:href="#DejaVuSans-69" x="148.726562"/>
      <use xlink:href="#DejaVuSans-6e" x="176.509766"/>
      <use xlink:href="#DejaVuSans-69" x="239.888672"/>
      <use xlink:href="#DejaVuSans-6e" x="267.671875"/>
      <use xlink:href="#DejaVuSans-67" x="331.050781"/>
      <use xlink:href="#DejaVuSans-20" x="394.527344"/>
      <use xlink:href="#DejaVuSans-73" x="426.314453"/>
      <use xlink:href="#DejaVuSans-65" x="478.414062"/>
      <use xlink:href="#DejaVuSans-74" x="539.9375"/>
      <use xlink:href="#DejaVuSans-20" x="579.146484"/>
      <use xlink:href="#DejaVuSans-69" x="610.933594"/>
      <use xlink:href="#DejaVuSans-6e" x="638.716797"/>
      <use xlink:href="#DejaVuSans-6e" x="702.095703"/>
      <use xlink:href="#DejaVuSans-65" x="765.474609"/>
      <use xlink:href="#DejaVuSans-72" x="826.998047"/>
      <use xlink:href="#DejaVuSans-20" x="868.111328"/>
      <use xlink:href="#DejaVuSans-73" x="899.898438"/>
      <use xlink:href="#DejaVuSans-69" x="951.998047"/>
      <use xlink:href="#DejaVuSans-6d" x="979.78125"/>
      <use xlink:href="#DejaVuSans-69" x="1077.193359"/>
      <use xlink:href="#DejaVuSans-6c" x="1104.976562"/>
      <use xlink:href="#DejaVuSans-61" x="1132.759766"/>
      <use xlink:href="#DejaVuSans-72" x="1194.039062"/>
      <use xlink:href="#DejaVuSans-69" x="1235.152344"/>
      <use xlink:href="#DejaVuSans-74" x="1262.935547"/>
      <use xlink:href="#DejaVuSans-79" x="1302.144531"/>
     </g>
    </g>
    <g id="patch_10">
     <path d="M 487.35 177.2075 
L 519.35 177.2075 
L 519.35 166.0075 
L 487.35 166.0075 
z
" style="fill: #008000; fill-opacity: 0.25; stroke: #008000; stroke-width: 3; stroke-linejoin: miter"/>
    </g>
    <g id="text_19">
     <!-- Test set inner similarity -->
     <g transform="translate(532.15 177.2075)scale(0.16 -0.16)">
      <use xlink:href="#DejaVuSans-54"/>
      <use xlink:href="#DejaVuSans-65" x="44.083984"/>
      <use xlink:href="#DejaVuSans-73" x="105.607422"/>
      <use xlink:href="#DejaVuSans-74" x="157.707031"/>
      <use xlink:href="#DejaVuSans-20" x="196.916016"/>
      <use xlink:href="#DejaVuSans-73" x="228.703125"/>
      <use xlink:href="#DejaVuSans-65" x="280.802734"/>
      <use xlink:href="#DejaVuSans-74" x="342.326172"/>
      <use xlink:href="#DejaVuSans-20" x="381.535156"/>
      <use xlink:href="#DejaVuSans-69" x="413.322266"/>
      <use xlink:href="#DejaVuSans-6e" x="441.105469"/>
      <use xlink:href="#DejaVuSans-6e" x="504.484375"/>
      <use xlink:href="#DejaVuSans-65" x="567.863281"/>
      <use xlink:href="#DejaVuSans-72" x="629.386719"/>
      <use xlink:href="#DejaVuSans-20" x="670.5"/>
      <use xlink:href="#DejaVuSans-73" x="702.287109"/>
      <use xlink:href="#DejaVuSans-69" x="754.386719"/>
      <use xlink:href="#DejaVuSans-6d" x="782.169922"/>
      <use xlink:href="#DejaVuSans-69" x="879.582031"/>
      <use xlink:href="#DejaVuSans-6c" x="907.365234"/>
      <use xlink:href="#DejaVuSans-61" x="935.148438"/>
      <use xlink:href="#DejaVuSans-72" x="996.427734"/>
      <use xlink:href="#DejaVuSans-69" x="1037.541016"/>
      <use xlink:href="#DejaVuSans-74" x="1065.324219"/>
      <use xlink:href="#DejaVuSans-79" x="1104.533203"/>
     </g>
    </g>
   </g>
  </g>
 </g>
 <defs>
  <clipPath id="pdd73a0f7a0">
   <rect x="108" y="103.68" width="669.6" height="665.28"/>
  </clipPath>
 </defs>
</svg>
