<?xml version="1.0" encoding="utf-8" standalone="no"?>
<!DOCTYPE svg PUBLIC "-//W3C//DTD SVG 1.1//EN"
  "http://www.w3.org/Graphics/SVG/1.1/DTD/svg11.dtd">
<svg xmlns:xlink="http://www.w3.org/1999/xlink" width="864pt" height="864pt" viewBox="0 0 864 864" xmlns="http://www.w3.org/2000/svg" version="1.1">
 <metadata>
  <rdf:RDF xmlns:dc="http://purl.org/dc/elements/1.1/" xmlns:cc="http://creativecommons.org/ns#" xmlns:rdf="http://www.w3.org/1999/02/22-rdf-syntax-ns#">
   <cc:Work>
    <dc:type rdf:resource="http://purl.org/dc/dcmitype/StillImage"/>
    <dc:date>2022-02-07T13:00:27.457759</dc:date>
    <dc:format>image/svg+xml</dc:format>
    <dc:creator>
     <cc:Agent>
      <dc:title>Matplotlib v3.5.1, https://matplotlib.org/</dc:title>
     </cc:Agent>
    </dc:creator>
   </cc:Work>
  </rdf:RDF>
 </metadata>
 <defs>
  <style type="text/css">*{stroke-linejoin: round; stroke-linecap: butt}</style>
 </defs>
 <g id="figure_1">
  <g id="patch_1">
   <path d="M 0 864 
L 864 864 
L 864 0 
L 0 0 
z
" style="fill: #ffffff"/>
  </g>
  <g id="axes_1">
   <g id="patch_2">
    <path d="M 108 768.96 
L 777.6 768.96 
L 777.6 103.68 
L 108 103.68 
z
" style="fill: #ffffff"/>
   </g>
   <g id="PolyCollection_1">
    <defs>
     <path id="me4514dcd17" d="M 140.791977 -95.040007 
L 140.791977 -95.04 
L 143.819729 -95.04 
L 146.84748 -95.04 
L 149.875231 -95.04 
L 152.902983 -95.04 
L 155.930734 -95.04 
L 158.958485 -95.04 
L 161.986237 -95.04 
L 165.013988 -95.04 
L 168.04174 -95.04 
L 171.069491 -95.04 
L 174.097242 -95.04 
L 177.124994 -95.04 
L 180.152745 -95.04 
L 183.180496 -95.04 
L 186.208248 -95.04 
L 189.235999 -95.04 
L 192.263751 -95.04 
L 195.291502 -95.04 
L 198.319253 -95.04 
L 201.347005 -95.04 
L 204.374756 -95.04 
L 207.402507 -95.04 
L 210.430259 -95.04 
L 213.45801 -95.04 
L 216.485761 -95.04 
L 219.513513 -95.04 
L 222.541264 -95.04 
L 225.569016 -95.04 
L 228.596767 -95.04 
L 231.624518 -95.04 
L 234.65227 -95.04 
L 237.680021 -95.04 
L 240.707772 -95.04 
L 243.735524 -95.04 
L 246.763275 -95.04 
L 249.791027 -95.04 
L 252.818778 -95.04 
L 255.846529 -95.04 
L 258.874281 -95.04 
L 261.902032 -95.04 
L 264.929783 -95.04 
L 267.957535 -95.04 
L 270.985286 -95.04 
L 274.013037 -95.04 
L 277.040789 -95.04 
L 280.06854 -95.04 
L 283.096292 -95.04 
L 286.124043 -95.04 
L 289.151794 -95.04 
L 292.179546 -95.04 
L 295.207297 -95.04 
L 298.235048 -95.04 
L 301.2628 -95.04 
L 304.290551 -95.04 
L 307.318303 -95.04 
L 310.346054 -95.04 
L 313.373805 -95.04 
L 316.401557 -95.04 
L 319.429308 -95.04 
L 322.457059 -95.04 
L 325.484811 -95.04 
L 328.512562 -95.04 
L 331.540314 -95.04 
L 334.568065 -95.04 
L 337.595816 -95.04 
L 340.623568 -95.04 
L 343.651319 -95.04 
L 346.67907 -95.04 
L 349.706822 -95.04 
L 352.734573 -95.04 
L 355.762324 -95.04 
L 358.790076 -95.04 
L 361.817827 -95.04 
L 364.845579 -95.04 
L 367.87333 -95.04 
L 370.901081 -95.04 
L 373.928833 -95.04 
L 376.956584 -95.04 
L 379.984335 -95.04 
L 383.012087 -95.04 
L 386.039838 -95.04 
L 389.06759 -95.04 
L 392.095341 -95.04 
L 395.123092 -95.04 
L 398.150844 -95.04 
L 401.178595 -95.04 
L 404.206346 -95.04 
L 407.234098 -95.04 
L 410.261849 -95.04 
L 413.289601 -95.04 
L 416.317352 -95.04 
L 419.345103 -95.04 
L 422.372855 -95.04 
L 425.400606 -95.04 
L 428.428357 -95.04 
L 431.456109 -95.04 
L 434.48386 -95.04 
L 437.511611 -95.04 
L 440.539363 -95.04 
L 443.567114 -95.04 
L 446.594866 -95.04 
L 449.622617 -95.04 
L 452.650368 -95.04 
L 455.67812 -95.04 
L 458.705871 -95.04 
L 461.733622 -95.04 
L 464.761374 -95.04 
L 467.789125 -95.04 
L 470.816877 -95.04 
L 473.844628 -95.04 
L 476.872379 -95.04 
L 479.900131 -95.04 
L 482.927882 -95.04 
L 485.955633 -95.04 
L 488.983385 -95.04 
L 492.011136 -95.04 
L 495.038887 -95.04 
L 498.066639 -95.04 
L 501.09439 -95.04 
L 504.122142 -95.04 
L 507.149893 -95.04 
L 510.177644 -95.04 
L 513.205396 -95.04 
L 516.233147 -95.04 
L 519.260898 -95.04 
L 522.28865 -95.04 
L 525.316401 -95.04 
L 528.344153 -95.04 
L 531.371904 -95.04 
L 534.399655 -95.04 
L 537.427407 -95.04 
L 540.455158 -95.04 
L 543.482909 -95.04 
L 546.510661 -95.04 
L 549.538412 -95.04 
L 552.566164 -95.04 
L 555.593915 -95.04 
L 558.621666 -95.04 
L 561.649418 -95.04 
L 564.677169 -95.04 
L 567.70492 -95.04 
L 570.732672 -95.04 
L 573.760423 -95.04 
L 576.788174 -95.04 
L 579.815926 -95.04 
L 582.843677 -95.04 
L 585.871429 -95.04 
L 588.89918 -95.04 
L 591.926931 -95.04 
L 594.954683 -95.04 
L 597.982434 -95.04 
L 601.010185 -95.04 
L 604.037937 -95.04 
L 607.065688 -95.04 
L 610.09344 -95.04 
L 613.121191 -95.04 
L 616.148942 -95.04 
L 619.176694 -95.04 
L 622.204445 -95.04 
L 625.232196 -95.04 
L 628.259948 -95.04 
L 631.287699 -95.04 
L 634.31545 -95.04 
L 637.343202 -95.04 
L 640.370953 -95.04 
L 643.398705 -95.04 
L 646.426456 -95.04 
L 649.454207 -95.04 
L 652.481959 -95.04 
L 655.50971 -95.04 
L 658.537461 -95.04 
L 661.565213 -95.04 
L 664.592964 -95.04 
L 667.620716 -95.04 
L 670.648467 -95.04 
L 673.676218 -95.04 
L 676.70397 -95.04 
L 679.731721 -95.04 
L 682.759472 -95.04 
L 685.787224 -95.04 
L 688.814975 -95.04 
L 691.842727 -95.04 
L 694.870478 -95.04 
L 697.898229 -95.04 
L 700.925981 -95.04 
L 703.953732 -95.04 
L 706.981483 -95.04 
L 710.009235 -95.04 
L 713.036986 -95.04 
L 716.064737 -95.04 
L 719.092489 -95.04 
L 722.12024 -95.04 
L 725.147992 -95.04 
L 728.175743 -95.04 
L 731.203494 -95.04 
L 734.231246 -95.04 
L 737.258997 -95.04 
L 740.286748 -95.04 
L 743.3145 -95.04 
L 743.3145 -95.104565 
L 743.3145 -95.104565 
L 740.286748 -96.261205 
L 737.258997 -100.211022 
L 734.231246 -100.293407 
L 731.203494 -97.096815 
L 728.175743 -96.400791 
L 725.147992 -96.66779 
L 722.12024 -97.21569 
L 719.092489 -97.758911 
L 716.064737 -98.222273 
L 713.036986 -98.820835 
L 710.009235 -99.422341 
L 706.981483 -99.784103 
L 703.953732 -99.89571 
L 700.925981 -100.256232 
L 697.898229 -101.168052 
L 694.870478 -102.36235 
L 691.842727 -103.150367 
L 688.814975 -103.69699 
L 685.787224 -104.420297 
L 682.759472 -105.365778 
L 679.731721 -106.548805 
L 676.70397 -108.124032 
L 673.676218 -109.914624 
L 670.648467 -111.490246 
L 667.620716 -112.918599 
L 664.592964 -114.480078 
L 661.565213 -116.057443 
L 658.537461 -117.85095 
L 655.50971 -119.269753 
L 652.481959 -120.471458 
L 649.454207 -121.551036 
L 646.426456 -122.612958 
L 643.398705 -124.070655 
L 640.370953 -125.511801 
L 637.343202 -127.021637 
L 634.31545 -129.212095 
L 631.287699 -131.66173 
L 628.259948 -133.843704 
L 625.232196 -135.555411 
L 622.204445 -137.196454 
L 619.176694 -138.728013 
L 616.148942 -139.616933 
L 613.121191 -139.97753 
L 610.09344 -139.998176 
L 607.065688 -140.090496 
L 604.037937 -141.586044 
L 601.010185 -143.908733 
L 597.982434 -146.369598 
L 594.954683 -148.733443 
L 591.926931 -150.587009 
L 588.89918 -151.933353 
L 585.871429 -153.480613 
L 582.843677 -155.750452 
L 579.815926 -158.719406 
L 576.788174 -161.126016 
L 573.760423 -163.718481 
L 570.732672 -165.956913 
L 567.70492 -167.435272 
L 564.677169 -169.277087 
L 561.649418 -172.214661 
L 558.621666 -175.139049 
L 555.593915 -176.528022 
L 552.566164 -177.851127 
L 549.538412 -179.760441 
L 546.510661 -181.687818 
L 543.482909 -182.403847 
L 540.455158 -182.361537 
L 537.427407 -184.516629 
L 534.399655 -188.622951 
L 531.371904 -192.162769 
L 528.344153 -194.544256 
L 525.316401 -196.793807 
L 522.28865 -198.799573 
L 519.260898 -198.890887 
L 516.233147 -196.407929 
L 513.205396 -194.063112 
L 510.177644 -191.618885 
L 507.149893 -189.999187 
L 504.122142 -189.502707 
L 501.09439 -190.170107 
L 498.066639 -191.901606 
L 495.038887 -193.487178 
L 492.011136 -197.896292 
L 488.983385 -207.411081 
L 485.955633 -217.854288 
L 482.927882 -227.252741 
L 479.900131 -237.37936 
L 476.872379 -251.294352 
L 473.844628 -267.928973 
L 470.816877 -286.795128 
L 467.789125 -304.750616 
L 464.761374 -316.854104 
L 461.733622 -330.191511 
L 458.705871 -347.668607 
L 455.67812 -370.097773 
L 452.650368 -397.538785 
L 449.622617 -427.517506 
L 446.594866 -459.119168 
L 443.567114 -488.824069 
L 440.539363 -514.527114 
L 437.511611 -534.577768 
L 434.48386 -549.655686 
L 431.456109 -564.826846 
L 428.428357 -581.321621 
L 425.400606 -596.295793 
L 422.372855 -610.50153 
L 419.345103 -625.657224 
L 416.317352 -637.928864 
L 413.289601 -648.502562 
L 410.261849 -661.630839 
L 407.234098 -670.896425 
L 404.206346 -672.038481 
L 401.178595 -670.026897 
L 398.150844 -670.085279 
L 395.123092 -676.401223 
L 392.095341 -681.788588 
L 389.06759 -687.73672 
L 386.039838 -691.258494 
L 383.012087 -689.565228 
L 379.984335 -687.525091 
L 376.956584 -688.187483 
L 373.928833 -691.944942 
L 370.901081 -697.603395 
L 367.87333 -703.824317 
L 364.845579 -711.064665 
L 361.817827 -717.651147 
L 358.790076 -718.15525 
L 355.762324 -712.86695 
L 352.734573 -702.343352 
L 349.706822 -691.953573 
L 346.67907 -681.618751 
L 343.651319 -664.967225 
L 340.623568 -647.243374 
L 337.595816 -627.779615 
L 334.568065 -601.711255 
L 331.540314 -572.506871 
L 328.512562 -544.917449 
L 325.484811 -520.197672 
L 322.457059 -500.346193 
L 319.429308 -481.824884 
L 316.401557 -462.679323 
L 313.373805 -445.119109 
L 310.346054 -433.646699 
L 307.318303 -427.977935 
L 304.290551 -422.6209 
L 301.2628 -411.447716 
L 298.235048 -393.240889 
L 295.207297 -372.016813 
L 292.179546 -352.552993 
L 289.151794 -331.761595 
L 286.124043 -311.064213 
L 283.096292 -293.577102 
L 280.06854 -278.918706 
L 277.040789 -269.232021 
L 274.013037 -260.819573 
L 270.985286 -250.425344 
L 267.957535 -238.582648 
L 264.929783 -227.665669 
L 261.902032 -217.886687 
L 258.874281 -208.954435 
L 255.846529 -201.265589 
L 252.818778 -193.238366 
L 249.791027 -184.103227 
L 246.763275 -175.896728 
L 243.735524 -169.36191 
L 240.707772 -162.522286 
L 237.680021 -153.538179 
L 234.65227 -143.588529 
L 231.624518 -135.707684 
L 228.596767 -129.741316 
L 225.569016 -123.939775 
L 222.541264 -118.727735 
L 219.513513 -115.723442 
L 216.485761 -114.175442 
L 213.45801 -111.972754 
L 210.430259 -108.835335 
L 207.402507 -105.645725 
L 204.374756 -104.183284 
L 201.347005 -104.018515 
L 198.319253 -102.967577 
L 195.291502 -100.761045 
L 192.263751 -98.736425 
L 189.235999 -97.359604 
L 186.208248 -96.536283 
L 183.180496 -96.147205 
L 180.152745 -96.125814 
L 177.124994 -96.210974 
L 174.097242 -95.98058 
L 171.069491 -95.611618 
L 168.04174 -95.424194 
L 165.013988 -95.442068 
L 161.986237 -95.808521 
L 158.958485 -96.044686 
L 155.930734 -95.605284 
L 152.902983 -95.181199 
L 149.875231 -95.061478 
L 146.84748 -95.042553 
L 143.819729 -95.040202 
L 140.791977 -95.040007 
z
" style="stroke: #0000ff; stroke-width: 3"/>
    </defs>
    <g clip-path="url(#p984240e021)">
     <use xlink:href="#me4514dcd17" x="0" y="864" style="fill: #0000ff; fill-opacity: 0.25; stroke: #0000ff; stroke-width: 3"/>
    </g>
   </g>
   <g id="PolyCollection_2">
    <defs>
     <path id="mbbe69828d6" d="M 138.436364 -95.040003 
L 138.436364 -95.04 
L 141.471071 -95.04 
L 144.505778 -95.04 
L 147.540485 -95.04 
L 150.575192 -95.04 
L 153.6099 -95.04 
L 156.644607 -95.04 
L 159.679314 -95.04 
L 162.714021 -95.04 
L 165.748728 -95.04 
L 168.783435 -95.04 
L 171.818143 -95.04 
L 174.85285 -95.04 
L 177.887557 -95.04 
L 180.922264 -95.04 
L 183.956971 -95.04 
L 186.991679 -95.04 
L 190.026386 -95.04 
L 193.061093 -95.04 
L 196.0958 -95.04 
L 199.130507 -95.04 
L 202.165215 -95.04 
L 205.199922 -95.04 
L 208.234629 -95.04 
L 211.269336 -95.04 
L 214.304043 -95.04 
L 217.33875 -95.04 
L 220.373458 -95.04 
L 223.408165 -95.04 
L 226.442872 -95.04 
L 229.477579 -95.04 
L 232.512286 -95.04 
L 235.546994 -95.04 
L 238.581701 -95.04 
L 241.616408 -95.04 
L 244.651115 -95.04 
L 247.685822 -95.04 
L 250.72053 -95.04 
L 253.755237 -95.04 
L 256.789944 -95.04 
L 259.824651 -95.04 
L 262.859358 -95.04 
L 265.894065 -95.04 
L 268.928773 -95.04 
L 271.96348 -95.04 
L 274.998187 -95.04 
L 278.032894 -95.04 
L 281.067601 -95.04 
L 284.102309 -95.04 
L 287.137016 -95.04 
L 290.171723 -95.04 
L 293.20643 -95.04 
L 296.241137 -95.04 
L 299.275845 -95.04 
L 302.310552 -95.04 
L 305.345259 -95.04 
L 308.379966 -95.04 
L 311.414673 -95.04 
L 314.44938 -95.04 
L 317.484088 -95.04 
L 320.518795 -95.04 
L 323.553502 -95.04 
L 326.588209 -95.04 
L 329.622916 -95.04 
L 332.657624 -95.04 
L 335.692331 -95.04 
L 338.727038 -95.04 
L 341.761745 -95.04 
L 344.796452 -95.04 
L 347.831159 -95.04 
L 350.865867 -95.04 
L 353.900574 -95.04 
L 356.935281 -95.04 
L 359.969988 -95.04 
L 363.004695 -95.04 
L 366.039403 -95.04 
L 369.07411 -95.04 
L 372.108817 -95.04 
L 375.143524 -95.04 
L 378.178231 -95.04 
L 381.212939 -95.04 
L 384.247646 -95.04 
L 387.282353 -95.04 
L 390.31706 -95.04 
L 393.351767 -95.04 
L 396.386474 -95.04 
L 399.421182 -95.04 
L 402.455889 -95.04 
L 405.490596 -95.04 
L 408.525303 -95.04 
L 411.56001 -95.04 
L 414.594718 -95.04 
L 417.629425 -95.04 
L 420.664132 -95.04 
L 423.698839 -95.04 
L 426.733546 -95.04 
L 429.768254 -95.04 
L 432.802961 -95.04 
L 435.837668 -95.04 
L 438.872375 -95.04 
L 441.907082 -95.04 
L 444.941789 -95.04 
L 447.976497 -95.04 
L 451.011204 -95.04 
L 454.045911 -95.04 
L 457.080618 -95.04 
L 460.115325 -95.04 
L 463.150033 -95.04 
L 466.18474 -95.04 
L 469.219447 -95.04 
L 472.254154 -95.04 
L 475.288861 -95.04 
L 478.323568 -95.04 
L 481.358276 -95.04 
L 484.392983 -95.04 
L 487.42769 -95.04 
L 490.462397 -95.04 
L 493.497104 -95.04 
L 496.531812 -95.04 
L 499.566519 -95.04 
L 502.601226 -95.04 
L 505.635933 -95.04 
L 508.67064 -95.04 
L 511.705348 -95.04 
L 514.740055 -95.04 
L 517.774762 -95.04 
L 520.809469 -95.04 
L 523.844176 -95.04 
L 526.878883 -95.04 
L 529.913591 -95.04 
L 532.948298 -95.04 
L 535.983005 -95.04 
L 539.017712 -95.04 
L 542.052419 -95.04 
L 545.087127 -95.04 
L 548.121834 -95.04 
L 551.156541 -95.04 
L 554.191248 -95.04 
L 557.225955 -95.04 
L 560.260663 -95.04 
L 563.29537 -95.04 
L 566.330077 -95.04 
L 569.364784 -95.04 
L 572.399491 -95.04 
L 575.434198 -95.04 
L 578.468906 -95.04 
L 581.503613 -95.04 
L 584.53832 -95.04 
L 587.573027 -95.04 
L 590.607734 -95.04 
L 593.642442 -95.04 
L 596.677149 -95.04 
L 599.711856 -95.04 
L 602.746563 -95.04 
L 605.78127 -95.04 
L 608.815977 -95.04 
L 611.850685 -95.04 
L 614.885392 -95.04 
L 617.920099 -95.04 
L 620.954806 -95.04 
L 623.989513 -95.04 
L 627.024221 -95.04 
L 630.058928 -95.04 
L 633.093635 -95.04 
L 636.128342 -95.04 
L 639.163049 -95.04 
L 642.197757 -95.04 
L 645.232464 -95.04 
L 648.267171 -95.04 
L 651.301878 -95.04 
L 654.336585 -95.04 
L 657.371292 -95.04 
L 660.406 -95.04 
L 663.440707 -95.04 
L 666.475414 -95.04 
L 669.510121 -95.04 
L 672.544828 -95.04 
L 675.579536 -95.04 
L 678.614243 -95.04 
L 681.64895 -95.04 
L 684.683657 -95.04 
L 687.718364 -95.04 
L 690.753072 -95.04 
L 693.787779 -95.04 
L 696.822486 -95.04 
L 699.857193 -95.04 
L 702.8919 -95.04 
L 705.926607 -95.04 
L 708.961315 -95.04 
L 711.996022 -95.04 
L 715.030729 -95.04 
L 718.065436 -95.04 
L 721.100143 -95.04 
L 724.134851 -95.04 
L 727.169558 -95.04 
L 730.204265 -95.04 
L 733.238972 -95.04 
L 736.273679 -95.04 
L 739.308386 -95.04 
L 742.343094 -95.04 
L 742.343094 -95.11801 
L 742.343094 -95.11801 
L 739.308386 -97.063637 
L 736.273679 -102.181714 
L 733.238972 -99.084113 
L 730.204265 -96.443863 
L 727.169558 -96.424529 
L 724.134851 -96.859114 
L 721.100143 -97.383868 
L 718.065436 -97.890582 
L 715.030729 -98.453078 
L 711.996022 -99.167567 
L 708.961315 -99.62014 
L 705.926607 -99.925656 
L 702.8919 -100.194309 
L 699.857193 -101.022305 
L 696.822486 -102.348444 
L 693.787779 -103.714485 
L 690.753072 -104.348125 
L 687.718364 -104.829878 
L 684.683657 -105.737552 
L 681.64895 -106.837342 
L 678.614243 -108.085375 
L 675.579536 -109.552637 
L 672.544828 -111.605022 
L 669.510121 -113.131859 
L 666.475414 -114.774774 
L 663.440707 -116.24312 
L 660.406 -117.833347 
L 657.371292 -119.765053 
L 654.336585 -121.288814 
L 651.301878 -122.727048 
L 648.267171 -123.820768 
L 645.232464 -125.094053 
L 642.197757 -127.009961 
L 639.163049 -128.399761 
L 636.128342 -130.187134 
L 633.093635 -132.325817 
L 630.058928 -134.592918 
L 627.024221 -136.444574 
L 623.989513 -137.830526 
L 620.954806 -140.034914 
L 617.920099 -142.172642 
L 614.885392 -143.121748 
L 611.850685 -142.967879 
L 608.815977 -142.809885 
L 605.78127 -143.497984 
L 602.746563 -145.470572 
L 599.711856 -147.825052 
L 596.677149 -150.438628 
L 593.642442 -152.831206 
L 590.607734 -154.71942 
L 587.573027 -156.481535 
L 584.53832 -158.428655 
L 581.503613 -160.534263 
L 578.468906 -162.490607 
L 575.434198 -164.399764 
L 572.399491 -167.690622 
L 569.364784 -169.86015 
L 566.330077 -171.399511 
L 563.29537 -173.611346 
L 560.260663 -176.844779 
L 557.225955 -179.713747 
L 554.191248 -181.419643 
L 551.156541 -182.822212 
L 548.121834 -183.351378 
L 545.087127 -184.230026 
L 542.052419 -184.691558 
L 539.017712 -184.784011 
L 535.983005 -187.434589 
L 532.948298 -190.726543 
L 529.913591 -193.253625 
L 526.878883 -194.096359 
L 523.844176 -195.74908 
L 520.809469 -198.402992 
L 517.774762 -197.147549 
L 514.740055 -194.537711 
L 511.705348 -192.109736 
L 508.67064 -189.549608 
L 505.635933 -188.185497 
L 502.601226 -189.349779 
L 499.566519 -192.783265 
L 496.531812 -194.214054 
L 493.497104 -196.145643 
L 490.462397 -204.189921 
L 487.42769 -214.557041 
L 484.392983 -224.279751 
L 481.358276 -234.305798 
L 478.323568 -245.282075 
L 475.288861 -260.760625 
L 472.254154 -278.449854 
L 469.219447 -298.137218 
L 466.18474 -312.015062 
L 463.150033 -325.08853 
L 460.115325 -343.666617 
L 457.080618 -364.759221 
L 454.045911 -392.698185 
L 451.011204 -423.839924 
L 447.976497 -454.73181 
L 444.941789 -487.259314 
L 441.907082 -517.563421 
L 438.872375 -542.718814 
L 435.837668 -562.02204 
L 432.802961 -579.041998 
L 429.768254 -598.521429 
L 426.733546 -617.613276 
L 423.698839 -633.965179 
L 420.664132 -653.719587 
L 417.629425 -669.661069 
L 414.594718 -680.329844 
L 411.56001 -692.716301 
L 408.525303 -704.616056 
L 405.490596 -705.113973 
L 402.455889 -700.362873 
L 399.421182 -697.866005 
L 396.386474 -702.34087 
L 393.351767 -705.325527 
L 390.31706 -710.508591 
L 387.282353 -718.161563 
L 384.247646 -716.844796 
L 381.212939 -711.668686 
L 378.178231 -708.32009 
L 375.143524 -709.132427 
L 372.108817 -711.699512 
L 369.07411 -713.183566 
L 366.039403 -714.15135 
L 363.004695 -716.46062 
L 359.969988 -710.074466 
L 356.935281 -697.576981 
L 353.900574 -683.726292 
L 350.865867 -668.313742 
L 347.831159 -655.662671 
L 344.796452 -634.884362 
L 341.761745 -613.759796 
L 338.727038 -598.514302 
L 335.692331 -582.251124 
L 332.657624 -562.041206 
L 329.622916 -543.135514 
L 326.588209 -521.126373 
L 323.553502 -497.042906 
L 320.518795 -473.694078 
L 317.484088 -452.620963 
L 314.44938 -434.251855 
L 311.414673 -415.936924 
L 308.379966 -403.592659 
L 305.345259 -392.708031 
L 302.310552 -377.961094 
L 299.275845 -362.119065 
L 296.241137 -343.787784 
L 293.20643 -325.776361 
L 290.171723 -310.384502 
L 287.137016 -297.272533 
L 284.102309 -284.074301 
L 281.067601 -268.714936 
L 278.032894 -256.032285 
L 274.998187 -247.050991 
L 271.96348 -237.531589 
L 268.928773 -226.15849 
L 265.894065 -217.259989 
L 262.859358 -209.638769 
L 259.824651 -201.154158 
L 256.789944 -192.537572 
L 253.755237 -183.130575 
L 250.72053 -174.772408 
L 247.685822 -168.24776 
L 244.651115 -161.381375 
L 241.616408 -154.253524 
L 238.581701 -147.165272 
L 235.546994 -139.926806 
L 232.512286 -133.474641 
L 229.477579 -128.742486 
L 226.442872 -124.305369 
L 223.408165 -119.9977 
L 220.373458 -116.03915 
L 217.33875 -111.900794 
L 214.304043 -107.587985 
L 211.269336 -104.762753 
L 208.234629 -103.476793 
L 205.199922 -104.097504 
L 202.165215 -105.839346 
L 199.130507 -105.990657 
L 196.0958 -104.340773 
L 193.061093 -101.721063 
L 190.026386 -99.145526 
L 186.991679 -97.564466 
L 183.956971 -96.972297 
L 180.922264 -97.06648 
L 177.887557 -97.467767 
L 174.85285 -97.14063 
L 171.818143 -96.189233 
L 168.783435 -95.75526 
L 165.748728 -95.669077 
L 162.714021 -96.336717 
L 159.679314 -97.249059 
L 156.644607 -96.43646 
L 153.6099 -95.353874 
L 150.575192 -95.083285 
L 147.540485 -95.046285 
L 144.505778 -95.041102 
L 141.471071 -95.040121 
L 138.436364 -95.040003 
z
" style="stroke: #ff0000; stroke-width: 3"/>
    </defs>
    <g clip-path="url(#p984240e021)">
     <use xlink:href="#mbbe69828d6" x="0" y="864" style="fill: #ff0000; fill-opacity: 0.25; stroke: #ff0000; stroke-width: 3"/>
    </g>
   </g>
   <g id="PolyCollection_3">
    <defs>
     <path id="mb6659d39ad" d="M 161.404531 -95.040027 
L 161.404531 -95.04 
L 164.348044 -95.04 
L 167.291557 -95.04 
L 170.23507 -95.04 
L 173.178584 -95.04 
L 176.122097 -95.04 
L 179.06561 -95.04 
L 182.009123 -95.04 
L 184.952636 -95.04 
L 187.896149 -95.04 
L 190.839662 -95.04 
L 193.783175 -95.04 
L 196.726688 -95.04 
L 199.670201 -95.04 
L 202.613714 -95.04 
L 205.557228 -95.04 
L 208.500741 -95.04 
L 211.444254 -95.04 
L 214.387767 -95.04 
L 217.33128 -95.04 
L 220.274793 -95.04 
L 223.218306 -95.04 
L 226.161819 -95.04 
L 229.105332 -95.04 
L 232.048845 -95.04 
L 234.992358 -95.04 
L 237.935872 -95.04 
L 240.879385 -95.04 
L 243.822898 -95.04 
L 246.766411 -95.04 
L 249.709924 -95.04 
L 252.653437 -95.04 
L 255.59695 -95.04 
L 258.540463 -95.04 
L 261.483976 -95.04 
L 264.427489 -95.04 
L 267.371002 -95.04 
L 270.314516 -95.04 
L 273.258029 -95.04 
L 276.201542 -95.04 
L 279.145055 -95.04 
L 282.088568 -95.04 
L 285.032081 -95.04 
L 287.975594 -95.04 
L 290.919107 -95.04 
L 293.86262 -95.04 
L 296.806133 -95.04 
L 299.749646 -95.04 
L 302.69316 -95.04 
L 305.636673 -95.04 
L 308.580186 -95.04 
L 311.523699 -95.04 
L 314.467212 -95.04 
L 317.410725 -95.04 
L 320.354238 -95.04 
L 323.297751 -95.04 
L 326.241264 -95.04 
L 329.184777 -95.04 
L 332.12829 -95.04 
L 335.071804 -95.04 
L 338.015317 -95.04 
L 340.95883 -95.04 
L 343.902343 -95.04 
L 346.845856 -95.04 
L 349.789369 -95.04 
L 352.732882 -95.04 
L 355.676395 -95.04 
L 358.619908 -95.04 
L 361.563421 -95.04 
L 364.506935 -95.04 
L 367.450448 -95.04 
L 370.393961 -95.04 
L 373.337474 -95.04 
L 376.280987 -95.04 
L 379.2245 -95.04 
L 382.168013 -95.04 
L 385.111526 -95.04 
L 388.055039 -95.04 
L 390.998552 -95.04 
L 393.942065 -95.04 
L 396.885579 -95.04 
L 399.829092 -95.04 
L 402.772605 -95.04 
L 405.716118 -95.04 
L 408.659631 -95.04 
L 411.603144 -95.04 
L 414.546657 -95.04 
L 417.49017 -95.04 
L 420.433683 -95.04 
L 423.377196 -95.04 
L 426.320709 -95.04 
L 429.264223 -95.04 
L 432.207736 -95.04 
L 435.151249 -95.04 
L 438.094762 -95.04 
L 441.038275 -95.04 
L 443.981788 -95.04 
L 446.925301 -95.04 
L 449.868814 -95.04 
L 452.812327 -95.04 
L 455.75584 -95.04 
L 458.699353 -95.04 
L 461.642867 -95.04 
L 464.58638 -95.04 
L 467.529893 -95.04 
L 470.473406 -95.04 
L 473.416919 -95.04 
L 476.360432 -95.04 
L 479.303945 -95.04 
L 482.247458 -95.04 
L 485.190971 -95.04 
L 488.134484 -95.04 
L 491.077997 -95.04 
L 494.021511 -95.04 
L 496.965024 -95.04 
L 499.908537 -95.04 
L 502.85205 -95.04 
L 505.795563 -95.04 
L 508.739076 -95.04 
L 511.682589 -95.04 
L 514.626102 -95.04 
L 517.569615 -95.04 
L 520.513128 -95.04 
L 523.456641 -95.04 
L 526.400155 -95.04 
L 529.343668 -95.04 
L 532.287181 -95.04 
L 535.230694 -95.04 
L 538.174207 -95.04 
L 541.11772 -95.04 
L 544.061233 -95.04 
L 547.004746 -95.04 
L 549.948259 -95.04 
L 552.891772 -95.04 
L 555.835285 -95.04 
L 558.778799 -95.04 
L 561.722312 -95.04 
L 564.665825 -95.04 
L 567.609338 -95.04 
L 570.552851 -95.04 
L 573.496364 -95.04 
L 576.439877 -95.04 
L 579.38339 -95.04 
L 582.326903 -95.04 
L 585.270416 -95.04 
L 588.213929 -95.04 
L 591.157443 -95.04 
L 594.100956 -95.04 
L 597.044469 -95.04 
L 599.987982 -95.04 
L 602.931495 -95.04 
L 605.875008 -95.04 
L 608.818521 -95.04 
L 611.762034 -95.04 
L 614.705547 -95.04 
L 617.64906 -95.04 
L 620.592573 -95.04 
L 623.536087 -95.04 
L 626.4796 -95.04 
L 629.423113 -95.04 
L 632.366626 -95.04 
L 635.310139 -95.04 
L 638.253652 -95.04 
L 641.197165 -95.04 
L 644.140678 -95.04 
L 647.084191 -95.04 
L 650.027704 -95.04 
L 652.971217 -95.04 
L 655.914731 -95.04 
L 658.858244 -95.04 
L 661.801757 -95.04 
L 664.74527 -95.04 
L 667.688783 -95.04 
L 670.632296 -95.04 
L 673.575809 -95.04 
L 676.519322 -95.04 
L 679.462835 -95.04 
L 682.406348 -95.04 
L 685.349861 -95.04 
L 688.293375 -95.04 
L 691.236888 -95.04 
L 694.180401 -95.04 
L 697.123914 -95.04 
L 700.067427 -95.04 
L 703.01094 -95.04 
L 705.954453 -95.04 
L 708.897966 -95.04 
L 711.841479 -95.04 
L 714.784992 -95.04 
L 717.728505 -95.04 
L 720.672019 -95.04 
L 723.615532 -95.04 
L 726.559045 -95.04 
L 729.502558 -95.04 
L 732.446071 -95.04 
L 735.389584 -95.04 
L 738.333097 -95.04 
L 741.27661 -95.04 
L 744.220123 -95.04 
L 747.163636 -95.04 
L 747.163636 -95.085609 
L 747.163636 -95.085609 
L 744.220123 -95.396618 
L 741.27661 -96.552576 
L 738.333097 -98.548144 
L 735.389584 -99.59405 
L 732.446071 -98.620634 
L 729.502558 -97.254532 
L 726.559045 -96.782599 
L 723.615532 -96.994667 
L 720.672019 -97.486041 
L 717.728505 -98.021162 
L 714.784992 -98.538453 
L 711.841479 -99.038935 
L 708.897966 -99.393012 
L 705.954453 -99.546833 
L 703.01094 -99.730022 
L 700.067427 -100.191169 
L 697.123914 -100.87753 
L 694.180401 -101.588368 
L 691.236888 -102.290298 
L 688.293375 -103.071685 
L 685.349861 -103.955858 
L 682.406348 -104.953594 
L 679.462835 -106.160033 
L 676.519322 -107.59292 
L 673.575809 -109.047891 
L 670.632296 -110.405813 
L 667.688783 -111.737688 
L 664.74527 -113.097295 
L 661.801757 -114.570871 
L 658.858244 -116.253207 
L 655.914731 -117.961596 
L 652.971217 -119.337452 
L 650.027704 -120.297902 
L 647.084191 -121.209335 
L 644.140678 -122.41422 
L 641.197165 -123.831723 
L 638.253652 -125.365583 
L 635.310139 -127.249768 
L 632.366626 -129.542231 
L 629.423113 -131.765646 
L 626.4796 -133.555431 
L 623.536087 -134.898411 
L 620.592573 -135.83968 
L 617.64906 -136.567347 
L 614.705547 -137.194531 
L 611.762034 -137.494579 
L 608.818521 -137.62415 
L 605.875008 -138.393604 
L 602.931495 -140.185849 
L 599.987982 -142.479952 
L 597.044469 -144.620539 
L 594.100956 -146.40379 
L 591.157443 -147.932518 
L 588.213929 -149.430023 
L 585.270416 -151.342202 
L 582.326903 -153.889813 
L 579.38339 -156.637935 
L 576.439877 -159.11836 
L 573.496364 -161.232017 
L 570.552851 -162.960473 
L 567.609338 -164.614108 
L 564.665825 -166.83461 
L 561.722312 -169.546571 
L 558.778799 -171.784845 
L 555.835285 -173.126613 
L 552.891772 -174.38529 
L 549.948259 -176.328383 
L 547.004746 -178.43281 
L 544.061233 -179.85262 
L 541.11772 -181.164597 
L 538.174207 -183.673211 
L 535.230694 -187.464406 
L 532.287181 -191.412102 
L 529.343668 -194.802177 
L 526.400155 -197.591008 
L 523.456641 -199.252382 
L 520.513128 -199.149015 
L 517.569615 -197.466266 
L 514.626102 -195.089942 
L 511.682589 -192.896343 
L 508.739076 -191.250721 
L 505.795563 -189.939935 
L 502.85205 -189.027623 
L 499.908537 -189.203837 
L 496.965024 -190.757948 
L 494.021511 -193.995762 
L 491.077997 -200.138254 
L 488.134484 -209.24638 
L 485.190971 -219.303632 
L 482.247458 -229.238171 
L 479.303945 -240.338891 
L 476.360432 -253.994426 
L 473.416919 -270.088515 
L 470.473406 -287.45734 
L 467.529893 -303.535971 
L 464.58638 -316.441542 
L 461.642867 -328.447868 
L 458.699353 -343.60499 
L 455.75584 -363.710465 
L 452.812327 -387.960143 
L 449.868814 -414.796229 
L 446.925301 -442.870441 
L 443.981788 -470.106647 
L 441.038275 -493.869967 
L 438.094762 -512.478466 
L 435.151249 -526.666154 
L 432.207736 -539.643406 
L 429.264223 -553.067722 
L 426.320709 -565.430095 
L 423.377196 -576.271402 
L 420.433683 -586.922878 
L 417.49017 -597.876942 
L 414.546657 -609.297243 
L 411.603144 -621.508613 
L 408.659631 -632.629117 
L 405.716118 -639.409153 
L 402.772605 -641.620651 
L 399.829092 -642.578332 
L 396.885579 -646.136659 
L 393.942065 -652.523039 
L 390.998552 -658.728015 
L 388.055039 -663.012438 
L 385.111526 -665.266882 
L 382.168013 -666.275381 
L 379.2245 -667.824102 
L 376.280987 -671.46553 
L 373.337474 -677.531206 
L 370.393961 -685.750326 
L 367.450448 -695.981764 
L 364.506935 -707.89915 
L 361.563421 -719.524827 
L 358.619908 -727.313805 
L 355.676395 -728.64 
L 352.732882 -724.307176 
L 349.789369 -717.889253 
L 346.845856 -709.956614 
L 343.902343 -697.667663 
L 340.95883 -680.107076 
L 338.015317 -656.971548 
L 335.071804 -627.473512 
L 332.12829 -594.410665 
L 329.184777 -563.409263 
L 326.241264 -537.962172 
L 323.297751 -518.239226 
L 320.354238 -501.661986 
L 317.410725 -485.401869 
L 314.467212 -470.325817 
L 311.523699 -459.880961 
L 308.580186 -455.180844 
L 305.636673 -453.014577 
L 302.69316 -447.558346 
L 299.749646 -434.753068 
L 296.806133 -415.689618 
L 293.86262 -394.073922 
L 290.919107 -371.151447 
L 287.975594 -346.940062 
L 285.032081 -324.078883 
L 282.088568 -305.532082 
L 279.145055 -292.244611 
L 276.201542 -282.950099 
L 273.258029 -274.290597 
L 270.314516 -263.75906 
L 267.371002 -251.528393 
L 264.427489 -239.292955 
L 261.483976 -228.526695 
L 258.540463 -219.743825 
L 255.59695 -212.465646 
L 252.653437 -205.158072 
L 249.709924 -196.711979 
L 246.766411 -187.988258 
L 243.822898 -180.14515 
L 240.879385 -172.322427 
L 237.935872 -162.81212 
L 234.992358 -152.051828 
L 232.048845 -142.202187 
L 229.105332 -134.07626 
L 226.161819 -127.032144 
L 223.218306 -121.347325 
L 220.274793 -118.207244 
L 217.33128 -117.366236 
L 214.387767 -116.590026 
L 211.444254 -113.980386 
L 208.500741 -109.788013 
L 205.557228 -105.702325 
L 202.613714 -102.871954 
L 199.670201 -100.95241 
L 196.726688 -99.18225 
L 193.783175 -97.595174 
L 190.839662 -96.548507 
L 187.896149 -95.965765 
L 184.952636 -95.579394 
L 182.009123 -95.299899 
L 179.06561 -95.141023 
L 176.122097 -95.075395 
L 173.178584 -95.05278 
L 170.23507 -95.044474 
L 167.291557 -95.041246 
L 164.348044 -95.040234 
L 161.404531 -95.040027 
z
" style="stroke: #008000; stroke-width: 3"/>
    </defs>
    <g clip-path="url(#p984240e021)">
     <use xlink:href="#mb6659d39ad" x="0" y="864" style="fill: #008000; fill-opacity: 0.25; stroke: #008000; stroke-width: 3"/>
    </g>
   </g>
   <g id="matplotlib.axis_1">
    <g id="xtick_1">
     <g id="line2d_1">
      <defs>
       <path id="me17ede16d2" d="M 0 0 
L 0 3.5 
" style="stroke: #000000; stroke-width: 0.8"/>
      </defs>
      <g>
       <use xlink:href="#me17ede16d2" x="139.091436" y="768.96" style="stroke: #000000; stroke-width: 0.8"/>
      </g>
     </g>
     <g id="text_1">
      <!-- 0.0 -->
      <g transform="translate(131.139873 783.558437)scale(0.1 -0.1)">
       <defs>
        <path id="DejaVuSans-30" d="M 2034 4250 
Q 1547 4250 1301 3770 
Q 1056 3291 1056 2328 
Q 1056 1369 1301 889 
Q 1547 409 2034 409 
Q 2525 409 2770 889 
Q 3016 1369 3016 2328 
Q 3016 3291 2770 3770 
Q 2525 4250 2034 4250 
z
M 2034 4750 
Q 2819 4750 3233 4129 
Q 3647 3509 3647 2328 
Q 3647 1150 3233 529 
Q 2819 -91 2034 -91 
Q 1250 -91 836 529 
Q 422 1150 422 2328 
Q 422 3509 836 4129 
Q 1250 4750 2034 4750 
z
" transform="scale(0.015625)"/>
        <path id="DejaVuSans-2e" d="M 684 794 
L 1344 794 
L 1344 0 
L 684 0 
L 684 794 
z
" transform="scale(0.015625)"/>
       </defs>
       <use xlink:href="#DejaVuSans-30"/>
       <use xlink:href="#DejaVuSans-2e" x="63.623047"/>
       <use xlink:href="#DejaVuSans-30" x="95.410156"/>
      </g>
     </g>
    </g>
    <g id="xtick_2">
     <g id="line2d_2">
      <g>
       <use xlink:href="#me17ede16d2" x="258.459294" y="768.96" style="stroke: #000000; stroke-width: 0.8"/>
      </g>
     </g>
     <g id="text_2">
      <!-- 0.2 -->
      <g transform="translate(250.507732 783.558437)scale(0.1 -0.1)">
       <defs>
        <path id="DejaVuSans-32" d="M 1228 531 
L 3431 531 
L 3431 0 
L 469 0 
L 469 531 
Q 828 903 1448 1529 
Q 2069 2156 2228 2338 
Q 2531 2678 2651 2914 
Q 2772 3150 2772 3378 
Q 2772 3750 2511 3984 
Q 2250 4219 1831 4219 
Q 1534 4219 1204 4116 
Q 875 4013 500 3803 
L 500 4441 
Q 881 4594 1212 4672 
Q 1544 4750 1819 4750 
Q 2544 4750 2975 4387 
Q 3406 4025 3406 3419 
Q 3406 3131 3298 2873 
Q 3191 2616 2906 2266 
Q 2828 2175 2409 1742 
Q 1991 1309 1228 531 
z
" transform="scale(0.015625)"/>
       </defs>
       <use xlink:href="#DejaVuSans-30"/>
       <use xlink:href="#DejaVuSans-2e" x="63.623047"/>
       <use xlink:href="#DejaVuSans-32" x="95.410156"/>
      </g>
     </g>
    </g>
    <g id="xtick_3">
     <g id="line2d_3">
      <g>
       <use xlink:href="#me17ede16d2" x="377.827153" y="768.96" style="stroke: #000000; stroke-width: 0.8"/>
      </g>
     </g>
     <g id="text_3">
      <!-- 0.4 -->
      <g transform="translate(369.875591 783.558437)scale(0.1 -0.1)">
       <defs>
        <path id="DejaVuSans-34" d="M 2419 4116 
L 825 1625 
L 2419 1625 
L 2419 4116 
z
M 2253 4666 
L 3047 4666 
L 3047 1625 
L 3713 1625 
L 3713 1100 
L 3047 1100 
L 3047 0 
L 2419 0 
L 2419 1100 
L 313 1100 
L 313 1709 
L 2253 4666 
z
" transform="scale(0.015625)"/>
       </defs>
       <use xlink:href="#DejaVuSans-30"/>
       <use xlink:href="#DejaVuSans-2e" x="63.623047"/>
       <use xlink:href="#DejaVuSans-34" x="95.410156"/>
      </g>
     </g>
    </g>
    <g id="xtick_4">
     <g id="line2d_4">
      <g>
       <use xlink:href="#me17ede16d2" x="497.195012" y="768.96" style="stroke: #000000; stroke-width: 0.8"/>
      </g>
     </g>
     <g id="text_4">
      <!-- 0.6 -->
      <g transform="translate(489.243449 783.558437)scale(0.1 -0.1)">
       <defs>
        <path id="DejaVuSans-36" d="M 2113 2584 
Q 1688 2584 1439 2293 
Q 1191 2003 1191 1497 
Q 1191 994 1439 701 
Q 1688 409 2113 409 
Q 2538 409 2786 701 
Q 3034 994 3034 1497 
Q 3034 2003 2786 2293 
Q 2538 2584 2113 2584 
z
M 3366 4563 
L 3366 3988 
Q 3128 4100 2886 4159 
Q 2644 4219 2406 4219 
Q 1781 4219 1451 3797 
Q 1122 3375 1075 2522 
Q 1259 2794 1537 2939 
Q 1816 3084 2150 3084 
Q 2853 3084 3261 2657 
Q 3669 2231 3669 1497 
Q 3669 778 3244 343 
Q 2819 -91 2113 -91 
Q 1303 -91 875 529 
Q 447 1150 447 2328 
Q 447 3434 972 4092 
Q 1497 4750 2381 4750 
Q 2619 4750 2861 4703 
Q 3103 4656 3366 4563 
z
" transform="scale(0.015625)"/>
       </defs>
       <use xlink:href="#DejaVuSans-30"/>
       <use xlink:href="#DejaVuSans-2e" x="63.623047"/>
       <use xlink:href="#DejaVuSans-36" x="95.410156"/>
      </g>
     </g>
    </g>
    <g id="xtick_5">
     <g id="line2d_5">
      <g>
       <use xlink:href="#me17ede16d2" x="616.562871" y="768.96" style="stroke: #000000; stroke-width: 0.8"/>
      </g>
     </g>
     <g id="text_5">
      <!-- 0.8 -->
      <g transform="translate(608.611308 783.558437)scale(0.1 -0.1)">
       <defs>
        <path id="DejaVuSans-38" d="M 2034 2216 
Q 1584 2216 1326 1975 
Q 1069 1734 1069 1313 
Q 1069 891 1326 650 
Q 1584 409 2034 409 
Q 2484 409 2743 651 
Q 3003 894 3003 1313 
Q 3003 1734 2745 1975 
Q 2488 2216 2034 2216 
z
M 1403 2484 
Q 997 2584 770 2862 
Q 544 3141 544 3541 
Q 544 4100 942 4425 
Q 1341 4750 2034 4750 
Q 2731 4750 3128 4425 
Q 3525 4100 3525 3541 
Q 3525 3141 3298 2862 
Q 3072 2584 2669 2484 
Q 3125 2378 3379 2068 
Q 3634 1759 3634 1313 
Q 3634 634 3220 271 
Q 2806 -91 2034 -91 
Q 1263 -91 848 271 
Q 434 634 434 1313 
Q 434 1759 690 2068 
Q 947 2378 1403 2484 
z
M 1172 3481 
Q 1172 3119 1398 2916 
Q 1625 2713 2034 2713 
Q 2441 2713 2670 2916 
Q 2900 3119 2900 3481 
Q 2900 3844 2670 4047 
Q 2441 4250 2034 4250 
Q 1625 4250 1398 4047 
Q 1172 3844 1172 3481 
z
" transform="scale(0.015625)"/>
       </defs>
       <use xlink:href="#DejaVuSans-30"/>
       <use xlink:href="#DejaVuSans-2e" x="63.623047"/>
       <use xlink:href="#DejaVuSans-38" x="95.410156"/>
      </g>
     </g>
    </g>
    <g id="xtick_6">
     <g id="line2d_6">
      <g>
       <use xlink:href="#me17ede16d2" x="735.93073" y="768.96" style="stroke: #000000; stroke-width: 0.8"/>
      </g>
     </g>
     <g id="text_6">
      <!-- 1.0 -->
      <g transform="translate(727.979167 783.558437)scale(0.1 -0.1)">
       <defs>
        <path id="DejaVuSans-31" d="M 794 531 
L 1825 531 
L 1825 4091 
L 703 3866 
L 703 4441 
L 1819 4666 
L 2450 4666 
L 2450 531 
L 3481 531 
L 3481 0 
L 794 0 
L 794 531 
z
" transform="scale(0.015625)"/>
       </defs>
       <use xlink:href="#DejaVuSans-31"/>
       <use xlink:href="#DejaVuSans-2e" x="63.623047"/>
       <use xlink:href="#DejaVuSans-30" x="95.410156"/>
      </g>
     </g>
    </g>
    <g id="text_7">
     <!-- Similarity -->
     <g transform="translate(404.97625 801.795625)scale(0.16 -0.16)">
      <defs>
       <path id="DejaVuSans-53" d="M 3425 4513 
L 3425 3897 
Q 3066 4069 2747 4153 
Q 2428 4238 2131 4238 
Q 1616 4238 1336 4038 
Q 1056 3838 1056 3469 
Q 1056 3159 1242 3001 
Q 1428 2844 1947 2747 
L 2328 2669 
Q 3034 2534 3370 2195 
Q 3706 1856 3706 1288 
Q 3706 609 3251 259 
Q 2797 -91 1919 -91 
Q 1588 -91 1214 -16 
Q 841 59 441 206 
L 441 856 
Q 825 641 1194 531 
Q 1563 422 1919 422 
Q 2459 422 2753 634 
Q 3047 847 3047 1241 
Q 3047 1584 2836 1778 
Q 2625 1972 2144 2069 
L 1759 2144 
Q 1053 2284 737 2584 
Q 422 2884 422 3419 
Q 422 4038 858 4394 
Q 1294 4750 2059 4750 
Q 2388 4750 2728 4690 
Q 3069 4631 3425 4513 
z
" transform="scale(0.015625)"/>
       <path id="DejaVuSans-69" d="M 603 3500 
L 1178 3500 
L 1178 0 
L 603 0 
L 603 3500 
z
M 603 4863 
L 1178 4863 
L 1178 4134 
L 603 4134 
L 603 4863 
z
" transform="scale(0.015625)"/>
       <path id="DejaVuSans-6d" d="M 3328 2828 
Q 3544 3216 3844 3400 
Q 4144 3584 4550 3584 
Q 5097 3584 5394 3201 
Q 5691 2819 5691 2113 
L 5691 0 
L 5113 0 
L 5113 2094 
Q 5113 2597 4934 2840 
Q 4756 3084 4391 3084 
Q 3944 3084 3684 2787 
Q 3425 2491 3425 1978 
L 3425 0 
L 2847 0 
L 2847 2094 
Q 2847 2600 2669 2842 
Q 2491 3084 2119 3084 
Q 1678 3084 1418 2786 
Q 1159 2488 1159 1978 
L 1159 0 
L 581 0 
L 581 3500 
L 1159 3500 
L 1159 2956 
Q 1356 3278 1631 3431 
Q 1906 3584 2284 3584 
Q 2666 3584 2933 3390 
Q 3200 3197 3328 2828 
z
" transform="scale(0.015625)"/>
       <path id="DejaVuSans-6c" d="M 603 4863 
L 1178 4863 
L 1178 0 
L 603 0 
L 603 4863 
z
" transform="scale(0.015625)"/>
       <path id="DejaVuSans-61" d="M 2194 1759 
Q 1497 1759 1228 1600 
Q 959 1441 959 1056 
Q 959 750 1161 570 
Q 1363 391 1709 391 
Q 2188 391 2477 730 
Q 2766 1069 2766 1631 
L 2766 1759 
L 2194 1759 
z
M 3341 1997 
L 3341 0 
L 2766 0 
L 2766 531 
Q 2569 213 2275 61 
Q 1981 -91 1556 -91 
Q 1019 -91 701 211 
Q 384 513 384 1019 
Q 384 1609 779 1909 
Q 1175 2209 1959 2209 
L 2766 2209 
L 2766 2266 
Q 2766 2663 2505 2880 
Q 2244 3097 1772 3097 
Q 1472 3097 1187 3025 
Q 903 2953 641 2809 
L 641 3341 
Q 956 3463 1253 3523 
Q 1550 3584 1831 3584 
Q 2591 3584 2966 3190 
Q 3341 2797 3341 1997 
z
" transform="scale(0.015625)"/>
       <path id="DejaVuSans-72" d="M 2631 2963 
Q 2534 3019 2420 3045 
Q 2306 3072 2169 3072 
Q 1681 3072 1420 2755 
Q 1159 2438 1159 1844 
L 1159 0 
L 581 0 
L 581 3500 
L 1159 3500 
L 1159 2956 
Q 1341 3275 1631 3429 
Q 1922 3584 2338 3584 
Q 2397 3584 2469 3576 
Q 2541 3569 2628 3553 
L 2631 2963 
z
" transform="scale(0.015625)"/>
       <path id="DejaVuSans-74" d="M 1172 4494 
L 1172 3500 
L 2356 3500 
L 2356 3053 
L 1172 3053 
L 1172 1153 
Q 1172 725 1289 603 
Q 1406 481 1766 481 
L 2356 481 
L 2356 0 
L 1766 0 
Q 1100 0 847 248 
Q 594 497 594 1153 
L 594 3053 
L 172 3053 
L 172 3500 
L 594 3500 
L 594 4494 
L 1172 4494 
z
" transform="scale(0.015625)"/>
       <path id="DejaVuSans-79" d="M 2059 -325 
Q 1816 -950 1584 -1140 
Q 1353 -1331 966 -1331 
L 506 -1331 
L 506 -850 
L 844 -850 
Q 1081 -850 1212 -737 
Q 1344 -625 1503 -206 
L 1606 56 
L 191 3500 
L 800 3500 
L 1894 763 
L 2988 3500 
L 3597 3500 
L 2059 -325 
z
" transform="scale(0.015625)"/>
      </defs>
      <use xlink:href="#DejaVuSans-53"/>
      <use xlink:href="#DejaVuSans-69" x="63.476562"/>
      <use xlink:href="#DejaVuSans-6d" x="91.259766"/>
      <use xlink:href="#DejaVuSans-69" x="188.671875"/>
      <use xlink:href="#DejaVuSans-6c" x="216.455078"/>
      <use xlink:href="#DejaVuSans-61" x="244.238281"/>
      <use xlink:href="#DejaVuSans-72" x="305.517578"/>
      <use xlink:href="#DejaVuSans-69" x="346.630859"/>
      <use xlink:href="#DejaVuSans-74" x="374.414062"/>
      <use xlink:href="#DejaVuSans-79" x="413.623047"/>
     </g>
    </g>
   </g>
   <g id="matplotlib.axis_2">
    <g id="ytick_1">
     <g id="line2d_7">
      <defs>
       <path id="mb6f7423646" d="M 0 0 
L -3.5 0 
" style="stroke: #000000; stroke-width: 0.8"/>
      </defs>
      <g>
       <use xlink:href="#mb6f7423646" x="108" y="768.96" style="stroke: #000000; stroke-width: 0.8"/>
      </g>
     </g>
     <g id="text_8">
      <!-- 0.0 -->
      <g transform="translate(85.096875 772.759219)scale(0.1 -0.1)">
       <use xlink:href="#DejaVuSans-30"/>
       <use xlink:href="#DejaVuSans-2e" x="63.623047"/>
       <use xlink:href="#DejaVuSans-30" x="95.410156"/>
      </g>
     </g>
    </g>
    <g id="ytick_2">
     <g id="line2d_8">
      <g>
       <use xlink:href="#mb6f7423646" x="108" y="679.062565" style="stroke: #000000; stroke-width: 0.8"/>
      </g>
     </g>
     <g id="text_9">
      <!-- 0.5 -->
      <g transform="translate(85.096875 682.861783)scale(0.1 -0.1)">
       <defs>
        <path id="DejaVuSans-35" d="M 691 4666 
L 3169 4666 
L 3169 4134 
L 1269 4134 
L 1269 2991 
Q 1406 3038 1543 3061 
Q 1681 3084 1819 3084 
Q 2600 3084 3056 2656 
Q 3513 2228 3513 1497 
Q 3513 744 3044 326 
Q 2575 -91 1722 -91 
Q 1428 -91 1123 -41 
Q 819 9 494 109 
L 494 744 
Q 775 591 1075 516 
Q 1375 441 1709 441 
Q 2250 441 2565 725 
Q 2881 1009 2881 1497 
Q 2881 1984 2565 2268 
Q 2250 2553 1709 2553 
Q 1456 2553 1204 2497 
Q 953 2441 691 2322 
L 691 4666 
z
" transform="scale(0.015625)"/>
       </defs>
       <use xlink:href="#DejaVuSans-30"/>
       <use xlink:href="#DejaVuSans-2e" x="63.623047"/>
       <use xlink:href="#DejaVuSans-35" x="95.410156"/>
      </g>
     </g>
    </g>
    <g id="ytick_3">
     <g id="line2d_9">
      <g>
       <use xlink:href="#mb6f7423646" x="108" y="589.165129" style="stroke: #000000; stroke-width: 0.8"/>
      </g>
     </g>
     <g id="text_10">
      <!-- 1.0 -->
      <g transform="translate(85.096875 592.964348)scale(0.1 -0.1)">
       <use xlink:href="#DejaVuSans-31"/>
       <use xlink:href="#DejaVuSans-2e" x="63.623047"/>
       <use xlink:href="#DejaVuSans-30" x="95.410156"/>
      </g>
     </g>
    </g>
    <g id="ytick_4">
     <g id="line2d_10">
      <g>
       <use xlink:href="#mb6f7423646" x="108" y="499.267694" style="stroke: #000000; stroke-width: 0.8"/>
      </g>
     </g>
     <g id="text_11">
      <!-- 1.5 -->
      <g transform="translate(85.096875 503.066913)scale(0.1 -0.1)">
       <use xlink:href="#DejaVuSans-31"/>
       <use xlink:href="#DejaVuSans-2e" x="63.623047"/>
       <use xlink:href="#DejaVuSans-35" x="95.410156"/>
      </g>
     </g>
    </g>
    <g id="ytick_5">
     <g id="line2d_11">
      <g>
       <use xlink:href="#mb6f7423646" x="108" y="409.370258" style="stroke: #000000; stroke-width: 0.8"/>
      </g>
     </g>
     <g id="text_12">
      <!-- 2.0 -->
      <g transform="translate(85.096875 413.169477)scale(0.1 -0.1)">
       <use xlink:href="#DejaVuSans-32"/>
       <use xlink:href="#DejaVuSans-2e" x="63.623047"/>
       <use xlink:href="#DejaVuSans-30" x="95.410156"/>
      </g>
     </g>
    </g>
    <g id="ytick_6">
     <g id="line2d_12">
      <g>
       <use xlink:href="#mb6f7423646" x="108" y="319.472823" style="stroke: #000000; stroke-width: 0.8"/>
      </g>
     </g>
     <g id="text_13">
      <!-- 2.5 -->
      <g transform="translate(85.096875 323.272042)scale(0.1 -0.1)">
       <use xlink:href="#DejaVuSans-32"/>
       <use xlink:href="#DejaVuSans-2e" x="63.623047"/>
       <use xlink:href="#DejaVuSans-35" x="95.410156"/>
      </g>
     </g>
    </g>
    <g id="ytick_7">
     <g id="line2d_13">
      <g>
       <use xlink:href="#mb6f7423646" x="108" y="229.575388" style="stroke: #000000; stroke-width: 0.8"/>
      </g>
     </g>
     <g id="text_14">
      <!-- 3.0 -->
      <g transform="translate(85.096875 233.374606)scale(0.1 -0.1)">
       <defs>
        <path id="DejaVuSans-33" d="M 2597 2516 
Q 3050 2419 3304 2112 
Q 3559 1806 3559 1356 
Q 3559 666 3084 287 
Q 2609 -91 1734 -91 
Q 1441 -91 1130 -33 
Q 819 25 488 141 
L 488 750 
Q 750 597 1062 519 
Q 1375 441 1716 441 
Q 2309 441 2620 675 
Q 2931 909 2931 1356 
Q 2931 1769 2642 2001 
Q 2353 2234 1838 2234 
L 1294 2234 
L 1294 2753 
L 1863 2753 
Q 2328 2753 2575 2939 
Q 2822 3125 2822 3475 
Q 2822 3834 2567 4026 
Q 2313 4219 1838 4219 
Q 1578 4219 1281 4162 
Q 984 4106 628 3988 
L 628 4550 
Q 988 4650 1302 4700 
Q 1616 4750 1894 4750 
Q 2613 4750 3031 4423 
Q 3450 4097 3450 3541 
Q 3450 3153 3228 2886 
Q 3006 2619 2597 2516 
z
" transform="scale(0.015625)"/>
       </defs>
       <use xlink:href="#DejaVuSans-33"/>
       <use xlink:href="#DejaVuSans-2e" x="63.623047"/>
       <use xlink:href="#DejaVuSans-30" x="95.410156"/>
      </g>
     </g>
    </g>
    <g id="ytick_8">
     <g id="line2d_14">
      <g>
       <use xlink:href="#mb6f7423646" x="108" y="139.677952" style="stroke: #000000; stroke-width: 0.8"/>
      </g>
     </g>
     <g id="text_15">
      <!-- 3.5 -->
      <g transform="translate(85.096875 143.477171)scale(0.1 -0.1)">
       <use xlink:href="#DejaVuSans-33"/>
       <use xlink:href="#DejaVuSans-2e" x="63.623047"/>
       <use xlink:href="#DejaVuSans-35" x="95.410156"/>
      </g>
     </g>
    </g>
    <g id="text_16">
     <!-- Density -->
     <g transform="translate(77.769375 466.73375)rotate(-90)scale(0.16 -0.16)">
      <defs>
       <path id="DejaVuSans-44" d="M 1259 4147 
L 1259 519 
L 2022 519 
Q 2988 519 3436 956 
Q 3884 1394 3884 2338 
Q 3884 3275 3436 3711 
Q 2988 4147 2022 4147 
L 1259 4147 
z
M 628 4666 
L 1925 4666 
Q 3281 4666 3915 4102 
Q 4550 3538 4550 2338 
Q 4550 1131 3912 565 
Q 3275 0 1925 0 
L 628 0 
L 628 4666 
z
" transform="scale(0.015625)"/>
       <path id="DejaVuSans-65" d="M 3597 1894 
L 3597 1613 
L 953 1613 
Q 991 1019 1311 708 
Q 1631 397 2203 397 
Q 2534 397 2845 478 
Q 3156 559 3463 722 
L 3463 178 
Q 3153 47 2828 -22 
Q 2503 -91 2169 -91 
Q 1331 -91 842 396 
Q 353 884 353 1716 
Q 353 2575 817 3079 
Q 1281 3584 2069 3584 
Q 2775 3584 3186 3129 
Q 3597 2675 3597 1894 
z
M 3022 2063 
Q 3016 2534 2758 2815 
Q 2500 3097 2075 3097 
Q 1594 3097 1305 2825 
Q 1016 2553 972 2059 
L 3022 2063 
z
" transform="scale(0.015625)"/>
       <path id="DejaVuSans-6e" d="M 3513 2113 
L 3513 0 
L 2938 0 
L 2938 2094 
Q 2938 2591 2744 2837 
Q 2550 3084 2163 3084 
Q 1697 3084 1428 2787 
Q 1159 2491 1159 1978 
L 1159 0 
L 581 0 
L 581 3500 
L 1159 3500 
L 1159 2956 
Q 1366 3272 1645 3428 
Q 1925 3584 2291 3584 
Q 2894 3584 3203 3211 
Q 3513 2838 3513 2113 
z
" transform="scale(0.015625)"/>
       <path id="DejaVuSans-73" d="M 2834 3397 
L 2834 2853 
Q 2591 2978 2328 3040 
Q 2066 3103 1784 3103 
Q 1356 3103 1142 2972 
Q 928 2841 928 2578 
Q 928 2378 1081 2264 
Q 1234 2150 1697 2047 
L 1894 2003 
Q 2506 1872 2764 1633 
Q 3022 1394 3022 966 
Q 3022 478 2636 193 
Q 2250 -91 1575 -91 
Q 1294 -91 989 -36 
Q 684 19 347 128 
L 347 722 
Q 666 556 975 473 
Q 1284 391 1588 391 
Q 1994 391 2212 530 
Q 2431 669 2431 922 
Q 2431 1156 2273 1281 
Q 2116 1406 1581 1522 
L 1381 1569 
Q 847 1681 609 1914 
Q 372 2147 372 2553 
Q 372 3047 722 3315 
Q 1072 3584 1716 3584 
Q 2034 3584 2315 3537 
Q 2597 3491 2834 3397 
z
" transform="scale(0.015625)"/>
      </defs>
      <use xlink:href="#DejaVuSans-44"/>
      <use xlink:href="#DejaVuSans-65" x="77.001953"/>
      <use xlink:href="#DejaVuSans-6e" x="138.525391"/>
      <use xlink:href="#DejaVuSans-73" x="201.904297"/>
      <use xlink:href="#DejaVuSans-69" x="254.003906"/>
      <use xlink:href="#DejaVuSans-74" x="281.787109"/>
      <use xlink:href="#DejaVuSans-79" x="320.996094"/>
     </g>
    </g>
   </g>
   <g id="patch_3">
    <path d="M 108 768.96 
L 108 103.68 
" style="fill: none; stroke: #000000; stroke-width: 0.8; stroke-linejoin: miter; stroke-linecap: square"/>
   </g>
   <g id="patch_4">
    <path d="M 777.6 768.96 
L 777.6 103.68 
" style="fill: none; stroke: #000000; stroke-width: 0.8; stroke-linejoin: miter; stroke-linecap: square"/>
   </g>
   <g id="patch_5">
    <path d="M 108 768.96 
L 777.6 768.96 
" style="fill: none; stroke: #000000; stroke-width: 0.8; stroke-linejoin: miter; stroke-linecap: square"/>
   </g>
   <g id="patch_6">
    <path d="M 108 103.68 
L 777.6 103.68 
" style="fill: none; stroke: #000000; stroke-width: 0.8; stroke-linejoin: miter; stroke-linecap: square"/>
   </g>
   <g id="legend_1">
    <g id="patch_7">
     <path d="M 484.15 186.935 
L 766.4 186.935 
Q 769.6 186.935 769.6 183.735 
L 769.6 114.88 
Q 769.6 111.68 766.4 111.68 
L 484.15 111.68 
Q 480.95 111.68 480.95 114.88 
L 480.95 183.735 
Q 480.95 186.935 484.15 186.935 
z
" style="fill: #ffffff; opacity: 0.8; stroke: #cccccc; stroke-linejoin: miter"/>
    </g>
    <g id="patch_8">
     <path d="M 487.35 130.2375 
L 519.35 130.2375 
L 519.35 119.0375 
L 487.35 119.0375 
z
" style="fill: #0000ff; fill-opacity: 0.25; stroke: #0000ff; stroke-width: 3; stroke-linejoin: miter"/>
    </g>
    <g id="text_17">
     <!-- Training vs Test set similarity -->
     <g transform="translate(532.15 130.2375)scale(0.16 -0.16)">
      <defs>
       <path id="DejaVuSans-54" d="M -19 4666 
L 3928 4666 
L 3928 4134 
L 2272 4134 
L 2272 0 
L 1638 0 
L 1638 4134 
L -19 4134 
L -19 4666 
z
" transform="scale(0.015625)"/>
       <path id="DejaVuSans-67" d="M 2906 1791 
Q 2906 2416 2648 2759 
Q 2391 3103 1925 3103 
Q 1463 3103 1205 2759 
Q 947 2416 947 1791 
Q 947 1169 1205 825 
Q 1463 481 1925 481 
Q 2391 481 2648 825 
Q 2906 1169 2906 1791 
z
M 3481 434 
Q 3481 -459 3084 -895 
Q 2688 -1331 1869 -1331 
Q 1566 -1331 1297 -1286 
Q 1028 -1241 775 -1147 
L 775 -588 
Q 1028 -725 1275 -790 
Q 1522 -856 1778 -856 
Q 2344 -856 2625 -561 
Q 2906 -266 2906 331 
L 2906 616 
Q 2728 306 2450 153 
Q 2172 0 1784 0 
Q 1141 0 747 490 
Q 353 981 353 1791 
Q 353 2603 747 3093 
Q 1141 3584 1784 3584 
Q 2172 3584 2450 3431 
Q 2728 3278 2906 2969 
L 2906 3500 
L 3481 3500 
L 3481 434 
z
" transform="scale(0.015625)"/>
       <path id="DejaVuSans-20" transform="scale(0.015625)"/>
       <path id="DejaVuSans-76" d="M 191 3500 
L 800 3500 
L 1894 563 
L 2988 3500 
L 3597 3500 
L 2284 0 
L 1503 0 
L 191 3500 
z
" transform="scale(0.015625)"/>
      </defs>
      <use xlink:href="#DejaVuSans-54"/>
      <use xlink:href="#DejaVuSans-72" x="46.333984"/>
      <use xlink:href="#DejaVuSans-61" x="87.447266"/>
      <use xlink:href="#DejaVuSans-69" x="148.726562"/>
      <use xlink:href="#DejaVuSans-6e" x="176.509766"/>
      <use xlink:href="#DejaVuSans-69" x="239.888672"/>
      <use xlink:href="#DejaVuSans-6e" x="267.671875"/>
      <use xlink:href="#DejaVuSans-67" x="331.050781"/>
      <use xlink:href="#DejaVuSans-20" x="394.527344"/>
      <use xlink:href="#DejaVuSans-76" x="426.314453"/>
      <use xlink:href="#DejaVuSans-73" x="485.494141"/>
      <use xlink:href="#DejaVuSans-20" x="537.59375"/>
      <use xlink:href="#DejaVuSans-54" x="569.380859"/>
      <use xlink:href="#DejaVuSans-65" x="613.464844"/>
      <use xlink:href="#DejaVuSans-73" x="674.988281"/>
      <use xlink:href="#DejaVuSans-74" x="727.087891"/>
      <use xlink:href="#DejaVuSans-20" x="766.296875"/>
      <use xlink:href="#DejaVuSans-73" x="798.083984"/>
      <use xlink:href="#DejaVuSans-65" x="850.183594"/>
      <use xlink:href="#DejaVuSans-74" x="911.707031"/>
      <use xlink:href="#DejaVuSans-20" x="950.916016"/>
      <use xlink:href="#DejaVuSans-73" x="982.703125"/>
      <use xlink:href="#DejaVuSans-69" x="1034.802734"/>
      <use xlink:href="#DejaVuSans-6d" x="1062.585938"/>
      <use xlink:href="#DejaVuSans-69" x="1159.998047"/>
      <use xlink:href="#DejaVuSans-6c" x="1187.78125"/>
      <use xlink:href="#DejaVuSans-61" x="1215.564453"/>
      <use xlink:href="#DejaVuSans-72" x="1276.84375"/>
      <use xlink:href="#DejaVuSans-69" x="1317.957031"/>
      <use xlink:href="#DejaVuSans-74" x="1345.740234"/>
      <use xlink:href="#DejaVuSans-79" x="1384.949219"/>
     </g>
    </g>
    <g id="patch_9">
     <path d="M 487.35 153.7225 
L 519.35 153.7225 
L 519.35 142.5225 
L 487.35 142.5225 
z
" style="fill: #ff0000; fill-opacity: 0.25; stroke: #ff0000; stroke-width: 3; stroke-linejoin: miter"/>
    </g>
    <g id="text_18">
     <!-- Training set inner similarity -->
     <g transform="translate(532.15 153.7225)scale(0.16 -0.16)">
      <use xlink:href="#DejaVuSans-54"/>
      <use xlink:href="#DejaVuSans-72" x="46.333984"/>
      <use xlink:href="#DejaVuSans-61" x="87.447266"/>
      <use xlink:href="#DejaVuSans-69" x="148.726562"/>
      <use xlink:href="#DejaVuSans-6e" x="176.509766"/>
      <use xlink:href="#DejaVuSans-69" x="239.888672"/>
      <use xlink:href="#DejaVuSans-6e" x="267.671875"/>
      <use xlink:href="#DejaVuSans-67" x="331.050781"/>
      <use xlink:href="#DejaVuSans-20" x="394.527344"/>
      <use xlink:href="#DejaVuSans-73" x="426.314453"/>
      <use xlink:href="#DejaVuSans-65" x="478.414062"/>
      <use xlink:href="#DejaVuSans-74" x="539.9375"/>
      <use xlink:href="#DejaVuSans-20" x="579.146484"/>
      <use xlink:href="#DejaVuSans-69" x="610.933594"/>
      <use xlink:href="#DejaVuSans-6e" x="638.716797"/>
      <use xlink:href="#DejaVuSans-6e" x="702.095703"/>
      <use xlink:href="#DejaVuSans-65" x="765.474609"/>
      <use xlink:href="#DejaVuSans-72" x="826.998047"/>
      <use xlink:href="#DejaVuSans-20" x="868.111328"/>
      <use xlink:href="#DejaVuSans-73" x="899.898438"/>
      <use xlink:href="#DejaVuSans-69" x="951.998047"/>
      <use xlink:href="#DejaVuSans-6d" x="979.78125"/>
      <use xlink:href="#DejaVuSans-69" x="1077.193359"/>
      <use xlink:href="#DejaVuSans-6c" x="1104.976562"/>
      <use xlink:href="#DejaVuSans-61" x="1132.759766"/>
      <use xlink:href="#DejaVuSans-72" x="1194.039062"/>
      <use xlink:href="#DejaVuSans-69" x="1235.152344"/>
      <use xlink:href="#DejaVuSans-74" x="1262.935547"/>
      <use xlink:href="#DejaVuSans-79" x="1302.144531"/>
     </g>
    </g>
    <g id="patch_10">
     <path d="M 487.35 177.2075 
L 519.35 177.2075 
L 519.35 166.0075 
L 487.35 166.0075 
z
" style="fill: #008000; fill-opacity: 0.25; stroke: #008000; stroke-width: 3; stroke-linejoin: miter"/>
    </g>
    <g id="text_19">
     <!-- Test set inner similarity -->
     <g transform="translate(532.15 177.2075)scale(0.16 -0.16)">
      <use xlink:href="#DejaVuSans-54"/>
      <use xlink:href="#DejaVuSans-65" x="44.083984"/>
      <use xlink:href="#DejaVuSans-73" x="105.607422"/>
      <use xlink:href="#DejaVuSans-74" x="157.707031"/>
      <use xlink:href="#DejaVuSans-20" x="196.916016"/>
      <use xlink:href="#DejaVuSans-73" x="228.703125"/>
      <use xlink:href="#DejaVuSans-65" x="280.802734"/>
      <use xlink:href="#DejaVuSans-74" x="342.326172"/>
      <use xlink:href="#DejaVuSans-20" x="381.535156"/>
      <use xlink:href="#DejaVuSans-69" x="413.322266"/>
      <use xlink:href="#DejaVuSans-6e" x="441.105469"/>
      <use xlink:href="#DejaVuSans-6e" x="504.484375"/>
      <use xlink:href="#DejaVuSans-65" x="567.863281"/>
      <use xlink:href="#DejaVuSans-72" x="629.386719"/>
      <use xlink:href="#DejaVuSans-20" x="670.5"/>
      <use xlink:href="#DejaVuSans-73" x="702.287109"/>
      <use xlink:href="#DejaVuSans-69" x="754.386719"/>
      <use xlink:href="#DejaVuSans-6d" x="782.169922"/>
      <use xlink:href="#DejaVuSans-69" x="879.582031"/>
      <use xlink:href="#DejaVuSans-6c" x="907.365234"/>
      <use xlink:href="#DejaVuSans-61" x="935.148438"/>
      <use xlink:href="#DejaVuSans-72" x="996.427734"/>
      <use xlink:href="#DejaVuSans-69" x="1037.541016"/>
      <use xlink:href="#DejaVuSans-74" x="1065.324219"/>
      <use xlink:href="#DejaVuSans-79" x="1104.533203"/>
     </g>
    </g>
   </g>
  </g>
 </g>
 <defs>
  <clipPath id="p984240e021">
   <rect x="108" y="103.68" width="669.6" height="665.28"/>
  </clipPath>
 </defs>
</svg>
