<?xml version="1.0" encoding="utf-8" standalone="no"?>
<!DOCTYPE svg PUBLIC "-//W3C//DTD SVG 1.1//EN"
  "http://www.w3.org/Graphics/SVG/1.1/DTD/svg11.dtd">
<svg xmlns:xlink="http://www.w3.org/1999/xlink" width="864pt" height="864pt" viewBox="0 0 864 864" xmlns="http://www.w3.org/2000/svg" version="1.1">
 <metadata>
  <rdf:RDF xmlns:dc="http://purl.org/dc/elements/1.1/" xmlns:cc="http://creativecommons.org/ns#" xmlns:rdf="http://www.w3.org/1999/02/22-rdf-syntax-ns#">
   <cc:Work>
    <dc:type rdf:resource="http://purl.org/dc/dcmitype/StillImage"/>
    <dc:date>2022-02-07T13:00:37.048897</dc:date>
    <dc:format>image/svg+xml</dc:format>
    <dc:creator>
     <cc:Agent>
      <dc:title>Matplotlib v3.5.1, https://matplotlib.org/</dc:title>
     </cc:Agent>
    </dc:creator>
   </cc:Work>
  </rdf:RDF>
 </metadata>
 <defs>
  <style type="text/css">*{stroke-linejoin: round; stroke-linecap: butt}</style>
 </defs>
 <g id="figure_1">
  <g id="patch_1">
   <path d="M 0 864 
L 864 864 
L 864 0 
L 0 0 
z
" style="fill: #ffffff"/>
  </g>
  <g id="axes_1">
   <g id="patch_2">
    <path d="M 108 768.96 
L 777.6 768.96 
L 777.6 103.68 
L 108 103.68 
z
" style="fill: #ffffff"/>
   </g>
   <g id="PolyCollection_1">
    <defs>
     <path id="m9c6f695b65" d="M 139.364542 -95.040007 
L 139.364542 -95.04 
L 142.399693 -95.04 
L 145.434843 -95.04 
L 148.469993 -95.04 
L 151.505143 -95.04 
L 154.540294 -95.04 
L 157.575444 -95.04 
L 160.610594 -95.04 
L 163.645744 -95.04 
L 166.680895 -95.04 
L 169.716045 -95.04 
L 172.751195 -95.04 
L 175.786345 -95.04 
L 178.821496 -95.04 
L 181.856646 -95.04 
L 184.891796 -95.04 
L 187.926946 -95.04 
L 190.962097 -95.04 
L 193.997247 -95.04 
L 197.032397 -95.04 
L 200.067547 -95.04 
L 203.102698 -95.04 
L 206.137848 -95.04 
L 209.172998 -95.04 
L 212.208148 -95.04 
L 215.243299 -95.04 
L 218.278449 -95.04 
L 221.313599 -95.04 
L 224.348749 -95.04 
L 227.3839 -95.04 
L 230.41905 -95.04 
L 233.4542 -95.04 
L 236.48935 -95.04 
L 239.524501 -95.04 
L 242.559651 -95.04 
L 245.594801 -95.04 
L 248.629951 -95.04 
L 251.665102 -95.04 
L 254.700252 -95.04 
L 257.735402 -95.04 
L 260.770552 -95.04 
L 263.805703 -95.04 
L 266.840853 -95.04 
L 269.876003 -95.04 
L 272.911153 -95.04 
L 275.946304 -95.04 
L 278.981454 -95.04 
L 282.016604 -95.04 
L 285.051754 -95.04 
L 288.086905 -95.04 
L 291.122055 -95.04 
L 294.157205 -95.04 
L 297.192355 -95.04 
L 300.227506 -95.04 
L 303.262656 -95.04 
L 306.297806 -95.04 
L 309.332956 -95.04 
L 312.368107 -95.04 
L 315.403257 -95.04 
L 318.438407 -95.04 
L 321.473557 -95.04 
L 324.508707 -95.04 
L 327.543858 -95.04 
L 330.579008 -95.04 
L 333.614158 -95.04 
L 336.649308 -95.04 
L 339.684459 -95.04 
L 342.719609 -95.04 
L 345.754759 -95.04 
L 348.789909 -95.04 
L 351.82506 -95.04 
L 354.86021 -95.04 
L 357.89536 -95.04 
L 360.93051 -95.04 
L 363.965661 -95.04 
L 367.000811 -95.04 
L 370.035961 -95.04 
L 373.071111 -95.04 
L 376.106262 -95.04 
L 379.141412 -95.04 
L 382.176562 -95.04 
L 385.211712 -95.04 
L 388.246863 -95.04 
L 391.282013 -95.04 
L 394.317163 -95.04 
L 397.352313 -95.04 
L 400.387464 -95.04 
L 403.422614 -95.04 
L 406.457764 -95.04 
L 409.492914 -95.04 
L 412.528065 -95.04 
L 415.563215 -95.04 
L 418.598365 -95.04 
L 421.633515 -95.04 
L 424.668666 -95.04 
L 427.703816 -95.04 
L 430.738966 -95.04 
L 433.774116 -95.04 
L 436.809267 -95.04 
L 439.844417 -95.04 
L 442.879567 -95.04 
L 445.914717 -95.04 
L 448.949868 -95.04 
L 451.985018 -95.04 
L 455.020168 -95.04 
L 458.055318 -95.04 
L 461.090469 -95.04 
L 464.125619 -95.04 
L 467.160769 -95.04 
L 470.195919 -95.04 
L 473.23107 -95.04 
L 476.26622 -95.04 
L 479.30137 -95.04 
L 482.33652 -95.04 
L 485.371671 -95.04 
L 488.406821 -95.04 
L 491.441971 -95.04 
L 494.477121 -95.04 
L 497.512272 -95.04 
L 500.547422 -95.04 
L 503.582572 -95.04 
L 506.617722 -95.04 
L 509.652872 -95.04 
L 512.688023 -95.04 
L 515.723173 -95.04 
L 518.758323 -95.04 
L 521.793473 -95.04 
L 524.828624 -95.04 
L 527.863774 -95.04 
L 530.898924 -95.04 
L 533.934074 -95.04 
L 536.969225 -95.04 
L 540.004375 -95.04 
L 543.039525 -95.04 
L 546.074675 -95.04 
L 549.109826 -95.04 
L 552.144976 -95.04 
L 555.180126 -95.04 
L 558.215276 -95.04 
L 561.250427 -95.04 
L 564.285577 -95.04 
L 567.320727 -95.04 
L 570.355877 -95.04 
L 573.391028 -95.04 
L 576.426178 -95.04 
L 579.461328 -95.04 
L 582.496478 -95.04 
L 585.531629 -95.04 
L 588.566779 -95.04 
L 591.601929 -95.04 
L 594.637079 -95.04 
L 597.67223 -95.04 
L 600.70738 -95.04 
L 603.74253 -95.04 
L 606.77768 -95.04 
L 609.812831 -95.04 
L 612.847981 -95.04 
L 615.883131 -95.04 
L 618.918281 -95.04 
L 621.953432 -95.04 
L 624.988582 -95.04 
L 628.023732 -95.04 
L 631.058882 -95.04 
L 634.094033 -95.04 
L 637.129183 -95.04 
L 640.164333 -95.04 
L 643.199483 -95.04 
L 646.234634 -95.04 
L 649.269784 -95.04 
L 652.304934 -95.04 
L 655.340084 -95.04 
L 658.375235 -95.04 
L 661.410385 -95.04 
L 664.445535 -95.04 
L 667.480685 -95.04 
L 670.515836 -95.04 
L 673.550986 -95.04 
L 676.586136 -95.04 
L 679.621286 -95.04 
L 682.656436 -95.04 
L 685.691587 -95.04 
L 688.726737 -95.04 
L 691.761887 -95.04 
L 694.797037 -95.04 
L 697.832188 -95.04 
L 700.867338 -95.04 
L 703.902488 -95.04 
L 706.937638 -95.04 
L 709.972789 -95.04 
L 713.007939 -95.04 
L 716.043089 -95.04 
L 719.078239 -95.04 
L 722.11339 -95.04 
L 725.14854 -95.04 
L 728.18369 -95.04 
L 731.21884 -95.04 
L 734.253991 -95.04 
L 737.289141 -95.04 
L 740.324291 -95.04 
L 743.359441 -95.04 
L 743.359441 -95.105746 
L 743.359441 -95.105746 
L 740.324291 -96.291416 
L 737.289141 -100.303692 
L 734.253991 -100.27207 
L 731.21884 -97.062162 
L 728.18369 -96.435823 
L 725.14854 -96.751906 
L 722.11339 -97.21133 
L 719.078239 -97.66057 
L 716.043089 -98.146238 
L 713.007939 -98.834058 
L 709.972789 -99.419707 
L 706.937638 -99.723952 
L 703.902488 -100.077056 
L 700.867338 -100.77138 
L 697.832188 -101.819128 
L 694.797037 -103.131035 
L 691.761887 -103.994696 
L 688.726737 -104.502275 
L 685.691587 -105.276554 
L 682.656436 -106.215902 
L 679.621286 -107.349147 
L 676.586136 -108.716329 
L 673.550986 -110.570679 
L 670.515836 -112.237456 
L 667.480685 -113.78915 
L 664.445535 -115.268087 
L 661.410385 -116.786965 
L 658.375235 -118.841091 
L 655.340084 -120.524817 
L 652.304934 -121.624769 
L 649.269784 -122.689327 
L 646.234634 -123.868169 
L 643.199483 -125.437645 
L 640.164333 -126.884887 
L 637.129183 -128.277237 
L 634.094033 -130.155239 
L 631.058882 -132.352415 
L 628.023732 -134.319558 
L 624.988582 -135.694511 
L 621.953432 -137.519724 
L 618.918281 -139.549439 
L 615.883131 -140.697983 
L 612.847981 -140.957394 
L 609.812831 -141.170282 
L 606.77768 -141.517987 
L 603.74253 -143.237411 
L 600.70738 -145.634794 
L 597.67223 -148.324558 
L 594.637079 -150.948517 
L 591.601929 -152.889518 
L 588.566779 -154.31579 
L 585.531629 -156.181134 
L 582.496478 -158.271784 
L 579.461328 -160.386965 
L 576.426178 -162.302191 
L 573.391028 -165.035707 
L 570.355877 -167.597683 
L 567.320727 -169.361883 
L 564.285577 -171.487862 
L 561.250427 -174.998687 
L 558.215276 -178.309568 
L 555.180126 -180.192513 
L 552.144976 -181.6007 
L 549.109826 -182.892856 
L 546.074675 -184.337863 
L 543.039525 -185.557823 
L 540.004375 -185.685288 
L 536.969225 -187.434201 
L 533.934074 -190.664063 
L 530.898924 -194.153082 
L 527.863774 -196.658506 
L 524.828624 -198.81371 
L 521.793473 -201.162069 
L 518.758323 -200.517494 
L 515.723173 -196.952674 
L 512.688023 -193.773015 
L 509.652872 -191.185913 
L 506.617722 -190.070702 
L 503.582572 -190.429497 
L 500.547422 -192.883514 
L 497.512272 -195.208446 
L 494.477121 -197.190825 
L 491.441971 -203.952435 
L 488.406821 -214.736331 
L 485.371671 -225.236042 
L 482.33652 -234.405645 
L 479.30137 -243.974955 
L 476.26622 -256.695095 
L 473.23107 -272.724023 
L 470.195919 -292.491953 
L 467.160769 -310.458772 
L 464.125619 -323.465793 
L 461.090469 -338.996029 
L 458.055318 -358.182691 
L 455.020168 -382.686645 
L 451.985018 -412.354791 
L 448.949868 -443.312638 
L 445.914717 -475.123166 
L 442.879567 -505.508449 
L 439.844417 -531.899255 
L 436.809267 -552.180849 
L 433.774116 -568.693748 
L 430.738966 -585.182618 
L 427.703816 -603.435816 
L 424.668666 -620.2946 
L 421.633515 -636.520627 
L 418.598365 -651.953895 
L 415.563215 -663.882146 
L 412.528065 -674.745648 
L 409.492914 -687.65767 
L 406.457764 -693.176497 
L 403.422614 -690.666849 
L 400.387464 -688.298053 
L 397.352313 -690.423598 
L 394.317163 -695.072571 
L 391.282013 -700.82248 
L 388.246863 -709.434207 
L 385.211712 -712.300493 
L 382.176562 -709.205179 
L 379.141412 -706.66099 
L 376.106262 -707.866373 
L 373.071111 -711.740014 
L 370.035961 -716.000362 
L 367.000811 -720.116133 
L 363.965661 -726.176053 
L 360.93051 -728.050159 
L 357.89536 -722.92123 
L 354.86021 -714.755449 
L 351.82506 -703.886968 
L 348.789909 -693.116687 
L 345.754759 -677.472971 
L 342.719609 -657.284437 
L 339.684459 -639.201336 
L 336.649308 -619.984822 
L 333.614158 -596.408733 
L 330.579008 -572.993243 
L 327.543858 -550.02971 
L 324.508707 -525.702936 
L 321.473557 -502.496009 
L 318.438407 -481.193288 
L 315.403257 -460.510638 
L 312.368107 -440.008995 
L 309.332956 -425.595773 
L 306.297806 -416.357502 
L 303.262656 -405.041896 
L 300.227506 -388.387965 
L 297.192355 -368.490835 
L 294.157205 -349.368052 
L 291.122055 -333.148732 
L 288.086905 -319.323894 
L 285.051754 -306.524784 
L 282.016604 -292.502321 
L 278.981454 -279.865328 
L 275.946304 -270.262082 
L 272.911153 -259.671329 
L 269.876003 -246.545104 
L 266.840853 -233.861421 
L 263.805703 -223.411048 
L 260.770552 -213.772851 
L 257.735402 -204.201694 
L 254.700252 -195.059132 
L 251.665102 -186.455439 
L 248.629951 -179.260333 
L 245.594801 -171.813761 
L 242.559651 -163.303752 
L 239.524501 -154.170054 
L 236.48935 -145.639821 
L 233.4542 -137.904583 
L 230.41905 -131.949451 
L 227.3839 -127.512156 
L 224.348749 -123.616818 
L 221.313599 -119.848669 
L 218.278449 -115.884717 
L 215.243299 -111.472825 
L 212.208148 -107.684046 
L 209.172998 -105.188687 
L 206.137848 -104.571635 
L 203.102698 -105.629705 
L 200.067547 -105.927507 
L 197.032397 -104.49632 
L 193.997247 -102.048654 
L 190.962097 -99.622038 
L 187.926946 -98.231952 
L 184.891796 -97.794636 
L 181.856646 -97.702096 
L 178.821496 -97.571986 
L 175.786345 -97.249421 
L 172.751195 -96.499636 
L 169.716045 -95.94813 
L 166.680895 -95.663477 
L 163.645744 -95.711032 
L 160.610594 -96.073289 
L 157.575444 -95.931923 
L 154.540294 -95.364828 
L 151.505143 -95.099592 
L 148.469993 -95.048949 
L 145.434843 -95.041543 
L 142.399693 -95.040177 
L 139.364542 -95.040007 
z
" style="stroke: #0000ff; stroke-width: 3"/>
    </defs>
    <g clip-path="url(#p0bdc1a8c69)">
     <use xlink:href="#m9c6f695b65" x="0" y="864" style="fill: #0000ff; fill-opacity: 0.25; stroke: #0000ff; stroke-width: 3"/>
    </g>
   </g>
   <g id="PolyCollection_2">
    <defs>
     <path id="m6a7a5b75d5" d="M 138.436364 -95.040003 
L 138.436364 -95.04 
L 141.471376 -95.04 
L 144.506389 -95.04 
L 147.541401 -95.04 
L 150.576414 -95.04 
L 153.611427 -95.04 
L 156.646439 -95.04 
L 159.681452 -95.04 
L 162.716464 -95.04 
L 165.751477 -95.04 
L 168.786489 -95.04 
L 171.821502 -95.04 
L 174.856515 -95.04 
L 177.891527 -95.04 
L 180.92654 -95.04 
L 183.961552 -95.04 
L 186.996565 -95.04 
L 190.031577 -95.04 
L 193.06659 -95.04 
L 196.101603 -95.04 
L 199.136615 -95.04 
L 202.171628 -95.04 
L 205.20664 -95.04 
L 208.241653 -95.04 
L 211.276666 -95.04 
L 214.311678 -95.04 
L 217.346691 -95.04 
L 220.381703 -95.04 
L 223.416716 -95.04 
L 226.451728 -95.04 
L 229.486741 -95.04 
L 232.521754 -95.04 
L 235.556766 -95.04 
L 238.591779 -95.04 
L 241.626791 -95.04 
L 244.661804 -95.04 
L 247.696817 -95.04 
L 250.731829 -95.04 
L 253.766842 -95.04 
L 256.801854 -95.04 
L 259.836867 -95.04 
L 262.871879 -95.04 
L 265.906892 -95.04 
L 268.941905 -95.04 
L 271.976917 -95.04 
L 275.01193 -95.04 
L 278.046942 -95.04 
L 281.081955 -95.04 
L 284.116967 -95.04 
L 287.15198 -95.04 
L 290.186993 -95.04 
L 293.222005 -95.04 
L 296.257018 -95.04 
L 299.29203 -95.04 
L 302.327043 -95.04 
L 305.362056 -95.04 
L 308.397068 -95.04 
L 311.432081 -95.04 
L 314.467093 -95.04 
L 317.502106 -95.04 
L 320.537118 -95.04 
L 323.572131 -95.04 
L 326.607144 -95.04 
L 329.642156 -95.04 
L 332.677169 -95.04 
L 335.712181 -95.04 
L 338.747194 -95.04 
L 341.782206 -95.04 
L 344.817219 -95.04 
L 347.852232 -95.04 
L 350.887244 -95.04 
L 353.922257 -95.04 
L 356.957269 -95.04 
L 359.992282 -95.04 
L 363.027295 -95.04 
L 366.062307 -95.04 
L 369.09732 -95.04 
L 372.132332 -95.04 
L 375.167345 -95.04 
L 378.202357 -95.04 
L 381.23737 -95.04 
L 384.272383 -95.04 
L 387.307395 -95.04 
L 390.342408 -95.04 
L 393.37742 -95.04 
L 396.412433 -95.04 
L 399.447445 -95.04 
L 402.482458 -95.04 
L 405.517471 -95.04 
L 408.552483 -95.04 
L 411.587496 -95.04 
L 414.622508 -95.04 
L 417.657521 -95.04 
L 420.692534 -95.04 
L 423.727546 -95.04 
L 426.762559 -95.04 
L 429.797571 -95.04 
L 432.832584 -95.04 
L 435.867596 -95.04 
L 438.902609 -95.04 
L 441.937622 -95.04 
L 444.972634 -95.04 
L 448.007647 -95.04 
L 451.042659 -95.04 
L 454.077672 -95.04 
L 457.112684 -95.04 
L 460.147697 -95.04 
L 463.18271 -95.04 
L 466.217722 -95.04 
L 469.252735 -95.04 
L 472.287747 -95.04 
L 475.32276 -95.04 
L 478.357773 -95.04 
L 481.392785 -95.04 
L 484.427798 -95.04 
L 487.46281 -95.04 
L 490.497823 -95.04 
L 493.532835 -95.04 
L 496.567848 -95.04 
L 499.602861 -95.04 
L 502.637873 -95.04 
L 505.672886 -95.04 
L 508.707898 -95.04 
L 511.742911 -95.04 
L 514.777924 -95.04 
L 517.812936 -95.04 
L 520.847949 -95.04 
L 523.882961 -95.04 
L 526.917974 -95.04 
L 529.952986 -95.04 
L 532.987999 -95.04 
L 536.023012 -95.04 
L 539.058024 -95.04 
L 542.093037 -95.04 
L 545.128049 -95.04 
L 548.163062 -95.04 
L 551.198074 -95.04 
L 554.233087 -95.04 
L 557.2681 -95.04 
L 560.303112 -95.04 
L 563.338125 -95.04 
L 566.373137 -95.04 
L 569.40815 -95.04 
L 572.443163 -95.04 
L 575.478175 -95.04 
L 578.513188 -95.04 
L 581.5482 -95.04 
L 584.583213 -95.04 
L 587.618225 -95.04 
L 590.653238 -95.04 
L 593.688251 -95.04 
L 596.723263 -95.04 
L 599.758276 -95.04 
L 602.793288 -95.04 
L 605.828301 -95.04 
L 608.863313 -95.04 
L 611.898326 -95.04 
L 614.933339 -95.04 
L 617.968351 -95.04 
L 621.003364 -95.04 
L 624.038376 -95.04 
L 627.073389 -95.04 
L 630.108402 -95.04 
L 633.143414 -95.04 
L 636.178427 -95.04 
L 639.213439 -95.04 
L 642.248452 -95.04 
L 645.283464 -95.04 
L 648.318477 -95.04 
L 651.35349 -95.04 
L 654.388502 -95.04 
L 657.423515 -95.04 
L 660.458527 -95.04 
L 663.49354 -95.04 
L 666.528552 -95.04 
L 669.563565 -95.04 
L 672.598578 -95.04 
L 675.63359 -95.04 
L 678.668603 -95.04 
L 681.703615 -95.04 
L 684.738628 -95.04 
L 687.773641 -95.04 
L 690.808653 -95.04 
L 693.843666 -95.04 
L 696.878678 -95.04 
L 699.913691 -95.04 
L 702.948703 -95.04 
L 705.983716 -95.04 
L 709.018729 -95.04 
L 712.053741 -95.04 
L 715.088754 -95.04 
L 718.123766 -95.04 
L 721.158779 -95.04 
L 724.193791 -95.04 
L 727.228804 -95.04 
L 730.263817 -95.04 
L 733.298829 -95.04 
L 736.333842 -95.04 
L 739.368854 -95.04 
L 742.403867 -95.04 
L 742.403867 -95.119773 
L 742.403867 -95.119773 
L 739.368854 -97.105952 
L 736.333842 -102.367877 
L 733.298829 -99.256322 
L 730.263817 -96.498254 
L 727.228804 -96.454754 
L 724.193791 -96.864735 
L 721.158779 -97.503689 
L 718.123766 -98.050162 
L 715.088754 -98.602679 
L 712.053741 -99.280832 
L 709.018729 -99.788458 
L 705.983716 -100.090794 
L 702.948703 -100.126788 
L 699.913691 -100.861788 
L 696.878678 -102.186314 
L 693.843666 -103.460181 
L 690.808653 -104.091165 
L 687.773641 -104.633833 
L 684.738628 -105.537938 
L 681.703615 -106.646235 
L 678.668603 -108.012564 
L 675.63359 -109.713723 
L 672.598578 -111.706027 
L 669.563565 -113.251823 
L 666.528552 -114.860054 
L 663.49354 -116.454907 
L 660.458527 -118.064111 
L 657.423515 -119.83649 
L 654.388502 -121.328964 
L 651.35349 -122.951355 
L 648.318477 -123.985142 
L 645.283464 -125.265895 
L 642.248452 -127.183864 
L 639.213439 -128.660728 
L 636.178427 -130.593068 
L 633.143414 -133.071988 
L 630.108402 -135.552494 
L 627.073389 -137.627158 
L 624.038376 -139.187407 
L 621.003364 -141.207774 
L 617.968351 -143.001746 
L 614.933339 -143.956551 
L 611.898326 -143.831994 
L 608.863313 -143.408775 
L 605.828301 -144.081335 
L 602.793288 -146.149279 
L 599.758276 -148.523107 
L 596.723263 -151.017765 
L 593.688251 -153.253876 
L 590.653238 -155.156524 
L 587.618225 -156.898922 
L 584.583213 -158.722023 
L 581.5482 -161.346343 
L 578.513188 -163.872783 
L 575.478175 -166.007421 
L 572.443163 -169.179861 
L 569.40815 -171.027391 
L 566.373137 -172.517039 
L 563.338125 -174.757172 
L 560.303112 -177.819341 
L 557.2681 -180.322166 
L 554.233087 -181.719211 
L 551.198074 -183.243889 
L 548.163062 -184.480983 
L 545.128049 -185.318831 
L 542.093037 -185.20123 
L 539.058024 -185.559987 
L 536.023012 -189.046662 
L 532.987999 -192.886217 
L 529.952986 -195.133782 
L 526.917974 -196.144966 
L 523.882961 -197.824596 
L 520.847949 -200.116801 
L 517.812936 -199.102443 
L 514.777924 -197.164999 
L 511.742911 -195.115261 
L 508.707898 -192.516105 
L 505.672886 -190.860812 
L 502.637873 -191.322365 
L 499.602861 -193.826603 
L 496.567848 -195.392876 
L 493.532835 -196.8819 
L 490.497823 -204.325821 
L 487.46281 -214.773063 
L 484.427798 -224.762097 
L 481.392785 -235.289318 
L 478.357773 -247.692022 
L 475.32276 -264.955329 
L 472.287747 -283.485215 
L 469.252735 -303.162634 
L 466.217722 -316.708521 
L 463.18271 -329.246748 
L 460.147697 -347.515817 
L 457.112684 -368.9327 
L 454.077672 -397.22013 
L 451.042659 -428.309155 
L 448.007647 -460.108405 
L 444.972634 -493.312936 
L 441.937622 -523.291162 
L 438.902609 -548.067825 
L 435.867596 -566.767432 
L 432.832584 -583.196054 
L 429.797571 -603.014895 
L 426.762559 -621.075859 
L 423.727546 -636.183421 
L 420.692534 -655.886424 
L 417.657521 -671.882605 
L 414.622508 -682.786443 
L 411.587496 -695.779111 
L 408.552483 -708.256253 
L 405.517471 -710.122598 
L 402.482458 -706.863081 
L 399.447445 -703.596964 
L 396.412433 -708.501484 
L 393.37742 -713.165727 
L 390.342408 -717.226774 
L 387.307395 -723.333974 
L 384.272383 -721.820157 
L 381.23737 -717.30432 
L 378.202357 -714.390084 
L 375.167345 -715.658489 
L 372.132332 -718.755518 
L 369.09732 -721.827863 
L 366.062307 -724.282843 
L 363.027295 -727.69581 
L 359.992282 -723.929807 
L 356.957269 -713.174219 
L 353.922257 -699.161953 
L 350.887244 -682.734453 
L 347.852232 -671.445877 
L 344.817219 -652.376624 
L 341.782206 -631.696228 
L 338.747194 -615.674668 
L 335.712181 -596.917925 
L 332.677169 -572.605838 
L 329.642156 -549.501443 
L 326.607144 -525.018107 
L 323.572131 -502.269196 
L 320.537118 -481.051583 
L 317.502106 -460.422893 
L 314.467093 -442.84423 
L 311.432081 -427.707408 
L 308.397068 -418.145333 
L 305.362056 -409.86992 
L 302.327043 -397.545625 
L 299.29203 -382.637885 
L 296.257018 -362.931579 
L 293.222005 -343.283118 
L 290.186993 -324.531105 
L 287.15198 -305.168612 
L 284.116967 -287.876106 
L 281.081955 -270.910034 
L 278.046942 -257.884357 
L 275.01193 -249.529699 
L 271.976917 -240.988674 
L 268.941905 -230.483671 
L 265.906892 -221.639804 
L 262.871879 -213.645499 
L 259.836867 -205.123345 
L 256.801854 -197.113909 
L 253.766842 -188.638842 
L 250.731829 -179.369822 
L 247.696817 -171.357379 
L 244.661804 -164.756469 
L 241.626791 -159.164925 
L 238.591779 -152.398594 
L 235.556766 -143.551984 
L 232.521754 -135.933837 
L 229.486741 -130.537346 
L 226.451728 -124.835407 
L 223.416716 -119.085027 
L 220.381703 -114.949291 
L 217.346691 -112.516329 
L 214.311678 -109.845605 
L 211.276666 -107.248837 
L 208.241653 -104.926737 
L 205.20664 -104.038195 
L 202.171628 -104.842537 
L 199.136615 -104.788493 
L 196.101603 -102.922208 
L 193.06659 -100.524031 
L 190.031577 -98.359707 
L 186.996565 -96.780285 
L 183.961552 -95.992405 
L 180.92654 -96.067534 
L 177.891527 -96.656449 
L 174.856515 -96.523184 
L 171.821502 -95.821144 
L 168.786489 -95.499801 
L 165.751477 -95.539459 
L 162.716464 -96.296182 
L 159.681452 -97.259881 
L 156.646439 -96.457082 
L 153.611427 -95.361642 
L 150.576414 -95.084377 
L 147.541401 -95.045841 
L 144.506389 -95.040895 
L 141.471376 -95.040108 
L 138.436364 -95.040003 
z
" style="stroke: #ff0000; stroke-width: 3"/>
    </defs>
    <g clip-path="url(#p0bdc1a8c69)">
     <use xlink:href="#m6a7a5b75d5" x="0" y="864" style="fill: #ff0000; fill-opacity: 0.25; stroke: #ff0000; stroke-width: 3"/>
    </g>
   </g>
   <g id="PolyCollection_3">
    <defs>
     <path id="mebc11f1d3b" d="M 143.667805 -95.040043 
L 143.667805 -95.04 
L 146.700448 -95.04 
L 149.73309 -95.04 
L 152.765732 -95.04 
L 155.798375 -95.04 
L 158.831017 -95.04 
L 161.86366 -95.04 
L 164.896302 -95.04 
L 167.928944 -95.04 
L 170.961587 -95.04 
L 173.994229 -95.04 
L 177.026871 -95.04 
L 180.059514 -95.04 
L 183.092156 -95.04 
L 186.124798 -95.04 
L 189.157441 -95.04 
L 192.190083 -95.04 
L 195.222726 -95.04 
L 198.255368 -95.04 
L 201.28801 -95.04 
L 204.320653 -95.04 
L 207.353295 -95.04 
L 210.385937 -95.04 
L 213.41858 -95.04 
L 216.451222 -95.04 
L 219.483864 -95.04 
L 222.516507 -95.04 
L 225.549149 -95.04 
L 228.581792 -95.04 
L 231.614434 -95.04 
L 234.647076 -95.04 
L 237.679719 -95.04 
L 240.712361 -95.04 
L 243.745003 -95.04 
L 246.777646 -95.04 
L 249.810288 -95.04 
L 252.842931 -95.04 
L 255.875573 -95.04 
L 258.908215 -95.04 
L 261.940858 -95.04 
L 264.9735 -95.04 
L 268.006142 -95.04 
L 271.038785 -95.04 
L 274.071427 -95.04 
L 277.104069 -95.04 
L 280.136712 -95.04 
L 283.169354 -95.04 
L 286.201997 -95.04 
L 289.234639 -95.04 
L 292.267281 -95.04 
L 295.299924 -95.04 
L 298.332566 -95.04 
L 301.365208 -95.04 
L 304.397851 -95.04 
L 307.430493 -95.04 
L 310.463136 -95.04 
L 313.495778 -95.04 
L 316.52842 -95.04 
L 319.561063 -95.04 
L 322.593705 -95.04 
L 325.626347 -95.04 
L 328.65899 -95.04 
L 331.691632 -95.04 
L 334.724274 -95.04 
L 337.756917 -95.04 
L 340.789559 -95.04 
L 343.822202 -95.04 
L 346.854844 -95.04 
L 349.887486 -95.04 
L 352.920129 -95.04 
L 355.952771 -95.04 
L 358.985413 -95.04 
L 362.018056 -95.04 
L 365.050698 -95.04 
L 368.08334 -95.04 
L 371.115983 -95.04 
L 374.148625 -95.04 
L 377.181268 -95.04 
L 380.21391 -95.04 
L 383.246552 -95.04 
L 386.279195 -95.04 
L 389.311837 -95.04 
L 392.344479 -95.04 
L 395.377122 -95.04 
L 398.409764 -95.04 
L 401.442407 -95.04 
L 404.475049 -95.04 
L 407.507691 -95.04 
L 410.540334 -95.04 
L 413.572976 -95.04 
L 416.605618 -95.04 
L 419.638261 -95.04 
L 422.670903 -95.04 
L 425.703545 -95.04 
L 428.736188 -95.04 
L 431.76883 -95.04 
L 434.801473 -95.04 
L 437.834115 -95.04 
L 440.866757 -95.04 
L 443.8994 -95.04 
L 446.932042 -95.04 
L 449.964684 -95.04 
L 452.997327 -95.04 
L 456.029969 -95.04 
L 459.062611 -95.04 
L 462.095254 -95.04 
L 465.127896 -95.04 
L 468.160539 -95.04 
L 471.193181 -95.04 
L 474.225823 -95.04 
L 477.258466 -95.04 
L 480.291108 -95.04 
L 483.32375 -95.04 
L 486.356393 -95.04 
L 489.389035 -95.04 
L 492.421678 -95.04 
L 495.45432 -95.04 
L 498.486962 -95.04 
L 501.519605 -95.04 
L 504.552247 -95.04 
L 507.584889 -95.04 
L 510.617532 -95.04 
L 513.650174 -95.04 
L 516.682816 -95.04 
L 519.715459 -95.04 
L 522.748101 -95.04 
L 525.780744 -95.04 
L 528.813386 -95.04 
L 531.846028 -95.04 
L 534.878671 -95.04 
L 537.911313 -95.04 
L 540.943955 -95.04 
L 543.976598 -95.04 
L 547.00924 -95.04 
L 550.041883 -95.04 
L 553.074525 -95.04 
L 556.107167 -95.04 
L 559.13981 -95.04 
L 562.172452 -95.04 
L 565.205094 -95.04 
L 568.237737 -95.04 
L 571.270379 -95.04 
L 574.303021 -95.04 
L 577.335664 -95.04 
L 580.368306 -95.04 
L 583.400949 -95.04 
L 586.433591 -95.04 
L 589.466233 -95.04 
L 592.498876 -95.04 
L 595.531518 -95.04 
L 598.56416 -95.04 
L 601.596803 -95.04 
L 604.629445 -95.04 
L 607.662087 -95.04 
L 610.69473 -95.04 
L 613.727372 -95.04 
L 616.760015 -95.04 
L 619.792657 -95.04 
L 622.825299 -95.04 
L 625.857942 -95.04 
L 628.890584 -95.04 
L 631.923226 -95.04 
L 634.955869 -95.04 
L 637.988511 -95.04 
L 641.021154 -95.04 
L 644.053796 -95.04 
L 647.086438 -95.04 
L 650.119081 -95.04 
L 653.151723 -95.04 
L 656.184365 -95.04 
L 659.217008 -95.04 
L 662.24965 -95.04 
L 665.282292 -95.04 
L 668.314935 -95.04 
L 671.347577 -95.04 
L 674.38022 -95.04 
L 677.412862 -95.04 
L 680.445504 -95.04 
L 683.478147 -95.04 
L 686.510789 -95.04 
L 689.543431 -95.04 
L 692.576074 -95.04 
L 695.608716 -95.04 
L 698.641358 -95.04 
L 701.674001 -95.04 
L 704.706643 -95.04 
L 707.739286 -95.04 
L 710.771928 -95.04 
L 713.80457 -95.04 
L 716.837213 -95.04 
L 719.869855 -95.04 
L 722.902497 -95.04 
L 725.93514 -95.04 
L 728.967782 -95.04 
L 732.000425 -95.04 
L 735.033067 -95.04 
L 738.065709 -95.04 
L 741.098352 -95.04 
L 744.130994 -95.04 
L 747.163636 -95.04 
L 747.163636 -95.083333 
L 747.163636 -95.083333 
L 744.130994 -95.399252 
L 741.098352 -96.584044 
L 738.065709 -98.508081 
L 735.033067 -99.218736 
L 732.000425 -98.024077 
L 728.967782 -96.842075 
L 725.93514 -96.637355 
L 722.902497 -96.95799 
L 719.869855 -97.418107 
L 716.837213 -97.93338 
L 713.80457 -98.512933 
L 710.771928 -99.079764 
L 707.739286 -99.554849 
L 704.706643 -100.045583 
L 701.674001 -100.648063 
L 698.641358 -101.43778 
L 695.608716 -102.460803 
L 692.576074 -103.471552 
L 689.543431 -104.268736 
L 686.510789 -105.104739 
L 683.478147 -106.190614 
L 680.445504 -107.331629 
L 677.412862 -108.405721 
L 674.38022 -109.603622 
L 671.347577 -110.978323 
L 668.314935 -112.459299 
L 665.282292 -114.060969 
L 662.24965 -115.839022 
L 659.217008 -117.789467 
L 656.184365 -119.560772 
L 653.151723 -120.785531 
L 650.119081 -121.676082 
L 647.086438 -122.692888 
L 644.053796 -123.93673 
L 641.021154 -125.23456 
L 637.988511 -126.630173 
L 634.955869 -128.216377 
L 631.923226 -129.816117 
L 628.890584 -131.269868 
L 625.857942 -132.725912 
L 622.825299 -134.391197 
L 619.792657 -136.007893 
L 616.760015 -137.188508 
L 613.727372 -137.957609 
L 610.69473 -138.592303 
L 607.662087 -139.273524 
L 604.629445 -140.447099 
L 601.596803 -142.507064 
L 598.56416 -145.220184 
L 595.531518 -147.980853 
L 592.498876 -150.231427 
L 589.466233 -151.968004 
L 586.433591 -153.661953 
L 583.400949 -155.464859 
L 580.368306 -157.207287 
L 577.335664 -159.089201 
L 574.303021 -161.547959 
L 571.270379 -164.394471 
L 568.237737 -166.898899 
L 565.205094 -169.155831 
L 562.172452 -171.925224 
L 559.13981 -175.032042 
L 556.107167 -177.638479 
L 553.074525 -179.534453 
L 550.041883 -181.006013 
L 547.00924 -182.563747 
L 543.976598 -184.355705 
L 540.943955 -185.918917 
L 537.911313 -187.529091 
L 534.878671 -190.04897 
L 531.846028 -193.404714 
L 528.813386 -196.606964 
L 525.780744 -199.197812 
L 522.748101 -200.956984 
L 519.715459 -200.698931 
L 516.682816 -197.703412 
L 513.650174 -193.499864 
L 510.617532 -190.246153 
L 507.584889 -189.020832 
L 504.552247 -189.787639 
L 501.519605 -191.736886 
L 498.486962 -194.224425 
L 495.45432 -197.979021 
L 492.421678 -204.60782 
L 489.389035 -214.207804 
L 486.356393 -224.61892 
L 483.32375 -233.764976 
L 480.291108 -242.142309 
L 477.258466 -251.966574 
L 474.225823 -265.388206 
L 471.193181 -282.899194 
L 468.160539 -301.457044 
L 465.127896 -317.691476 
L 462.095254 -332.756926 
L 459.062611 -349.963229 
L 456.029969 -371.264148 
L 452.997327 -397.054055 
L 449.964684 -426.016379 
L 446.932042 -456.325014 
L 443.8994 -486.398667 
L 440.866757 -513.876323 
L 437.834115 -536.307894 
L 434.801473 -553.843332 
L 431.76883 -569.43763 
L 428.736188 -586.065583 
L 425.703545 -603.147949 
L 422.670903 -618.24699 
L 419.638261 -631.17299 
L 416.605618 -642.763206 
L 413.572976 -654.050051 
L 410.540334 -665.103549 
L 407.507691 -672.246791 
L 404.475049 -673.185195 
L 401.442407 -672.073381 
L 398.409764 -673.601562 
L 395.377122 -678.165693 
L 392.344479 -684.962684 
L 389.311837 -693.2132 
L 386.279195 -699.454311 
L 383.246552 -701.276539 
L 380.21391 -700.953989 
L 377.181268 -701.646871 
L 374.148625 -704.452387 
L 371.115983 -708.678517 
L 368.08334 -713.888425 
L 365.050698 -720.430701 
L 362.018056 -726.358888 
L 358.985413 -728.64 
L 355.952771 -726.665988 
L 352.920129 -721.169868 
L 349.887486 -712.355989 
L 346.854844 -699.437886 
L 343.822202 -682.764385 
L 340.789559 -664.197074 
L 337.756917 -644.125891 
L 334.724274 -621.956098 
L 331.691632 -598.364658 
L 328.65899 -574.487497 
L 325.626347 -550.281691 
L 322.593705 -526.182056 
L 319.561063 -502.994253 
L 316.52842 -479.740517 
L 313.495778 -456.862425 
L 310.463136 -437.873593 
L 307.430493 -424.078228 
L 304.397851 -411.709419 
L 301.365208 -396.006565 
L 298.332566 -376.877007 
L 295.299924 -358.194062 
L 292.267281 -342.846696 
L 289.234639 -331.246322 
L 286.201997 -321.816026 
L 283.169354 -312.250337 
L 280.136712 -302.220239 
L 277.104069 -292.026276 
L 274.071427 -280.052901 
L 271.038785 -265.509821 
L 268.006142 -250.123257 
L 264.9735 -236.001895 
L 261.940858 -223.885882 
L 258.908215 -213.093893 
L 255.875573 -203.054647 
L 252.842931 -194.34665 
L 249.810288 -186.987667 
L 246.777646 -179.246806 
L 243.745003 -169.694501 
L 240.712361 -159.034849 
L 237.679719 -149.249722 
L 234.647076 -141.228715 
L 231.614434 -134.837427 
L 228.581792 -130.210231 
L 225.549149 -127.059594 
L 222.516507 -124.130103 
L 219.483864 -120.062665 
L 216.451222 -114.789021 
L 213.41858 -109.718213 
L 210.385937 -106.339657 
L 207.353295 -105.264911 
L 204.320653 -105.872595 
L 201.28801 -106.470725 
L 198.255368 -105.797815 
L 195.222726 -103.893489 
L 192.190083 -101.603659 
L 189.157441 -99.941781 
L 186.124798 -99.282235 
L 183.092156 -99.118686 
L 180.059514 -98.828077 
L 177.026871 -98.238165 
L 173.994229 -97.47142 
L 170.961587 -96.72604 
L 167.928944 -96.118016 
L 164.896302 -95.64621 
L 161.86366 -95.328594 
L 158.831017 -95.158939 
L 155.798375 -95.083481 
L 152.765732 -95.053429 
L 149.73309 -95.043095 
L 146.700448 -95.040469 
L 143.667805 -95.040043 
z
" style="stroke: #008000; stroke-width: 3"/>
    </defs>
    <g clip-path="url(#p0bdc1a8c69)">
     <use xlink:href="#mebc11f1d3b" x="0" y="864" style="fill: #008000; fill-opacity: 0.25; stroke: #008000; stroke-width: 3"/>
    </g>
   </g>
   <g id="matplotlib.axis_1">
    <g id="xtick_1">
     <g id="line2d_1">
      <defs>
       <path id="me38f6752e1" d="M 0 0 
L 0 3.5 
" style="stroke: #000000; stroke-width: 0.8"/>
      </defs>
      <g>
       <use xlink:href="#me38f6752e1" x="139.098761" y="768.96" style="stroke: #000000; stroke-width: 0.8"/>
      </g>
     </g>
     <g id="text_1">
      <!-- 0.0 -->
      <g transform="translate(131.147198 783.558437)scale(0.1 -0.1)">
       <defs>
        <path id="DejaVuSans-30" d="M 2034 4250 
Q 1547 4250 1301 3770 
Q 1056 3291 1056 2328 
Q 1056 1369 1301 889 
Q 1547 409 2034 409 
Q 2525 409 2770 889 
Q 3016 1369 3016 2328 
Q 3016 3291 2770 3770 
Q 2525 4250 2034 4250 
z
M 2034 4750 
Q 2819 4750 3233 4129 
Q 3647 3509 3647 2328 
Q 3647 1150 3233 529 
Q 2819 -91 2034 -91 
Q 1250 -91 836 529 
Q 422 1150 422 2328 
Q 422 3509 836 4129 
Q 1250 4750 2034 4750 
z
" transform="scale(0.015625)"/>
        <path id="DejaVuSans-2e" d="M 684 794 
L 1344 794 
L 1344 0 
L 684 0 
L 684 794 
z
" transform="scale(0.015625)"/>
       </defs>
       <use xlink:href="#DejaVuSans-30"/>
       <use xlink:href="#DejaVuSans-2e" x="63.623047"/>
       <use xlink:href="#DejaVuSans-30" x="95.410156"/>
      </g>
     </g>
    </g>
    <g id="xtick_2">
     <g id="line2d_2">
      <g>
       <use xlink:href="#me38f6752e1" x="258.475756" y="768.96" style="stroke: #000000; stroke-width: 0.8"/>
      </g>
     </g>
     <g id="text_2">
      <!-- 0.2 -->
      <g transform="translate(250.524194 783.558437)scale(0.1 -0.1)">
       <defs>
        <path id="DejaVuSans-32" d="M 1228 531 
L 3431 531 
L 3431 0 
L 469 0 
L 469 531 
Q 828 903 1448 1529 
Q 2069 2156 2228 2338 
Q 2531 2678 2651 2914 
Q 2772 3150 2772 3378 
Q 2772 3750 2511 3984 
Q 2250 4219 1831 4219 
Q 1534 4219 1204 4116 
Q 875 4013 500 3803 
L 500 4441 
Q 881 4594 1212 4672 
Q 1544 4750 1819 4750 
Q 2544 4750 2975 4387 
Q 3406 4025 3406 3419 
Q 3406 3131 3298 2873 
Q 3191 2616 2906 2266 
Q 2828 2175 2409 1742 
Q 1991 1309 1228 531 
z
" transform="scale(0.015625)"/>
       </defs>
       <use xlink:href="#DejaVuSans-30"/>
       <use xlink:href="#DejaVuSans-2e" x="63.623047"/>
       <use xlink:href="#DejaVuSans-32" x="95.410156"/>
      </g>
     </g>
    </g>
    <g id="xtick_3">
     <g id="line2d_3">
      <g>
       <use xlink:href="#me38f6752e1" x="377.852751" y="768.96" style="stroke: #000000; stroke-width: 0.8"/>
      </g>
     </g>
     <g id="text_3">
      <!-- 0.4 -->
      <g transform="translate(369.901189 783.558437)scale(0.1 -0.1)">
       <defs>
        <path id="DejaVuSans-34" d="M 2419 4116 
L 825 1625 
L 2419 1625 
L 2419 4116 
z
M 2253 4666 
L 3047 4666 
L 3047 1625 
L 3713 1625 
L 3713 1100 
L 3047 1100 
L 3047 0 
L 2419 0 
L 2419 1100 
L 313 1100 
L 313 1709 
L 2253 4666 
z
" transform="scale(0.015625)"/>
       </defs>
       <use xlink:href="#DejaVuSans-30"/>
       <use xlink:href="#DejaVuSans-2e" x="63.623047"/>
       <use xlink:href="#DejaVuSans-34" x="95.410156"/>
      </g>
     </g>
    </g>
    <g id="xtick_4">
     <g id="line2d_4">
      <g>
       <use xlink:href="#me38f6752e1" x="497.229746" y="768.96" style="stroke: #000000; stroke-width: 0.8"/>
      </g>
     </g>
     <g id="text_4">
      <!-- 0.6 -->
      <g transform="translate(489.278184 783.558437)scale(0.1 -0.1)">
       <defs>
        <path id="DejaVuSans-36" d="M 2113 2584 
Q 1688 2584 1439 2293 
Q 1191 2003 1191 1497 
Q 1191 994 1439 701 
Q 1688 409 2113 409 
Q 2538 409 2786 701 
Q 3034 994 3034 1497 
Q 3034 2003 2786 2293 
Q 2538 2584 2113 2584 
z
M 3366 4563 
L 3366 3988 
Q 3128 4100 2886 4159 
Q 2644 4219 2406 4219 
Q 1781 4219 1451 3797 
Q 1122 3375 1075 2522 
Q 1259 2794 1537 2939 
Q 1816 3084 2150 3084 
Q 2853 3084 3261 2657 
Q 3669 2231 3669 1497 
Q 3669 778 3244 343 
Q 2819 -91 2113 -91 
Q 1303 -91 875 529 
Q 447 1150 447 2328 
Q 447 3434 972 4092 
Q 1497 4750 2381 4750 
Q 2619 4750 2861 4703 
Q 3103 4656 3366 4563 
z
" transform="scale(0.015625)"/>
       </defs>
       <use xlink:href="#DejaVuSans-30"/>
       <use xlink:href="#DejaVuSans-2e" x="63.623047"/>
       <use xlink:href="#DejaVuSans-36" x="95.410156"/>
      </g>
     </g>
    </g>
    <g id="xtick_5">
     <g id="line2d_5">
      <g>
       <use xlink:href="#me38f6752e1" x="616.606742" y="768.96" style="stroke: #000000; stroke-width: 0.8"/>
      </g>
     </g>
     <g id="text_5">
      <!-- 0.8 -->
      <g transform="translate(608.655179 783.558437)scale(0.1 -0.1)">
       <defs>
        <path id="DejaVuSans-38" d="M 2034 2216 
Q 1584 2216 1326 1975 
Q 1069 1734 1069 1313 
Q 1069 891 1326 650 
Q 1584 409 2034 409 
Q 2484 409 2743 651 
Q 3003 894 3003 1313 
Q 3003 1734 2745 1975 
Q 2488 2216 2034 2216 
z
M 1403 2484 
Q 997 2584 770 2862 
Q 544 3141 544 3541 
Q 544 4100 942 4425 
Q 1341 4750 2034 4750 
Q 2731 4750 3128 4425 
Q 3525 4100 3525 3541 
Q 3525 3141 3298 2862 
Q 3072 2584 2669 2484 
Q 3125 2378 3379 2068 
Q 3634 1759 3634 1313 
Q 3634 634 3220 271 
Q 2806 -91 2034 -91 
Q 1263 -91 848 271 
Q 434 634 434 1313 
Q 434 1759 690 2068 
Q 947 2378 1403 2484 
z
M 1172 3481 
Q 1172 3119 1398 2916 
Q 1625 2713 2034 2713 
Q 2441 2713 2670 2916 
Q 2900 3119 2900 3481 
Q 2900 3844 2670 4047 
Q 2441 4250 2034 4250 
Q 1625 4250 1398 4047 
Q 1172 3844 1172 3481 
z
" transform="scale(0.015625)"/>
       </defs>
       <use xlink:href="#DejaVuSans-30"/>
       <use xlink:href="#DejaVuSans-2e" x="63.623047"/>
       <use xlink:href="#DejaVuSans-38" x="95.410156"/>
      </g>
     </g>
    </g>
    <g id="xtick_6">
     <g id="line2d_6">
      <g>
       <use xlink:href="#me38f6752e1" x="735.983737" y="768.96" style="stroke: #000000; stroke-width: 0.8"/>
      </g>
     </g>
     <g id="text_6">
      <!-- 1.0 -->
      <g transform="translate(728.032174 783.558437)scale(0.1 -0.1)">
       <defs>
        <path id="DejaVuSans-31" d="M 794 531 
L 1825 531 
L 1825 4091 
L 703 3866 
L 703 4441 
L 1819 4666 
L 2450 4666 
L 2450 531 
L 3481 531 
L 3481 0 
L 794 0 
L 794 531 
z
" transform="scale(0.015625)"/>
       </defs>
       <use xlink:href="#DejaVuSans-31"/>
       <use xlink:href="#DejaVuSans-2e" x="63.623047"/>
       <use xlink:href="#DejaVuSans-30" x="95.410156"/>
      </g>
     </g>
    </g>
    <g id="text_7">
     <!-- Similarity -->
     <g transform="translate(404.97625 801.795625)scale(0.16 -0.16)">
      <defs>
       <path id="DejaVuSans-53" d="M 3425 4513 
L 3425 3897 
Q 3066 4069 2747 4153 
Q 2428 4238 2131 4238 
Q 1616 4238 1336 4038 
Q 1056 3838 1056 3469 
Q 1056 3159 1242 3001 
Q 1428 2844 1947 2747 
L 2328 2669 
Q 3034 2534 3370 2195 
Q 3706 1856 3706 1288 
Q 3706 609 3251 259 
Q 2797 -91 1919 -91 
Q 1588 -91 1214 -16 
Q 841 59 441 206 
L 441 856 
Q 825 641 1194 531 
Q 1563 422 1919 422 
Q 2459 422 2753 634 
Q 3047 847 3047 1241 
Q 3047 1584 2836 1778 
Q 2625 1972 2144 2069 
L 1759 2144 
Q 1053 2284 737 2584 
Q 422 2884 422 3419 
Q 422 4038 858 4394 
Q 1294 4750 2059 4750 
Q 2388 4750 2728 4690 
Q 3069 4631 3425 4513 
z
" transform="scale(0.015625)"/>
       <path id="DejaVuSans-69" d="M 603 3500 
L 1178 3500 
L 1178 0 
L 603 0 
L 603 3500 
z
M 603 4863 
L 1178 4863 
L 1178 4134 
L 603 4134 
L 603 4863 
z
" transform="scale(0.015625)"/>
       <path id="DejaVuSans-6d" d="M 3328 2828 
Q 3544 3216 3844 3400 
Q 4144 3584 4550 3584 
Q 5097 3584 5394 3201 
Q 5691 2819 5691 2113 
L 5691 0 
L 5113 0 
L 5113 2094 
Q 5113 2597 4934 2840 
Q 4756 3084 4391 3084 
Q 3944 3084 3684 2787 
Q 3425 2491 3425 1978 
L 3425 0 
L 2847 0 
L 2847 2094 
Q 2847 2600 2669 2842 
Q 2491 3084 2119 3084 
Q 1678 3084 1418 2786 
Q 1159 2488 1159 1978 
L 1159 0 
L 581 0 
L 581 3500 
L 1159 3500 
L 1159 2956 
Q 1356 3278 1631 3431 
Q 1906 3584 2284 3584 
Q 2666 3584 2933 3390 
Q 3200 3197 3328 2828 
z
" transform="scale(0.015625)"/>
       <path id="DejaVuSans-6c" d="M 603 4863 
L 1178 4863 
L 1178 0 
L 603 0 
L 603 4863 
z
" transform="scale(0.015625)"/>
       <path id="DejaVuSans-61" d="M 2194 1759 
Q 1497 1759 1228 1600 
Q 959 1441 959 1056 
Q 959 750 1161 570 
Q 1363 391 1709 391 
Q 2188 391 2477 730 
Q 2766 1069 2766 1631 
L 2766 1759 
L 2194 1759 
z
M 3341 1997 
L 3341 0 
L 2766 0 
L 2766 531 
Q 2569 213 2275 61 
Q 1981 -91 1556 -91 
Q 1019 -91 701 211 
Q 384 513 384 1019 
Q 384 1609 779 1909 
Q 1175 2209 1959 2209 
L 2766 2209 
L 2766 2266 
Q 2766 2663 2505 2880 
Q 2244 3097 1772 3097 
Q 1472 3097 1187 3025 
Q 903 2953 641 2809 
L 641 3341 
Q 956 3463 1253 3523 
Q 1550 3584 1831 3584 
Q 2591 3584 2966 3190 
Q 3341 2797 3341 1997 
z
" transform="scale(0.015625)"/>
       <path id="DejaVuSans-72" d="M 2631 2963 
Q 2534 3019 2420 3045 
Q 2306 3072 2169 3072 
Q 1681 3072 1420 2755 
Q 1159 2438 1159 1844 
L 1159 0 
L 581 0 
L 581 3500 
L 1159 3500 
L 1159 2956 
Q 1341 3275 1631 3429 
Q 1922 3584 2338 3584 
Q 2397 3584 2469 3576 
Q 2541 3569 2628 3553 
L 2631 2963 
z
" transform="scale(0.015625)"/>
       <path id="DejaVuSans-74" d="M 1172 4494 
L 1172 3500 
L 2356 3500 
L 2356 3053 
L 1172 3053 
L 1172 1153 
Q 1172 725 1289 603 
Q 1406 481 1766 481 
L 2356 481 
L 2356 0 
L 1766 0 
Q 1100 0 847 248 
Q 594 497 594 1153 
L 594 3053 
L 172 3053 
L 172 3500 
L 594 3500 
L 594 4494 
L 1172 4494 
z
" transform="scale(0.015625)"/>
       <path id="DejaVuSans-79" d="M 2059 -325 
Q 1816 -950 1584 -1140 
Q 1353 -1331 966 -1331 
L 506 -1331 
L 506 -850 
L 844 -850 
Q 1081 -850 1212 -737 
Q 1344 -625 1503 -206 
L 1606 56 
L 191 3500 
L 800 3500 
L 1894 763 
L 2988 3500 
L 3597 3500 
L 2059 -325 
z
" transform="scale(0.015625)"/>
      </defs>
      <use xlink:href="#DejaVuSans-53"/>
      <use xlink:href="#DejaVuSans-69" x="63.476562"/>
      <use xlink:href="#DejaVuSans-6d" x="91.259766"/>
      <use xlink:href="#DejaVuSans-69" x="188.671875"/>
      <use xlink:href="#DejaVuSans-6c" x="216.455078"/>
      <use xlink:href="#DejaVuSans-61" x="244.238281"/>
      <use xlink:href="#DejaVuSans-72" x="305.517578"/>
      <use xlink:href="#DejaVuSans-69" x="346.630859"/>
      <use xlink:href="#DejaVuSans-74" x="374.414062"/>
      <use xlink:href="#DejaVuSans-79" x="413.623047"/>
     </g>
    </g>
   </g>
   <g id="matplotlib.axis_2">
    <g id="ytick_1">
     <g id="line2d_7">
      <defs>
       <path id="mdf406752de" d="M 0 0 
L -3.5 0 
" style="stroke: #000000; stroke-width: 0.8"/>
      </defs>
      <g>
       <use xlink:href="#mdf406752de" x="108" y="768.96" style="stroke: #000000; stroke-width: 0.8"/>
      </g>
     </g>
     <g id="text_8">
      <!-- 0.0 -->
      <g transform="translate(85.096875 772.759219)scale(0.1 -0.1)">
       <use xlink:href="#DejaVuSans-30"/>
       <use xlink:href="#DejaVuSans-2e" x="63.623047"/>
       <use xlink:href="#DejaVuSans-30" x="95.410156"/>
      </g>
     </g>
    </g>
    <g id="ytick_2">
     <g id="line2d_8">
      <g>
       <use xlink:href="#mdf406752de" x="108" y="677.380486" style="stroke: #000000; stroke-width: 0.8"/>
      </g>
     </g>
     <g id="text_9">
      <!-- 0.5 -->
      <g transform="translate(85.096875 681.179704)scale(0.1 -0.1)">
       <defs>
        <path id="DejaVuSans-35" d="M 691 4666 
L 3169 4666 
L 3169 4134 
L 1269 4134 
L 1269 2991 
Q 1406 3038 1543 3061 
Q 1681 3084 1819 3084 
Q 2600 3084 3056 2656 
Q 3513 2228 3513 1497 
Q 3513 744 3044 326 
Q 2575 -91 1722 -91 
Q 1428 -91 1123 -41 
Q 819 9 494 109 
L 494 744 
Q 775 591 1075 516 
Q 1375 441 1709 441 
Q 2250 441 2565 725 
Q 2881 1009 2881 1497 
Q 2881 1984 2565 2268 
Q 2250 2553 1709 2553 
Q 1456 2553 1204 2497 
Q 953 2441 691 2322 
L 691 4666 
z
" transform="scale(0.015625)"/>
       </defs>
       <use xlink:href="#DejaVuSans-30"/>
       <use xlink:href="#DejaVuSans-2e" x="63.623047"/>
       <use xlink:href="#DejaVuSans-35" x="95.410156"/>
      </g>
     </g>
    </g>
    <g id="ytick_3">
     <g id="line2d_9">
      <g>
       <use xlink:href="#mdf406752de" x="108" y="585.800971" style="stroke: #000000; stroke-width: 0.8"/>
      </g>
     </g>
     <g id="text_10">
      <!-- 1.0 -->
      <g transform="translate(85.096875 589.60019)scale(0.1 -0.1)">
       <use xlink:href="#DejaVuSans-31"/>
       <use xlink:href="#DejaVuSans-2e" x="63.623047"/>
       <use xlink:href="#DejaVuSans-30" x="95.410156"/>
      </g>
     </g>
    </g>
    <g id="ytick_4">
     <g id="line2d_10">
      <g>
       <use xlink:href="#mdf406752de" x="108" y="494.221457" style="stroke: #000000; stroke-width: 0.8"/>
      </g>
     </g>
     <g id="text_11">
      <!-- 1.5 -->
      <g transform="translate(85.096875 498.020675)scale(0.1 -0.1)">
       <use xlink:href="#DejaVuSans-31"/>
       <use xlink:href="#DejaVuSans-2e" x="63.623047"/>
       <use xlink:href="#DejaVuSans-35" x="95.410156"/>
      </g>
     </g>
    </g>
    <g id="ytick_5">
     <g id="line2d_11">
      <g>
       <use xlink:href="#mdf406752de" x="108" y="402.641942" style="stroke: #000000; stroke-width: 0.8"/>
      </g>
     </g>
     <g id="text_12">
      <!-- 2.0 -->
      <g transform="translate(85.096875 406.441161)scale(0.1 -0.1)">
       <use xlink:href="#DejaVuSans-32"/>
       <use xlink:href="#DejaVuSans-2e" x="63.623047"/>
       <use xlink:href="#DejaVuSans-30" x="95.410156"/>
      </g>
     </g>
    </g>
    <g id="ytick_6">
     <g id="line2d_12">
      <g>
       <use xlink:href="#mdf406752de" x="108" y="311.062428" style="stroke: #000000; stroke-width: 0.8"/>
      </g>
     </g>
     <g id="text_13">
      <!-- 2.5 -->
      <g transform="translate(85.096875 314.861646)scale(0.1 -0.1)">
       <use xlink:href="#DejaVuSans-32"/>
       <use xlink:href="#DejaVuSans-2e" x="63.623047"/>
       <use xlink:href="#DejaVuSans-35" x="95.410156"/>
      </g>
     </g>
    </g>
    <g id="ytick_7">
     <g id="line2d_13">
      <g>
       <use xlink:href="#mdf406752de" x="108" y="219.482913" style="stroke: #000000; stroke-width: 0.8"/>
      </g>
     </g>
     <g id="text_14">
      <!-- 3.0 -->
      <g transform="translate(85.096875 223.282132)scale(0.1 -0.1)">
       <defs>
        <path id="DejaVuSans-33" d="M 2597 2516 
Q 3050 2419 3304 2112 
Q 3559 1806 3559 1356 
Q 3559 666 3084 287 
Q 2609 -91 1734 -91 
Q 1441 -91 1130 -33 
Q 819 25 488 141 
L 488 750 
Q 750 597 1062 519 
Q 1375 441 1716 441 
Q 2309 441 2620 675 
Q 2931 909 2931 1356 
Q 2931 1769 2642 2001 
Q 2353 2234 1838 2234 
L 1294 2234 
L 1294 2753 
L 1863 2753 
Q 2328 2753 2575 2939 
Q 2822 3125 2822 3475 
Q 2822 3834 2567 4026 
Q 2313 4219 1838 4219 
Q 1578 4219 1281 4162 
Q 984 4106 628 3988 
L 628 4550 
Q 988 4650 1302 4700 
Q 1616 4750 1894 4750 
Q 2613 4750 3031 4423 
Q 3450 4097 3450 3541 
Q 3450 3153 3228 2886 
Q 3006 2619 2597 2516 
z
" transform="scale(0.015625)"/>
       </defs>
       <use xlink:href="#DejaVuSans-33"/>
       <use xlink:href="#DejaVuSans-2e" x="63.623047"/>
       <use xlink:href="#DejaVuSans-30" x="95.410156"/>
      </g>
     </g>
    </g>
    <g id="ytick_8">
     <g id="line2d_14">
      <g>
       <use xlink:href="#mdf406752de" x="108" y="127.903399" style="stroke: #000000; stroke-width: 0.8"/>
      </g>
     </g>
     <g id="text_15">
      <!-- 3.5 -->
      <g transform="translate(85.096875 131.702617)scale(0.1 -0.1)">
       <use xlink:href="#DejaVuSans-33"/>
       <use xlink:href="#DejaVuSans-2e" x="63.623047"/>
       <use xlink:href="#DejaVuSans-35" x="95.410156"/>
      </g>
     </g>
    </g>
    <g id="text_16">
     <!-- Density -->
     <g transform="translate(77.769375 466.73375)rotate(-90)scale(0.16 -0.16)">
      <defs>
       <path id="DejaVuSans-44" d="M 1259 4147 
L 1259 519 
L 2022 519 
Q 2988 519 3436 956 
Q 3884 1394 3884 2338 
Q 3884 3275 3436 3711 
Q 2988 4147 2022 4147 
L 1259 4147 
z
M 628 4666 
L 1925 4666 
Q 3281 4666 3915 4102 
Q 4550 3538 4550 2338 
Q 4550 1131 3912 565 
Q 3275 0 1925 0 
L 628 0 
L 628 4666 
z
" transform="scale(0.015625)"/>
       <path id="DejaVuSans-65" d="M 3597 1894 
L 3597 1613 
L 953 1613 
Q 991 1019 1311 708 
Q 1631 397 2203 397 
Q 2534 397 2845 478 
Q 3156 559 3463 722 
L 3463 178 
Q 3153 47 2828 -22 
Q 2503 -91 2169 -91 
Q 1331 -91 842 396 
Q 353 884 353 1716 
Q 353 2575 817 3079 
Q 1281 3584 2069 3584 
Q 2775 3584 3186 3129 
Q 3597 2675 3597 1894 
z
M 3022 2063 
Q 3016 2534 2758 2815 
Q 2500 3097 2075 3097 
Q 1594 3097 1305 2825 
Q 1016 2553 972 2059 
L 3022 2063 
z
" transform="scale(0.015625)"/>
       <path id="DejaVuSans-6e" d="M 3513 2113 
L 3513 0 
L 2938 0 
L 2938 2094 
Q 2938 2591 2744 2837 
Q 2550 3084 2163 3084 
Q 1697 3084 1428 2787 
Q 1159 2491 1159 1978 
L 1159 0 
L 581 0 
L 581 3500 
L 1159 3500 
L 1159 2956 
Q 1366 3272 1645 3428 
Q 1925 3584 2291 3584 
Q 2894 3584 3203 3211 
Q 3513 2838 3513 2113 
z
" transform="scale(0.015625)"/>
       <path id="DejaVuSans-73" d="M 2834 3397 
L 2834 2853 
Q 2591 2978 2328 3040 
Q 2066 3103 1784 3103 
Q 1356 3103 1142 2972 
Q 928 2841 928 2578 
Q 928 2378 1081 2264 
Q 1234 2150 1697 2047 
L 1894 2003 
Q 2506 1872 2764 1633 
Q 3022 1394 3022 966 
Q 3022 478 2636 193 
Q 2250 -91 1575 -91 
Q 1294 -91 989 -36 
Q 684 19 347 128 
L 347 722 
Q 666 556 975 473 
Q 1284 391 1588 391 
Q 1994 391 2212 530 
Q 2431 669 2431 922 
Q 2431 1156 2273 1281 
Q 2116 1406 1581 1522 
L 1381 1569 
Q 847 1681 609 1914 
Q 372 2147 372 2553 
Q 372 3047 722 3315 
Q 1072 3584 1716 3584 
Q 2034 3584 2315 3537 
Q 2597 3491 2834 3397 
z
" transform="scale(0.015625)"/>
      </defs>
      <use xlink:href="#DejaVuSans-44"/>
      <use xlink:href="#DejaVuSans-65" x="77.001953"/>
      <use xlink:href="#DejaVuSans-6e" x="138.525391"/>
      <use xlink:href="#DejaVuSans-73" x="201.904297"/>
      <use xlink:href="#DejaVuSans-69" x="254.003906"/>
      <use xlink:href="#DejaVuSans-74" x="281.787109"/>
      <use xlink:href="#DejaVuSans-79" x="320.996094"/>
     </g>
    </g>
   </g>
   <g id="patch_3">
    <path d="M 108 768.96 
L 108 103.68 
" style="fill: none; stroke: #000000; stroke-width: 0.8; stroke-linejoin: miter; stroke-linecap: square"/>
   </g>
   <g id="patch_4">
    <path d="M 777.6 768.96 
L 777.6 103.68 
" style="fill: none; stroke: #000000; stroke-width: 0.8; stroke-linejoin: miter; stroke-linecap: square"/>
   </g>
   <g id="patch_5">
    <path d="M 108 768.96 
L 777.6 768.96 
" style="fill: none; stroke: #000000; stroke-width: 0.8; stroke-linejoin: miter; stroke-linecap: square"/>
   </g>
   <g id="patch_6">
    <path d="M 108 103.68 
L 777.6 103.68 
" style="fill: none; stroke: #000000; stroke-width: 0.8; stroke-linejoin: miter; stroke-linecap: square"/>
   </g>
   <g id="legend_1">
    <g id="patch_7">
     <path d="M 484.15 186.935 
L 766.4 186.935 
Q 769.6 186.935 769.6 183.735 
L 769.6 114.88 
Q 769.6 111.68 766.4 111.68 
L 484.15 111.68 
Q 480.95 111.68 480.95 114.88 
L 480.95 183.735 
Q 480.95 186.935 484.15 186.935 
z
" style="fill: #ffffff; opacity: 0.8; stroke: #cccccc; stroke-linejoin: miter"/>
    </g>
    <g id="patch_8">
     <path d="M 487.35 130.2375 
L 519.35 130.2375 
L 519.35 119.0375 
L 487.35 119.0375 
z
" style="fill: #0000ff; fill-opacity: 0.25; stroke: #0000ff; stroke-width: 3; stroke-linejoin: miter"/>
    </g>
    <g id="text_17">
     <!-- Training vs Test set similarity -->
     <g transform="translate(532.15 130.2375)scale(0.16 -0.16)">
      <defs>
       <path id="DejaVuSans-54" d="M -19 4666 
L 3928 4666 
L 3928 4134 
L 2272 4134 
L 2272 0 
L 1638 0 
L 1638 4134 
L -19 4134 
L -19 4666 
z
" transform="scale(0.015625)"/>
       <path id="DejaVuSans-67" d="M 2906 1791 
Q 2906 2416 2648 2759 
Q 2391 3103 1925 3103 
Q 1463 3103 1205 2759 
Q 947 2416 947 1791 
Q 947 1169 1205 825 
Q 1463 481 1925 481 
Q 2391 481 2648 825 
Q 2906 1169 2906 1791 
z
M 3481 434 
Q 3481 -459 3084 -895 
Q 2688 -1331 1869 -1331 
Q 1566 -1331 1297 -1286 
Q 1028 -1241 775 -1147 
L 775 -588 
Q 1028 -725 1275 -790 
Q 1522 -856 1778 -856 
Q 2344 -856 2625 -561 
Q 2906 -266 2906 331 
L 2906 616 
Q 2728 306 2450 153 
Q 2172 0 1784 0 
Q 1141 0 747 490 
Q 353 981 353 1791 
Q 353 2603 747 3093 
Q 1141 3584 1784 3584 
Q 2172 3584 2450 3431 
Q 2728 3278 2906 2969 
L 2906 3500 
L 3481 3500 
L 3481 434 
z
" transform="scale(0.015625)"/>
       <path id="DejaVuSans-20" transform="scale(0.015625)"/>
       <path id="DejaVuSans-76" d="M 191 3500 
L 800 3500 
L 1894 563 
L 2988 3500 
L 3597 3500 
L 2284 0 
L 1503 0 
L 191 3500 
z
" transform="scale(0.015625)"/>
      </defs>
      <use xlink:href="#DejaVuSans-54"/>
      <use xlink:href="#DejaVuSans-72" x="46.333984"/>
      <use xlink:href="#DejaVuSans-61" x="87.447266"/>
      <use xlink:href="#DejaVuSans-69" x="148.726562"/>
      <use xlink:href="#DejaVuSans-6e" x="176.509766"/>
      <use xlink:href="#DejaVuSans-69" x="239.888672"/>
      <use xlink:href="#DejaVuSans-6e" x="267.671875"/>
      <use xlink:href="#DejaVuSans-67" x="331.050781"/>
      <use xlink:href="#DejaVuSans-20" x="394.527344"/>
      <use xlink:href="#DejaVuSans-76" x="426.314453"/>
      <use xlink:href="#DejaVuSans-73" x="485.494141"/>
      <use xlink:href="#DejaVuSans-20" x="537.59375"/>
      <use xlink:href="#DejaVuSans-54" x="569.380859"/>
      <use xlink:href="#DejaVuSans-65" x="613.464844"/>
      <use xlink:href="#DejaVuSans-73" x="674.988281"/>
      <use xlink:href="#DejaVuSans-74" x="727.087891"/>
      <use xlink:href="#DejaVuSans-20" x="766.296875"/>
      <use xlink:href="#DejaVuSans-73" x="798.083984"/>
      <use xlink:href="#DejaVuSans-65" x="850.183594"/>
      <use xlink:href="#DejaVuSans-74" x="911.707031"/>
      <use xlink:href="#DejaVuSans-20" x="950.916016"/>
      <use xlink:href="#DejaVuSans-73" x="982.703125"/>
      <use xlink:href="#DejaVuSans-69" x="1034.802734"/>
      <use xlink:href="#DejaVuSans-6d" x="1062.585938"/>
      <use xlink:href="#DejaVuSans-69" x="1159.998047"/>
      <use xlink:href="#DejaVuSans-6c" x="1187.78125"/>
      <use xlink:href="#DejaVuSans-61" x="1215.564453"/>
      <use xlink:href="#DejaVuSans-72" x="1276.84375"/>
      <use xlink:href="#DejaVuSans-69" x="1317.957031"/>
      <use xlink:href="#DejaVuSans-74" x="1345.740234"/>
      <use xlink:href="#DejaVuSans-79" x="1384.949219"/>
     </g>
    </g>
    <g id="patch_9">
     <path d="M 487.35 153.7225 
L 519.35 153.7225 
L 519.35 142.5225 
L 487.35 142.5225 
z
" style="fill: #ff0000; fill-opacity: 0.25; stroke: #ff0000; stroke-width: 3; stroke-linejoin: miter"/>
    </g>
    <g id="text_18">
     <!-- Training set inner similarity -->
     <g transform="translate(532.15 153.7225)scale(0.16 -0.16)">
      <use xlink:href="#DejaVuSans-54"/>
      <use xlink:href="#DejaVuSans-72" x="46.333984"/>
      <use xlink:href="#DejaVuSans-61" x="87.447266"/>
      <use xlink:href="#DejaVuSans-69" x="148.726562"/>
      <use xlink:href="#DejaVuSans-6e" x="176.509766"/>
      <use xlink:href="#DejaVuSans-69" x="239.888672"/>
      <use xlink:href="#DejaVuSans-6e" x="267.671875"/>
      <use xlink:href="#DejaVuSans-67" x="331.050781"/>
      <use xlink:href="#DejaVuSans-20" x="394.527344"/>
      <use xlink:href="#DejaVuSans-73" x="426.314453"/>
      <use xlink:href="#DejaVuSans-65" x="478.414062"/>
      <use xlink:href="#DejaVuSans-74" x="539.9375"/>
      <use xlink:href="#DejaVuSans-20" x="579.146484"/>
      <use xlink:href="#DejaVuSans-69" x="610.933594"/>
      <use xlink:href="#DejaVuSans-6e" x="638.716797"/>
      <use xlink:href="#DejaVuSans-6e" x="702.095703"/>
      <use xlink:href="#DejaVuSans-65" x="765.474609"/>
      <use xlink:href="#DejaVuSans-72" x="826.998047"/>
      <use xlink:href="#DejaVuSans-20" x="868.111328"/>
      <use xlink:href="#DejaVuSans-73" x="899.898438"/>
      <use xlink:href="#DejaVuSans-69" x="951.998047"/>
      <use xlink:href="#DejaVuSans-6d" x="979.78125"/>
      <use xlink:href="#DejaVuSans-69" x="1077.193359"/>
      <use xlink:href="#DejaVuSans-6c" x="1104.976562"/>
      <use xlink:href="#DejaVuSans-61" x="1132.759766"/>
      <use xlink:href="#DejaVuSans-72" x="1194.039062"/>
      <use xlink:href="#DejaVuSans-69" x="1235.152344"/>
      <use xlink:href="#DejaVuSans-74" x="1262.935547"/>
      <use xlink:href="#DejaVuSans-79" x="1302.144531"/>
     </g>
    </g>
    <g id="patch_10">
     <path d="M 487.35 177.2075 
L 519.35 177.2075 
L 519.35 166.0075 
L 487.35 166.0075 
z
" style="fill: #008000; fill-opacity: 0.25; stroke: #008000; stroke-width: 3; stroke-linejoin: miter"/>
    </g>
    <g id="text_19">
     <!-- Test set inner similarity -->
     <g transform="translate(532.15 177.2075)scale(0.16 -0.16)">
      <use xlink:href="#DejaVuSans-54"/>
      <use xlink:href="#DejaVuSans-65" x="44.083984"/>
      <use xlink:href="#DejaVuSans-73" x="105.607422"/>
      <use xlink:href="#DejaVuSans-74" x="157.707031"/>
      <use xlink:href="#DejaVuSans-20" x="196.916016"/>
      <use xlink:href="#DejaVuSans-73" x="228.703125"/>
      <use xlink:href="#DejaVuSans-65" x="280.802734"/>
      <use xlink:href="#DejaVuSans-74" x="342.326172"/>
      <use xlink:href="#DejaVuSans-20" x="381.535156"/>
      <use xlink:href="#DejaVuSans-69" x="413.322266"/>
      <use xlink:href="#DejaVuSans-6e" x="441.105469"/>
      <use xlink:href="#DejaVuSans-6e" x="504.484375"/>
      <use xlink:href="#DejaVuSans-65" x="567.863281"/>
      <use xlink:href="#DejaVuSans-72" x="629.386719"/>
      <use xlink:href="#DejaVuSans-20" x="670.5"/>
      <use xlink:href="#DejaVuSans-73" x="702.287109"/>
      <use xlink:href="#DejaVuSans-69" x="754.386719"/>
      <use xlink:href="#DejaVuSans-6d" x="782.169922"/>
      <use xlink:href="#DejaVuSans-69" x="879.582031"/>
      <use xlink:href="#DejaVuSans-6c" x="907.365234"/>
      <use xlink:href="#DejaVuSans-61" x="935.148438"/>
      <use xlink:href="#DejaVuSans-72" x="996.427734"/>
      <use xlink:href="#DejaVuSans-69" x="1037.541016"/>
      <use xlink:href="#DejaVuSans-74" x="1065.324219"/>
      <use xlink:href="#DejaVuSans-79" x="1104.533203"/>
     </g>
    </g>
   </g>
  </g>
 </g>
 <defs>
  <clipPath id="p0bdc1a8c69">
   <rect x="108" y="103.68" width="669.6" height="665.28"/>
  </clipPath>
 </defs>
</svg>
