<?xml version="1.0" encoding="utf-8" standalone="no"?>
<!DOCTYPE svg PUBLIC "-//W3C//DTD SVG 1.1//EN"
  "http://www.w3.org/Graphics/SVG/1.1/DTD/svg11.dtd">
<svg xmlns:xlink="http://www.w3.org/1999/xlink" width="864pt" height="864pt" viewBox="0 0 864 864" xmlns="http://www.w3.org/2000/svg" version="1.1">
 <metadata>
  <rdf:RDF xmlns:dc="http://purl.org/dc/elements/1.1/" xmlns:cc="http://creativecommons.org/ns#" xmlns:rdf="http://www.w3.org/1999/02/22-rdf-syntax-ns#">
   <cc:Work>
    <dc:type rdf:resource="http://purl.org/dc/dcmitype/StillImage"/>
    <dc:date>2022-02-07T13:00:25.055589</dc:date>
    <dc:format>image/svg+xml</dc:format>
    <dc:creator>
     <cc:Agent>
      <dc:title>Matplotlib v3.5.1, https://matplotlib.org/</dc:title>
     </cc:Agent>
    </dc:creator>
   </cc:Work>
  </rdf:RDF>
 </metadata>
 <defs>
  <style type="text/css">*{stroke-linejoin: round; stroke-linecap: butt}</style>
 </defs>
 <g id="figure_1">
  <g id="patch_1">
   <path d="M 0 864 
L 864 864 
L 864 0 
L 0 0 
z
" style="fill: #ffffff"/>
  </g>
  <g id="axes_1">
   <g id="patch_2">
    <path d="M 108 768.96 
L 777.6 768.96 
L 777.6 103.68 
L 108 103.68 
z
" style="fill: #ffffff"/>
   </g>
   <g id="PolyCollection_1">
    <defs>
     <path id="me69e74f03d" d="M 140.588694 -95.040008 
L 140.588694 -95.04 
L 143.617685 -95.04 
L 146.646676 -95.04 
L 149.675667 -95.04 
L 152.704657 -95.04 
L 155.733648 -95.04 
L 158.762639 -95.04 
L 161.79163 -95.04 
L 164.82062 -95.04 
L 167.849611 -95.04 
L 170.878602 -95.04 
L 173.907593 -95.04 
L 176.936584 -95.04 
L 179.965574 -95.04 
L 182.994565 -95.04 
L 186.023556 -95.04 
L 189.052547 -95.04 
L 192.081537 -95.04 
L 195.110528 -95.04 
L 198.139519 -95.04 
L 201.16851 -95.04 
L 204.197501 -95.04 
L 207.226491 -95.04 
L 210.255482 -95.04 
L 213.284473 -95.04 
L 216.313464 -95.04 
L 219.342455 -95.04 
L 222.371445 -95.04 
L 225.400436 -95.04 
L 228.429427 -95.04 
L 231.458418 -95.04 
L 234.487408 -95.04 
L 237.516399 -95.04 
L 240.54539 -95.04 
L 243.574381 -95.04 
L 246.603372 -95.04 
L 249.632362 -95.04 
L 252.661353 -95.04 
L 255.690344 -95.04 
L 258.719335 -95.04 
L 261.748325 -95.04 
L 264.777316 -95.04 
L 267.806307 -95.04 
L 270.835298 -95.04 
L 273.864289 -95.04 
L 276.893279 -95.04 
L 279.92227 -95.04 
L 282.951261 -95.04 
L 285.980252 -95.04 
L 289.009242 -95.04 
L 292.038233 -95.04 
L 295.067224 -95.04 
L 298.096215 -95.04 
L 301.125206 -95.04 
L 304.154196 -95.04 
L 307.183187 -95.04 
L 310.212178 -95.04 
L 313.241169 -95.04 
L 316.270159 -95.04 
L 319.29915 -95.04 
L 322.328141 -95.04 
L 325.357132 -95.04 
L 328.386123 -95.04 
L 331.415113 -95.04 
L 334.444104 -95.04 
L 337.473095 -95.04 
L 340.502086 -95.04 
L 343.531077 -95.04 
L 346.560067 -95.04 
L 349.589058 -95.04 
L 352.618049 -95.04 
L 355.64704 -95.04 
L 358.67603 -95.04 
L 361.705021 -95.04 
L 364.734012 -95.04 
L 367.763003 -95.04 
L 370.791994 -95.04 
L 373.820984 -95.04 
L 376.849975 -95.04 
L 379.878966 -95.04 
L 382.907957 -95.04 
L 385.936947 -95.04 
L 388.965938 -95.04 
L 391.994929 -95.04 
L 395.02392 -95.04 
L 398.052911 -95.04 
L 401.081901 -95.04 
L 404.110892 -95.04 
L 407.139883 -95.04 
L 410.168874 -95.04 
L 413.197864 -95.04 
L 416.226855 -95.04 
L 419.255846 -95.04 
L 422.284837 -95.04 
L 425.313828 -95.04 
L 428.342818 -95.04 
L 431.371809 -95.04 
L 434.4008 -95.04 
L 437.429791 -95.04 
L 440.458782 -95.04 
L 443.487772 -95.04 
L 446.516763 -95.04 
L 449.545754 -95.04 
L 452.574745 -95.04 
L 455.603735 -95.04 
L 458.632726 -95.04 
L 461.661717 -95.04 
L 464.690708 -95.04 
L 467.719699 -95.04 
L 470.748689 -95.04 
L 473.77768 -95.04 
L 476.806671 -95.04 
L 479.835662 -95.04 
L 482.864652 -95.04 
L 485.893643 -95.04 
L 488.922634 -95.04 
L 491.951625 -95.04 
L 494.980616 -95.04 
L 498.009606 -95.04 
L 501.038597 -95.04 
L 504.067588 -95.04 
L 507.096579 -95.04 
L 510.125569 -95.04 
L 513.15456 -95.04 
L 516.183551 -95.04 
L 519.212542 -95.04 
L 522.241533 -95.04 
L 525.270523 -95.04 
L 528.299514 -95.04 
L 531.328505 -95.04 
L 534.357496 -95.04 
L 537.386486 -95.04 
L 540.415477 -95.04 
L 543.444468 -95.04 
L 546.473459 -95.04 
L 549.50245 -95.04 
L 552.53144 -95.04 
L 555.560431 -95.04 
L 558.589422 -95.04 
L 561.618413 -95.04 
L 564.647404 -95.04 
L 567.676394 -95.04 
L 570.705385 -95.04 
L 573.734376 -95.04 
L 576.763367 -95.04 
L 579.792357 -95.04 
L 582.821348 -95.04 
L 585.850339 -95.04 
L 588.87933 -95.04 
L 591.908321 -95.04 
L 594.937311 -95.04 
L 597.966302 -95.04 
L 600.995293 -95.04 
L 604.024284 -95.04 
L 607.053274 -95.04 
L 610.082265 -95.04 
L 613.111256 -95.04 
L 616.140247 -95.04 
L 619.169238 -95.04 
L 622.198228 -95.04 
L 625.227219 -95.04 
L 628.25621 -95.04 
L 631.285201 -95.04 
L 634.314191 -95.04 
L 637.343182 -95.04 
L 640.372173 -95.04 
L 643.401164 -95.04 
L 646.430155 -95.04 
L 649.459145 -95.04 
L 652.488136 -95.04 
L 655.517127 -95.04 
L 658.546118 -95.04 
L 661.575109 -95.04 
L 664.604099 -95.04 
L 667.63309 -95.04 
L 670.662081 -95.04 
L 673.691072 -95.04 
L 676.720062 -95.04 
L 679.749053 -95.04 
L 682.778044 -95.04 
L 685.807035 -95.04 
L 688.836026 -95.04 
L 691.865016 -95.04 
L 694.894007 -95.04 
L 697.922998 -95.04 
L 700.951989 -95.04 
L 703.980979 -95.04 
L 707.00997 -95.04 
L 710.038961 -95.04 
L 713.067952 -95.04 
L 716.096943 -95.04 
L 719.125933 -95.04 
L 722.154924 -95.04 
L 725.183915 -95.04 
L 728.212906 -95.04 
L 731.241896 -95.04 
L 734.270887 -95.04 
L 737.299878 -95.04 
L 740.328869 -95.04 
L 743.35786 -95.04 
L 743.35786 -95.105888 
L 743.35786 -95.105888 
L 740.328869 -96.290237 
L 737.299878 -100.32714 
L 734.270887 -100.394592 
L 731.241896 -97.13337 
L 728.212906 -96.413515 
L 725.183915 -96.714575 
L 722.154924 -97.262451 
L 719.125933 -97.842282 
L 716.096943 -98.390506 
L 713.067952 -99.026293 
L 710.038961 -99.622969 
L 707.00997 -99.996828 
L 703.980979 -100.165851 
L 700.951989 -100.677281 
L 697.922998 -101.669511 
L 694.894007 -102.919935 
L 691.865016 -103.753622 
L 688.836026 -104.254035 
L 685.807035 -105.097342 
L 682.778044 -106.136895 
L 679.749053 -107.264096 
L 676.720062 -108.724862 
L 673.691072 -110.697363 
L 670.662081 -112.487217 
L 667.63309 -113.847247 
L 664.604099 -115.235054 
L 661.575109 -116.710394 
L 658.546118 -118.545354 
L 655.517127 -120.156033 
L 652.488136 -121.470094 
L 649.459145 -122.660164 
L 646.430155 -123.641003 
L 643.401164 -125.32882 
L 640.372173 -126.978907 
L 637.343182 -128.532783 
L 634.314191 -130.600212 
L 631.285201 -132.780869 
L 628.25621 -134.903453 
L 625.227219 -136.517404 
L 622.198228 -138.160297 
L 619.169238 -140.441932 
L 616.140247 -142.275174 
L 613.111256 -142.832628 
L 610.082265 -142.411895 
L 607.053274 -142.525397 
L 604.024284 -144.339426 
L 600.995293 -146.652753 
L 597.966302 -148.95594 
L 594.937311 -151.273985 
L 591.908321 -153.505538 
L 588.87933 -155.134287 
L 585.850339 -156.5438 
L 582.821348 -158.214624 
L 579.792357 -160.366238 
L 576.763367 -162.691401 
L 573.734376 -165.761911 
L 570.705385 -168.562552 
L 567.676394 -170.247131 
L 564.647404 -172.022029 
L 561.618413 -174.634448 
L 558.589422 -177.67219 
L 555.560431 -180.064179 
L 552.53144 -182.13732 
L 549.50245 -183.216628 
L 546.473459 -183.717493 
L 543.444468 -184.550836 
L 540.415477 -184.362986 
L 537.386486 -186.015586 
L 534.357496 -190.106193 
L 531.328505 -194.183838 
L 528.299514 -196.441498 
L 525.270523 -198.154513 
L 522.241533 -200.895928 
L 519.212542 -201.868339 
L 516.183551 -199.91162 
L 513.15456 -198.162162 
L 510.125569 -195.464929 
L 507.096579 -192.638127 
L 504.067588 -191.57522 
L 501.038597 -193.773722 
L 498.009606 -196.968312 
L 494.980616 -198.239199 
L 491.951625 -202.501009 
L 488.922634 -211.891529 
L 485.893643 -221.62837 
L 482.864652 -231.318882 
L 479.835662 -241.666322 
L 476.806671 -255.250395 
L 473.77768 -272.031225 
L 470.748689 -290.503053 
L 467.719699 -305.847623 
L 464.690708 -316.870913 
L 461.661717 -331.97209 
L 458.632726 -351.435384 
L 455.603735 -375.456366 
L 452.574745 -403.968466 
L 449.545754 -434.084465 
L 446.516763 -466.399664 
L 443.487772 -496.996768 
L 440.458782 -522.198696 
L 437.429791 -543.165354 
L 434.4008 -559.936626 
L 431.371809 -575.835119 
L 428.342818 -593.442427 
L 425.313828 -609.818738 
L 422.284837 -627.499816 
L 419.255846 -645.164954 
L 416.226855 -658.302476 
L 413.197864 -670.087658 
L 410.168874 -683.755788 
L 407.139883 -692.037341 
L 404.110892 -692.193929 
L 401.081901 -690.075363 
L 398.052911 -691.049919 
L 395.02392 -695.595757 
L 391.994929 -698.715349 
L 388.965938 -704.098748 
L 385.936947 -707.506128 
L 382.907957 -706.331532 
L 379.878966 -705.068342 
L 376.849975 -706.948245 
L 373.820984 -710.199301 
L 370.791994 -712.963946 
L 367.763003 -715.600089 
L 364.734012 -719.496388 
L 361.705021 -719.531626 
L 358.67603 -711.331547 
L 355.64704 -700.14199 
L 352.618049 -686.081313 
L 349.589058 -674.154308 
L 346.560067 -660.728726 
L 343.531077 -640.317412 
L 340.502086 -621.310822 
L 337.473095 -604.755624 
L 334.444104 -583.730168 
L 331.415113 -561.306677 
L 328.386123 -538.229142 
L 325.357132 -512.384544 
L 322.328141 -488.04323 
L 319.29915 -464.975922 
L 316.270159 -444.261868 
L 313.241169 -425.619102 
L 310.212178 -409.533919 
L 307.183187 -398.150721 
L 304.154196 -387.693619 
L 301.125206 -375.16373 
L 298.096215 -360.4684 
L 295.067224 -343.613286 
L 292.038233 -327.526291 
L 289.009242 -312.530023 
L 285.980252 -298.022566 
L 282.951261 -282.960623 
L 279.92227 -267.687447 
L 276.893279 -255.611994 
L 273.864289 -246.540344 
L 270.835298 -236.539631 
L 267.806307 -225.774646 
L 264.777316 -217.802658 
L 261.748325 -210.497477 
L 258.719335 -202.62024 
L 255.690344 -194.828808 
L 252.661353 -186.379714 
L 249.632362 -176.942779 
L 246.603372 -168.234222 
L 243.574381 -160.679257 
L 240.54539 -152.985588 
L 237.516399 -145.249206 
L 234.487408 -137.213003 
L 231.458418 -130.012987 
L 228.429427 -124.741696 
L 225.400436 -120.687943 
L 222.371445 -116.947742 
L 219.342455 -113.713126 
L 216.313464 -110.373084 
L 213.284473 -107.016315 
L 210.255482 -104.516969 
L 207.226491 -103.079892 
L 204.197501 -103.294628 
L 201.16851 -103.982064 
L 198.139519 -103.825305 
L 195.110528 -102.698739 
L 192.081537 -100.579704 
L 189.052547 -98.410287 
L 186.023556 -97.19468 
L 182.994565 -97.006582 
L 179.965574 -97.761318 
L 176.936584 -98.49722 
L 173.907593 -97.681073 
L 170.878602 -96.430775 
L 167.849611 -95.814988 
L 164.82062 -95.657253 
L 161.79163 -95.976861 
L 158.762639 -96.117272 
L 155.733648 -95.577924 
L 152.704657 -95.155184 
L 149.675667 -95.055986 
L 146.646676 -95.042333 
L 143.617685 -95.040232 
L 140.588694 -95.040008 
z
" style="stroke: #0000ff; stroke-width: 3"/>
    </defs>
    <g clip-path="url(#pa660d0223f)">
     <use xlink:href="#me69e74f03d" x="0" y="864" style="fill: #0000ff; fill-opacity: 0.25; stroke: #0000ff; stroke-width: 3"/>
    </g>
   </g>
   <g id="PolyCollection_2">
    <defs>
     <path id="m9c22a1e0ad" d="M 138.436364 -95.040003 
L 138.436364 -95.04 
L 141.471373 -95.04 
L 144.506383 -95.04 
L 147.541393 -95.04 
L 150.576403 -95.04 
L 153.611412 -95.04 
L 156.646422 -95.04 
L 159.681432 -95.04 
L 162.716442 -95.04 
L 165.751451 -95.04 
L 168.786461 -95.04 
L 171.821471 -95.04 
L 174.856481 -95.04 
L 177.89149 -95.04 
L 180.9265 -95.04 
L 183.96151 -95.04 
L 186.99652 -95.04 
L 190.031529 -95.04 
L 193.066539 -95.04 
L 196.101549 -95.04 
L 199.136559 -95.04 
L 202.171568 -95.04 
L 205.206578 -95.04 
L 208.241588 -95.04 
L 211.276598 -95.04 
L 214.311607 -95.04 
L 217.346617 -95.04 
L 220.381627 -95.04 
L 223.416637 -95.04 
L 226.451646 -95.04 
L 229.486656 -95.04 
L 232.521666 -95.04 
L 235.556676 -95.04 
L 238.591685 -95.04 
L 241.626695 -95.04 
L 244.661705 -95.04 
L 247.696714 -95.04 
L 250.731724 -95.04 
L 253.766734 -95.04 
L 256.801744 -95.04 
L 259.836753 -95.04 
L 262.871763 -95.04 
L 265.906773 -95.04 
L 268.941783 -95.04 
L 271.976792 -95.04 
L 275.011802 -95.04 
L 278.046812 -95.04 
L 281.081822 -95.04 
L 284.116831 -95.04 
L 287.151841 -95.04 
L 290.186851 -95.04 
L 293.221861 -95.04 
L 296.25687 -95.04 
L 299.29188 -95.04 
L 302.32689 -95.04 
L 305.3619 -95.04 
L 308.396909 -95.04 
L 311.431919 -95.04 
L 314.466929 -95.04 
L 317.501939 -95.04 
L 320.536948 -95.04 
L 323.571958 -95.04 
L 326.606968 -95.04 
L 329.641978 -95.04 
L 332.676987 -95.04 
L 335.711997 -95.04 
L 338.747007 -95.04 
L 341.782017 -95.04 
L 344.817026 -95.04 
L 347.852036 -95.04 
L 350.887046 -95.04 
L 353.922056 -95.04 
L 356.957065 -95.04 
L 359.992075 -95.04 
L 363.027085 -95.04 
L 366.062095 -95.04 
L 369.097104 -95.04 
L 372.132114 -95.04 
L 375.167124 -95.04 
L 378.202134 -95.04 
L 381.237143 -95.04 
L 384.272153 -95.04 
L 387.307163 -95.04 
L 390.342173 -95.04 
L 393.377182 -95.04 
L 396.412192 -95.04 
L 399.447202 -95.04 
L 402.482212 -95.04 
L 405.517221 -95.04 
L 408.552231 -95.04 
L 411.587241 -95.04 
L 414.622251 -95.04 
L 417.65726 -95.04 
L 420.69227 -95.04 
L 423.72728 -95.04 
L 426.762289 -95.04 
L 429.797299 -95.04 
L 432.832309 -95.04 
L 435.867319 -95.04 
L 438.902328 -95.04 
L 441.937338 -95.04 
L 444.972348 -95.04 
L 448.007358 -95.04 
L 451.042367 -95.04 
L 454.077377 -95.04 
L 457.112387 -95.04 
L 460.147397 -95.04 
L 463.182406 -95.04 
L 466.217416 -95.04 
L 469.252426 -95.04 
L 472.287436 -95.04 
L 475.322445 -95.04 
L 478.357455 -95.04 
L 481.392465 -95.04 
L 484.427475 -95.04 
L 487.462484 -95.04 
L 490.497494 -95.04 
L 493.532504 -95.04 
L 496.567514 -95.04 
L 499.602523 -95.04 
L 502.637533 -95.04 
L 505.672543 -95.04 
L 508.707553 -95.04 
L 511.742562 -95.04 
L 514.777572 -95.04 
L 517.812582 -95.04 
L 520.847592 -95.04 
L 523.882601 -95.04 
L 526.917611 -95.04 
L 529.952621 -95.04 
L 532.987631 -95.04 
L 536.02264 -95.04 
L 539.05765 -95.04 
L 542.09266 -95.04 
L 545.12767 -95.04 
L 548.162679 -95.04 
L 551.197689 -95.04 
L 554.232699 -95.04 
L 557.267709 -95.04 
L 560.302718 -95.04 
L 563.337728 -95.04 
L 566.372738 -95.04 
L 569.407748 -95.04 
L 572.442757 -95.04 
L 575.477767 -95.04 
L 578.512777 -95.04 
L 581.547787 -95.04 
L 584.582796 -95.04 
L 587.617806 -95.04 
L 590.652816 -95.04 
L 593.687826 -95.04 
L 596.722835 -95.04 
L 599.757845 -95.04 
L 602.792855 -95.04 
L 605.827864 -95.04 
L 608.862874 -95.04 
L 611.897884 -95.04 
L 614.932894 -95.04 
L 617.967903 -95.04 
L 621.002913 -95.04 
L 624.037923 -95.04 
L 627.072933 -95.04 
L 630.107942 -95.04 
L 633.142952 -95.04 
L 636.177962 -95.04 
L 639.212972 -95.04 
L 642.247981 -95.04 
L 645.282991 -95.04 
L 648.318001 -95.04 
L 651.353011 -95.04 
L 654.38802 -95.04 
L 657.42303 -95.04 
L 660.45804 -95.04 
L 663.49305 -95.04 
L 666.528059 -95.04 
L 669.563069 -95.04 
L 672.598079 -95.04 
L 675.633089 -95.04 
L 678.668098 -95.04 
L 681.703108 -95.04 
L 684.738118 -95.04 
L 687.773128 -95.04 
L 690.808137 -95.04 
L 693.843147 -95.04 
L 696.878157 -95.04 
L 699.913167 -95.04 
L 702.948176 -95.04 
L 705.983186 -95.04 
L 709.018196 -95.04 
L 712.053206 -95.04 
L 715.088215 -95.04 
L 718.123225 -95.04 
L 721.158235 -95.04 
L 724.193245 -95.04 
L 727.228254 -95.04 
L 730.263264 -95.04 
L 733.298274 -95.04 
L 736.333284 -95.04 
L 739.368293 -95.04 
L 742.403303 -95.04 
L 742.403303 -95.116845 
L 742.403303 -95.116845 
L 739.368293 -97.028316 
L 736.333284 -102.070433 
L 733.298274 -99.025121 
L 730.263264 -96.429372 
L 727.228254 -96.418437 
L 724.193245 -96.816458 
L 721.158235 -97.356501 
L 718.123225 -97.82887 
L 715.088215 -98.327213 
L 712.053206 -99.025688 
L 709.018196 -99.481438 
L 705.983186 -99.771813 
L 702.948176 -99.972674 
L 699.913167 -100.726441 
L 696.878157 -102.011113 
L 693.843147 -103.275346 
L 690.808137 -103.955924 
L 687.773128 -104.463775 
L 684.738118 -105.264073 
L 681.703108 -106.339814 
L 678.668098 -107.649308 
L 675.633089 -109.187016 
L 672.598079 -110.993145 
L 669.563069 -112.4534 
L 666.528059 -114.168162 
L 663.49305 -115.735338 
L 660.45804 -117.365291 
L 657.42303 -119.240572 
L 654.38802 -120.680512 
L 651.353011 -122.041303 
L 648.318001 -123.065994 
L 645.282991 -124.400176 
L 642.247981 -126.105011 
L 639.212972 -127.462795 
L 636.177962 -129.194484 
L 633.142952 -131.493206 
L 630.107942 -133.899926 
L 627.072933 -135.67307 
L 624.037923 -137.211296 
L 621.002913 -139.277348 
L 617.967903 -140.694661 
L 614.932894 -141.124039 
L 611.897884 -141.080278 
L 608.862874 -141.182167 
L 605.827864 -141.684968 
L 602.792855 -143.580132 
L 599.757845 -146.018409 
L 596.722835 -148.76419 
L 593.687826 -151.063011 
L 590.652816 -152.718788 
L 587.617806 -154.374648 
L 584.582796 -156.540079 
L 581.547787 -159.157352 
L 578.512777 -161.459477 
L 575.477767 -163.123481 
L 572.442757 -166.085321 
L 569.407748 -167.948088 
L 566.372738 -169.448189 
L 563.337728 -171.78225 
L 560.302718 -175.331622 
L 557.267709 -177.654552 
L 554.232699 -178.632804 
L 551.197689 -179.83725 
L 548.162679 -181.493385 
L 545.12767 -182.812834 
L 542.09266 -183.012917 
L 539.05765 -183.573798 
L 536.02264 -186.482784 
L 532.987631 -189.544497 
L 529.952621 -191.576548 
L 526.917611 -192.992084 
L 523.882601 -194.664843 
L 520.847592 -196.423385 
L 517.812582 -194.762708 
L 514.777572 -191.772892 
L 511.742562 -188.994296 
L 508.707553 -187.062242 
L 505.672543 -186.55146 
L 502.637533 -187.450344 
L 499.602523 -189.387923 
L 496.567514 -190.545779 
L 493.532504 -192.990409 
L 490.497494 -201.034232 
L 487.462484 -211.884191 
L 484.427475 -221.881328 
L 481.392465 -231.422448 
L 478.357455 -242.631493 
L 475.322445 -258.172682 
L 472.287436 -275.665708 
L 469.252426 -296.451979 
L 466.217416 -312.127608 
L 463.182406 -324.489463 
L 460.147397 -341.57917 
L 457.112387 -361.643871 
L 454.077377 -388.723611 
L 451.042367 -419.595218 
L 448.007358 -450.294845 
L 444.972348 -481.928885 
L 441.937338 -512.058469 
L 438.902328 -537.292068 
L 435.867319 -555.236789 
L 432.832309 -571.513251 
L 429.797299 -590.610451 
L 426.762289 -608.761861 
L 423.72728 -623.615165 
L 420.69227 -640.734187 
L 417.65726 -655.720958 
L 414.622251 -665.569221 
L 411.587241 -677.446469 
L 408.552231 -689.744054 
L 405.517221 -690.678267 
L 402.482212 -686.296623 
L 399.447202 -683.059111 
L 396.412192 -687.860589 
L 393.377182 -692.761028 
L 390.342173 -698.814929 
L 387.307163 -706.49363 
L 384.272153 -704.883957 
L 381.237143 -699.432764 
L 378.202134 -695.395716 
L 375.167124 -695.802187 
L 372.132114 -699.630474 
L 369.097104 -703.467266 
L 366.062095 -706.405857 
L 363.027085 -711.726148 
L 359.992075 -711.009067 
L 356.957065 -703.548473 
L 353.922056 -692.477819 
L 350.887046 -678.441961 
L 347.852036 -666.948679 
L 344.817026 -648.662059 
L 341.782017 -629.379158 
L 338.747007 -613.189627 
L 335.711997 -593.683504 
L 332.676987 -569.341938 
L 329.641978 -546.334239 
L 326.606968 -523.982339 
L 323.571958 -502.681698 
L 320.536948 -482.668821 
L 317.501939 -463.695576 
L 314.466929 -445.343372 
L 311.431919 -429.285527 
L 308.396909 -421.01635 
L 305.3619 -413.979577 
L 302.32689 -401.494559 
L 299.29188 -383.937163 
L 296.25687 -362.240148 
L 293.221861 -342.216276 
L 290.186851 -323.938807 
L 287.151841 -305.952222 
L 284.116831 -290.301629 
L 281.081822 -274.772942 
L 278.046812 -263.852105 
L 275.011802 -256.198327 
L 271.976792 -246.298739 
L 268.941783 -234.573061 
L 265.906773 -223.966484 
L 262.871763 -214.411966 
L 259.836753 -205.127444 
L 256.801744 -196.250456 
L 253.766734 -187.159335 
L 250.731724 -178.995012 
L 247.696714 -172.858378 
L 244.661705 -166.480422 
L 241.626695 -160.202319 
L 238.591685 -152.764283 
L 235.556676 -144.028105 
L 232.521666 -136.953244 
L 229.486656 -132.169993 
L 226.451646 -126.689304 
L 223.416637 -121.117578 
L 220.381627 -116.923183 
L 217.346617 -113.914702 
L 214.311607 -110.747949 
L 211.276598 -107.814076 
L 208.241588 -105.469264 
L 205.206578 -104.884188 
L 202.171568 -105.929969 
L 199.136559 -105.626021 
L 196.101549 -103.06095 
L 193.066539 -100.237153 
L 190.031529 -98.240275 
L 186.99652 -97.08561 
L 183.96151 -96.499983 
L 180.9265 -96.20373 
L 177.89149 -95.943863 
L 174.856481 -95.746187 
L 171.821471 -95.499523 
L 168.786461 -95.428013 
L 165.751451 -95.51177 
L 162.716442 -96.242904 
L 159.681432 -97.178817 
L 156.646422 -96.414732 
L 153.611412 -95.358556 
L 150.576403 -95.085032 
L 147.541393 -95.046123 
L 144.506383 -95.041046 
L 141.471373 -95.040119 
L 138.436364 -95.040003 
z
" style="stroke: #ff0000; stroke-width: 3"/>
    </defs>
    <g clip-path="url(#pa660d0223f)">
     <use xlink:href="#m9c22a1e0ad" x="0" y="864" style="fill: #ff0000; fill-opacity: 0.25; stroke: #ff0000; stroke-width: 3"/>
    </g>
   </g>
   <g id="PolyCollection_3">
    <defs>
     <path id="md667f0edeb" d="M 142.191611 -95.040049 
L 142.191611 -95.04 
L 145.231671 -95.04 
L 148.271732 -95.04 
L 151.311792 -95.04 
L 154.351853 -95.04 
L 157.391913 -95.04 
L 160.431973 -95.04 
L 163.472034 -95.04 
L 166.512094 -95.04 
L 169.552155 -95.04 
L 172.592215 -95.04 
L 175.632276 -95.04 
L 178.672336 -95.04 
L 181.712397 -95.04 
L 184.752457 -95.04 
L 187.792517 -95.04 
L 190.832578 -95.04 
L 193.872638 -95.04 
L 196.912699 -95.04 
L 199.952759 -95.04 
L 202.99282 -95.04 
L 206.03288 -95.04 
L 209.07294 -95.04 
L 212.113001 -95.04 
L 215.153061 -95.04 
L 218.193122 -95.04 
L 221.233182 -95.04 
L 224.273243 -95.04 
L 227.313303 -95.04 
L 230.353363 -95.04 
L 233.393424 -95.04 
L 236.433484 -95.04 
L 239.473545 -95.04 
L 242.513605 -95.04 
L 245.553666 -95.04 
L 248.593726 -95.04 
L 251.633786 -95.04 
L 254.673847 -95.04 
L 257.713907 -95.04 
L 260.753968 -95.04 
L 263.794028 -95.04 
L 266.834089 -95.04 
L 269.874149 -95.04 
L 272.914209 -95.04 
L 275.95427 -95.04 
L 278.99433 -95.04 
L 282.034391 -95.04 
L 285.074451 -95.04 
L 288.114512 -95.04 
L 291.154572 -95.04 
L 294.194632 -95.04 
L 297.234693 -95.04 
L 300.274753 -95.04 
L 303.314814 -95.04 
L 306.354874 -95.04 
L 309.394935 -95.04 
L 312.434995 -95.04 
L 315.475055 -95.04 
L 318.515116 -95.04 
L 321.555176 -95.04 
L 324.595237 -95.04 
L 327.635297 -95.04 
L 330.675358 -95.04 
L 333.715418 -95.04 
L 336.755478 -95.04 
L 339.795539 -95.04 
L 342.835599 -95.04 
L 345.87566 -95.04 
L 348.91572 -95.04 
L 351.955781 -95.04 
L 354.995841 -95.04 
L 358.035901 -95.04 
L 361.075962 -95.04 
L 364.116022 -95.04 
L 367.156083 -95.04 
L 370.196143 -95.04 
L 373.236204 -95.04 
L 376.276264 -95.04 
L 379.316324 -95.04 
L 382.356385 -95.04 
L 385.396445 -95.04 
L 388.436506 -95.04 
L 391.476566 -95.04 
L 394.516627 -95.04 
L 397.556687 -95.04 
L 400.596747 -95.04 
L 403.636808 -95.04 
L 406.676868 -95.04 
L 409.716929 -95.04 
L 412.756989 -95.04 
L 415.79705 -95.04 
L 418.83711 -95.04 
L 421.87717 -95.04 
L 424.917231 -95.04 
L 427.957291 -95.04 
L 430.997352 -95.04 
L 434.037412 -95.04 
L 437.077473 -95.04 
L 440.117533 -95.04 
L 443.157593 -95.04 
L 446.197654 -95.04 
L 449.237714 -95.04 
L 452.277775 -95.04 
L 455.317835 -95.04 
L 458.357896 -95.04 
L 461.397956 -95.04 
L 464.438016 -95.04 
L 467.478077 -95.04 
L 470.518137 -95.04 
L 473.558198 -95.04 
L 476.598258 -95.04 
L 479.638319 -95.04 
L 482.678379 -95.04 
L 485.718439 -95.04 
L 488.7585 -95.04 
L 491.79856 -95.04 
L 494.838621 -95.04 
L 497.878681 -95.04 
L 500.918742 -95.04 
L 503.958802 -95.04 
L 506.998862 -95.04 
L 510.038923 -95.04 
L 513.078983 -95.04 
L 516.119044 -95.04 
L 519.159104 -95.04 
L 522.199165 -95.04 
L 525.239225 -95.04 
L 528.279285 -95.04 
L 531.319346 -95.04 
L 534.359406 -95.04 
L 537.399467 -95.04 
L 540.439527 -95.04 
L 543.479588 -95.04 
L 546.519648 -95.04 
L 549.559708 -95.04 
L 552.599769 -95.04 
L 555.639829 -95.04 
L 558.67989 -95.04 
L 561.71995 -95.04 
L 564.760011 -95.04 
L 567.800071 -95.04 
L 570.840131 -95.04 
L 573.880192 -95.04 
L 576.920252 -95.04 
L 579.960313 -95.04 
L 583.000373 -95.04 
L 586.040434 -95.04 
L 589.080494 -95.04 
L 592.120554 -95.04 
L 595.160615 -95.04 
L 598.200675 -95.04 
L 601.240736 -95.04 
L 604.280796 -95.04 
L 607.320857 -95.04 
L 610.360917 -95.04 
L 613.400977 -95.04 
L 616.441038 -95.04 
L 619.481098 -95.04 
L 622.521159 -95.04 
L 625.561219 -95.04 
L 628.60128 -95.04 
L 631.64134 -95.04 
L 634.6814 -95.04 
L 637.721461 -95.04 
L 640.761521 -95.04 
L 643.801582 -95.04 
L 646.841642 -95.04 
L 649.881703 -95.04 
L 652.921763 -95.04 
L 655.961823 -95.04 
L 659.001884 -95.04 
L 662.041944 -95.04 
L 665.082005 -95.04 
L 668.122065 -95.04 
L 671.162126 -95.04 
L 674.202186 -95.04 
L 677.242246 -95.04 
L 680.282307 -95.04 
L 683.322367 -95.04 
L 686.362428 -95.04 
L 689.402488 -95.04 
L 692.442549 -95.04 
L 695.482609 -95.04 
L 698.522669 -95.04 
L 701.56273 -95.04 
L 704.60279 -95.04 
L 707.642851 -95.04 
L 710.682911 -95.04 
L 713.722972 -95.04 
L 716.763032 -95.04 
L 719.803092 -95.04 
L 722.843153 -95.04 
L 725.883213 -95.04 
L 728.923274 -95.04 
L 731.963334 -95.04 
L 735.003395 -95.04 
L 738.043455 -95.04 
L 741.083516 -95.04 
L 744.123576 -95.04 
L 747.163636 -95.04 
L 747.163636 -95.087999 
L 747.163636 -95.087999 
L 744.123576 -95.44084 
L 741.083516 -96.774339 
L 738.043455 -98.96752 
L 735.003395 -99.832205 
L 731.963334 -98.516901 
L 728.923274 -97.132002 
L 725.883213 -96.841811 
L 722.843153 -97.200577 
L 719.803092 -97.765392 
L 716.763032 -98.42177 
L 713.722972 -99.125755 
L 710.682911 -99.718118 
L 707.642851 -100.07948 
L 704.60279 -100.346381 
L 701.56273 -100.810396 
L 698.522669 -101.668834 
L 695.482609 -102.74411 
L 692.442549 -103.573439 
L 689.402488 -104.181595 
L 686.362428 -104.997957 
L 683.322367 -106.042274 
L 680.282307 -107.196772 
L 677.242246 -108.620557 
L 674.202186 -110.406705 
L 671.162126 -112.250316 
L 668.122065 -113.824113 
L 665.082005 -115.185001 
L 662.041944 -116.548789 
L 659.001884 -118.109372 
L 655.961823 -119.78067 
L 652.921763 -121.283218 
L 649.881703 -122.543723 
L 646.841642 -123.712115 
L 643.801582 -125.0515 
L 640.761521 -126.591938 
L 637.721461 -128.322624 
L 634.6814 -130.337516 
L 631.64134 -132.572608 
L 628.60128 -134.751834 
L 625.561219 -136.511167 
L 622.521159 -138.099394 
L 619.481098 -140.26403 
L 616.441038 -142.729124 
L 613.400977 -144.267269 
L 610.360917 -144.591373 
L 607.320857 -144.880439 
L 604.280796 -146.14562 
L 601.240736 -148.076035 
L 598.200675 -150.025321 
L 595.160615 -151.812081 
L 592.120554 -153.480241 
L 589.080494 -155.034202 
L 586.040434 -156.54966 
L 583.000373 -158.323555 
L 579.960313 -160.668793 
L 576.920252 -163.571823 
L 573.880192 -166.522769 
L 570.840131 -169.007599 
L 567.800071 -171.135793 
L 564.760011 -173.290389 
L 561.71995 -175.84001 
L 558.67989 -178.95936 
L 555.639829 -182.052805 
L 552.599769 -184.263191 
L 549.559708 -185.373853 
L 546.519648 -185.767783 
L 543.479588 -185.895693 
L 540.439527 -186.368296 
L 537.399467 -188.479205 
L 534.359406 -192.693819 
L 531.319346 -197.41365 
L 528.279285 -200.798297 
L 525.239225 -203.243918 
L 522.199165 -205.662684 
L 519.159104 -206.877925 
L 516.119044 -206.358355 
L 513.078983 -204.914798 
L 510.038923 -202.53556 
L 506.998862 -199.866433 
L 503.958802 -198.939242 
L 500.918742 -200.896177 
L 497.878681 -204.000896 
L 494.838621 -206.669983 
L 491.79856 -210.830231 
L 488.7585 -218.035132 
L 485.718439 -227.087138 
L 482.678379 -237.062064 
L 479.638319 -248.640346 
L 476.598258 -262.766857 
L 473.558198 -278.592695 
L 470.518137 -293.736212 
L 467.478077 -306.710945 
L 464.438016 -319.55637 
L 461.397956 -335.655074 
L 458.357896 -356.165905 
L 455.317835 -380.729978 
L 452.277775 -408.28781 
L 449.237714 -438.076077 
L 446.197654 -468.951491 
L 443.157593 -497.711479 
L 440.117533 -521.666951 
L 437.077473 -540.82256 
L 434.037412 -557.060083 
L 430.997352 -573.039595 
L 427.957291 -589.843065 
L 424.917231 -606.912015 
L 421.87717 -624.720417 
L 418.83711 -642.676955 
L 415.79705 -658.637536 
L 412.756989 -672.089229 
L 409.716929 -682.971549 
L 406.676868 -690.17627 
L 403.636808 -693.673004 
L 400.596747 -695.567646 
L 397.556687 -697.962186 
L 394.516627 -700.789616 
L 391.476566 -703.379314 
L 388.436506 -706.045349 
L 385.396445 -708.26071 
L 382.356385 -709.759353 
L 379.316324 -712.293491 
L 376.276264 -716.725285 
L 373.236204 -721.259839 
L 370.196143 -724.862211 
L 367.156083 -727.886233 
L 364.116022 -728.64 
L 361.075962 -723.512007 
L 358.035901 -711.813244 
L 354.995841 -696.903867 
L 351.955781 -682.566359 
L 348.91572 -669.759391 
L 345.87566 -654.696957 
L 342.835599 -635.93937 
L 339.795539 -617.279912 
L 336.755478 -599.148893 
L 333.715418 -578.886832 
L 330.675358 -555.813951 
L 327.635297 -529.66077 
L 324.595237 -501.614243 
L 321.555176 -474.480195 
L 318.515116 -449.638742 
L 315.475055 -427.814811 
L 312.434995 -408.865335 
L 309.394935 -391.674246 
L 306.354874 -376.242674 
L 303.314814 -363.150732 
L 300.274753 -351.901792 
L 297.234693 -340.842064 
L 294.194632 -328.880644 
L 291.154572 -316.744579 
L 288.114512 -305.056246 
L 285.074451 -292.346862 
L 282.034391 -277.386912 
L 278.99433 -261.745198 
L 275.95427 -248.047957 
L 272.914209 -237.098633 
L 269.874149 -228.001488 
L 266.834089 -220.293219 
L 263.794028 -213.41536 
L 260.753968 -206.607903 
L 257.713907 -200.110012 
L 254.673847 -193.262908 
L 251.633786 -184.428745 
L 248.593726 -173.8954 
L 245.553666 -163.666308 
L 242.513605 -154.662001 
L 239.473545 -146.39959 
L 236.433484 -138.328682 
L 233.393424 -130.406695 
L 230.353363 -123.518265 
L 227.313303 -118.712275 
L 224.273243 -115.619205 
L 221.233182 -112.9034 
L 218.193122 -109.841703 
L 215.153061 -106.623815 
L 212.113001 -103.876093 
L 209.07294 -102.133814 
L 206.03288 -101.589615 
L 202.99282 -101.888381 
L 199.952759 -102.426291 
L 196.912699 -102.709475 
L 193.872638 -102.084087 
L 190.832578 -100.438906 
L 187.792517 -98.73641 
L 184.752457 -98.028687 
L 181.712397 -98.624461 
L 178.672336 -99.742804 
L 175.632276 -99.88749 
L 172.592215 -98.650688 
L 169.552155 -97.117396 
L 166.512094 -96.095316 
L 163.472034 -95.566676 
L 160.431973 -95.305174 
L 157.391913 -95.161224 
L 154.351853 -95.082896 
L 151.311792 -95.051545 
L 148.271732 -95.042593 
L 145.231671 -95.04045 
L 142.191611 -95.040049 
z
" style="stroke: #008000; stroke-width: 3"/>
    </defs>
    <g clip-path="url(#pa660d0223f)">
     <use xlink:href="#md667f0edeb" x="0" y="864" style="fill: #008000; fill-opacity: 0.25; stroke: #008000; stroke-width: 3"/>
    </g>
   </g>
   <g id="matplotlib.axis_1">
    <g id="xtick_1">
     <g id="line2d_1">
      <defs>
       <path id="m99c6e7e799" d="M 0 0 
L 0 3.5 
" style="stroke: #000000; stroke-width: 0.8"/>
      </defs>
      <g>
       <use xlink:href="#m99c6e7e799" x="139.099289" y="768.96" style="stroke: #000000; stroke-width: 0.8"/>
      </g>
     </g>
     <g id="text_1">
      <!-- 0.0 -->
      <g transform="translate(131.147727 783.558437)scale(0.1 -0.1)">
       <defs>
        <path id="DejaVuSans-30" d="M 2034 4250 
Q 1547 4250 1301 3770 
Q 1056 3291 1056 2328 
Q 1056 1369 1301 889 
Q 1547 409 2034 409 
Q 2525 409 2770 889 
Q 3016 1369 3016 2328 
Q 3016 3291 2770 3770 
Q 2525 4250 2034 4250 
z
M 2034 4750 
Q 2819 4750 3233 4129 
Q 3647 3509 3647 2328 
Q 3647 1150 3233 529 
Q 2819 -91 2034 -91 
Q 1250 -91 836 529 
Q 422 1150 422 2328 
Q 422 3509 836 4129 
Q 1250 4750 2034 4750 
z
" transform="scale(0.015625)"/>
        <path id="DejaVuSans-2e" d="M 684 794 
L 1344 794 
L 1344 0 
L 684 0 
L 684 794 
z
" transform="scale(0.015625)"/>
       </defs>
       <use xlink:href="#DejaVuSans-30"/>
       <use xlink:href="#DejaVuSans-2e" x="63.623047"/>
       <use xlink:href="#DejaVuSans-30" x="95.410156"/>
      </g>
     </g>
    </g>
    <g id="xtick_2">
     <g id="line2d_2">
      <g>
       <use xlink:href="#m99c6e7e799" x="258.475963" y="768.96" style="stroke: #000000; stroke-width: 0.8"/>
      </g>
     </g>
     <g id="text_2">
      <!-- 0.2 -->
      <g transform="translate(250.524401 783.558437)scale(0.1 -0.1)">
       <defs>
        <path id="DejaVuSans-32" d="M 1228 531 
L 3431 531 
L 3431 0 
L 469 0 
L 469 531 
Q 828 903 1448 1529 
Q 2069 2156 2228 2338 
Q 2531 2678 2651 2914 
Q 2772 3150 2772 3378 
Q 2772 3750 2511 3984 
Q 2250 4219 1831 4219 
Q 1534 4219 1204 4116 
Q 875 4013 500 3803 
L 500 4441 
Q 881 4594 1212 4672 
Q 1544 4750 1819 4750 
Q 2544 4750 2975 4387 
Q 3406 4025 3406 3419 
Q 3406 3131 3298 2873 
Q 3191 2616 2906 2266 
Q 2828 2175 2409 1742 
Q 1991 1309 1228 531 
z
" transform="scale(0.015625)"/>
       </defs>
       <use xlink:href="#DejaVuSans-30"/>
       <use xlink:href="#DejaVuSans-2e" x="63.623047"/>
       <use xlink:href="#DejaVuSans-32" x="95.410156"/>
      </g>
     </g>
    </g>
    <g id="xtick_3">
     <g id="line2d_3">
      <g>
       <use xlink:href="#m99c6e7e799" x="377.852638" y="768.96" style="stroke: #000000; stroke-width: 0.8"/>
      </g>
     </g>
     <g id="text_3">
      <!-- 0.4 -->
      <g transform="translate(369.901075 783.558437)scale(0.1 -0.1)">
       <defs>
        <path id="DejaVuSans-34" d="M 2419 4116 
L 825 1625 
L 2419 1625 
L 2419 4116 
z
M 2253 4666 
L 3047 4666 
L 3047 1625 
L 3713 1625 
L 3713 1100 
L 3047 1100 
L 3047 0 
L 2419 0 
L 2419 1100 
L 313 1100 
L 313 1709 
L 2253 4666 
z
" transform="scale(0.015625)"/>
       </defs>
       <use xlink:href="#DejaVuSans-30"/>
       <use xlink:href="#DejaVuSans-2e" x="63.623047"/>
       <use xlink:href="#DejaVuSans-34" x="95.410156"/>
      </g>
     </g>
    </g>
    <g id="xtick_4">
     <g id="line2d_4">
      <g>
       <use xlink:href="#m99c6e7e799" x="497.229312" y="768.96" style="stroke: #000000; stroke-width: 0.8"/>
      </g>
     </g>
     <g id="text_4">
      <!-- 0.6 -->
      <g transform="translate(489.277749 783.558437)scale(0.1 -0.1)">
       <defs>
        <path id="DejaVuSans-36" d="M 2113 2584 
Q 1688 2584 1439 2293 
Q 1191 2003 1191 1497 
Q 1191 994 1439 701 
Q 1688 409 2113 409 
Q 2538 409 2786 701 
Q 3034 994 3034 1497 
Q 3034 2003 2786 2293 
Q 2538 2584 2113 2584 
z
M 3366 4563 
L 3366 3988 
Q 3128 4100 2886 4159 
Q 2644 4219 2406 4219 
Q 1781 4219 1451 3797 
Q 1122 3375 1075 2522 
Q 1259 2794 1537 2939 
Q 1816 3084 2150 3084 
Q 2853 3084 3261 2657 
Q 3669 2231 3669 1497 
Q 3669 778 3244 343 
Q 2819 -91 2113 -91 
Q 1303 -91 875 529 
Q 447 1150 447 2328 
Q 447 3434 972 4092 
Q 1497 4750 2381 4750 
Q 2619 4750 2861 4703 
Q 3103 4656 3366 4563 
z
" transform="scale(0.015625)"/>
       </defs>
       <use xlink:href="#DejaVuSans-30"/>
       <use xlink:href="#DejaVuSans-2e" x="63.623047"/>
       <use xlink:href="#DejaVuSans-36" x="95.410156"/>
      </g>
     </g>
    </g>
    <g id="xtick_5">
     <g id="line2d_5">
      <g>
       <use xlink:href="#m99c6e7e799" x="616.605986" y="768.96" style="stroke: #000000; stroke-width: 0.8"/>
      </g>
     </g>
     <g id="text_5">
      <!-- 0.8 -->
      <g transform="translate(608.654423 783.558437)scale(0.1 -0.1)">
       <defs>
        <path id="DejaVuSans-38" d="M 2034 2216 
Q 1584 2216 1326 1975 
Q 1069 1734 1069 1313 
Q 1069 891 1326 650 
Q 1584 409 2034 409 
Q 2484 409 2743 651 
Q 3003 894 3003 1313 
Q 3003 1734 2745 1975 
Q 2488 2216 2034 2216 
z
M 1403 2484 
Q 997 2584 770 2862 
Q 544 3141 544 3541 
Q 544 4100 942 4425 
Q 1341 4750 2034 4750 
Q 2731 4750 3128 4425 
Q 3525 4100 3525 3541 
Q 3525 3141 3298 2862 
Q 3072 2584 2669 2484 
Q 3125 2378 3379 2068 
Q 3634 1759 3634 1313 
Q 3634 634 3220 271 
Q 2806 -91 2034 -91 
Q 1263 -91 848 271 
Q 434 634 434 1313 
Q 434 1759 690 2068 
Q 947 2378 1403 2484 
z
M 1172 3481 
Q 1172 3119 1398 2916 
Q 1625 2713 2034 2713 
Q 2441 2713 2670 2916 
Q 2900 3119 2900 3481 
Q 2900 3844 2670 4047 
Q 2441 4250 2034 4250 
Q 1625 4250 1398 4047 
Q 1172 3844 1172 3481 
z
" transform="scale(0.015625)"/>
       </defs>
       <use xlink:href="#DejaVuSans-30"/>
       <use xlink:href="#DejaVuSans-2e" x="63.623047"/>
       <use xlink:href="#DejaVuSans-38" x="95.410156"/>
      </g>
     </g>
    </g>
    <g id="xtick_6">
     <g id="line2d_6">
      <g>
       <use xlink:href="#m99c6e7e799" x="735.98266" y="768.96" style="stroke: #000000; stroke-width: 0.8"/>
      </g>
     </g>
     <g id="text_6">
      <!-- 1.0 -->
      <g transform="translate(728.031098 783.558437)scale(0.1 -0.1)">
       <defs>
        <path id="DejaVuSans-31" d="M 794 531 
L 1825 531 
L 1825 4091 
L 703 3866 
L 703 4441 
L 1819 4666 
L 2450 4666 
L 2450 531 
L 3481 531 
L 3481 0 
L 794 0 
L 794 531 
z
" transform="scale(0.015625)"/>
       </defs>
       <use xlink:href="#DejaVuSans-31"/>
       <use xlink:href="#DejaVuSans-2e" x="63.623047"/>
       <use xlink:href="#DejaVuSans-30" x="95.410156"/>
      </g>
     </g>
    </g>
    <g id="text_7">
     <!-- Similarity -->
     <g transform="translate(404.97625 801.795625)scale(0.16 -0.16)">
      <defs>
       <path id="DejaVuSans-53" d="M 3425 4513 
L 3425 3897 
Q 3066 4069 2747 4153 
Q 2428 4238 2131 4238 
Q 1616 4238 1336 4038 
Q 1056 3838 1056 3469 
Q 1056 3159 1242 3001 
Q 1428 2844 1947 2747 
L 2328 2669 
Q 3034 2534 3370 2195 
Q 3706 1856 3706 1288 
Q 3706 609 3251 259 
Q 2797 -91 1919 -91 
Q 1588 -91 1214 -16 
Q 841 59 441 206 
L 441 856 
Q 825 641 1194 531 
Q 1563 422 1919 422 
Q 2459 422 2753 634 
Q 3047 847 3047 1241 
Q 3047 1584 2836 1778 
Q 2625 1972 2144 2069 
L 1759 2144 
Q 1053 2284 737 2584 
Q 422 2884 422 3419 
Q 422 4038 858 4394 
Q 1294 4750 2059 4750 
Q 2388 4750 2728 4690 
Q 3069 4631 3425 4513 
z
" transform="scale(0.015625)"/>
       <path id="DejaVuSans-69" d="M 603 3500 
L 1178 3500 
L 1178 0 
L 603 0 
L 603 3500 
z
M 603 4863 
L 1178 4863 
L 1178 4134 
L 603 4134 
L 603 4863 
z
" transform="scale(0.015625)"/>
       <path id="DejaVuSans-6d" d="M 3328 2828 
Q 3544 3216 3844 3400 
Q 4144 3584 4550 3584 
Q 5097 3584 5394 3201 
Q 5691 2819 5691 2113 
L 5691 0 
L 5113 0 
L 5113 2094 
Q 5113 2597 4934 2840 
Q 4756 3084 4391 3084 
Q 3944 3084 3684 2787 
Q 3425 2491 3425 1978 
L 3425 0 
L 2847 0 
L 2847 2094 
Q 2847 2600 2669 2842 
Q 2491 3084 2119 3084 
Q 1678 3084 1418 2786 
Q 1159 2488 1159 1978 
L 1159 0 
L 581 0 
L 581 3500 
L 1159 3500 
L 1159 2956 
Q 1356 3278 1631 3431 
Q 1906 3584 2284 3584 
Q 2666 3584 2933 3390 
Q 3200 3197 3328 2828 
z
" transform="scale(0.015625)"/>
       <path id="DejaVuSans-6c" d="M 603 4863 
L 1178 4863 
L 1178 0 
L 603 0 
L 603 4863 
z
" transform="scale(0.015625)"/>
       <path id="DejaVuSans-61" d="M 2194 1759 
Q 1497 1759 1228 1600 
Q 959 1441 959 1056 
Q 959 750 1161 570 
Q 1363 391 1709 391 
Q 2188 391 2477 730 
Q 2766 1069 2766 1631 
L 2766 1759 
L 2194 1759 
z
M 3341 1997 
L 3341 0 
L 2766 0 
L 2766 531 
Q 2569 213 2275 61 
Q 1981 -91 1556 -91 
Q 1019 -91 701 211 
Q 384 513 384 1019 
Q 384 1609 779 1909 
Q 1175 2209 1959 2209 
L 2766 2209 
L 2766 2266 
Q 2766 2663 2505 2880 
Q 2244 3097 1772 3097 
Q 1472 3097 1187 3025 
Q 903 2953 641 2809 
L 641 3341 
Q 956 3463 1253 3523 
Q 1550 3584 1831 3584 
Q 2591 3584 2966 3190 
Q 3341 2797 3341 1997 
z
" transform="scale(0.015625)"/>
       <path id="DejaVuSans-72" d="M 2631 2963 
Q 2534 3019 2420 3045 
Q 2306 3072 2169 3072 
Q 1681 3072 1420 2755 
Q 1159 2438 1159 1844 
L 1159 0 
L 581 0 
L 581 3500 
L 1159 3500 
L 1159 2956 
Q 1341 3275 1631 3429 
Q 1922 3584 2338 3584 
Q 2397 3584 2469 3576 
Q 2541 3569 2628 3553 
L 2631 2963 
z
" transform="scale(0.015625)"/>
       <path id="DejaVuSans-74" d="M 1172 4494 
L 1172 3500 
L 2356 3500 
L 2356 3053 
L 1172 3053 
L 1172 1153 
Q 1172 725 1289 603 
Q 1406 481 1766 481 
L 2356 481 
L 2356 0 
L 1766 0 
Q 1100 0 847 248 
Q 594 497 594 1153 
L 594 3053 
L 172 3053 
L 172 3500 
L 594 3500 
L 594 4494 
L 1172 4494 
z
" transform="scale(0.015625)"/>
       <path id="DejaVuSans-79" d="M 2059 -325 
Q 1816 -950 1584 -1140 
Q 1353 -1331 966 -1331 
L 506 -1331 
L 506 -850 
L 844 -850 
Q 1081 -850 1212 -737 
Q 1344 -625 1503 -206 
L 1606 56 
L 191 3500 
L 800 3500 
L 1894 763 
L 2988 3500 
L 3597 3500 
L 2059 -325 
z
" transform="scale(0.015625)"/>
      </defs>
      <use xlink:href="#DejaVuSans-53"/>
      <use xlink:href="#DejaVuSans-69" x="63.476562"/>
      <use xlink:href="#DejaVuSans-6d" x="91.259766"/>
      <use xlink:href="#DejaVuSans-69" x="188.671875"/>
      <use xlink:href="#DejaVuSans-6c" x="216.455078"/>
      <use xlink:href="#DejaVuSans-61" x="244.238281"/>
      <use xlink:href="#DejaVuSans-72" x="305.517578"/>
      <use xlink:href="#DejaVuSans-69" x="346.630859"/>
      <use xlink:href="#DejaVuSans-74" x="374.414062"/>
      <use xlink:href="#DejaVuSans-79" x="413.623047"/>
     </g>
    </g>
   </g>
   <g id="matplotlib.axis_2">
    <g id="ytick_1">
     <g id="line2d_7">
      <defs>
       <path id="mc246a1c5bf" d="M 0 0 
L -3.5 0 
" style="stroke: #000000; stroke-width: 0.8"/>
      </defs>
      <g>
       <use xlink:href="#mc246a1c5bf" x="108" y="768.96" style="stroke: #000000; stroke-width: 0.8"/>
      </g>
     </g>
     <g id="text_8">
      <!-- 0.0 -->
      <g transform="translate(85.096875 772.759219)scale(0.1 -0.1)">
       <use xlink:href="#DejaVuSans-30"/>
       <use xlink:href="#DejaVuSans-2e" x="63.623047"/>
       <use xlink:href="#DejaVuSans-30" x="95.410156"/>
      </g>
     </g>
    </g>
    <g id="ytick_2">
     <g id="line2d_8">
      <g>
       <use xlink:href="#mc246a1c5bf" x="108" y="679.153563" style="stroke: #000000; stroke-width: 0.8"/>
      </g>
     </g>
     <g id="text_9">
      <!-- 0.5 -->
      <g transform="translate(85.096875 682.952782)scale(0.1 -0.1)">
       <defs>
        <path id="DejaVuSans-35" d="M 691 4666 
L 3169 4666 
L 3169 4134 
L 1269 4134 
L 1269 2991 
Q 1406 3038 1543 3061 
Q 1681 3084 1819 3084 
Q 2600 3084 3056 2656 
Q 3513 2228 3513 1497 
Q 3513 744 3044 326 
Q 2575 -91 1722 -91 
Q 1428 -91 1123 -41 
Q 819 9 494 109 
L 494 744 
Q 775 591 1075 516 
Q 1375 441 1709 441 
Q 2250 441 2565 725 
Q 2881 1009 2881 1497 
Q 2881 1984 2565 2268 
Q 2250 2553 1709 2553 
Q 1456 2553 1204 2497 
Q 953 2441 691 2322 
L 691 4666 
z
" transform="scale(0.015625)"/>
       </defs>
       <use xlink:href="#DejaVuSans-30"/>
       <use xlink:href="#DejaVuSans-2e" x="63.623047"/>
       <use xlink:href="#DejaVuSans-35" x="95.410156"/>
      </g>
     </g>
    </g>
    <g id="ytick_3">
     <g id="line2d_9">
      <g>
       <use xlink:href="#mc246a1c5bf" x="108" y="589.347126" style="stroke: #000000; stroke-width: 0.8"/>
      </g>
     </g>
     <g id="text_10">
      <!-- 1.0 -->
      <g transform="translate(85.096875 593.146345)scale(0.1 -0.1)">
       <use xlink:href="#DejaVuSans-31"/>
       <use xlink:href="#DejaVuSans-2e" x="63.623047"/>
       <use xlink:href="#DejaVuSans-30" x="95.410156"/>
      </g>
     </g>
    </g>
    <g id="ytick_4">
     <g id="line2d_10">
      <g>
       <use xlink:href="#mc246a1c5bf" x="108" y="499.54069" style="stroke: #000000; stroke-width: 0.8"/>
      </g>
     </g>
     <g id="text_11">
      <!-- 1.5 -->
      <g transform="translate(85.096875 503.339908)scale(0.1 -0.1)">
       <use xlink:href="#DejaVuSans-31"/>
       <use xlink:href="#DejaVuSans-2e" x="63.623047"/>
       <use xlink:href="#DejaVuSans-35" x="95.410156"/>
      </g>
     </g>
    </g>
    <g id="ytick_5">
     <g id="line2d_11">
      <g>
       <use xlink:href="#mc246a1c5bf" x="108" y="409.734253" style="stroke: #000000; stroke-width: 0.8"/>
      </g>
     </g>
     <g id="text_12">
      <!-- 2.0 -->
      <g transform="translate(85.096875 413.533471)scale(0.1 -0.1)">
       <use xlink:href="#DejaVuSans-32"/>
       <use xlink:href="#DejaVuSans-2e" x="63.623047"/>
       <use xlink:href="#DejaVuSans-30" x="95.410156"/>
      </g>
     </g>
    </g>
    <g id="ytick_6">
     <g id="line2d_12">
      <g>
       <use xlink:href="#mc246a1c5bf" x="108" y="319.927816" style="stroke: #000000; stroke-width: 0.8"/>
      </g>
     </g>
     <g id="text_13">
      <!-- 2.5 -->
      <g transform="translate(85.096875 323.727035)scale(0.1 -0.1)">
       <use xlink:href="#DejaVuSans-32"/>
       <use xlink:href="#DejaVuSans-2e" x="63.623047"/>
       <use xlink:href="#DejaVuSans-35" x="95.410156"/>
      </g>
     </g>
    </g>
    <g id="ytick_7">
     <g id="line2d_13">
      <g>
       <use xlink:href="#mc246a1c5bf" x="108" y="230.121379" style="stroke: #000000; stroke-width: 0.8"/>
      </g>
     </g>
     <g id="text_14">
      <!-- 3.0 -->
      <g transform="translate(85.096875 233.920598)scale(0.1 -0.1)">
       <defs>
        <path id="DejaVuSans-33" d="M 2597 2516 
Q 3050 2419 3304 2112 
Q 3559 1806 3559 1356 
Q 3559 666 3084 287 
Q 2609 -91 1734 -91 
Q 1441 -91 1130 -33 
Q 819 25 488 141 
L 488 750 
Q 750 597 1062 519 
Q 1375 441 1716 441 
Q 2309 441 2620 675 
Q 2931 909 2931 1356 
Q 2931 1769 2642 2001 
Q 2353 2234 1838 2234 
L 1294 2234 
L 1294 2753 
L 1863 2753 
Q 2328 2753 2575 2939 
Q 2822 3125 2822 3475 
Q 2822 3834 2567 4026 
Q 2313 4219 1838 4219 
Q 1578 4219 1281 4162 
Q 984 4106 628 3988 
L 628 4550 
Q 988 4650 1302 4700 
Q 1616 4750 1894 4750 
Q 2613 4750 3031 4423 
Q 3450 4097 3450 3541 
Q 3450 3153 3228 2886 
Q 3006 2619 2597 2516 
z
" transform="scale(0.015625)"/>
       </defs>
       <use xlink:href="#DejaVuSans-33"/>
       <use xlink:href="#DejaVuSans-2e" x="63.623047"/>
       <use xlink:href="#DejaVuSans-30" x="95.410156"/>
      </g>
     </g>
    </g>
    <g id="ytick_8">
     <g id="line2d_14">
      <g>
       <use xlink:href="#mc246a1c5bf" x="108" y="140.314942" style="stroke: #000000; stroke-width: 0.8"/>
      </g>
     </g>
     <g id="text_15">
      <!-- 3.5 -->
      <g transform="translate(85.096875 144.114161)scale(0.1 -0.1)">
       <use xlink:href="#DejaVuSans-33"/>
       <use xlink:href="#DejaVuSans-2e" x="63.623047"/>
       <use xlink:href="#DejaVuSans-35" x="95.410156"/>
      </g>
     </g>
    </g>
    <g id="text_16">
     <!-- Density -->
     <g transform="translate(77.769375 466.73375)rotate(-90)scale(0.16 -0.16)">
      <defs>
       <path id="DejaVuSans-44" d="M 1259 4147 
L 1259 519 
L 2022 519 
Q 2988 519 3436 956 
Q 3884 1394 3884 2338 
Q 3884 3275 3436 3711 
Q 2988 4147 2022 4147 
L 1259 4147 
z
M 628 4666 
L 1925 4666 
Q 3281 4666 3915 4102 
Q 4550 3538 4550 2338 
Q 4550 1131 3912 565 
Q 3275 0 1925 0 
L 628 0 
L 628 4666 
z
" transform="scale(0.015625)"/>
       <path id="DejaVuSans-65" d="M 3597 1894 
L 3597 1613 
L 953 1613 
Q 991 1019 1311 708 
Q 1631 397 2203 397 
Q 2534 397 2845 478 
Q 3156 559 3463 722 
L 3463 178 
Q 3153 47 2828 -22 
Q 2503 -91 2169 -91 
Q 1331 -91 842 396 
Q 353 884 353 1716 
Q 353 2575 817 3079 
Q 1281 3584 2069 3584 
Q 2775 3584 3186 3129 
Q 3597 2675 3597 1894 
z
M 3022 2063 
Q 3016 2534 2758 2815 
Q 2500 3097 2075 3097 
Q 1594 3097 1305 2825 
Q 1016 2553 972 2059 
L 3022 2063 
z
" transform="scale(0.015625)"/>
       <path id="DejaVuSans-6e" d="M 3513 2113 
L 3513 0 
L 2938 0 
L 2938 2094 
Q 2938 2591 2744 2837 
Q 2550 3084 2163 3084 
Q 1697 3084 1428 2787 
Q 1159 2491 1159 1978 
L 1159 0 
L 581 0 
L 581 3500 
L 1159 3500 
L 1159 2956 
Q 1366 3272 1645 3428 
Q 1925 3584 2291 3584 
Q 2894 3584 3203 3211 
Q 3513 2838 3513 2113 
z
" transform="scale(0.015625)"/>
       <path id="DejaVuSans-73" d="M 2834 3397 
L 2834 2853 
Q 2591 2978 2328 3040 
Q 2066 3103 1784 3103 
Q 1356 3103 1142 2972 
Q 928 2841 928 2578 
Q 928 2378 1081 2264 
Q 1234 2150 1697 2047 
L 1894 2003 
Q 2506 1872 2764 1633 
Q 3022 1394 3022 966 
Q 3022 478 2636 193 
Q 2250 -91 1575 -91 
Q 1294 -91 989 -36 
Q 684 19 347 128 
L 347 722 
Q 666 556 975 473 
Q 1284 391 1588 391 
Q 1994 391 2212 530 
Q 2431 669 2431 922 
Q 2431 1156 2273 1281 
Q 2116 1406 1581 1522 
L 1381 1569 
Q 847 1681 609 1914 
Q 372 2147 372 2553 
Q 372 3047 722 3315 
Q 1072 3584 1716 3584 
Q 2034 3584 2315 3537 
Q 2597 3491 2834 3397 
z
" transform="scale(0.015625)"/>
      </defs>
      <use xlink:href="#DejaVuSans-44"/>
      <use xlink:href="#DejaVuSans-65" x="77.001953"/>
      <use xlink:href="#DejaVuSans-6e" x="138.525391"/>
      <use xlink:href="#DejaVuSans-73" x="201.904297"/>
      <use xlink:href="#DejaVuSans-69" x="254.003906"/>
      <use xlink:href="#DejaVuSans-74" x="281.787109"/>
      <use xlink:href="#DejaVuSans-79" x="320.996094"/>
     </g>
    </g>
   </g>
   <g id="patch_3">
    <path d="M 108 768.96 
L 108 103.68 
" style="fill: none; stroke: #000000; stroke-width: 0.8; stroke-linejoin: miter; stroke-linecap: square"/>
   </g>
   <g id="patch_4">
    <path d="M 777.6 768.96 
L 777.6 103.68 
" style="fill: none; stroke: #000000; stroke-width: 0.8; stroke-linejoin: miter; stroke-linecap: square"/>
   </g>
   <g id="patch_5">
    <path d="M 108 768.96 
L 777.6 768.96 
" style="fill: none; stroke: #000000; stroke-width: 0.8; stroke-linejoin: miter; stroke-linecap: square"/>
   </g>
   <g id="patch_6">
    <path d="M 108 103.68 
L 777.6 103.68 
" style="fill: none; stroke: #000000; stroke-width: 0.8; stroke-linejoin: miter; stroke-linecap: square"/>
   </g>
   <g id="legend_1">
    <g id="patch_7">
     <path d="M 484.15 186.935 
L 766.4 186.935 
Q 769.6 186.935 769.6 183.735 
L 769.6 114.88 
Q 769.6 111.68 766.4 111.68 
L 484.15 111.68 
Q 480.95 111.68 480.95 114.88 
L 480.95 183.735 
Q 480.95 186.935 484.15 186.935 
z
" style="fill: #ffffff; opacity: 0.8; stroke: #cccccc; stroke-linejoin: miter"/>
    </g>
    <g id="patch_8">
     <path d="M 487.35 130.2375 
L 519.35 130.2375 
L 519.35 119.0375 
L 487.35 119.0375 
z
" style="fill: #0000ff; fill-opacity: 0.25; stroke: #0000ff; stroke-width: 3; stroke-linejoin: miter"/>
    </g>
    <g id="text_17">
     <!-- Training vs Test set similarity -->
     <g transform="translate(532.15 130.2375)scale(0.16 -0.16)">
      <defs>
       <path id="DejaVuSans-54" d="M -19 4666 
L 3928 4666 
L 3928 4134 
L 2272 4134 
L 2272 0 
L 1638 0 
L 1638 4134 
L -19 4134 
L -19 4666 
z
" transform="scale(0.015625)"/>
       <path id="DejaVuSans-67" d="M 2906 1791 
Q 2906 2416 2648 2759 
Q 2391 3103 1925 3103 
Q 1463 3103 1205 2759 
Q 947 2416 947 1791 
Q 947 1169 1205 825 
Q 1463 481 1925 481 
Q 2391 481 2648 825 
Q 2906 1169 2906 1791 
z
M 3481 434 
Q 3481 -459 3084 -895 
Q 2688 -1331 1869 -1331 
Q 1566 -1331 1297 -1286 
Q 1028 -1241 775 -1147 
L 775 -588 
Q 1028 -725 1275 -790 
Q 1522 -856 1778 -856 
Q 2344 -856 2625 -561 
Q 2906 -266 2906 331 
L 2906 616 
Q 2728 306 2450 153 
Q 2172 0 1784 0 
Q 1141 0 747 490 
Q 353 981 353 1791 
Q 353 2603 747 3093 
Q 1141 3584 1784 3584 
Q 2172 3584 2450 3431 
Q 2728 3278 2906 2969 
L 2906 3500 
L 3481 3500 
L 3481 434 
z
" transform="scale(0.015625)"/>
       <path id="DejaVuSans-20" transform="scale(0.015625)"/>
       <path id="DejaVuSans-76" d="M 191 3500 
L 800 3500 
L 1894 563 
L 2988 3500 
L 3597 3500 
L 2284 0 
L 1503 0 
L 191 3500 
z
" transform="scale(0.015625)"/>
      </defs>
      <use xlink:href="#DejaVuSans-54"/>
      <use xlink:href="#DejaVuSans-72" x="46.333984"/>
      <use xlink:href="#DejaVuSans-61" x="87.447266"/>
      <use xlink:href="#DejaVuSans-69" x="148.726562"/>
      <use xlink:href="#DejaVuSans-6e" x="176.509766"/>
      <use xlink:href="#DejaVuSans-69" x="239.888672"/>
      <use xlink:href="#DejaVuSans-6e" x="267.671875"/>
      <use xlink:href="#DejaVuSans-67" x="331.050781"/>
      <use xlink:href="#DejaVuSans-20" x="394.527344"/>
      <use xlink:href="#DejaVuSans-76" x="426.314453"/>
      <use xlink:href="#DejaVuSans-73" x="485.494141"/>
      <use xlink:href="#DejaVuSans-20" x="537.59375"/>
      <use xlink:href="#DejaVuSans-54" x="569.380859"/>
      <use xlink:href="#DejaVuSans-65" x="613.464844"/>
      <use xlink:href="#DejaVuSans-73" x="674.988281"/>
      <use xlink:href="#DejaVuSans-74" x="727.087891"/>
      <use xlink:href="#DejaVuSans-20" x="766.296875"/>
      <use xlink:href="#DejaVuSans-73" x="798.083984"/>
      <use xlink:href="#DejaVuSans-65" x="850.183594"/>
      <use xlink:href="#DejaVuSans-74" x="911.707031"/>
      <use xlink:href="#DejaVuSans-20" x="950.916016"/>
      <use xlink:href="#DejaVuSans-73" x="982.703125"/>
      <use xlink:href="#DejaVuSans-69" x="1034.802734"/>
      <use xlink:href="#DejaVuSans-6d" x="1062.585938"/>
      <use xlink:href="#DejaVuSans-69" x="1159.998047"/>
      <use xlink:href="#DejaVuSans-6c" x="1187.78125"/>
      <use xlink:href="#DejaVuSans-61" x="1215.564453"/>
      <use xlink:href="#DejaVuSans-72" x="1276.84375"/>
      <use xlink:href="#DejaVuSans-69" x="1317.957031"/>
      <use xlink:href="#DejaVuSans-74" x="1345.740234"/>
      <use xlink:href="#DejaVuSans-79" x="1384.949219"/>
     </g>
    </g>
    <g id="patch_9">
     <path d="M 487.35 153.7225 
L 519.35 153.7225 
L 519.35 142.5225 
L 487.35 142.5225 
z
" style="fill: #ff0000; fill-opacity: 0.25; stroke: #ff0000; stroke-width: 3; stroke-linejoin: miter"/>
    </g>
    <g id="text_18">
     <!-- Training set inner similarity -->
     <g transform="translate(532.15 153.7225)scale(0.16 -0.16)">
      <use xlink:href="#DejaVuSans-54"/>
      <use xlink:href="#DejaVuSans-72" x="46.333984"/>
      <use xlink:href="#DejaVuSans-61" x="87.447266"/>
      <use xlink:href="#DejaVuSans-69" x="148.726562"/>
      <use xlink:href="#DejaVuSans-6e" x="176.509766"/>
      <use xlink:href="#DejaVuSans-69" x="239.888672"/>
      <use xlink:href="#DejaVuSans-6e" x="267.671875"/>
      <use xlink:href="#DejaVuSans-67" x="331.050781"/>
      <use xlink:href="#DejaVuSans-20" x="394.527344"/>
      <use xlink:href="#DejaVuSans-73" x="426.314453"/>
      <use xlink:href="#DejaVuSans-65" x="478.414062"/>
      <use xlink:href="#DejaVuSans-74" x="539.9375"/>
      <use xlink:href="#DejaVuSans-20" x="579.146484"/>
      <use xlink:href="#DejaVuSans-69" x="610.933594"/>
      <use xlink:href="#DejaVuSans-6e" x="638.716797"/>
      <use xlink:href="#DejaVuSans-6e" x="702.095703"/>
      <use xlink:href="#DejaVuSans-65" x="765.474609"/>
      <use xlink:href="#DejaVuSans-72" x="826.998047"/>
      <use xlink:href="#DejaVuSans-20" x="868.111328"/>
      <use xlink:href="#DejaVuSans-73" x="899.898438"/>
      <use xlink:href="#DejaVuSans-69" x="951.998047"/>
      <use xlink:href="#DejaVuSans-6d" x="979.78125"/>
      <use xlink:href="#DejaVuSans-69" x="1077.193359"/>
      <use xlink:href="#DejaVuSans-6c" x="1104.976562"/>
      <use xlink:href="#DejaVuSans-61" x="1132.759766"/>
      <use xlink:href="#DejaVuSans-72" x="1194.039062"/>
      <use xlink:href="#DejaVuSans-69" x="1235.152344"/>
      <use xlink:href="#DejaVuSans-74" x="1262.935547"/>
      <use xlink:href="#DejaVuSans-79" x="1302.144531"/>
     </g>
    </g>
    <g id="patch_10">
     <path d="M 487.35 177.2075 
L 519.35 177.2075 
L 519.35 166.0075 
L 487.35 166.0075 
z
" style="fill: #008000; fill-opacity: 0.25; stroke: #008000; stroke-width: 3; stroke-linejoin: miter"/>
    </g>
    <g id="text_19">
     <!-- Test set inner similarity -->
     <g transform="translate(532.15 177.2075)scale(0.16 -0.16)">
      <use xlink:href="#DejaVuSans-54"/>
      <use xlink:href="#DejaVuSans-65" x="44.083984"/>
      <use xlink:href="#DejaVuSans-73" x="105.607422"/>
      <use xlink:href="#DejaVuSans-74" x="157.707031"/>
      <use xlink:href="#DejaVuSans-20" x="196.916016"/>
      <use xlink:href="#DejaVuSans-73" x="228.703125"/>
      <use xlink:href="#DejaVuSans-65" x="280.802734"/>
      <use xlink:href="#DejaVuSans-74" x="342.326172"/>
      <use xlink:href="#DejaVuSans-20" x="381.535156"/>
      <use xlink:href="#DejaVuSans-69" x="413.322266"/>
      <use xlink:href="#DejaVuSans-6e" x="441.105469"/>
      <use xlink:href="#DejaVuSans-6e" x="504.484375"/>
      <use xlink:href="#DejaVuSans-65" x="567.863281"/>
      <use xlink:href="#DejaVuSans-72" x="629.386719"/>
      <use xlink:href="#DejaVuSans-20" x="670.5"/>
      <use xlink:href="#DejaVuSans-73" x="702.287109"/>
      <use xlink:href="#DejaVuSans-69" x="754.386719"/>
      <use xlink:href="#DejaVuSans-6d" x="782.169922"/>
      <use xlink:href="#DejaVuSans-69" x="879.582031"/>
      <use xlink:href="#DejaVuSans-6c" x="907.365234"/>
      <use xlink:href="#DejaVuSans-61" x="935.148438"/>
      <use xlink:href="#DejaVuSans-72" x="996.427734"/>
      <use xlink:href="#DejaVuSans-69" x="1037.541016"/>
      <use xlink:href="#DejaVuSans-74" x="1065.324219"/>
      <use xlink:href="#DejaVuSans-79" x="1104.533203"/>
     </g>
    </g>
   </g>
  </g>
 </g>
 <defs>
  <clipPath id="pa660d0223f">
   <rect x="108" y="103.68" width="669.6" height="665.28"/>
  </clipPath>
 </defs>
</svg>
