<?xml version="1.0" encoding="utf-8" standalone="no"?>
<!DOCTYPE svg PUBLIC "-//W3C//DTD SVG 1.1//EN"
  "http://www.w3.org/Graphics/SVG/1.1/DTD/svg11.dtd">
<svg xmlns:xlink="http://www.w3.org/1999/xlink" width="864pt" height="864pt" viewBox="0 0 864 864" xmlns="http://www.w3.org/2000/svg" version="1.1">
 <metadata>
  <rdf:RDF xmlns:dc="http://purl.org/dc/elements/1.1/" xmlns:cc="http://creativecommons.org/ns#" xmlns:rdf="http://www.w3.org/1999/02/22-rdf-syntax-ns#">
   <cc:Work>
    <dc:type rdf:resource="http://purl.org/dc/dcmitype/StillImage"/>
    <dc:date>2022-02-07T13:00:08.482516</dc:date>
    <dc:format>image/svg+xml</dc:format>
    <dc:creator>
     <cc:Agent>
      <dc:title>Matplotlib v3.5.1, https://matplotlib.org/</dc:title>
     </cc:Agent>
    </dc:creator>
   </cc:Work>
  </rdf:RDF>
 </metadata>
 <defs>
  <style type="text/css">*{stroke-linejoin: round; stroke-linecap: butt}</style>
 </defs>
 <g id="figure_1">
  <g id="patch_1">
   <path d="M 0 864 
L 864 864 
L 864 0 
L 0 0 
z
" style="fill: #ffffff"/>
  </g>
  <g id="axes_1">
   <g id="patch_2">
    <path d="M 108 768.96 
L 777.6 768.96 
L 777.6 103.68 
L 108 103.68 
z
" style="fill: #ffffff"/>
   </g>
   <g id="PolyCollection_1">
    <defs>
     <path id="mf0c6fb823f" d="M 138.436364 -95.040006 
L 138.436364 -95.04 
L 141.475785 -95.04 
L 144.515206 -95.04 
L 147.554627 -95.04 
L 150.594048 -95.04 
L 153.63347 -95.04 
L 156.672891 -95.04 
L 159.712312 -95.04 
L 162.751733 -95.04 
L 165.791154 -95.04 
L 168.830575 -95.04 
L 171.869997 -95.04 
L 174.909418 -95.04 
L 177.948839 -95.04 
L 180.98826 -95.04 
L 184.027681 -95.04 
L 187.067102 -95.04 
L 190.106524 -95.04 
L 193.145945 -95.04 
L 196.185366 -95.04 
L 199.224787 -95.04 
L 202.264208 -95.04 
L 205.303629 -95.04 
L 208.343051 -95.04 
L 211.382472 -95.04 
L 214.421893 -95.04 
L 217.461314 -95.04 
L 220.500735 -95.04 
L 223.540156 -95.04 
L 226.579578 -95.04 
L 229.618999 -95.04 
L 232.65842 -95.04 
L 235.697841 -95.04 
L 238.737262 -95.04 
L 241.776684 -95.04 
L 244.816105 -95.04 
L 247.855526 -95.04 
L 250.894947 -95.04 
L 253.934368 -95.04 
L 256.973789 -95.04 
L 260.013211 -95.04 
L 263.052632 -95.04 
L 266.092053 -95.04 
L 269.131474 -95.04 
L 272.170895 -95.04 
L 275.210316 -95.04 
L 278.249738 -95.04 
L 281.289159 -95.04 
L 284.32858 -95.04 
L 287.368001 -95.04 
L 290.407422 -95.04 
L 293.446843 -95.04 
L 296.486265 -95.04 
L 299.525686 -95.04 
L 302.565107 -95.04 
L 305.604528 -95.04 
L 308.643949 -95.04 
L 311.683371 -95.04 
L 314.722792 -95.04 
L 317.762213 -95.04 
L 320.801634 -95.04 
L 323.841055 -95.04 
L 326.880476 -95.04 
L 329.919898 -95.04 
L 332.959319 -95.04 
L 335.99874 -95.04 
L 339.038161 -95.04 
L 342.077582 -95.04 
L 345.117003 -95.04 
L 348.156425 -95.04 
L 351.195846 -95.04 
L 354.235267 -95.04 
L 357.274688 -95.04 
L 360.314109 -95.04 
L 363.35353 -95.04 
L 366.392952 -95.04 
L 369.432373 -95.04 
L 372.471794 -95.04 
L 375.511215 -95.04 
L 378.550636 -95.04 
L 381.590058 -95.04 
L 384.629479 -95.04 
L 387.6689 -95.04 
L 390.708321 -95.04 
L 393.747742 -95.04 
L 396.787163 -95.04 
L 399.826585 -95.04 
L 402.866006 -95.04 
L 405.905427 -95.04 
L 408.944848 -95.04 
L 411.984269 -95.04 
L 415.02369 -95.04 
L 418.063112 -95.04 
L 421.102533 -95.04 
L 424.141954 -95.04 
L 427.181375 -95.04 
L 430.220796 -95.04 
L 433.260217 -95.04 
L 436.299639 -95.04 
L 439.33906 -95.04 
L 442.378481 -95.04 
L 445.417902 -95.04 
L 448.457323 -95.04 
L 451.496745 -95.04 
L 454.536166 -95.04 
L 457.575587 -95.04 
L 460.615008 -95.04 
L 463.654429 -95.04 
L 466.69385 -95.04 
L 469.733272 -95.04 
L 472.772693 -95.04 
L 475.812114 -95.04 
L 478.851535 -95.04 
L 481.890956 -95.04 
L 484.930377 -95.04 
L 487.969799 -95.04 
L 491.00922 -95.04 
L 494.048641 -95.04 
L 497.088062 -95.04 
L 500.127483 -95.04 
L 503.166904 -95.04 
L 506.206326 -95.04 
L 509.245747 -95.04 
L 512.285168 -95.04 
L 515.324589 -95.04 
L 518.36401 -95.04 
L 521.403431 -95.04 
L 524.442853 -95.04 
L 527.482274 -95.04 
L 530.521695 -95.04 
L 533.561116 -95.04 
L 536.600537 -95.04 
L 539.639959 -95.04 
L 542.67938 -95.04 
L 545.718801 -95.04 
L 548.758222 -95.04 
L 551.797643 -95.04 
L 554.837064 -95.04 
L 557.876486 -95.04 
L 560.915907 -95.04 
L 563.955328 -95.04 
L 566.994749 -95.04 
L 570.03417 -95.04 
L 573.073591 -95.04 
L 576.113013 -95.04 
L 579.152434 -95.04 
L 582.191855 -95.04 
L 585.231276 -95.04 
L 588.270697 -95.04 
L 591.310118 -95.04 
L 594.34954 -95.04 
L 597.388961 -95.04 
L 600.428382 -95.04 
L 603.467803 -95.04 
L 606.507224 -95.04 
L 609.546646 -95.04 
L 612.586067 -95.04 
L 615.625488 -95.04 
L 618.664909 -95.04 
L 621.70433 -95.04 
L 624.743751 -95.04 
L 627.783173 -95.04 
L 630.822594 -95.04 
L 633.862015 -95.04 
L 636.901436 -95.04 
L 639.940857 -95.04 
L 642.980278 -95.04 
L 646.0197 -95.04 
L 649.059121 -95.04 
L 652.098542 -95.04 
L 655.137963 -95.04 
L 658.177384 -95.04 
L 661.216805 -95.04 
L 664.256227 -95.04 
L 667.295648 -95.04 
L 670.335069 -95.04 
L 673.37449 -95.04 
L 676.413911 -95.04 
L 679.453333 -95.04 
L 682.492754 -95.04 
L 685.532175 -95.04 
L 688.571596 -95.04 
L 691.611017 -95.04 
L 694.650438 -95.04 
L 697.68986 -95.04 
L 700.729281 -95.04 
L 703.768702 -95.04 
L 706.808123 -95.04 
L 709.847544 -95.04 
L 712.886965 -95.04 
L 715.926387 -95.04 
L 718.965808 -95.04 
L 722.005229 -95.04 
L 725.04465 -95.04 
L 728.084071 -95.04 
L 731.123492 -95.04 
L 734.162914 -95.04 
L 737.202335 -95.04 
L 740.241756 -95.04 
L 743.281177 -95.04 
L 743.281177 -95.105117 
L 743.281177 -95.105117 
L 740.241756 -96.282601 
L 737.202335 -100.276265 
L 734.162914 -100.253884 
L 731.123492 -97.015344 
L 728.084071 -96.36492 
L 725.04465 -96.70208 
L 722.005229 -97.229803 
L 718.965808 -97.683127 
L 715.926387 -98.147872 
L 712.886965 -98.804962 
L 709.847544 -99.379817 
L 706.808123 -99.757277 
L 703.768702 -99.93684 
L 700.729281 -100.517447 
L 697.68986 -101.765542 
L 694.650438 -103.145302 
L 691.611017 -103.999736 
L 688.571596 -104.507674 
L 685.532175 -105.263283 
L 682.492754 -106.419744 
L 679.453333 -107.827589 
L 676.413911 -109.346981 
L 673.37449 -111.033278 
L 670.335069 -112.536202 
L 667.295648 -114.130218 
L 664.256227 -115.858587 
L 661.216805 -117.45822 
L 658.177384 -119.239275 
L 655.137963 -120.88707 
L 652.098542 -122.417538 
L 649.059121 -123.517939 
L 646.0197 -124.667821 
L 642.980278 -126.416191 
L 639.940857 -127.905924 
L 636.901436 -129.742787 
L 633.862015 -132.120381 
L 630.822594 -134.438032 
L 627.783173 -136.451695 
L 624.743751 -138.118227 
L 621.70433 -139.97832 
L 618.664909 -141.712777 
L 615.625488 -142.532637 
L 612.586067 -142.3881 
L 609.546646 -142.004825 
L 606.507224 -142.236691 
L 603.467803 -143.774003 
L 600.428382 -146.098316 
L 597.388961 -148.820381 
L 594.34954 -151.033929 
L 591.310118 -152.850976 
L 588.270697 -154.460498 
L 585.231276 -156.167182 
L 582.191855 -158.5358 
L 579.152434 -160.989154 
L 576.113013 -162.68979 
L 573.073591 -165.156217 
L 570.03417 -167.208104 
L 566.994749 -168.744766 
L 563.955328 -170.924169 
L 560.915907 -173.694971 
L 557.876486 -176.075736 
L 554.837064 -177.333149 
L 551.797643 -178.643088 
L 548.758222 -179.781262 
L 545.718801 -180.578914 
L 542.67938 -180.482421 
L 539.639959 -180.609673 
L 536.600537 -182.952696 
L 533.561116 -185.609577 
L 530.521695 -187.505895 
L 527.482274 -188.583762 
L 524.442853 -190.103117 
L 521.403431 -191.819522 
L 518.36401 -191.132137 
L 515.324589 -188.742287 
L 512.285168 -186.17891 
L 509.245747 -184.557542 
L 506.206326 -183.704532 
L 503.166904 -184.189455 
L 500.127483 -186.300761 
L 497.088062 -187.391411 
L 494.048641 -189.097004 
L 491.00922 -195.703329 
L 487.969799 -204.814632 
L 484.930377 -213.90246 
L 481.890956 -224.052048 
L 478.851535 -236.36741 
L 475.812114 -252.14921 
L 472.772693 -270.263759 
L 469.733272 -289.632393 
L 466.69385 -304.56061 
L 463.654429 -318.38219 
L 460.615008 -336.300268 
L 457.575587 -356.806152 
L 454.536166 -383.737726 
L 451.496745 -415.569621 
L 448.457323 -446.431852 
L 445.417902 -477.263885 
L 442.378481 -506.844636 
L 439.33906 -531.549835 
L 436.299639 -550.608153 
L 433.260217 -568.329524 
L 430.220796 -588.378812 
L 427.181375 -607.553704 
L 424.141954 -625.214004 
L 421.102533 -644.521192 
L 418.063112 -660.42059 
L 415.02369 -671.507815 
L 411.984269 -683.54389 
L 408.944848 -694.499565 
L 405.905427 -695.56338 
L 402.866006 -690.089281 
L 399.826585 -684.850242 
L 396.787163 -686.545934 
L 393.747742 -689.555516 
L 390.708321 -693.992065 
L 387.6689 -698.636176 
L 384.629479 -696.551747 
L 381.590058 -692.113512 
L 378.550636 -689.231229 
L 375.511215 -689.184448 
L 372.471794 -690.756507 
L 369.432373 -690.594461 
L 366.392952 -689.23007 
L 363.35353 -689.619774 
L 360.314109 -684.332773 
L 357.274688 -672.939876 
L 354.235267 -658.210134 
L 351.195846 -642.523859 
L 348.156425 -627.932686 
L 345.117003 -609.590934 
L 342.077582 -592.840998 
L 339.038161 -579.345016 
L 335.99874 -562.782625 
L 332.959319 -542.105747 
L 329.919898 -521.930877 
L 326.880476 -501.167153 
L 323.841055 -481.060124 
L 320.801634 -461.202401 
L 317.762213 -442.60797 
L 314.722792 -425.57093 
L 311.683371 -409.948779 
L 308.643949 -399.821823 
L 305.604528 -390.563236 
L 302.565107 -377.097612 
L 299.525686 -361.344005 
L 296.486265 -343.405372 
L 293.446843 -325.834666 
L 290.407422 -309.259085 
L 287.368001 -293.644752 
L 284.32858 -277.98582 
L 281.289159 -261.917725 
L 278.249738 -250.002094 
L 275.210316 -241.794396 
L 272.170895 -232.570201 
L 269.131474 -222.490479 
L 266.092053 -214.050843 
L 263.052632 -205.684477 
L 260.013211 -196.678833 
L 256.973789 -187.971074 
L 253.934368 -179.460841 
L 250.894947 -172.558788 
L 247.855526 -166.721798 
L 244.816105 -160.780866 
L 241.776684 -155.077413 
L 238.737262 -148.609981 
L 235.697841 -141.255692 
L 232.65842 -135.327914 
L 229.618999 -130.658585 
L 226.579578 -125.540243 
L 223.540156 -120.228956 
L 220.500735 -115.89199 
L 217.461314 -112.353319 
L 214.421893 -109.192898 
L 211.382472 -106.936613 
L 208.343051 -105.856953 
L 205.303629 -106.551374 
L 202.264208 -107.699557 
L 199.224787 -106.933797 
L 196.185366 -104.441686 
L 193.145945 -101.538277 
L 190.106524 -98.964887 
L 187.067102 -97.165093 
L 184.027681 -96.3413 
L 180.98826 -96.229037 
L 177.948839 -96.262701 
L 174.909418 -95.940186 
L 171.869997 -95.540722 
L 168.830575 -95.370361 
L 165.791154 -95.423967 
L 162.751733 -95.823333 
L 159.712312 -96.014349 
L 156.672891 -95.540074 
L 153.63347 -95.150275 
L 150.594048 -95.055784 
L 147.554627 -95.042742 
L 144.515206 -95.040832 
L 141.475785 -95.040131 
L 138.436364 -95.040006 
z
" style="stroke: #0000ff; stroke-width: 3"/>
    </defs>
    <g clip-path="url(#pc6562b855f)">
     <use xlink:href="#mf0c6fb823f" x="0" y="864" style="fill: #0000ff; fill-opacity: 0.25; stroke: #0000ff; stroke-width: 3"/>
    </g>
   </g>
   <g id="PolyCollection_2">
    <defs>
     <path id="mddbd2e8b9b" d="M 141.300205 -95.040004 
L 141.300205 -95.04 
L 144.320293 -95.04 
L 147.340381 -95.04 
L 150.360469 -95.04 
L 153.380558 -95.04 
L 156.400646 -95.04 
L 159.420734 -95.04 
L 162.440822 -95.04 
L 165.460911 -95.04 
L 168.480999 -95.04 
L 171.501087 -95.04 
L 174.521175 -95.04 
L 177.541264 -95.04 
L 180.561352 -95.04 
L 183.58144 -95.04 
L 186.601528 -95.04 
L 189.621616 -95.04 
L 192.641705 -95.04 
L 195.661793 -95.04 
L 198.681881 -95.04 
L 201.701969 -95.04 
L 204.722058 -95.04 
L 207.742146 -95.04 
L 210.762234 -95.04 
L 213.782322 -95.04 
L 216.802411 -95.04 
L 219.822499 -95.04 
L 222.842587 -95.04 
L 225.862675 -95.04 
L 228.882763 -95.04 
L 231.902852 -95.04 
L 234.92294 -95.04 
L 237.943028 -95.04 
L 240.963116 -95.04 
L 243.983205 -95.04 
L 247.003293 -95.04 
L 250.023381 -95.04 
L 253.043469 -95.04 
L 256.063558 -95.04 
L 259.083646 -95.04 
L 262.103734 -95.04 
L 265.123822 -95.04 
L 268.14391 -95.04 
L 271.163999 -95.04 
L 274.184087 -95.04 
L 277.204175 -95.04 
L 280.224263 -95.04 
L 283.244352 -95.04 
L 286.26444 -95.04 
L 289.284528 -95.04 
L 292.304616 -95.04 
L 295.324705 -95.04 
L 298.344793 -95.04 
L 301.364881 -95.04 
L 304.384969 -95.04 
L 307.405057 -95.04 
L 310.425146 -95.04 
L 313.445234 -95.04 
L 316.465322 -95.04 
L 319.48541 -95.04 
L 322.505499 -95.04 
L 325.525587 -95.04 
L 328.545675 -95.04 
L 331.565763 -95.04 
L 334.585851 -95.04 
L 337.60594 -95.04 
L 340.626028 -95.04 
L 343.646116 -95.04 
L 346.666204 -95.04 
L 349.686293 -95.04 
L 352.706381 -95.04 
L 355.726469 -95.04 
L 358.746557 -95.04 
L 361.766646 -95.04 
L 364.786734 -95.04 
L 367.806822 -95.04 
L 370.82691 -95.04 
L 373.846998 -95.04 
L 376.867087 -95.04 
L 379.887175 -95.04 
L 382.907263 -95.04 
L 385.927351 -95.04 
L 388.94744 -95.04 
L 391.967528 -95.04 
L 394.987616 -95.04 
L 398.007704 -95.04 
L 401.027793 -95.04 
L 404.047881 -95.04 
L 407.067969 -95.04 
L 410.088057 -95.04 
L 413.108145 -95.04 
L 416.128234 -95.04 
L 419.148322 -95.04 
L 422.16841 -95.04 
L 425.188498 -95.04 
L 428.208587 -95.04 
L 431.228675 -95.04 
L 434.248763 -95.04 
L 437.268851 -95.04 
L 440.28894 -95.04 
L 443.309028 -95.04 
L 446.329116 -95.04 
L 449.349204 -95.04 
L 452.369292 -95.04 
L 455.389381 -95.04 
L 458.409469 -95.04 
L 461.429557 -95.04 
L 464.449645 -95.04 
L 467.469734 -95.04 
L 470.489822 -95.04 
L 473.50991 -95.04 
L 476.529998 -95.04 
L 479.550087 -95.04 
L 482.570175 -95.04 
L 485.590263 -95.04 
L 488.610351 -95.04 
L 491.630439 -95.04 
L 494.650528 -95.04 
L 497.670616 -95.04 
L 500.690704 -95.04 
L 503.710792 -95.04 
L 506.730881 -95.04 
L 509.750969 -95.04 
L 512.771057 -95.04 
L 515.791145 -95.04 
L 518.811234 -95.04 
L 521.831322 -95.04 
L 524.85141 -95.04 
L 527.871498 -95.04 
L 530.891586 -95.04 
L 533.911675 -95.04 
L 536.931763 -95.04 
L 539.951851 -95.04 
L 542.971939 -95.04 
L 545.992028 -95.04 
L 549.012116 -95.04 
L 552.032204 -95.04 
L 555.052292 -95.04 
L 558.07238 -95.04 
L 561.092469 -95.04 
L 564.112557 -95.04 
L 567.132645 -95.04 
L 570.152733 -95.04 
L 573.172822 -95.04 
L 576.19291 -95.04 
L 579.212998 -95.04 
L 582.233086 -95.04 
L 585.253175 -95.04 
L 588.273263 -95.04 
L 591.293351 -95.04 
L 594.313439 -95.04 
L 597.333527 -95.04 
L 600.353616 -95.04 
L 603.373704 -95.04 
L 606.393792 -95.04 
L 609.41388 -95.04 
L 612.433969 -95.04 
L 615.454057 -95.04 
L 618.474145 -95.04 
L 621.494233 -95.04 
L 624.514322 -95.04 
L 627.53441 -95.04 
L 630.554498 -95.04 
L 633.574586 -95.04 
L 636.594674 -95.04 
L 639.614763 -95.04 
L 642.634851 -95.04 
L 645.654939 -95.04 
L 648.675027 -95.04 
L 651.695116 -95.04 
L 654.715204 -95.04 
L 657.735292 -95.04 
L 660.75538 -95.04 
L 663.775469 -95.04 
L 666.795557 -95.04 
L 669.815645 -95.04 
L 672.835733 -95.04 
L 675.855821 -95.04 
L 678.87591 -95.04 
L 681.895998 -95.04 
L 684.916086 -95.04 
L 687.936174 -95.04 
L 690.956263 -95.04 
L 693.976351 -95.04 
L 696.996439 -95.04 
L 700.016527 -95.04 
L 703.036616 -95.04 
L 706.056704 -95.04 
L 709.076792 -95.04 
L 712.09688 -95.04 
L 715.116968 -95.04 
L 718.137057 -95.04 
L 721.157145 -95.04 
L 724.177233 -95.04 
L 727.197321 -95.04 
L 730.21741 -95.04 
L 733.237498 -95.04 
L 736.257586 -95.04 
L 739.277674 -95.04 
L 742.297763 -95.04 
L 742.297763 -95.114343 
L 742.297763 -95.114343 
L 739.277674 -96.958314 
L 736.257586 -101.846363 
L 733.237498 -98.95806 
L 730.21741 -96.42085 
L 727.197321 -96.378892 
L 724.177233 -96.741142 
L 721.157145 -97.279311 
L 718.137057 -97.825526 
L 715.116968 -98.335552 
L 712.09688 -99.005652 
L 709.076792 -99.462188 
L 706.056704 -99.699611 
L 703.036616 -99.883698 
L 700.016527 -100.524875 
L 696.996439 -101.558427 
L 693.976351 -102.764565 
L 690.956263 -103.363477 
L 687.936174 -103.874159 
L 684.916086 -104.714671 
L 681.895998 -105.574369 
L 678.87591 -106.661759 
L 675.855821 -108.157712 
L 672.835733 -110.145897 
L 669.815645 -111.646122 
L 666.795557 -113.04613 
L 663.775469 -114.354242 
L 660.75538 -115.839737 
L 657.735292 -117.721557 
L 654.715204 -119.023832 
L 651.695116 -120.208888 
L 648.675027 -121.265121 
L 645.654939 -122.39317 
L 642.634851 -124.054251 
L 639.614763 -125.381298 
L 636.594674 -126.805347 
L 633.574586 -128.803743 
L 630.554498 -131.096331 
L 627.53441 -132.933063 
L 624.514322 -134.209647 
L 621.494233 -135.98184 
L 618.474145 -137.929963 
L 615.454057 -139.062468 
L 612.433969 -139.311942 
L 609.41388 -139.301605 
L 606.393792 -139.753214 
L 603.373704 -141.838112 
L 600.353616 -144.058245 
L 597.333527 -146.392861 
L 594.313439 -148.786898 
L 591.293351 -150.612125 
L 588.273263 -152.064135 
L 585.253175 -153.852547 
L 582.233086 -156.003703 
L 579.212998 -158.248671 
L 576.19291 -160.330235 
L 573.172822 -163.461827 
L 570.152733 -165.682625 
L 567.132645 -167.163617 
L 564.112557 -169.043282 
L 561.092469 -172.324955 
L 558.07238 -175.368638 
L 555.052292 -177.047719 
L 552.032204 -178.514221 
L 549.012116 -179.764767 
L 545.992028 -181.060688 
L 542.971939 -181.942802 
L 539.951851 -181.902838 
L 536.931763 -184.535943 
L 533.911675 -188.65034 
L 530.891586 -192.114568 
L 527.871498 -193.987342 
L 524.85141 -195.758683 
L 521.831322 -198.339805 
L 518.811234 -197.771099 
L 515.791145 -194.837684 
L 512.771057 -192.878694 
L 509.750969 -189.849686 
L 506.730881 -188.059303 
L 503.710792 -188.208633 
L 500.690704 -190.58 
L 497.670616 -193.049799 
L 494.650528 -194.495839 
L 491.630439 -200.720987 
L 488.610351 -211.496477 
L 485.590263 -221.600132 
L 482.570175 -230.681705 
L 479.550087 -240.020873 
L 476.529998 -253.622624 
L 473.50991 -269.518575 
L 470.489822 -288.07011 
L 467.469734 -303.720833 
L 464.449645 -314.068377 
L 461.429557 -328.8051 
L 458.409469 -347.194135 
L 455.389381 -371.572307 
L 452.369292 -399.094452 
L 449.349204 -427.891143 
L 446.329116 -459.721136 
L 443.309028 -488.684118 
L 440.28894 -513.064081 
L 437.268851 -531.703291 
L 434.248763 -545.967371 
L 431.228675 -561.138316 
L 428.208587 -577.955784 
L 425.188498 -591.715155 
L 422.16841 -606.511672 
L 419.148322 -621.637303 
L 416.128234 -632.525572 
L 413.108145 -643.116514 
L 410.088057 -656.47739 
L 407.067969 -662.459612 
L 404.047881 -660.951056 
L 401.027793 -660.055881 
L 398.007704 -663.879733 
L 394.987616 -670.591664 
L 391.967528 -674.693867 
L 388.94744 -682.552496 
L 385.927351 -685.789752 
L 382.907263 -682.662334 
L 379.887175 -679.441093 
L 376.867087 -680.674091 
L 373.846998 -684.665217 
L 370.82691 -689.877089 
L 367.806822 -695.585937 
L 364.786734 -702.768116 
L 361.766646 -705.577132 
L 358.746557 -700.29813 
L 355.726469 -692.390698 
L 352.706381 -680.152216 
L 349.686293 -671.033636 
L 346.666204 -658.335244 
L 343.646116 -637.335622 
L 340.626028 -618.733915 
L 337.60594 -600.344249 
L 334.585851 -576.476936 
L 331.565763 -552.43999 
L 328.545675 -528.839505 
L 325.525587 -504.037044 
L 322.505499 -481.929703 
L 319.48541 -461.180065 
L 316.465322 -441.700979 
L 313.445234 -423.729955 
L 310.425146 -411.667396 
L 307.405057 -403.834432 
L 304.384969 -394.625038 
L 301.364881 -381.053815 
L 298.344793 -362.787687 
L 295.324705 -343.078279 
L 292.304616 -326.01428 
L 289.284528 -309.356693 
L 286.26444 -293.929691 
L 283.244352 -279.650811 
L 280.224263 -266.540972 
L 277.204175 -257.533671 
L 274.184087 -248.811472 
L 271.163999 -237.897983 
L 268.14391 -226.405056 
L 265.123822 -217.244769 
L 262.103734 -209.026211 
L 259.083646 -200.906554 
L 256.063558 -193.270027 
L 253.043469 -184.493558 
L 250.023381 -175.666487 
L 247.003293 -167.921738 
L 243.983205 -160.964421 
L 240.963116 -153.122624 
L 237.943028 -144.705521 
L 234.92294 -136.173936 
L 231.902852 -129.698098 
L 228.882763 -124.665899 
L 225.862675 -120.151374 
L 222.842587 -116.283147 
L 219.822499 -113.577355 
L 216.802411 -110.733087 
L 213.782322 -107.504532 
L 210.762234 -104.633881 
L 207.742146 -102.597733 
L 204.722058 -102.595377 
L 201.701969 -103.097112 
L 198.681881 -102.38413 
L 195.661793 -100.593696 
L 192.641705 -98.594642 
L 189.621616 -97.264107 
L 186.601528 -96.79425 
L 183.58144 -96.777856 
L 180.561352 -97.099093 
L 177.541264 -97.371943 
L 174.521175 -96.684749 
L 171.501087 -95.947836 
L 168.480999 -95.671568 
L 165.460911 -95.806244 
L 162.440822 -96.741016 
L 159.420734 -97.084449 
L 156.400646 -95.886497 
L 153.380558 -95.187957 
L 150.360469 -95.060085 
L 147.340381 -95.042612 
L 144.320293 -95.040194 
L 141.300205 -95.040004 
z
" style="stroke: #ff0000; stroke-width: 3"/>
    </defs>
    <g clip-path="url(#pc6562b855f)">
     <use xlink:href="#mddbd2e8b9b" x="0" y="864" style="fill: #ff0000; fill-opacity: 0.25; stroke: #ff0000; stroke-width: 3"/>
    </g>
   </g>
   <g id="PolyCollection_3">
    <defs>
     <path id="mcffa9ee102" d="M 151.196643 -95.040051 
L 151.196643 -95.04 
L 154.191452 -95.04 
L 157.186261 -95.04 
L 160.18107 -95.04 
L 163.175879 -95.04 
L 166.170688 -95.04 
L 169.165497 -95.04 
L 172.160306 -95.04 
L 175.155115 -95.04 
L 178.149924 -95.04 
L 181.144733 -95.04 
L 184.139542 -95.04 
L 187.134351 -95.04 
L 190.12916 -95.04 
L 193.123969 -95.04 
L 196.118778 -95.04 
L 199.113587 -95.04 
L 202.108396 -95.04 
L 205.103206 -95.04 
L 208.098015 -95.04 
L 211.092824 -95.04 
L 214.087633 -95.04 
L 217.082442 -95.04 
L 220.077251 -95.04 
L 223.07206 -95.04 
L 226.066869 -95.04 
L 229.061678 -95.04 
L 232.056487 -95.04 
L 235.051296 -95.04 
L 238.046105 -95.04 
L 241.040914 -95.04 
L 244.035723 -95.04 
L 247.030532 -95.04 
L 250.025341 -95.04 
L 253.02015 -95.04 
L 256.014959 -95.04 
L 259.009768 -95.04 
L 262.004577 -95.04 
L 264.999386 -95.04 
L 267.994195 -95.04 
L 270.989004 -95.04 
L 273.983813 -95.04 
L 276.978622 -95.04 
L 279.973431 -95.04 
L 282.96824 -95.04 
L 285.963049 -95.04 
L 288.957858 -95.04 
L 291.952667 -95.04 
L 294.947476 -95.04 
L 297.942285 -95.04 
L 300.937094 -95.04 
L 303.931903 -95.04 
L 306.926712 -95.04 
L 309.921521 -95.04 
L 312.91633 -95.04 
L 315.911139 -95.04 
L 318.905948 -95.04 
L 321.900757 -95.04 
L 324.895566 -95.04 
L 327.890375 -95.04 
L 330.885184 -95.04 
L 333.879993 -95.04 
L 336.874802 -95.04 
L 339.869611 -95.04 
L 342.86442 -95.04 
L 345.859229 -95.04 
L 348.854038 -95.04 
L 351.848847 -95.04 
L 354.843656 -95.04 
L 357.838465 -95.04 
L 360.833274 -95.04 
L 363.828083 -95.04 
L 366.822892 -95.04 
L 369.817701 -95.04 
L 372.81251 -95.04 
L 375.807319 -95.04 
L 378.802128 -95.04 
L 381.796937 -95.04 
L 384.791746 -95.04 
L 387.786555 -95.04 
L 390.781364 -95.04 
L 393.776173 -95.04 
L 396.770982 -95.04 
L 399.765791 -95.04 
L 402.7606 -95.04 
L 405.755409 -95.04 
L 408.750218 -95.04 
L 411.745027 -95.04 
L 414.739836 -95.04 
L 417.734645 -95.04 
L 420.729454 -95.04 
L 423.724263 -95.04 
L 426.719072 -95.04 
L 429.713881 -95.04 
L 432.70869 -95.04 
L 435.703499 -95.04 
L 438.698308 -95.04 
L 441.693117 -95.04 
L 444.687926 -95.04 
L 447.682735 -95.04 
L 450.677544 -95.04 
L 453.672353 -95.04 
L 456.667162 -95.04 
L 459.661971 -95.04 
L 462.65678 -95.04 
L 465.651589 -95.04 
L 468.646398 -95.04 
L 471.641207 -95.04 
L 474.636016 -95.04 
L 477.630825 -95.04 
L 480.625634 -95.04 
L 483.620443 -95.04 
L 486.615252 -95.04 
L 489.610061 -95.04 
L 492.60487 -95.04 
L 495.59968 -95.04 
L 498.594489 -95.04 
L 501.589298 -95.04 
L 504.584107 -95.04 
L 507.578916 -95.04 
L 510.573725 -95.04 
L 513.568534 -95.04 
L 516.563343 -95.04 
L 519.558152 -95.04 
L 522.552961 -95.04 
L 525.54777 -95.04 
L 528.542579 -95.04 
L 531.537388 -95.04 
L 534.532197 -95.04 
L 537.527006 -95.04 
L 540.521815 -95.04 
L 543.516624 -95.04 
L 546.511433 -95.04 
L 549.506242 -95.04 
L 552.501051 -95.04 
L 555.49586 -95.04 
L 558.490669 -95.04 
L 561.485478 -95.04 
L 564.480287 -95.04 
L 567.475096 -95.04 
L 570.469905 -95.04 
L 573.464714 -95.04 
L 576.459523 -95.04 
L 579.454332 -95.04 
L 582.449141 -95.04 
L 585.44395 -95.04 
L 588.438759 -95.04 
L 591.433568 -95.04 
L 594.428377 -95.04 
L 597.423186 -95.04 
L 600.417995 -95.04 
L 603.412804 -95.04 
L 606.407613 -95.04 
L 609.402422 -95.04 
L 612.397231 -95.04 
L 615.39204 -95.04 
L 618.386849 -95.04 
L 621.381658 -95.04 
L 624.376467 -95.04 
L 627.371276 -95.04 
L 630.366085 -95.04 
L 633.360894 -95.04 
L 636.355703 -95.04 
L 639.350512 -95.04 
L 642.345321 -95.04 
L 645.34013 -95.04 
L 648.334939 -95.04 
L 651.329748 -95.04 
L 654.324557 -95.04 
L 657.319366 -95.04 
L 660.314175 -95.04 
L 663.308984 -95.04 
L 666.303793 -95.04 
L 669.298602 -95.04 
L 672.293411 -95.04 
L 675.28822 -95.04 
L 678.283029 -95.04 
L 681.277838 -95.04 
L 684.272647 -95.04 
L 687.267456 -95.04 
L 690.262265 -95.04 
L 693.257074 -95.04 
L 696.251883 -95.04 
L 699.246692 -95.04 
L 702.241501 -95.04 
L 705.23631 -95.04 
L 708.231119 -95.04 
L 711.225928 -95.04 
L 714.220737 -95.04 
L 717.215546 -95.04 
L 720.210355 -95.04 
L 723.205164 -95.04 
L 726.199973 -95.04 
L 729.194782 -95.04 
L 732.189591 -95.04 
L 735.1844 -95.04 
L 738.179209 -95.04 
L 741.174018 -95.04 
L 744.168827 -95.04 
L 747.163636 -95.04 
L 747.163636 -95.08585 
L 747.163636 -95.08585 
L 744.168827 -95.407445 
L 741.174018 -96.608431 
L 738.179209 -98.636994 
L 735.1844 -99.58636 
L 732.189591 -98.493641 
L 729.194782 -97.159536 
L 726.199973 -96.826121 
L 723.205164 -97.145421 
L 720.210355 -97.605437 
L 717.215546 -98.055407 
L 714.220737 -98.541027 
L 711.225928 -99.061258 
L 708.231119 -99.567931 
L 705.23631 -100.076053 
L 702.241501 -100.784016 
L 699.246692 -101.930069 
L 696.251883 -103.314176 
L 693.257074 -104.450075 
L 690.262265 -105.205083 
L 687.267456 -105.954144 
L 684.272647 -107.09477 
L 681.277838 -108.567007 
L 678.283029 -110.028861 
L 675.28822 -111.412537 
L 672.293411 -112.91076 
L 669.298602 -114.653681 
L 666.303793 -116.613638 
L 663.308984 -118.562753 
L 660.314175 -120.371379 
L 657.319366 -122.142478 
L 654.324557 -123.871186 
L 651.329748 -125.374706 
L 648.334939 -126.650572 
L 645.34013 -128.050096 
L 642.345321 -129.821627 
L 639.350512 -131.931374 
L 636.355703 -134.279706 
L 633.360894 -136.66977 
L 630.366085 -138.959774 
L 627.371276 -141.216973 
L 624.376467 -143.536476 
L 621.381658 -145.556566 
L 618.386849 -146.616316 
L 615.39204 -146.649312 
L 612.397231 -146.257297 
L 609.402422 -146.032016 
L 606.407613 -146.348344 
L 603.412804 -147.482318 
L 600.417995 -149.362073 
L 597.423186 -151.488374 
L 594.428377 -153.386575 
L 591.433568 -155.156223 
L 588.438759 -157.132808 
L 585.44395 -159.284409 
L 582.449141 -161.3117 
L 579.454332 -163.068168 
L 576.459523 -164.82739 
L 573.464714 -166.837248 
L 570.469905 -168.700634 
L 567.475096 -170.383282 
L 564.480287 -172.398111 
L 561.485478 -174.505913 
L 558.490669 -176.043353 
L 555.49586 -177.069685 
L 552.501051 -178.045365 
L 549.506242 -178.75049 
L 546.511433 -178.962847 
L 543.516624 -179.075491 
L 540.521815 -179.558003 
L 537.527006 -180.556076 
L 534.532197 -181.662086 
L 531.537388 -182.291892 
L 528.542579 -182.383367 
L 525.54777 -182.605127 
L 522.552961 -183.257618 
L 519.558152 -183.486864 
L 516.563343 -182.627963 
L 513.568534 -181.172685 
L 510.573725 -179.927804 
L 507.578916 -179.184022 
L 504.584107 -179.001258 
L 501.589298 -179.353931 
L 498.594489 -179.971823 
L 495.59968 -181.395498 
L 492.60487 -185.17738 
L 489.610061 -191.93479 
L 486.615252 -200.887242 
L 483.620443 -211.296728 
L 480.625634 -223.304555 
L 477.630825 -237.983432 
L 474.636016 -255.71565 
L 471.641207 -274.843613 
L 468.646398 -292.849106 
L 465.651589 -309.213373 
L 462.65678 -326.339575 
L 459.661971 -346.274921 
L 456.667162 -369.750837 
L 453.672353 -397.261363 
L 450.677544 -427.034191 
L 447.682735 -456.513547 
L 444.687926 -485.825907 
L 441.693117 -514.885616 
L 438.698308 -541.775156 
L 435.703499 -566.110283 
L 432.70869 -589.79099 
L 429.713881 -613.551331 
L 426.719072 -636.439761 
L 423.724263 -658.859973 
L 420.729454 -680.416712 
L 417.734645 -698.345844 
L 414.739836 -712.012225 
L 411.745027 -722.726179 
L 408.750218 -728.64 
L 405.755409 -726.863052 
L 402.7606 -718.971836 
L 399.765791 -710.511046 
L 396.770982 -706.154506 
L 393.776173 -706.33579 
L 390.781364 -709.050933 
L 387.786555 -710.383078 
L 384.791746 -708.079014 
L 381.796937 -704.409099 
L 378.802128 -701.538411 
L 375.807319 -699.347807 
L 372.81251 -696.306233 
L 369.817701 -691.224954 
L 366.822892 -684.95173 
L 363.828083 -677.661641 
L 360.833274 -666.896791 
L 357.838465 -651.411929 
L 354.843656 -632.94483 
L 351.848847 -613.563432 
L 348.854038 -593.829467 
L 345.859229 -574.459079 
L 342.86442 -558.250776 
L 339.869611 -546.32366 
L 336.874802 -535.518436 
L 333.879993 -522.462446 
L 330.885184 -507.373668 
L 327.890375 -491.723885 
L 324.895566 -475.609875 
L 321.900757 -458.926666 
L 318.905948 -442.58475 
L 315.911139 -426.923938 
L 312.91633 -411.63074 
L 309.921521 -397.984459 
L 306.926712 -386.156725 
L 303.931903 -373.810587 
L 300.937094 -359.76694 
L 297.942285 -344.10758 
L 294.947476 -327.559182 
L 291.952667 -311.506818 
L 288.957858 -296.210919 
L 285.963049 -280.614112 
L 282.96824 -264.335367 
L 279.973431 -249.396614 
L 276.978622 -237.91354 
L 273.983813 -229.021013 
L 270.989004 -220.771052 
L 267.994195 -212.74409 
L 264.999386 -204.699113 
L 262.004577 -196.013899 
L 259.009768 -186.769433 
L 256.014959 -177.827396 
L 253.02015 -170.604096 
L 250.025341 -165.669985 
L 247.030532 -161.861522 
L 244.035723 -158.20793 
L 241.040914 -154.344892 
L 238.046105 -149.570856 
L 235.051296 -144.120775 
L 232.056487 -138.963052 
L 229.061678 -133.870212 
L 226.066869 -128.15446 
L 223.07206 -122.197842 
L 220.077251 -116.917711 
L 217.082442 -112.913752 
L 214.087633 -110.452888 
L 211.092824 -109.489553 
L 208.098015 -109.782442 
L 205.103206 -110.836063 
L 202.108396 -111.396265 
L 199.113587 -110.163915 
L 196.118778 -107.285254 
L 193.123969 -103.880905 
L 190.12916 -100.703526 
L 187.134351 -98.124226 
L 184.139542 -96.426727 
L 181.144733 -95.578858 
L 178.149924 -95.25178 
L 175.155115 -95.141006 
L 172.160306 -95.09776 
L 169.165497 -95.073385 
L 166.170688 -95.05898 
L 163.175879 -95.051749 
L 160.18107 -95.046395 
L 157.186261 -95.042262 
L 154.191452 -95.040457 
L 151.196643 -95.040051 
z
" style="stroke: #008000; stroke-width: 3"/>
    </defs>
    <g clip-path="url(#pc6562b855f)">
     <use xlink:href="#mcffa9ee102" x="0" y="864" style="fill: #008000; fill-opacity: 0.25; stroke: #008000; stroke-width: 3"/>
    </g>
   </g>
   <g id="matplotlib.axis_1">
    <g id="xtick_1">
     <g id="line2d_1">
      <defs>
       <path id="m7a50b85aff" d="M 0 0 
L 0 3.5 
" style="stroke: #000000; stroke-width: 0.8"/>
      </defs>
      <g>
       <use xlink:href="#m7a50b85aff" x="140.069563" y="768.96" style="stroke: #000000; stroke-width: 0.8"/>
      </g>
     </g>
     <g id="text_1">
      <!-- 0.0 -->
      <g transform="translate(132.118 783.558437)scale(0.1 -0.1)">
       <defs>
        <path id="DejaVuSans-30" d="M 2034 4250 
Q 1547 4250 1301 3770 
Q 1056 3291 1056 2328 
Q 1056 1369 1301 889 
Q 1547 409 2034 409 
Q 2525 409 2770 889 
Q 3016 1369 3016 2328 
Q 3016 3291 2770 3770 
Q 2525 4250 2034 4250 
z
M 2034 4750 
Q 2819 4750 3233 4129 
Q 3647 3509 3647 2328 
Q 3647 1150 3233 529 
Q 2819 -91 2034 -91 
Q 1250 -91 836 529 
Q 422 1150 422 2328 
Q 422 3509 836 4129 
Q 1250 4750 2034 4750 
z
" transform="scale(0.015625)"/>
        <path id="DejaVuSans-2e" d="M 684 794 
L 1344 794 
L 1344 0 
L 684 0 
L 684 794 
z
" transform="scale(0.015625)"/>
       </defs>
       <use xlink:href="#DejaVuSans-30"/>
       <use xlink:href="#DejaVuSans-2e" x="63.623047"/>
       <use xlink:href="#DejaVuSans-30" x="95.410156"/>
      </g>
     </g>
    </g>
    <g id="xtick_2">
     <g id="line2d_2">
      <g>
       <use xlink:href="#m7a50b85aff" x="259.235733" y="768.96" style="stroke: #000000; stroke-width: 0.8"/>
      </g>
     </g>
     <g id="text_2">
      <!-- 0.2 -->
      <g transform="translate(251.284171 783.558437)scale(0.1 -0.1)">
       <defs>
        <path id="DejaVuSans-32" d="M 1228 531 
L 3431 531 
L 3431 0 
L 469 0 
L 469 531 
Q 828 903 1448 1529 
Q 2069 2156 2228 2338 
Q 2531 2678 2651 2914 
Q 2772 3150 2772 3378 
Q 2772 3750 2511 3984 
Q 2250 4219 1831 4219 
Q 1534 4219 1204 4116 
Q 875 4013 500 3803 
L 500 4441 
Q 881 4594 1212 4672 
Q 1544 4750 1819 4750 
Q 2544 4750 2975 4387 
Q 3406 4025 3406 3419 
Q 3406 3131 3298 2873 
Q 3191 2616 2906 2266 
Q 2828 2175 2409 1742 
Q 1991 1309 1228 531 
z
" transform="scale(0.015625)"/>
       </defs>
       <use xlink:href="#DejaVuSans-30"/>
       <use xlink:href="#DejaVuSans-2e" x="63.623047"/>
       <use xlink:href="#DejaVuSans-32" x="95.410156"/>
      </g>
     </g>
    </g>
    <g id="xtick_3">
     <g id="line2d_3">
      <g>
       <use xlink:href="#m7a50b85aff" x="378.401903" y="768.96" style="stroke: #000000; stroke-width: 0.8"/>
      </g>
     </g>
     <g id="text_3">
      <!-- 0.4 -->
      <g transform="translate(370.450341 783.558437)scale(0.1 -0.1)">
       <defs>
        <path id="DejaVuSans-34" d="M 2419 4116 
L 825 1625 
L 2419 1625 
L 2419 4116 
z
M 2253 4666 
L 3047 4666 
L 3047 1625 
L 3713 1625 
L 3713 1100 
L 3047 1100 
L 3047 0 
L 2419 0 
L 2419 1100 
L 313 1100 
L 313 1709 
L 2253 4666 
z
" transform="scale(0.015625)"/>
       </defs>
       <use xlink:href="#DejaVuSans-30"/>
       <use xlink:href="#DejaVuSans-2e" x="63.623047"/>
       <use xlink:href="#DejaVuSans-34" x="95.410156"/>
      </g>
     </g>
    </g>
    <g id="xtick_4">
     <g id="line2d_4">
      <g>
       <use xlink:href="#m7a50b85aff" x="497.568073" y="768.96" style="stroke: #000000; stroke-width: 0.8"/>
      </g>
     </g>
     <g id="text_4">
      <!-- 0.6 -->
      <g transform="translate(489.616511 783.558437)scale(0.1 -0.1)">
       <defs>
        <path id="DejaVuSans-36" d="M 2113 2584 
Q 1688 2584 1439 2293 
Q 1191 2003 1191 1497 
Q 1191 994 1439 701 
Q 1688 409 2113 409 
Q 2538 409 2786 701 
Q 3034 994 3034 1497 
Q 3034 2003 2786 2293 
Q 2538 2584 2113 2584 
z
M 3366 4563 
L 3366 3988 
Q 3128 4100 2886 4159 
Q 2644 4219 2406 4219 
Q 1781 4219 1451 3797 
Q 1122 3375 1075 2522 
Q 1259 2794 1537 2939 
Q 1816 3084 2150 3084 
Q 2853 3084 3261 2657 
Q 3669 2231 3669 1497 
Q 3669 778 3244 343 
Q 2819 -91 2113 -91 
Q 1303 -91 875 529 
Q 447 1150 447 2328 
Q 447 3434 972 4092 
Q 1497 4750 2381 4750 
Q 2619 4750 2861 4703 
Q 3103 4656 3366 4563 
z
" transform="scale(0.015625)"/>
       </defs>
       <use xlink:href="#DejaVuSans-30"/>
       <use xlink:href="#DejaVuSans-2e" x="63.623047"/>
       <use xlink:href="#DejaVuSans-36" x="95.410156"/>
      </g>
     </g>
    </g>
    <g id="xtick_5">
     <g id="line2d_5">
      <g>
       <use xlink:href="#m7a50b85aff" x="616.734243" y="768.96" style="stroke: #000000; stroke-width: 0.8"/>
      </g>
     </g>
     <g id="text_5">
      <!-- 0.8 -->
      <g transform="translate(608.782681 783.558437)scale(0.1 -0.1)">
       <defs>
        <path id="DejaVuSans-38" d="M 2034 2216 
Q 1584 2216 1326 1975 
Q 1069 1734 1069 1313 
Q 1069 891 1326 650 
Q 1584 409 2034 409 
Q 2484 409 2743 651 
Q 3003 894 3003 1313 
Q 3003 1734 2745 1975 
Q 2488 2216 2034 2216 
z
M 1403 2484 
Q 997 2584 770 2862 
Q 544 3141 544 3541 
Q 544 4100 942 4425 
Q 1341 4750 2034 4750 
Q 2731 4750 3128 4425 
Q 3525 4100 3525 3541 
Q 3525 3141 3298 2862 
Q 3072 2584 2669 2484 
Q 3125 2378 3379 2068 
Q 3634 1759 3634 1313 
Q 3634 634 3220 271 
Q 2806 -91 2034 -91 
Q 1263 -91 848 271 
Q 434 634 434 1313 
Q 434 1759 690 2068 
Q 947 2378 1403 2484 
z
M 1172 3481 
Q 1172 3119 1398 2916 
Q 1625 2713 2034 2713 
Q 2441 2713 2670 2916 
Q 2900 3119 2900 3481 
Q 2900 3844 2670 4047 
Q 2441 4250 2034 4250 
Q 1625 4250 1398 4047 
Q 1172 3844 1172 3481 
z
" transform="scale(0.015625)"/>
       </defs>
       <use xlink:href="#DejaVuSans-30"/>
       <use xlink:href="#DejaVuSans-2e" x="63.623047"/>
       <use xlink:href="#DejaVuSans-38" x="95.410156"/>
      </g>
     </g>
    </g>
    <g id="xtick_6">
     <g id="line2d_6">
      <g>
       <use xlink:href="#m7a50b85aff" x="735.900413" y="768.96" style="stroke: #000000; stroke-width: 0.8"/>
      </g>
     </g>
     <g id="text_6">
      <!-- 1.0 -->
      <g transform="translate(727.948851 783.558437)scale(0.1 -0.1)">
       <defs>
        <path id="DejaVuSans-31" d="M 794 531 
L 1825 531 
L 1825 4091 
L 703 3866 
L 703 4441 
L 1819 4666 
L 2450 4666 
L 2450 531 
L 3481 531 
L 3481 0 
L 794 0 
L 794 531 
z
" transform="scale(0.015625)"/>
       </defs>
       <use xlink:href="#DejaVuSans-31"/>
       <use xlink:href="#DejaVuSans-2e" x="63.623047"/>
       <use xlink:href="#DejaVuSans-30" x="95.410156"/>
      </g>
     </g>
    </g>
    <g id="text_7">
     <!-- Similarity -->
     <g transform="translate(404.97625 801.795625)scale(0.16 -0.16)">
      <defs>
       <path id="DejaVuSans-53" d="M 3425 4513 
L 3425 3897 
Q 3066 4069 2747 4153 
Q 2428 4238 2131 4238 
Q 1616 4238 1336 4038 
Q 1056 3838 1056 3469 
Q 1056 3159 1242 3001 
Q 1428 2844 1947 2747 
L 2328 2669 
Q 3034 2534 3370 2195 
Q 3706 1856 3706 1288 
Q 3706 609 3251 259 
Q 2797 -91 1919 -91 
Q 1588 -91 1214 -16 
Q 841 59 441 206 
L 441 856 
Q 825 641 1194 531 
Q 1563 422 1919 422 
Q 2459 422 2753 634 
Q 3047 847 3047 1241 
Q 3047 1584 2836 1778 
Q 2625 1972 2144 2069 
L 1759 2144 
Q 1053 2284 737 2584 
Q 422 2884 422 3419 
Q 422 4038 858 4394 
Q 1294 4750 2059 4750 
Q 2388 4750 2728 4690 
Q 3069 4631 3425 4513 
z
" transform="scale(0.015625)"/>
       <path id="DejaVuSans-69" d="M 603 3500 
L 1178 3500 
L 1178 0 
L 603 0 
L 603 3500 
z
M 603 4863 
L 1178 4863 
L 1178 4134 
L 603 4134 
L 603 4863 
z
" transform="scale(0.015625)"/>
       <path id="DejaVuSans-6d" d="M 3328 2828 
Q 3544 3216 3844 3400 
Q 4144 3584 4550 3584 
Q 5097 3584 5394 3201 
Q 5691 2819 5691 2113 
L 5691 0 
L 5113 0 
L 5113 2094 
Q 5113 2597 4934 2840 
Q 4756 3084 4391 3084 
Q 3944 3084 3684 2787 
Q 3425 2491 3425 1978 
L 3425 0 
L 2847 0 
L 2847 2094 
Q 2847 2600 2669 2842 
Q 2491 3084 2119 3084 
Q 1678 3084 1418 2786 
Q 1159 2488 1159 1978 
L 1159 0 
L 581 0 
L 581 3500 
L 1159 3500 
L 1159 2956 
Q 1356 3278 1631 3431 
Q 1906 3584 2284 3584 
Q 2666 3584 2933 3390 
Q 3200 3197 3328 2828 
z
" transform="scale(0.015625)"/>
       <path id="DejaVuSans-6c" d="M 603 4863 
L 1178 4863 
L 1178 0 
L 603 0 
L 603 4863 
z
" transform="scale(0.015625)"/>
       <path id="DejaVuSans-61" d="M 2194 1759 
Q 1497 1759 1228 1600 
Q 959 1441 959 1056 
Q 959 750 1161 570 
Q 1363 391 1709 391 
Q 2188 391 2477 730 
Q 2766 1069 2766 1631 
L 2766 1759 
L 2194 1759 
z
M 3341 1997 
L 3341 0 
L 2766 0 
L 2766 531 
Q 2569 213 2275 61 
Q 1981 -91 1556 -91 
Q 1019 -91 701 211 
Q 384 513 384 1019 
Q 384 1609 779 1909 
Q 1175 2209 1959 2209 
L 2766 2209 
L 2766 2266 
Q 2766 2663 2505 2880 
Q 2244 3097 1772 3097 
Q 1472 3097 1187 3025 
Q 903 2953 641 2809 
L 641 3341 
Q 956 3463 1253 3523 
Q 1550 3584 1831 3584 
Q 2591 3584 2966 3190 
Q 3341 2797 3341 1997 
z
" transform="scale(0.015625)"/>
       <path id="DejaVuSans-72" d="M 2631 2963 
Q 2534 3019 2420 3045 
Q 2306 3072 2169 3072 
Q 1681 3072 1420 2755 
Q 1159 2438 1159 1844 
L 1159 0 
L 581 0 
L 581 3500 
L 1159 3500 
L 1159 2956 
Q 1341 3275 1631 3429 
Q 1922 3584 2338 3584 
Q 2397 3584 2469 3576 
Q 2541 3569 2628 3553 
L 2631 2963 
z
" transform="scale(0.015625)"/>
       <path id="DejaVuSans-74" d="M 1172 4494 
L 1172 3500 
L 2356 3500 
L 2356 3053 
L 1172 3053 
L 1172 1153 
Q 1172 725 1289 603 
Q 1406 481 1766 481 
L 2356 481 
L 2356 0 
L 1766 0 
Q 1100 0 847 248 
Q 594 497 594 1153 
L 594 3053 
L 172 3053 
L 172 3500 
L 594 3500 
L 594 4494 
L 1172 4494 
z
" transform="scale(0.015625)"/>
       <path id="DejaVuSans-79" d="M 2059 -325 
Q 1816 -950 1584 -1140 
Q 1353 -1331 966 -1331 
L 506 -1331 
L 506 -850 
L 844 -850 
Q 1081 -850 1212 -737 
Q 1344 -625 1503 -206 
L 1606 56 
L 191 3500 
L 800 3500 
L 1894 763 
L 2988 3500 
L 3597 3500 
L 2059 -325 
z
" transform="scale(0.015625)"/>
      </defs>
      <use xlink:href="#DejaVuSans-53"/>
      <use xlink:href="#DejaVuSans-69" x="63.476562"/>
      <use xlink:href="#DejaVuSans-6d" x="91.259766"/>
      <use xlink:href="#DejaVuSans-69" x="188.671875"/>
      <use xlink:href="#DejaVuSans-6c" x="216.455078"/>
      <use xlink:href="#DejaVuSans-61" x="244.238281"/>
      <use xlink:href="#DejaVuSans-72" x="305.517578"/>
      <use xlink:href="#DejaVuSans-69" x="346.630859"/>
      <use xlink:href="#DejaVuSans-74" x="374.414062"/>
      <use xlink:href="#DejaVuSans-79" x="413.623047"/>
     </g>
    </g>
   </g>
   <g id="matplotlib.axis_2">
    <g id="ytick_1">
     <g id="line2d_7">
      <defs>
       <path id="mf386c5c29c" d="M 0 0 
L -3.5 0 
" style="stroke: #000000; stroke-width: 0.8"/>
      </defs>
      <g>
       <use xlink:href="#mf386c5c29c" x="108" y="768.96" style="stroke: #000000; stroke-width: 0.8"/>
      </g>
     </g>
     <g id="text_8">
      <!-- 0.0 -->
      <g transform="translate(85.096875 772.759219)scale(0.1 -0.1)">
       <use xlink:href="#DejaVuSans-30"/>
       <use xlink:href="#DejaVuSans-2e" x="63.623047"/>
       <use xlink:href="#DejaVuSans-30" x="95.410156"/>
      </g>
     </g>
    </g>
    <g id="ytick_2">
     <g id="line2d_8">
      <g>
       <use xlink:href="#mf386c5c29c" x="108" y="681.525604" style="stroke: #000000; stroke-width: 0.8"/>
      </g>
     </g>
     <g id="text_9">
      <!-- 0.5 -->
      <g transform="translate(85.096875 685.324823)scale(0.1 -0.1)">
       <defs>
        <path id="DejaVuSans-35" d="M 691 4666 
L 3169 4666 
L 3169 4134 
L 1269 4134 
L 1269 2991 
Q 1406 3038 1543 3061 
Q 1681 3084 1819 3084 
Q 2600 3084 3056 2656 
Q 3513 2228 3513 1497 
Q 3513 744 3044 326 
Q 2575 -91 1722 -91 
Q 1428 -91 1123 -41 
Q 819 9 494 109 
L 494 744 
Q 775 591 1075 516 
Q 1375 441 1709 441 
Q 2250 441 2565 725 
Q 2881 1009 2881 1497 
Q 2881 1984 2565 2268 
Q 2250 2553 1709 2553 
Q 1456 2553 1204 2497 
Q 953 2441 691 2322 
L 691 4666 
z
" transform="scale(0.015625)"/>
       </defs>
       <use xlink:href="#DejaVuSans-30"/>
       <use xlink:href="#DejaVuSans-2e" x="63.623047"/>
       <use xlink:href="#DejaVuSans-35" x="95.410156"/>
      </g>
     </g>
    </g>
    <g id="ytick_3">
     <g id="line2d_9">
      <g>
       <use xlink:href="#mf386c5c29c" x="108" y="594.091208" style="stroke: #000000; stroke-width: 0.8"/>
      </g>
     </g>
     <g id="text_10">
      <!-- 1.0 -->
      <g transform="translate(85.096875 597.890426)scale(0.1 -0.1)">
       <use xlink:href="#DejaVuSans-31"/>
       <use xlink:href="#DejaVuSans-2e" x="63.623047"/>
       <use xlink:href="#DejaVuSans-30" x="95.410156"/>
      </g>
     </g>
    </g>
    <g id="ytick_4">
     <g id="line2d_10">
      <g>
       <use xlink:href="#mf386c5c29c" x="108" y="506.656811" style="stroke: #000000; stroke-width: 0.8"/>
      </g>
     </g>
     <g id="text_11">
      <!-- 1.5 -->
      <g transform="translate(85.096875 510.45603)scale(0.1 -0.1)">
       <use xlink:href="#DejaVuSans-31"/>
       <use xlink:href="#DejaVuSans-2e" x="63.623047"/>
       <use xlink:href="#DejaVuSans-35" x="95.410156"/>
      </g>
     </g>
    </g>
    <g id="ytick_5">
     <g id="line2d_11">
      <g>
       <use xlink:href="#mf386c5c29c" x="108" y="419.222415" style="stroke: #000000; stroke-width: 0.8"/>
      </g>
     </g>
     <g id="text_12">
      <!-- 2.0 -->
      <g transform="translate(85.096875 423.021634)scale(0.1 -0.1)">
       <use xlink:href="#DejaVuSans-32"/>
       <use xlink:href="#DejaVuSans-2e" x="63.623047"/>
       <use xlink:href="#DejaVuSans-30" x="95.410156"/>
      </g>
     </g>
    </g>
    <g id="ytick_6">
     <g id="line2d_12">
      <g>
       <use xlink:href="#mf386c5c29c" x="108" y="331.788019" style="stroke: #000000; stroke-width: 0.8"/>
      </g>
     </g>
     <g id="text_13">
      <!-- 2.5 -->
      <g transform="translate(85.096875 335.587238)scale(0.1 -0.1)">
       <use xlink:href="#DejaVuSans-32"/>
       <use xlink:href="#DejaVuSans-2e" x="63.623047"/>
       <use xlink:href="#DejaVuSans-35" x="95.410156"/>
      </g>
     </g>
    </g>
    <g id="ytick_7">
     <g id="line2d_13">
      <g>
       <use xlink:href="#mf386c5c29c" x="108" y="244.353623" style="stroke: #000000; stroke-width: 0.8"/>
      </g>
     </g>
     <g id="text_14">
      <!-- 3.0 -->
      <g transform="translate(85.096875 248.152842)scale(0.1 -0.1)">
       <defs>
        <path id="DejaVuSans-33" d="M 2597 2516 
Q 3050 2419 3304 2112 
Q 3559 1806 3559 1356 
Q 3559 666 3084 287 
Q 2609 -91 1734 -91 
Q 1441 -91 1130 -33 
Q 819 25 488 141 
L 488 750 
Q 750 597 1062 519 
Q 1375 441 1716 441 
Q 2309 441 2620 675 
Q 2931 909 2931 1356 
Q 2931 1769 2642 2001 
Q 2353 2234 1838 2234 
L 1294 2234 
L 1294 2753 
L 1863 2753 
Q 2328 2753 2575 2939 
Q 2822 3125 2822 3475 
Q 2822 3834 2567 4026 
Q 2313 4219 1838 4219 
Q 1578 4219 1281 4162 
Q 984 4106 628 3988 
L 628 4550 
Q 988 4650 1302 4700 
Q 1616 4750 1894 4750 
Q 2613 4750 3031 4423 
Q 3450 4097 3450 3541 
Q 3450 3153 3228 2886 
Q 3006 2619 2597 2516 
z
" transform="scale(0.015625)"/>
       </defs>
       <use xlink:href="#DejaVuSans-33"/>
       <use xlink:href="#DejaVuSans-2e" x="63.623047"/>
       <use xlink:href="#DejaVuSans-30" x="95.410156"/>
      </g>
     </g>
    </g>
    <g id="ytick_8">
     <g id="line2d_14">
      <g>
       <use xlink:href="#mf386c5c29c" x="108" y="156.919227" style="stroke: #000000; stroke-width: 0.8"/>
      </g>
     </g>
     <g id="text_15">
      <!-- 3.5 -->
      <g transform="translate(85.096875 160.718446)scale(0.1 -0.1)">
       <use xlink:href="#DejaVuSans-33"/>
       <use xlink:href="#DejaVuSans-2e" x="63.623047"/>
       <use xlink:href="#DejaVuSans-35" x="95.410156"/>
      </g>
     </g>
    </g>
    <g id="text_16">
     <!-- Density -->
     <g transform="translate(77.769375 466.73375)rotate(-90)scale(0.16 -0.16)">
      <defs>
       <path id="DejaVuSans-44" d="M 1259 4147 
L 1259 519 
L 2022 519 
Q 2988 519 3436 956 
Q 3884 1394 3884 2338 
Q 3884 3275 3436 3711 
Q 2988 4147 2022 4147 
L 1259 4147 
z
M 628 4666 
L 1925 4666 
Q 3281 4666 3915 4102 
Q 4550 3538 4550 2338 
Q 4550 1131 3912 565 
Q 3275 0 1925 0 
L 628 0 
L 628 4666 
z
" transform="scale(0.015625)"/>
       <path id="DejaVuSans-65" d="M 3597 1894 
L 3597 1613 
L 953 1613 
Q 991 1019 1311 708 
Q 1631 397 2203 397 
Q 2534 397 2845 478 
Q 3156 559 3463 722 
L 3463 178 
Q 3153 47 2828 -22 
Q 2503 -91 2169 -91 
Q 1331 -91 842 396 
Q 353 884 353 1716 
Q 353 2575 817 3079 
Q 1281 3584 2069 3584 
Q 2775 3584 3186 3129 
Q 3597 2675 3597 1894 
z
M 3022 2063 
Q 3016 2534 2758 2815 
Q 2500 3097 2075 3097 
Q 1594 3097 1305 2825 
Q 1016 2553 972 2059 
L 3022 2063 
z
" transform="scale(0.015625)"/>
       <path id="DejaVuSans-6e" d="M 3513 2113 
L 3513 0 
L 2938 0 
L 2938 2094 
Q 2938 2591 2744 2837 
Q 2550 3084 2163 3084 
Q 1697 3084 1428 2787 
Q 1159 2491 1159 1978 
L 1159 0 
L 581 0 
L 581 3500 
L 1159 3500 
L 1159 2956 
Q 1366 3272 1645 3428 
Q 1925 3584 2291 3584 
Q 2894 3584 3203 3211 
Q 3513 2838 3513 2113 
z
" transform="scale(0.015625)"/>
       <path id="DejaVuSans-73" d="M 2834 3397 
L 2834 2853 
Q 2591 2978 2328 3040 
Q 2066 3103 1784 3103 
Q 1356 3103 1142 2972 
Q 928 2841 928 2578 
Q 928 2378 1081 2264 
Q 1234 2150 1697 2047 
L 1894 2003 
Q 2506 1872 2764 1633 
Q 3022 1394 3022 966 
Q 3022 478 2636 193 
Q 2250 -91 1575 -91 
Q 1294 -91 989 -36 
Q 684 19 347 128 
L 347 722 
Q 666 556 975 473 
Q 1284 391 1588 391 
Q 1994 391 2212 530 
Q 2431 669 2431 922 
Q 2431 1156 2273 1281 
Q 2116 1406 1581 1522 
L 1381 1569 
Q 847 1681 609 1914 
Q 372 2147 372 2553 
Q 372 3047 722 3315 
Q 1072 3584 1716 3584 
Q 2034 3584 2315 3537 
Q 2597 3491 2834 3397 
z
" transform="scale(0.015625)"/>
      </defs>
      <use xlink:href="#DejaVuSans-44"/>
      <use xlink:href="#DejaVuSans-65" x="77.001953"/>
      <use xlink:href="#DejaVuSans-6e" x="138.525391"/>
      <use xlink:href="#DejaVuSans-73" x="201.904297"/>
      <use xlink:href="#DejaVuSans-69" x="254.003906"/>
      <use xlink:href="#DejaVuSans-74" x="281.787109"/>
      <use xlink:href="#DejaVuSans-79" x="320.996094"/>
     </g>
    </g>
   </g>
   <g id="patch_3">
    <path d="M 108 768.96 
L 108 103.68 
" style="fill: none; stroke: #000000; stroke-width: 0.8; stroke-linejoin: miter; stroke-linecap: square"/>
   </g>
   <g id="patch_4">
    <path d="M 777.6 768.96 
L 777.6 103.68 
" style="fill: none; stroke: #000000; stroke-width: 0.8; stroke-linejoin: miter; stroke-linecap: square"/>
   </g>
   <g id="patch_5">
    <path d="M 108 768.96 
L 777.6 768.96 
" style="fill: none; stroke: #000000; stroke-width: 0.8; stroke-linejoin: miter; stroke-linecap: square"/>
   </g>
   <g id="patch_6">
    <path d="M 108 103.68 
L 777.6 103.68 
" style="fill: none; stroke: #000000; stroke-width: 0.8; stroke-linejoin: miter; stroke-linecap: square"/>
   </g>
   <g id="legend_1">
    <g id="patch_7">
     <path d="M 484.15 186.935 
L 766.4 186.935 
Q 769.6 186.935 769.6 183.735 
L 769.6 114.88 
Q 769.6 111.68 766.4 111.68 
L 484.15 111.68 
Q 480.95 111.68 480.95 114.88 
L 480.95 183.735 
Q 480.95 186.935 484.15 186.935 
z
" style="fill: #ffffff; opacity: 0.8; stroke: #cccccc; stroke-linejoin: miter"/>
    </g>
    <g id="patch_8">
     <path d="M 487.35 130.2375 
L 519.35 130.2375 
L 519.35 119.0375 
L 487.35 119.0375 
z
" style="fill: #0000ff; fill-opacity: 0.25; stroke: #0000ff; stroke-width: 3; stroke-linejoin: miter"/>
    </g>
    <g id="text_17">
     <!-- Training vs Test set similarity -->
     <g transform="translate(532.15 130.2375)scale(0.16 -0.16)">
      <defs>
       <path id="DejaVuSans-54" d="M -19 4666 
L 3928 4666 
L 3928 4134 
L 2272 4134 
L 2272 0 
L 1638 0 
L 1638 4134 
L -19 4134 
L -19 4666 
z
" transform="scale(0.015625)"/>
       <path id="DejaVuSans-67" d="M 2906 1791 
Q 2906 2416 2648 2759 
Q 2391 3103 1925 3103 
Q 1463 3103 1205 2759 
Q 947 2416 947 1791 
Q 947 1169 1205 825 
Q 1463 481 1925 481 
Q 2391 481 2648 825 
Q 2906 1169 2906 1791 
z
M 3481 434 
Q 3481 -459 3084 -895 
Q 2688 -1331 1869 -1331 
Q 1566 -1331 1297 -1286 
Q 1028 -1241 775 -1147 
L 775 -588 
Q 1028 -725 1275 -790 
Q 1522 -856 1778 -856 
Q 2344 -856 2625 -561 
Q 2906 -266 2906 331 
L 2906 616 
Q 2728 306 2450 153 
Q 2172 0 1784 0 
Q 1141 0 747 490 
Q 353 981 353 1791 
Q 353 2603 747 3093 
Q 1141 3584 1784 3584 
Q 2172 3584 2450 3431 
Q 2728 3278 2906 2969 
L 2906 3500 
L 3481 3500 
L 3481 434 
z
" transform="scale(0.015625)"/>
       <path id="DejaVuSans-20" transform="scale(0.015625)"/>
       <path id="DejaVuSans-76" d="M 191 3500 
L 800 3500 
L 1894 563 
L 2988 3500 
L 3597 3500 
L 2284 0 
L 1503 0 
L 191 3500 
z
" transform="scale(0.015625)"/>
      </defs>
      <use xlink:href="#DejaVuSans-54"/>
      <use xlink:href="#DejaVuSans-72" x="46.333984"/>
      <use xlink:href="#DejaVuSans-61" x="87.447266"/>
      <use xlink:href="#DejaVuSans-69" x="148.726562"/>
      <use xlink:href="#DejaVuSans-6e" x="176.509766"/>
      <use xlink:href="#DejaVuSans-69" x="239.888672"/>
      <use xlink:href="#DejaVuSans-6e" x="267.671875"/>
      <use xlink:href="#DejaVuSans-67" x="331.050781"/>
      <use xlink:href="#DejaVuSans-20" x="394.527344"/>
      <use xlink:href="#DejaVuSans-76" x="426.314453"/>
      <use xlink:href="#DejaVuSans-73" x="485.494141"/>
      <use xlink:href="#DejaVuSans-20" x="537.59375"/>
      <use xlink:href="#DejaVuSans-54" x="569.380859"/>
      <use xlink:href="#DejaVuSans-65" x="613.464844"/>
      <use xlink:href="#DejaVuSans-73" x="674.988281"/>
      <use xlink:href="#DejaVuSans-74" x="727.087891"/>
      <use xlink:href="#DejaVuSans-20" x="766.296875"/>
      <use xlink:href="#DejaVuSans-73" x="798.083984"/>
      <use xlink:href="#DejaVuSans-65" x="850.183594"/>
      <use xlink:href="#DejaVuSans-74" x="911.707031"/>
      <use xlink:href="#DejaVuSans-20" x="950.916016"/>
      <use xlink:href="#DejaVuSans-73" x="982.703125"/>
      <use xlink:href="#DejaVuSans-69" x="1034.802734"/>
      <use xlink:href="#DejaVuSans-6d" x="1062.585938"/>
      <use xlink:href="#DejaVuSans-69" x="1159.998047"/>
      <use xlink:href="#DejaVuSans-6c" x="1187.78125"/>
      <use xlink:href="#DejaVuSans-61" x="1215.564453"/>
      <use xlink:href="#DejaVuSans-72" x="1276.84375"/>
      <use xlink:href="#DejaVuSans-69" x="1317.957031"/>
      <use xlink:href="#DejaVuSans-74" x="1345.740234"/>
      <use xlink:href="#DejaVuSans-79" x="1384.949219"/>
     </g>
    </g>
    <g id="patch_9">
     <path d="M 487.35 153.7225 
L 519.35 153.7225 
L 519.35 142.5225 
L 487.35 142.5225 
z
" style="fill: #ff0000; fill-opacity: 0.25; stroke: #ff0000; stroke-width: 3; stroke-linejoin: miter"/>
    </g>
    <g id="text_18">
     <!-- Training set inner similarity -->
     <g transform="translate(532.15 153.7225)scale(0.16 -0.16)">
      <use xlink:href="#DejaVuSans-54"/>
      <use xlink:href="#DejaVuSans-72" x="46.333984"/>
      <use xlink:href="#DejaVuSans-61" x="87.447266"/>
      <use xlink:href="#DejaVuSans-69" x="148.726562"/>
      <use xlink:href="#DejaVuSans-6e" x="176.509766"/>
      <use xlink:href="#DejaVuSans-69" x="239.888672"/>
      <use xlink:href="#DejaVuSans-6e" x="267.671875"/>
      <use xlink:href="#DejaVuSans-67" x="331.050781"/>
      <use xlink:href="#DejaVuSans-20" x="394.527344"/>
      <use xlink:href="#DejaVuSans-73" x="426.314453"/>
      <use xlink:href="#DejaVuSans-65" x="478.414062"/>
      <use xlink:href="#DejaVuSans-74" x="539.9375"/>
      <use xlink:href="#DejaVuSans-20" x="579.146484"/>
      <use xlink:href="#DejaVuSans-69" x="610.933594"/>
      <use xlink:href="#DejaVuSans-6e" x="638.716797"/>
      <use xlink:href="#DejaVuSans-6e" x="702.095703"/>
      <use xlink:href="#DejaVuSans-65" x="765.474609"/>
      <use xlink:href="#DejaVuSans-72" x="826.998047"/>
      <use xlink:href="#DejaVuSans-20" x="868.111328"/>
      <use xlink:href="#DejaVuSans-73" x="899.898438"/>
      <use xlink:href="#DejaVuSans-69" x="951.998047"/>
      <use xlink:href="#DejaVuSans-6d" x="979.78125"/>
      <use xlink:href="#DejaVuSans-69" x="1077.193359"/>
      <use xlink:href="#DejaVuSans-6c" x="1104.976562"/>
      <use xlink:href="#DejaVuSans-61" x="1132.759766"/>
      <use xlink:href="#DejaVuSans-72" x="1194.039062"/>
      <use xlink:href="#DejaVuSans-69" x="1235.152344"/>
      <use xlink:href="#DejaVuSans-74" x="1262.935547"/>
      <use xlink:href="#DejaVuSans-79" x="1302.144531"/>
     </g>
    </g>
    <g id="patch_10">
     <path d="M 487.35 177.2075 
L 519.35 177.2075 
L 519.35 166.0075 
L 487.35 166.0075 
z
" style="fill: #008000; fill-opacity: 0.25; stroke: #008000; stroke-width: 3; stroke-linejoin: miter"/>
    </g>
    <g id="text_19">
     <!-- Test set inner similarity -->
     <g transform="translate(532.15 177.2075)scale(0.16 -0.16)">
      <use xlink:href="#DejaVuSans-54"/>
      <use xlink:href="#DejaVuSans-65" x="44.083984"/>
      <use xlink:href="#DejaVuSans-73" x="105.607422"/>
      <use xlink:href="#DejaVuSans-74" x="157.707031"/>
      <use xlink:href="#DejaVuSans-20" x="196.916016"/>
      <use xlink:href="#DejaVuSans-73" x="228.703125"/>
      <use xlink:href="#DejaVuSans-65" x="280.802734"/>
      <use xlink:href="#DejaVuSans-74" x="342.326172"/>
      <use xlink:href="#DejaVuSans-20" x="381.535156"/>
      <use xlink:href="#DejaVuSans-69" x="413.322266"/>
      <use xlink:href="#DejaVuSans-6e" x="441.105469"/>
      <use xlink:href="#DejaVuSans-6e" x="504.484375"/>
      <use xlink:href="#DejaVuSans-65" x="567.863281"/>
      <use xlink:href="#DejaVuSans-72" x="629.386719"/>
      <use xlink:href="#DejaVuSans-20" x="670.5"/>
      <use xlink:href="#DejaVuSans-73" x="702.287109"/>
      <use xlink:href="#DejaVuSans-69" x="754.386719"/>
      <use xlink:href="#DejaVuSans-6d" x="782.169922"/>
      <use xlink:href="#DejaVuSans-69" x="879.582031"/>
      <use xlink:href="#DejaVuSans-6c" x="907.365234"/>
      <use xlink:href="#DejaVuSans-61" x="935.148438"/>
      <use xlink:href="#DejaVuSans-72" x="996.427734"/>
      <use xlink:href="#DejaVuSans-69" x="1037.541016"/>
      <use xlink:href="#DejaVuSans-74" x="1065.324219"/>
      <use xlink:href="#DejaVuSans-79" x="1104.533203"/>
     </g>
    </g>
   </g>
  </g>
 </g>
 <defs>
  <clipPath id="pc6562b855f">
   <rect x="108" y="103.68" width="669.6" height="665.28"/>
  </clipPath>
 </defs>
</svg>
