<?xml version="1.0" encoding="utf-8" standalone="no"?>
<!DOCTYPE svg PUBLIC "-//W3C//DTD SVG 1.1//EN"
  "http://www.w3.org/Graphics/SVG/1.1/DTD/svg11.dtd">
<svg xmlns:xlink="http://www.w3.org/1999/xlink" width="864pt" height="864pt" viewBox="0 0 864 864" xmlns="http://www.w3.org/2000/svg" version="1.1">
 <metadata>
  <rdf:RDF xmlns:dc="http://purl.org/dc/elements/1.1/" xmlns:cc="http://creativecommons.org/ns#" xmlns:rdf="http://www.w3.org/1999/02/22-rdf-syntax-ns#">
   <cc:Work>
    <dc:type rdf:resource="http://purl.org/dc/dcmitype/StillImage"/>
    <dc:date>2022-02-07T12:09:10.294213</dc:date>
    <dc:format>image/svg+xml</dc:format>
    <dc:creator>
     <cc:Agent>
      <dc:title>Matplotlib v3.5.1, https://matplotlib.org/</dc:title>
     </cc:Agent>
    </dc:creator>
   </cc:Work>
  </rdf:RDF>
 </metadata>
 <defs>
  <style type="text/css">*{stroke-linejoin: round; stroke-linecap: butt}</style>
 </defs>
 <g id="figure_1">
  <g id="patch_1">
   <path d="M 0 864 
L 864 864 
L 864 0 
L 0 0 
z
" style="fill: #ffffff"/>
  </g>
  <g id="axes_1">
   <g id="patch_2">
    <path d="M 108 768.96 
L 777.6 768.96 
L 777.6 103.68 
L 108 103.68 
z
" style="fill: #ffffff"/>
   </g>
   <g id="PolyCollection_1">
    <defs>
     <path id="mc5f75a25f6" d="M 138.436364 -95.040006 
L 138.436364 -95.04 
L 141.476986 -95.04 
L 144.517608 -95.04 
L 147.55823 -95.04 
L 150.598852 -95.04 
L 153.639474 -95.04 
L 156.680097 -95.04 
L 159.720719 -95.04 
L 162.761341 -95.04 
L 165.801963 -95.04 
L 168.842585 -95.04 
L 171.883207 -95.04 
L 174.92383 -95.04 
L 177.964452 -95.04 
L 181.005074 -95.04 
L 184.045696 -95.04 
L 187.086318 -95.04 
L 190.12694 -95.04 
L 193.167562 -95.04 
L 196.208185 -95.04 
L 199.248807 -95.04 
L 202.289429 -95.04 
L 205.330051 -95.04 
L 208.370673 -95.04 
L 211.411295 -95.04 
L 214.451918 -95.04 
L 217.49254 -95.04 
L 220.533162 -95.04 
L 223.573784 -95.04 
L 226.614406 -95.04 
L 229.655028 -95.04 
L 232.695651 -95.04 
L 235.736273 -95.04 
L 238.776895 -95.04 
L 241.817517 -95.04 
L 244.858139 -95.04 
L 247.898761 -95.04 
L 250.939383 -95.04 
L 253.980006 -95.04 
L 257.020628 -95.04 
L 260.06125 -95.04 
L 263.101872 -95.04 
L 266.142494 -95.04 
L 269.183116 -95.04 
L 272.223739 -95.04 
L 275.264361 -95.04 
L 278.304983 -95.04 
L 281.345605 -95.04 
L 284.386227 -95.04 
L 287.426849 -95.04 
L 290.467472 -95.04 
L 293.508094 -95.04 
L 296.548716 -95.04 
L 299.589338 -95.04 
L 302.62996 -95.04 
L 305.670582 -95.04 
L 308.711204 -95.04 
L 311.751827 -95.04 
L 314.792449 -95.04 
L 317.833071 -95.04 
L 320.873693 -95.04 
L 323.914315 -95.04 
L 326.954937 -95.04 
L 329.99556 -95.04 
L 333.036182 -95.04 
L 336.076804 -95.04 
L 339.117426 -95.04 
L 342.158048 -95.04 
L 345.19867 -95.04 
L 348.239292 -95.04 
L 351.279915 -95.04 
L 354.320537 -95.04 
L 357.361159 -95.04 
L 360.401781 -95.04 
L 363.442403 -95.04 
L 366.483025 -95.04 
L 369.523648 -95.04 
L 372.56427 -95.04 
L 375.604892 -95.04 
L 378.645514 -95.04 
L 381.686136 -95.04 
L 384.726758 -95.04 
L 387.767381 -95.04 
L 390.808003 -95.04 
L 393.848625 -95.04 
L 396.889247 -95.04 
L 399.929869 -95.04 
L 402.970491 -95.04 
L 406.011113 -95.04 
L 409.051736 -95.04 
L 412.092358 -95.04 
L 415.13298 -95.04 
L 418.173602 -95.04 
L 421.214224 -95.04 
L 424.254846 -95.04 
L 427.295469 -95.04 
L 430.336091 -95.04 
L 433.376713 -95.04 
L 436.417335 -95.04 
L 439.457957 -95.04 
L 442.498579 -95.04 
L 445.539202 -95.04 
L 448.579824 -95.04 
L 451.620446 -95.04 
L 454.661068 -95.04 
L 457.70169 -95.04 
L 460.742312 -95.04 
L 463.782934 -95.04 
L 466.823557 -95.04 
L 469.864179 -95.04 
L 472.904801 -95.04 
L 475.945423 -95.04 
L 478.986045 -95.04 
L 482.026667 -95.04 
L 485.06729 -95.04 
L 488.107912 -95.04 
L 491.148534 -95.04 
L 494.189156 -95.04 
L 497.229778 -95.04 
L 500.2704 -95.04 
L 503.311023 -95.04 
L 506.351645 -95.04 
L 509.392267 -95.04 
L 512.432889 -95.04 
L 515.473511 -95.04 
L 518.514133 -95.04 
L 521.554755 -95.04 
L 524.595378 -95.04 
L 527.636 -95.04 
L 530.676622 -95.04 
L 533.717244 -95.04 
L 536.757866 -95.04 
L 539.798488 -95.04 
L 542.839111 -95.04 
L 545.879733 -95.04 
L 548.920355 -95.04 
L 551.960977 -95.04 
L 555.001599 -95.04 
L 558.042221 -95.04 
L 561.082843 -95.04 
L 564.123466 -95.04 
L 567.164088 -95.04 
L 570.20471 -95.04 
L 573.245332 -95.04 
L 576.285954 -95.04 
L 579.326576 -95.04 
L 582.367199 -95.04 
L 585.407821 -95.04 
L 588.448443 -95.04 
L 591.489065 -95.04 
L 594.529687 -95.04 
L 597.570309 -95.04 
L 600.610932 -95.04 
L 603.651554 -95.04 
L 606.692176 -95.04 
L 609.732798 -95.04 
L 612.77342 -95.04 
L 615.814042 -95.04 
L 618.854664 -95.04 
L 621.895287 -95.04 
L 624.935909 -95.04 
L 627.976531 -95.04 
L 631.017153 -95.04 
L 634.057775 -95.04 
L 637.098397 -95.04 
L 640.13902 -95.04 
L 643.179642 -95.04 
L 646.220264 -95.04 
L 649.260886 -95.04 
L 652.301508 -95.04 
L 655.34213 -95.04 
L 658.382753 -95.04 
L 661.423375 -95.04 
L 664.463997 -95.04 
L 667.504619 -95.04 
L 670.545241 -95.04 
L 673.585863 -95.04 
L 676.626485 -95.04 
L 679.667108 -95.04 
L 682.70773 -95.04 
L 685.748352 -95.04 
L 688.788974 -95.04 
L 691.829596 -95.04 
L 694.870218 -95.04 
L 697.910841 -95.04 
L 700.951463 -95.04 
L 703.992085 -95.04 
L 707.032707 -95.04 
L 710.073329 -95.04 
L 713.113951 -95.04 
L 716.154574 -95.04 
L 719.195196 -95.04 
L 722.235818 -95.04 
L 725.27644 -95.04 
L 728.317062 -95.04 
L 731.357684 -95.04 
L 734.398306 -95.04 
L 737.438929 -95.04 
L 740.479551 -95.04 
L 743.520173 -95.04 
L 743.520173 -95.100865 
L 743.520173 -95.100865 
L 740.479551 -96.262469 
L 737.438929 -100.055665 
L 734.398306 -99.516858 
L 731.357684 -96.514229 
L 728.317062 -96.078089 
L 725.27644 -96.379366 
L 722.235818 -96.893577 
L 719.195196 -97.482992 
L 716.154574 -98.00191 
L 713.113951 -98.624936 
L 710.073329 -99.279537 
L 707.032707 -99.680702 
L 703.992085 -99.804701 
L 700.951463 -100.42906 
L 697.910841 -101.606973 
L 694.870218 -103.030918 
L 691.829596 -103.814687 
L 688.788974 -104.09019 
L 685.748352 -104.763286 
L 682.70773 -105.667478 
L 679.667108 -106.761153 
L 676.626485 -108.264351 
L 673.585863 -110.022913 
L 670.545241 -111.340464 
L 667.504619 -112.575814 
L 664.463997 -113.972121 
L 661.423375 -115.392947 
L 658.382753 -117.150461 
L 655.34213 -118.508063 
L 652.301508 -119.594247 
L 649.260886 -120.923708 
L 646.220264 -121.971956 
L 643.179642 -123.178761 
L 640.13902 -124.429648 
L 637.098397 -125.889995 
L 634.057775 -127.730698 
L 631.017153 -129.567935 
L 627.976531 -130.977247 
L 624.935909 -132.162806 
L 621.895287 -134.27776 
L 618.854664 -136.064418 
L 615.814042 -136.513865 
L 612.77342 -136.9926 
L 609.732798 -137.154549 
L 606.692176 -137.367191 
L 603.651554 -138.611014 
L 600.610932 -140.660126 
L 597.570309 -143.128205 
L 594.529687 -144.877653 
L 591.489065 -145.912885 
L 588.448443 -147.026693 
L 585.407821 -148.017536 
L 582.367199 -149.583627 
L 579.326576 -151.725614 
L 576.285954 -152.9965 
L 573.245332 -154.77729 
L 570.20471 -156.334742 
L 567.164088 -157.983096 
L 564.123466 -160.320126 
L 561.082843 -162.667749 
L 558.042221 -164.691844 
L 555.001599 -166.163904 
L 551.960977 -166.904717 
L 548.920355 -167.611516 
L 545.879733 -168.969334 
L 542.839111 -170.109833 
L 539.798488 -171.140078 
L 536.757866 -173.449905 
L 533.717244 -176.545634 
L 530.676622 -179.447509 
L 527.636 -181.036303 
L 524.595378 -182.561828 
L 521.554755 -184.805988 
L 518.514133 -184.650021 
L 515.473511 -184.086004 
L 512.432889 -184.22429 
L 509.392267 -184.219358 
L 506.351645 -184.824671 
L 503.311023 -186.331179 
L 500.2704 -189.518903 
L 497.229778 -192.118908 
L 494.189156 -195.402315 
L 491.148534 -202.825733 
L 488.107912 -212.423383 
L 485.06729 -220.581011 
L 482.026667 -227.527829 
L 478.986045 -234.660294 
L 475.945423 -245.086835 
L 472.904801 -258.553053 
L 469.864179 -274.638265 
L 466.823557 -290.169184 
L 463.782934 -308.370181 
L 460.742312 -330.394175 
L 457.70169 -354.275515 
L 454.661068 -384.007528 
L 451.620446 -417.896918 
L 448.579824 -451.090459 
L 445.539202 -485.122489 
L 442.498579 -518.006298 
L 439.457957 -546.106537 
L 436.417335 -569.245069 
L 433.376713 -588.433982 
L 430.336091 -609.879508 
L 427.295469 -629.401423 
L 424.254846 -645.235242 
L 421.214224 -662.708795 
L 418.173602 -676.406545 
L 415.13298 -685.128338 
L 412.092358 -696.878995 
L 409.051736 -707.640634 
L 406.011113 -708.130943 
L 402.970491 -705.09206 
L 399.929869 -704.382526 
L 396.889247 -708.655772 
L 393.848625 -713.792927 
L 390.808003 -719.163489 
L 387.767381 -723.908259 
L 384.726758 -722.118875 
L 381.686136 -718.864173 
L 378.645514 -717.490331 
L 375.604892 -718.190438 
L 372.56427 -719.616728 
L 369.523648 -720.874488 
L 366.483025 -723.977212 
L 363.442403 -726.747759 
L 360.401781 -721.455298 
L 357.361159 -711.215255 
L 354.320537 -699.061201 
L 351.279915 -686.718558 
L 348.239292 -676.652556 
L 345.19867 -659.850635 
L 342.158048 -641.412582 
L 339.117426 -625.175571 
L 336.076804 -608.029442 
L 333.036182 -590.235341 
L 329.99556 -571.41731 
L 326.954937 -549.394973 
L 323.914315 -526.298686 
L 320.873693 -503.487321 
L 317.833071 -482.128443 
L 314.792449 -461.863087 
L 311.751827 -445.444523 
L 308.711204 -436.418542 
L 305.670582 -432.09172 
L 302.62996 -422.472382 
L 299.589338 -404.841313 
L 296.548716 -383.361321 
L 293.508094 -362.698675 
L 290.467472 -342.807496 
L 287.426849 -323.873839 
L 284.386227 -306.481251 
L 281.345605 -289.523304 
L 278.304983 -277.148514 
L 275.264361 -268.243938 
L 272.223739 -259.055454 
L 269.183116 -247.918389 
L 266.142494 -237.087158 
L 263.101872 -226.565688 
L 260.06125 -216.752721 
L 257.020628 -208.465197 
L 253.980006 -199.805049 
L 250.939383 -189.643544 
L 247.898761 -180.060546 
L 244.858139 -172.49419 
L 241.817517 -165.716627 
L 238.776895 -157.571998 
L 235.736273 -148.431258 
L 232.695651 -140.155527 
L 229.655028 -133.816815 
L 226.614406 -128.101987 
L 223.573784 -123.022481 
L 220.533162 -119.308324 
L 217.49254 -115.839505 
L 214.451918 -112.143781 
L 211.411295 -108.950629 
L 208.370673 -106.187897 
L 205.330051 -104.910582 
L 202.289429 -104.960896 
L 199.248807 -104.571532 
L 196.208185 -103.205804 
L 193.167562 -101.181112 
L 190.12694 -99.001941 
L 187.086318 -97.266458 
L 184.045696 -96.3503 
L 181.005074 -96.202956 
L 177.964452 -96.302937 
L 174.92383 -96.06708 
L 171.883207 -95.689495 
L 168.842585 -95.636027 
L 165.801963 -96.213012 
L 162.761341 -98.050926 
L 159.720719 -99.121795 
L 156.680097 -97.204477 
L 153.639474 -95.513351 
L 150.598852 -95.104302 
L 147.55823 -95.049114 
L 144.517608 -95.041601 
L 141.476986 -95.040179 
L 138.436364 -95.040006 
z
" style="stroke: #0000ff; stroke-width: 3"/>
    </defs>
    <g clip-path="url(#p151cdbd91d)">
     <use xlink:href="#mc5f75a25f6" x="0" y="864" style="fill: #0000ff; fill-opacity: 0.25; stroke: #0000ff; stroke-width: 3"/>
    </g>
   </g>
   <g id="PolyCollection_2">
    <defs>
     <path id="mc48dddbf98" d="M 142.264628 -95.040003 
L 142.264628 -95.04 
L 145.282375 -95.04 
L 148.300123 -95.04 
L 151.31787 -95.04 
L 154.335618 -95.04 
L 157.353365 -95.04 
L 160.371113 -95.04 
L 163.38886 -95.04 
L 166.406608 -95.04 
L 169.424355 -95.04 
L 172.442103 -95.04 
L 175.45985 -95.04 
L 178.477598 -95.04 
L 181.495345 -95.04 
L 184.513093 -95.04 
L 187.53084 -95.04 
L 190.548588 -95.04 
L 193.566335 -95.04 
L 196.584083 -95.04 
L 199.60183 -95.04 
L 202.619578 -95.04 
L 205.637325 -95.04 
L 208.655073 -95.04 
L 211.67282 -95.04 
L 214.690568 -95.04 
L 217.708315 -95.04 
L 220.726063 -95.04 
L 223.74381 -95.04 
L 226.761558 -95.04 
L 229.779305 -95.04 
L 232.797053 -95.04 
L 235.8148 -95.04 
L 238.832548 -95.04 
L 241.850295 -95.04 
L 244.868043 -95.04 
L 247.88579 -95.04 
L 250.903538 -95.04 
L 253.921285 -95.04 
L 256.939033 -95.04 
L 259.95678 -95.04 
L 262.974528 -95.04 
L 265.992275 -95.04 
L 269.010023 -95.04 
L 272.02777 -95.04 
L 275.045518 -95.04 
L 278.063265 -95.04 
L 281.081013 -95.04 
L 284.098761 -95.04 
L 287.116508 -95.04 
L 290.134256 -95.04 
L 293.152003 -95.04 
L 296.169751 -95.04 
L 299.187498 -95.04 
L 302.205246 -95.04 
L 305.222993 -95.04 
L 308.240741 -95.04 
L 311.258488 -95.04 
L 314.276236 -95.04 
L 317.293983 -95.04 
L 320.311731 -95.04 
L 323.329478 -95.04 
L 326.347226 -95.04 
L 329.364973 -95.04 
L 332.382721 -95.04 
L 335.400468 -95.04 
L 338.418216 -95.04 
L 341.435963 -95.04 
L 344.453711 -95.04 
L 347.471458 -95.04 
L 350.489206 -95.04 
L 353.506953 -95.04 
L 356.524701 -95.04 
L 359.542448 -95.04 
L 362.560196 -95.04 
L 365.577943 -95.04 
L 368.595691 -95.04 
L 371.613438 -95.04 
L 374.631186 -95.04 
L 377.648933 -95.04 
L 380.666681 -95.04 
L 383.684428 -95.04 
L 386.702176 -95.04 
L 389.719923 -95.04 
L 392.737671 -95.04 
L 395.755418 -95.04 
L 398.773166 -95.04 
L 401.790913 -95.04 
L 404.808661 -95.04 
L 407.826408 -95.04 
L 410.844156 -95.04 
L 413.861903 -95.04 
L 416.879651 -95.04 
L 419.897398 -95.04 
L 422.915146 -95.04 
L 425.932893 -95.04 
L 428.950641 -95.04 
L 431.968388 -95.04 
L 434.986136 -95.04 
L 438.003883 -95.04 
L 441.021631 -95.04 
L 444.039378 -95.04 
L 447.057126 -95.04 
L 450.074873 -95.04 
L 453.092621 -95.04 
L 456.110368 -95.04 
L 459.128116 -95.04 
L 462.145863 -95.04 
L 465.163611 -95.04 
L 468.181358 -95.04 
L 471.199106 -95.04 
L 474.216853 -95.04 
L 477.234601 -95.04 
L 480.252348 -95.04 
L 483.270096 -95.04 
L 486.287843 -95.04 
L 489.305591 -95.04 
L 492.323338 -95.04 
L 495.341086 -95.04 
L 498.358833 -95.04 
L 501.376581 -95.04 
L 504.394328 -95.04 
L 507.412076 -95.04 
L 510.429823 -95.04 
L 513.447571 -95.04 
L 516.465318 -95.04 
L 519.483066 -95.04 
L 522.500813 -95.04 
L 525.518561 -95.04 
L 528.536308 -95.04 
L 531.554056 -95.04 
L 534.571803 -95.04 
L 537.589551 -95.04 
L 540.607298 -95.04 
L 543.625046 -95.04 
L 546.642793 -95.04 
L 549.660541 -95.04 
L 552.678288 -95.04 
L 555.696036 -95.04 
L 558.713783 -95.04 
L 561.731531 -95.04 
L 564.749278 -95.04 
L 567.767026 -95.04 
L 570.784773 -95.04 
L 573.802521 -95.04 
L 576.820268 -95.04 
L 579.838016 -95.04 
L 582.855763 -95.04 
L 585.873511 -95.04 
L 588.891258 -95.04 
L 591.909006 -95.04 
L 594.926753 -95.04 
L 597.944501 -95.04 
L 600.962249 -95.04 
L 603.979996 -95.04 
L 606.997744 -95.04 
L 610.015491 -95.04 
L 613.033239 -95.04 
L 616.050986 -95.04 
L 619.068734 -95.04 
L 622.086481 -95.04 
L 625.104229 -95.04 
L 628.121976 -95.04 
L 631.139724 -95.04 
L 634.157471 -95.04 
L 637.175219 -95.04 
L 640.192966 -95.04 
L 643.210714 -95.04 
L 646.228461 -95.04 
L 649.246209 -95.04 
L 652.263956 -95.04 
L 655.281704 -95.04 
L 658.299451 -95.04 
L 661.317199 -95.04 
L 664.334946 -95.04 
L 667.352694 -95.04 
L 670.370441 -95.04 
L 673.388189 -95.04 
L 676.405936 -95.04 
L 679.423684 -95.04 
L 682.441431 -95.04 
L 685.459179 -95.04 
L 688.476926 -95.04 
L 691.494674 -95.04 
L 694.512421 -95.04 
L 697.530169 -95.04 
L 700.547916 -95.04 
L 703.565664 -95.04 
L 706.583411 -95.04 
L 709.601159 -95.04 
L 712.618906 -95.04 
L 715.636654 -95.04 
L 718.654401 -95.04 
L 721.672149 -95.04 
L 724.689896 -95.04 
L 727.707644 -95.04 
L 730.725391 -95.04 
L 733.743139 -95.04 
L 736.760886 -95.04 
L 739.778634 -95.04 
L 742.796381 -95.04 
L 742.796381 -95.121325 
L 742.796381 -95.121325 
L 739.778634 -97.073043 
L 736.760886 -102.451234 
L 733.743139 -99.684999 
L 730.725391 -96.741837 
L 727.707644 -96.642276 
L 724.689896 -97.071809 
L 721.672149 -97.640663 
L 718.654401 -98.110789 
L 715.636654 -98.65284 
L 712.618906 -99.385615 
L 709.601159 -99.812118 
L 706.583411 -100.072891 
L 703.565664 -100.266375 
L 700.547916 -100.934724 
L 697.530169 -102.116882 
L 694.512421 -103.340237 
L 691.494674 -104.054231 
L 688.476926 -104.761193 
L 685.459179 -105.675913 
L 682.441431 -106.817453 
L 679.423684 -108.17835 
L 676.405936 -109.704981 
L 673.388189 -111.78475 
L 670.370441 -113.551192 
L 667.352694 -115.280511 
L 664.334946 -116.955511 
L 661.317199 -118.639835 
L 658.299451 -120.680244 
L 655.281704 -122.306976 
L 652.263956 -123.895046 
L 649.246209 -124.829654 
L 646.228461 -126.044921 
L 643.210714 -128.200092 
L 640.192966 -129.843561 
L 637.175219 -131.64033 
L 634.157471 -134.116246 
L 631.139724 -136.878143 
L 628.121976 -139.245348 
L 625.104229 -141.037667 
L 622.086481 -142.764968 
L 619.068734 -144.764563 
L 616.050986 -146.277526 
L 613.033239 -146.200431 
L 610.015491 -145.843632 
L 606.997744 -146.115896 
L 603.979996 -148.473332 
L 600.962249 -150.975791 
L 597.944501 -153.635662 
L 594.926753 -156.369143 
L 591.909006 -158.900094 
L 588.891258 -160.811776 
L 585.873511 -163.141314 
L 582.855763 -166.033311 
L 579.838016 -168.537756 
L 576.820268 -170.961793 
L 573.802521 -174.692472 
L 570.784773 -177.682157 
L 567.767026 -179.251634 
L 564.749278 -181.043771 
L 561.731531 -184.547819 
L 558.713783 -188.34537 
L 555.696036 -190.008286 
L 552.678288 -191.988799 
L 549.660541 -193.805887 
L 546.642793 -194.91737 
L 543.625046 -195.339119 
L 540.607298 -194.534277 
L 537.589551 -196.903419 
L 534.571803 -201.052029 
L 531.554056 -204.359534 
L 528.536308 -205.902522 
L 525.518561 -207.68954 
L 522.500813 -210.177134 
L 519.483066 -210.09445 
L 516.465318 -206.12043 
L 513.447571 -202.162506 
L 510.429823 -197.884465 
L 507.412076 -194.675962 
L 504.394328 -193.615491 
L 501.376581 -195.183753 
L 498.358833 -197.313168 
L 495.341086 -197.78969 
L 492.323338 -202.681641 
L 489.305591 -213.559232 
L 486.287843 -224.687421 
L 483.270096 -236.134919 
L 480.252348 -248.570382 
L 477.234601 -265.849239 
L 474.216853 -285.744027 
L 471.199106 -307.691415 
L 468.181358 -327.002776 
L 465.163611 -336.411657 
L 462.145863 -348.394807 
L 459.128116 -365.617966 
L 456.110368 -388.175507 
L 453.092621 -416.503598 
L 450.074873 -445.821799 
L 447.057126 -477.988165 
L 444.039378 -507.970918 
L 441.021631 -533.955212 
L 438.003883 -552.996696 
L 434.986136 -566.823886 
L 431.968388 -582.153244 
L 428.950641 -599.325763 
L 425.932893 -615.456834 
L 422.915146 -632.310314 
L 419.897398 -650.838612 
L 416.879651 -665.259987 
L 413.861903 -676.995111 
L 410.844156 -691.489975 
L 407.826408 -700.612388 
L 404.808661 -699.43138 
L 401.790913 -694.671932 
L 398.773166 -694.28187 
L 395.755418 -700.457897 
L 392.737671 -703.487148 
L 389.719923 -711.084614 
L 386.702176 -716.027259 
L 383.684428 -712.993093 
L 380.666681 -708.086674 
L 377.648933 -707.206799 
L 374.631186 -710.410899 
L 371.613438 -715.812564 
L 368.595691 -719.930757 
L 365.577943 -724.074897 
L 362.560196 -728.64 
L 359.542448 -724.36189 
L 356.524701 -715.186495 
L 353.506953 -700.991643 
L 350.489206 -687.020612 
L 347.471458 -673.086744 
L 344.453711 -651.430872 
L 341.435963 -631.525412 
L 338.418216 -614.456915 
L 335.400468 -590.165782 
L 332.382721 -561.870591 
L 329.364973 -536.943833 
L 326.347226 -511.417678 
L 323.329478 -488.994347 
L 320.311731 -467.970606 
L 317.293983 -448.616223 
L 314.276236 -430.704219 
L 311.258488 -415.519727 
L 308.240741 -405.361386 
L 305.222993 -392.908304 
L 302.205246 -377.908142 
L 299.187498 -361.829885 
L 296.169751 -342.322412 
L 293.152003 -325.02484 
L 290.134256 -309.483016 
L 287.116508 -294.529913 
L 284.098761 -280.187564 
L 281.081013 -265.451228 
L 278.063265 -254.615142 
L 275.045518 -245.976278 
L 272.02777 -235.153926 
L 269.010023 -223.450579 
L 265.992275 -214.617184 
L 262.974528 -206.902984 
L 259.95678 -198.428104 
L 256.939033 -189.741826 
L 253.921285 -180.841661 
L 250.903538 -173.422455 
L 247.88579 -167.245821 
L 244.868043 -160.62799 
L 241.850295 -153.445953 
L 238.832548 -145.81187 
L 235.8148 -137.680026 
L 232.797053 -131.494748 
L 229.779305 -126.875227 
L 226.761558 -122.210935 
L 223.74381 -117.555898 
L 220.726063 -113.756058 
L 217.708315 -110.793125 
L 214.690568 -107.687335 
L 211.67282 -105.02492 
L 208.655073 -103.486597 
L 205.637325 -104.065102 
L 202.619578 -105.623761 
L 199.60183 -105.233177 
L 196.584083 -102.813264 
L 193.566335 -100.005434 
L 190.548588 -97.941516 
L 187.53084 -97.042672 
L 184.513093 -96.867512 
L 181.495345 -97.087132 
L 178.477598 -97.480693 
L 175.45985 -97.083579 
L 172.442103 -96.140253 
L 169.424355 -95.65689 
L 166.406608 -95.336915 
L 163.38886 -95.183684 
L 160.371113 -95.121387 
L 157.353365 -95.070029 
L 154.335618 -95.045901 
L 151.31787 -95.040852 
L 148.300123 -95.040265 
L 145.282375 -95.040067 
L 142.264628 -95.040003 
z
" style="stroke: #ff0000; stroke-width: 3"/>
    </defs>
    <g clip-path="url(#p151cdbd91d)">
     <use xlink:href="#mc48dddbf98" x="0" y="864" style="fill: #ff0000; fill-opacity: 0.25; stroke: #ff0000; stroke-width: 3"/>
    </g>
   </g>
   <g id="PolyCollection_3">
    <defs>
     <path id="m25736966b1" d="M 138.817026 -95.040132 
L 138.817026 -95.04 
L 141.874044 -95.04 
L 144.931062 -95.04 
L 147.988081 -95.04 
L 151.045099 -95.04 
L 154.102117 -95.04 
L 157.159135 -95.04 
L 160.216153 -95.04 
L 163.273171 -95.04 
L 166.330189 -95.04 
L 169.387208 -95.04 
L 172.444226 -95.04 
L 175.501244 -95.04 
L 178.558262 -95.04 
L 181.61528 -95.04 
L 184.672298 -95.04 
L 187.729316 -95.04 
L 190.786335 -95.04 
L 193.843353 -95.04 
L 196.900371 -95.04 
L 199.957389 -95.04 
L 203.014407 -95.04 
L 206.071425 -95.04 
L 209.128443 -95.04 
L 212.185462 -95.04 
L 215.24248 -95.04 
L 218.299498 -95.04 
L 221.356516 -95.04 
L 224.413534 -95.04 
L 227.470552 -95.04 
L 230.52757 -95.04 
L 233.584589 -95.04 
L 236.641607 -95.04 
L 239.698625 -95.04 
L 242.755643 -95.04 
L 245.812661 -95.04 
L 248.869679 -95.04 
L 251.926697 -95.04 
L 254.983716 -95.04 
L 258.040734 -95.04 
L 261.097752 -95.04 
L 264.15477 -95.04 
L 267.211788 -95.04 
L 270.268806 -95.04 
L 273.325824 -95.04 
L 276.382842 -95.04 
L 279.439861 -95.04 
L 282.496879 -95.04 
L 285.553897 -95.04 
L 288.610915 -95.04 
L 291.667933 -95.04 
L 294.724951 -95.04 
L 297.781969 -95.04 
L 300.838988 -95.04 
L 303.896006 -95.04 
L 306.953024 -95.04 
L 310.010042 -95.04 
L 313.06706 -95.04 
L 316.124078 -95.04 
L 319.181096 -95.04 
L 322.238115 -95.04 
L 325.295133 -95.04 
L 328.352151 -95.04 
L 331.409169 -95.04 
L 334.466187 -95.04 
L 337.523205 -95.04 
L 340.580223 -95.04 
L 343.637242 -95.04 
L 346.69426 -95.04 
L 349.751278 -95.04 
L 352.808296 -95.04 
L 355.865314 -95.04 
L 358.922332 -95.04 
L 361.97935 -95.04 
L 365.036369 -95.04 
L 368.093387 -95.04 
L 371.150405 -95.04 
L 374.207423 -95.04 
L 377.264441 -95.04 
L 380.321459 -95.04 
L 383.378477 -95.04 
L 386.435496 -95.04 
L 389.492514 -95.04 
L 392.549532 -95.04 
L 395.60655 -95.04 
L 398.663568 -95.04 
L 401.720586 -95.04 
L 404.777604 -95.04 
L 407.834623 -95.04 
L 410.891641 -95.04 
L 413.948659 -95.04 
L 417.005677 -95.04 
L 420.062695 -95.04 
L 423.119713 -95.04 
L 426.176731 -95.04 
L 429.23375 -95.04 
L 432.290768 -95.04 
L 435.347786 -95.04 
L 438.404804 -95.04 
L 441.461822 -95.04 
L 444.51884 -95.04 
L 447.575858 -95.04 
L 450.632877 -95.04 
L 453.689895 -95.04 
L 456.746913 -95.04 
L 459.803931 -95.04 
L 462.860949 -95.04 
L 465.917967 -95.04 
L 468.974985 -95.04 
L 472.032004 -95.04 
L 475.089022 -95.04 
L 478.14604 -95.04 
L 481.203058 -95.04 
L 484.260076 -95.04 
L 487.317094 -95.04 
L 490.374112 -95.04 
L 493.431131 -95.04 
L 496.488149 -95.04 
L 499.545167 -95.04 
L 502.602185 -95.04 
L 505.659203 -95.04 
L 508.716221 -95.04 
L 511.773239 -95.04 
L 514.830258 -95.04 
L 517.887276 -95.04 
L 520.944294 -95.04 
L 524.001312 -95.04 
L 527.05833 -95.04 
L 530.115348 -95.04 
L 533.172366 -95.04 
L 536.229385 -95.04 
L 539.286403 -95.04 
L 542.343421 -95.04 
L 545.400439 -95.04 
L 548.457457 -95.04 
L 551.514475 -95.04 
L 554.571493 -95.04 
L 557.628512 -95.04 
L 560.68553 -95.04 
L 563.742548 -95.04 
L 566.799566 -95.04 
L 569.856584 -95.04 
L 572.913602 -95.04 
L 575.97062 -95.04 
L 579.027639 -95.04 
L 582.084657 -95.04 
L 585.141675 -95.04 
L 588.198693 -95.04 
L 591.255711 -95.04 
L 594.312729 -95.04 
L 597.369747 -95.04 
L 600.426766 -95.04 
L 603.483784 -95.04 
L 606.540802 -95.04 
L 609.59782 -95.04 
L 612.654838 -95.04 
L 615.711856 -95.04 
L 618.768874 -95.04 
L 621.825893 -95.04 
L 624.882911 -95.04 
L 627.939929 -95.04 
L 630.996947 -95.04 
L 634.053965 -95.04 
L 637.110983 -95.04 
L 640.168001 -95.04 
L 643.22502 -95.04 
L 646.282038 -95.04 
L 649.339056 -95.04 
L 652.396074 -95.04 
L 655.453092 -95.04 
L 658.51011 -95.04 
L 661.567128 -95.04 
L 664.624147 -95.04 
L 667.681165 -95.04 
L 670.738183 -95.04 
L 673.795201 -95.04 
L 676.852219 -95.04 
L 679.909237 -95.04 
L 682.966255 -95.04 
L 686.023274 -95.04 
L 689.080292 -95.04 
L 692.13731 -95.04 
L 695.194328 -95.04 
L 698.251346 -95.04 
L 701.308364 -95.04 
L 704.365382 -95.04 
L 707.422401 -95.04 
L 710.479419 -95.04 
L 713.536437 -95.04 
L 716.593455 -95.04 
L 719.650473 -95.04 
L 722.707491 -95.04 
L 725.764509 -95.04 
L 728.821528 -95.04 
L 731.878546 -95.04 
L 734.935564 -95.04 
L 737.992582 -95.04 
L 741.0496 -95.04 
L 744.106618 -95.04 
L 747.163636 -95.04 
L 747.163636 -95.094762 
L 747.163636 -95.094762 
L 744.106618 -95.525318 
L 741.0496 -97.153526 
L 737.992582 -99.589407 
L 734.935564 -99.979215 
L 731.878546 -97.995759 
L 728.821528 -96.501387 
L 725.764509 -96.32647 
L 722.707491 -96.769295 
L 719.650473 -97.38976 
L 716.593455 -97.995173 
L 713.536437 -98.608523 
L 710.479419 -99.295723 
L 707.422401 -99.971836 
L 704.365382 -100.619094 
L 701.308364 -101.468129 
L 698.251346 -102.746202 
L 695.194328 -104.205307 
L 692.13731 -105.134251 
L 689.080292 -105.487919 
L 686.023274 -105.987052 
L 682.966255 -106.859791 
L 679.909237 -107.95575 
L 676.852219 -109.253522 
L 673.795201 -110.628602 
L 670.738183 -111.980147 
L 667.681165 -113.27089 
L 664.624147 -114.413782 
L 661.567128 -115.48263 
L 658.51011 -116.700663 
L 655.453092 -117.972887 
L 652.396074 -119.215297 
L 649.339056 -120.528336 
L 646.282038 -121.698506 
L 643.22502 -122.534959 
L 640.168001 -123.229565 
L 637.110983 -124.078494 
L 634.053965 -125.127276 
L 630.996947 -126.277289 
L 627.939929 -127.441723 
L 624.882911 -128.762584 
L 621.825893 -130.44633 
L 618.768874 -131.901994 
L 615.711856 -132.598957 
L 612.654838 -132.941453 
L 609.59782 -133.385306 
L 606.540802 -133.954148 
L 603.483784 -134.954393 
L 600.426766 -136.766084 
L 597.369747 -138.789702 
L 594.312729 -140.168567 
L 591.255711 -140.809855 
L 588.198693 -140.990987 
L 585.141675 -141.180661 
L 582.084657 -142.059597 
L 579.027639 -143.19767 
L 575.97062 -143.805665 
L 572.913602 -144.278731 
L 569.856584 -144.986752 
L 566.799566 -146.291137 
L 563.742548 -148.145762 
L 560.68553 -149.705941 
L 557.628512 -150.457249 
L 554.571493 -150.387628 
L 551.514475 -149.850071 
L 548.457457 -149.760485 
L 545.400439 -150.560555 
L 542.343421 -151.822718 
L 539.286403 -153.339793 
L 536.229385 -155.261516 
L 533.172366 -157.563647 
L 530.115348 -159.765135 
L 527.05833 -161.526895 
L 524.001312 -163.222701 
L 520.944294 -164.983632 
L 517.887276 -167.006965 
L 514.830258 -169.754682 
L 511.773239 -172.943363 
L 508.716221 -176.322917 
L 505.659203 -179.922058 
L 502.602185 -183.350065 
L 499.545167 -185.851865 
L 496.488149 -187.83717 
L 493.431131 -191.384851 
L 490.374112 -197.484344 
L 487.317094 -204.545107 
L 484.260076 -210.471778 
L 481.203058 -214.997879 
L 478.14604 -219.968351 
L 475.089022 -227.886552 
L 472.032004 -239.400404 
L 468.974985 -253.489124 
L 465.917967 -270.52401 
L 462.860949 -291.586475 
L 459.803931 -316.291517 
L 456.746913 -344.558964 
L 453.689895 -375.881396 
L 450.632877 -408.257757 
L 447.575858 -440.677004 
L 444.51884 -472.74544 
L 441.461822 -503.5735 
L 438.404804 -533.281545 
L 435.347786 -562.285404 
L 432.290768 -590.233253 
L 429.23375 -615.958356 
L 426.176731 -636.860325 
L 423.119713 -652.557509 
L 420.062695 -664.84362 
L 417.005677 -674.160093 
L 413.948659 -681.825091 
L 410.891641 -689.428806 
L 407.834623 -695.428272 
L 404.777604 -698.7268 
L 401.720586 -701.071204 
L 398.663568 -703.860701 
L 395.60655 -707.581679 
L 392.549532 -713.011711 
L 389.492514 -719.506044 
L 386.435496 -724.053166 
L 383.378477 -725.418509 
L 380.321459 -725.834675 
L 377.264441 -727.29694 
L 374.207423 -728.523789 
L 371.150405 -727.983521 
L 368.093387 -726.989294 
L 365.036369 -725.283264 
L 361.97935 -719.519331 
L 358.922332 -709.290325 
L 355.865314 -697.970388 
L 352.808296 -687.856503 
L 349.751278 -677.618449 
L 346.69426 -664.322456 
L 343.637242 -649.330856 
L 340.580223 -636.554911 
L 337.523205 -626.139128 
L 334.466187 -615.35644 
L 331.409169 -601.456263 
L 328.352151 -584.076179 
L 325.295133 -564.330596 
L 322.238115 -543.32586 
L 319.181096 -522.189538 
L 316.124078 -501.561179 
L 313.06706 -484.155554 
L 310.010042 -473.717695 
L 306.953024 -468.757218 
L 303.896006 -461.285953 
L 300.838988 -445.906442 
L 297.781969 -425.748268 
L 294.724951 -404.713053 
L 291.667933 -382.346538 
L 288.610915 -359.205368 
L 285.553897 -337.613349 
L 282.496879 -319.065095 
L 279.439861 -305.069945 
L 276.382842 -295.133142 
L 273.325824 -285.500188 
L 270.268806 -273.67945 
L 267.211788 -260.860604 
L 264.15477 -249.165592 
L 261.097752 -239.258206 
L 258.040734 -230.208052 
L 254.983716 -220.345272 
L 251.926697 -209.311255 
L 248.869679 -198.77851 
L 245.812661 -189.79787 
L 242.755643 -181.731442 
L 239.698625 -173.068267 
L 236.641607 -162.836873 
L 233.584589 -152.308337 
L 230.52757 -143.623498 
L 227.470552 -136.761479 
L 224.413534 -130.914624 
L 221.356516 -126.135444 
L 218.299498 -121.997537 
L 215.24248 -117.996099 
L 212.185462 -114.11058 
L 209.128443 -110.252503 
L 206.071425 -107.093641 
L 203.014407 -105.421958 
L 199.957389 -104.829348 
L 196.900371 -104.191643 
L 193.843353 -102.737698 
L 190.786335 -100.500068 
L 187.729316 -98.138661 
L 184.672298 -96.419119 
L 181.61528 -95.56554 
L 178.558262 -95.272133 
L 175.501244 -95.22007 
L 172.444226 -95.346476 
L 169.387208 -95.886473 
L 166.330189 -97.355532 
L 163.273171 -99.73716 
L 160.216153 -101.135865 
L 157.159135 -99.801172 
L 154.102117 -97.26758 
L 151.045099 -95.693579 
L 147.988081 -95.171302 
L 144.931062 -95.059308 
L 141.874044 -95.042005 
L 138.817026 -95.040132 
z
" style="stroke: #008000; stroke-width: 3"/>
    </defs>
    <g clip-path="url(#p151cdbd91d)">
     <use xlink:href="#m25736966b1" x="0" y="864" style="fill: #008000; fill-opacity: 0.25; stroke: #008000; stroke-width: 3"/>
    </g>
   </g>
   <g id="matplotlib.axis_1">
    <g id="xtick_1">
     <g id="line2d_1">
      <defs>
       <path id="m7ef1f52eb7" d="M 0 0 
L 0 3.5 
" style="stroke: #000000; stroke-width: 0.8"/>
      </defs>
      <g>
       <use xlink:href="#m7ef1f52eb7" x="139.891911" y="768.96" style="stroke: #000000; stroke-width: 0.8"/>
      </g>
     </g>
     <g id="text_1">
      <!-- 0.0 -->
      <g transform="translate(131.940348 783.558437)scale(0.1 -0.1)">
       <defs>
        <path id="DejaVuSans-30" d="M 2034 4250 
Q 1547 4250 1301 3770 
Q 1056 3291 1056 2328 
Q 1056 1369 1301 889 
Q 1547 409 2034 409 
Q 2525 409 2770 889 
Q 3016 1369 3016 2328 
Q 3016 3291 2770 3770 
Q 2525 4250 2034 4250 
z
M 2034 4750 
Q 2819 4750 3233 4129 
Q 3647 3509 3647 2328 
Q 3647 1150 3233 529 
Q 2819 -91 2034 -91 
Q 1250 -91 836 529 
Q 422 1150 422 2328 
Q 422 3509 836 4129 
Q 1250 4750 2034 4750 
z
" transform="scale(0.015625)"/>
        <path id="DejaVuSans-2e" d="M 684 794 
L 1344 794 
L 1344 0 
L 684 0 
L 684 794 
z
" transform="scale(0.015625)"/>
       </defs>
       <use xlink:href="#DejaVuSans-30"/>
       <use xlink:href="#DejaVuSans-2e" x="63.623047"/>
       <use xlink:href="#DejaVuSans-30" x="95.410156"/>
      </g>
     </g>
    </g>
    <g id="xtick_2">
     <g id="line2d_2">
      <g>
       <use xlink:href="#m7ef1f52eb7" x="259.175805" y="768.96" style="stroke: #000000; stroke-width: 0.8"/>
      </g>
     </g>
     <g id="text_2">
      <!-- 0.2 -->
      <g transform="translate(251.224243 783.558437)scale(0.1 -0.1)">
       <defs>
        <path id="DejaVuSans-32" d="M 1228 531 
L 3431 531 
L 3431 0 
L 469 0 
L 469 531 
Q 828 903 1448 1529 
Q 2069 2156 2228 2338 
Q 2531 2678 2651 2914 
Q 2772 3150 2772 3378 
Q 2772 3750 2511 3984 
Q 2250 4219 1831 4219 
Q 1534 4219 1204 4116 
Q 875 4013 500 3803 
L 500 4441 
Q 881 4594 1212 4672 
Q 1544 4750 1819 4750 
Q 2544 4750 2975 4387 
Q 3406 4025 3406 3419 
Q 3406 3131 3298 2873 
Q 3191 2616 2906 2266 
Q 2828 2175 2409 1742 
Q 1991 1309 1228 531 
z
" transform="scale(0.015625)"/>
       </defs>
       <use xlink:href="#DejaVuSans-30"/>
       <use xlink:href="#DejaVuSans-2e" x="63.623047"/>
       <use xlink:href="#DejaVuSans-32" x="95.410156"/>
      </g>
     </g>
    </g>
    <g id="xtick_3">
     <g id="line2d_3">
      <g>
       <use xlink:href="#m7ef1f52eb7" x="378.4597" y="768.96" style="stroke: #000000; stroke-width: 0.8"/>
      </g>
     </g>
     <g id="text_3">
      <!-- 0.4 -->
      <g transform="translate(370.508137 783.558437)scale(0.1 -0.1)">
       <defs>
        <path id="DejaVuSans-34" d="M 2419 4116 
L 825 1625 
L 2419 1625 
L 2419 4116 
z
M 2253 4666 
L 3047 4666 
L 3047 1625 
L 3713 1625 
L 3713 1100 
L 3047 1100 
L 3047 0 
L 2419 0 
L 2419 1100 
L 313 1100 
L 313 1709 
L 2253 4666 
z
" transform="scale(0.015625)"/>
       </defs>
       <use xlink:href="#DejaVuSans-30"/>
       <use xlink:href="#DejaVuSans-2e" x="63.623047"/>
       <use xlink:href="#DejaVuSans-34" x="95.410156"/>
      </g>
     </g>
    </g>
    <g id="xtick_4">
     <g id="line2d_4">
      <g>
       <use xlink:href="#m7ef1f52eb7" x="497.743594" y="768.96" style="stroke: #000000; stroke-width: 0.8"/>
      </g>
     </g>
     <g id="text_4">
      <!-- 0.6 -->
      <g transform="translate(489.792032 783.558437)scale(0.1 -0.1)">
       <defs>
        <path id="DejaVuSans-36" d="M 2113 2584 
Q 1688 2584 1439 2293 
Q 1191 2003 1191 1497 
Q 1191 994 1439 701 
Q 1688 409 2113 409 
Q 2538 409 2786 701 
Q 3034 994 3034 1497 
Q 3034 2003 2786 2293 
Q 2538 2584 2113 2584 
z
M 3366 4563 
L 3366 3988 
Q 3128 4100 2886 4159 
Q 2644 4219 2406 4219 
Q 1781 4219 1451 3797 
Q 1122 3375 1075 2522 
Q 1259 2794 1537 2939 
Q 1816 3084 2150 3084 
Q 2853 3084 3261 2657 
Q 3669 2231 3669 1497 
Q 3669 778 3244 343 
Q 2819 -91 2113 -91 
Q 1303 -91 875 529 
Q 447 1150 447 2328 
Q 447 3434 972 4092 
Q 1497 4750 2381 4750 
Q 2619 4750 2861 4703 
Q 3103 4656 3366 4563 
z
" transform="scale(0.015625)"/>
       </defs>
       <use xlink:href="#DejaVuSans-30"/>
       <use xlink:href="#DejaVuSans-2e" x="63.623047"/>
       <use xlink:href="#DejaVuSans-36" x="95.410156"/>
      </g>
     </g>
    </g>
    <g id="xtick_5">
     <g id="line2d_5">
      <g>
       <use xlink:href="#m7ef1f52eb7" x="617.027489" y="768.96" style="stroke: #000000; stroke-width: 0.8"/>
      </g>
     </g>
     <g id="text_5">
      <!-- 0.8 -->
      <g transform="translate(609.075926 783.558437)scale(0.1 -0.1)">
       <defs>
        <path id="DejaVuSans-38" d="M 2034 2216 
Q 1584 2216 1326 1975 
Q 1069 1734 1069 1313 
Q 1069 891 1326 650 
Q 1584 409 2034 409 
Q 2484 409 2743 651 
Q 3003 894 3003 1313 
Q 3003 1734 2745 1975 
Q 2488 2216 2034 2216 
z
M 1403 2484 
Q 997 2584 770 2862 
Q 544 3141 544 3541 
Q 544 4100 942 4425 
Q 1341 4750 2034 4750 
Q 2731 4750 3128 4425 
Q 3525 4100 3525 3541 
Q 3525 3141 3298 2862 
Q 3072 2584 2669 2484 
Q 3125 2378 3379 2068 
Q 3634 1759 3634 1313 
Q 3634 634 3220 271 
Q 2806 -91 2034 -91 
Q 1263 -91 848 271 
Q 434 634 434 1313 
Q 434 1759 690 2068 
Q 947 2378 1403 2484 
z
M 1172 3481 
Q 1172 3119 1398 2916 
Q 1625 2713 2034 2713 
Q 2441 2713 2670 2916 
Q 2900 3119 2900 3481 
Q 2900 3844 2670 4047 
Q 2441 4250 2034 4250 
Q 1625 4250 1398 4047 
Q 1172 3844 1172 3481 
z
" transform="scale(0.015625)"/>
       </defs>
       <use xlink:href="#DejaVuSans-30"/>
       <use xlink:href="#DejaVuSans-2e" x="63.623047"/>
       <use xlink:href="#DejaVuSans-38" x="95.410156"/>
      </g>
     </g>
    </g>
    <g id="xtick_6">
     <g id="line2d_6">
      <g>
       <use xlink:href="#m7ef1f52eb7" x="736.311383" y="768.96" style="stroke: #000000; stroke-width: 0.8"/>
      </g>
     </g>
     <g id="text_6">
      <!-- 1.0 -->
      <g transform="translate(728.359821 783.558437)scale(0.1 -0.1)">
       <defs>
        <path id="DejaVuSans-31" d="M 794 531 
L 1825 531 
L 1825 4091 
L 703 3866 
L 703 4441 
L 1819 4666 
L 2450 4666 
L 2450 531 
L 3481 531 
L 3481 0 
L 794 0 
L 794 531 
z
" transform="scale(0.015625)"/>
       </defs>
       <use xlink:href="#DejaVuSans-31"/>
       <use xlink:href="#DejaVuSans-2e" x="63.623047"/>
       <use xlink:href="#DejaVuSans-30" x="95.410156"/>
      </g>
     </g>
    </g>
    <g id="text_7">
     <!-- Similarity -->
     <g transform="translate(404.97625 801.795625)scale(0.16 -0.16)">
      <defs>
       <path id="DejaVuSans-53" d="M 3425 4513 
L 3425 3897 
Q 3066 4069 2747 4153 
Q 2428 4238 2131 4238 
Q 1616 4238 1336 4038 
Q 1056 3838 1056 3469 
Q 1056 3159 1242 3001 
Q 1428 2844 1947 2747 
L 2328 2669 
Q 3034 2534 3370 2195 
Q 3706 1856 3706 1288 
Q 3706 609 3251 259 
Q 2797 -91 1919 -91 
Q 1588 -91 1214 -16 
Q 841 59 441 206 
L 441 856 
Q 825 641 1194 531 
Q 1563 422 1919 422 
Q 2459 422 2753 634 
Q 3047 847 3047 1241 
Q 3047 1584 2836 1778 
Q 2625 1972 2144 2069 
L 1759 2144 
Q 1053 2284 737 2584 
Q 422 2884 422 3419 
Q 422 4038 858 4394 
Q 1294 4750 2059 4750 
Q 2388 4750 2728 4690 
Q 3069 4631 3425 4513 
z
" transform="scale(0.015625)"/>
       <path id="DejaVuSans-69" d="M 603 3500 
L 1178 3500 
L 1178 0 
L 603 0 
L 603 3500 
z
M 603 4863 
L 1178 4863 
L 1178 4134 
L 603 4134 
L 603 4863 
z
" transform="scale(0.015625)"/>
       <path id="DejaVuSans-6d" d="M 3328 2828 
Q 3544 3216 3844 3400 
Q 4144 3584 4550 3584 
Q 5097 3584 5394 3201 
Q 5691 2819 5691 2113 
L 5691 0 
L 5113 0 
L 5113 2094 
Q 5113 2597 4934 2840 
Q 4756 3084 4391 3084 
Q 3944 3084 3684 2787 
Q 3425 2491 3425 1978 
L 3425 0 
L 2847 0 
L 2847 2094 
Q 2847 2600 2669 2842 
Q 2491 3084 2119 3084 
Q 1678 3084 1418 2786 
Q 1159 2488 1159 1978 
L 1159 0 
L 581 0 
L 581 3500 
L 1159 3500 
L 1159 2956 
Q 1356 3278 1631 3431 
Q 1906 3584 2284 3584 
Q 2666 3584 2933 3390 
Q 3200 3197 3328 2828 
z
" transform="scale(0.015625)"/>
       <path id="DejaVuSans-6c" d="M 603 4863 
L 1178 4863 
L 1178 0 
L 603 0 
L 603 4863 
z
" transform="scale(0.015625)"/>
       <path id="DejaVuSans-61" d="M 2194 1759 
Q 1497 1759 1228 1600 
Q 959 1441 959 1056 
Q 959 750 1161 570 
Q 1363 391 1709 391 
Q 2188 391 2477 730 
Q 2766 1069 2766 1631 
L 2766 1759 
L 2194 1759 
z
M 3341 1997 
L 3341 0 
L 2766 0 
L 2766 531 
Q 2569 213 2275 61 
Q 1981 -91 1556 -91 
Q 1019 -91 701 211 
Q 384 513 384 1019 
Q 384 1609 779 1909 
Q 1175 2209 1959 2209 
L 2766 2209 
L 2766 2266 
Q 2766 2663 2505 2880 
Q 2244 3097 1772 3097 
Q 1472 3097 1187 3025 
Q 903 2953 641 2809 
L 641 3341 
Q 956 3463 1253 3523 
Q 1550 3584 1831 3584 
Q 2591 3584 2966 3190 
Q 3341 2797 3341 1997 
z
" transform="scale(0.015625)"/>
       <path id="DejaVuSans-72" d="M 2631 2963 
Q 2534 3019 2420 3045 
Q 2306 3072 2169 3072 
Q 1681 3072 1420 2755 
Q 1159 2438 1159 1844 
L 1159 0 
L 581 0 
L 581 3500 
L 1159 3500 
L 1159 2956 
Q 1341 3275 1631 3429 
Q 1922 3584 2338 3584 
Q 2397 3584 2469 3576 
Q 2541 3569 2628 3553 
L 2631 2963 
z
" transform="scale(0.015625)"/>
       <path id="DejaVuSans-74" d="M 1172 4494 
L 1172 3500 
L 2356 3500 
L 2356 3053 
L 1172 3053 
L 1172 1153 
Q 1172 725 1289 603 
Q 1406 481 1766 481 
L 2356 481 
L 2356 0 
L 1766 0 
Q 1100 0 847 248 
Q 594 497 594 1153 
L 594 3053 
L 172 3053 
L 172 3500 
L 594 3500 
L 594 4494 
L 1172 4494 
z
" transform="scale(0.015625)"/>
       <path id="DejaVuSans-79" d="M 2059 -325 
Q 1816 -950 1584 -1140 
Q 1353 -1331 966 -1331 
L 506 -1331 
L 506 -850 
L 844 -850 
Q 1081 -850 1212 -737 
Q 1344 -625 1503 -206 
L 1606 56 
L 191 3500 
L 800 3500 
L 1894 763 
L 2988 3500 
L 3597 3500 
L 2059 -325 
z
" transform="scale(0.015625)"/>
      </defs>
      <use xlink:href="#DejaVuSans-53"/>
      <use xlink:href="#DejaVuSans-69" x="63.476562"/>
      <use xlink:href="#DejaVuSans-6d" x="91.259766"/>
      <use xlink:href="#DejaVuSans-69" x="188.671875"/>
      <use xlink:href="#DejaVuSans-6c" x="216.455078"/>
      <use xlink:href="#DejaVuSans-61" x="244.238281"/>
      <use xlink:href="#DejaVuSans-72" x="305.517578"/>
      <use xlink:href="#DejaVuSans-69" x="346.630859"/>
      <use xlink:href="#DejaVuSans-74" x="374.414062"/>
      <use xlink:href="#DejaVuSans-79" x="413.623047"/>
     </g>
    </g>
   </g>
   <g id="matplotlib.axis_2">
    <g id="ytick_1">
     <g id="line2d_7">
      <defs>
       <path id="m69990bd409" d="M 0 0 
L -3.5 0 
" style="stroke: #000000; stroke-width: 0.8"/>
      </defs>
      <g>
       <use xlink:href="#m69990bd409" x="108" y="768.96" style="stroke: #000000; stroke-width: 0.8"/>
      </g>
     </g>
     <g id="text_8">
      <!-- 0.0 -->
      <g transform="translate(85.096875 772.759219)scale(0.1 -0.1)">
       <use xlink:href="#DejaVuSans-30"/>
       <use xlink:href="#DejaVuSans-2e" x="63.623047"/>
       <use xlink:href="#DejaVuSans-30" x="95.410156"/>
      </g>
     </g>
    </g>
    <g id="ytick_2">
     <g id="line2d_8">
      <g>
       <use xlink:href="#m69990bd409" x="108" y="677.421537" style="stroke: #000000; stroke-width: 0.8"/>
      </g>
     </g>
     <g id="text_9">
      <!-- 0.5 -->
      <g transform="translate(85.096875 681.220755)scale(0.1 -0.1)">
       <defs>
        <path id="DejaVuSans-35" d="M 691 4666 
L 3169 4666 
L 3169 4134 
L 1269 4134 
L 1269 2991 
Q 1406 3038 1543 3061 
Q 1681 3084 1819 3084 
Q 2600 3084 3056 2656 
Q 3513 2228 3513 1497 
Q 3513 744 3044 326 
Q 2575 -91 1722 -91 
Q 1428 -91 1123 -41 
Q 819 9 494 109 
L 494 744 
Q 775 591 1075 516 
Q 1375 441 1709 441 
Q 2250 441 2565 725 
Q 2881 1009 2881 1497 
Q 2881 1984 2565 2268 
Q 2250 2553 1709 2553 
Q 1456 2553 1204 2497 
Q 953 2441 691 2322 
L 691 4666 
z
" transform="scale(0.015625)"/>
       </defs>
       <use xlink:href="#DejaVuSans-30"/>
       <use xlink:href="#DejaVuSans-2e" x="63.623047"/>
       <use xlink:href="#DejaVuSans-35" x="95.410156"/>
      </g>
     </g>
    </g>
    <g id="ytick_3">
     <g id="line2d_9">
      <g>
       <use xlink:href="#m69990bd409" x="108" y="585.883073" style="stroke: #000000; stroke-width: 0.8"/>
      </g>
     </g>
     <g id="text_10">
      <!-- 1.0 -->
      <g transform="translate(85.096875 589.682292)scale(0.1 -0.1)">
       <use xlink:href="#DejaVuSans-31"/>
       <use xlink:href="#DejaVuSans-2e" x="63.623047"/>
       <use xlink:href="#DejaVuSans-30" x="95.410156"/>
      </g>
     </g>
    </g>
    <g id="ytick_4">
     <g id="line2d_10">
      <g>
       <use xlink:href="#m69990bd409" x="108" y="494.34461" style="stroke: #000000; stroke-width: 0.8"/>
      </g>
     </g>
     <g id="text_11">
      <!-- 1.5 -->
      <g transform="translate(85.096875 498.143829)scale(0.1 -0.1)">
       <use xlink:href="#DejaVuSans-31"/>
       <use xlink:href="#DejaVuSans-2e" x="63.623047"/>
       <use xlink:href="#DejaVuSans-35" x="95.410156"/>
      </g>
     </g>
    </g>
    <g id="ytick_5">
     <g id="line2d_11">
      <g>
       <use xlink:href="#m69990bd409" x="108" y="402.806147" style="stroke: #000000; stroke-width: 0.8"/>
      </g>
     </g>
     <g id="text_12">
      <!-- 2.0 -->
      <g transform="translate(85.096875 406.605365)scale(0.1 -0.1)">
       <use xlink:href="#DejaVuSans-32"/>
       <use xlink:href="#DejaVuSans-2e" x="63.623047"/>
       <use xlink:href="#DejaVuSans-30" x="95.410156"/>
      </g>
     </g>
    </g>
    <g id="ytick_6">
     <g id="line2d_12">
      <g>
       <use xlink:href="#m69990bd409" x="108" y="311.267683" style="stroke: #000000; stroke-width: 0.8"/>
      </g>
     </g>
     <g id="text_13">
      <!-- 2.5 -->
      <g transform="translate(85.096875 315.066902)scale(0.1 -0.1)">
       <use xlink:href="#DejaVuSans-32"/>
       <use xlink:href="#DejaVuSans-2e" x="63.623047"/>
       <use xlink:href="#DejaVuSans-35" x="95.410156"/>
      </g>
     </g>
    </g>
    <g id="ytick_7">
     <g id="line2d_13">
      <g>
       <use xlink:href="#m69990bd409" x="108" y="219.72922" style="stroke: #000000; stroke-width: 0.8"/>
      </g>
     </g>
     <g id="text_14">
      <!-- 3.0 -->
      <g transform="translate(85.096875 223.528439)scale(0.1 -0.1)">
       <defs>
        <path id="DejaVuSans-33" d="M 2597 2516 
Q 3050 2419 3304 2112 
Q 3559 1806 3559 1356 
Q 3559 666 3084 287 
Q 2609 -91 1734 -91 
Q 1441 -91 1130 -33 
Q 819 25 488 141 
L 488 750 
Q 750 597 1062 519 
Q 1375 441 1716 441 
Q 2309 441 2620 675 
Q 2931 909 2931 1356 
Q 2931 1769 2642 2001 
Q 2353 2234 1838 2234 
L 1294 2234 
L 1294 2753 
L 1863 2753 
Q 2328 2753 2575 2939 
Q 2822 3125 2822 3475 
Q 2822 3834 2567 4026 
Q 2313 4219 1838 4219 
Q 1578 4219 1281 4162 
Q 984 4106 628 3988 
L 628 4550 
Q 988 4650 1302 4700 
Q 1616 4750 1894 4750 
Q 2613 4750 3031 4423 
Q 3450 4097 3450 3541 
Q 3450 3153 3228 2886 
Q 3006 2619 2597 2516 
z
" transform="scale(0.015625)"/>
       </defs>
       <use xlink:href="#DejaVuSans-33"/>
       <use xlink:href="#DejaVuSans-2e" x="63.623047"/>
       <use xlink:href="#DejaVuSans-30" x="95.410156"/>
      </g>
     </g>
    </g>
    <g id="ytick_8">
     <g id="line2d_14">
      <g>
       <use xlink:href="#m69990bd409" x="108" y="128.190757" style="stroke: #000000; stroke-width: 0.8"/>
      </g>
     </g>
     <g id="text_15">
      <!-- 3.5 -->
      <g transform="translate(85.096875 131.989975)scale(0.1 -0.1)">
       <use xlink:href="#DejaVuSans-33"/>
       <use xlink:href="#DejaVuSans-2e" x="63.623047"/>
       <use xlink:href="#DejaVuSans-35" x="95.410156"/>
      </g>
     </g>
    </g>
    <g id="text_16">
     <!-- Density -->
     <g transform="translate(77.769375 466.73375)rotate(-90)scale(0.16 -0.16)">
      <defs>
       <path id="DejaVuSans-44" d="M 1259 4147 
L 1259 519 
L 2022 519 
Q 2988 519 3436 956 
Q 3884 1394 3884 2338 
Q 3884 3275 3436 3711 
Q 2988 4147 2022 4147 
L 1259 4147 
z
M 628 4666 
L 1925 4666 
Q 3281 4666 3915 4102 
Q 4550 3538 4550 2338 
Q 4550 1131 3912 565 
Q 3275 0 1925 0 
L 628 0 
L 628 4666 
z
" transform="scale(0.015625)"/>
       <path id="DejaVuSans-65" d="M 3597 1894 
L 3597 1613 
L 953 1613 
Q 991 1019 1311 708 
Q 1631 397 2203 397 
Q 2534 397 2845 478 
Q 3156 559 3463 722 
L 3463 178 
Q 3153 47 2828 -22 
Q 2503 -91 2169 -91 
Q 1331 -91 842 396 
Q 353 884 353 1716 
Q 353 2575 817 3079 
Q 1281 3584 2069 3584 
Q 2775 3584 3186 3129 
Q 3597 2675 3597 1894 
z
M 3022 2063 
Q 3016 2534 2758 2815 
Q 2500 3097 2075 3097 
Q 1594 3097 1305 2825 
Q 1016 2553 972 2059 
L 3022 2063 
z
" transform="scale(0.015625)"/>
       <path id="DejaVuSans-6e" d="M 3513 2113 
L 3513 0 
L 2938 0 
L 2938 2094 
Q 2938 2591 2744 2837 
Q 2550 3084 2163 3084 
Q 1697 3084 1428 2787 
Q 1159 2491 1159 1978 
L 1159 0 
L 581 0 
L 581 3500 
L 1159 3500 
L 1159 2956 
Q 1366 3272 1645 3428 
Q 1925 3584 2291 3584 
Q 2894 3584 3203 3211 
Q 3513 2838 3513 2113 
z
" transform="scale(0.015625)"/>
       <path id="DejaVuSans-73" d="M 2834 3397 
L 2834 2853 
Q 2591 2978 2328 3040 
Q 2066 3103 1784 3103 
Q 1356 3103 1142 2972 
Q 928 2841 928 2578 
Q 928 2378 1081 2264 
Q 1234 2150 1697 2047 
L 1894 2003 
Q 2506 1872 2764 1633 
Q 3022 1394 3022 966 
Q 3022 478 2636 193 
Q 2250 -91 1575 -91 
Q 1294 -91 989 -36 
Q 684 19 347 128 
L 347 722 
Q 666 556 975 473 
Q 1284 391 1588 391 
Q 1994 391 2212 530 
Q 2431 669 2431 922 
Q 2431 1156 2273 1281 
Q 2116 1406 1581 1522 
L 1381 1569 
Q 847 1681 609 1914 
Q 372 2147 372 2553 
Q 372 3047 722 3315 
Q 1072 3584 1716 3584 
Q 2034 3584 2315 3537 
Q 2597 3491 2834 3397 
z
" transform="scale(0.015625)"/>
      </defs>
      <use xlink:href="#DejaVuSans-44"/>
      <use xlink:href="#DejaVuSans-65" x="77.001953"/>
      <use xlink:href="#DejaVuSans-6e" x="138.525391"/>
      <use xlink:href="#DejaVuSans-73" x="201.904297"/>
      <use xlink:href="#DejaVuSans-69" x="254.003906"/>
      <use xlink:href="#DejaVuSans-74" x="281.787109"/>
      <use xlink:href="#DejaVuSans-79" x="320.996094"/>
     </g>
    </g>
   </g>
   <g id="patch_3">
    <path d="M 108 768.96 
L 108 103.68 
" style="fill: none; stroke: #000000; stroke-width: 0.8; stroke-linejoin: miter; stroke-linecap: square"/>
   </g>
   <g id="patch_4">
    <path d="M 777.6 768.96 
L 777.6 103.68 
" style="fill: none; stroke: #000000; stroke-width: 0.8; stroke-linejoin: miter; stroke-linecap: square"/>
   </g>
   <g id="patch_5">
    <path d="M 108 768.96 
L 777.6 768.96 
" style="fill: none; stroke: #000000; stroke-width: 0.8; stroke-linejoin: miter; stroke-linecap: square"/>
   </g>
   <g id="patch_6">
    <path d="M 108 103.68 
L 777.6 103.68 
" style="fill: none; stroke: #000000; stroke-width: 0.8; stroke-linejoin: miter; stroke-linecap: square"/>
   </g>
   <g id="legend_1">
    <g id="patch_7">
     <path d="M 484.15 186.935 
L 766.4 186.935 
Q 769.6 186.935 769.6 183.735 
L 769.6 114.88 
Q 769.6 111.68 766.4 111.68 
L 484.15 111.68 
Q 480.95 111.68 480.95 114.88 
L 480.95 183.735 
Q 480.95 186.935 484.15 186.935 
z
" style="fill: #ffffff; opacity: 0.8; stroke: #cccccc; stroke-linejoin: miter"/>
    </g>
    <g id="patch_8">
     <path d="M 487.35 130.2375 
L 519.35 130.2375 
L 519.35 119.0375 
L 487.35 119.0375 
z
" style="fill: #0000ff; fill-opacity: 0.25; stroke: #0000ff; stroke-width: 3; stroke-linejoin: miter"/>
    </g>
    <g id="text_17">
     <!-- Training vs Test set similarity -->
     <g transform="translate(532.15 130.2375)scale(0.16 -0.16)">
      <defs>
       <path id="DejaVuSans-54" d="M -19 4666 
L 3928 4666 
L 3928 4134 
L 2272 4134 
L 2272 0 
L 1638 0 
L 1638 4134 
L -19 4134 
L -19 4666 
z
" transform="scale(0.015625)"/>
       <path id="DejaVuSans-67" d="M 2906 1791 
Q 2906 2416 2648 2759 
Q 2391 3103 1925 3103 
Q 1463 3103 1205 2759 
Q 947 2416 947 1791 
Q 947 1169 1205 825 
Q 1463 481 1925 481 
Q 2391 481 2648 825 
Q 2906 1169 2906 1791 
z
M 3481 434 
Q 3481 -459 3084 -895 
Q 2688 -1331 1869 -1331 
Q 1566 -1331 1297 -1286 
Q 1028 -1241 775 -1147 
L 775 -588 
Q 1028 -725 1275 -790 
Q 1522 -856 1778 -856 
Q 2344 -856 2625 -561 
Q 2906 -266 2906 331 
L 2906 616 
Q 2728 306 2450 153 
Q 2172 0 1784 0 
Q 1141 0 747 490 
Q 353 981 353 1791 
Q 353 2603 747 3093 
Q 1141 3584 1784 3584 
Q 2172 3584 2450 3431 
Q 2728 3278 2906 2969 
L 2906 3500 
L 3481 3500 
L 3481 434 
z
" transform="scale(0.015625)"/>
       <path id="DejaVuSans-20" transform="scale(0.015625)"/>
       <path id="DejaVuSans-76" d="M 191 3500 
L 800 3500 
L 1894 563 
L 2988 3500 
L 3597 3500 
L 2284 0 
L 1503 0 
L 191 3500 
z
" transform="scale(0.015625)"/>
      </defs>
      <use xlink:href="#DejaVuSans-54"/>
      <use xlink:href="#DejaVuSans-72" x="46.333984"/>
      <use xlink:href="#DejaVuSans-61" x="87.447266"/>
      <use xlink:href="#DejaVuSans-69" x="148.726562"/>
      <use xlink:href="#DejaVuSans-6e" x="176.509766"/>
      <use xlink:href="#DejaVuSans-69" x="239.888672"/>
      <use xlink:href="#DejaVuSans-6e" x="267.671875"/>
      <use xlink:href="#DejaVuSans-67" x="331.050781"/>
      <use xlink:href="#DejaVuSans-20" x="394.527344"/>
      <use xlink:href="#DejaVuSans-76" x="426.314453"/>
      <use xlink:href="#DejaVuSans-73" x="485.494141"/>
      <use xlink:href="#DejaVuSans-20" x="537.59375"/>
      <use xlink:href="#DejaVuSans-54" x="569.380859"/>
      <use xlink:href="#DejaVuSans-65" x="613.464844"/>
      <use xlink:href="#DejaVuSans-73" x="674.988281"/>
      <use xlink:href="#DejaVuSans-74" x="727.087891"/>
      <use xlink:href="#DejaVuSans-20" x="766.296875"/>
      <use xlink:href="#DejaVuSans-73" x="798.083984"/>
      <use xlink:href="#DejaVuSans-65" x="850.183594"/>
      <use xlink:href="#DejaVuSans-74" x="911.707031"/>
      <use xlink:href="#DejaVuSans-20" x="950.916016"/>
      <use xlink:href="#DejaVuSans-73" x="982.703125"/>
      <use xlink:href="#DejaVuSans-69" x="1034.802734"/>
      <use xlink:href="#DejaVuSans-6d" x="1062.585938"/>
      <use xlink:href="#DejaVuSans-69" x="1159.998047"/>
      <use xlink:href="#DejaVuSans-6c" x="1187.78125"/>
      <use xlink:href="#DejaVuSans-61" x="1215.564453"/>
      <use xlink:href="#DejaVuSans-72" x="1276.84375"/>
      <use xlink:href="#DejaVuSans-69" x="1317.957031"/>
      <use xlink:href="#DejaVuSans-74" x="1345.740234"/>
      <use xlink:href="#DejaVuSans-79" x="1384.949219"/>
     </g>
    </g>
    <g id="patch_9">
     <path d="M 487.35 153.7225 
L 519.35 153.7225 
L 519.35 142.5225 
L 487.35 142.5225 
z
" style="fill: #ff0000; fill-opacity: 0.25; stroke: #ff0000; stroke-width: 3; stroke-linejoin: miter"/>
    </g>
    <g id="text_18">
     <!-- Training set inner similarity -->
     <g transform="translate(532.15 153.7225)scale(0.16 -0.16)">
      <use xlink:href="#DejaVuSans-54"/>
      <use xlink:href="#DejaVuSans-72" x="46.333984"/>
      <use xlink:href="#DejaVuSans-61" x="87.447266"/>
      <use xlink:href="#DejaVuSans-69" x="148.726562"/>
      <use xlink:href="#DejaVuSans-6e" x="176.509766"/>
      <use xlink:href="#DejaVuSans-69" x="239.888672"/>
      <use xlink:href="#DejaVuSans-6e" x="267.671875"/>
      <use xlink:href="#DejaVuSans-67" x="331.050781"/>
      <use xlink:href="#DejaVuSans-20" x="394.527344"/>
      <use xlink:href="#DejaVuSans-73" x="426.314453"/>
      <use xlink:href="#DejaVuSans-65" x="478.414062"/>
      <use xlink:href="#DejaVuSans-74" x="539.9375"/>
      <use xlink:href="#DejaVuSans-20" x="579.146484"/>
      <use xlink:href="#DejaVuSans-69" x="610.933594"/>
      <use xlink:href="#DejaVuSans-6e" x="638.716797"/>
      <use xlink:href="#DejaVuSans-6e" x="702.095703"/>
      <use xlink:href="#DejaVuSans-65" x="765.474609"/>
      <use xlink:href="#DejaVuSans-72" x="826.998047"/>
      <use xlink:href="#DejaVuSans-20" x="868.111328"/>
      <use xlink:href="#DejaVuSans-73" x="899.898438"/>
      <use xlink:href="#DejaVuSans-69" x="951.998047"/>
      <use xlink:href="#DejaVuSans-6d" x="979.78125"/>
      <use xlink:href="#DejaVuSans-69" x="1077.193359"/>
      <use xlink:href="#DejaVuSans-6c" x="1104.976562"/>
      <use xlink:href="#DejaVuSans-61" x="1132.759766"/>
      <use xlink:href="#DejaVuSans-72" x="1194.039062"/>
      <use xlink:href="#DejaVuSans-69" x="1235.152344"/>
      <use xlink:href="#DejaVuSans-74" x="1262.935547"/>
      <use xlink:href="#DejaVuSans-79" x="1302.144531"/>
     </g>
    </g>
    <g id="patch_10">
     <path d="M 487.35 177.2075 
L 519.35 177.2075 
L 519.35 166.0075 
L 487.35 166.0075 
z
" style="fill: #008000; fill-opacity: 0.25; stroke: #008000; stroke-width: 3; stroke-linejoin: miter"/>
    </g>
    <g id="text_19">
     <!-- Test set inner similarity -->
     <g transform="translate(532.15 177.2075)scale(0.16 -0.16)">
      <use xlink:href="#DejaVuSans-54"/>
      <use xlink:href="#DejaVuSans-65" x="44.083984"/>
      <use xlink:href="#DejaVuSans-73" x="105.607422"/>
      <use xlink:href="#DejaVuSans-74" x="157.707031"/>
      <use xlink:href="#DejaVuSans-20" x="196.916016"/>
      <use xlink:href="#DejaVuSans-73" x="228.703125"/>
      <use xlink:href="#DejaVuSans-65" x="280.802734"/>
      <use xlink:href="#DejaVuSans-74" x="342.326172"/>
      <use xlink:href="#DejaVuSans-20" x="381.535156"/>
      <use xlink:href="#DejaVuSans-69" x="413.322266"/>
      <use xlink:href="#DejaVuSans-6e" x="441.105469"/>
      <use xlink:href="#DejaVuSans-6e" x="504.484375"/>
      <use xlink:href="#DejaVuSans-65" x="567.863281"/>
      <use xlink:href="#DejaVuSans-72" x="629.386719"/>
      <use xlink:href="#DejaVuSans-20" x="670.5"/>
      <use xlink:href="#DejaVuSans-73" x="702.287109"/>
      <use xlink:href="#DejaVuSans-69" x="754.386719"/>
      <use xlink:href="#DejaVuSans-6d" x="782.169922"/>
      <use xlink:href="#DejaVuSans-69" x="879.582031"/>
      <use xlink:href="#DejaVuSans-6c" x="907.365234"/>
      <use xlink:href="#DejaVuSans-61" x="935.148438"/>
      <use xlink:href="#DejaVuSans-72" x="996.427734"/>
      <use xlink:href="#DejaVuSans-69" x="1037.541016"/>
      <use xlink:href="#DejaVuSans-74" x="1065.324219"/>
      <use xlink:href="#DejaVuSans-79" x="1104.533203"/>
     </g>
    </g>
   </g>
  </g>
 </g>
 <defs>
  <clipPath id="p151cdbd91d">
   <rect x="108" y="103.68" width="669.6" height="665.28"/>
  </clipPath>
 </defs>
</svg>
