<?xml version="1.0" encoding="utf-8" standalone="no"?>
<!DOCTYPE svg PUBLIC "-//W3C//DTD SVG 1.1//EN"
  "http://www.w3.org/Graphics/SVG/1.1/DTD/svg11.dtd">
<svg xmlns:xlink="http://www.w3.org/1999/xlink" width="864pt" height="864pt" viewBox="0 0 864 864" xmlns="http://www.w3.org/2000/svg" version="1.1">
 <metadata>
  <rdf:RDF xmlns:dc="http://purl.org/dc/elements/1.1/" xmlns:cc="http://creativecommons.org/ns#" xmlns:rdf="http://www.w3.org/1999/02/22-rdf-syntax-ns#">
   <cc:Work>
    <dc:type rdf:resource="http://purl.org/dc/dcmitype/StillImage"/>
    <dc:date>2022-02-07T12:09:47.145115</dc:date>
    <dc:format>image/svg+xml</dc:format>
    <dc:creator>
     <cc:Agent>
      <dc:title>Matplotlib v3.5.1, https://matplotlib.org/</dc:title>
     </cc:Agent>
    </dc:creator>
   </cc:Work>
  </rdf:RDF>
 </metadata>
 <defs>
  <style type="text/css">*{stroke-linejoin: round; stroke-linecap: butt}</style>
 </defs>
 <g id="figure_1">
  <g id="patch_1">
   <path d="M 0 864 
L 864 864 
L 864 0 
L 0 0 
z
" style="fill: #ffffff"/>
  </g>
  <g id="axes_1">
   <g id="patch_2">
    <path d="M 108 768.96 
L 777.6 768.96 
L 777.6 103.68 
L 108 103.68 
z
" style="fill: #ffffff"/>
   </g>
   <g id="PolyCollection_1">
    <defs>
     <path id="mb7b8b56e91" d="M 140.594571 -95.04001 
L 140.594571 -95.04 
L 143.618596 -95.04 
L 146.64262 -95.04 
L 149.666645 -95.04 
L 152.69067 -95.04 
L 155.714694 -95.04 
L 158.738719 -95.04 
L 161.762743 -95.04 
L 164.786768 -95.04 
L 167.810792 -95.04 
L 170.834817 -95.04 
L 173.858841 -95.04 
L 176.882866 -95.04 
L 179.90689 -95.04 
L 182.930915 -95.04 
L 185.954939 -95.04 
L 188.978964 -95.04 
L 192.002989 -95.04 
L 195.027013 -95.04 
L 198.051038 -95.04 
L 201.075062 -95.04 
L 204.099087 -95.04 
L 207.123111 -95.04 
L 210.147136 -95.04 
L 213.17116 -95.04 
L 216.195185 -95.04 
L 219.219209 -95.04 
L 222.243234 -95.04 
L 225.267258 -95.04 
L 228.291283 -95.04 
L 231.315307 -95.04 
L 234.339332 -95.04 
L 237.363357 -95.04 
L 240.387381 -95.04 
L 243.411406 -95.04 
L 246.43543 -95.04 
L 249.459455 -95.04 
L 252.483479 -95.04 
L 255.507504 -95.04 
L 258.531528 -95.04 
L 261.555553 -95.04 
L 264.579577 -95.04 
L 267.603602 -95.04 
L 270.627626 -95.04 
L 273.651651 -95.04 
L 276.675676 -95.04 
L 279.6997 -95.04 
L 282.723725 -95.04 
L 285.747749 -95.04 
L 288.771774 -95.04 
L 291.795798 -95.04 
L 294.819823 -95.04 
L 297.843847 -95.04 
L 300.867872 -95.04 
L 303.891896 -95.04 
L 306.915921 -95.04 
L 309.939945 -95.04 
L 312.96397 -95.04 
L 315.987995 -95.04 
L 319.012019 -95.04 
L 322.036044 -95.04 
L 325.060068 -95.04 
L 328.084093 -95.04 
L 331.108117 -95.04 
L 334.132142 -95.04 
L 337.156166 -95.04 
L 340.180191 -95.04 
L 343.204215 -95.04 
L 346.22824 -95.04 
L 349.252264 -95.04 
L 352.276289 -95.04 
L 355.300314 -95.04 
L 358.324338 -95.04 
L 361.348363 -95.04 
L 364.372387 -95.04 
L 367.396412 -95.04 
L 370.420436 -95.04 
L 373.444461 -95.04 
L 376.468485 -95.04 
L 379.49251 -95.04 
L 382.516534 -95.04 
L 385.540559 -95.04 
L 388.564583 -95.04 
L 391.588608 -95.04 
L 394.612633 -95.04 
L 397.636657 -95.04 
L 400.660682 -95.04 
L 403.684706 -95.04 
L 406.708731 -95.04 
L 409.732755 -95.04 
L 412.75678 -95.04 
L 415.780804 -95.04 
L 418.804829 -95.04 
L 421.828853 -95.04 
L 424.852878 -95.04 
L 427.876902 -95.04 
L 430.900927 -95.04 
L 433.924952 -95.04 
L 436.948976 -95.04 
L 439.973001 -95.04 
L 442.997025 -95.04 
L 446.02105 -95.04 
L 449.045074 -95.04 
L 452.069099 -95.04 
L 455.093123 -95.04 
L 458.117148 -95.04 
L 461.141172 -95.04 
L 464.165197 -95.04 
L 467.189221 -95.04 
L 470.213246 -95.04 
L 473.237271 -95.04 
L 476.261295 -95.04 
L 479.28532 -95.04 
L 482.309344 -95.04 
L 485.333369 -95.04 
L 488.357393 -95.04 
L 491.381418 -95.04 
L 494.405442 -95.04 
L 497.429467 -95.04 
L 500.453491 -95.04 
L 503.477516 -95.04 
L 506.50154 -95.04 
L 509.525565 -95.04 
L 512.54959 -95.04 
L 515.573614 -95.04 
L 518.597639 -95.04 
L 521.621663 -95.04 
L 524.645688 -95.04 
L 527.669712 -95.04 
L 530.693737 -95.04 
L 533.717761 -95.04 
L 536.741786 -95.04 
L 539.76581 -95.04 
L 542.789835 -95.04 
L 545.813859 -95.04 
L 548.837884 -95.04 
L 551.861909 -95.04 
L 554.885933 -95.04 
L 557.909958 -95.04 
L 560.933982 -95.04 
L 563.958007 -95.04 
L 566.982031 -95.04 
L 570.006056 -95.04 
L 573.03008 -95.04 
L 576.054105 -95.04 
L 579.078129 -95.04 
L 582.102154 -95.04 
L 585.126178 -95.04 
L 588.150203 -95.04 
L 591.174228 -95.04 
L 594.198252 -95.04 
L 597.222277 -95.04 
L 600.246301 -95.04 
L 603.270326 -95.04 
L 606.29435 -95.04 
L 609.318375 -95.04 
L 612.342399 -95.04 
L 615.366424 -95.04 
L 618.390448 -95.04 
L 621.414473 -95.04 
L 624.438497 -95.04 
L 627.462522 -95.04 
L 630.486547 -95.04 
L 633.510571 -95.04 
L 636.534596 -95.04 
L 639.55862 -95.04 
L 642.582645 -95.04 
L 645.606669 -95.04 
L 648.630694 -95.04 
L 651.654718 -95.04 
L 654.678743 -95.04 
L 657.702767 -95.04 
L 660.726792 -95.04 
L 663.750816 -95.04 
L 666.774841 -95.04 
L 669.798866 -95.04 
L 672.82289 -95.04 
L 675.846915 -95.04 
L 678.870939 -95.04 
L 681.894964 -95.04 
L 684.918988 -95.04 
L 687.943013 -95.04 
L 690.967037 -95.04 
L 693.991062 -95.04 
L 697.015086 -95.04 
L 700.039111 -95.04 
L 703.063135 -95.04 
L 706.08716 -95.04 
L 709.111184 -95.04 
L 712.135209 -95.04 
L 715.159234 -95.04 
L 718.183258 -95.04 
L 721.207283 -95.04 
L 724.231307 -95.04 
L 727.255332 -95.04 
L 730.279356 -95.04 
L 733.303381 -95.04 
L 736.327405 -95.04 
L 739.35143 -95.04 
L 742.375454 -95.04 
L 742.375454 -95.075512 
L 742.375454 -95.075512 
L 739.35143 -96.012277 
L 736.327405 -98.266329 
L 733.303381 -96.497572 
L 730.279356 -95.502041 
L 727.255332 -95.641482 
L 724.231307 -95.94765 
L 721.207283 -96.217708 
L 718.183258 -96.559089 
L 715.159234 -96.809889 
L 712.135209 -97.131495 
L 709.111184 -97.397098 
L 706.08716 -97.530252 
L 703.063135 -97.791238 
L 700.039111 -98.329554 
L 697.015086 -98.944037 
L 693.991062 -99.68264 
L 690.967037 -99.992805 
L 687.943013 -100.104199 
L 684.918988 -100.530151 
L 681.894964 -100.971377 
L 678.870939 -101.747524 
L 675.846915 -102.671235 
L 672.82289 -103.540673 
L 669.798866 -104.118317 
L 666.774841 -105.046565 
L 663.750816 -105.786839 
L 660.726792 -106.434876 
L 657.702767 -107.573369 
L 654.678743 -107.903432 
L 651.654718 -108.379091 
L 648.630694 -109.276631 
L 645.606669 -110.133105 
L 642.582645 -110.610027 
L 639.55862 -110.701917 
L 636.534596 -111.07259 
L 633.510571 -111.48697 
L 630.486547 -111.719725 
L 627.462522 -112.402868 
L 624.438497 -112.902346 
L 621.414473 -113.659964 
L 618.390448 -114.326589 
L 615.366424 -113.761237 
L 612.342399 -113.022666 
L 609.318375 -112.557299 
L 606.29435 -111.333411 
L 603.270326 -111.203508 
L 600.246301 -111.687999 
L 597.222277 -112.331799 
L 594.198252 -112.607754 
L 591.174228 -112.467763 
L 588.150203 -112.267272 
L 585.126178 -111.90938 
L 582.102154 -111.337203 
L 579.078129 -111.239626 
L 576.054105 -110.787143 
L 573.03008 -111.023382 
L 570.006056 -110.659738 
L 566.982031 -110.684232 
L 563.958007 -111.109485 
L 560.933982 -111.475634 
L 557.909958 -112.705466 
L 554.885933 -113.355625 
L 551.861909 -113.921193 
L 548.837884 -115.020837 
L 545.813859 -115.84784 
L 542.789835 -116.075713 
L 539.76581 -116.135241 
L 536.741786 -116.747935 
L 533.717761 -118.116215 
L 530.693737 -119.537385 
L 527.669712 -120.146663 
L 524.645688 -120.298735 
L 521.621663 -121.01436 
L 518.597639 -121.520811 
L 515.573614 -121.197827 
L 512.54959 -122.135509 
L 509.525565 -123.145224 
L 506.50154 -125.328491 
L 503.477516 -126.925597 
L 500.453491 -127.055077 
L 497.429467 -126.94702 
L 494.405442 -127.065918 
L 491.381418 -129.171221 
L 488.357393 -132.94243 
L 485.333369 -137.468288 
L 482.309344 -142.947625 
L 479.28532 -148.193612 
L 476.261295 -153.853478 
L 473.237271 -160.364996 
L 470.213246 -168.930032 
L 467.189221 -176.420828 
L 464.165197 -185.601034 
L 461.141172 -200.809746 
L 458.117148 -216.652279 
L 455.093123 -234.463992 
L 452.069099 -256.416463 
L 449.045074 -280.638424 
L 446.02105 -305.585545 
L 442.997025 -330.147811 
L 439.973001 -354.403336 
L 436.948976 -374.517393 
L 433.924952 -392.162993 
L 430.900927 -412.524091 
L 427.876902 -429.97612 
L 424.852878 -442.039058 
L 421.828853 -454.451904 
L 418.804829 -467.451988 
L 415.780804 -475.521777 
L 412.75678 -482.564615 
L 409.732755 -497.061512 
L 406.708731 -505.189295 
L 403.684706 -509.066714 
L 400.660682 -516.968692 
L 397.636657 -534.030971 
L 394.612633 -555.198434 
L 391.588608 -573.01454 
L 388.564583 -595.247091 
L 385.540559 -618.957498 
L 382.516534 -638.163606 
L 379.49251 -649.3208 
L 376.468485 -660.848273 
L 373.444461 -674.996477 
L 370.420436 -691.153343 
L 367.396412 -705.12888 
L 364.372387 -716.868479 
L 361.348363 -725.878052 
L 358.324338 -727.954002 
L 355.300314 -728.64 
L 352.276289 -723.073371 
L 349.252264 -719.182047 
L 346.22824 -710.61427 
L 343.204215 -694.468528 
L 340.180191 -680.224381 
L 337.156166 -665.749733 
L 334.132142 -641.943288 
L 331.108117 -615.304699 
L 328.084093 -587.714458 
L 325.060068 -560.011327 
L 322.036044 -534.095813 
L 319.012019 -509.336307 
L 315.987995 -487.86057 
L 312.96397 -463.59556 
L 309.939945 -443.875104 
L 306.915921 -434.217991 
L 303.891896 -427.45732 
L 300.867872 -417.939645 
L 297.843847 -402.524133 
L 294.819823 -382.418029 
L 291.795798 -365.0833 
L 288.771774 -348.57382 
L 285.747749 -332.061398 
L 282.723725 -313.990973 
L 279.6997 -296.84669 
L 276.675676 -284.476639 
L 273.651651 -271.97601 
L 270.627626 -257.31602 
L 267.603602 -243.961144 
L 264.579577 -234.783652 
L 261.555553 -226.421522 
L 258.531528 -216.10464 
L 255.507504 -204.800477 
L 252.483479 -193.97662 
L 249.459455 -186.454789 
L 246.43543 -178.904702 
L 243.411406 -170.647061 
L 240.387381 -161.74743 
L 237.363357 -152.581237 
L 234.339332 -143.989673 
L 231.315307 -137.947039 
L 228.291283 -132.170861 
L 225.267258 -125.934624 
L 222.243234 -120.157268 
L 219.219209 -115.215217 
L 216.195185 -110.726417 
L 213.17116 -107.403892 
L 210.147136 -105.247522 
L 207.123111 -104.078446 
L 204.099087 -105.871625 
L 201.075062 -108.277873 
L 198.051038 -107.503171 
L 195.027013 -104.0666 
L 192.002989 -100.410387 
L 188.978964 -98.110623 
L 185.954939 -97.303618 
L 182.930915 -97.262637 
L 179.90689 -97.168432 
L 176.882866 -96.976201 
L 173.858841 -96.403414 
L 170.834817 -95.878142 
L 167.810792 -95.625446 
L 164.786768 -95.488164 
L 161.762743 -95.695362 
L 158.738719 -95.842199 
L 155.714694 -95.464689 
L 152.69067 -95.139805 
L 149.666645 -95.056442 
L 146.64262 -95.042858 
L 143.618596 -95.040364 
L 140.594571 -95.04001 
z
" style="stroke: #0000ff; stroke-width: 3"/>
    </defs>
    <g clip-path="url(#p2e89b66d96)">
     <use xlink:href="#mb7b8b56e91" x="0" y="864" style="fill: #0000ff; fill-opacity: 0.25; stroke: #0000ff; stroke-width: 3"/>
    </g>
   </g>
   <g id="PolyCollection_2">
    <defs>
     <path id="m3132afa14c" d="M 138.436364 -95.040002 
L 138.436364 -95.04 
L 141.472924 -95.04 
L 144.509484 -95.04 
L 147.546045 -95.04 
L 150.582605 -95.04 
L 153.619165 -95.04 
L 156.655726 -95.04 
L 159.692286 -95.04 
L 162.728846 -95.04 
L 165.765407 -95.04 
L 168.801967 -95.04 
L 171.838527 -95.04 
L 174.875088 -95.04 
L 177.911648 -95.04 
L 180.948208 -95.04 
L 183.984769 -95.04 
L 187.021329 -95.04 
L 190.057889 -95.04 
L 193.094449 -95.04 
L 196.13101 -95.04 
L 199.16757 -95.04 
L 202.20413 -95.04 
L 205.240691 -95.04 
L 208.277251 -95.04 
L 211.313811 -95.04 
L 214.350372 -95.04 
L 217.386932 -95.04 
L 220.423492 -95.04 
L 223.460053 -95.04 
L 226.496613 -95.04 
L 229.533173 -95.04 
L 232.569734 -95.04 
L 235.606294 -95.04 
L 238.642854 -95.04 
L 241.679415 -95.04 
L 244.715975 -95.04 
L 247.752535 -95.04 
L 250.789096 -95.04 
L 253.825656 -95.04 
L 256.862216 -95.04 
L 259.898777 -95.04 
L 262.935337 -95.04 
L 265.971897 -95.04 
L 269.008458 -95.04 
L 272.045018 -95.04 
L 275.081578 -95.04 
L 278.118139 -95.04 
L 281.154699 -95.04 
L 284.191259 -95.04 
L 287.22782 -95.04 
L 290.26438 -95.04 
L 293.30094 -95.04 
L 296.337501 -95.04 
L 299.374061 -95.04 
L 302.410621 -95.04 
L 305.447182 -95.04 
L 308.483742 -95.04 
L 311.520302 -95.04 
L 314.556862 -95.04 
L 317.593423 -95.04 
L 320.629983 -95.04 
L 323.666543 -95.04 
L 326.703104 -95.04 
L 329.739664 -95.04 
L 332.776224 -95.04 
L 335.812785 -95.04 
L 338.849345 -95.04 
L 341.885905 -95.04 
L 344.922466 -95.04 
L 347.959026 -95.04 
L 350.995586 -95.04 
L 354.032147 -95.04 
L 357.068707 -95.04 
L 360.105267 -95.04 
L 363.141828 -95.04 
L 366.178388 -95.04 
L 369.214948 -95.04 
L 372.251509 -95.04 
L 375.288069 -95.04 
L 378.324629 -95.04 
L 381.36119 -95.04 
L 384.39775 -95.04 
L 387.43431 -95.04 
L 390.470871 -95.04 
L 393.507431 -95.04 
L 396.543991 -95.04 
L 399.580552 -95.04 
L 402.617112 -95.04 
L 405.653672 -95.04 
L 408.690233 -95.04 
L 411.726793 -95.04 
L 414.763353 -95.04 
L 417.799914 -95.04 
L 420.836474 -95.04 
L 423.873034 -95.04 
L 426.909594 -95.04 
L 429.946155 -95.04 
L 432.982715 -95.04 
L 436.019275 -95.04 
L 439.055836 -95.04 
L 442.092396 -95.04 
L 445.128956 -95.04 
L 448.165517 -95.04 
L 451.202077 -95.04 
L 454.238637 -95.04 
L 457.275198 -95.04 
L 460.311758 -95.04 
L 463.348318 -95.04 
L 466.384879 -95.04 
L 469.421439 -95.04 
L 472.457999 -95.04 
L 475.49456 -95.04 
L 478.53112 -95.04 
L 481.56768 -95.04 
L 484.604241 -95.04 
L 487.640801 -95.04 
L 490.677361 -95.04 
L 493.713922 -95.04 
L 496.750482 -95.04 
L 499.787042 -95.04 
L 502.823603 -95.04 
L 505.860163 -95.04 
L 508.896723 -95.04 
L 511.933284 -95.04 
L 514.969844 -95.04 
L 518.006404 -95.04 
L 521.042965 -95.04 
L 524.079525 -95.04 
L 527.116085 -95.04 
L 530.152646 -95.04 
L 533.189206 -95.04 
L 536.225766 -95.04 
L 539.262327 -95.04 
L 542.298887 -95.04 
L 545.335447 -95.04 
L 548.372007 -95.04 
L 551.408568 -95.04 
L 554.445128 -95.04 
L 557.481688 -95.04 
L 560.518249 -95.04 
L 563.554809 -95.04 
L 566.591369 -95.04 
L 569.62793 -95.04 
L 572.66449 -95.04 
L 575.70105 -95.04 
L 578.737611 -95.04 
L 581.774171 -95.04 
L 584.810731 -95.04 
L 587.847292 -95.04 
L 590.883852 -95.04 
L 593.920412 -95.04 
L 596.956973 -95.04 
L 599.993533 -95.04 
L 603.030093 -95.04 
L 606.066654 -95.04 
L 609.103214 -95.04 
L 612.139774 -95.04 
L 615.176335 -95.04 
L 618.212895 -95.04 
L 621.249455 -95.04 
L 624.286016 -95.04 
L 627.322576 -95.04 
L 630.359136 -95.04 
L 633.395697 -95.04 
L 636.432257 -95.04 
L 639.468817 -95.04 
L 642.505378 -95.04 
L 645.541938 -95.04 
L 648.578498 -95.04 
L 651.615059 -95.04 
L 654.651619 -95.04 
L 657.688179 -95.04 
L 660.72474 -95.04 
L 663.7613 -95.04 
L 666.79786 -95.04 
L 669.83442 -95.04 
L 672.870981 -95.04 
L 675.907541 -95.04 
L 678.944101 -95.04 
L 681.980662 -95.04 
L 685.017222 -95.04 
L 688.053782 -95.04 
L 691.090343 -95.04 
L 694.126903 -95.04 
L 697.163463 -95.04 
L 700.200024 -95.04 
L 703.236584 -95.04 
L 706.273144 -95.04 
L 709.309705 -95.04 
L 712.346265 -95.04 
L 715.382825 -95.04 
L 718.419386 -95.04 
L 721.455946 -95.04 
L 724.492506 -95.04 
L 727.529067 -95.04 
L 730.565627 -95.04 
L 733.602187 -95.04 
L 736.638748 -95.04 
L 739.675308 -95.04 
L 742.711868 -95.04 
L 742.711868 -95.108735 
L 742.711868 -95.108735 
L 739.675308 -96.734753 
L 736.638748 -101.306194 
L 733.602187 -99.146014 
L 730.565627 -96.562711 
L 727.529067 -96.415678 
L 724.492506 -96.716338 
L 721.455946 -97.244165 
L 718.419386 -97.697859 
L 715.382825 -98.176709 
L 712.346265 -98.863588 
L 709.309705 -99.318944 
L 706.273144 -99.612608 
L 703.236584 -99.678424 
L 700.200024 -100.192233 
L 697.163463 -101.31499 
L 694.126903 -102.507612 
L 691.090343 -103.129206 
L 688.053782 -103.67783 
L 685.017222 -104.549925 
L 681.980662 -105.655126 
L 678.944101 -106.739317 
L 675.907541 -108.148134 
L 672.870981 -110.06996 
L 669.83442 -111.603584 
L 666.79786 -113.043936 
L 663.7613 -114.503421 
L 660.72474 -116.088942 
L 657.688179 -117.744706 
L 654.651619 -119.30927 
L 651.615059 -120.712726 
L 648.578498 -121.450395 
L 645.541938 -122.400458 
L 642.505378 -124.385289 
L 639.468817 -126.058574 
L 636.432257 -127.930922 
L 633.395697 -130.551747 
L 630.359136 -133.497332 
L 627.322576 -135.451681 
L 624.286016 -136.856036 
L 621.249455 -138.981922 
L 618.212895 -140.98653 
L 615.176335 -142.472698 
L 612.139774 -142.878899 
L 609.103214 -143.097865 
L 606.066654 -144.638156 
L 603.030093 -147.334672 
L 599.993533 -150.149501 
L 596.956973 -153.088388 
L 593.920412 -155.925406 
L 590.883852 -158.326696 
L 587.847292 -160.55966 
L 584.810731 -163.256892 
L 581.774171 -166.590034 
L 578.737611 -169.658782 
L 575.70105 -172.460919 
L 572.66449 -176.267968 
L 569.62793 -179.038376 
L 566.591369 -180.926553 
L 563.554809 -183.549593 
L 560.518249 -187.402395 
L 557.481688 -190.126474 
L 554.445128 -191.609297 
L 551.408568 -193.139307 
L 548.372007 -194.075214 
L 545.335447 -195.108879 
L 542.298887 -195.3969 
L 539.262327 -195.62202 
L 536.225766 -198.962793 
L 533.189206 -202.796733 
L 530.152646 -205.424959 
L 527.116085 -206.987678 
L 524.079525 -209.201426 
L 521.042965 -211.412446 
L 518.006404 -209.481509 
L 514.969844 -205.977361 
L 511.933284 -202.263924 
L 508.896723 -198.31186 
L 505.860163 -195.232468 
L 502.823603 -195.178904 
L 499.787042 -198.584088 
L 496.750482 -200.882032 
L 493.713922 -203.193196 
L 490.677361 -211.504136 
L 487.640801 -222.679711 
L 484.604241 -232.422367 
L 481.56768 -241.860049 
L 478.53112 -253.404677 
L 475.49456 -270.011813 
L 472.457999 -288.514761 
L 469.421439 -309.156965 
L 466.384879 -323.19614 
L 463.348318 -332.943282 
L 460.311758 -346.645147 
L 457.275198 -364.237512 
L 454.238637 -388.459582 
L 451.202077 -414.806343 
L 448.165517 -440.834422 
L 445.128956 -468.293798 
L 442.092396 -492.219963 
L 439.055836 -510.42498 
L 436.019275 -523.184897 
L 432.982715 -533.249574 
L 429.946155 -545.430598 
L 426.909594 -559.294285 
L 423.873034 -572.31959 
L 420.836474 -587.858456 
L 417.799914 -600.367473 
L 414.763353 -609.241277 
L 411.726793 -618.513366 
L 408.690233 -625.878683 
L 405.653672 -624.445178 
L 402.617112 -616.312221 
L 399.580552 -606.068085 
L 396.543991 -599.82059 
L 393.507431 -594.048532 
L 390.470871 -588.693886 
L 387.43431 -582.781163 
L 384.39775 -568.514744 
L 381.36119 -554.133286 
L 378.324629 -544.496298 
L 375.288069 -538.183543 
L 372.251509 -533.465404 
L 369.214948 -528.843894 
L 366.178388 -526.614052 
L 363.141828 -526.498652 
L 360.105267 -520.889718 
L 357.068707 -508.760634 
L 354.032147 -494.799927 
L 350.995586 -480.501707 
L 347.959026 -469.209682 
L 344.922466 -452.777628 
L 341.885905 -436.455797 
L 338.849345 -423.867279 
L 335.812785 -409.705491 
L 332.776224 -393.873611 
L 329.739664 -380.236123 
L 326.703104 -365.787879 
L 323.666543 -351.621049 
L 320.629983 -338.434299 
L 317.593423 -325.061983 
L 314.556862 -313.917626 
L 311.520302 -306.006693 
L 308.483742 -301.176338 
L 305.447182 -294.464457 
L 302.410621 -282.711563 
L 299.374061 -268.894926 
L 296.337501 -254.429713 
L 293.30094 -241.613941 
L 290.26438 -229.311415 
L 287.22782 -217.360989 
L 284.191259 -206.996488 
L 281.154699 -196.976765 
L 278.118139 -189.922504 
L 275.081578 -185.977357 
L 272.045018 -181.344209 
L 269.008458 -174.678227 
L 265.971897 -168.71223 
L 262.935337 -162.907813 
L 259.898777 -157.243244 
L 256.862216 -152.96489 
L 253.825656 -148.566244 
L 250.789096 -143.223888 
L 247.752535 -138.555701 
L 244.715975 -134.974636 
L 241.679415 -131.623087 
L 238.642854 -127.596144 
L 235.606294 -122.362806 
L 232.569734 -117.473464 
L 229.533173 -114.399733 
L 226.496613 -112.126061 
L 223.460053 -109.655253 
L 220.423492 -107.971822 
L 217.386932 -106.849397 
L 214.350372 -105.023699 
L 211.313811 -102.964007 
L 208.277251 -101.28594 
L 205.240691 -100.494952 
L 202.20413 -100.256064 
L 199.16757 -99.666113 
L 196.13101 -98.832116 
L 193.094449 -97.992221 
L 190.057889 -97.064784 
L 187.021329 -96.259986 
L 183.984769 -95.756775 
L 180.948208 -95.844686 
L 177.911648 -96.351327 
L 174.875088 -96.240609 
L 171.838527 -95.647521 
L 168.801967 -95.378004 
L 165.765407 -95.427585 
L 162.728846 -96.096514 
L 159.692286 -96.837988 
L 156.655726 -96.100541 
L 153.619165 -95.258832 
L 150.582605 -95.067149 
L 147.546045 -95.043408 
L 144.509484 -95.040507 
L 141.472924 -95.040069 
L 138.436364 -95.040002 
z
" style="stroke: #ff0000; stroke-width: 3"/>
    </defs>
    <g clip-path="url(#p2e89b66d96)">
     <use xlink:href="#m3132afa14c" x="0" y="864" style="fill: #ff0000; fill-opacity: 0.25; stroke: #ff0000; stroke-width: 3"/>
    </g>
   </g>
   <g id="PolyCollection_3">
    <defs>
     <path id="m8845512e8b" d="M 144.873266 -95.040071 
L 144.873266 -95.04 
L 147.899851 -95.04 
L 150.926436 -95.04 
L 153.953021 -95.04 
L 156.979605 -95.04 
L 160.00619 -95.04 
L 163.032775 -95.04 
L 166.05936 -95.04 
L 169.085944 -95.04 
L 172.112529 -95.04 
L 175.139114 -95.04 
L 178.165699 -95.04 
L 181.192284 -95.04 
L 184.218868 -95.04 
L 187.245453 -95.04 
L 190.272038 -95.04 
L 193.298623 -95.04 
L 196.325207 -95.04 
L 199.351792 -95.04 
L 202.378377 -95.04 
L 205.404962 -95.04 
L 208.431547 -95.04 
L 211.458131 -95.04 
L 214.484716 -95.04 
L 217.511301 -95.04 
L 220.537886 -95.04 
L 223.56447 -95.04 
L 226.591055 -95.04 
L 229.61764 -95.04 
L 232.644225 -95.04 
L 235.670809 -95.04 
L 238.697394 -95.04 
L 241.723979 -95.04 
L 244.750564 -95.04 
L 247.777149 -95.04 
L 250.803733 -95.04 
L 253.830318 -95.04 
L 256.856903 -95.04 
L 259.883488 -95.04 
L 262.910072 -95.04 
L 265.936657 -95.04 
L 268.963242 -95.04 
L 271.989827 -95.04 
L 275.016412 -95.04 
L 278.042996 -95.04 
L 281.069581 -95.04 
L 284.096166 -95.04 
L 287.122751 -95.04 
L 290.149335 -95.04 
L 293.17592 -95.04 
L 296.202505 -95.04 
L 299.22909 -95.04 
L 302.255675 -95.04 
L 305.282259 -95.04 
L 308.308844 -95.04 
L 311.335429 -95.04 
L 314.362014 -95.04 
L 317.388598 -95.04 
L 320.415183 -95.04 
L 323.441768 -95.04 
L 326.468353 -95.04 
L 329.494937 -95.04 
L 332.521522 -95.04 
L 335.548107 -95.04 
L 338.574692 -95.04 
L 341.601277 -95.04 
L 344.627861 -95.04 
L 347.654446 -95.04 
L 350.681031 -95.04 
L 353.707616 -95.04 
L 356.7342 -95.04 
L 359.760785 -95.04 
L 362.78737 -95.04 
L 365.813955 -95.04 
L 368.84054 -95.04 
L 371.867124 -95.04 
L 374.893709 -95.04 
L 377.920294 -95.04 
L 380.946879 -95.04 
L 383.973463 -95.04 
L 387.000048 -95.04 
L 390.026633 -95.04 
L 393.053218 -95.04 
L 396.079803 -95.04 
L 399.106387 -95.04 
L 402.132972 -95.04 
L 405.159557 -95.04 
L 408.186142 -95.04 
L 411.212726 -95.04 
L 414.239311 -95.04 
L 417.265896 -95.04 
L 420.292481 -95.04 
L 423.319065 -95.04 
L 426.34565 -95.04 
L 429.372235 -95.04 
L 432.39882 -95.04 
L 435.425405 -95.04 
L 438.451989 -95.04 
L 441.478574 -95.04 
L 444.505159 -95.04 
L 447.531744 -95.04 
L 450.558328 -95.04 
L 453.584913 -95.04 
L 456.611498 -95.04 
L 459.638083 -95.04 
L 462.664668 -95.04 
L 465.691252 -95.04 
L 468.717837 -95.04 
L 471.744422 -95.04 
L 474.771007 -95.04 
L 477.797591 -95.04 
L 480.824176 -95.04 
L 483.850761 -95.04 
L 486.877346 -95.04 
L 489.903931 -95.04 
L 492.930515 -95.04 
L 495.9571 -95.04 
L 498.983685 -95.04 
L 502.01027 -95.04 
L 505.036854 -95.04 
L 508.063439 -95.04 
L 511.090024 -95.04 
L 514.116609 -95.04 
L 517.143194 -95.04 
L 520.169778 -95.04 
L 523.196363 -95.04 
L 526.222948 -95.04 
L 529.249533 -95.04 
L 532.276117 -95.04 
L 535.302702 -95.04 
L 538.329287 -95.04 
L 541.355872 -95.04 
L 544.382456 -95.04 
L 547.409041 -95.04 
L 550.435626 -95.04 
L 553.462211 -95.04 
L 556.488796 -95.04 
L 559.51538 -95.04 
L 562.541965 -95.04 
L 565.56855 -95.04 
L 568.595135 -95.04 
L 571.621719 -95.04 
L 574.648304 -95.04 
L 577.674889 -95.04 
L 580.701474 -95.04 
L 583.728059 -95.04 
L 586.754643 -95.04 
L 589.781228 -95.04 
L 592.807813 -95.04 
L 595.834398 -95.04 
L 598.860982 -95.04 
L 601.887567 -95.04 
L 604.914152 -95.04 
L 607.940737 -95.04 
L 610.967322 -95.04 
L 613.993906 -95.04 
L 617.020491 -95.04 
L 620.047076 -95.04 
L 623.073661 -95.04 
L 626.100245 -95.04 
L 629.12683 -95.04 
L 632.153415 -95.04 
L 635.18 -95.04 
L 638.206584 -95.04 
L 641.233169 -95.04 
L 644.259754 -95.04 
L 647.286339 -95.04 
L 650.312924 -95.04 
L 653.339508 -95.04 
L 656.366093 -95.04 
L 659.392678 -95.04 
L 662.419263 -95.04 
L 665.445847 -95.04 
L 668.472432 -95.04 
L 671.499017 -95.04 
L 674.525602 -95.04 
L 677.552187 -95.04 
L 680.578771 -95.04 
L 683.605356 -95.04 
L 686.631941 -95.04 
L 689.658526 -95.04 
L 692.68511 -95.04 
L 695.711695 -95.04 
L 698.73828 -95.04 
L 701.764865 -95.04 
L 704.79145 -95.04 
L 707.818034 -95.04 
L 710.844619 -95.04 
L 713.871204 -95.04 
L 716.897789 -95.04 
L 719.924373 -95.04 
L 722.950958 -95.04 
L 725.977543 -95.04 
L 729.004128 -95.04 
L 732.030712 -95.04 
L 735.057297 -95.04 
L 738.083882 -95.04 
L 741.110467 -95.04 
L 744.137052 -95.04 
L 747.163636 -95.04 
L 747.163636 -95.127116 
L 747.163636 -95.127116 
L 744.137052 -95.775762 
L 741.110467 -98.197322 
L 738.083882 -101.945987 
L 735.057297 -102.830296 
L 732.030712 -99.836731 
L 729.004128 -97.257286 
L 725.977543 -96.808067 
L 722.950958 -97.265848 
L 719.924373 -97.809013 
L 716.897789 -98.376835 
L 713.871204 -98.955632 
L 710.844619 -99.438608 
L 707.818034 -99.805924 
L 704.79145 -100.356738 
L 701.764865 -101.48316 
L 698.73828 -102.995723 
L 695.711695 -104.31068 
L 692.68511 -105.190277 
L 689.658526 -105.797905 
L 686.631941 -106.273352 
L 683.605356 -106.760627 
L 680.578771 -107.727234 
L 677.552187 -109.168156 
L 674.525602 -110.577012 
L 671.499017 -111.878902 
L 668.472432 -113.156048 
L 665.445847 -114.434768 
L 662.419263 -115.900298 
L 659.392678 -117.821359 
L 656.366093 -119.780969 
L 653.339508 -121.363228 
L 650.312924 -123.027966 
L 647.286339 -125.021324 
L 644.259754 -126.666122 
L 641.233169 -127.677916 
L 638.206584 -128.682102 
L 635.18 -129.430878 
L 632.153415 -129.390971 
L 629.12683 -129.69217 
L 626.100245 -131.109545 
L 623.073661 -132.373409 
L 620.047076 -132.594131 
L 617.020491 -132.072072 
L 613.993906 -131.022237 
L 610.967322 -129.263267 
L 607.940737 -126.675911 
L 604.914152 -124.097785 
L 601.887567 -122.415531 
L 598.860982 -121.521955 
L 595.834398 -120.921376 
L 592.807813 -120.069611 
L 589.781228 -118.671214 
L 586.754643 -116.875145 
L 583.728059 -115.071705 
L 580.701474 -113.544772 
L 577.674889 -112.344834 
L 574.648304 -111.496207 
L 571.621719 -110.895951 
L 568.595135 -110.35342 
L 565.56855 -110.128041 
L 562.541965 -110.394007 
L 559.51538 -110.770595 
L 556.488796 -111.057081 
L 553.462211 -111.264019 
L 550.435626 -111.42364 
L 547.409041 -111.652604 
L 544.382456 -111.90027 
L 541.355872 -112.271895 
L 538.329287 -112.967759 
L 535.302702 -113.88052 
L 532.276117 -114.783965 
L 529.249533 -115.407939 
L 526.222948 -115.939588 
L 523.196363 -117.142689 
L 520.169778 -119.152415 
L 517.143194 -121.671485 
L 514.116609 -124.758711 
L 511.090024 -128.546724 
L 508.063439 -133.234286 
L 505.036854 -137.692326 
L 502.01027 -139.619607 
L 498.983685 -138.558589 
L 495.9571 -136.767449 
L 492.930515 -136.553202 
L 489.903931 -138.513364 
L 486.877346 -141.582177 
L 483.850761 -144.078104 
L 480.824176 -145.571909 
L 477.797591 -147.113234 
L 474.771007 -149.377961 
L 471.744422 -151.830686 
L 468.717837 -154.429456 
L 465.691252 -158.098088 
L 462.664668 -162.887343 
L 459.638083 -168.140475 
L 456.611498 -173.899535 
L 453.584913 -180.849068 
L 450.558328 -189.570089 
L 447.531744 -199.679806 
L 444.505159 -210.468239 
L 441.478574 -222.072442 
L 438.451989 -234.42221 
L 435.425405 -247.008373 
L 432.39882 -260.089638 
L 429.372235 -273.726276 
L 426.34565 -285.793614 
L 423.319065 -295.547918 
L 420.292481 -305.825762 
L 417.265896 -319.522356 
L 414.239311 -337.342616 
L 411.212726 -357.312207 
L 408.186142 -376.560166 
L 405.159557 -395.456931 
L 402.132972 -417.954762 
L 399.106387 -445.376694 
L 396.079803 -474.716594 
L 393.053218 -506.029571 
L 390.026633 -542.314894 
L 387.000048 -578.717484 
L 383.973463 -607.719114 
L 380.946879 -631.439378 
L 377.920294 -656.599103 
L 374.893709 -683.499224 
L 371.867124 -705.560062 
L 368.84054 -717.741068 
L 365.813955 -721.308923 
L 362.78737 -720.000461 
L 359.760785 -717.340502 
L 356.7342 -715.199827 
L 353.707616 -711.3237 
L 350.681031 -704.807205 
L 347.654446 -696.916094 
L 344.627861 -686.581857 
L 341.601277 -672.496225 
L 338.574692 -655.989823 
L 335.548107 -638.26155 
L 332.521522 -618.326538 
L 329.494937 -596.732677 
L 326.468353 -575.330672 
L 323.441768 -556.156746 
L 320.415183 -540.816801 
L 317.388598 -526.75452 
L 314.362014 -510.947984 
L 311.335429 -495.837703 
L 308.308844 -486.116459 
L 305.282259 -482.231235 
L 302.255675 -479.2797 
L 299.22909 -471.557475 
L 296.202505 -457.52398 
L 293.17592 -440.922335 
L 290.149335 -426.498951 
L 287.122751 -416.097117 
L 284.096166 -408.088063 
L 281.069581 -399.090131 
L 278.042996 -387.903436 
L 275.016412 -376.162003 
L 271.989827 -365.019151 
L 268.963242 -353.250839 
L 265.936657 -339.83184 
L 262.910072 -326.282312 
L 259.883488 -313.562955 
L 256.856903 -300.778178 
L 253.830318 -286.991306 
L 250.803733 -271.529271 
L 247.777149 -254.778849 
L 244.750564 -238.067586 
L 241.723979 -222.166889 
L 238.697394 -206.991145 
L 235.670809 -192.833741 
L 232.644225 -179.869155 
L 229.61764 -167.129955 
L 226.591055 -154.550681 
L 223.56447 -143.650893 
L 220.537886 -134.928816 
L 217.511301 -127.646126 
L 214.484716 -121.478921 
L 211.458131 -116.866111 
L 208.431547 -114.325847 
L 205.404962 -113.974041 
L 202.378377 -114.818381 
L 199.351792 -114.714113 
L 196.325207 -112.179682 
L 193.298623 -107.740317 
L 190.272038 -103.256269 
L 187.245453 -100.209125 
L 184.218868 -98.71137 
L 181.192284 -97.926913 
L 178.165699 -97.189373 
L 175.139114 -96.545709 
L 172.112529 -96.168806 
L 169.085944 -95.957754 
L 166.05936 -95.7361 
L 163.032775 -95.472992 
L 160.00619 -95.247831 
L 156.979605 -95.116247 
L 153.953021 -95.062087 
L 150.926436 -95.044963 
L 147.899851 -95.040764 
L 144.873266 -95.040071 
z
" style="stroke: #008000; stroke-width: 3"/>
    </defs>
    <g clip-path="url(#p2e89b66d96)">
     <use xlink:href="#m8845512e8b" x="0" y="864" style="fill: #008000; fill-opacity: 0.25; stroke: #008000; stroke-width: 3"/>
    </g>
   </g>
   <g id="matplotlib.axis_1">
    <g id="xtick_1">
     <g id="line2d_1">
      <defs>
       <path id="m01ce37eb52" d="M 0 0 
L 0 3.5 
" style="stroke: #000000; stroke-width: 0.8"/>
      </defs>
      <g>
       <use xlink:href="#m01ce37eb52" x="139.246977" y="768.96" style="stroke: #000000; stroke-width: 0.8"/>
      </g>
     </g>
     <g id="text_1">
      <!-- 0.0 -->
      <g transform="translate(131.295415 783.558437)scale(0.1 -0.1)">
       <defs>
        <path id="DejaVuSans-30" d="M 2034 4250 
Q 1547 4250 1301 3770 
Q 1056 3291 1056 2328 
Q 1056 1369 1301 889 
Q 1547 409 2034 409 
Q 2525 409 2770 889 
Q 3016 1369 3016 2328 
Q 3016 3291 2770 3770 
Q 2525 4250 2034 4250 
z
M 2034 4750 
Q 2819 4750 3233 4129 
Q 3647 3509 3647 2328 
Q 3647 1150 3233 529 
Q 2819 -91 2034 -91 
Q 1250 -91 836 529 
Q 422 1150 422 2328 
Q 422 3509 836 4129 
Q 1250 4750 2034 4750 
z
" transform="scale(0.015625)"/>
        <path id="DejaVuSans-2e" d="M 684 794 
L 1344 794 
L 1344 0 
L 684 0 
L 684 794 
z
" transform="scale(0.015625)"/>
       </defs>
       <use xlink:href="#DejaVuSans-30"/>
       <use xlink:href="#DejaVuSans-2e" x="63.623047"/>
       <use xlink:href="#DejaVuSans-30" x="95.410156"/>
      </g>
     </g>
    </g>
    <g id="xtick_2">
     <g id="line2d_2">
      <g>
       <use xlink:href="#m01ce37eb52" x="258.626264" y="768.96" style="stroke: #000000; stroke-width: 0.8"/>
      </g>
     </g>
     <g id="text_2">
      <!-- 0.2 -->
      <g transform="translate(250.674701 783.558437)scale(0.1 -0.1)">
       <defs>
        <path id="DejaVuSans-32" d="M 1228 531 
L 3431 531 
L 3431 0 
L 469 0 
L 469 531 
Q 828 903 1448 1529 
Q 2069 2156 2228 2338 
Q 2531 2678 2651 2914 
Q 2772 3150 2772 3378 
Q 2772 3750 2511 3984 
Q 2250 4219 1831 4219 
Q 1534 4219 1204 4116 
Q 875 4013 500 3803 
L 500 4441 
Q 881 4594 1212 4672 
Q 1544 4750 1819 4750 
Q 2544 4750 2975 4387 
Q 3406 4025 3406 3419 
Q 3406 3131 3298 2873 
Q 3191 2616 2906 2266 
Q 2828 2175 2409 1742 
Q 1991 1309 1228 531 
z
" transform="scale(0.015625)"/>
       </defs>
       <use xlink:href="#DejaVuSans-30"/>
       <use xlink:href="#DejaVuSans-2e" x="63.623047"/>
       <use xlink:href="#DejaVuSans-32" x="95.410156"/>
      </g>
     </g>
    </g>
    <g id="xtick_3">
     <g id="line2d_3">
      <g>
       <use xlink:href="#m01ce37eb52" x="378.005551" y="768.96" style="stroke: #000000; stroke-width: 0.8"/>
      </g>
     </g>
     <g id="text_3">
      <!-- 0.4 -->
      <g transform="translate(370.053988 783.558437)scale(0.1 -0.1)">
       <defs>
        <path id="DejaVuSans-34" d="M 2419 4116 
L 825 1625 
L 2419 1625 
L 2419 4116 
z
M 2253 4666 
L 3047 4666 
L 3047 1625 
L 3713 1625 
L 3713 1100 
L 3047 1100 
L 3047 0 
L 2419 0 
L 2419 1100 
L 313 1100 
L 313 1709 
L 2253 4666 
z
" transform="scale(0.015625)"/>
       </defs>
       <use xlink:href="#DejaVuSans-30"/>
       <use xlink:href="#DejaVuSans-2e" x="63.623047"/>
       <use xlink:href="#DejaVuSans-34" x="95.410156"/>
      </g>
     </g>
    </g>
    <g id="xtick_4">
     <g id="line2d_4">
      <g>
       <use xlink:href="#m01ce37eb52" x="497.384838" y="768.96" style="stroke: #000000; stroke-width: 0.8"/>
      </g>
     </g>
     <g id="text_4">
      <!-- 0.6 -->
      <g transform="translate(489.433275 783.558437)scale(0.1 -0.1)">
       <defs>
        <path id="DejaVuSans-36" d="M 2113 2584 
Q 1688 2584 1439 2293 
Q 1191 2003 1191 1497 
Q 1191 994 1439 701 
Q 1688 409 2113 409 
Q 2538 409 2786 701 
Q 3034 994 3034 1497 
Q 3034 2003 2786 2293 
Q 2538 2584 2113 2584 
z
M 3366 4563 
L 3366 3988 
Q 3128 4100 2886 4159 
Q 2644 4219 2406 4219 
Q 1781 4219 1451 3797 
Q 1122 3375 1075 2522 
Q 1259 2794 1537 2939 
Q 1816 3084 2150 3084 
Q 2853 3084 3261 2657 
Q 3669 2231 3669 1497 
Q 3669 778 3244 343 
Q 2819 -91 2113 -91 
Q 1303 -91 875 529 
Q 447 1150 447 2328 
Q 447 3434 972 4092 
Q 1497 4750 2381 4750 
Q 2619 4750 2861 4703 
Q 3103 4656 3366 4563 
z
" transform="scale(0.015625)"/>
       </defs>
       <use xlink:href="#DejaVuSans-30"/>
       <use xlink:href="#DejaVuSans-2e" x="63.623047"/>
       <use xlink:href="#DejaVuSans-36" x="95.410156"/>
      </g>
     </g>
    </g>
    <g id="xtick_5">
     <g id="line2d_5">
      <g>
       <use xlink:href="#m01ce37eb52" x="616.764125" y="768.96" style="stroke: #000000; stroke-width: 0.8"/>
      </g>
     </g>
     <g id="text_5">
      <!-- 0.8 -->
      <g transform="translate(608.812562 783.558437)scale(0.1 -0.1)">
       <defs>
        <path id="DejaVuSans-38" d="M 2034 2216 
Q 1584 2216 1326 1975 
Q 1069 1734 1069 1313 
Q 1069 891 1326 650 
Q 1584 409 2034 409 
Q 2484 409 2743 651 
Q 3003 894 3003 1313 
Q 3003 1734 2745 1975 
Q 2488 2216 2034 2216 
z
M 1403 2484 
Q 997 2584 770 2862 
Q 544 3141 544 3541 
Q 544 4100 942 4425 
Q 1341 4750 2034 4750 
Q 2731 4750 3128 4425 
Q 3525 4100 3525 3541 
Q 3525 3141 3298 2862 
Q 3072 2584 2669 2484 
Q 3125 2378 3379 2068 
Q 3634 1759 3634 1313 
Q 3634 634 3220 271 
Q 2806 -91 2034 -91 
Q 1263 -91 848 271 
Q 434 634 434 1313 
Q 434 1759 690 2068 
Q 947 2378 1403 2484 
z
M 1172 3481 
Q 1172 3119 1398 2916 
Q 1625 2713 2034 2713 
Q 2441 2713 2670 2916 
Q 2900 3119 2900 3481 
Q 2900 3844 2670 4047 
Q 2441 4250 2034 4250 
Q 1625 4250 1398 4047 
Q 1172 3844 1172 3481 
z
" transform="scale(0.015625)"/>
       </defs>
       <use xlink:href="#DejaVuSans-30"/>
       <use xlink:href="#DejaVuSans-2e" x="63.623047"/>
       <use xlink:href="#DejaVuSans-38" x="95.410156"/>
      </g>
     </g>
    </g>
    <g id="xtick_6">
     <g id="line2d_6">
      <g>
       <use xlink:href="#m01ce37eb52" x="736.143411" y="768.96" style="stroke: #000000; stroke-width: 0.8"/>
      </g>
     </g>
     <g id="text_6">
      <!-- 1.0 -->
      <g transform="translate(728.191849 783.558437)scale(0.1 -0.1)">
       <defs>
        <path id="DejaVuSans-31" d="M 794 531 
L 1825 531 
L 1825 4091 
L 703 3866 
L 703 4441 
L 1819 4666 
L 2450 4666 
L 2450 531 
L 3481 531 
L 3481 0 
L 794 0 
L 794 531 
z
" transform="scale(0.015625)"/>
       </defs>
       <use xlink:href="#DejaVuSans-31"/>
       <use xlink:href="#DejaVuSans-2e" x="63.623047"/>
       <use xlink:href="#DejaVuSans-30" x="95.410156"/>
      </g>
     </g>
    </g>
    <g id="text_7">
     <!-- Similarity -->
     <g transform="translate(404.97625 801.795625)scale(0.16 -0.16)">
      <defs>
       <path id="DejaVuSans-53" d="M 3425 4513 
L 3425 3897 
Q 3066 4069 2747 4153 
Q 2428 4238 2131 4238 
Q 1616 4238 1336 4038 
Q 1056 3838 1056 3469 
Q 1056 3159 1242 3001 
Q 1428 2844 1947 2747 
L 2328 2669 
Q 3034 2534 3370 2195 
Q 3706 1856 3706 1288 
Q 3706 609 3251 259 
Q 2797 -91 1919 -91 
Q 1588 -91 1214 -16 
Q 841 59 441 206 
L 441 856 
Q 825 641 1194 531 
Q 1563 422 1919 422 
Q 2459 422 2753 634 
Q 3047 847 3047 1241 
Q 3047 1584 2836 1778 
Q 2625 1972 2144 2069 
L 1759 2144 
Q 1053 2284 737 2584 
Q 422 2884 422 3419 
Q 422 4038 858 4394 
Q 1294 4750 2059 4750 
Q 2388 4750 2728 4690 
Q 3069 4631 3425 4513 
z
" transform="scale(0.015625)"/>
       <path id="DejaVuSans-69" d="M 603 3500 
L 1178 3500 
L 1178 0 
L 603 0 
L 603 3500 
z
M 603 4863 
L 1178 4863 
L 1178 4134 
L 603 4134 
L 603 4863 
z
" transform="scale(0.015625)"/>
       <path id="DejaVuSans-6d" d="M 3328 2828 
Q 3544 3216 3844 3400 
Q 4144 3584 4550 3584 
Q 5097 3584 5394 3201 
Q 5691 2819 5691 2113 
L 5691 0 
L 5113 0 
L 5113 2094 
Q 5113 2597 4934 2840 
Q 4756 3084 4391 3084 
Q 3944 3084 3684 2787 
Q 3425 2491 3425 1978 
L 3425 0 
L 2847 0 
L 2847 2094 
Q 2847 2600 2669 2842 
Q 2491 3084 2119 3084 
Q 1678 3084 1418 2786 
Q 1159 2488 1159 1978 
L 1159 0 
L 581 0 
L 581 3500 
L 1159 3500 
L 1159 2956 
Q 1356 3278 1631 3431 
Q 1906 3584 2284 3584 
Q 2666 3584 2933 3390 
Q 3200 3197 3328 2828 
z
" transform="scale(0.015625)"/>
       <path id="DejaVuSans-6c" d="M 603 4863 
L 1178 4863 
L 1178 0 
L 603 0 
L 603 4863 
z
" transform="scale(0.015625)"/>
       <path id="DejaVuSans-61" d="M 2194 1759 
Q 1497 1759 1228 1600 
Q 959 1441 959 1056 
Q 959 750 1161 570 
Q 1363 391 1709 391 
Q 2188 391 2477 730 
Q 2766 1069 2766 1631 
L 2766 1759 
L 2194 1759 
z
M 3341 1997 
L 3341 0 
L 2766 0 
L 2766 531 
Q 2569 213 2275 61 
Q 1981 -91 1556 -91 
Q 1019 -91 701 211 
Q 384 513 384 1019 
Q 384 1609 779 1909 
Q 1175 2209 1959 2209 
L 2766 2209 
L 2766 2266 
Q 2766 2663 2505 2880 
Q 2244 3097 1772 3097 
Q 1472 3097 1187 3025 
Q 903 2953 641 2809 
L 641 3341 
Q 956 3463 1253 3523 
Q 1550 3584 1831 3584 
Q 2591 3584 2966 3190 
Q 3341 2797 3341 1997 
z
" transform="scale(0.015625)"/>
       <path id="DejaVuSans-72" d="M 2631 2963 
Q 2534 3019 2420 3045 
Q 2306 3072 2169 3072 
Q 1681 3072 1420 2755 
Q 1159 2438 1159 1844 
L 1159 0 
L 581 0 
L 581 3500 
L 1159 3500 
L 1159 2956 
Q 1341 3275 1631 3429 
Q 1922 3584 2338 3584 
Q 2397 3584 2469 3576 
Q 2541 3569 2628 3553 
L 2631 2963 
z
" transform="scale(0.015625)"/>
       <path id="DejaVuSans-74" d="M 1172 4494 
L 1172 3500 
L 2356 3500 
L 2356 3053 
L 1172 3053 
L 1172 1153 
Q 1172 725 1289 603 
Q 1406 481 1766 481 
L 2356 481 
L 2356 0 
L 1766 0 
Q 1100 0 847 248 
Q 594 497 594 1153 
L 594 3053 
L 172 3053 
L 172 3500 
L 594 3500 
L 594 4494 
L 1172 4494 
z
" transform="scale(0.015625)"/>
       <path id="DejaVuSans-79" d="M 2059 -325 
Q 1816 -950 1584 -1140 
Q 1353 -1331 966 -1331 
L 506 -1331 
L 506 -850 
L 844 -850 
Q 1081 -850 1212 -737 
Q 1344 -625 1503 -206 
L 1606 56 
L 191 3500 
L 800 3500 
L 1894 763 
L 2988 3500 
L 3597 3500 
L 2059 -325 
z
" transform="scale(0.015625)"/>
      </defs>
      <use xlink:href="#DejaVuSans-53"/>
      <use xlink:href="#DejaVuSans-69" x="63.476562"/>
      <use xlink:href="#DejaVuSans-6d" x="91.259766"/>
      <use xlink:href="#DejaVuSans-69" x="188.671875"/>
      <use xlink:href="#DejaVuSans-6c" x="216.455078"/>
      <use xlink:href="#DejaVuSans-61" x="244.238281"/>
      <use xlink:href="#DejaVuSans-72" x="305.517578"/>
      <use xlink:href="#DejaVuSans-69" x="346.630859"/>
      <use xlink:href="#DejaVuSans-74" x="374.414062"/>
      <use xlink:href="#DejaVuSans-79" x="413.623047"/>
     </g>
    </g>
   </g>
   <g id="matplotlib.axis_2">
    <g id="ytick_1">
     <g id="line2d_7">
      <defs>
       <path id="m49a3aa81b4" d="M 0 0 
L -3.5 0 
" style="stroke: #000000; stroke-width: 0.8"/>
      </defs>
      <g>
       <use xlink:href="#m49a3aa81b4" x="108" y="768.96" style="stroke: #000000; stroke-width: 0.8"/>
      </g>
     </g>
     <g id="text_8">
      <!-- 0 -->
      <g transform="translate(94.6375 772.759219)scale(0.1 -0.1)">
       <use xlink:href="#DejaVuSans-30"/>
      </g>
     </g>
    </g>
    <g id="ytick_2">
     <g id="line2d_8">
      <g>
       <use xlink:href="#m49a3aa81b4" x="108" y="623.751752" style="stroke: #000000; stroke-width: 0.8"/>
      </g>
     </g>
     <g id="text_9">
      <!-- 1 -->
      <g transform="translate(94.6375 627.550971)scale(0.1 -0.1)">
       <use xlink:href="#DejaVuSans-31"/>
      </g>
     </g>
    </g>
    <g id="ytick_3">
     <g id="line2d_9">
      <g>
       <use xlink:href="#m49a3aa81b4" x="108" y="478.543504" style="stroke: #000000; stroke-width: 0.8"/>
      </g>
     </g>
     <g id="text_10">
      <!-- 2 -->
      <g transform="translate(94.6375 482.342722)scale(0.1 -0.1)">
       <use xlink:href="#DejaVuSans-32"/>
      </g>
     </g>
    </g>
    <g id="ytick_4">
     <g id="line2d_10">
      <g>
       <use xlink:href="#m49a3aa81b4" x="108" y="333.335255" style="stroke: #000000; stroke-width: 0.8"/>
      </g>
     </g>
     <g id="text_11">
      <!-- 3 -->
      <g transform="translate(94.6375 337.134474)scale(0.1 -0.1)">
       <defs>
        <path id="DejaVuSans-33" d="M 2597 2516 
Q 3050 2419 3304 2112 
Q 3559 1806 3559 1356 
Q 3559 666 3084 287 
Q 2609 -91 1734 -91 
Q 1441 -91 1130 -33 
Q 819 25 488 141 
L 488 750 
Q 750 597 1062 519 
Q 1375 441 1716 441 
Q 2309 441 2620 675 
Q 2931 909 2931 1356 
Q 2931 1769 2642 2001 
Q 2353 2234 1838 2234 
L 1294 2234 
L 1294 2753 
L 1863 2753 
Q 2328 2753 2575 2939 
Q 2822 3125 2822 3475 
Q 2822 3834 2567 4026 
Q 2313 4219 1838 4219 
Q 1578 4219 1281 4162 
Q 984 4106 628 3988 
L 628 4550 
Q 988 4650 1302 4700 
Q 1616 4750 1894 4750 
Q 2613 4750 3031 4423 
Q 3450 4097 3450 3541 
Q 3450 3153 3228 2886 
Q 3006 2619 2597 2516 
z
" transform="scale(0.015625)"/>
       </defs>
       <use xlink:href="#DejaVuSans-33"/>
      </g>
     </g>
    </g>
    <g id="ytick_5">
     <g id="line2d_11">
      <g>
       <use xlink:href="#m49a3aa81b4" x="108" y="188.127007" style="stroke: #000000; stroke-width: 0.8"/>
      </g>
     </g>
     <g id="text_12">
      <!-- 4 -->
      <g transform="translate(94.6375 191.926226)scale(0.1 -0.1)">
       <use xlink:href="#DejaVuSans-34"/>
      </g>
     </g>
    </g>
    <g id="text_13">
     <!-- Density -->
     <g transform="translate(87.31 466.73375)rotate(-90)scale(0.16 -0.16)">
      <defs>
       <path id="DejaVuSans-44" d="M 1259 4147 
L 1259 519 
L 2022 519 
Q 2988 519 3436 956 
Q 3884 1394 3884 2338 
Q 3884 3275 3436 3711 
Q 2988 4147 2022 4147 
L 1259 4147 
z
M 628 4666 
L 1925 4666 
Q 3281 4666 3915 4102 
Q 4550 3538 4550 2338 
Q 4550 1131 3912 565 
Q 3275 0 1925 0 
L 628 0 
L 628 4666 
z
" transform="scale(0.015625)"/>
       <path id="DejaVuSans-65" d="M 3597 1894 
L 3597 1613 
L 953 1613 
Q 991 1019 1311 708 
Q 1631 397 2203 397 
Q 2534 397 2845 478 
Q 3156 559 3463 722 
L 3463 178 
Q 3153 47 2828 -22 
Q 2503 -91 2169 -91 
Q 1331 -91 842 396 
Q 353 884 353 1716 
Q 353 2575 817 3079 
Q 1281 3584 2069 3584 
Q 2775 3584 3186 3129 
Q 3597 2675 3597 1894 
z
M 3022 2063 
Q 3016 2534 2758 2815 
Q 2500 3097 2075 3097 
Q 1594 3097 1305 2825 
Q 1016 2553 972 2059 
L 3022 2063 
z
" transform="scale(0.015625)"/>
       <path id="DejaVuSans-6e" d="M 3513 2113 
L 3513 0 
L 2938 0 
L 2938 2094 
Q 2938 2591 2744 2837 
Q 2550 3084 2163 3084 
Q 1697 3084 1428 2787 
Q 1159 2491 1159 1978 
L 1159 0 
L 581 0 
L 581 3500 
L 1159 3500 
L 1159 2956 
Q 1366 3272 1645 3428 
Q 1925 3584 2291 3584 
Q 2894 3584 3203 3211 
Q 3513 2838 3513 2113 
z
" transform="scale(0.015625)"/>
       <path id="DejaVuSans-73" d="M 2834 3397 
L 2834 2853 
Q 2591 2978 2328 3040 
Q 2066 3103 1784 3103 
Q 1356 3103 1142 2972 
Q 928 2841 928 2578 
Q 928 2378 1081 2264 
Q 1234 2150 1697 2047 
L 1894 2003 
Q 2506 1872 2764 1633 
Q 3022 1394 3022 966 
Q 3022 478 2636 193 
Q 2250 -91 1575 -91 
Q 1294 -91 989 -36 
Q 684 19 347 128 
L 347 722 
Q 666 556 975 473 
Q 1284 391 1588 391 
Q 1994 391 2212 530 
Q 2431 669 2431 922 
Q 2431 1156 2273 1281 
Q 2116 1406 1581 1522 
L 1381 1569 
Q 847 1681 609 1914 
Q 372 2147 372 2553 
Q 372 3047 722 3315 
Q 1072 3584 1716 3584 
Q 2034 3584 2315 3537 
Q 2597 3491 2834 3397 
z
" transform="scale(0.015625)"/>
      </defs>
      <use xlink:href="#DejaVuSans-44"/>
      <use xlink:href="#DejaVuSans-65" x="77.001953"/>
      <use xlink:href="#DejaVuSans-6e" x="138.525391"/>
      <use xlink:href="#DejaVuSans-73" x="201.904297"/>
      <use xlink:href="#DejaVuSans-69" x="254.003906"/>
      <use xlink:href="#DejaVuSans-74" x="281.787109"/>
      <use xlink:href="#DejaVuSans-79" x="320.996094"/>
     </g>
    </g>
   </g>
   <g id="patch_3">
    <path d="M 108 768.96 
L 108 103.68 
" style="fill: none; stroke: #000000; stroke-width: 0.8; stroke-linejoin: miter; stroke-linecap: square"/>
   </g>
   <g id="patch_4">
    <path d="M 777.6 768.96 
L 777.6 103.68 
" style="fill: none; stroke: #000000; stroke-width: 0.8; stroke-linejoin: miter; stroke-linecap: square"/>
   </g>
   <g id="patch_5">
    <path d="M 108 768.96 
L 777.6 768.96 
" style="fill: none; stroke: #000000; stroke-width: 0.8; stroke-linejoin: miter; stroke-linecap: square"/>
   </g>
   <g id="patch_6">
    <path d="M 108 103.68 
L 777.6 103.68 
" style="fill: none; stroke: #000000; stroke-width: 0.8; stroke-linejoin: miter; stroke-linecap: square"/>
   </g>
   <g id="legend_1">
    <g id="patch_7">
     <path d="M 484.15 186.935 
L 766.4 186.935 
Q 769.6 186.935 769.6 183.735 
L 769.6 114.88 
Q 769.6 111.68 766.4 111.68 
L 484.15 111.68 
Q 480.95 111.68 480.95 114.88 
L 480.95 183.735 
Q 480.95 186.935 484.15 186.935 
z
" style="fill: #ffffff; opacity: 0.8; stroke: #cccccc; stroke-linejoin: miter"/>
    </g>
    <g id="patch_8">
     <path d="M 487.35 130.2375 
L 519.35 130.2375 
L 519.35 119.0375 
L 487.35 119.0375 
z
" style="fill: #0000ff; fill-opacity: 0.25; stroke: #0000ff; stroke-width: 3; stroke-linejoin: miter"/>
    </g>
    <g id="text_14">
     <!-- Training vs Test set similarity -->
     <g transform="translate(532.15 130.2375)scale(0.16 -0.16)">
      <defs>
       <path id="DejaVuSans-54" d="M -19 4666 
L 3928 4666 
L 3928 4134 
L 2272 4134 
L 2272 0 
L 1638 0 
L 1638 4134 
L -19 4134 
L -19 4666 
z
" transform="scale(0.015625)"/>
       <path id="DejaVuSans-67" d="M 2906 1791 
Q 2906 2416 2648 2759 
Q 2391 3103 1925 3103 
Q 1463 3103 1205 2759 
Q 947 2416 947 1791 
Q 947 1169 1205 825 
Q 1463 481 1925 481 
Q 2391 481 2648 825 
Q 2906 1169 2906 1791 
z
M 3481 434 
Q 3481 -459 3084 -895 
Q 2688 -1331 1869 -1331 
Q 1566 -1331 1297 -1286 
Q 1028 -1241 775 -1147 
L 775 -588 
Q 1028 -725 1275 -790 
Q 1522 -856 1778 -856 
Q 2344 -856 2625 -561 
Q 2906 -266 2906 331 
L 2906 616 
Q 2728 306 2450 153 
Q 2172 0 1784 0 
Q 1141 0 747 490 
Q 353 981 353 1791 
Q 353 2603 747 3093 
Q 1141 3584 1784 3584 
Q 2172 3584 2450 3431 
Q 2728 3278 2906 2969 
L 2906 3500 
L 3481 3500 
L 3481 434 
z
" transform="scale(0.015625)"/>
       <path id="DejaVuSans-20" transform="scale(0.015625)"/>
       <path id="DejaVuSans-76" d="M 191 3500 
L 800 3500 
L 1894 563 
L 2988 3500 
L 3597 3500 
L 2284 0 
L 1503 0 
L 191 3500 
z
" transform="scale(0.015625)"/>
      </defs>
      <use xlink:href="#DejaVuSans-54"/>
      <use xlink:href="#DejaVuSans-72" x="46.333984"/>
      <use xlink:href="#DejaVuSans-61" x="87.447266"/>
      <use xlink:href="#DejaVuSans-69" x="148.726562"/>
      <use xlink:href="#DejaVuSans-6e" x="176.509766"/>
      <use xlink:href="#DejaVuSans-69" x="239.888672"/>
      <use xlink:href="#DejaVuSans-6e" x="267.671875"/>
      <use xlink:href="#DejaVuSans-67" x="331.050781"/>
      <use xlink:href="#DejaVuSans-20" x="394.527344"/>
      <use xlink:href="#DejaVuSans-76" x="426.314453"/>
      <use xlink:href="#DejaVuSans-73" x="485.494141"/>
      <use xlink:href="#DejaVuSans-20" x="537.59375"/>
      <use xlink:href="#DejaVuSans-54" x="569.380859"/>
      <use xlink:href="#DejaVuSans-65" x="613.464844"/>
      <use xlink:href="#DejaVuSans-73" x="674.988281"/>
      <use xlink:href="#DejaVuSans-74" x="727.087891"/>
      <use xlink:href="#DejaVuSans-20" x="766.296875"/>
      <use xlink:href="#DejaVuSans-73" x="798.083984"/>
      <use xlink:href="#DejaVuSans-65" x="850.183594"/>
      <use xlink:href="#DejaVuSans-74" x="911.707031"/>
      <use xlink:href="#DejaVuSans-20" x="950.916016"/>
      <use xlink:href="#DejaVuSans-73" x="982.703125"/>
      <use xlink:href="#DejaVuSans-69" x="1034.802734"/>
      <use xlink:href="#DejaVuSans-6d" x="1062.585938"/>
      <use xlink:href="#DejaVuSans-69" x="1159.998047"/>
      <use xlink:href="#DejaVuSans-6c" x="1187.78125"/>
      <use xlink:href="#DejaVuSans-61" x="1215.564453"/>
      <use xlink:href="#DejaVuSans-72" x="1276.84375"/>
      <use xlink:href="#DejaVuSans-69" x="1317.957031"/>
      <use xlink:href="#DejaVuSans-74" x="1345.740234"/>
      <use xlink:href="#DejaVuSans-79" x="1384.949219"/>
     </g>
    </g>
    <g id="patch_9">
     <path d="M 487.35 153.7225 
L 519.35 153.7225 
L 519.35 142.5225 
L 487.35 142.5225 
z
" style="fill: #ff0000; fill-opacity: 0.25; stroke: #ff0000; stroke-width: 3; stroke-linejoin: miter"/>
    </g>
    <g id="text_15">
     <!-- Training set inner similarity -->
     <g transform="translate(532.15 153.7225)scale(0.16 -0.16)">
      <use xlink:href="#DejaVuSans-54"/>
      <use xlink:href="#DejaVuSans-72" x="46.333984"/>
      <use xlink:href="#DejaVuSans-61" x="87.447266"/>
      <use xlink:href="#DejaVuSans-69" x="148.726562"/>
      <use xlink:href="#DejaVuSans-6e" x="176.509766"/>
      <use xlink:href="#DejaVuSans-69" x="239.888672"/>
      <use xlink:href="#DejaVuSans-6e" x="267.671875"/>
      <use xlink:href="#DejaVuSans-67" x="331.050781"/>
      <use xlink:href="#DejaVuSans-20" x="394.527344"/>
      <use xlink:href="#DejaVuSans-73" x="426.314453"/>
      <use xlink:href="#DejaVuSans-65" x="478.414062"/>
      <use xlink:href="#DejaVuSans-74" x="539.9375"/>
      <use xlink:href="#DejaVuSans-20" x="579.146484"/>
      <use xlink:href="#DejaVuSans-69" x="610.933594"/>
      <use xlink:href="#DejaVuSans-6e" x="638.716797"/>
      <use xlink:href="#DejaVuSans-6e" x="702.095703"/>
      <use xlink:href="#DejaVuSans-65" x="765.474609"/>
      <use xlink:href="#DejaVuSans-72" x="826.998047"/>
      <use xlink:href="#DejaVuSans-20" x="868.111328"/>
      <use xlink:href="#DejaVuSans-73" x="899.898438"/>
      <use xlink:href="#DejaVuSans-69" x="951.998047"/>
      <use xlink:href="#DejaVuSans-6d" x="979.78125"/>
      <use xlink:href="#DejaVuSans-69" x="1077.193359"/>
      <use xlink:href="#DejaVuSans-6c" x="1104.976562"/>
      <use xlink:href="#DejaVuSans-61" x="1132.759766"/>
      <use xlink:href="#DejaVuSans-72" x="1194.039062"/>
      <use xlink:href="#DejaVuSans-69" x="1235.152344"/>
      <use xlink:href="#DejaVuSans-74" x="1262.935547"/>
      <use xlink:href="#DejaVuSans-79" x="1302.144531"/>
     </g>
    </g>
    <g id="patch_10">
     <path d="M 487.35 177.2075 
L 519.35 177.2075 
L 519.35 166.0075 
L 487.35 166.0075 
z
" style="fill: #008000; fill-opacity: 0.25; stroke: #008000; stroke-width: 3; stroke-linejoin: miter"/>
    </g>
    <g id="text_16">
     <!-- Test set inner similarity -->
     <g transform="translate(532.15 177.2075)scale(0.16 -0.16)">
      <use xlink:href="#DejaVuSans-54"/>
      <use xlink:href="#DejaVuSans-65" x="44.083984"/>
      <use xlink:href="#DejaVuSans-73" x="105.607422"/>
      <use xlink:href="#DejaVuSans-74" x="157.707031"/>
      <use xlink:href="#DejaVuSans-20" x="196.916016"/>
      <use xlink:href="#DejaVuSans-73" x="228.703125"/>
      <use xlink:href="#DejaVuSans-65" x="280.802734"/>
      <use xlink:href="#DejaVuSans-74" x="342.326172"/>
      <use xlink:href="#DejaVuSans-20" x="381.535156"/>
      <use xlink:href="#DejaVuSans-69" x="413.322266"/>
      <use xlink:href="#DejaVuSans-6e" x="441.105469"/>
      <use xlink:href="#DejaVuSans-6e" x="504.484375"/>
      <use xlink:href="#DejaVuSans-65" x="567.863281"/>
      <use xlink:href="#DejaVuSans-72" x="629.386719"/>
      <use xlink:href="#DejaVuSans-20" x="670.5"/>
      <use xlink:href="#DejaVuSans-73" x="702.287109"/>
      <use xlink:href="#DejaVuSans-69" x="754.386719"/>
      <use xlink:href="#DejaVuSans-6d" x="782.169922"/>
      <use xlink:href="#DejaVuSans-69" x="879.582031"/>
      <use xlink:href="#DejaVuSans-6c" x="907.365234"/>
      <use xlink:href="#DejaVuSans-61" x="935.148438"/>
      <use xlink:href="#DejaVuSans-72" x="996.427734"/>
      <use xlink:href="#DejaVuSans-69" x="1037.541016"/>
      <use xlink:href="#DejaVuSans-74" x="1065.324219"/>
      <use xlink:href="#DejaVuSans-79" x="1104.533203"/>
     </g>
    </g>
   </g>
  </g>
 </g>
 <defs>
  <clipPath id="p2e89b66d96">
   <rect x="108" y="103.68" width="669.6" height="665.28"/>
  </clipPath>
 </defs>
</svg>
