<?xml version="1.0" encoding="utf-8" standalone="no"?>
<!DOCTYPE svg PUBLIC "-//W3C//DTD SVG 1.1//EN"
  "http://www.w3.org/Graphics/SVG/1.1/DTD/svg11.dtd">
<svg xmlns:xlink="http://www.w3.org/1999/xlink" width="864pt" height="864pt" viewBox="0 0 864 864" xmlns="http://www.w3.org/2000/svg" version="1.1">
 <metadata>
  <rdf:RDF xmlns:dc="http://purl.org/dc/elements/1.1/" xmlns:cc="http://creativecommons.org/ns#" xmlns:rdf="http://www.w3.org/1999/02/22-rdf-syntax-ns#">
   <cc:Work>
    <dc:type rdf:resource="http://purl.org/dc/dcmitype/StillImage"/>
    <dc:date>2022-02-07T12:10:03.116708</dc:date>
    <dc:format>image/svg+xml</dc:format>
    <dc:creator>
     <cc:Agent>
      <dc:title>Matplotlib v3.5.1, https://matplotlib.org/</dc:title>
     </cc:Agent>
    </dc:creator>
   </cc:Work>
  </rdf:RDF>
 </metadata>
 <defs>
  <style type="text/css">*{stroke-linejoin: round; stroke-linecap: butt}</style>
 </defs>
 <g id="figure_1">
  <g id="patch_1">
   <path d="M 0 864 
L 864 864 
L 864 0 
L 0 0 
z
" style="fill: #ffffff"/>
  </g>
  <g id="axes_1">
   <g id="patch_2">
    <path d="M 108 768.96 
L 777.6 768.96 
L 777.6 103.68 
L 108 103.68 
z
" style="fill: #ffffff"/>
   </g>
   <g id="PolyCollection_1">
    <defs>
     <path id="m844ba7a656" d="M 140.282042 -95.040007 
L 140.282042 -95.04 
L 143.302319 -95.04 
L 146.322597 -95.04 
L 149.342875 -95.04 
L 152.363152 -95.04 
L 155.38343 -95.04 
L 158.403708 -95.04 
L 161.423985 -95.04 
L 164.444263 -95.04 
L 167.464541 -95.04 
L 170.484818 -95.04 
L 173.505096 -95.04 
L 176.525374 -95.04 
L 179.545651 -95.04 
L 182.565929 -95.04 
L 185.586207 -95.04 
L 188.606484 -95.04 
L 191.626762 -95.04 
L 194.64704 -95.04 
L 197.667317 -95.04 
L 200.687595 -95.04 
L 203.707873 -95.04 
L 206.72815 -95.04 
L 209.748428 -95.04 
L 212.768706 -95.04 
L 215.788983 -95.04 
L 218.809261 -95.04 
L 221.829539 -95.04 
L 224.849816 -95.04 
L 227.870094 -95.04 
L 230.890372 -95.04 
L 233.910649 -95.04 
L 236.930927 -95.04 
L 239.951205 -95.04 
L 242.971483 -95.04 
L 245.99176 -95.04 
L 249.012038 -95.04 
L 252.032316 -95.04 
L 255.052593 -95.04 
L 258.072871 -95.04 
L 261.093149 -95.04 
L 264.113426 -95.04 
L 267.133704 -95.04 
L 270.153982 -95.04 
L 273.174259 -95.04 
L 276.194537 -95.04 
L 279.214815 -95.04 
L 282.235092 -95.04 
L 285.25537 -95.04 
L 288.275648 -95.04 
L 291.295925 -95.04 
L 294.316203 -95.04 
L 297.336481 -95.04 
L 300.356758 -95.04 
L 303.377036 -95.04 
L 306.397314 -95.04 
L 309.417591 -95.04 
L 312.437869 -95.04 
L 315.458147 -95.04 
L 318.478424 -95.04 
L 321.498702 -95.04 
L 324.51898 -95.04 
L 327.539257 -95.04 
L 330.559535 -95.04 
L 333.579813 -95.04 
L 336.60009 -95.04 
L 339.620368 -95.04 
L 342.640646 -95.04 
L 345.660923 -95.04 
L 348.681201 -95.04 
L 351.701479 -95.04 
L 354.721756 -95.04 
L 357.742034 -95.04 
L 360.762312 -95.04 
L 363.782589 -95.04 
L 366.802867 -95.04 
L 369.823145 -95.04 
L 372.843422 -95.04 
L 375.8637 -95.04 
L 378.883978 -95.04 
L 381.904255 -95.04 
L 384.924533 -95.04 
L 387.944811 -95.04 
L 390.965088 -95.04 
L 393.985366 -95.04 
L 397.005644 -95.04 
L 400.025921 -95.04 
L 403.046199 -95.04 
L 406.066477 -95.04 
L 409.086755 -95.04 
L 412.107032 -95.04 
L 415.12731 -95.04 
L 418.147588 -95.04 
L 421.167865 -95.04 
L 424.188143 -95.04 
L 427.208421 -95.04 
L 430.228698 -95.04 
L 433.248976 -95.04 
L 436.269254 -95.04 
L 439.289531 -95.04 
L 442.309809 -95.04 
L 445.330087 -95.04 
L 448.350364 -95.04 
L 451.370642 -95.04 
L 454.39092 -95.04 
L 457.411197 -95.04 
L 460.431475 -95.04 
L 463.451753 -95.04 
L 466.47203 -95.04 
L 469.492308 -95.04 
L 472.512586 -95.04 
L 475.532863 -95.04 
L 478.553141 -95.04 
L 481.573419 -95.04 
L 484.593696 -95.04 
L 487.613974 -95.04 
L 490.634252 -95.04 
L 493.654529 -95.04 
L 496.674807 -95.04 
L 499.695085 -95.04 
L 502.715362 -95.04 
L 505.73564 -95.04 
L 508.755918 -95.04 
L 511.776195 -95.04 
L 514.796473 -95.04 
L 517.816751 -95.04 
L 520.837028 -95.04 
L 523.857306 -95.04 
L 526.877584 -95.04 
L 529.897861 -95.04 
L 532.918139 -95.04 
L 535.938417 -95.04 
L 538.958694 -95.04 
L 541.978972 -95.04 
L 544.99925 -95.04 
L 548.019527 -95.04 
L 551.039805 -95.04 
L 554.060083 -95.04 
L 557.08036 -95.04 
L 560.100638 -95.04 
L 563.120916 -95.04 
L 566.141193 -95.04 
L 569.161471 -95.04 
L 572.181749 -95.04 
L 575.202026 -95.04 
L 578.222304 -95.04 
L 581.242582 -95.04 
L 584.26286 -95.04 
L 587.283137 -95.04 
L 590.303415 -95.04 
L 593.323693 -95.04 
L 596.34397 -95.04 
L 599.364248 -95.04 
L 602.384526 -95.04 
L 605.404803 -95.04 
L 608.425081 -95.04 
L 611.445359 -95.04 
L 614.465636 -95.04 
L 617.485914 -95.04 
L 620.506192 -95.04 
L 623.526469 -95.04 
L 626.546747 -95.04 
L 629.567025 -95.04 
L 632.587302 -95.04 
L 635.60758 -95.04 
L 638.627858 -95.04 
L 641.648135 -95.04 
L 644.668413 -95.04 
L 647.688691 -95.04 
L 650.708968 -95.04 
L 653.729246 -95.04 
L 656.749524 -95.04 
L 659.769801 -95.04 
L 662.790079 -95.04 
L 665.810357 -95.04 
L 668.830634 -95.04 
L 671.850912 -95.04 
L 674.87119 -95.04 
L 677.891467 -95.04 
L 680.911745 -95.04 
L 683.932023 -95.04 
L 686.9523 -95.04 
L 689.972578 -95.04 
L 692.992856 -95.04 
L 696.013133 -95.04 
L 699.033411 -95.04 
L 702.053689 -95.04 
L 705.073966 -95.04 
L 708.094244 -95.04 
L 711.114522 -95.04 
L 714.134799 -95.04 
L 717.155077 -95.04 
L 720.175355 -95.04 
L 723.195632 -95.04 
L 726.21591 -95.04 
L 729.236188 -95.04 
L 732.256465 -95.04 
L 735.276743 -95.04 
L 738.297021 -95.04 
L 741.317298 -95.04 
L 741.317298 -95.081147 
L 741.317298 -95.081147 
L 738.297021 -95.827136 
L 735.276743 -98.424955 
L 732.256465 -98.713411 
L 729.236188 -96.849704 
L 726.21591 -96.401221 
L 723.195632 -96.546788 
L 720.175355 -96.923455 
L 717.155077 -97.319742 
L 714.134799 -97.68593 
L 711.114522 -98.221142 
L 708.094244 -98.668603 
L 705.073966 -98.879746 
L 702.053689 -98.944131 
L 699.033411 -99.281531 
L 696.013133 -100.098775 
L 692.992856 -101.079462 
L 689.972578 -101.694135 
L 686.9523 -102.302055 
L 683.932023 -103.009612 
L 680.911745 -103.987674 
L 677.891467 -105.175465 
L 674.87119 -106.582469 
L 671.850912 -108.334395 
L 668.830634 -109.939693 
L 665.810357 -111.431313 
L 662.790079 -112.816939 
L 659.769801 -114.026913 
L 656.749524 -115.713147 
L 653.729246 -117.669674 
L 650.708968 -119.645306 
L 647.688691 -120.705194 
L 644.668413 -121.352265 
L 641.648135 -122.986917 
L 638.627858 -124.714004 
L 635.60758 -126.630057 
L 632.587302 -129.349092 
L 629.567025 -132.529003 
L 626.546747 -135.346327 
L 623.526469 -137.669585 
L 620.506192 -140.054878 
L 617.485914 -142.873189 
L 614.465636 -145.074985 
L 611.445359 -146.311465 
L 608.425081 -146.894623 
L 605.404803 -147.663074 
L 602.384526 -150.176771 
L 599.364248 -153.147814 
L 596.34397 -156.415812 
L 593.323693 -160.327651 
L 590.303415 -164.556978 
L 587.283137 -168.657796 
L 584.26286 -172.995933 
L 581.242582 -177.583766 
L 578.222304 -181.361014 
L 575.202026 -184.658295 
L 572.181749 -189.36519 
L 569.161471 -193.703734 
L 566.141193 -196.737054 
L 563.120916 -199.818643 
L 560.100638 -203.98278 
L 557.08036 -208.359428 
L 554.060083 -210.347121 
L 551.039805 -212.486572 
L 548.019527 -214.534585 
L 544.99925 -215.259425 
L 541.978972 -215.118972 
L 538.958694 -214.248532 
L 535.938417 -216.080365 
L 532.918139 -220.41636 
L 529.897861 -223.687949 
L 526.877584 -224.697321 
L 523.857306 -225.58119 
L 520.837028 -227.609093 
L 517.816751 -227.040475 
L 514.796473 -222.041527 
L 511.776195 -215.611109 
L 508.755918 -207.833754 
L 505.73564 -201.42694 
L 502.715362 -198.136445 
L 499.695085 -198.296835 
L 496.674807 -200.864999 
L 493.654529 -203.550406 
L 490.634252 -210.203354 
L 487.613974 -222.155769 
L 484.593696 -234.143485 
L 481.573419 -245.084306 
L 478.553141 -256.684207 
L 475.532863 -271.163392 
L 472.512586 -287.15825 
L 469.492308 -305.938772 
L 466.47203 -323.279686 
L 463.451753 -333.012415 
L 460.431475 -346.360386 
L 457.411197 -365.962208 
L 454.39092 -390.670591 
L 451.370642 -424.029229 
L 448.350364 -461.878386 
L 445.330087 -502.534917 
L 442.309809 -542.382945 
L 439.289531 -574.889288 
L 436.269254 -596.14169 
L 433.248976 -607.980166 
L 430.228698 -619.14109 
L 427.208421 -630.716675 
L 424.188143 -643.911425 
L 421.167865 -661.42976 
L 418.147588 -682.34284 
L 415.12731 -697.842142 
L 412.107032 -703.381591 
L 409.086755 -709.759051 
L 406.066477 -715.94075 
L 403.046199 -711.559745 
L 400.025921 -697.581022 
L 397.005644 -682.978272 
L 393.985366 -674.038055 
L 390.965088 -667.34734 
L 387.944811 -662.683432 
L 384.924533 -653.502924 
L 381.904255 -640.351593 
L 378.883978 -631.046585 
L 375.8637 -628.802396 
L 372.843422 -628.984202 
L 369.823145 -632.831421 
L 366.802867 -637.491957 
L 363.782589 -642.395352 
L 360.762312 -649.598262 
L 357.742034 -649.824482 
L 354.721756 -639.799996 
L 351.701479 -622.115075 
L 348.681201 -606.800544 
L 345.660923 -591.774498 
L 342.640646 -569.68083 
L 339.620368 -548.940748 
L 336.60009 -529.87053 
L 333.579813 -505.037214 
L 330.559535 -483.263917 
L 327.539257 -466.034857 
L 324.51898 -443.85903 
L 321.498702 -424.159688 
L 318.478424 -405.717991 
L 315.458147 -388.465377 
L 312.437869 -373.735255 
L 309.417591 -362.012914 
L 306.397314 -352.10914 
L 303.377036 -337.457118 
L 300.356758 -320.178822 
L 297.336481 -302.640936 
L 294.316203 -284.840089 
L 291.295925 -270.720033 
L 288.275648 -258.319925 
L 285.25537 -244.457676 
L 282.235092 -228.293444 
L 279.214815 -212.503434 
L 276.194537 -202.779915 
L 273.174259 -197.176289 
L 270.153982 -188.946072 
L 267.133704 -178.878447 
L 264.113426 -171.792538 
L 261.093149 -165.664424 
L 258.072871 -159.187793 
L 255.052593 -153.247863 
L 252.032316 -146.82052 
L 249.012038 -141.155951 
L 245.99176 -137.013491 
L 242.971483 -133.643283 
L 239.951205 -130.114943 
L 236.930927 -125.307345 
L 233.910649 -119.432049 
L 230.890372 -115.167687 
L 227.870094 -112.797473 
L 224.849816 -110.672809 
L 221.829539 -108.558221 
L 218.809261 -106.806732 
L 215.788983 -105.481256 
L 212.768706 -104.131586 
L 209.748428 -102.933721 
L 206.72815 -102.029871 
L 203.707873 -101.982651 
L 200.687595 -102.279401 
L 197.667317 -101.709764 
L 194.64704 -99.933823 
L 191.626762 -98.03335 
L 188.606484 -96.903716 
L 185.586207 -96.49289 
L 182.565929 -96.614157 
L 179.545651 -97.405364 
L 176.525374 -98.121857 
L 173.505096 -97.441725 
L 170.484818 -96.329977 
L 167.464541 -95.718222 
L 164.444263 -95.590254 
L 161.423985 -96.016074 
L 158.403708 -96.154579 
L 155.38343 -95.512245 
L 152.363152 -95.117315 
L 149.342875 -95.049395 
L 146.322597 -95.04169 
L 143.302319 -95.040191 
L 140.282042 -95.040007 
z
" style="stroke: #0000ff; stroke-width: 3"/>
    </defs>
    <g clip-path="url(#padbb91bc53)">
     <use xlink:href="#m844ba7a656" x="0" y="864" style="fill: #0000ff; fill-opacity: 0.25; stroke: #0000ff; stroke-width: 3"/>
    </g>
   </g>
   <g id="PolyCollection_2">
    <defs>
     <path id="maf1487403f" d="M 138.436364 -95.040003 
L 138.436364 -95.04 
L 141.459623 -95.04 
L 144.482882 -95.04 
L 147.506141 -95.04 
L 150.5294 -95.04 
L 153.552659 -95.04 
L 156.575918 -95.04 
L 159.599177 -95.04 
L 162.622436 -95.04 
L 165.645694 -95.04 
L 168.668953 -95.04 
L 171.692212 -95.04 
L 174.715471 -95.04 
L 177.73873 -95.04 
L 180.761989 -95.04 
L 183.785248 -95.04 
L 186.808507 -95.04 
L 189.831766 -95.04 
L 192.855025 -95.04 
L 195.878284 -95.04 
L 198.901543 -95.04 
L 201.924802 -95.04 
L 204.948061 -95.04 
L 207.97132 -95.04 
L 210.994579 -95.04 
L 214.017838 -95.04 
L 217.041097 -95.04 
L 220.064356 -95.04 
L 223.087615 -95.04 
L 226.110874 -95.04 
L 229.134133 -95.04 
L 232.157392 -95.04 
L 235.180651 -95.04 
L 238.20391 -95.04 
L 241.227169 -95.04 
L 244.250428 -95.04 
L 247.273687 -95.04 
L 250.296946 -95.04 
L 253.320205 -95.04 
L 256.343464 -95.04 
L 259.366723 -95.04 
L 262.389982 -95.04 
L 265.413241 -95.04 
L 268.4365 -95.04 
L 271.459759 -95.04 
L 274.483018 -95.04 
L 277.506277 -95.04 
L 280.529536 -95.04 
L 283.552795 -95.04 
L 286.576054 -95.04 
L 289.599313 -95.04 
L 292.622572 -95.04 
L 295.645831 -95.04 
L 298.66909 -95.04 
L 301.692349 -95.04 
L 304.715608 -95.04 
L 307.738867 -95.04 
L 310.762126 -95.04 
L 313.785385 -95.04 
L 316.808644 -95.04 
L 319.831903 -95.04 
L 322.855162 -95.04 
L 325.878421 -95.04 
L 328.90168 -95.04 
L 331.924939 -95.04 
L 334.948198 -95.04 
L 337.971457 -95.04 
L 340.994716 -95.04 
L 344.017975 -95.04 
L 347.041234 -95.04 
L 350.064493 -95.04 
L 353.087752 -95.04 
L 356.111011 -95.04 
L 359.13427 -95.04 
L 362.157529 -95.04 
L 365.180787 -95.04 
L 368.204046 -95.04 
L 371.227305 -95.04 
L 374.250564 -95.04 
L 377.273823 -95.04 
L 380.297082 -95.04 
L 383.320341 -95.04 
L 386.3436 -95.04 
L 389.366859 -95.04 
L 392.390118 -95.04 
L 395.413377 -95.04 
L 398.436636 -95.04 
L 401.459895 -95.04 
L 404.483154 -95.04 
L 407.506413 -95.04 
L 410.529672 -95.04 
L 413.552931 -95.04 
L 416.57619 -95.04 
L 419.599449 -95.04 
L 422.622708 -95.04 
L 425.645967 -95.04 
L 428.669226 -95.04 
L 431.692485 -95.04 
L 434.715744 -95.04 
L 437.739003 -95.04 
L 440.762262 -95.04 
L 443.785521 -95.04 
L 446.80878 -95.04 
L 449.832039 -95.04 
L 452.855298 -95.04 
L 455.878557 -95.04 
L 458.901816 -95.04 
L 461.925075 -95.04 
L 464.948334 -95.04 
L 467.971593 -95.04 
L 470.994852 -95.04 
L 474.018111 -95.04 
L 477.04137 -95.04 
L 480.064629 -95.04 
L 483.087888 -95.04 
L 486.111147 -95.04 
L 489.134406 -95.04 
L 492.157665 -95.04 
L 495.180924 -95.04 
L 498.204183 -95.04 
L 501.227442 -95.04 
L 504.250701 -95.04 
L 507.27396 -95.04 
L 510.297219 -95.04 
L 513.320478 -95.04 
L 516.343737 -95.04 
L 519.366996 -95.04 
L 522.390255 -95.04 
L 525.413514 -95.04 
L 528.436773 -95.04 
L 531.460032 -95.04 
L 534.483291 -95.04 
L 537.50655 -95.04 
L 540.529809 -95.04 
L 543.553068 -95.04 
L 546.576327 -95.04 
L 549.599586 -95.04 
L 552.622845 -95.04 
L 555.646104 -95.04 
L 558.669363 -95.04 
L 561.692622 -95.04 
L 564.71588 -95.04 
L 567.739139 -95.04 
L 570.762398 -95.04 
L 573.785657 -95.04 
L 576.808916 -95.04 
L 579.832175 -95.04 
L 582.855434 -95.04 
L 585.878693 -95.04 
L 588.901952 -95.04 
L 591.925211 -95.04 
L 594.94847 -95.04 
L 597.971729 -95.04 
L 600.994988 -95.04 
L 604.018247 -95.04 
L 607.041506 -95.04 
L 610.064765 -95.04 
L 613.088024 -95.04 
L 616.111283 -95.04 
L 619.134542 -95.04 
L 622.157801 -95.04 
L 625.18106 -95.04 
L 628.204319 -95.04 
L 631.227578 -95.04 
L 634.250837 -95.04 
L 637.274096 -95.04 
L 640.297355 -95.04 
L 643.320614 -95.04 
L 646.343873 -95.04 
L 649.367132 -95.04 
L 652.390391 -95.04 
L 655.41365 -95.04 
L 658.436909 -95.04 
L 661.460168 -95.04 
L 664.483427 -95.04 
L 667.506686 -95.04 
L 670.529945 -95.04 
L 673.553204 -95.04 
L 676.576463 -95.04 
L 679.599722 -95.04 
L 682.622981 -95.04 
L 685.64624 -95.04 
L 688.669499 -95.04 
L 691.692758 -95.04 
L 694.716017 -95.04 
L 697.739276 -95.04 
L 700.762535 -95.04 
L 703.785794 -95.04 
L 706.809053 -95.04 
L 709.832312 -95.04 
L 712.855571 -95.04 
L 715.87883 -95.04 
L 718.902089 -95.04 
L 721.925348 -95.04 
L 724.948607 -95.04 
L 727.971866 -95.04 
L 730.995125 -95.04 
L 734.018384 -95.04 
L 737.041643 -95.04 
L 740.064902 -95.04 
L 740.064902 -95.118086 
L 740.064902 -95.118086 
L 737.041643 -97.291109 
L 734.018384 -102.182344 
L 730.995125 -97.902514 
L 727.971866 -95.906825 
L 724.948607 -96.085536 
L 721.925348 -96.530727 
L 718.902089 -97.024523 
L 715.87883 -97.54911 
L 712.855571 -98.029448 
L 709.832312 -98.69783 
L 706.809053 -99.123464 
L 703.785794 -99.383312 
L 700.762535 -99.686525 
L 697.739276 -100.479515 
L 694.716017 -101.636552 
L 691.692758 -102.922825 
L 688.669499 -103.442077 
L 685.64624 -103.767116 
L 682.622981 -104.598133 
L 679.599722 -105.357043 
L 676.576463 -106.386978 
L 673.553204 -107.579071 
L 670.529945 -109.234042 
L 667.506686 -110.324465 
L 664.483427 -111.614942 
L 661.460168 -112.788589 
L 658.436909 -114.371707 
L 655.41365 -115.973606 
L 652.390391 -116.585827 
L 649.367132 -117.629727 
L 646.343873 -118.847028 
L 643.320614 -120.041895 
L 640.297355 -121.279374 
L 637.274096 -121.913264 
L 634.250837 -123.146296 
L 631.227578 -124.521881 
L 628.204319 -125.724498 
L 625.18106 -126.679896 
L 622.157801 -127.427879 
L 619.134542 -128.799327 
L 616.111283 -129.545056 
L 613.088024 -129.243995 
L 610.064765 -128.706845 
L 607.041506 -128.626035 
L 604.018247 -128.436163 
L 600.994988 -129.020561 
L 597.971729 -130.666874 
L 594.94847 -131.906745 
L 591.925211 -132.221687 
L 588.901952 -131.705844 
L 585.878693 -131.599408 
L 582.855434 -131.022347 
L 579.832175 -131.439935 
L 576.808916 -132.702506 
L 573.785657 -133.00364 
L 570.762398 -134.13308 
L 567.739139 -134.61701 
L 564.71588 -135.27281 
L 561.692622 -137.00345 
L 558.669363 -139.09871 
L 555.646104 -140.697769 
L 552.622845 -141.6435 
L 549.599586 -142.507279 
L 546.576327 -143.766682 
L 543.553068 -145.733835 
L 540.529809 -147.416322 
L 537.50655 -149.017888 
L 534.483291 -151.916094 
L 531.460032 -154.861718 
L 528.436773 -157.213186 
L 525.413514 -158.507547 
L 522.390255 -160.602049 
L 519.366996 -163.716449 
L 516.343737 -164.535767 
L 513.320478 -165.939257 
L 510.297219 -168.717543 
L 507.27396 -171.022157 
L 504.250701 -173.06471 
L 501.227442 -175.481132 
L 498.204183 -179.030013 
L 495.180924 -181.135334 
L 492.157665 -183.397564 
L 489.134406 -189.960389 
L 486.111147 -198.548772 
L 483.087888 -205.746252 
L 480.064629 -212.03416 
L 477.04137 -217.793805 
L 474.018111 -227.090414 
L 470.994852 -239.63993 
L 467.971593 -254.145264 
L 464.948334 -267.881701 
L 461.925075 -284.231186 
L 458.901816 -303.266804 
L 455.878557 -323.898979 
L 452.855298 -348.971672 
L 449.832039 -375.482431 
L 446.80878 -400.643238 
L 443.785521 -426.841649 
L 440.762262 -453.69609 
L 437.739003 -478.099218 
L 434.715744 -500.550714 
L 431.692485 -521.757052 
L 428.669226 -545.452429 
L 425.645967 -566.639483 
L 422.622708 -580.594216 
L 419.599449 -596.396322 
L 416.57619 -608.354426 
L 413.552931 -619.409792 
L 410.529672 -636.944218 
L 407.506413 -650.646735 
L 404.483154 -651.938194 
L 401.459895 -652.074189 
L 398.436636 -656.554034 
L 395.413377 -669.622916 
L 392.390118 -680.958777 
L 389.366859 -691.918797 
L 386.3436 -705.921267 
L 383.320341 -711.704918 
L 380.297082 -712.613082 
L 377.273823 -712.164234 
L 374.250564 -714.829773 
L 371.227305 -718.615358 
L 368.204046 -720.264166 
L 365.180787 -724.00122 
L 362.157529 -728.64 
L 359.13427 -722.970176 
L 356.111011 -712.941352 
L 353.087752 -703.480335 
L 350.064493 -691.819581 
L 347.041234 -682.977588 
L 344.017975 -666.152353 
L 340.994716 -647.691939 
L 337.971457 -632.26111 
L 334.948198 -615.918387 
L 331.924939 -594.638185 
L 328.90168 -570.22379 
L 325.878421 -546.206206 
L 322.855162 -523.374834 
L 319.831903 -499.971601 
L 316.808644 -479.331792 
L 313.785385 -459.269185 
L 310.762126 -441.123549 
L 307.738867 -430.436231 
L 304.715608 -425.267848 
L 301.692349 -416.836942 
L 298.66909 -403.56263 
L 295.645831 -385.028395 
L 292.622572 -365.741401 
L 289.599313 -346.198393 
L 286.576054 -327.594843 
L 283.552795 -312.846565 
L 280.529536 -298.730539 
L 277.506277 -287.554765 
L 274.483018 -278.367964 
L 271.459759 -267.672703 
L 268.4365 -255.851748 
L 265.413241 -245.430804 
L 262.389982 -235.547434 
L 259.366723 -225.980107 
L 256.343464 -216.473978 
L 253.320205 -206.98791 
L 250.296946 -197.204678 
L 247.273687 -188.463135 
L 244.250428 -179.791959 
L 241.227169 -171.431927 
L 238.20391 -162.283843 
L 235.180651 -152.735855 
L 232.157392 -144.281828 
L 229.134133 -137.84596 
L 226.110874 -131.551222 
L 223.087615 -125.335856 
L 220.064356 -120.411865 
L 217.041097 -116.418367 
L 214.017838 -111.949461 
L 210.994579 -108.171608 
L 207.97132 -105.254566 
L 204.948061 -104.631018 
L 201.924802 -106.244023 
L 198.901543 -106.427781 
L 195.878284 -104.53149 
L 192.855025 -101.951853 
L 189.831766 -99.37272 
L 186.808507 -97.599044 
L 183.785248 -96.71663 
L 180.761989 -96.318953 
L 177.73873 -95.96219 
L 174.715471 -95.762174 
L 171.692212 -95.544424 
L 168.668953 -95.492916 
L 165.645694 -95.511589 
L 162.622436 -96.077114 
L 159.599177 -97.033444 
L 156.575918 -96.507124 
L 153.552659 -95.40827 
L 150.5294 -95.092606 
L 147.506141 -95.046859 
L 144.482882 -95.041142 
L 141.459623 -95.040131 
L 138.436364 -95.040003 
z
" style="stroke: #ff0000; stroke-width: 3"/>
    </defs>
    <g clip-path="url(#padbb91bc53)">
     <use xlink:href="#maf1487403f" x="0" y="864" style="fill: #ff0000; fill-opacity: 0.25; stroke: #ff0000; stroke-width: 3"/>
    </g>
   </g>
   <g id="PolyCollection_3">
    <defs>
     <path id="m6bc6e43d47" d="M 144.443938 -95.040099 
L 144.443938 -95.04 
L 147.472681 -95.04 
L 150.501423 -95.04 
L 153.530165 -95.04 
L 156.558907 -95.04 
L 159.587649 -95.04 
L 162.616392 -95.04 
L 165.645134 -95.04 
L 168.673876 -95.04 
L 171.702618 -95.04 
L 174.73136 -95.04 
L 177.760103 -95.04 
L 180.788845 -95.04 
L 183.817587 -95.04 
L 186.846329 -95.04 
L 189.875071 -95.04 
L 192.903814 -95.04 
L 195.932556 -95.04 
L 198.961298 -95.04 
L 201.99004 -95.04 
L 205.018782 -95.04 
L 208.047525 -95.04 
L 211.076267 -95.04 
L 214.105009 -95.04 
L 217.133751 -95.04 
L 220.162493 -95.04 
L 223.191236 -95.04 
L 226.219978 -95.04 
L 229.24872 -95.04 
L 232.277462 -95.04 
L 235.306204 -95.04 
L 238.334947 -95.04 
L 241.363689 -95.04 
L 244.392431 -95.04 
L 247.421173 -95.04 
L 250.449915 -95.04 
L 253.478658 -95.04 
L 256.5074 -95.04 
L 259.536142 -95.04 
L 262.564884 -95.04 
L 265.593626 -95.04 
L 268.622369 -95.04 
L 271.651111 -95.04 
L 274.679853 -95.04 
L 277.708595 -95.04 
L 280.737337 -95.04 
L 283.76608 -95.04 
L 286.794822 -95.04 
L 289.823564 -95.04 
L 292.852306 -95.04 
L 295.881048 -95.04 
L 298.909791 -95.04 
L 301.938533 -95.04 
L 304.967275 -95.04 
L 307.996017 -95.04 
L 311.024759 -95.04 
L 314.053502 -95.04 
L 317.082244 -95.04 
L 320.110986 -95.04 
L 323.139728 -95.04 
L 326.16847 -95.04 
L 329.197213 -95.04 
L 332.225955 -95.04 
L 335.254697 -95.04 
L 338.283439 -95.04 
L 341.312181 -95.04 
L 344.340924 -95.04 
L 347.369666 -95.04 
L 350.398408 -95.04 
L 353.42715 -95.04 
L 356.455892 -95.04 
L 359.484635 -95.04 
L 362.513377 -95.04 
L 365.542119 -95.04 
L 368.570861 -95.04 
L 371.599603 -95.04 
L 374.628346 -95.04 
L 377.657088 -95.04 
L 380.68583 -95.04 
L 383.714572 -95.04 
L 386.743314 -95.04 
L 389.772057 -95.04 
L 392.800799 -95.04 
L 395.829541 -95.04 
L 398.858283 -95.04 
L 401.887025 -95.04 
L 404.915768 -95.04 
L 407.94451 -95.04 
L 410.973252 -95.04 
L 414.001994 -95.04 
L 417.030736 -95.04 
L 420.059479 -95.04 
L 423.088221 -95.04 
L 426.116963 -95.04 
L 429.145705 -95.04 
L 432.174447 -95.04 
L 435.20319 -95.04 
L 438.231932 -95.04 
L 441.260674 -95.04 
L 444.289416 -95.04 
L 447.318158 -95.04 
L 450.346901 -95.04 
L 453.375643 -95.04 
L 456.404385 -95.04 
L 459.433127 -95.04 
L 462.461869 -95.04 
L 465.490612 -95.04 
L 468.519354 -95.04 
L 471.548096 -95.04 
L 474.576838 -95.04 
L 477.60558 -95.04 
L 480.634323 -95.04 
L 483.663065 -95.04 
L 486.691807 -95.04 
L 489.720549 -95.04 
L 492.749291 -95.04 
L 495.778034 -95.04 
L 498.806776 -95.04 
L 501.835518 -95.04 
L 504.86426 -95.04 
L 507.893002 -95.04 
L 510.921745 -95.04 
L 513.950487 -95.04 
L 516.979229 -95.04 
L 520.007971 -95.04 
L 523.036713 -95.04 
L 526.065456 -95.04 
L 529.094198 -95.04 
L 532.12294 -95.04 
L 535.151682 -95.04 
L 538.180424 -95.04 
L 541.209167 -95.04 
L 544.237909 -95.04 
L 547.266651 -95.04 
L 550.295393 -95.04 
L 553.324136 -95.04 
L 556.352878 -95.04 
L 559.38162 -95.04 
L 562.410362 -95.04 
L 565.439104 -95.04 
L 568.467847 -95.04 
L 571.496589 -95.04 
L 574.525331 -95.04 
L 577.554073 -95.04 
L 580.582815 -95.04 
L 583.611558 -95.04 
L 586.6403 -95.04 
L 589.669042 -95.04 
L 592.697784 -95.04 
L 595.726526 -95.04 
L 598.755269 -95.04 
L 601.784011 -95.04 
L 604.812753 -95.04 
L 607.841495 -95.04 
L 610.870237 -95.04 
L 613.89898 -95.04 
L 616.927722 -95.04 
L 619.956464 -95.04 
L 622.985206 -95.04 
L 626.013948 -95.04 
L 629.042691 -95.04 
L 632.071433 -95.04 
L 635.100175 -95.04 
L 638.128917 -95.04 
L 641.157659 -95.04 
L 644.186402 -95.04 
L 647.215144 -95.04 
L 650.243886 -95.04 
L 653.272628 -95.04 
L 656.30137 -95.04 
L 659.330113 -95.04 
L 662.358855 -95.04 
L 665.387597 -95.04 
L 668.416339 -95.04 
L 671.445081 -95.04 
L 674.473824 -95.04 
L 677.502566 -95.04 
L 680.531308 -95.04 
L 683.56005 -95.04 
L 686.588792 -95.04 
L 689.617535 -95.04 
L 692.646277 -95.04 
L 695.675019 -95.04 
L 698.703761 -95.04 
L 701.732503 -95.04 
L 704.761246 -95.04 
L 707.789988 -95.04 
L 710.81873 -95.04 
L 713.847472 -95.04 
L 716.876214 -95.04 
L 719.904957 -95.04 
L 722.933699 -95.04 
L 725.962441 -95.04 
L 728.991183 -95.04 
L 732.019925 -95.04 
L 735.048668 -95.04 
L 738.07741 -95.04 
L 741.106152 -95.04 
L 744.134894 -95.04 
L 747.163636 -95.04 
L 747.163636 -95.173192 
L 747.163636 -95.173192 
L 744.134894 -95.881435 
L 741.106152 -98.37769 
L 738.07741 -103.417865 
L 735.048668 -108.569736 
L 732.019925 -109.660329 
L 728.991183 -106.725681 
L 725.962441 -103.709488 
L 722.933699 -102.854521 
L 719.904957 -103.597185 
L 716.876214 -104.882757 
L 713.847472 -106.288762 
L 710.81873 -107.709408 
L 707.789988 -108.977102 
L 704.761246 -109.958345 
L 701.732503 -110.871744 
L 698.703761 -112.295649 
L 695.675019 -114.443127 
L 692.646277 -116.803543 
L 689.617535 -118.958079 
L 686.588792 -121.154176 
L 683.56005 -123.901058 
L 680.531308 -127.511331 
L 677.502566 -132.038943 
L 674.473824 -137.299775 
L 671.445081 -142.903759 
L 668.416339 -148.52077 
L 665.387597 -154.064711 
L 662.358855 -159.414555 
L 659.330113 -164.402835 
L 656.30137 -169.120705 
L 653.272628 -173.437572 
L 650.243886 -176.841178 
L 647.215144 -179.693467 
L 644.186402 -183.473213 
L 641.157659 -189.111283 
L 638.128917 -196.076706 
L 635.100175 -203.529228 
L 632.071433 -211.47699 
L 629.042691 -219.962823 
L 626.013948 -228.135533 
L 622.985206 -235.309474 
L 619.956464 -241.974313 
L 616.927722 -248.662328 
L 613.89898 -254.437772 
L 610.870237 -257.950564 
L 607.841495 -260.479799 
L 604.812753 -265.512847 
L 601.784011 -274.35591 
L 598.755269 -285.495092 
L 595.726526 -297.940311 
L 592.697784 -311.486654 
L 589.669042 -325.190108 
L 586.6403 -338.483701 
L 583.611558 -351.919261 
L 580.582815 -365.39136 
L 577.554073 -378.258768 
L 574.525331 -390.73715 
L 571.496589 -402.598429 
L 568.467847 -412.190825 
L 565.439104 -418.550993 
L 562.410362 -423.182472 
L 559.38162 -428.369503 
L 556.352878 -434.385875 
L 553.324136 -439.306215 
L 550.295393 -441.017253 
L 547.266651 -438.558711 
L 544.237909 -431.78521 
L 541.209167 -421.78766 
L 538.180424 -412.16767 
L 535.151682 -407.195355 
L 532.12294 -408.121134 
L 529.094198 -412.60763 
L 526.065456 -416.413439 
L 523.036713 -414.828619 
L 520.007971 -404.083779 
L 516.979229 -382.575162 
L 513.950487 -351.920798 
L 510.921745 -317.450834 
L 507.893002 -286.085602 
L 504.86426 -262.350311 
L 501.835518 -245.964884 
L 498.806776 -232.907159 
L 495.778034 -220.31288 
L 492.749291 -210.97304 
L 489.720549 -210.87327 
L 486.691807 -223.884911 
L 483.663065 -251.980442 
L 480.634323 -297.90345 
L 477.60558 -363.209178 
L 474.576838 -442.439418 
L 471.548096 -521.253329 
L 468.519354 -581.022895 
L 465.490612 -607.72079 
L 462.461869 -603.631869 
L 459.433127 -587.118886 
L 456.404385 -576.151061 
L 453.375643 -576.665862 
L 450.346901 -585.275175 
L 447.318158 -595.221883 
L 444.289416 -597.774953 
L 441.260674 -585.928111 
L 438.231932 -559.657474 
L 435.20319 -524.523351 
L 432.174447 -488.967599 
L 429.145705 -462.893392 
L 426.116963 -452.525887 
L 423.088221 -455.850617 
L 420.059479 -464.794596 
L 417.030736 -471.407518 
L 414.001994 -472.952684 
L 410.973252 -472.642522 
L 407.94451 -474.224549 
L 404.915768 -476.836226 
L 401.887025 -477.403045 
L 398.858283 -474.366044 
L 395.829541 -467.306392 
L 392.800799 -456.891255 
L 389.772057 -445.551014 
L 386.743314 -435.052542 
L 383.714572 -424.561325 
L 380.68583 -413.710472 
L 377.657088 -405.312421 
L 374.628346 -402.583218 
L 371.599603 -404.324935 
L 368.570861 -404.739354 
L 365.542119 -399.444714 
L 362.513377 -390.013243 
L 359.484635 -380.651515 
L 356.455892 -373.169383 
L 353.42715 -366.428562 
L 350.398408 -358.62038 
L 347.369666 -349.725662 
L 344.340924 -341.852125 
L 341.312181 -336.537694 
L 338.283439 -331.533393 
L 335.254697 -322.330947 
L 332.225955 -307.784078 
L 329.197213 -291.466047 
L 326.16847 -278.032063 
L 323.139728 -270.117004 
L 320.110986 -266.753797 
L 317.082244 -264.681004 
L 314.053502 -261.662677 
L 311.024759 -257.006119 
L 307.996017 -249.92736 
L 304.967275 -238.995403 
L 301.938533 -223.061534 
L 298.909791 -203.413182 
L 295.881048 -184.78932 
L 292.852306 -172.181112 
L 289.823564 -166.297315 
L 286.794822 -163.117531 
L 283.76608 -157.927817 
L 280.737337 -149.423342 
L 277.708595 -139.808918 
L 274.679853 -131.709945 
L 271.651111 -125.890008 
L 268.622369 -121.654756 
L 265.593626 -118.313553 
L 262.564884 -115.602306 
L 259.536142 -113.327472 
L 256.5074 -111.346017 
L 253.478658 -109.709114 
L 250.449915 -108.577128 
L 247.421173 -107.970203 
L 244.392431 -107.617943 
L 241.363689 -107.112855 
L 238.334947 -106.135636 
L 235.306204 -104.612709 
L 232.277462 -102.795527 
L 229.24872 -101.05634 
L 226.219978 -99.6725 
L 223.191236 -98.943581 
L 220.162493 -99.190888 
L 217.133751 -100.338534 
L 214.105009 -101.757869 
L 211.076267 -102.714833 
L 208.047525 -102.656084 
L 205.018782 -101.337895 
L 201.99004 -99.24 
L 198.961298 -97.331466 
L 195.932556 -96.159986 
L 192.903814 -95.633065 
L 189.875071 -95.523203 
L 186.846329 -95.837393 
L 183.817587 -96.792692 
L 180.788845 -98.350855 
L 177.760103 -99.657225 
L 174.73136 -99.584078 
L 171.702618 -98.177042 
L 168.673876 -96.61095 
L 165.645134 -95.674112 
L 162.616392 -95.290036 
L 159.587649 -95.14993 
L 156.558907 -95.088668 
L 153.530165 -95.057824 
L 150.501423 -95.044719 
L 147.472681 -95.040844 
L 144.443938 -95.040099 
z
" style="stroke: #008000; stroke-width: 3"/>
    </defs>
    <g clip-path="url(#padbb91bc53)">
     <use xlink:href="#m6bc6e43d47" x="0" y="864" style="fill: #008000; fill-opacity: 0.25; stroke: #008000; stroke-width: 3"/>
    </g>
   </g>
   <g id="matplotlib.axis_1">
    <g id="xtick_1">
     <g id="line2d_1">
      <defs>
       <path id="mc297aad217" d="M 0 0 
L 0 3.5 
" style="stroke: #000000; stroke-width: 0.8"/>
      </defs>
      <g>
       <use xlink:href="#mc297aad217" x="138.78474" y="768.96" style="stroke: #000000; stroke-width: 0.8"/>
      </g>
     </g>
     <g id="text_1">
      <!-- 0.0 -->
      <g transform="translate(130.833177 783.558437)scale(0.1 -0.1)">
       <defs>
        <path id="DejaVuSans-30" d="M 2034 4250 
Q 1547 4250 1301 3770 
Q 1056 3291 1056 2328 
Q 1056 1369 1301 889 
Q 1547 409 2034 409 
Q 2525 409 2770 889 
Q 3016 1369 3016 2328 
Q 3016 3291 2770 3770 
Q 2525 4250 2034 4250 
z
M 2034 4750 
Q 2819 4750 3233 4129 
Q 3647 3509 3647 2328 
Q 3647 1150 3233 529 
Q 2819 -91 2034 -91 
Q 1250 -91 836 529 
Q 422 1150 422 2328 
Q 422 3509 836 4129 
Q 1250 4750 2034 4750 
z
" transform="scale(0.015625)"/>
        <path id="DejaVuSans-2e" d="M 684 794 
L 1344 794 
L 1344 0 
L 684 0 
L 684 794 
z
" transform="scale(0.015625)"/>
       </defs>
       <use xlink:href="#DejaVuSans-30"/>
       <use xlink:href="#DejaVuSans-2e" x="63.623047"/>
       <use xlink:href="#DejaVuSans-30" x="95.410156"/>
      </g>
     </g>
    </g>
    <g id="xtick_2">
     <g id="line2d_2">
      <g>
       <use xlink:href="#mc297aad217" x="257.82282" y="768.96" style="stroke: #000000; stroke-width: 0.8"/>
      </g>
     </g>
     <g id="text_2">
      <!-- 0.2 -->
      <g transform="translate(249.871257 783.558437)scale(0.1 -0.1)">
       <defs>
        <path id="DejaVuSans-32" d="M 1228 531 
L 3431 531 
L 3431 0 
L 469 0 
L 469 531 
Q 828 903 1448 1529 
Q 2069 2156 2228 2338 
Q 2531 2678 2651 2914 
Q 2772 3150 2772 3378 
Q 2772 3750 2511 3984 
Q 2250 4219 1831 4219 
Q 1534 4219 1204 4116 
Q 875 4013 500 3803 
L 500 4441 
Q 881 4594 1212 4672 
Q 1544 4750 1819 4750 
Q 2544 4750 2975 4387 
Q 3406 4025 3406 3419 
Q 3406 3131 3298 2873 
Q 3191 2616 2906 2266 
Q 2828 2175 2409 1742 
Q 1991 1309 1228 531 
z
" transform="scale(0.015625)"/>
       </defs>
       <use xlink:href="#DejaVuSans-30"/>
       <use xlink:href="#DejaVuSans-2e" x="63.623047"/>
       <use xlink:href="#DejaVuSans-32" x="95.410156"/>
      </g>
     </g>
    </g>
    <g id="xtick_3">
     <g id="line2d_3">
      <g>
       <use xlink:href="#mc297aad217" x="376.860899" y="768.96" style="stroke: #000000; stroke-width: 0.8"/>
      </g>
     </g>
     <g id="text_3">
      <!-- 0.4 -->
      <g transform="translate(368.909337 783.558437)scale(0.1 -0.1)">
       <defs>
        <path id="DejaVuSans-34" d="M 2419 4116 
L 825 1625 
L 2419 1625 
L 2419 4116 
z
M 2253 4666 
L 3047 4666 
L 3047 1625 
L 3713 1625 
L 3713 1100 
L 3047 1100 
L 3047 0 
L 2419 0 
L 2419 1100 
L 313 1100 
L 313 1709 
L 2253 4666 
z
" transform="scale(0.015625)"/>
       </defs>
       <use xlink:href="#DejaVuSans-30"/>
       <use xlink:href="#DejaVuSans-2e" x="63.623047"/>
       <use xlink:href="#DejaVuSans-34" x="95.410156"/>
      </g>
     </g>
    </g>
    <g id="xtick_4">
     <g id="line2d_4">
      <g>
       <use xlink:href="#mc297aad217" x="495.898979" y="768.96" style="stroke: #000000; stroke-width: 0.8"/>
      </g>
     </g>
     <g id="text_4">
      <!-- 0.6 -->
      <g transform="translate(487.947417 783.558437)scale(0.1 -0.1)">
       <defs>
        <path id="DejaVuSans-36" d="M 2113 2584 
Q 1688 2584 1439 2293 
Q 1191 2003 1191 1497 
Q 1191 994 1439 701 
Q 1688 409 2113 409 
Q 2538 409 2786 701 
Q 3034 994 3034 1497 
Q 3034 2003 2786 2293 
Q 2538 2584 2113 2584 
z
M 3366 4563 
L 3366 3988 
Q 3128 4100 2886 4159 
Q 2644 4219 2406 4219 
Q 1781 4219 1451 3797 
Q 1122 3375 1075 2522 
Q 1259 2794 1537 2939 
Q 1816 3084 2150 3084 
Q 2853 3084 3261 2657 
Q 3669 2231 3669 1497 
Q 3669 778 3244 343 
Q 2819 -91 2113 -91 
Q 1303 -91 875 529 
Q 447 1150 447 2328 
Q 447 3434 972 4092 
Q 1497 4750 2381 4750 
Q 2619 4750 2861 4703 
Q 3103 4656 3366 4563 
z
" transform="scale(0.015625)"/>
       </defs>
       <use xlink:href="#DejaVuSans-30"/>
       <use xlink:href="#DejaVuSans-2e" x="63.623047"/>
       <use xlink:href="#DejaVuSans-36" x="95.410156"/>
      </g>
     </g>
    </g>
    <g id="xtick_5">
     <g id="line2d_5">
      <g>
       <use xlink:href="#mc297aad217" x="614.937059" y="768.96" style="stroke: #000000; stroke-width: 0.8"/>
      </g>
     </g>
     <g id="text_5">
      <!-- 0.8 -->
      <g transform="translate(606.985497 783.558437)scale(0.1 -0.1)">
       <defs>
        <path id="DejaVuSans-38" d="M 2034 2216 
Q 1584 2216 1326 1975 
Q 1069 1734 1069 1313 
Q 1069 891 1326 650 
Q 1584 409 2034 409 
Q 2484 409 2743 651 
Q 3003 894 3003 1313 
Q 3003 1734 2745 1975 
Q 2488 2216 2034 2216 
z
M 1403 2484 
Q 997 2584 770 2862 
Q 544 3141 544 3541 
Q 544 4100 942 4425 
Q 1341 4750 2034 4750 
Q 2731 4750 3128 4425 
Q 3525 4100 3525 3541 
Q 3525 3141 3298 2862 
Q 3072 2584 2669 2484 
Q 3125 2378 3379 2068 
Q 3634 1759 3634 1313 
Q 3634 634 3220 271 
Q 2806 -91 2034 -91 
Q 1263 -91 848 271 
Q 434 634 434 1313 
Q 434 1759 690 2068 
Q 947 2378 1403 2484 
z
M 1172 3481 
Q 1172 3119 1398 2916 
Q 1625 2713 2034 2713 
Q 2441 2713 2670 2916 
Q 2900 3119 2900 3481 
Q 2900 3844 2670 4047 
Q 2441 4250 2034 4250 
Q 1625 4250 1398 4047 
Q 1172 3844 1172 3481 
z
" transform="scale(0.015625)"/>
       </defs>
       <use xlink:href="#DejaVuSans-30"/>
       <use xlink:href="#DejaVuSans-2e" x="63.623047"/>
       <use xlink:href="#DejaVuSans-38" x="95.410156"/>
      </g>
     </g>
    </g>
    <g id="xtick_6">
     <g id="line2d_6">
      <g>
       <use xlink:href="#mc297aad217" x="733.975139" y="768.96" style="stroke: #000000; stroke-width: 0.8"/>
      </g>
     </g>
     <g id="text_6">
      <!-- 1.0 -->
      <g transform="translate(726.023576 783.558437)scale(0.1 -0.1)">
       <defs>
        <path id="DejaVuSans-31" d="M 794 531 
L 1825 531 
L 1825 4091 
L 703 3866 
L 703 4441 
L 1819 4666 
L 2450 4666 
L 2450 531 
L 3481 531 
L 3481 0 
L 794 0 
L 794 531 
z
" transform="scale(0.015625)"/>
       </defs>
       <use xlink:href="#DejaVuSans-31"/>
       <use xlink:href="#DejaVuSans-2e" x="63.623047"/>
       <use xlink:href="#DejaVuSans-30" x="95.410156"/>
      </g>
     </g>
    </g>
    <g id="text_7">
     <!-- Similarity -->
     <g transform="translate(404.97625 801.795625)scale(0.16 -0.16)">
      <defs>
       <path id="DejaVuSans-53" d="M 3425 4513 
L 3425 3897 
Q 3066 4069 2747 4153 
Q 2428 4238 2131 4238 
Q 1616 4238 1336 4038 
Q 1056 3838 1056 3469 
Q 1056 3159 1242 3001 
Q 1428 2844 1947 2747 
L 2328 2669 
Q 3034 2534 3370 2195 
Q 3706 1856 3706 1288 
Q 3706 609 3251 259 
Q 2797 -91 1919 -91 
Q 1588 -91 1214 -16 
Q 841 59 441 206 
L 441 856 
Q 825 641 1194 531 
Q 1563 422 1919 422 
Q 2459 422 2753 634 
Q 3047 847 3047 1241 
Q 3047 1584 2836 1778 
Q 2625 1972 2144 2069 
L 1759 2144 
Q 1053 2284 737 2584 
Q 422 2884 422 3419 
Q 422 4038 858 4394 
Q 1294 4750 2059 4750 
Q 2388 4750 2728 4690 
Q 3069 4631 3425 4513 
z
" transform="scale(0.015625)"/>
       <path id="DejaVuSans-69" d="M 603 3500 
L 1178 3500 
L 1178 0 
L 603 0 
L 603 3500 
z
M 603 4863 
L 1178 4863 
L 1178 4134 
L 603 4134 
L 603 4863 
z
" transform="scale(0.015625)"/>
       <path id="DejaVuSans-6d" d="M 3328 2828 
Q 3544 3216 3844 3400 
Q 4144 3584 4550 3584 
Q 5097 3584 5394 3201 
Q 5691 2819 5691 2113 
L 5691 0 
L 5113 0 
L 5113 2094 
Q 5113 2597 4934 2840 
Q 4756 3084 4391 3084 
Q 3944 3084 3684 2787 
Q 3425 2491 3425 1978 
L 3425 0 
L 2847 0 
L 2847 2094 
Q 2847 2600 2669 2842 
Q 2491 3084 2119 3084 
Q 1678 3084 1418 2786 
Q 1159 2488 1159 1978 
L 1159 0 
L 581 0 
L 581 3500 
L 1159 3500 
L 1159 2956 
Q 1356 3278 1631 3431 
Q 1906 3584 2284 3584 
Q 2666 3584 2933 3390 
Q 3200 3197 3328 2828 
z
" transform="scale(0.015625)"/>
       <path id="DejaVuSans-6c" d="M 603 4863 
L 1178 4863 
L 1178 0 
L 603 0 
L 603 4863 
z
" transform="scale(0.015625)"/>
       <path id="DejaVuSans-61" d="M 2194 1759 
Q 1497 1759 1228 1600 
Q 959 1441 959 1056 
Q 959 750 1161 570 
Q 1363 391 1709 391 
Q 2188 391 2477 730 
Q 2766 1069 2766 1631 
L 2766 1759 
L 2194 1759 
z
M 3341 1997 
L 3341 0 
L 2766 0 
L 2766 531 
Q 2569 213 2275 61 
Q 1981 -91 1556 -91 
Q 1019 -91 701 211 
Q 384 513 384 1019 
Q 384 1609 779 1909 
Q 1175 2209 1959 2209 
L 2766 2209 
L 2766 2266 
Q 2766 2663 2505 2880 
Q 2244 3097 1772 3097 
Q 1472 3097 1187 3025 
Q 903 2953 641 2809 
L 641 3341 
Q 956 3463 1253 3523 
Q 1550 3584 1831 3584 
Q 2591 3584 2966 3190 
Q 3341 2797 3341 1997 
z
" transform="scale(0.015625)"/>
       <path id="DejaVuSans-72" d="M 2631 2963 
Q 2534 3019 2420 3045 
Q 2306 3072 2169 3072 
Q 1681 3072 1420 2755 
Q 1159 2438 1159 1844 
L 1159 0 
L 581 0 
L 581 3500 
L 1159 3500 
L 1159 2956 
Q 1341 3275 1631 3429 
Q 1922 3584 2338 3584 
Q 2397 3584 2469 3576 
Q 2541 3569 2628 3553 
L 2631 2963 
z
" transform="scale(0.015625)"/>
       <path id="DejaVuSans-74" d="M 1172 4494 
L 1172 3500 
L 2356 3500 
L 2356 3053 
L 1172 3053 
L 1172 1153 
Q 1172 725 1289 603 
Q 1406 481 1766 481 
L 2356 481 
L 2356 0 
L 1766 0 
Q 1100 0 847 248 
Q 594 497 594 1153 
L 594 3053 
L 172 3053 
L 172 3500 
L 594 3500 
L 594 4494 
L 1172 4494 
z
" transform="scale(0.015625)"/>
       <path id="DejaVuSans-79" d="M 2059 -325 
Q 1816 -950 1584 -1140 
Q 1353 -1331 966 -1331 
L 506 -1331 
L 506 -850 
L 844 -850 
Q 1081 -850 1212 -737 
Q 1344 -625 1503 -206 
L 1606 56 
L 191 3500 
L 800 3500 
L 1894 763 
L 2988 3500 
L 3597 3500 
L 2059 -325 
z
" transform="scale(0.015625)"/>
      </defs>
      <use xlink:href="#DejaVuSans-53"/>
      <use xlink:href="#DejaVuSans-69" x="63.476562"/>
      <use xlink:href="#DejaVuSans-6d" x="91.259766"/>
      <use xlink:href="#DejaVuSans-69" x="188.671875"/>
      <use xlink:href="#DejaVuSans-6c" x="216.455078"/>
      <use xlink:href="#DejaVuSans-61" x="244.238281"/>
      <use xlink:href="#DejaVuSans-72" x="305.517578"/>
      <use xlink:href="#DejaVuSans-69" x="346.630859"/>
      <use xlink:href="#DejaVuSans-74" x="374.414062"/>
      <use xlink:href="#DejaVuSans-79" x="413.623047"/>
     </g>
    </g>
   </g>
   <g id="matplotlib.axis_2">
    <g id="ytick_1">
     <g id="line2d_7">
      <defs>
       <path id="mf7f9163546" d="M 0 0 
L -3.5 0 
" style="stroke: #000000; stroke-width: 0.8"/>
      </defs>
      <g>
       <use xlink:href="#mf7f9163546" x="108" y="768.96" style="stroke: #000000; stroke-width: 0.8"/>
      </g>
     </g>
     <g id="text_8">
      <!-- 0.0 -->
      <g transform="translate(85.096875 772.759219)scale(0.1 -0.1)">
       <use xlink:href="#DejaVuSans-30"/>
       <use xlink:href="#DejaVuSans-2e" x="63.623047"/>
       <use xlink:href="#DejaVuSans-30" x="95.410156"/>
      </g>
     </g>
    </g>
    <g id="ytick_2">
     <g id="line2d_8">
      <g>
       <use xlink:href="#mf7f9163546" x="108" y="683.06606" style="stroke: #000000; stroke-width: 0.8"/>
      </g>
     </g>
     <g id="text_9">
      <!-- 0.5 -->
      <g transform="translate(85.096875 686.865279)scale(0.1 -0.1)">
       <defs>
        <path id="DejaVuSans-35" d="M 691 4666 
L 3169 4666 
L 3169 4134 
L 1269 4134 
L 1269 2991 
Q 1406 3038 1543 3061 
Q 1681 3084 1819 3084 
Q 2600 3084 3056 2656 
Q 3513 2228 3513 1497 
Q 3513 744 3044 326 
Q 2575 -91 1722 -91 
Q 1428 -91 1123 -41 
Q 819 9 494 109 
L 494 744 
Q 775 591 1075 516 
Q 1375 441 1709 441 
Q 2250 441 2565 725 
Q 2881 1009 2881 1497 
Q 2881 1984 2565 2268 
Q 2250 2553 1709 2553 
Q 1456 2553 1204 2497 
Q 953 2441 691 2322 
L 691 4666 
z
" transform="scale(0.015625)"/>
       </defs>
       <use xlink:href="#DejaVuSans-30"/>
       <use xlink:href="#DejaVuSans-2e" x="63.623047"/>
       <use xlink:href="#DejaVuSans-35" x="95.410156"/>
      </g>
     </g>
    </g>
    <g id="ytick_3">
     <g id="line2d_9">
      <g>
       <use xlink:href="#mf7f9163546" x="108" y="597.17212" style="stroke: #000000; stroke-width: 0.8"/>
      </g>
     </g>
     <g id="text_10">
      <!-- 1.0 -->
      <g transform="translate(85.096875 600.971339)scale(0.1 -0.1)">
       <use xlink:href="#DejaVuSans-31"/>
       <use xlink:href="#DejaVuSans-2e" x="63.623047"/>
       <use xlink:href="#DejaVuSans-30" x="95.410156"/>
      </g>
     </g>
    </g>
    <g id="ytick_4">
     <g id="line2d_10">
      <g>
       <use xlink:href="#mf7f9163546" x="108" y="511.27818" style="stroke: #000000; stroke-width: 0.8"/>
      </g>
     </g>
     <g id="text_11">
      <!-- 1.5 -->
      <g transform="translate(85.096875 515.077399)scale(0.1 -0.1)">
       <use xlink:href="#DejaVuSans-31"/>
       <use xlink:href="#DejaVuSans-2e" x="63.623047"/>
       <use xlink:href="#DejaVuSans-35" x="95.410156"/>
      </g>
     </g>
    </g>
    <g id="ytick_5">
     <g id="line2d_11">
      <g>
       <use xlink:href="#mf7f9163546" x="108" y="425.38424" style="stroke: #000000; stroke-width: 0.8"/>
      </g>
     </g>
     <g id="text_12">
      <!-- 2.0 -->
      <g transform="translate(85.096875 429.183459)scale(0.1 -0.1)">
       <use xlink:href="#DejaVuSans-32"/>
       <use xlink:href="#DejaVuSans-2e" x="63.623047"/>
       <use xlink:href="#DejaVuSans-30" x="95.410156"/>
      </g>
     </g>
    </g>
    <g id="ytick_6">
     <g id="line2d_12">
      <g>
       <use xlink:href="#mf7f9163546" x="108" y="339.4903" style="stroke: #000000; stroke-width: 0.8"/>
      </g>
     </g>
     <g id="text_13">
      <!-- 2.5 -->
      <g transform="translate(85.096875 343.289519)scale(0.1 -0.1)">
       <use xlink:href="#DejaVuSans-32"/>
       <use xlink:href="#DejaVuSans-2e" x="63.623047"/>
       <use xlink:href="#DejaVuSans-35" x="95.410156"/>
      </g>
     </g>
    </g>
    <g id="ytick_7">
     <g id="line2d_13">
      <g>
       <use xlink:href="#mf7f9163546" x="108" y="253.59636" style="stroke: #000000; stroke-width: 0.8"/>
      </g>
     </g>
     <g id="text_14">
      <!-- 3.0 -->
      <g transform="translate(85.096875 257.395579)scale(0.1 -0.1)">
       <defs>
        <path id="DejaVuSans-33" d="M 2597 2516 
Q 3050 2419 3304 2112 
Q 3559 1806 3559 1356 
Q 3559 666 3084 287 
Q 2609 -91 1734 -91 
Q 1441 -91 1130 -33 
Q 819 25 488 141 
L 488 750 
Q 750 597 1062 519 
Q 1375 441 1716 441 
Q 2309 441 2620 675 
Q 2931 909 2931 1356 
Q 2931 1769 2642 2001 
Q 2353 2234 1838 2234 
L 1294 2234 
L 1294 2753 
L 1863 2753 
Q 2328 2753 2575 2939 
Q 2822 3125 2822 3475 
Q 2822 3834 2567 4026 
Q 2313 4219 1838 4219 
Q 1578 4219 1281 4162 
Q 984 4106 628 3988 
L 628 4550 
Q 988 4650 1302 4700 
Q 1616 4750 1894 4750 
Q 2613 4750 3031 4423 
Q 3450 4097 3450 3541 
Q 3450 3153 3228 2886 
Q 3006 2619 2597 2516 
z
" transform="scale(0.015625)"/>
       </defs>
       <use xlink:href="#DejaVuSans-33"/>
       <use xlink:href="#DejaVuSans-2e" x="63.623047"/>
       <use xlink:href="#DejaVuSans-30" x="95.410156"/>
      </g>
     </g>
    </g>
    <g id="ytick_8">
     <g id="line2d_14">
      <g>
       <use xlink:href="#mf7f9163546" x="108" y="167.70242" style="stroke: #000000; stroke-width: 0.8"/>
      </g>
     </g>
     <g id="text_15">
      <!-- 3.5 -->
      <g transform="translate(85.096875 171.501639)scale(0.1 -0.1)">
       <use xlink:href="#DejaVuSans-33"/>
       <use xlink:href="#DejaVuSans-2e" x="63.623047"/>
       <use xlink:href="#DejaVuSans-35" x="95.410156"/>
      </g>
     </g>
    </g>
    <g id="text_16">
     <!-- Density -->
     <g transform="translate(77.769375 466.73375)rotate(-90)scale(0.16 -0.16)">
      <defs>
       <path id="DejaVuSans-44" d="M 1259 4147 
L 1259 519 
L 2022 519 
Q 2988 519 3436 956 
Q 3884 1394 3884 2338 
Q 3884 3275 3436 3711 
Q 2988 4147 2022 4147 
L 1259 4147 
z
M 628 4666 
L 1925 4666 
Q 3281 4666 3915 4102 
Q 4550 3538 4550 2338 
Q 4550 1131 3912 565 
Q 3275 0 1925 0 
L 628 0 
L 628 4666 
z
" transform="scale(0.015625)"/>
       <path id="DejaVuSans-65" d="M 3597 1894 
L 3597 1613 
L 953 1613 
Q 991 1019 1311 708 
Q 1631 397 2203 397 
Q 2534 397 2845 478 
Q 3156 559 3463 722 
L 3463 178 
Q 3153 47 2828 -22 
Q 2503 -91 2169 -91 
Q 1331 -91 842 396 
Q 353 884 353 1716 
Q 353 2575 817 3079 
Q 1281 3584 2069 3584 
Q 2775 3584 3186 3129 
Q 3597 2675 3597 1894 
z
M 3022 2063 
Q 3016 2534 2758 2815 
Q 2500 3097 2075 3097 
Q 1594 3097 1305 2825 
Q 1016 2553 972 2059 
L 3022 2063 
z
" transform="scale(0.015625)"/>
       <path id="DejaVuSans-6e" d="M 3513 2113 
L 3513 0 
L 2938 0 
L 2938 2094 
Q 2938 2591 2744 2837 
Q 2550 3084 2163 3084 
Q 1697 3084 1428 2787 
Q 1159 2491 1159 1978 
L 1159 0 
L 581 0 
L 581 3500 
L 1159 3500 
L 1159 2956 
Q 1366 3272 1645 3428 
Q 1925 3584 2291 3584 
Q 2894 3584 3203 3211 
Q 3513 2838 3513 2113 
z
" transform="scale(0.015625)"/>
       <path id="DejaVuSans-73" d="M 2834 3397 
L 2834 2853 
Q 2591 2978 2328 3040 
Q 2066 3103 1784 3103 
Q 1356 3103 1142 2972 
Q 928 2841 928 2578 
Q 928 2378 1081 2264 
Q 1234 2150 1697 2047 
L 1894 2003 
Q 2506 1872 2764 1633 
Q 3022 1394 3022 966 
Q 3022 478 2636 193 
Q 2250 -91 1575 -91 
Q 1294 -91 989 -36 
Q 684 19 347 128 
L 347 722 
Q 666 556 975 473 
Q 1284 391 1588 391 
Q 1994 391 2212 530 
Q 2431 669 2431 922 
Q 2431 1156 2273 1281 
Q 2116 1406 1581 1522 
L 1381 1569 
Q 847 1681 609 1914 
Q 372 2147 372 2553 
Q 372 3047 722 3315 
Q 1072 3584 1716 3584 
Q 2034 3584 2315 3537 
Q 2597 3491 2834 3397 
z
" transform="scale(0.015625)"/>
      </defs>
      <use xlink:href="#DejaVuSans-44"/>
      <use xlink:href="#DejaVuSans-65" x="77.001953"/>
      <use xlink:href="#DejaVuSans-6e" x="138.525391"/>
      <use xlink:href="#DejaVuSans-73" x="201.904297"/>
      <use xlink:href="#DejaVuSans-69" x="254.003906"/>
      <use xlink:href="#DejaVuSans-74" x="281.787109"/>
      <use xlink:href="#DejaVuSans-79" x="320.996094"/>
     </g>
    </g>
   </g>
   <g id="patch_3">
    <path d="M 108 768.96 
L 108 103.68 
" style="fill: none; stroke: #000000; stroke-width: 0.8; stroke-linejoin: miter; stroke-linecap: square"/>
   </g>
   <g id="patch_4">
    <path d="M 777.6 768.96 
L 777.6 103.68 
" style="fill: none; stroke: #000000; stroke-width: 0.8; stroke-linejoin: miter; stroke-linecap: square"/>
   </g>
   <g id="patch_5">
    <path d="M 108 768.96 
L 777.6 768.96 
" style="fill: none; stroke: #000000; stroke-width: 0.8; stroke-linejoin: miter; stroke-linecap: square"/>
   </g>
   <g id="patch_6">
    <path d="M 108 103.68 
L 777.6 103.68 
" style="fill: none; stroke: #000000; stroke-width: 0.8; stroke-linejoin: miter; stroke-linecap: square"/>
   </g>
   <g id="legend_1">
    <g id="patch_7">
     <path d="M 484.15 186.935 
L 766.4 186.935 
Q 769.6 186.935 769.6 183.735 
L 769.6 114.88 
Q 769.6 111.68 766.4 111.68 
L 484.15 111.68 
Q 480.95 111.68 480.95 114.88 
L 480.95 183.735 
Q 480.95 186.935 484.15 186.935 
z
" style="fill: #ffffff; opacity: 0.8; stroke: #cccccc; stroke-linejoin: miter"/>
    </g>
    <g id="patch_8">
     <path d="M 487.35 130.2375 
L 519.35 130.2375 
L 519.35 119.0375 
L 487.35 119.0375 
z
" style="fill: #0000ff; fill-opacity: 0.25; stroke: #0000ff; stroke-width: 3; stroke-linejoin: miter"/>
    </g>
    <g id="text_17">
     <!-- Training vs Test set similarity -->
     <g transform="translate(532.15 130.2375)scale(0.16 -0.16)">
      <defs>
       <path id="DejaVuSans-54" d="M -19 4666 
L 3928 4666 
L 3928 4134 
L 2272 4134 
L 2272 0 
L 1638 0 
L 1638 4134 
L -19 4134 
L -19 4666 
z
" transform="scale(0.015625)"/>
       <path id="DejaVuSans-67" d="M 2906 1791 
Q 2906 2416 2648 2759 
Q 2391 3103 1925 3103 
Q 1463 3103 1205 2759 
Q 947 2416 947 1791 
Q 947 1169 1205 825 
Q 1463 481 1925 481 
Q 2391 481 2648 825 
Q 2906 1169 2906 1791 
z
M 3481 434 
Q 3481 -459 3084 -895 
Q 2688 -1331 1869 -1331 
Q 1566 -1331 1297 -1286 
Q 1028 -1241 775 -1147 
L 775 -588 
Q 1028 -725 1275 -790 
Q 1522 -856 1778 -856 
Q 2344 -856 2625 -561 
Q 2906 -266 2906 331 
L 2906 616 
Q 2728 306 2450 153 
Q 2172 0 1784 0 
Q 1141 0 747 490 
Q 353 981 353 1791 
Q 353 2603 747 3093 
Q 1141 3584 1784 3584 
Q 2172 3584 2450 3431 
Q 2728 3278 2906 2969 
L 2906 3500 
L 3481 3500 
L 3481 434 
z
" transform="scale(0.015625)"/>
       <path id="DejaVuSans-20" transform="scale(0.015625)"/>
       <path id="DejaVuSans-76" d="M 191 3500 
L 800 3500 
L 1894 563 
L 2988 3500 
L 3597 3500 
L 2284 0 
L 1503 0 
L 191 3500 
z
" transform="scale(0.015625)"/>
      </defs>
      <use xlink:href="#DejaVuSans-54"/>
      <use xlink:href="#DejaVuSans-72" x="46.333984"/>
      <use xlink:href="#DejaVuSans-61" x="87.447266"/>
      <use xlink:href="#DejaVuSans-69" x="148.726562"/>
      <use xlink:href="#DejaVuSans-6e" x="176.509766"/>
      <use xlink:href="#DejaVuSans-69" x="239.888672"/>
      <use xlink:href="#DejaVuSans-6e" x="267.671875"/>
      <use xlink:href="#DejaVuSans-67" x="331.050781"/>
      <use xlink:href="#DejaVuSans-20" x="394.527344"/>
      <use xlink:href="#DejaVuSans-76" x="426.314453"/>
      <use xlink:href="#DejaVuSans-73" x="485.494141"/>
      <use xlink:href="#DejaVuSans-20" x="537.59375"/>
      <use xlink:href="#DejaVuSans-54" x="569.380859"/>
      <use xlink:href="#DejaVuSans-65" x="613.464844"/>
      <use xlink:href="#DejaVuSans-73" x="674.988281"/>
      <use xlink:href="#DejaVuSans-74" x="727.087891"/>
      <use xlink:href="#DejaVuSans-20" x="766.296875"/>
      <use xlink:href="#DejaVuSans-73" x="798.083984"/>
      <use xlink:href="#DejaVuSans-65" x="850.183594"/>
      <use xlink:href="#DejaVuSans-74" x="911.707031"/>
      <use xlink:href="#DejaVuSans-20" x="950.916016"/>
      <use xlink:href="#DejaVuSans-73" x="982.703125"/>
      <use xlink:href="#DejaVuSans-69" x="1034.802734"/>
      <use xlink:href="#DejaVuSans-6d" x="1062.585938"/>
      <use xlink:href="#DejaVuSans-69" x="1159.998047"/>
      <use xlink:href="#DejaVuSans-6c" x="1187.78125"/>
      <use xlink:href="#DejaVuSans-61" x="1215.564453"/>
      <use xlink:href="#DejaVuSans-72" x="1276.84375"/>
      <use xlink:href="#DejaVuSans-69" x="1317.957031"/>
      <use xlink:href="#DejaVuSans-74" x="1345.740234"/>
      <use xlink:href="#DejaVuSans-79" x="1384.949219"/>
     </g>
    </g>
    <g id="patch_9">
     <path d="M 487.35 153.7225 
L 519.35 153.7225 
L 519.35 142.5225 
L 487.35 142.5225 
z
" style="fill: #ff0000; fill-opacity: 0.25; stroke: #ff0000; stroke-width: 3; stroke-linejoin: miter"/>
    </g>
    <g id="text_18">
     <!-- Training set inner similarity -->
     <g transform="translate(532.15 153.7225)scale(0.16 -0.16)">
      <use xlink:href="#DejaVuSans-54"/>
      <use xlink:href="#DejaVuSans-72" x="46.333984"/>
      <use xlink:href="#DejaVuSans-61" x="87.447266"/>
      <use xlink:href="#DejaVuSans-69" x="148.726562"/>
      <use xlink:href="#DejaVuSans-6e" x="176.509766"/>
      <use xlink:href="#DejaVuSans-69" x="239.888672"/>
      <use xlink:href="#DejaVuSans-6e" x="267.671875"/>
      <use xlink:href="#DejaVuSans-67" x="331.050781"/>
      <use xlink:href="#DejaVuSans-20" x="394.527344"/>
      <use xlink:href="#DejaVuSans-73" x="426.314453"/>
      <use xlink:href="#DejaVuSans-65" x="478.414062"/>
      <use xlink:href="#DejaVuSans-74" x="539.9375"/>
      <use xlink:href="#DejaVuSans-20" x="579.146484"/>
      <use xlink:href="#DejaVuSans-69" x="610.933594"/>
      <use xlink:href="#DejaVuSans-6e" x="638.716797"/>
      <use xlink:href="#DejaVuSans-6e" x="702.095703"/>
      <use xlink:href="#DejaVuSans-65" x="765.474609"/>
      <use xlink:href="#DejaVuSans-72" x="826.998047"/>
      <use xlink:href="#DejaVuSans-20" x="868.111328"/>
      <use xlink:href="#DejaVuSans-73" x="899.898438"/>
      <use xlink:href="#DejaVuSans-69" x="951.998047"/>
      <use xlink:href="#DejaVuSans-6d" x="979.78125"/>
      <use xlink:href="#DejaVuSans-69" x="1077.193359"/>
      <use xlink:href="#DejaVuSans-6c" x="1104.976562"/>
      <use xlink:href="#DejaVuSans-61" x="1132.759766"/>
      <use xlink:href="#DejaVuSans-72" x="1194.039062"/>
      <use xlink:href="#DejaVuSans-69" x="1235.152344"/>
      <use xlink:href="#DejaVuSans-74" x="1262.935547"/>
      <use xlink:href="#DejaVuSans-79" x="1302.144531"/>
     </g>
    </g>
    <g id="patch_10">
     <path d="M 487.35 177.2075 
L 519.35 177.2075 
L 519.35 166.0075 
L 487.35 166.0075 
z
" style="fill: #008000; fill-opacity: 0.25; stroke: #008000; stroke-width: 3; stroke-linejoin: miter"/>
    </g>
    <g id="text_19">
     <!-- Test set inner similarity -->
     <g transform="translate(532.15 177.2075)scale(0.16 -0.16)">
      <use xlink:href="#DejaVuSans-54"/>
      <use xlink:href="#DejaVuSans-65" x="44.083984"/>
      <use xlink:href="#DejaVuSans-73" x="105.607422"/>
      <use xlink:href="#DejaVuSans-74" x="157.707031"/>
      <use xlink:href="#DejaVuSans-20" x="196.916016"/>
      <use xlink:href="#DejaVuSans-73" x="228.703125"/>
      <use xlink:href="#DejaVuSans-65" x="280.802734"/>
      <use xlink:href="#DejaVuSans-74" x="342.326172"/>
      <use xlink:href="#DejaVuSans-20" x="381.535156"/>
      <use xlink:href="#DejaVuSans-69" x="413.322266"/>
      <use xlink:href="#DejaVuSans-6e" x="441.105469"/>
      <use xlink:href="#DejaVuSans-6e" x="504.484375"/>
      <use xlink:href="#DejaVuSans-65" x="567.863281"/>
      <use xlink:href="#DejaVuSans-72" x="629.386719"/>
      <use xlink:href="#DejaVuSans-20" x="670.5"/>
      <use xlink:href="#DejaVuSans-73" x="702.287109"/>
      <use xlink:href="#DejaVuSans-69" x="754.386719"/>
      <use xlink:href="#DejaVuSans-6d" x="782.169922"/>
      <use xlink:href="#DejaVuSans-69" x="879.582031"/>
      <use xlink:href="#DejaVuSans-6c" x="907.365234"/>
      <use xlink:href="#DejaVuSans-61" x="935.148438"/>
      <use xlink:href="#DejaVuSans-72" x="996.427734"/>
      <use xlink:href="#DejaVuSans-69" x="1037.541016"/>
      <use xlink:href="#DejaVuSans-74" x="1065.324219"/>
      <use xlink:href="#DejaVuSans-79" x="1104.533203"/>
     </g>
    </g>
   </g>
  </g>
 </g>
 <defs>
  <clipPath id="padbb91bc53">
   <rect x="108" y="103.68" width="669.6" height="665.28"/>
  </clipPath>
 </defs>
</svg>
