<?xml version="1.0" encoding="utf-8" standalone="no"?>
<!DOCTYPE svg PUBLIC "-//W3C//DTD SVG 1.1//EN"
  "http://www.w3.org/Graphics/SVG/1.1/DTD/svg11.dtd">
<svg xmlns:xlink="http://www.w3.org/1999/xlink" width="864pt" height="864pt" viewBox="0 0 864 864" xmlns="http://www.w3.org/2000/svg" version="1.1">
 <metadata>
  <rdf:RDF xmlns:dc="http://purl.org/dc/elements/1.1/" xmlns:cc="http://creativecommons.org/ns#" xmlns:rdf="http://www.w3.org/1999/02/22-rdf-syntax-ns#">
   <cc:Work>
    <dc:type rdf:resource="http://purl.org/dc/dcmitype/StillImage"/>
    <dc:date>2022-02-07T12:08:55.054323</dc:date>
    <dc:format>image/svg+xml</dc:format>
    <dc:creator>
     <cc:Agent>
      <dc:title>Matplotlib v3.5.1, https://matplotlib.org/</dc:title>
     </cc:Agent>
    </dc:creator>
   </cc:Work>
  </rdf:RDF>
 </metadata>
 <defs>
  <style type="text/css">*{stroke-linejoin: round; stroke-linecap: butt}</style>
 </defs>
 <g id="figure_1">
  <g id="patch_1">
   <path d="M 0 864 
L 864 864 
L 864 0 
L 0 0 
z
" style="fill: #ffffff"/>
  </g>
  <g id="axes_1">
   <g id="patch_2">
    <path d="M 108 768.96 
L 777.6 768.96 
L 777.6 103.68 
L 108 103.68 
z
" style="fill: #ffffff"/>
   </g>
   <g id="PolyCollection_1">
    <defs>
     <path id="m9eca7aed22" d="M 138.436364 -95.040005 
L 138.436364 -95.04 
L 141.476726 -95.04 
L 144.517088 -95.04 
L 147.557451 -95.04 
L 150.597813 -95.04 
L 153.638176 -95.04 
L 156.678538 -95.04 
L 159.718901 -95.04 
L 162.759263 -95.04 
L 165.799625 -95.04 
L 168.839988 -95.04 
L 171.88035 -95.04 
L 174.920713 -95.04 
L 177.961075 -95.04 
L 181.001438 -95.04 
L 184.0418 -95.04 
L 187.082162 -95.04 
L 190.122525 -95.04 
L 193.162887 -95.04 
L 196.20325 -95.04 
L 199.243612 -95.04 
L 202.283974 -95.04 
L 205.324337 -95.04 
L 208.364699 -95.04 
L 211.405062 -95.04 
L 214.445424 -95.04 
L 217.485787 -95.04 
L 220.526149 -95.04 
L 223.566511 -95.04 
L 226.606874 -95.04 
L 229.647236 -95.04 
L 232.687599 -95.04 
L 235.727961 -95.04 
L 238.768323 -95.04 
L 241.808686 -95.04 
L 244.849048 -95.04 
L 247.889411 -95.04 
L 250.929773 -95.04 
L 253.970136 -95.04 
L 257.010498 -95.04 
L 260.05086 -95.04 
L 263.091223 -95.04 
L 266.131585 -95.04 
L 269.171948 -95.04 
L 272.21231 -95.04 
L 275.252673 -95.04 
L 278.293035 -95.04 
L 281.333397 -95.04 
L 284.37376 -95.04 
L 287.414122 -95.04 
L 290.454485 -95.04 
L 293.494847 -95.04 
L 296.535209 -95.04 
L 299.575572 -95.04 
L 302.615934 -95.04 
L 305.656297 -95.04 
L 308.696659 -95.04 
L 311.737022 -95.04 
L 314.777384 -95.04 
L 317.817746 -95.04 
L 320.858109 -95.04 
L 323.898471 -95.04 
L 326.938834 -95.04 
L 329.979196 -95.04 
L 333.019558 -95.04 
L 336.059921 -95.04 
L 339.100283 -95.04 
L 342.140646 -95.04 
L 345.181008 -95.04 
L 348.221371 -95.04 
L 351.261733 -95.04 
L 354.302095 -95.04 
L 357.342458 -95.04 
L 360.38282 -95.04 
L 363.423183 -95.04 
L 366.463545 -95.04 
L 369.503908 -95.04 
L 372.54427 -95.04 
L 375.584632 -95.04 
L 378.624995 -95.04 
L 381.665357 -95.04 
L 384.70572 -95.04 
L 387.746082 -95.04 
L 390.786444 -95.04 
L 393.826807 -95.04 
L 396.867169 -95.04 
L 399.907532 -95.04 
L 402.947894 -95.04 
L 405.988257 -95.04 
L 409.028619 -95.04 
L 412.068981 -95.04 
L 415.109344 -95.04 
L 418.149706 -95.04 
L 421.190069 -95.04 
L 424.230431 -95.04 
L 427.270794 -95.04 
L 430.311156 -95.04 
L 433.351518 -95.04 
L 436.391881 -95.04 
L 439.432243 -95.04 
L 442.472606 -95.04 
L 445.512968 -95.04 
L 448.55333 -95.04 
L 451.593693 -95.04 
L 454.634055 -95.04 
L 457.674418 -95.04 
L 460.71478 -95.04 
L 463.755143 -95.04 
L 466.795505 -95.04 
L 469.835867 -95.04 
L 472.87623 -95.04 
L 475.916592 -95.04 
L 478.956955 -95.04 
L 481.997317 -95.04 
L 485.037679 -95.04 
L 488.078042 -95.04 
L 491.118404 -95.04 
L 494.158767 -95.04 
L 497.199129 -95.04 
L 500.239492 -95.04 
L 503.279854 -95.04 
L 506.320216 -95.04 
L 509.360579 -95.04 
L 512.400941 -95.04 
L 515.441304 -95.04 
L 518.481666 -95.04 
L 521.522029 -95.04 
L 524.562391 -95.04 
L 527.602753 -95.04 
L 530.643116 -95.04 
L 533.683478 -95.04 
L 536.723841 -95.04 
L 539.764203 -95.04 
L 542.804565 -95.04 
L 545.844928 -95.04 
L 548.88529 -95.04 
L 551.925653 -95.04 
L 554.966015 -95.04 
L 558.006378 -95.04 
L 561.04674 -95.04 
L 564.087102 -95.04 
L 567.127465 -95.04 
L 570.167827 -95.04 
L 573.20819 -95.04 
L 576.248552 -95.04 
L 579.288914 -95.04 
L 582.329277 -95.04 
L 585.369639 -95.04 
L 588.410002 -95.04 
L 591.450364 -95.04 
L 594.490727 -95.04 
L 597.531089 -95.04 
L 600.571451 -95.04 
L 603.611814 -95.04 
L 606.652176 -95.04 
L 609.692539 -95.04 
L 612.732901 -95.04 
L 615.773264 -95.04 
L 618.813626 -95.04 
L 621.853988 -95.04 
L 624.894351 -95.04 
L 627.934713 -95.04 
L 630.975076 -95.04 
L 634.015438 -95.04 
L 637.0558 -95.04 
L 640.096163 -95.04 
L 643.136525 -95.04 
L 646.176888 -95.04 
L 649.21725 -95.04 
L 652.257613 -95.04 
L 655.297975 -95.04 
L 658.338337 -95.04 
L 661.3787 -95.04 
L 664.419062 -95.04 
L 667.459425 -95.04 
L 670.499787 -95.04 
L 673.54015 -95.04 
L 676.580512 -95.04 
L 679.620874 -95.04 
L 682.661237 -95.04 
L 685.701599 -95.04 
L 688.741962 -95.04 
L 691.782324 -95.04 
L 694.822686 -95.04 
L 697.863049 -95.04 
L 700.903411 -95.04 
L 703.943774 -95.04 
L 706.984136 -95.04 
L 710.024499 -95.04 
L 713.064861 -95.04 
L 716.105223 -95.04 
L 719.145586 -95.04 
L 722.185948 -95.04 
L 725.226311 -95.04 
L 728.266673 -95.04 
L 731.307035 -95.04 
L 734.347398 -95.04 
L 737.38776 -95.04 
L 740.428123 -95.04 
L 743.468485 -95.04 
L 743.468485 -95.09963 
L 743.468485 -95.09963 
L 740.428123 -96.216361 
L 737.38776 -99.918944 
L 734.347398 -99.587339 
L 731.307035 -96.660072 
L 728.266673 -96.257285 
L 725.226311 -96.617317 
L 722.185948 -97.094136 
L 719.145586 -97.613517 
L 716.105223 -98.142831 
L 713.064861 -98.780838 
L 710.024499 -99.256759 
L 706.984136 -99.441964 
L 703.943774 -99.573552 
L 700.903411 -100.23329 
L 697.863049 -101.400375 
L 694.822686 -102.718315 
L 691.782324 -103.567512 
L 688.741962 -103.99483 
L 685.701599 -104.694076 
L 682.661237 -105.63883 
L 679.620874 -106.639587 
L 676.580512 -107.796746 
L 673.54015 -109.538358 
L 670.499787 -111.145931 
L 667.459425 -112.578476 
L 664.419062 -114.07649 
L 661.3787 -115.835841 
L 658.338337 -117.49276 
L 655.297975 -118.467317 
L 652.257613 -119.520285 
L 649.21725 -120.551459 
L 646.176888 -121.856002 
L 643.136525 -123.36167 
L 640.096163 -124.388262 
L 637.0558 -125.583263 
L 634.015438 -127.48818 
L 630.975076 -129.776158 
L 627.934713 -131.492182 
L 624.894351 -132.887751 
L 621.853988 -134.427366 
L 618.813626 -136.033793 
L 615.773264 -136.877003 
L 612.732901 -136.815335 
L 609.692539 -136.766848 
L 606.652176 -137.222574 
L 603.611814 -138.608427 
L 600.571451 -140.659256 
L 597.531089 -142.703597 
L 594.490727 -144.485729 
L 591.450364 -145.811275 
L 588.410002 -146.931927 
L 585.369639 -148.177459 
L 582.329277 -149.988353 
L 579.288914 -152.271327 
L 576.248552 -154.193418 
L 573.20819 -156.36595 
L 570.167827 -158.340806 
L 567.127465 -160.297876 
L 564.087102 -162.22919 
L 561.04674 -165.261687 
L 558.006378 -168.118783 
L 554.966015 -169.68968 
L 551.925653 -171.542528 
L 548.88529 -173.345106 
L 545.844928 -175.056544 
L 542.804565 -175.709668 
L 539.764203 -175.949321 
L 536.723841 -178.3542 
L 533.683478 -181.88772 
L 530.643116 -184.936481 
L 527.602753 -186.692633 
L 524.562391 -188.677901 
L 521.522029 -190.847816 
L 518.481666 -190.119923 
L 515.441304 -188.623477 
L 512.400941 -188.065501 
L 509.360579 -187.411378 
L 506.320216 -187.075031 
L 503.279854 -188.105457 
L 500.239492 -190.93195 
L 497.199129 -192.833946 
L 494.158767 -194.439151 
L 491.118404 -200.878062 
L 488.078042 -210.720863 
L 485.037679 -220.179097 
L 481.997317 -228.297684 
L 478.956955 -237.237064 
L 475.916592 -249.896988 
L 472.87623 -265.48528 
L 469.835867 -282.239597 
L 466.795505 -296.411236 
L 463.755143 -311.422959 
L 460.71478 -329.562395 
L 457.674418 -349.545384 
L 454.634055 -375.444824 
L 451.593693 -405.930233 
L 448.55333 -435.91021 
L 445.512968 -465.698614 
L 442.472606 -494.759655 
L 439.432243 -519.345734 
L 436.391881 -538.716854 
L 433.351518 -557.331741 
L 430.311156 -576.962406 
L 427.270794 -594.751051 
L 424.230431 -608.003719 
L 421.190069 -621.936754 
L 418.149706 -634.995386 
L 415.109344 -646.916206 
L 412.068981 -662.91312 
L 409.028619 -675.940543 
L 405.988257 -677.297514 
L 402.947894 -675.345484 
L 399.907532 -674.333056 
L 396.867169 -678.295092 
L 393.826807 -682.112356 
L 390.786444 -688.059116 
L 387.746082 -696.092231 
L 384.70572 -698.214767 
L 381.665357 -697.201951 
L 378.624995 -697.305429 
L 375.584632 -699.766467 
L 372.54427 -703.379542 
L 369.503908 -706.927569 
L 366.463545 -712.422872 
L 363.423183 -719.222466 
L 360.38282 -716.794783 
L 357.342458 -706.109101 
L 354.302095 -694.793828 
L 351.261733 -684.29852 
L 348.221371 -674.082428 
L 345.181008 -655.142003 
L 342.140646 -633.573061 
L 339.100283 -614.516332 
L 336.059921 -592.437747 
L 333.019558 -566.615017 
L 329.979196 -541.383208 
L 326.938834 -517.739114 
L 323.898471 -497.223929 
L 320.858109 -477.641352 
L 317.817746 -459.017281 
L 314.777384 -442.334364 
L 311.737022 -428.152734 
L 308.696659 -418.11379 
L 305.656297 -407.243394 
L 302.615934 -392.213381 
L 299.575572 -375.506701 
L 296.535209 -356.736364 
L 293.494847 -338.857188 
L 290.454485 -321.18264 
L 287.414122 -303.823563 
L 284.37376 -289.373539 
L 281.333397 -276.031388 
L 278.293035 -265.199033 
L 275.252673 -256.140813 
L 272.21231 -245.814986 
L 269.171948 -235.073474 
L 266.131585 -226.733587 
L 263.091223 -218.459263 
L 260.05086 -209.496157 
L 257.010498 -200.182881 
L 253.970136 -190.638419 
L 250.929773 -181.766988 
L 247.889411 -174.710036 
L 244.849048 -168.520028 
L 241.808686 -162.142703 
L 238.768323 -154.464039 
L 235.727961 -145.475882 
L 232.687599 -138.194825 
L 229.647236 -132.582875 
L 226.606874 -127.352305 
L 223.566511 -122.146871 
L 220.526149 -118.210423 
L 217.485787 -114.800562 
L 214.445424 -110.752026 
L 211.405062 -106.745585 
L 208.364699 -104.360822 
L 205.324337 -104.854316 
L 202.283974 -106.006514 
L 199.243612 -105.045611 
L 196.20325 -102.766579 
L 193.162887 -100.401465 
L 190.122525 -98.471475 
L 187.082162 -97.322487 
L 184.0418 -96.657366 
L 181.001438 -96.384529 
L 177.961075 -96.313193 
L 174.920713 -96.039448 
L 171.88035 -95.648075 
L 168.839988 -95.429644 
L 165.799625 -95.441555 
L 162.759263 -95.803056 
L 159.718901 -96.03128 
L 156.678538 -95.578315 
L 153.638176 -95.164313 
L 150.597813 -95.055999 
L 147.557451 -95.041991 
L 144.517088 -95.040663 
L 141.476726 -95.04012 
L 138.436364 -95.040005 
z
" style="stroke: #0000ff; stroke-width: 3"/>
    </defs>
    <g clip-path="url(#p130c278765)">
     <use xlink:href="#m9eca7aed22" x="0" y="864" style="fill: #0000ff; fill-opacity: 0.25; stroke: #0000ff; stroke-width: 3"/>
    </g>
   </g>
   <g id="PolyCollection_2">
    <defs>
     <path id="m6e7c32f6b9" d="M 141.067451 -95.040006 
L 141.067451 -95.04 
L 144.090515 -95.04 
L 147.113579 -95.04 
L 150.136643 -95.04 
L 153.159707 -95.04 
L 156.182771 -95.04 
L 159.205835 -95.04 
L 162.228899 -95.04 
L 165.251963 -95.04 
L 168.275027 -95.04 
L 171.298092 -95.04 
L 174.321156 -95.04 
L 177.34422 -95.04 
L 180.367284 -95.04 
L 183.390348 -95.04 
L 186.413412 -95.04 
L 189.436476 -95.04 
L 192.45954 -95.04 
L 195.482604 -95.04 
L 198.505668 -95.04 
L 201.528732 -95.04 
L 204.551796 -95.04 
L 207.57486 -95.04 
L 210.597924 -95.04 
L 213.620988 -95.04 
L 216.644052 -95.04 
L 219.667117 -95.04 
L 222.690181 -95.04 
L 225.713245 -95.04 
L 228.736309 -95.04 
L 231.759373 -95.04 
L 234.782437 -95.04 
L 237.805501 -95.04 
L 240.828565 -95.04 
L 243.851629 -95.04 
L 246.874693 -95.04 
L 249.897757 -95.04 
L 252.920821 -95.04 
L 255.943885 -95.04 
L 258.966949 -95.04 
L 261.990013 -95.04 
L 265.013077 -95.04 
L 268.036141 -95.04 
L 271.059206 -95.04 
L 274.08227 -95.04 
L 277.105334 -95.04 
L 280.128398 -95.04 
L 283.151462 -95.04 
L 286.174526 -95.04 
L 289.19759 -95.04 
L 292.220654 -95.04 
L 295.243718 -95.04 
L 298.266782 -95.04 
L 301.289846 -95.04 
L 304.31291 -95.04 
L 307.335974 -95.04 
L 310.359038 -95.04 
L 313.382102 -95.04 
L 316.405166 -95.04 
L 319.42823 -95.04 
L 322.451295 -95.04 
L 325.474359 -95.04 
L 328.497423 -95.04 
L 331.520487 -95.04 
L 334.543551 -95.04 
L 337.566615 -95.04 
L 340.589679 -95.04 
L 343.612743 -95.04 
L 346.635807 -95.04 
L 349.658871 -95.04 
L 352.681935 -95.04 
L 355.704999 -95.04 
L 358.728063 -95.04 
L 361.751127 -95.04 
L 364.774191 -95.04 
L 367.797255 -95.04 
L 370.820319 -95.04 
L 373.843384 -95.04 
L 376.866448 -95.04 
L 379.889512 -95.04 
L 382.912576 -95.04 
L 385.93564 -95.04 
L 388.958704 -95.04 
L 391.981768 -95.04 
L 395.004832 -95.04 
L 398.027896 -95.04 
L 401.05096 -95.04 
L 404.074024 -95.04 
L 407.097088 -95.04 
L 410.120152 -95.04 
L 413.143216 -95.04 
L 416.16628 -95.04 
L 419.189344 -95.04 
L 422.212408 -95.04 
L 425.235473 -95.04 
L 428.258537 -95.04 
L 431.281601 -95.04 
L 434.304665 -95.04 
L 437.327729 -95.04 
L 440.350793 -95.04 
L 443.373857 -95.04 
L 446.396921 -95.04 
L 449.419985 -95.04 
L 452.443049 -95.04 
L 455.466113 -95.04 
L 458.489177 -95.04 
L 461.512241 -95.04 
L 464.535305 -95.04 
L 467.558369 -95.04 
L 470.581433 -95.04 
L 473.604498 -95.04 
L 476.627562 -95.04 
L 479.650626 -95.04 
L 482.67369 -95.04 
L 485.696754 -95.04 
L 488.719818 -95.04 
L 491.742882 -95.04 
L 494.765946 -95.04 
L 497.78901 -95.04 
L 500.812074 -95.04 
L 503.835138 -95.04 
L 506.858202 -95.04 
L 509.881266 -95.04 
L 512.90433 -95.04 
L 515.927394 -95.04 
L 518.950458 -95.04 
L 521.973522 -95.04 
L 524.996587 -95.04 
L 528.019651 -95.04 
L 531.042715 -95.04 
L 534.065779 -95.04 
L 537.088843 -95.04 
L 540.111907 -95.04 
L 543.134971 -95.04 
L 546.158035 -95.04 
L 549.181099 -95.04 
L 552.204163 -95.04 
L 555.227227 -95.04 
L 558.250291 -95.04 
L 561.273355 -95.04 
L 564.296419 -95.04 
L 567.319483 -95.04 
L 570.342547 -95.04 
L 573.365611 -95.04 
L 576.388676 -95.04 
L 579.41174 -95.04 
L 582.434804 -95.04 
L 585.457868 -95.04 
L 588.480932 -95.04 
L 591.503996 -95.04 
L 594.52706 -95.04 
L 597.550124 -95.04 
L 600.573188 -95.04 
L 603.596252 -95.04 
L 606.619316 -95.04 
L 609.64238 -95.04 
L 612.665444 -95.04 
L 615.688508 -95.04 
L 618.711572 -95.04 
L 621.734636 -95.04 
L 624.7577 -95.04 
L 627.780765 -95.04 
L 630.803829 -95.04 
L 633.826893 -95.04 
L 636.849957 -95.04 
L 639.873021 -95.04 
L 642.896085 -95.04 
L 645.919149 -95.04 
L 648.942213 -95.04 
L 651.965277 -95.04 
L 654.988341 -95.04 
L 658.011405 -95.04 
L 661.034469 -95.04 
L 664.057533 -95.04 
L 667.080597 -95.04 
L 670.103661 -95.04 
L 673.126725 -95.04 
L 676.149789 -95.04 
L 679.172854 -95.04 
L 682.195918 -95.04 
L 685.218982 -95.04 
L 688.242046 -95.04 
L 691.26511 -95.04 
L 694.288174 -95.04 
L 697.311238 -95.04 
L 700.334302 -95.04 
L 703.357366 -95.04 
L 706.38043 -95.04 
L 709.403494 -95.04 
L 712.426558 -95.04 
L 715.449622 -95.04 
L 718.472686 -95.04 
L 721.49575 -95.04 
L 724.518814 -95.04 
L 727.541879 -95.04 
L 730.564943 -95.04 
L 733.588007 -95.04 
L 736.611071 -95.04 
L 739.634135 -95.04 
L 742.657199 -95.04 
L 742.657199 -95.118305 
L 742.657199 -95.118305 
L 739.634135 -97.02234 
L 736.611071 -102.185425 
L 733.588007 -99.357146 
L 730.564943 -96.551157 
L 727.541879 -96.397593 
L 724.518814 -96.744679 
L 721.49575 -97.300638 
L 718.472686 -97.785138 
L 715.449622 -98.277654 
L 712.426558 -98.957637 
L 709.403494 -99.511477 
L 706.38043 -99.912955 
L 703.357366 -100.116055 
L 700.334302 -100.763157 
L 697.311238 -101.921022 
L 694.288174 -103.134761 
L 691.26511 -103.727953 
L 688.242046 -104.3153 
L 685.218982 -105.202373 
L 682.195918 -106.241517 
L 679.172854 -107.605496 
L 676.149789 -109.287547 
L 673.126725 -111.146033 
L 670.103661 -112.541149 
L 667.080597 -114.151688 
L 664.057533 -115.703237 
L 661.034469 -116.999868 
L 658.011405 -119.028251 
L 654.988341 -120.877604 
L 651.965277 -122.438007 
L 648.942213 -123.590753 
L 645.919149 -124.626232 
L 642.896085 -126.488199 
L 639.873021 -128.136939 
L 636.849957 -130.068637 
L 633.826893 -132.386166 
L 630.803829 -134.703185 
L 627.780765 -136.813346 
L 624.7577 -138.28481 
L 621.734636 -140.330055 
L 618.711572 -142.342133 
L 615.688508 -143.441198 
L 612.665444 -143.654812 
L 609.64238 -143.465404 
L 606.619316 -143.745494 
L 603.596252 -145.961246 
L 600.573188 -148.355391 
L 597.550124 -151.209972 
L 594.52706 -153.816202 
L 591.503996 -155.999092 
L 588.480932 -157.865797 
L 585.457868 -160.012267 
L 582.434804 -162.586937 
L 579.41174 -164.929834 
L 576.388676 -166.81297 
L 573.365611 -170.197713 
L 570.342547 -172.552763 
L 567.319483 -173.667019 
L 564.296419 -175.845365 
L 561.273355 -179.074547 
L 558.250291 -181.802296 
L 555.227227 -183.201783 
L 552.204163 -184.429096 
L 549.181099 -185.330036 
L 546.158035 -185.981447 
L 543.134971 -186.294693 
L 540.111907 -186.205973 
L 537.088843 -188.997316 
L 534.065779 -192.691271 
L 531.042715 -195.381779 
L 528.019651 -196.702864 
L 524.996587 -198.13783 
L 521.973522 -200.363294 
L 518.950458 -199.808807 
L 515.927394 -196.529331 
L 512.90433 -193.138743 
L 509.881266 -189.345162 
L 506.858202 -187.297042 
L 503.835138 -187.056605 
L 500.812074 -188.889314 
L 497.78901 -190.697159 
L 494.765946 -192.280174 
L 491.742882 -199.055713 
L 488.719818 -209.777735 
L 485.696754 -219.708295 
L 482.67369 -229.926435 
L 479.650626 -241.277694 
L 476.627562 -257.179738 
L 473.604498 -274.853528 
L 470.581433 -295.488311 
L 467.558369 -312.161863 
L 464.535305 -322.074181 
L 461.512241 -336.768984 
L 458.489177 -355.888315 
L 455.466113 -381.155147 
L 452.443049 -410.31687 
L 449.419985 -440.434875 
L 446.396921 -473.2671 
L 443.373857 -503.287287 
L 440.350793 -528.355649 
L 437.327729 -547.491633 
L 434.304665 -560.948091 
L 431.281601 -576.341722 
L 428.258537 -593.782594 
L 425.235473 -609.776208 
L 422.212408 -628.875761 
L 419.189344 -646.851838 
L 416.16628 -658.275533 
L 413.143216 -666.660717 
L 410.120152 -677.544605 
L 407.097088 -683.475988 
L 404.074024 -680.810601 
L 401.05096 -676.787112 
L 398.027896 -678.641077 
L 395.004832 -684.756554 
L 391.981768 -688.43841 
L 388.958704 -694.933888 
L 385.93564 -694.866685 
L 382.912576 -689.18922 
L 379.889512 -684.018098 
L 376.866448 -683.730779 
L 373.843384 -686.482512 
L 370.820319 -690.099952 
L 367.797255 -692.112282 
L 364.774191 -694.708066 
L 361.751127 -694.593322 
L 358.728063 -688.361391 
L 355.704999 -678.979977 
L 352.681935 -663.145242 
L 349.658871 -650.178233 
L 346.635807 -635.20672 
L 343.612743 -615.700309 
L 340.589679 -600.542852 
L 337.566615 -585.756694 
L 334.543551 -565.250521 
L 331.520487 -544.460671 
L 328.497423 -523.480837 
L 325.474359 -499.04914 
L 322.451295 -476.573714 
L 319.42823 -455.218758 
L 316.405166 -435.917542 
L 313.382102 -417.205289 
L 310.359038 -403.978192 
L 307.335974 -396.526478 
L 304.31291 -388.459216 
L 301.289846 -375.391969 
L 298.266782 -357.504939 
L 295.243718 -337.70481 
L 292.220654 -320.630284 
L 289.19759 -304.854721 
L 286.174526 -290.061271 
L 283.151462 -273.837339 
L 280.128398 -259.008757 
L 277.105334 -249.627359 
L 274.08227 -241.760756 
L 271.059206 -231.318361 
L 268.036141 -219.884572 
L 265.013077 -210.45321 
L 261.990013 -202.078873 
L 258.966949 -193.948354 
L 255.943885 -186.553559 
L 252.920821 -178.413466 
L 249.897757 -170.98679 
L 246.874693 -163.62213 
L 243.851629 -156.799256 
L 240.828565 -149.546425 
L 237.805501 -141.890331 
L 234.782437 -134.231688 
L 231.759373 -128.522971 
L 228.736309 -123.913795 
L 225.713245 -119.256936 
L 222.690181 -115.209571 
L 219.667117 -112.131266 
L 216.644052 -109.286884 
L 213.620988 -106.851516 
L 210.597924 -105.211804 
L 207.57486 -103.85304 
L 204.551796 -103.868629 
L 201.528732 -104.48669 
L 198.505668 -103.854453 
L 195.482604 -101.682523 
L 192.45954 -99.255961 
L 189.436476 -97.524375 
L 186.413412 -96.660198 
L 183.390348 -96.613892 
L 180.367284 -97.056891 
L 177.34422 -97.358018 
L 174.321156 -96.609742 
L 171.298092 -95.894663 
L 168.275027 -95.649508 
L 165.251963 -95.82892 
L 162.228899 -96.805131 
L 159.205835 -97.068634 
L 156.182771 -95.844502 
L 153.159707 -95.177695 
L 150.136643 -95.05981 
L 147.113579 -95.042809 
L 144.090515 -95.040245 
L 141.067451 -95.040006 
z
" style="stroke: #ff0000; stroke-width: 3"/>
    </defs>
    <g clip-path="url(#p130c278765)">
     <use xlink:href="#m6e7c32f6b9" x="0" y="864" style="fill: #ff0000; fill-opacity: 0.25; stroke: #ff0000; stroke-width: 3"/>
    </g>
   </g>
   <g id="PolyCollection_3">
    <defs>
     <path id="mb2b6f6150b" d="M 160.22997 -95.04024 
L 160.22997 -95.04 
L 163.179385 -95.04 
L 166.128801 -95.04 
L 169.078216 -95.04 
L 172.027631 -95.04 
L 174.977047 -95.04 
L 177.926462 -95.04 
L 180.875878 -95.04 
L 183.825293 -95.04 
L 186.774709 -95.04 
L 189.724124 -95.04 
L 192.673539 -95.04 
L 195.622955 -95.04 
L 198.57237 -95.04 
L 201.521786 -95.04 
L 204.471201 -95.04 
L 207.420616 -95.04 
L 210.370032 -95.04 
L 213.319447 -95.04 
L 216.268863 -95.04 
L 219.218278 -95.04 
L 222.167693 -95.04 
L 225.117109 -95.04 
L 228.066524 -95.04 
L 231.01594 -95.04 
L 233.965355 -95.04 
L 236.91477 -95.04 
L 239.864186 -95.04 
L 242.813601 -95.04 
L 245.763017 -95.04 
L 248.712432 -95.04 
L 251.661848 -95.04 
L 254.611263 -95.04 
L 257.560678 -95.04 
L 260.510094 -95.04 
L 263.459509 -95.04 
L 266.408925 -95.04 
L 269.35834 -95.04 
L 272.307755 -95.04 
L 275.257171 -95.04 
L 278.206586 -95.04 
L 281.156002 -95.04 
L 284.105417 -95.04 
L 287.054832 -95.04 
L 290.004248 -95.04 
L 292.953663 -95.04 
L 295.903079 -95.04 
L 298.852494 -95.04 
L 301.801909 -95.04 
L 304.751325 -95.04 
L 307.70074 -95.04 
L 310.650156 -95.04 
L 313.599571 -95.04 
L 316.548987 -95.04 
L 319.498402 -95.04 
L 322.447817 -95.04 
L 325.397233 -95.04 
L 328.346648 -95.04 
L 331.296064 -95.04 
L 334.245479 -95.04 
L 337.194894 -95.04 
L 340.14431 -95.04 
L 343.093725 -95.04 
L 346.043141 -95.04 
L 348.992556 -95.04 
L 351.941971 -95.04 
L 354.891387 -95.04 
L 357.840802 -95.04 
L 360.790218 -95.04 
L 363.739633 -95.04 
L 366.689049 -95.04 
L 369.638464 -95.04 
L 372.587879 -95.04 
L 375.537295 -95.04 
L 378.48671 -95.04 
L 381.436126 -95.04 
L 384.385541 -95.04 
L 387.334956 -95.04 
L 390.284372 -95.04 
L 393.233787 -95.04 
L 396.183203 -95.04 
L 399.132618 -95.04 
L 402.082033 -95.04 
L 405.031449 -95.04 
L 407.980864 -95.04 
L 410.93028 -95.04 
L 413.879695 -95.04 
L 416.82911 -95.04 
L 419.778526 -95.04 
L 422.727941 -95.04 
L 425.677357 -95.04 
L 428.626772 -95.04 
L 431.576188 -95.04 
L 434.525603 -95.04 
L 437.475018 -95.04 
L 440.424434 -95.04 
L 443.373849 -95.04 
L 446.323265 -95.04 
L 449.27268 -95.04 
L 452.222095 -95.04 
L 455.171511 -95.04 
L 458.120926 -95.04 
L 461.070342 -95.04 
L 464.019757 -95.04 
L 466.969172 -95.04 
L 469.918588 -95.04 
L 472.868003 -95.04 
L 475.817419 -95.04 
L 478.766834 -95.04 
L 481.716249 -95.04 
L 484.665665 -95.04 
L 487.61508 -95.04 
L 490.564496 -95.04 
L 493.513911 -95.04 
L 496.463327 -95.04 
L 499.412742 -95.04 
L 502.362157 -95.04 
L 505.311573 -95.04 
L 508.260988 -95.04 
L 511.210404 -95.04 
L 514.159819 -95.04 
L 517.109234 -95.04 
L 520.05865 -95.04 
L 523.008065 -95.04 
L 525.957481 -95.04 
L 528.906896 -95.04 
L 531.856311 -95.04 
L 534.805727 -95.04 
L 537.755142 -95.04 
L 540.704558 -95.04 
L 543.653973 -95.04 
L 546.603388 -95.04 
L 549.552804 -95.04 
L 552.502219 -95.04 
L 555.451635 -95.04 
L 558.40105 -95.04 
L 561.350466 -95.04 
L 564.299881 -95.04 
L 567.249296 -95.04 
L 570.198712 -95.04 
L 573.148127 -95.04 
L 576.097543 -95.04 
L 579.046958 -95.04 
L 581.996373 -95.04 
L 584.945789 -95.04 
L 587.895204 -95.04 
L 590.84462 -95.04 
L 593.794035 -95.04 
L 596.74345 -95.04 
L 599.692866 -95.04 
L 602.642281 -95.04 
L 605.591697 -95.04 
L 608.541112 -95.04 
L 611.490528 -95.04 
L 614.439943 -95.04 
L 617.389358 -95.04 
L 620.338774 -95.04 
L 623.288189 -95.04 
L 626.237605 -95.04 
L 629.18702 -95.04 
L 632.136435 -95.04 
L 635.085851 -95.04 
L 638.035266 -95.04 
L 640.984682 -95.04 
L 643.934097 -95.04 
L 646.883512 -95.04 
L 649.832928 -95.04 
L 652.782343 -95.04 
L 655.731759 -95.04 
L 658.681174 -95.04 
L 661.630589 -95.04 
L 664.580005 -95.04 
L 667.52942 -95.04 
L 670.478836 -95.04 
L 673.428251 -95.04 
L 676.377667 -95.04 
L 679.327082 -95.04 
L 682.276497 -95.04 
L 685.225913 -95.04 
L 688.175328 -95.04 
L 691.124744 -95.04 
L 694.074159 -95.04 
L 697.023574 -95.04 
L 699.97299 -95.04 
L 702.922405 -95.04 
L 705.871821 -95.04 
L 708.821236 -95.04 
L 711.770651 -95.04 
L 714.720067 -95.04 
L 717.669482 -95.04 
L 720.618898 -95.04 
L 723.568313 -95.04 
L 726.517728 -95.04 
L 729.467144 -95.04 
L 732.416559 -95.04 
L 735.365975 -95.04 
L 738.31539 -95.04 
L 741.264806 -95.04 
L 744.214221 -95.04 
L 747.163636 -95.04 
L 747.163636 -95.088121 
L 747.163636 -95.088121 
L 744.214221 -95.433368 
L 741.264806 -96.72633 
L 738.31539 -98.863735 
L 735.365975 -99.759201 
L 732.416559 -98.59232 
L 729.467144 -97.474758 
L 726.517728 -97.561751 
L 723.568313 -98.264204 
L 720.618898 -98.984229 
L 717.669482 -99.611031 
L 714.720067 -100.206011 
L 711.770651 -100.632949 
L 708.821236 -100.720311 
L 705.871821 -100.628043 
L 702.922405 -100.737275 
L 699.97299 -101.343862 
L 697.023574 -102.450329 
L 694.074159 -103.672313 
L 691.124744 -104.506075 
L 688.175328 -105.026617 
L 685.225913 -105.726491 
L 682.276497 -106.724142 
L 679.327082 -107.878815 
L 676.377667 -109.410776 
L 673.428251 -111.562248 
L 670.478836 -113.756114 
L 667.52942 -115.30779 
L 664.580005 -116.616276 
L 661.630589 -118.221275 
L 658.681174 -119.541219 
L 655.731759 -119.923605 
L 652.782343 -119.718217 
L 649.832928 -119.701567 
L 646.883512 -120.366199 
L 643.934097 -121.5072 
L 640.984682 -122.541149 
L 638.035266 -123.395993 
L 635.085851 -124.506904 
L 632.136435 -125.971574 
L 629.18702 -127.424282 
L 626.237605 -128.797003 
L 623.288189 -130.253592 
L 620.338774 -131.503272 
L 617.389358 -132.110157 
L 614.439943 -132.010569 
L 611.490528 -131.730433 
L 608.541112 -131.937836 
L 605.591697 -132.781528 
L 602.642281 -134.029836 
L 599.692866 -135.406659 
L 596.74345 -136.67528 
L 593.794035 -137.580077 
L 590.84462 -137.965921 
L 587.895204 -138.195489 
L 584.945789 -138.777418 
L 581.996373 -139.965043 
L 579.046958 -141.742871 
L 576.097543 -143.766112 
L 573.148127 -145.739291 
L 570.198712 -147.610989 
L 567.249296 -149.44491 
L 564.299881 -151.322729 
L 561.350466 -153.438358 
L 558.40105 -155.847039 
L 555.451635 -158.185327 
L 552.502219 -160.182157 
L 549.552804 -162.101765 
L 546.603388 -164.2331 
L 543.653973 -166.075422 
L 540.704558 -167.182325 
L 537.755142 -168.215988 
L 534.805727 -170.055391 
L 531.856311 -172.711139 
L 528.906896 -175.485232 
L 525.957481 -178.16327 
L 523.008065 -180.634225 
L 520.05865 -182.006775 
L 517.109234 -182.45893 
L 514.159819 -183.356603 
L 511.210404 -184.789137 
L 508.260988 -185.947783 
L 505.311573 -187.491379 
L 502.362157 -190.457858 
L 499.412742 -193.582162 
L 496.463327 -195.158915 
L 493.513911 -196.527319 
L 490.564496 -200.213937 
L 487.61508 -206.302373 
L 484.665665 -213.511465 
L 481.716249 -221.445949 
L 478.766834 -230.772217 
L 475.817419 -242.369281 
L 472.868003 -256.024951 
L 469.918588 -270.516364 
L 466.969172 -284.930755 
L 464.019757 -300.166044 
L 461.070342 -317.496504 
L 458.120926 -336.927684 
L 455.171511 -358.673948 
L 452.222095 -382.466983 
L 449.27268 -407.047281 
L 446.323265 -432.173925 
L 443.373849 -457.396086 
L 440.424434 -481.449087 
L 437.475018 -505.1312 
L 434.525603 -530.154807 
L 431.576188 -555.516717 
L 428.626772 -577.599628 
L 425.677357 -593.411581 
L 422.727941 -604.714249 
L 419.778526 -615.621488 
L 416.82911 -628.847209 
L 413.879695 -646.244688 
L 410.93028 -664.364553 
L 407.980864 -674.449322 
L 405.031449 -674.642481 
L 402.082033 -671.714402 
L 399.132618 -670.960726 
L 396.183203 -672.775363 
L 393.233787 -676.673683 
L 390.284372 -683.993986 
L 387.334956 -693.455626 
L 384.385541 -701.027636 
L 381.436126 -705.491196 
L 378.48671 -708.362928 
L 375.537295 -711.046775 
L 372.587879 -714.455301 
L 369.638464 -719.174977 
L 366.689049 -724.884693 
L 363.739633 -728.64 
L 360.790218 -726.57046 
L 357.840802 -719.154184 
L 354.891387 -710.985529 
L 351.941971 -704.882834 
L 348.992556 -697.943303 
L 346.043141 -685.212158 
L 343.093725 -666.129566 
L 340.14431 -643.083782 
L 337.194894 -617.10372 
L 334.245479 -588.529528 
L 331.296064 -560.145762 
L 328.346648 -535.945062 
L 325.397233 -516.878985 
L 322.447817 -500.459483 
L 319.498402 -484.309862 
L 316.548987 -468.015172 
L 313.599571 -453.299647 
L 310.650156 -441.508514 
L 307.70074 -430.1059 
L 304.751325 -415.65956 
L 301.801909 -398.591211 
L 298.852494 -381.179735 
L 295.903079 -364.226668 
L 292.953663 -347.35067 
L 290.004248 -330.20864 
L 287.054832 -313.901183 
L 284.105417 -299.994506 
L 281.156002 -288.491529 
L 278.206586 -278.31161 
L 275.257171 -267.933146 
L 272.307755 -257.136776 
L 269.35834 -247.682567 
L 266.408925 -239.95076 
L 263.459509 -232.090266 
L 260.510094 -223.08533 
L 257.560678 -213.355937 
L 254.611263 -203.382778 
L 251.661848 -193.969068 
L 248.712432 -186.135447 
L 245.763017 -179.568767 
L 242.813601 -173.046739 
L 239.864186 -165.874922 
L 236.91477 -157.937424 
L 233.965355 -150.014523 
L 231.01594 -143.055332 
L 228.066524 -137.022995 
L 225.117109 -131.524091 
L 222.167693 -126.555086 
L 219.218278 -121.967814 
L 216.268863 -117.118648 
L 213.319447 -111.9874 
L 210.370032 -107.779963 
L 207.420616 -105.892911 
L 204.471201 -105.932329 
L 201.521786 -105.838583 
L 198.57237 -104.636102 
L 195.622955 -102.967594 
L 192.673539 -101.214432 
L 189.724124 -99.39763 
L 186.774709 -97.823656 
L 183.825293 -96.68382 
L 180.875878 -95.944941 
L 177.926462 -95.523785 
L 174.977047 -95.300637 
L 172.027631 -95.172454 
L 169.078216 -95.094009 
L 166.128801 -95.054957 
L 163.179385 -95.042512 
L 160.22997 -95.04024 
z
" style="stroke: #008000; stroke-width: 3"/>
    </defs>
    <g clip-path="url(#p130c278765)">
     <use xlink:href="#mb2b6f6150b" x="0" y="864" style="fill: #008000; fill-opacity: 0.25; stroke: #008000; stroke-width: 3"/>
    </g>
   </g>
   <g id="matplotlib.axis_1">
    <g id="xtick_1">
     <g id="line2d_1">
      <defs>
       <path id="m6874d96dc5" d="M 0 0 
L 0 3.5 
" style="stroke: #000000; stroke-width: 0.8"/>
      </defs>
      <g>
       <use xlink:href="#m6874d96dc5" x="139.954911" y="768.96" style="stroke: #000000; stroke-width: 0.8"/>
      </g>
     </g>
     <g id="text_1">
      <!-- 0.0 -->
      <g transform="translate(132.003348 783.558437)scale(0.1 -0.1)">
       <defs>
        <path id="DejaVuSans-30" d="M 2034 4250 
Q 1547 4250 1301 3770 
Q 1056 3291 1056 2328 
Q 1056 1369 1301 889 
Q 1547 409 2034 409 
Q 2525 409 2770 889 
Q 3016 1369 3016 2328 
Q 3016 3291 2770 3770 
Q 2525 4250 2034 4250 
z
M 2034 4750 
Q 2819 4750 3233 4129 
Q 3647 3509 3647 2328 
Q 3647 1150 3233 529 
Q 2819 -91 2034 -91 
Q 1250 -91 836 529 
Q 422 1150 422 2328 
Q 422 3509 836 4129 
Q 1250 4750 2034 4750 
z
" transform="scale(0.015625)"/>
        <path id="DejaVuSans-2e" d="M 684 794 
L 1344 794 
L 1344 0 
L 684 0 
L 684 794 
z
" transform="scale(0.015625)"/>
       </defs>
       <use xlink:href="#DejaVuSans-30"/>
       <use xlink:href="#DejaVuSans-2e" x="63.623047"/>
       <use xlink:href="#DejaVuSans-30" x="95.410156"/>
      </g>
     </g>
    </g>
    <g id="xtick_2">
     <g id="line2d_2">
      <g>
       <use xlink:href="#m6874d96dc5" x="259.203607" y="768.96" style="stroke: #000000; stroke-width: 0.8"/>
      </g>
     </g>
     <g id="text_2">
      <!-- 0.2 -->
      <g transform="translate(251.252045 783.558437)scale(0.1 -0.1)">
       <defs>
        <path id="DejaVuSans-32" d="M 1228 531 
L 3431 531 
L 3431 0 
L 469 0 
L 469 531 
Q 828 903 1448 1529 
Q 2069 2156 2228 2338 
Q 2531 2678 2651 2914 
Q 2772 3150 2772 3378 
Q 2772 3750 2511 3984 
Q 2250 4219 1831 4219 
Q 1534 4219 1204 4116 
Q 875 4013 500 3803 
L 500 4441 
Q 881 4594 1212 4672 
Q 1544 4750 1819 4750 
Q 2544 4750 2975 4387 
Q 3406 4025 3406 3419 
Q 3406 3131 3298 2873 
Q 3191 2616 2906 2266 
Q 2828 2175 2409 1742 
Q 1991 1309 1228 531 
z
" transform="scale(0.015625)"/>
       </defs>
       <use xlink:href="#DejaVuSans-30"/>
       <use xlink:href="#DejaVuSans-2e" x="63.623047"/>
       <use xlink:href="#DejaVuSans-32" x="95.410156"/>
      </g>
     </g>
    </g>
    <g id="xtick_3">
     <g id="line2d_3">
      <g>
       <use xlink:href="#m6874d96dc5" x="378.452304" y="768.96" style="stroke: #000000; stroke-width: 0.8"/>
      </g>
     </g>
     <g id="text_3">
      <!-- 0.4 -->
      <g transform="translate(370.500741 783.558437)scale(0.1 -0.1)">
       <defs>
        <path id="DejaVuSans-34" d="M 2419 4116 
L 825 1625 
L 2419 1625 
L 2419 4116 
z
M 2253 4666 
L 3047 4666 
L 3047 1625 
L 3713 1625 
L 3713 1100 
L 3047 1100 
L 3047 0 
L 2419 0 
L 2419 1100 
L 313 1100 
L 313 1709 
L 2253 4666 
z
" transform="scale(0.015625)"/>
       </defs>
       <use xlink:href="#DejaVuSans-30"/>
       <use xlink:href="#DejaVuSans-2e" x="63.623047"/>
       <use xlink:href="#DejaVuSans-34" x="95.410156"/>
      </g>
     </g>
    </g>
    <g id="xtick_4">
     <g id="line2d_4">
      <g>
       <use xlink:href="#m6874d96dc5" x="497.701" y="768.96" style="stroke: #000000; stroke-width: 0.8"/>
      </g>
     </g>
     <g id="text_4">
      <!-- 0.6 -->
      <g transform="translate(489.749438 783.558437)scale(0.1 -0.1)">
       <defs>
        <path id="DejaVuSans-36" d="M 2113 2584 
Q 1688 2584 1439 2293 
Q 1191 2003 1191 1497 
Q 1191 994 1439 701 
Q 1688 409 2113 409 
Q 2538 409 2786 701 
Q 3034 994 3034 1497 
Q 3034 2003 2786 2293 
Q 2538 2584 2113 2584 
z
M 3366 4563 
L 3366 3988 
Q 3128 4100 2886 4159 
Q 2644 4219 2406 4219 
Q 1781 4219 1451 3797 
Q 1122 3375 1075 2522 
Q 1259 2794 1537 2939 
Q 1816 3084 2150 3084 
Q 2853 3084 3261 2657 
Q 3669 2231 3669 1497 
Q 3669 778 3244 343 
Q 2819 -91 2113 -91 
Q 1303 -91 875 529 
Q 447 1150 447 2328 
Q 447 3434 972 4092 
Q 1497 4750 2381 4750 
Q 2619 4750 2861 4703 
Q 3103 4656 3366 4563 
z
" transform="scale(0.015625)"/>
       </defs>
       <use xlink:href="#DejaVuSans-30"/>
       <use xlink:href="#DejaVuSans-2e" x="63.623047"/>
       <use xlink:href="#DejaVuSans-36" x="95.410156"/>
      </g>
     </g>
    </g>
    <g id="xtick_5">
     <g id="line2d_5">
      <g>
       <use xlink:href="#m6874d96dc5" x="616.949697" y="768.96" style="stroke: #000000; stroke-width: 0.8"/>
      </g>
     </g>
     <g id="text_5">
      <!-- 0.8 -->
      <g transform="translate(608.998134 783.558437)scale(0.1 -0.1)">
       <defs>
        <path id="DejaVuSans-38" d="M 2034 2216 
Q 1584 2216 1326 1975 
Q 1069 1734 1069 1313 
Q 1069 891 1326 650 
Q 1584 409 2034 409 
Q 2484 409 2743 651 
Q 3003 894 3003 1313 
Q 3003 1734 2745 1975 
Q 2488 2216 2034 2216 
z
M 1403 2484 
Q 997 2584 770 2862 
Q 544 3141 544 3541 
Q 544 4100 942 4425 
Q 1341 4750 2034 4750 
Q 2731 4750 3128 4425 
Q 3525 4100 3525 3541 
Q 3525 3141 3298 2862 
Q 3072 2584 2669 2484 
Q 3125 2378 3379 2068 
Q 3634 1759 3634 1313 
Q 3634 634 3220 271 
Q 2806 -91 2034 -91 
Q 1263 -91 848 271 
Q 434 634 434 1313 
Q 434 1759 690 2068 
Q 947 2378 1403 2484 
z
M 1172 3481 
Q 1172 3119 1398 2916 
Q 1625 2713 2034 2713 
Q 2441 2713 2670 2916 
Q 2900 3119 2900 3481 
Q 2900 3844 2670 4047 
Q 2441 4250 2034 4250 
Q 1625 4250 1398 4047 
Q 1172 3844 1172 3481 
z
" transform="scale(0.015625)"/>
       </defs>
       <use xlink:href="#DejaVuSans-30"/>
       <use xlink:href="#DejaVuSans-2e" x="63.623047"/>
       <use xlink:href="#DejaVuSans-38" x="95.410156"/>
      </g>
     </g>
    </g>
    <g id="xtick_6">
     <g id="line2d_6">
      <g>
       <use xlink:href="#m6874d96dc5" x="736.198393" y="768.96" style="stroke: #000000; stroke-width: 0.8"/>
      </g>
     </g>
     <g id="text_6">
      <!-- 1.0 -->
      <g transform="translate(728.246831 783.558437)scale(0.1 -0.1)">
       <defs>
        <path id="DejaVuSans-31" d="M 794 531 
L 1825 531 
L 1825 4091 
L 703 3866 
L 703 4441 
L 1819 4666 
L 2450 4666 
L 2450 531 
L 3481 531 
L 3481 0 
L 794 0 
L 794 531 
z
" transform="scale(0.015625)"/>
       </defs>
       <use xlink:href="#DejaVuSans-31"/>
       <use xlink:href="#DejaVuSans-2e" x="63.623047"/>
       <use xlink:href="#DejaVuSans-30" x="95.410156"/>
      </g>
     </g>
    </g>
    <g id="text_7">
     <!-- Similarity -->
     <g transform="translate(404.97625 801.795625)scale(0.16 -0.16)">
      <defs>
       <path id="DejaVuSans-53" d="M 3425 4513 
L 3425 3897 
Q 3066 4069 2747 4153 
Q 2428 4238 2131 4238 
Q 1616 4238 1336 4038 
Q 1056 3838 1056 3469 
Q 1056 3159 1242 3001 
Q 1428 2844 1947 2747 
L 2328 2669 
Q 3034 2534 3370 2195 
Q 3706 1856 3706 1288 
Q 3706 609 3251 259 
Q 2797 -91 1919 -91 
Q 1588 -91 1214 -16 
Q 841 59 441 206 
L 441 856 
Q 825 641 1194 531 
Q 1563 422 1919 422 
Q 2459 422 2753 634 
Q 3047 847 3047 1241 
Q 3047 1584 2836 1778 
Q 2625 1972 2144 2069 
L 1759 2144 
Q 1053 2284 737 2584 
Q 422 2884 422 3419 
Q 422 4038 858 4394 
Q 1294 4750 2059 4750 
Q 2388 4750 2728 4690 
Q 3069 4631 3425 4513 
z
" transform="scale(0.015625)"/>
       <path id="DejaVuSans-69" d="M 603 3500 
L 1178 3500 
L 1178 0 
L 603 0 
L 603 3500 
z
M 603 4863 
L 1178 4863 
L 1178 4134 
L 603 4134 
L 603 4863 
z
" transform="scale(0.015625)"/>
       <path id="DejaVuSans-6d" d="M 3328 2828 
Q 3544 3216 3844 3400 
Q 4144 3584 4550 3584 
Q 5097 3584 5394 3201 
Q 5691 2819 5691 2113 
L 5691 0 
L 5113 0 
L 5113 2094 
Q 5113 2597 4934 2840 
Q 4756 3084 4391 3084 
Q 3944 3084 3684 2787 
Q 3425 2491 3425 1978 
L 3425 0 
L 2847 0 
L 2847 2094 
Q 2847 2600 2669 2842 
Q 2491 3084 2119 3084 
Q 1678 3084 1418 2786 
Q 1159 2488 1159 1978 
L 1159 0 
L 581 0 
L 581 3500 
L 1159 3500 
L 1159 2956 
Q 1356 3278 1631 3431 
Q 1906 3584 2284 3584 
Q 2666 3584 2933 3390 
Q 3200 3197 3328 2828 
z
" transform="scale(0.015625)"/>
       <path id="DejaVuSans-6c" d="M 603 4863 
L 1178 4863 
L 1178 0 
L 603 0 
L 603 4863 
z
" transform="scale(0.015625)"/>
       <path id="DejaVuSans-61" d="M 2194 1759 
Q 1497 1759 1228 1600 
Q 959 1441 959 1056 
Q 959 750 1161 570 
Q 1363 391 1709 391 
Q 2188 391 2477 730 
Q 2766 1069 2766 1631 
L 2766 1759 
L 2194 1759 
z
M 3341 1997 
L 3341 0 
L 2766 0 
L 2766 531 
Q 2569 213 2275 61 
Q 1981 -91 1556 -91 
Q 1019 -91 701 211 
Q 384 513 384 1019 
Q 384 1609 779 1909 
Q 1175 2209 1959 2209 
L 2766 2209 
L 2766 2266 
Q 2766 2663 2505 2880 
Q 2244 3097 1772 3097 
Q 1472 3097 1187 3025 
Q 903 2953 641 2809 
L 641 3341 
Q 956 3463 1253 3523 
Q 1550 3584 1831 3584 
Q 2591 3584 2966 3190 
Q 3341 2797 3341 1997 
z
" transform="scale(0.015625)"/>
       <path id="DejaVuSans-72" d="M 2631 2963 
Q 2534 3019 2420 3045 
Q 2306 3072 2169 3072 
Q 1681 3072 1420 2755 
Q 1159 2438 1159 1844 
L 1159 0 
L 581 0 
L 581 3500 
L 1159 3500 
L 1159 2956 
Q 1341 3275 1631 3429 
Q 1922 3584 2338 3584 
Q 2397 3584 2469 3576 
Q 2541 3569 2628 3553 
L 2631 2963 
z
" transform="scale(0.015625)"/>
       <path id="DejaVuSans-74" d="M 1172 4494 
L 1172 3500 
L 2356 3500 
L 2356 3053 
L 1172 3053 
L 1172 1153 
Q 1172 725 1289 603 
Q 1406 481 1766 481 
L 2356 481 
L 2356 0 
L 1766 0 
Q 1100 0 847 248 
Q 594 497 594 1153 
L 594 3053 
L 172 3053 
L 172 3500 
L 594 3500 
L 594 4494 
L 1172 4494 
z
" transform="scale(0.015625)"/>
       <path id="DejaVuSans-79" d="M 2059 -325 
Q 1816 -950 1584 -1140 
Q 1353 -1331 966 -1331 
L 506 -1331 
L 506 -850 
L 844 -850 
Q 1081 -850 1212 -737 
Q 1344 -625 1503 -206 
L 1606 56 
L 191 3500 
L 800 3500 
L 1894 763 
L 2988 3500 
L 3597 3500 
L 2059 -325 
z
" transform="scale(0.015625)"/>
      </defs>
      <use xlink:href="#DejaVuSans-53"/>
      <use xlink:href="#DejaVuSans-69" x="63.476562"/>
      <use xlink:href="#DejaVuSans-6d" x="91.259766"/>
      <use xlink:href="#DejaVuSans-69" x="188.671875"/>
      <use xlink:href="#DejaVuSans-6c" x="216.455078"/>
      <use xlink:href="#DejaVuSans-61" x="244.238281"/>
      <use xlink:href="#DejaVuSans-72" x="305.517578"/>
      <use xlink:href="#DejaVuSans-69" x="346.630859"/>
      <use xlink:href="#DejaVuSans-74" x="374.414062"/>
      <use xlink:href="#DejaVuSans-79" x="413.623047"/>
     </g>
    </g>
   </g>
   <g id="matplotlib.axis_2">
    <g id="ytick_1">
     <g id="line2d_7">
      <defs>
       <path id="m17a76d4ab3" d="M 0 0 
L -3.5 0 
" style="stroke: #000000; stroke-width: 0.8"/>
      </defs>
      <g>
       <use xlink:href="#m17a76d4ab3" x="108" y="768.96" style="stroke: #000000; stroke-width: 0.8"/>
      </g>
     </g>
     <g id="text_8">
      <!-- 0.0 -->
      <g transform="translate(85.096875 772.759219)scale(0.1 -0.1)">
       <use xlink:href="#DejaVuSans-30"/>
       <use xlink:href="#DejaVuSans-2e" x="63.623047"/>
       <use xlink:href="#DejaVuSans-30" x="95.410156"/>
      </g>
     </g>
    </g>
    <g id="ytick_2">
     <g id="line2d_8">
      <g>
       <use xlink:href="#m17a76d4ab3" x="108" y="680.72668" style="stroke: #000000; stroke-width: 0.8"/>
      </g>
     </g>
     <g id="text_9">
      <!-- 0.5 -->
      <g transform="translate(85.096875 684.525898)scale(0.1 -0.1)">
       <defs>
        <path id="DejaVuSans-35" d="M 691 4666 
L 3169 4666 
L 3169 4134 
L 1269 4134 
L 1269 2991 
Q 1406 3038 1543 3061 
Q 1681 3084 1819 3084 
Q 2600 3084 3056 2656 
Q 3513 2228 3513 1497 
Q 3513 744 3044 326 
Q 2575 -91 1722 -91 
Q 1428 -91 1123 -41 
Q 819 9 494 109 
L 494 744 
Q 775 591 1075 516 
Q 1375 441 1709 441 
Q 2250 441 2565 725 
Q 2881 1009 2881 1497 
Q 2881 1984 2565 2268 
Q 2250 2553 1709 2553 
Q 1456 2553 1204 2497 
Q 953 2441 691 2322 
L 691 4666 
z
" transform="scale(0.015625)"/>
       </defs>
       <use xlink:href="#DejaVuSans-30"/>
       <use xlink:href="#DejaVuSans-2e" x="63.623047"/>
       <use xlink:href="#DejaVuSans-35" x="95.410156"/>
      </g>
     </g>
    </g>
    <g id="ytick_3">
     <g id="line2d_9">
      <g>
       <use xlink:href="#m17a76d4ab3" x="108" y="592.493359" style="stroke: #000000; stroke-width: 0.8"/>
      </g>
     </g>
     <g id="text_10">
      <!-- 1.0 -->
      <g transform="translate(85.096875 596.292578)scale(0.1 -0.1)">
       <use xlink:href="#DejaVuSans-31"/>
       <use xlink:href="#DejaVuSans-2e" x="63.623047"/>
       <use xlink:href="#DejaVuSans-30" x="95.410156"/>
      </g>
     </g>
    </g>
    <g id="ytick_4">
     <g id="line2d_10">
      <g>
       <use xlink:href="#m17a76d4ab3" x="108" y="504.260039" style="stroke: #000000; stroke-width: 0.8"/>
      </g>
     </g>
     <g id="text_11">
      <!-- 1.5 -->
      <g transform="translate(85.096875 508.059257)scale(0.1 -0.1)">
       <use xlink:href="#DejaVuSans-31"/>
       <use xlink:href="#DejaVuSans-2e" x="63.623047"/>
       <use xlink:href="#DejaVuSans-35" x="95.410156"/>
      </g>
     </g>
    </g>
    <g id="ytick_5">
     <g id="line2d_11">
      <g>
       <use xlink:href="#m17a76d4ab3" x="108" y="416.026718" style="stroke: #000000; stroke-width: 0.8"/>
      </g>
     </g>
     <g id="text_12">
      <!-- 2.0 -->
      <g transform="translate(85.096875 419.825937)scale(0.1 -0.1)">
       <use xlink:href="#DejaVuSans-32"/>
       <use xlink:href="#DejaVuSans-2e" x="63.623047"/>
       <use xlink:href="#DejaVuSans-30" x="95.410156"/>
      </g>
     </g>
    </g>
    <g id="ytick_6">
     <g id="line2d_12">
      <g>
       <use xlink:href="#m17a76d4ab3" x="108" y="327.793398" style="stroke: #000000; stroke-width: 0.8"/>
      </g>
     </g>
     <g id="text_13">
      <!-- 2.5 -->
      <g transform="translate(85.096875 331.592617)scale(0.1 -0.1)">
       <use xlink:href="#DejaVuSans-32"/>
       <use xlink:href="#DejaVuSans-2e" x="63.623047"/>
       <use xlink:href="#DejaVuSans-35" x="95.410156"/>
      </g>
     </g>
    </g>
    <g id="ytick_7">
     <g id="line2d_13">
      <g>
       <use xlink:href="#m17a76d4ab3" x="108" y="239.560077" style="stroke: #000000; stroke-width: 0.8"/>
      </g>
     </g>
     <g id="text_14">
      <!-- 3.0 -->
      <g transform="translate(85.096875 243.359296)scale(0.1 -0.1)">
       <defs>
        <path id="DejaVuSans-33" d="M 2597 2516 
Q 3050 2419 3304 2112 
Q 3559 1806 3559 1356 
Q 3559 666 3084 287 
Q 2609 -91 1734 -91 
Q 1441 -91 1130 -33 
Q 819 25 488 141 
L 488 750 
Q 750 597 1062 519 
Q 1375 441 1716 441 
Q 2309 441 2620 675 
Q 2931 909 2931 1356 
Q 2931 1769 2642 2001 
Q 2353 2234 1838 2234 
L 1294 2234 
L 1294 2753 
L 1863 2753 
Q 2328 2753 2575 2939 
Q 2822 3125 2822 3475 
Q 2822 3834 2567 4026 
Q 2313 4219 1838 4219 
Q 1578 4219 1281 4162 
Q 984 4106 628 3988 
L 628 4550 
Q 988 4650 1302 4700 
Q 1616 4750 1894 4750 
Q 2613 4750 3031 4423 
Q 3450 4097 3450 3541 
Q 3450 3153 3228 2886 
Q 3006 2619 2597 2516 
z
" transform="scale(0.015625)"/>
       </defs>
       <use xlink:href="#DejaVuSans-33"/>
       <use xlink:href="#DejaVuSans-2e" x="63.623047"/>
       <use xlink:href="#DejaVuSans-30" x="95.410156"/>
      </g>
     </g>
    </g>
    <g id="ytick_8">
     <g id="line2d_14">
      <g>
       <use xlink:href="#m17a76d4ab3" x="108" y="151.326757" style="stroke: #000000; stroke-width: 0.8"/>
      </g>
     </g>
     <g id="text_15">
      <!-- 3.5 -->
      <g transform="translate(85.096875 155.125976)scale(0.1 -0.1)">
       <use xlink:href="#DejaVuSans-33"/>
       <use xlink:href="#DejaVuSans-2e" x="63.623047"/>
       <use xlink:href="#DejaVuSans-35" x="95.410156"/>
      </g>
     </g>
    </g>
    <g id="text_16">
     <!-- Density -->
     <g transform="translate(77.769375 466.73375)rotate(-90)scale(0.16 -0.16)">
      <defs>
       <path id="DejaVuSans-44" d="M 1259 4147 
L 1259 519 
L 2022 519 
Q 2988 519 3436 956 
Q 3884 1394 3884 2338 
Q 3884 3275 3436 3711 
Q 2988 4147 2022 4147 
L 1259 4147 
z
M 628 4666 
L 1925 4666 
Q 3281 4666 3915 4102 
Q 4550 3538 4550 2338 
Q 4550 1131 3912 565 
Q 3275 0 1925 0 
L 628 0 
L 628 4666 
z
" transform="scale(0.015625)"/>
       <path id="DejaVuSans-65" d="M 3597 1894 
L 3597 1613 
L 953 1613 
Q 991 1019 1311 708 
Q 1631 397 2203 397 
Q 2534 397 2845 478 
Q 3156 559 3463 722 
L 3463 178 
Q 3153 47 2828 -22 
Q 2503 -91 2169 -91 
Q 1331 -91 842 396 
Q 353 884 353 1716 
Q 353 2575 817 3079 
Q 1281 3584 2069 3584 
Q 2775 3584 3186 3129 
Q 3597 2675 3597 1894 
z
M 3022 2063 
Q 3016 2534 2758 2815 
Q 2500 3097 2075 3097 
Q 1594 3097 1305 2825 
Q 1016 2553 972 2059 
L 3022 2063 
z
" transform="scale(0.015625)"/>
       <path id="DejaVuSans-6e" d="M 3513 2113 
L 3513 0 
L 2938 0 
L 2938 2094 
Q 2938 2591 2744 2837 
Q 2550 3084 2163 3084 
Q 1697 3084 1428 2787 
Q 1159 2491 1159 1978 
L 1159 0 
L 581 0 
L 581 3500 
L 1159 3500 
L 1159 2956 
Q 1366 3272 1645 3428 
Q 1925 3584 2291 3584 
Q 2894 3584 3203 3211 
Q 3513 2838 3513 2113 
z
" transform="scale(0.015625)"/>
       <path id="DejaVuSans-73" d="M 2834 3397 
L 2834 2853 
Q 2591 2978 2328 3040 
Q 2066 3103 1784 3103 
Q 1356 3103 1142 2972 
Q 928 2841 928 2578 
Q 928 2378 1081 2264 
Q 1234 2150 1697 2047 
L 1894 2003 
Q 2506 1872 2764 1633 
Q 3022 1394 3022 966 
Q 3022 478 2636 193 
Q 2250 -91 1575 -91 
Q 1294 -91 989 -36 
Q 684 19 347 128 
L 347 722 
Q 666 556 975 473 
Q 1284 391 1588 391 
Q 1994 391 2212 530 
Q 2431 669 2431 922 
Q 2431 1156 2273 1281 
Q 2116 1406 1581 1522 
L 1381 1569 
Q 847 1681 609 1914 
Q 372 2147 372 2553 
Q 372 3047 722 3315 
Q 1072 3584 1716 3584 
Q 2034 3584 2315 3537 
Q 2597 3491 2834 3397 
z
" transform="scale(0.015625)"/>
      </defs>
      <use xlink:href="#DejaVuSans-44"/>
      <use xlink:href="#DejaVuSans-65" x="77.001953"/>
      <use xlink:href="#DejaVuSans-6e" x="138.525391"/>
      <use xlink:href="#DejaVuSans-73" x="201.904297"/>
      <use xlink:href="#DejaVuSans-69" x="254.003906"/>
      <use xlink:href="#DejaVuSans-74" x="281.787109"/>
      <use xlink:href="#DejaVuSans-79" x="320.996094"/>
     </g>
    </g>
   </g>
   <g id="patch_3">
    <path d="M 108 768.96 
L 108 103.68 
" style="fill: none; stroke: #000000; stroke-width: 0.8; stroke-linejoin: miter; stroke-linecap: square"/>
   </g>
   <g id="patch_4">
    <path d="M 777.6 768.96 
L 777.6 103.68 
" style="fill: none; stroke: #000000; stroke-width: 0.8; stroke-linejoin: miter; stroke-linecap: square"/>
   </g>
   <g id="patch_5">
    <path d="M 108 768.96 
L 777.6 768.96 
" style="fill: none; stroke: #000000; stroke-width: 0.8; stroke-linejoin: miter; stroke-linecap: square"/>
   </g>
   <g id="patch_6">
    <path d="M 108 103.68 
L 777.6 103.68 
" style="fill: none; stroke: #000000; stroke-width: 0.8; stroke-linejoin: miter; stroke-linecap: square"/>
   </g>
   <g id="legend_1">
    <g id="patch_7">
     <path d="M 484.15 186.935 
L 766.4 186.935 
Q 769.6 186.935 769.6 183.735 
L 769.6 114.88 
Q 769.6 111.68 766.4 111.68 
L 484.15 111.68 
Q 480.95 111.68 480.95 114.88 
L 480.95 183.735 
Q 480.95 186.935 484.15 186.935 
z
" style="fill: #ffffff; opacity: 0.8; stroke: #cccccc; stroke-linejoin: miter"/>
    </g>
    <g id="patch_8">
     <path d="M 487.35 130.2375 
L 519.35 130.2375 
L 519.35 119.0375 
L 487.35 119.0375 
z
" style="fill: #0000ff; fill-opacity: 0.25; stroke: #0000ff; stroke-width: 3; stroke-linejoin: miter"/>
    </g>
    <g id="text_17">
     <!-- Training vs Test set similarity -->
     <g transform="translate(532.15 130.2375)scale(0.16 -0.16)">
      <defs>
       <path id="DejaVuSans-54" d="M -19 4666 
L 3928 4666 
L 3928 4134 
L 2272 4134 
L 2272 0 
L 1638 0 
L 1638 4134 
L -19 4134 
L -19 4666 
z
" transform="scale(0.015625)"/>
       <path id="DejaVuSans-67" d="M 2906 1791 
Q 2906 2416 2648 2759 
Q 2391 3103 1925 3103 
Q 1463 3103 1205 2759 
Q 947 2416 947 1791 
Q 947 1169 1205 825 
Q 1463 481 1925 481 
Q 2391 481 2648 825 
Q 2906 1169 2906 1791 
z
M 3481 434 
Q 3481 -459 3084 -895 
Q 2688 -1331 1869 -1331 
Q 1566 -1331 1297 -1286 
Q 1028 -1241 775 -1147 
L 775 -588 
Q 1028 -725 1275 -790 
Q 1522 -856 1778 -856 
Q 2344 -856 2625 -561 
Q 2906 -266 2906 331 
L 2906 616 
Q 2728 306 2450 153 
Q 2172 0 1784 0 
Q 1141 0 747 490 
Q 353 981 353 1791 
Q 353 2603 747 3093 
Q 1141 3584 1784 3584 
Q 2172 3584 2450 3431 
Q 2728 3278 2906 2969 
L 2906 3500 
L 3481 3500 
L 3481 434 
z
" transform="scale(0.015625)"/>
       <path id="DejaVuSans-20" transform="scale(0.015625)"/>
       <path id="DejaVuSans-76" d="M 191 3500 
L 800 3500 
L 1894 563 
L 2988 3500 
L 3597 3500 
L 2284 0 
L 1503 0 
L 191 3500 
z
" transform="scale(0.015625)"/>
      </defs>
      <use xlink:href="#DejaVuSans-54"/>
      <use xlink:href="#DejaVuSans-72" x="46.333984"/>
      <use xlink:href="#DejaVuSans-61" x="87.447266"/>
      <use xlink:href="#DejaVuSans-69" x="148.726562"/>
      <use xlink:href="#DejaVuSans-6e" x="176.509766"/>
      <use xlink:href="#DejaVuSans-69" x="239.888672"/>
      <use xlink:href="#DejaVuSans-6e" x="267.671875"/>
      <use xlink:href="#DejaVuSans-67" x="331.050781"/>
      <use xlink:href="#DejaVuSans-20" x="394.527344"/>
      <use xlink:href="#DejaVuSans-76" x="426.314453"/>
      <use xlink:href="#DejaVuSans-73" x="485.494141"/>
      <use xlink:href="#DejaVuSans-20" x="537.59375"/>
      <use xlink:href="#DejaVuSans-54" x="569.380859"/>
      <use xlink:href="#DejaVuSans-65" x="613.464844"/>
      <use xlink:href="#DejaVuSans-73" x="674.988281"/>
      <use xlink:href="#DejaVuSans-74" x="727.087891"/>
      <use xlink:href="#DejaVuSans-20" x="766.296875"/>
      <use xlink:href="#DejaVuSans-73" x="798.083984"/>
      <use xlink:href="#DejaVuSans-65" x="850.183594"/>
      <use xlink:href="#DejaVuSans-74" x="911.707031"/>
      <use xlink:href="#DejaVuSans-20" x="950.916016"/>
      <use xlink:href="#DejaVuSans-73" x="982.703125"/>
      <use xlink:href="#DejaVuSans-69" x="1034.802734"/>
      <use xlink:href="#DejaVuSans-6d" x="1062.585938"/>
      <use xlink:href="#DejaVuSans-69" x="1159.998047"/>
      <use xlink:href="#DejaVuSans-6c" x="1187.78125"/>
      <use xlink:href="#DejaVuSans-61" x="1215.564453"/>
      <use xlink:href="#DejaVuSans-72" x="1276.84375"/>
      <use xlink:href="#DejaVuSans-69" x="1317.957031"/>
      <use xlink:href="#DejaVuSans-74" x="1345.740234"/>
      <use xlink:href="#DejaVuSans-79" x="1384.949219"/>
     </g>
    </g>
    <g id="patch_9">
     <path d="M 487.35 153.7225 
L 519.35 153.7225 
L 519.35 142.5225 
L 487.35 142.5225 
z
" style="fill: #ff0000; fill-opacity: 0.25; stroke: #ff0000; stroke-width: 3; stroke-linejoin: miter"/>
    </g>
    <g id="text_18">
     <!-- Training set inner similarity -->
     <g transform="translate(532.15 153.7225)scale(0.16 -0.16)">
      <use xlink:href="#DejaVuSans-54"/>
      <use xlink:href="#DejaVuSans-72" x="46.333984"/>
      <use xlink:href="#DejaVuSans-61" x="87.447266"/>
      <use xlink:href="#DejaVuSans-69" x="148.726562"/>
      <use xlink:href="#DejaVuSans-6e" x="176.509766"/>
      <use xlink:href="#DejaVuSans-69" x="239.888672"/>
      <use xlink:href="#DejaVuSans-6e" x="267.671875"/>
      <use xlink:href="#DejaVuSans-67" x="331.050781"/>
      <use xlink:href="#DejaVuSans-20" x="394.527344"/>
      <use xlink:href="#DejaVuSans-73" x="426.314453"/>
      <use xlink:href="#DejaVuSans-65" x="478.414062"/>
      <use xlink:href="#DejaVuSans-74" x="539.9375"/>
      <use xlink:href="#DejaVuSans-20" x="579.146484"/>
      <use xlink:href="#DejaVuSans-69" x="610.933594"/>
      <use xlink:href="#DejaVuSans-6e" x="638.716797"/>
      <use xlink:href="#DejaVuSans-6e" x="702.095703"/>
      <use xlink:href="#DejaVuSans-65" x="765.474609"/>
      <use xlink:href="#DejaVuSans-72" x="826.998047"/>
      <use xlink:href="#DejaVuSans-20" x="868.111328"/>
      <use xlink:href="#DejaVuSans-73" x="899.898438"/>
      <use xlink:href="#DejaVuSans-69" x="951.998047"/>
      <use xlink:href="#DejaVuSans-6d" x="979.78125"/>
      <use xlink:href="#DejaVuSans-69" x="1077.193359"/>
      <use xlink:href="#DejaVuSans-6c" x="1104.976562"/>
      <use xlink:href="#DejaVuSans-61" x="1132.759766"/>
      <use xlink:href="#DejaVuSans-72" x="1194.039062"/>
      <use xlink:href="#DejaVuSans-69" x="1235.152344"/>
      <use xlink:href="#DejaVuSans-74" x="1262.935547"/>
      <use xlink:href="#DejaVuSans-79" x="1302.144531"/>
     </g>
    </g>
    <g id="patch_10">
     <path d="M 487.35 177.2075 
L 519.35 177.2075 
L 519.35 166.0075 
L 487.35 166.0075 
z
" style="fill: #008000; fill-opacity: 0.25; stroke: #008000; stroke-width: 3; stroke-linejoin: miter"/>
    </g>
    <g id="text_19">
     <!-- Test set inner similarity -->
     <g transform="translate(532.15 177.2075)scale(0.16 -0.16)">
      <use xlink:href="#DejaVuSans-54"/>
      <use xlink:href="#DejaVuSans-65" x="44.083984"/>
      <use xlink:href="#DejaVuSans-73" x="105.607422"/>
      <use xlink:href="#DejaVuSans-74" x="157.707031"/>
      <use xlink:href="#DejaVuSans-20" x="196.916016"/>
      <use xlink:href="#DejaVuSans-73" x="228.703125"/>
      <use xlink:href="#DejaVuSans-65" x="280.802734"/>
      <use xlink:href="#DejaVuSans-74" x="342.326172"/>
      <use xlink:href="#DejaVuSans-20" x="381.535156"/>
      <use xlink:href="#DejaVuSans-69" x="413.322266"/>
      <use xlink:href="#DejaVuSans-6e" x="441.105469"/>
      <use xlink:href="#DejaVuSans-6e" x="504.484375"/>
      <use xlink:href="#DejaVuSans-65" x="567.863281"/>
      <use xlink:href="#DejaVuSans-72" x="629.386719"/>
      <use xlink:href="#DejaVuSans-20" x="670.5"/>
      <use xlink:href="#DejaVuSans-73" x="702.287109"/>
      <use xlink:href="#DejaVuSans-69" x="754.386719"/>
      <use xlink:href="#DejaVuSans-6d" x="782.169922"/>
      <use xlink:href="#DejaVuSans-69" x="879.582031"/>
      <use xlink:href="#DejaVuSans-6c" x="907.365234"/>
      <use xlink:href="#DejaVuSans-61" x="935.148438"/>
      <use xlink:href="#DejaVuSans-72" x="996.427734"/>
      <use xlink:href="#DejaVuSans-69" x="1037.541016"/>
      <use xlink:href="#DejaVuSans-74" x="1065.324219"/>
      <use xlink:href="#DejaVuSans-79" x="1104.533203"/>
     </g>
    </g>
   </g>
  </g>
 </g>
 <defs>
  <clipPath id="p130c278765">
   <rect x="108" y="103.68" width="669.6" height="665.28"/>
  </clipPath>
 </defs>
</svg>
