<?xml version="1.0" encoding="utf-8" standalone="no"?>
<!DOCTYPE svg PUBLIC "-//W3C//DTD SVG 1.1//EN"
  "http://www.w3.org/Graphics/SVG/1.1/DTD/svg11.dtd">
<svg xmlns:xlink="http://www.w3.org/1999/xlink" width="864pt" height="864pt" viewBox="0 0 864 864" xmlns="http://www.w3.org/2000/svg" version="1.1">
 <metadata>
  <rdf:RDF xmlns:dc="http://purl.org/dc/elements/1.1/" xmlns:cc="http://creativecommons.org/ns#" xmlns:rdf="http://www.w3.org/1999/02/22-rdf-syntax-ns#">
   <cc:Work>
    <dc:type rdf:resource="http://purl.org/dc/dcmitype/StillImage"/>
    <dc:date>2022-02-07T12:10:05.089029</dc:date>
    <dc:format>image/svg+xml</dc:format>
    <dc:creator>
     <cc:Agent>
      <dc:title>Matplotlib v3.5.1, https://matplotlib.org/</dc:title>
     </cc:Agent>
    </dc:creator>
   </cc:Work>
  </rdf:RDF>
 </metadata>
 <defs>
  <style type="text/css">*{stroke-linejoin: round; stroke-linecap: butt}</style>
 </defs>
 <g id="figure_1">
  <g id="patch_1">
   <path d="M 0 864 
L 864 864 
L 864 0 
L 0 0 
z
" style="fill: #ffffff"/>
  </g>
  <g id="axes_1">
   <g id="patch_2">
    <path d="M 108 768.96 
L 777.6 768.96 
L 777.6 103.68 
L 108 103.68 
z
" style="fill: #ffffff"/>
   </g>
   <g id="PolyCollection_1">
    <defs>
     <path id="m5ccefc89ba" d="M 141.706522 -95.040004 
L 141.706522 -95.04 
L 144.731647 -95.04 
L 147.756772 -95.04 
L 150.781898 -95.04 
L 153.807023 -95.04 
L 156.832148 -95.04 
L 159.857274 -95.04 
L 162.882399 -95.04 
L 165.907524 -95.04 
L 168.93265 -95.04 
L 171.957775 -95.04 
L 174.9829 -95.04 
L 178.008026 -95.04 
L 181.033151 -95.04 
L 184.058276 -95.04 
L 187.083402 -95.04 
L 190.108527 -95.04 
L 193.133652 -95.04 
L 196.158778 -95.04 
L 199.183903 -95.04 
L 202.209028 -95.04 
L 205.234154 -95.04 
L 208.259279 -95.04 
L 211.284404 -95.04 
L 214.30953 -95.04 
L 217.334655 -95.04 
L 220.35978 -95.04 
L 223.384906 -95.04 
L 226.410031 -95.04 
L 229.435156 -95.04 
L 232.460282 -95.04 
L 235.485407 -95.04 
L 238.510532 -95.04 
L 241.535658 -95.04 
L 244.560783 -95.04 
L 247.585908 -95.04 
L 250.611034 -95.04 
L 253.636159 -95.04 
L 256.661284 -95.04 
L 259.68641 -95.04 
L 262.711535 -95.04 
L 265.73666 -95.04 
L 268.761786 -95.04 
L 271.786911 -95.04 
L 274.812036 -95.04 
L 277.837162 -95.04 
L 280.862287 -95.04 
L 283.887412 -95.04 
L 286.912538 -95.04 
L 289.937663 -95.04 
L 292.962788 -95.04 
L 295.987914 -95.04 
L 299.013039 -95.04 
L 302.038164 -95.04 
L 305.06329 -95.04 
L 308.088415 -95.04 
L 311.11354 -95.04 
L 314.138666 -95.04 
L 317.163791 -95.04 
L 320.188916 -95.04 
L 323.214042 -95.04 
L 326.239167 -95.04 
L 329.264292 -95.04 
L 332.289418 -95.04 
L 335.314543 -95.04 
L 338.339668 -95.04 
L 341.364794 -95.04 
L 344.389919 -95.04 
L 347.415045 -95.04 
L 350.44017 -95.04 
L 353.465295 -95.04 
L 356.490421 -95.04 
L 359.515546 -95.04 
L 362.540671 -95.04 
L 365.565797 -95.04 
L 368.590922 -95.04 
L 371.616047 -95.04 
L 374.641173 -95.04 
L 377.666298 -95.04 
L 380.691423 -95.04 
L 383.716549 -95.04 
L 386.741674 -95.04 
L 389.766799 -95.04 
L 392.791925 -95.04 
L 395.81705 -95.04 
L 398.842175 -95.04 
L 401.867301 -95.04 
L 404.892426 -95.04 
L 407.917551 -95.04 
L 410.942677 -95.04 
L 413.967802 -95.04 
L 416.992927 -95.04 
L 420.018053 -95.04 
L 423.043178 -95.04 
L 426.068303 -95.04 
L 429.093429 -95.04 
L 432.118554 -95.04 
L 435.143679 -95.04 
L 438.168805 -95.04 
L 441.19393 -95.04 
L 444.219055 -95.04 
L 447.244181 -95.04 
L 450.269306 -95.04 
L 453.294431 -95.04 
L 456.319557 -95.04 
L 459.344682 -95.04 
L 462.369807 -95.04 
L 465.394933 -95.04 
L 468.420058 -95.04 
L 471.445183 -95.04 
L 474.470309 -95.04 
L 477.495434 -95.04 
L 480.520559 -95.04 
L 483.545685 -95.04 
L 486.57081 -95.04 
L 489.595935 -95.04 
L 492.621061 -95.04 
L 495.646186 -95.04 
L 498.671311 -95.04 
L 501.696437 -95.04 
L 504.721562 -95.04 
L 507.746687 -95.04 
L 510.771813 -95.04 
L 513.796938 -95.04 
L 516.822063 -95.04 
L 519.847189 -95.04 
L 522.872314 -95.04 
L 525.897439 -95.04 
L 528.922565 -95.04 
L 531.94769 -95.04 
L 534.972815 -95.04 
L 537.997941 -95.04 
L 541.023066 -95.04 
L 544.048191 -95.04 
L 547.073317 -95.04 
L 550.098442 -95.04 
L 553.123567 -95.04 
L 556.148693 -95.04 
L 559.173818 -95.04 
L 562.198943 -95.04 
L 565.224069 -95.04 
L 568.249194 -95.04 
L 571.274319 -95.04 
L 574.299445 -95.04 
L 577.32457 -95.04 
L 580.349695 -95.04 
L 583.374821 -95.04 
L 586.399946 -95.04 
L 589.425071 -95.04 
L 592.450197 -95.04 
L 595.475322 -95.04 
L 598.500447 -95.04 
L 601.525573 -95.04 
L 604.550698 -95.04 
L 607.575823 -95.04 
L 610.600949 -95.04 
L 613.626074 -95.04 
L 616.651199 -95.04 
L 619.676325 -95.04 
L 622.70145 -95.04 
L 625.726575 -95.04 
L 628.751701 -95.04 
L 631.776826 -95.04 
L 634.801951 -95.04 
L 637.827077 -95.04 
L 640.852202 -95.04 
L 643.877327 -95.04 
L 646.902453 -95.04 
L 649.927578 -95.04 
L 652.952703 -95.04 
L 655.977829 -95.04 
L 659.002954 -95.04 
L 662.028079 -95.04 
L 665.053205 -95.04 
L 668.07833 -95.04 
L 671.103455 -95.04 
L 674.128581 -95.04 
L 677.153706 -95.04 
L 680.178831 -95.04 
L 683.203957 -95.04 
L 686.229082 -95.04 
L 689.254207 -95.04 
L 692.279333 -95.04 
L 695.304458 -95.04 
L 698.329583 -95.04 
L 701.354709 -95.04 
L 704.379834 -95.04 
L 707.404959 -95.04 
L 710.430085 -95.04 
L 713.45521 -95.04 
L 716.480335 -95.04 
L 719.505461 -95.04 
L 722.530586 -95.04 
L 725.555711 -95.04 
L 728.580837 -95.04 
L 731.605962 -95.04 
L 734.631087 -95.04 
L 737.656213 -95.04 
L 740.681338 -95.04 
L 743.706463 -95.04 
L 743.706463 -95.077119 
L 743.706463 -95.077119 
L 740.681338 -95.82172 
L 737.656213 -98.198673 
L 734.631087 -97.76499 
L 731.605962 -96.14709 
L 728.580837 -95.925278 
L 725.555711 -95.98921 
L 722.530586 -96.270104 
L 719.505461 -96.623133 
L 716.480335 -97.007472 
L 713.45521 -97.528494 
L 710.430085 -97.875163 
L 707.404959 -98.086405 
L 704.379834 -98.334916 
L 701.354709 -98.570313 
L 698.329583 -99.082437 
L 695.304458 -99.82324 
L 692.279333 -100.365366 
L 689.254207 -100.991508 
L 686.229082 -101.755427 
L 683.203957 -102.687956 
L 680.178831 -103.521608 
L 677.153706 -104.424097 
L 674.128581 -105.746088 
L 671.103455 -106.792485 
L 668.07833 -107.861903 
L 665.053205 -108.950179 
L 662.028079 -110.046255 
L 659.002954 -111.239222 
L 655.977829 -112.170476 
L 652.952703 -113.491388 
L 649.927578 -114.639101 
L 646.902453 -115.145611 
L 643.877327 -116.622064 
L 640.852202 -117.972525 
L 637.827077 -119.028969 
L 634.801951 -120.946758 
L 631.776826 -123.101654 
L 628.751701 -124.381417 
L 625.726575 -125.004471 
L 622.70145 -126.115481 
L 619.676325 -127.816274 
L 616.651199 -128.833479 
L 613.626074 -128.912453 
L 610.600949 -129.216087 
L 607.575823 -130.084534 
L 604.550698 -131.632492 
L 601.525573 -133.352588 
L 598.500447 -135.25231 
L 595.475322 -136.820279 
L 592.450197 -137.966633 
L 589.425071 -139.21577 
L 586.399946 -140.842249 
L 583.374821 -142.804585 
L 580.349695 -145.06037 
L 577.32457 -146.763644 
L 574.299445 -149.254139 
L 571.274319 -151.757646 
L 568.249194 -153.051864 
L 565.224069 -155.011582 
L 562.198943 -158.356896 
L 559.173818 -161.404551 
L 556.148693 -162.619348 
L 553.123567 -164.270229 
L 550.098442 -166.442313 
L 547.073317 -168.159545 
L 544.048191 -170.27839 
L 541.023066 -172.437994 
L 537.997941 -176.506569 
L 534.972815 -181.684932 
L 531.94769 -185.236383 
L 528.922565 -186.795508 
L 525.897439 -188.663032 
L 522.872314 -192.08414 
L 519.847189 -194.238585 
L 516.822063 -193.727266 
L 513.796938 -193.147727 
L 510.771813 -191.740549 
L 507.746687 -189.190955 
L 504.721562 -187.361395 
L 501.696437 -189.383423 
L 498.671311 -193.97899 
L 495.646186 -197.815819 
L 492.621061 -204.233239 
L 489.595935 -215.006853 
L 486.57081 -225.224337 
L 483.545685 -233.909342 
L 480.520559 -242.116274 
L 477.495434 -252.164275 
L 474.470309 -265.133429 
L 471.445183 -281.373781 
L 468.420058 -298.244634 
L 465.394933 -310.401439 
L 462.369807 -323.727434 
L 459.344682 -341.231881 
L 456.319557 -362.875635 
L 453.294431 -387.320966 
L 450.269306 -410.382086 
L 447.244181 -434.240575 
L 444.219055 -459.910812 
L 441.19393 -484.526022 
L 438.168805 -504.707512 
L 435.143679 -521.653809 
L 432.118554 -539.022408 
L 429.093429 -557.339036 
L 426.068303 -573.778524 
L 423.043178 -591.585753 
L 420.018053 -608.245473 
L 416.992927 -619.229199 
L 413.967802 -630.660425 
L 410.942677 -640.675488 
L 407.917551 -643.809976 
L 404.892426 -640.425473 
L 401.867301 -631.947304 
L 398.842175 -625.034361 
L 395.81705 -624.057999 
L 392.791925 -620.356962 
L 389.766799 -615.54797 
L 386.741674 -608.372435 
L 383.716549 -593.6283 
L 380.691423 -578.430076 
L 377.666298 -566.806648 
L 374.641173 -558.691249 
L 371.616047 -552.724927 
L 368.590922 -548.878131 
L 365.565797 -548.583352 
L 362.540671 -546.099073 
L 359.515546 -536.776741 
L 356.490421 -523.680529 
L 353.465295 -508.66215 
L 350.44017 -494.174032 
L 347.415045 -481.368752 
L 344.389919 -465.413409 
L 341.364794 -451.913728 
L 338.339668 -440.980347 
L 335.314543 -428.24693 
L 332.289418 -412.630195 
L 329.264292 -396.891727 
L 326.239167 -380.032358 
L 323.214042 -362.127249 
L 320.188916 -343.686136 
L 317.163791 -326.852717 
L 314.138666 -313.02881 
L 311.11354 -303.284653 
L 308.088415 -297.551842 
L 305.06329 -290.394845 
L 302.038164 -280.638864 
L 299.013039 -269.342107 
L 295.987914 -255.819639 
L 292.962788 -242.360763 
L 289.937663 -228.847802 
L 286.912538 -216.315282 
L 283.887412 -205.685674 
L 280.862287 -196.361281 
L 277.837162 -190.306757 
L 274.812036 -186.02991 
L 271.786911 -180.447181 
L 268.761786 -173.513062 
L 265.73666 -166.827758 
L 262.711535 -160.389008 
L 259.68641 -154.944059 
L 256.661284 -150.503622 
L 253.636159 -145.970763 
L 250.611034 -141.672673 
L 247.585908 -137.4964 
L 244.560783 -133.234464 
L 241.535658 -128.505512 
L 238.510532 -123.490685 
L 235.485407 -118.63905 
L 232.460282 -114.44332 
L 229.435156 -111.69624 
L 226.410031 -109.737271 
L 223.384906 -107.481016 
L 220.35978 -105.556948 
L 217.334655 -104.087349 
L 214.30953 -102.263529 
L 211.284404 -100.610344 
L 208.259279 -99.576616 
L 205.234154 -99.597247 
L 202.209028 -100.114796 
L 199.183903 -99.799838 
L 196.158778 -98.654286 
L 193.133652 -97.475683 
L 190.108527 -96.570529 
L 187.083402 -95.978314 
L 184.058276 -95.708077 
L 181.033151 -95.733083 
L 178.008026 -95.948168 
L 174.9829 -95.911775 
L 171.957775 -95.615016 
L 168.93265 -95.420822 
L 165.907524 -95.312503 
L 162.882399 -95.570701 
L 159.857274 -95.913561 
L 156.832148 -95.603257 
L 153.807023 -95.164125 
L 150.781898 -95.05089 
L 147.756772 -95.040937 
L 144.731647 -95.040106 
L 141.706522 -95.040004 
z
" style="stroke: #0000ff; stroke-width: 3"/>
    </defs>
    <g clip-path="url(#p31047bc1f3)">
     <use xlink:href="#m5ccefc89ba" x="0" y="864" style="fill: #0000ff; fill-opacity: 0.25; stroke: #0000ff; stroke-width: 3"/>
    </g>
   </g>
   <g id="PolyCollection_2">
    <defs>
     <path id="m709cb84bc5" d="M 138.436364 -95.040003 
L 138.436364 -95.04 
L 141.47547 -95.04 
L 144.514576 -95.04 
L 147.553683 -95.04 
L 150.592789 -95.04 
L 153.631895 -95.04 
L 156.671001 -95.04 
L 159.710108 -95.04 
L 162.749214 -95.04 
L 165.78832 -95.04 
L 168.827427 -95.04 
L 171.866533 -95.04 
L 174.905639 -95.04 
L 177.944746 -95.04 
L 180.983852 -95.04 
L 184.022958 -95.04 
L 187.062065 -95.04 
L 190.101171 -95.04 
L 193.140277 -95.04 
L 196.179383 -95.04 
L 199.21849 -95.04 
L 202.257596 -95.04 
L 205.296702 -95.04 
L 208.335809 -95.04 
L 211.374915 -95.04 
L 214.414021 -95.04 
L 217.453128 -95.04 
L 220.492234 -95.04 
L 223.53134 -95.04 
L 226.570447 -95.04 
L 229.609553 -95.04 
L 232.648659 -95.04 
L 235.687765 -95.04 
L 238.726872 -95.04 
L 241.765978 -95.04 
L 244.805084 -95.04 
L 247.844191 -95.04 
L 250.883297 -95.04 
L 253.922403 -95.04 
L 256.96151 -95.04 
L 260.000616 -95.04 
L 263.039722 -95.04 
L 266.078829 -95.04 
L 269.117935 -95.04 
L 272.157041 -95.04 
L 275.196147 -95.04 
L 278.235254 -95.04 
L 281.27436 -95.04 
L 284.313466 -95.04 
L 287.352573 -95.04 
L 290.391679 -95.04 
L 293.430785 -95.04 
L 296.469892 -95.04 
L 299.508998 -95.04 
L 302.548104 -95.04 
L 305.58721 -95.04 
L 308.626317 -95.04 
L 311.665423 -95.04 
L 314.704529 -95.04 
L 317.743636 -95.04 
L 320.782742 -95.04 
L 323.821848 -95.04 
L 326.860955 -95.04 
L 329.900061 -95.04 
L 332.939167 -95.04 
L 335.978274 -95.04 
L 339.01738 -95.04 
L 342.056486 -95.04 
L 345.095592 -95.04 
L 348.134699 -95.04 
L 351.173805 -95.04 
L 354.212911 -95.04 
L 357.252018 -95.04 
L 360.291124 -95.04 
L 363.33023 -95.04 
L 366.369337 -95.04 
L 369.408443 -95.04 
L 372.447549 -95.04 
L 375.486656 -95.04 
L 378.525762 -95.04 
L 381.564868 -95.04 
L 384.603974 -95.04 
L 387.643081 -95.04 
L 390.682187 -95.04 
L 393.721293 -95.04 
L 396.7604 -95.04 
L 399.799506 -95.04 
L 402.838612 -95.04 
L 405.877719 -95.04 
L 408.916825 -95.04 
L 411.955931 -95.04 
L 414.995038 -95.04 
L 418.034144 -95.04 
L 421.07325 -95.04 
L 424.112356 -95.04 
L 427.151463 -95.04 
L 430.190569 -95.04 
L 433.229675 -95.04 
L 436.268782 -95.04 
L 439.307888 -95.04 
L 442.346994 -95.04 
L 445.386101 -95.04 
L 448.425207 -95.04 
L 451.464313 -95.04 
L 454.503419 -95.04 
L 457.542526 -95.04 
L 460.581632 -95.04 
L 463.620738 -95.04 
L 466.659845 -95.04 
L 469.698951 -95.04 
L 472.738057 -95.04 
L 475.777164 -95.04 
L 478.81627 -95.04 
L 481.855376 -95.04 
L 484.894483 -95.04 
L 487.933589 -95.04 
L 490.972695 -95.04 
L 494.011801 -95.04 
L 497.050908 -95.04 
L 500.090014 -95.04 
L 503.12912 -95.04 
L 506.168227 -95.04 
L 509.207333 -95.04 
L 512.246439 -95.04 
L 515.285546 -95.04 
L 518.324652 -95.04 
L 521.363758 -95.04 
L 524.402865 -95.04 
L 527.441971 -95.04 
L 530.481077 -95.04 
L 533.520183 -95.04 
L 536.55929 -95.04 
L 539.598396 -95.04 
L 542.637502 -95.04 
L 545.676609 -95.04 
L 548.715715 -95.04 
L 551.754821 -95.04 
L 554.793928 -95.04 
L 557.833034 -95.04 
L 560.87214 -95.04 
L 563.911247 -95.04 
L 566.950353 -95.04 
L 569.989459 -95.04 
L 573.028565 -95.04 
L 576.067672 -95.04 
L 579.106778 -95.04 
L 582.145884 -95.04 
L 585.184991 -95.04 
L 588.224097 -95.04 
L 591.263203 -95.04 
L 594.30231 -95.04 
L 597.341416 -95.04 
L 600.380522 -95.04 
L 603.419629 -95.04 
L 606.458735 -95.04 
L 609.497841 -95.04 
L 612.536947 -95.04 
L 615.576054 -95.04 
L 618.61516 -95.04 
L 621.654266 -95.04 
L 624.693373 -95.04 
L 627.732479 -95.04 
L 630.771585 -95.04 
L 633.810692 -95.04 
L 636.849798 -95.04 
L 639.888904 -95.04 
L 642.92801 -95.04 
L 645.967117 -95.04 
L 649.006223 -95.04 
L 652.045329 -95.04 
L 655.084436 -95.04 
L 658.123542 -95.04 
L 661.162648 -95.04 
L 664.201755 -95.04 
L 667.240861 -95.04 
L 670.279967 -95.04 
L 673.319074 -95.04 
L 676.35818 -95.04 
L 679.397286 -95.04 
L 682.436392 -95.04 
L 685.475499 -95.04 
L 688.514605 -95.04 
L 691.553711 -95.04 
L 694.592818 -95.04 
L 697.631924 -95.04 
L 700.67103 -95.04 
L 703.710137 -95.04 
L 706.749243 -95.04 
L 709.788349 -95.04 
L 712.827456 -95.04 
L 715.866562 -95.04 
L 718.905668 -95.04 
L 721.944774 -95.04 
L 724.983881 -95.04 
L 728.022987 -95.04 
L 731.062093 -95.04 
L 734.1012 -95.04 
L 737.140306 -95.04 
L 740.179412 -95.04 
L 743.218519 -95.04 
L 743.218519 -95.105744 
L 743.218519 -95.105744 
L 740.179412 -96.681766 
L 737.140306 -101.021527 
L 734.1012 -98.731472 
L 731.062093 -96.271048 
L 728.022987 -96.233142 
L 724.983881 -96.663018 
L 721.944774 -97.152546 
L 718.905668 -97.580935 
L 715.866562 -98.010507 
L 712.827456 -98.529562 
L 709.788349 -98.944217 
L 706.749243 -99.124549 
L 703.710137 -99.208809 
L 700.67103 -99.945433 
L 697.631924 -101.091988 
L 694.592818 -102.205411 
L 691.553711 -102.692661 
L 688.514605 -102.916359 
L 685.475499 -103.550477 
L 682.436392 -104.315901 
L 679.397286 -105.472594 
L 676.35818 -106.845517 
L 673.319074 -108.429333 
L 670.279967 -109.734484 
L 667.240861 -111.010929 
L 664.201755 -112.256292 
L 661.162648 -113.512401 
L 658.123542 -115.112789 
L 655.084436 -116.260475 
L 652.045329 -117.033447 
L 649.006223 -117.852052 
L 645.967117 -119.020167 
L 642.92801 -120.21698 
L 639.888904 -121.226011 
L 636.849798 -122.570152 
L 633.810692 -124.015512 
L 630.771585 -125.698665 
L 627.732479 -127.431921 
L 624.693373 -128.91204 
L 621.654266 -130.585696 
L 618.61516 -132.016196 
L 615.576054 -132.770928 
L 612.536947 -132.790187 
L 609.497841 -132.252237 
L 606.458735 -132.24888 
L 603.419629 -133.823472 
L 600.380522 -135.556387 
L 597.341416 -137.659595 
L 594.30231 -139.856229 
L 591.263203 -141.609476 
L 588.224097 -142.821254 
L 585.184991 -144.377972 
L 582.145884 -146.162533 
L 579.106778 -147.843976 
L 576.067672 -149.313786 
L 573.028565 -151.463021 
L 569.989459 -152.92105 
L 566.950353 -154.199564 
L 563.911247 -155.457319 
L 560.87214 -157.375974 
L 557.833034 -159.41427 
L 554.793928 -160.713034 
L 551.754821 -161.383361 
L 548.715715 -161.908568 
L 545.676609 -162.239086 
L 542.637502 -161.273686 
L 539.598396 -160.042546 
L 536.55929 -160.788108 
L 533.520183 -162.809355 
L 530.481077 -164.944156 
L 527.441971 -166.011457 
L 524.402865 -166.646398 
L 521.363758 -167.18761 
L 518.324652 -165.013676 
L 515.285546 -161.940622 
L 512.246439 -159.085215 
L 509.207333 -156.922771 
L 506.168227 -156.564315 
L 503.12912 -157.158844 
L 500.090014 -157.76575 
L 497.050908 -156.963936 
L 494.011801 -156.568265 
L 490.972695 -160.592475 
L 487.933589 -167.219875 
L 484.894483 -174.267636 
L 481.855376 -181.660707 
L 478.81627 -190.920611 
L 475.777164 -203.567703 
L 472.738057 -216.944594 
L 469.698951 -231.165073 
L 466.659845 -240.192987 
L 463.620738 -248.413495 
L 460.581632 -260.935221 
L 457.542526 -274.856993 
L 454.503419 -294.479936 
L 451.464313 -318.463848 
L 448.425207 -343.946381 
L 445.386101 -369.191459 
L 442.346994 -391.381953 
L 439.307888 -409.372665 
L 436.268782 -422.294975 
L 433.229675 -433.209803 
L 430.190569 -446.235829 
L 427.151463 -458.978293 
L 424.112356 -468.604478 
L 421.07325 -480.347182 
L 418.034144 -492.049755 
L 414.995038 -498.489115 
L 411.955931 -506.986872 
L 408.916825 -519.262294 
L 405.877719 -522.557078 
L 402.838612 -523.289528 
L 399.799506 -525.784337 
L 396.7604 -532.599847 
L 393.721293 -539.062832 
L 390.682187 -548.419956 
L 387.643081 -560.80098 
L 384.603974 -568.762456 
L 381.564868 -573.644437 
L 378.525762 -579.072826 
L 375.486656 -587.214139 
L 372.447549 -596.406377 
L 369.408443 -604.750136 
L 366.369337 -610.146736 
L 363.33023 -616.655235 
L 360.291124 -618.124375 
L 357.252018 -614.729969 
L 354.212911 -608.784443 
L 351.173805 -600.997218 
L 348.134699 -595.388254 
L 345.095592 -582.096099 
L 342.056486 -565.963645 
L 339.01738 -552.174795 
L 335.978274 -535.013498 
L 332.939167 -513.814042 
L 329.900061 -494.354523 
L 326.860955 -473.958176 
L 323.821848 -455.137007 
L 320.782742 -438.808923 
L 317.743636 -423.061612 
L 314.704529 -407.256291 
L 311.665423 -392.086282 
L 308.626317 -382.40448 
L 305.58721 -375.843622 
L 302.548104 -365.798035 
L 299.508998 -351.634858 
L 296.469892 -334.30361 
L 293.430785 -318.546045 
L 290.391679 -304.914568 
L 287.352573 -291.361548 
L 284.313466 -278.06652 
L 281.27436 -263.479316 
L 278.235254 -251.705704 
L 275.196147 -243.125511 
L 272.157041 -234.047366 
L 269.117935 -223.507456 
L 266.078829 -214.854098 
L 263.039722 -207.626815 
L 260.000616 -199.82927 
L 256.96151 -191.695418 
L 253.922403 -183.307809 
L 250.883297 -174.787173 
L 247.844191 -167.809689 
L 244.805084 -161.616648 
L 241.765978 -155.827671 
L 238.726872 -149.205144 
L 235.687765 -141.288228 
L 232.648659 -134.406071 
L 229.609553 -129.280103 
L 226.570447 -124.074399 
L 223.53134 -119.259224 
L 220.492234 -115.548139 
L 217.453128 -112.470622 
L 214.414021 -109.349136 
L 211.374915 -106.698079 
L 208.335809 -104.593464 
L 205.296702 -104.088922 
L 202.257596 -105.013778 
L 199.21849 -104.931227 
L 196.179383 -103.204938 
L 193.140277 -100.759265 
L 190.101171 -98.55788 
L 187.062065 -97.242693 
L 184.022958 -96.71189 
L 180.983852 -96.739454 
L 177.944746 -96.979174 
L 174.905639 -96.654434 
L 171.866533 -95.904217 
L 168.827427 -95.574963 
L 165.78832 -95.558979 
L 162.749214 -96.094277 
L 159.710108 -96.754957 
L 156.671001 -96.114466 
L 153.631895 -95.297874 
L 150.592789 -95.079283 
L 147.553683 -95.045586 
L 144.514576 -95.040884 
L 141.47547 -95.040092 
L 138.436364 -95.040003 
z
" style="stroke: #ff0000; stroke-width: 3"/>
    </defs>
    <g clip-path="url(#p31047bc1f3)">
     <use xlink:href="#m709cb84bc5" x="0" y="864" style="fill: #ff0000; fill-opacity: 0.25; stroke: #ff0000; stroke-width: 3"/>
    </g>
   </g>
   <g id="PolyCollection_3">
    <defs>
     <path id="mc3970a137f" d="M 180.724989 -95.040075 
L 180.724989 -95.04 
L 183.571415 -95.04 
L 186.41784 -95.04 
L 189.264265 -95.04 
L 192.110691 -95.04 
L 194.957116 -95.04 
L 197.803541 -95.04 
L 200.649967 -95.04 
L 203.496392 -95.04 
L 206.342817 -95.04 
L 209.189243 -95.04 
L 212.035668 -95.04 
L 214.882094 -95.04 
L 217.728519 -95.04 
L 220.574944 -95.04 
L 223.42137 -95.04 
L 226.267795 -95.04 
L 229.11422 -95.04 
L 231.960646 -95.04 
L 234.807071 -95.04 
L 237.653496 -95.04 
L 240.499922 -95.04 
L 243.346347 -95.04 
L 246.192773 -95.04 
L 249.039198 -95.04 
L 251.885623 -95.04 
L 254.732049 -95.04 
L 257.578474 -95.04 
L 260.424899 -95.04 
L 263.271325 -95.04 
L 266.11775 -95.04 
L 268.964175 -95.04 
L 271.810601 -95.04 
L 274.657026 -95.04 
L 277.503452 -95.04 
L 280.349877 -95.04 
L 283.196302 -95.04 
L 286.042728 -95.04 
L 288.889153 -95.04 
L 291.735578 -95.04 
L 294.582004 -95.04 
L 297.428429 -95.04 
L 300.274854 -95.04 
L 303.12128 -95.04 
L 305.967705 -95.04 
L 308.814131 -95.04 
L 311.660556 -95.04 
L 314.506981 -95.04 
L 317.353407 -95.04 
L 320.199832 -95.04 
L 323.046257 -95.04 
L 325.892683 -95.04 
L 328.739108 -95.04 
L 331.585533 -95.04 
L 334.431959 -95.04 
L 337.278384 -95.04 
L 340.12481 -95.04 
L 342.971235 -95.04 
L 345.81766 -95.04 
L 348.664086 -95.04 
L 351.510511 -95.04 
L 354.356936 -95.04 
L 357.203362 -95.04 
L 360.049787 -95.04 
L 362.896212 -95.04 
L 365.742638 -95.04 
L 368.589063 -95.04 
L 371.435489 -95.04 
L 374.281914 -95.04 
L 377.128339 -95.04 
L 379.974765 -95.04 
L 382.82119 -95.04 
L 385.667615 -95.04 
L 388.514041 -95.04 
L 391.360466 -95.04 
L 394.206891 -95.04 
L 397.053317 -95.04 
L 399.899742 -95.04 
L 402.746167 -95.04 
L 405.592593 -95.04 
L 408.439018 -95.04 
L 411.285444 -95.04 
L 414.131869 -95.04 
L 416.978294 -95.04 
L 419.82472 -95.04 
L 422.671145 -95.04 
L 425.51757 -95.04 
L 428.363996 -95.04 
L 431.210421 -95.04 
L 434.056846 -95.04 
L 436.903272 -95.04 
L 439.749697 -95.04 
L 442.596123 -95.04 
L 445.442548 -95.04 
L 448.288973 -95.04 
L 451.135399 -95.04 
L 453.981824 -95.04 
L 456.828249 -95.04 
L 459.674675 -95.04 
L 462.5211 -95.04 
L 465.367525 -95.04 
L 468.213951 -95.04 
L 471.060376 -95.04 
L 473.906802 -95.04 
L 476.753227 -95.04 
L 479.599652 -95.04 
L 482.446078 -95.04 
L 485.292503 -95.04 
L 488.138928 -95.04 
L 490.985354 -95.04 
L 493.831779 -95.04 
L 496.678204 -95.04 
L 499.52463 -95.04 
L 502.371055 -95.04 
L 505.217481 -95.04 
L 508.063906 -95.04 
L 510.910331 -95.04 
L 513.756757 -95.04 
L 516.603182 -95.04 
L 519.449607 -95.04 
L 522.296033 -95.04 
L 525.142458 -95.04 
L 527.988883 -95.04 
L 530.835309 -95.04 
L 533.681734 -95.04 
L 536.52816 -95.04 
L 539.374585 -95.04 
L 542.22101 -95.04 
L 545.067436 -95.04 
L 547.913861 -95.04 
L 550.760286 -95.04 
L 553.606712 -95.04 
L 556.453137 -95.04 
L 559.299562 -95.04 
L 562.145988 -95.04 
L 564.992413 -95.04 
L 567.838839 -95.04 
L 570.685264 -95.04 
L 573.531689 -95.04 
L 576.378115 -95.04 
L 579.22454 -95.04 
L 582.070965 -95.04 
L 584.917391 -95.04 
L 587.763816 -95.04 
L 590.610241 -95.04 
L 593.456667 -95.04 
L 596.303092 -95.04 
L 599.149518 -95.04 
L 601.995943 -95.04 
L 604.842368 -95.04 
L 607.688794 -95.04 
L 610.535219 -95.04 
L 613.381644 -95.04 
L 616.22807 -95.04 
L 619.074495 -95.04 
L 621.92092 -95.04 
L 624.767346 -95.04 
L 627.613771 -95.04 
L 630.460197 -95.04 
L 633.306622 -95.04 
L 636.153047 -95.04 
L 638.999473 -95.04 
L 641.845898 -95.04 
L 644.692323 -95.04 
L 647.538749 -95.04 
L 650.385174 -95.04 
L 653.231599 -95.04 
L 656.078025 -95.04 
L 658.92445 -95.04 
L 661.770875 -95.04 
L 664.617301 -95.04 
L 667.463726 -95.04 
L 670.310152 -95.04 
L 673.156577 -95.04 
L 676.003002 -95.04 
L 678.849428 -95.04 
L 681.695853 -95.04 
L 684.542278 -95.04 
L 687.388704 -95.04 
L 690.235129 -95.04 
L 693.081554 -95.04 
L 695.92798 -95.04 
L 698.774405 -95.04 
L 701.620831 -95.04 
L 704.467256 -95.04 
L 707.313681 -95.04 
L 710.160107 -95.04 
L 713.006532 -95.04 
L 715.852957 -95.04 
L 718.699383 -95.04 
L 721.545808 -95.04 
L 724.392233 -95.04 
L 727.238659 -95.04 
L 730.085084 -95.04 
L 732.93151 -95.04 
L 735.777935 -95.04 
L 738.62436 -95.04 
L 741.470786 -95.04 
L 744.317211 -95.04 
L 747.163636 -95.04 
L 747.163636 -95.119857 
L 747.163636 -95.119857 
L 744.317211 -95.701589 
L 741.470786 -97.867955 
L 738.62436 -101.301877 
L 735.777935 -102.326371 
L 732.93151 -99.777768 
L 730.085084 -97.305179 
L 727.238659 -96.599866 
L 724.392233 -96.817829 
L 721.545808 -97.269954 
L 718.699383 -97.704452 
L 715.852957 -98.225731 
L 713.006532 -99.007723 
L 710.160107 -99.903423 
L 707.313681 -100.687707 
L 704.467256 -101.260514 
L 701.620831 -101.786631 
L 698.774405 -102.613456 
L 695.92798 -103.793293 
L 693.081554 -105.003757 
L 690.235129 -106.060466 
L 687.388704 -107.010666 
L 684.542278 -107.867842 
L 681.695853 -108.579924 
L 678.849428 -109.252742 
L 676.003002 -110.312032 
L 673.156577 -111.80714 
L 670.310152 -113.333046 
L 667.463726 -114.847675 
L 664.617301 -116.514353 
L 661.770875 -118.529353 
L 658.92445 -121.002669 
L 656.078025 -123.618804 
L 653.231599 -125.899886 
L 650.385174 -127.485261 
L 647.538749 -128.578561 
L 644.692323 -130.048795 
L 641.845898 -132.236583 
L 638.999473 -134.900637 
L 636.153047 -138.008388 
L 633.306622 -141.345941 
L 630.460197 -144.359404 
L 627.613771 -146.416731 
L 624.767346 -147.520998 
L 621.92092 -148.127636 
L 619.074495 -148.422047 
L 616.22807 -148.624576 
L 613.381644 -148.949652 
L 610.535219 -149.77753 
L 607.688794 -151.346743 
L 604.842368 -153.54548 
L 601.995943 -156.447455 
L 599.149518 -159.265217 
L 596.303092 -160.609415 
L 593.456667 -160.554731 
L 590.610241 -160.15376 
L 587.763816 -159.804759 
L 584.917391 -159.636189 
L 582.070965 -160.294089 
L 579.22454 -162.031837 
L 576.378115 -164.377464 
L 573.531689 -166.724184 
L 570.685264 -168.346004 
L 567.838839 -169.381422 
L 564.992413 -171.417992 
L 562.145988 -174.828875 
L 559.299562 -177.734699 
L 556.453137 -179.025832 
L 553.606712 -179.505684 
L 550.760286 -179.972898 
L 547.913861 -181.06275 
L 545.067436 -183.38172 
L 542.22101 -186.719212 
L 539.374585 -190.774845 
L 536.52816 -194.867801 
L 533.681734 -197.449424 
L 530.835309 -198.328827 
L 527.988883 -199.619057 
L 525.142458 -203.081564 
L 522.296033 -208.089871 
L 519.449607 -212.687935 
L 516.603182 -216.167158 
L 513.756757 -219.385071 
L 510.910331 -222.669161 
L 508.063906 -225.91517 
L 505.217481 -229.811104 
L 502.371055 -235.638575 
L 499.52463 -243.762469 
L 496.678204 -253.328672 
L 493.831779 -264.196218 
L 490.985354 -276.567518 
L 488.138928 -288.632064 
L 485.292503 -298.268448 
L 482.446078 -305.702084 
L 479.599652 -313.043479 
L 476.753227 -323.257941 
L 473.906802 -338.09985 
L 471.060376 -357.080279 
L 468.213951 -378.290869 
L 465.367525 -398.671468 
L 462.5211 -417.204215 
L 459.674675 -437.341648 
L 456.828249 -461.541615 
L 453.981824 -487.416527 
L 451.135399 -512.165042 
L 448.288973 -536.386651 
L 445.442548 -560.227933 
L 442.596123 -581.234161 
L 439.749697 -598.156306 
L 436.903272 -610.958599 
L 434.056846 -620.038384 
L 431.210421 -628.409229 
L 428.363996 -639.347976 
L 425.51757 -653.072188 
L 422.671145 -668.604302 
L 419.82472 -685.027878 
L 416.978294 -701.680332 
L 414.131869 -717.124028 
L 411.285444 -727.272554 
L 408.439018 -728.64 
L 405.592593 -720.577149 
L 402.746167 -706.249195 
L 399.899742 -693.21988 
L 397.053317 -686.769345 
L 394.206891 -684.365723 
L 391.360466 -678.708542 
L 388.514041 -662.70857 
L 385.667615 -635.505582 
L 382.82119 -604.406887 
L 379.974765 -575.31149 
L 377.128339 -548.755398 
L 374.281914 -523.849771 
L 371.435489 -499.588358 
L 368.589063 -478.417207 
L 365.742638 -463.898179 
L 362.896212 -453.10824 
L 360.049787 -439.854761 
L 357.203362 -421.689225 
L 354.356936 -398.700363 
L 351.510511 -372.022982 
L 348.664086 -344.54164 
L 345.81766 -318.952855 
L 342.971235 -297.470063 
L 340.12481 -281.337474 
L 337.278384 -269.051524 
L 334.431959 -258.048159 
L 331.585533 -247.429908 
L 328.739108 -237.142521 
L 325.892683 -226.444353 
L 323.046257 -215.016534 
L 320.199832 -204.416799 
L 317.353407 -197.218532 
L 314.506981 -194.236229 
L 311.660556 -193.379022 
L 308.814131 -191.523297 
L 305.967705 -187.038451 
L 303.12128 -181.193778 
L 300.274854 -175.888465 
L 297.428429 -170.36015 
L 294.582004 -162.574053 
L 291.735578 -152.745434 
L 288.889153 -143.778556 
L 286.042728 -138.181345 
L 283.196302 -136.102991 
L 280.349877 -136.540315 
L 277.503452 -137.853782 
L 274.657026 -137.895409 
L 271.810601 -135.632494 
L 268.964175 -132.000951 
L 266.11775 -128.425554 
L 263.271325 -125.117037 
L 260.424899 -122.072289 
L 257.578474 -120.113646 
L 254.732049 -119.334763 
L 251.885623 -118.798237 
L 249.039198 -117.361097 
L 246.192773 -114.437852 
L 243.346347 -110.523716 
L 240.499922 -106.622641 
L 237.653496 -103.657961 
L 234.807071 -101.985276 
L 231.960646 -101.32816 
L 229.11422 -101.04696 
L 226.267795 -100.485119 
L 223.42137 -99.536543 
L 220.574944 -98.57665 
L 217.728519 -97.728859 
L 214.882094 -96.837693 
L 212.035668 -96.017518 
L 209.189243 -95.504192 
L 206.342817 -95.278852 
L 203.496392 -95.197667 
L 200.649967 -95.164402 
L 197.803541 -95.130392 
L 194.957116 -95.091788 
L 192.110691 -95.064662 
L 189.264265 -95.050567 
L 186.41784 -95.043461 
L 183.571415 -95.04069 
L 180.724989 -95.040075 
z
" style="stroke: #008000; stroke-width: 3"/>
    </defs>
    <g clip-path="url(#p31047bc1f3)">
     <use xlink:href="#mc3970a137f" x="0" y="864" style="fill: #008000; fill-opacity: 0.25; stroke: #008000; stroke-width: 3"/>
    </g>
   </g>
   <g id="matplotlib.axis_1">
    <g id="xtick_1">
     <g id="line2d_1">
      <defs>
       <path id="md3da781261" d="M 0 0 
L 0 3.5 
" style="stroke: #000000; stroke-width: 0.8"/>
      </defs>
      <g>
       <use xlink:href="#md3da781261" x="139.207156" y="768.96" style="stroke: #000000; stroke-width: 0.8"/>
      </g>
     </g>
     <g id="text_1">
      <!-- 0.0 -->
      <g transform="translate(131.255593 783.558437)scale(0.1 -0.1)">
       <defs>
        <path id="DejaVuSans-30" d="M 2034 4250 
Q 1547 4250 1301 3770 
Q 1056 3291 1056 2328 
Q 1056 1369 1301 889 
Q 1547 409 2034 409 
Q 2525 409 2770 889 
Q 3016 1369 3016 2328 
Q 3016 3291 2770 3770 
Q 2525 4250 2034 4250 
z
M 2034 4750 
Q 2819 4750 3233 4129 
Q 3647 3509 3647 2328 
Q 3647 1150 3233 529 
Q 2819 -91 2034 -91 
Q 1250 -91 836 529 
Q 422 1150 422 2328 
Q 422 3509 836 4129 
Q 1250 4750 2034 4750 
z
" transform="scale(0.015625)"/>
        <path id="DejaVuSans-2e" d="M 684 794 
L 1344 794 
L 1344 0 
L 684 0 
L 684 794 
z
" transform="scale(0.015625)"/>
       </defs>
       <use xlink:href="#DejaVuSans-30"/>
       <use xlink:href="#DejaVuSans-2e" x="63.623047"/>
       <use xlink:href="#DejaVuSans-30" x="95.410156"/>
      </g>
     </g>
    </g>
    <g id="xtick_2">
     <g id="line2d_2">
      <g>
       <use xlink:href="#md3da781261" x="258.702581" y="768.96" style="stroke: #000000; stroke-width: 0.8"/>
      </g>
     </g>
     <g id="text_2">
      <!-- 0.2 -->
      <g transform="translate(250.751018 783.558437)scale(0.1 -0.1)">
       <defs>
        <path id="DejaVuSans-32" d="M 1228 531 
L 3431 531 
L 3431 0 
L 469 0 
L 469 531 
Q 828 903 1448 1529 
Q 2069 2156 2228 2338 
Q 2531 2678 2651 2914 
Q 2772 3150 2772 3378 
Q 2772 3750 2511 3984 
Q 2250 4219 1831 4219 
Q 1534 4219 1204 4116 
Q 875 4013 500 3803 
L 500 4441 
Q 881 4594 1212 4672 
Q 1544 4750 1819 4750 
Q 2544 4750 2975 4387 
Q 3406 4025 3406 3419 
Q 3406 3131 3298 2873 
Q 3191 2616 2906 2266 
Q 2828 2175 2409 1742 
Q 1991 1309 1228 531 
z
" transform="scale(0.015625)"/>
       </defs>
       <use xlink:href="#DejaVuSans-30"/>
       <use xlink:href="#DejaVuSans-2e" x="63.623047"/>
       <use xlink:href="#DejaVuSans-32" x="95.410156"/>
      </g>
     </g>
    </g>
    <g id="xtick_3">
     <g id="line2d_3">
      <g>
       <use xlink:href="#md3da781261" x="378.198006" y="768.96" style="stroke: #000000; stroke-width: 0.8"/>
      </g>
     </g>
     <g id="text_3">
      <!-- 0.4 -->
      <g transform="translate(370.246444 783.558437)scale(0.1 -0.1)">
       <defs>
        <path id="DejaVuSans-34" d="M 2419 4116 
L 825 1625 
L 2419 1625 
L 2419 4116 
z
M 2253 4666 
L 3047 4666 
L 3047 1625 
L 3713 1625 
L 3713 1100 
L 3047 1100 
L 3047 0 
L 2419 0 
L 2419 1100 
L 313 1100 
L 313 1709 
L 2253 4666 
z
" transform="scale(0.015625)"/>
       </defs>
       <use xlink:href="#DejaVuSans-30"/>
       <use xlink:href="#DejaVuSans-2e" x="63.623047"/>
       <use xlink:href="#DejaVuSans-34" x="95.410156"/>
      </g>
     </g>
    </g>
    <g id="xtick_4">
     <g id="line2d_4">
      <g>
       <use xlink:href="#md3da781261" x="497.693431" y="768.96" style="stroke: #000000; stroke-width: 0.8"/>
      </g>
     </g>
     <g id="text_4">
      <!-- 0.6 -->
      <g transform="translate(489.741869 783.558437)scale(0.1 -0.1)">
       <defs>
        <path id="DejaVuSans-36" d="M 2113 2584 
Q 1688 2584 1439 2293 
Q 1191 2003 1191 1497 
Q 1191 994 1439 701 
Q 1688 409 2113 409 
Q 2538 409 2786 701 
Q 3034 994 3034 1497 
Q 3034 2003 2786 2293 
Q 2538 2584 2113 2584 
z
M 3366 4563 
L 3366 3988 
Q 3128 4100 2886 4159 
Q 2644 4219 2406 4219 
Q 1781 4219 1451 3797 
Q 1122 3375 1075 2522 
Q 1259 2794 1537 2939 
Q 1816 3084 2150 3084 
Q 2853 3084 3261 2657 
Q 3669 2231 3669 1497 
Q 3669 778 3244 343 
Q 2819 -91 2113 -91 
Q 1303 -91 875 529 
Q 447 1150 447 2328 
Q 447 3434 972 4092 
Q 1497 4750 2381 4750 
Q 2619 4750 2861 4703 
Q 3103 4656 3366 4563 
z
" transform="scale(0.015625)"/>
       </defs>
       <use xlink:href="#DejaVuSans-30"/>
       <use xlink:href="#DejaVuSans-2e" x="63.623047"/>
       <use xlink:href="#DejaVuSans-36" x="95.410156"/>
      </g>
     </g>
    </g>
    <g id="xtick_5">
     <g id="line2d_5">
      <g>
       <use xlink:href="#md3da781261" x="617.188856" y="768.96" style="stroke: #000000; stroke-width: 0.8"/>
      </g>
     </g>
     <g id="text_5">
      <!-- 0.8 -->
      <g transform="translate(609.237294 783.558437)scale(0.1 -0.1)">
       <defs>
        <path id="DejaVuSans-38" d="M 2034 2216 
Q 1584 2216 1326 1975 
Q 1069 1734 1069 1313 
Q 1069 891 1326 650 
Q 1584 409 2034 409 
Q 2484 409 2743 651 
Q 3003 894 3003 1313 
Q 3003 1734 2745 1975 
Q 2488 2216 2034 2216 
z
M 1403 2484 
Q 997 2584 770 2862 
Q 544 3141 544 3541 
Q 544 4100 942 4425 
Q 1341 4750 2034 4750 
Q 2731 4750 3128 4425 
Q 3525 4100 3525 3541 
Q 3525 3141 3298 2862 
Q 3072 2584 2669 2484 
Q 3125 2378 3379 2068 
Q 3634 1759 3634 1313 
Q 3634 634 3220 271 
Q 2806 -91 2034 -91 
Q 1263 -91 848 271 
Q 434 634 434 1313 
Q 434 1759 690 2068 
Q 947 2378 1403 2484 
z
M 1172 3481 
Q 1172 3119 1398 2916 
Q 1625 2713 2034 2713 
Q 2441 2713 2670 2916 
Q 2900 3119 2900 3481 
Q 2900 3844 2670 4047 
Q 2441 4250 2034 4250 
Q 1625 4250 1398 4047 
Q 1172 3844 1172 3481 
z
" transform="scale(0.015625)"/>
       </defs>
       <use xlink:href="#DejaVuSans-30"/>
       <use xlink:href="#DejaVuSans-2e" x="63.623047"/>
       <use xlink:href="#DejaVuSans-38" x="95.410156"/>
      </g>
     </g>
    </g>
    <g id="xtick_6">
     <g id="line2d_6">
      <g>
       <use xlink:href="#md3da781261" x="736.684282" y="768.96" style="stroke: #000000; stroke-width: 0.8"/>
      </g>
     </g>
     <g id="text_6">
      <!-- 1.0 -->
      <g transform="translate(728.732719 783.558437)scale(0.1 -0.1)">
       <defs>
        <path id="DejaVuSans-31" d="M 794 531 
L 1825 531 
L 1825 4091 
L 703 3866 
L 703 4441 
L 1819 4666 
L 2450 4666 
L 2450 531 
L 3481 531 
L 3481 0 
L 794 0 
L 794 531 
z
" transform="scale(0.015625)"/>
       </defs>
       <use xlink:href="#DejaVuSans-31"/>
       <use xlink:href="#DejaVuSans-2e" x="63.623047"/>
       <use xlink:href="#DejaVuSans-30" x="95.410156"/>
      </g>
     </g>
    </g>
    <g id="text_7">
     <!-- Similarity -->
     <g transform="translate(404.97625 801.795625)scale(0.16 -0.16)">
      <defs>
       <path id="DejaVuSans-53" d="M 3425 4513 
L 3425 3897 
Q 3066 4069 2747 4153 
Q 2428 4238 2131 4238 
Q 1616 4238 1336 4038 
Q 1056 3838 1056 3469 
Q 1056 3159 1242 3001 
Q 1428 2844 1947 2747 
L 2328 2669 
Q 3034 2534 3370 2195 
Q 3706 1856 3706 1288 
Q 3706 609 3251 259 
Q 2797 -91 1919 -91 
Q 1588 -91 1214 -16 
Q 841 59 441 206 
L 441 856 
Q 825 641 1194 531 
Q 1563 422 1919 422 
Q 2459 422 2753 634 
Q 3047 847 3047 1241 
Q 3047 1584 2836 1778 
Q 2625 1972 2144 2069 
L 1759 2144 
Q 1053 2284 737 2584 
Q 422 2884 422 3419 
Q 422 4038 858 4394 
Q 1294 4750 2059 4750 
Q 2388 4750 2728 4690 
Q 3069 4631 3425 4513 
z
" transform="scale(0.015625)"/>
       <path id="DejaVuSans-69" d="M 603 3500 
L 1178 3500 
L 1178 0 
L 603 0 
L 603 3500 
z
M 603 4863 
L 1178 4863 
L 1178 4134 
L 603 4134 
L 603 4863 
z
" transform="scale(0.015625)"/>
       <path id="DejaVuSans-6d" d="M 3328 2828 
Q 3544 3216 3844 3400 
Q 4144 3584 4550 3584 
Q 5097 3584 5394 3201 
Q 5691 2819 5691 2113 
L 5691 0 
L 5113 0 
L 5113 2094 
Q 5113 2597 4934 2840 
Q 4756 3084 4391 3084 
Q 3944 3084 3684 2787 
Q 3425 2491 3425 1978 
L 3425 0 
L 2847 0 
L 2847 2094 
Q 2847 2600 2669 2842 
Q 2491 3084 2119 3084 
Q 1678 3084 1418 2786 
Q 1159 2488 1159 1978 
L 1159 0 
L 581 0 
L 581 3500 
L 1159 3500 
L 1159 2956 
Q 1356 3278 1631 3431 
Q 1906 3584 2284 3584 
Q 2666 3584 2933 3390 
Q 3200 3197 3328 2828 
z
" transform="scale(0.015625)"/>
       <path id="DejaVuSans-6c" d="M 603 4863 
L 1178 4863 
L 1178 0 
L 603 0 
L 603 4863 
z
" transform="scale(0.015625)"/>
       <path id="DejaVuSans-61" d="M 2194 1759 
Q 1497 1759 1228 1600 
Q 959 1441 959 1056 
Q 959 750 1161 570 
Q 1363 391 1709 391 
Q 2188 391 2477 730 
Q 2766 1069 2766 1631 
L 2766 1759 
L 2194 1759 
z
M 3341 1997 
L 3341 0 
L 2766 0 
L 2766 531 
Q 2569 213 2275 61 
Q 1981 -91 1556 -91 
Q 1019 -91 701 211 
Q 384 513 384 1019 
Q 384 1609 779 1909 
Q 1175 2209 1959 2209 
L 2766 2209 
L 2766 2266 
Q 2766 2663 2505 2880 
Q 2244 3097 1772 3097 
Q 1472 3097 1187 3025 
Q 903 2953 641 2809 
L 641 3341 
Q 956 3463 1253 3523 
Q 1550 3584 1831 3584 
Q 2591 3584 2966 3190 
Q 3341 2797 3341 1997 
z
" transform="scale(0.015625)"/>
       <path id="DejaVuSans-72" d="M 2631 2963 
Q 2534 3019 2420 3045 
Q 2306 3072 2169 3072 
Q 1681 3072 1420 2755 
Q 1159 2438 1159 1844 
L 1159 0 
L 581 0 
L 581 3500 
L 1159 3500 
L 1159 2956 
Q 1341 3275 1631 3429 
Q 1922 3584 2338 3584 
Q 2397 3584 2469 3576 
Q 2541 3569 2628 3553 
L 2631 2963 
z
" transform="scale(0.015625)"/>
       <path id="DejaVuSans-74" d="M 1172 4494 
L 1172 3500 
L 2356 3500 
L 2356 3053 
L 1172 3053 
L 1172 1153 
Q 1172 725 1289 603 
Q 1406 481 1766 481 
L 2356 481 
L 2356 0 
L 1766 0 
Q 1100 0 847 248 
Q 594 497 594 1153 
L 594 3053 
L 172 3053 
L 172 3500 
L 594 3500 
L 594 4494 
L 1172 4494 
z
" transform="scale(0.015625)"/>
       <path id="DejaVuSans-79" d="M 2059 -325 
Q 1816 -950 1584 -1140 
Q 1353 -1331 966 -1331 
L 506 -1331 
L 506 -850 
L 844 -850 
Q 1081 -850 1212 -737 
Q 1344 -625 1503 -206 
L 1606 56 
L 191 3500 
L 800 3500 
L 1894 763 
L 2988 3500 
L 3597 3500 
L 2059 -325 
z
" transform="scale(0.015625)"/>
      </defs>
      <use xlink:href="#DejaVuSans-53"/>
      <use xlink:href="#DejaVuSans-69" x="63.476562"/>
      <use xlink:href="#DejaVuSans-6d" x="91.259766"/>
      <use xlink:href="#DejaVuSans-69" x="188.671875"/>
      <use xlink:href="#DejaVuSans-6c" x="216.455078"/>
      <use xlink:href="#DejaVuSans-61" x="244.238281"/>
      <use xlink:href="#DejaVuSans-72" x="305.517578"/>
      <use xlink:href="#DejaVuSans-69" x="346.630859"/>
      <use xlink:href="#DejaVuSans-74" x="374.414062"/>
      <use xlink:href="#DejaVuSans-79" x="413.623047"/>
     </g>
    </g>
   </g>
   <g id="matplotlib.axis_2">
    <g id="ytick_1">
     <g id="line2d_7">
      <defs>
       <path id="mfd7ac66cec" d="M 0 0 
L -3.5 0 
" style="stroke: #000000; stroke-width: 0.8"/>
      </defs>
      <g>
       <use xlink:href="#mfd7ac66cec" x="108" y="768.96" style="stroke: #000000; stroke-width: 0.8"/>
      </g>
     </g>
     <g id="text_8">
      <!-- 0 -->
      <g transform="translate(94.6375 772.759219)scale(0.1 -0.1)">
       <use xlink:href="#DejaVuSans-30"/>
      </g>
     </g>
    </g>
    <g id="ytick_2">
     <g id="line2d_8">
      <g>
       <use xlink:href="#mfd7ac66cec" x="108" y="626.222427" style="stroke: #000000; stroke-width: 0.8"/>
      </g>
     </g>
     <g id="text_9">
      <!-- 1 -->
      <g transform="translate(94.6375 630.021646)scale(0.1 -0.1)">
       <use xlink:href="#DejaVuSans-31"/>
      </g>
     </g>
    </g>
    <g id="ytick_3">
     <g id="line2d_9">
      <g>
       <use xlink:href="#mfd7ac66cec" x="108" y="483.484854" style="stroke: #000000; stroke-width: 0.8"/>
      </g>
     </g>
     <g id="text_10">
      <!-- 2 -->
      <g transform="translate(94.6375 487.284072)scale(0.1 -0.1)">
       <use xlink:href="#DejaVuSans-32"/>
      </g>
     </g>
    </g>
    <g id="ytick_4">
     <g id="line2d_10">
      <g>
       <use xlink:href="#mfd7ac66cec" x="108" y="340.74728" style="stroke: #000000; stroke-width: 0.8"/>
      </g>
     </g>
     <g id="text_11">
      <!-- 3 -->
      <g transform="translate(94.6375 344.546499)scale(0.1 -0.1)">
       <defs>
        <path id="DejaVuSans-33" d="M 2597 2516 
Q 3050 2419 3304 2112 
Q 3559 1806 3559 1356 
Q 3559 666 3084 287 
Q 2609 -91 1734 -91 
Q 1441 -91 1130 -33 
Q 819 25 488 141 
L 488 750 
Q 750 597 1062 519 
Q 1375 441 1716 441 
Q 2309 441 2620 675 
Q 2931 909 2931 1356 
Q 2931 1769 2642 2001 
Q 2353 2234 1838 2234 
L 1294 2234 
L 1294 2753 
L 1863 2753 
Q 2328 2753 2575 2939 
Q 2822 3125 2822 3475 
Q 2822 3834 2567 4026 
Q 2313 4219 1838 4219 
Q 1578 4219 1281 4162 
Q 984 4106 628 3988 
L 628 4550 
Q 988 4650 1302 4700 
Q 1616 4750 1894 4750 
Q 2613 4750 3031 4423 
Q 3450 4097 3450 3541 
Q 3450 3153 3228 2886 
Q 3006 2619 2597 2516 
z
" transform="scale(0.015625)"/>
       </defs>
       <use xlink:href="#DejaVuSans-33"/>
      </g>
     </g>
    </g>
    <g id="ytick_5">
     <g id="line2d_11">
      <g>
       <use xlink:href="#mfd7ac66cec" x="108" y="198.009707" style="stroke: #000000; stroke-width: 0.8"/>
      </g>
     </g>
     <g id="text_12">
      <!-- 4 -->
      <g transform="translate(94.6375 201.808926)scale(0.1 -0.1)">
       <use xlink:href="#DejaVuSans-34"/>
      </g>
     </g>
    </g>
    <g id="text_13">
     <!-- Density -->
     <g transform="translate(87.31 466.73375)rotate(-90)scale(0.16 -0.16)">
      <defs>
       <path id="DejaVuSans-44" d="M 1259 4147 
L 1259 519 
L 2022 519 
Q 2988 519 3436 956 
Q 3884 1394 3884 2338 
Q 3884 3275 3436 3711 
Q 2988 4147 2022 4147 
L 1259 4147 
z
M 628 4666 
L 1925 4666 
Q 3281 4666 3915 4102 
Q 4550 3538 4550 2338 
Q 4550 1131 3912 565 
Q 3275 0 1925 0 
L 628 0 
L 628 4666 
z
" transform="scale(0.015625)"/>
       <path id="DejaVuSans-65" d="M 3597 1894 
L 3597 1613 
L 953 1613 
Q 991 1019 1311 708 
Q 1631 397 2203 397 
Q 2534 397 2845 478 
Q 3156 559 3463 722 
L 3463 178 
Q 3153 47 2828 -22 
Q 2503 -91 2169 -91 
Q 1331 -91 842 396 
Q 353 884 353 1716 
Q 353 2575 817 3079 
Q 1281 3584 2069 3584 
Q 2775 3584 3186 3129 
Q 3597 2675 3597 1894 
z
M 3022 2063 
Q 3016 2534 2758 2815 
Q 2500 3097 2075 3097 
Q 1594 3097 1305 2825 
Q 1016 2553 972 2059 
L 3022 2063 
z
" transform="scale(0.015625)"/>
       <path id="DejaVuSans-6e" d="M 3513 2113 
L 3513 0 
L 2938 0 
L 2938 2094 
Q 2938 2591 2744 2837 
Q 2550 3084 2163 3084 
Q 1697 3084 1428 2787 
Q 1159 2491 1159 1978 
L 1159 0 
L 581 0 
L 581 3500 
L 1159 3500 
L 1159 2956 
Q 1366 3272 1645 3428 
Q 1925 3584 2291 3584 
Q 2894 3584 3203 3211 
Q 3513 2838 3513 2113 
z
" transform="scale(0.015625)"/>
       <path id="DejaVuSans-73" d="M 2834 3397 
L 2834 2853 
Q 2591 2978 2328 3040 
Q 2066 3103 1784 3103 
Q 1356 3103 1142 2972 
Q 928 2841 928 2578 
Q 928 2378 1081 2264 
Q 1234 2150 1697 2047 
L 1894 2003 
Q 2506 1872 2764 1633 
Q 3022 1394 3022 966 
Q 3022 478 2636 193 
Q 2250 -91 1575 -91 
Q 1294 -91 989 -36 
Q 684 19 347 128 
L 347 722 
Q 666 556 975 473 
Q 1284 391 1588 391 
Q 1994 391 2212 530 
Q 2431 669 2431 922 
Q 2431 1156 2273 1281 
Q 2116 1406 1581 1522 
L 1381 1569 
Q 847 1681 609 1914 
Q 372 2147 372 2553 
Q 372 3047 722 3315 
Q 1072 3584 1716 3584 
Q 2034 3584 2315 3537 
Q 2597 3491 2834 3397 
z
" transform="scale(0.015625)"/>
      </defs>
      <use xlink:href="#DejaVuSans-44"/>
      <use xlink:href="#DejaVuSans-65" x="77.001953"/>
      <use xlink:href="#DejaVuSans-6e" x="138.525391"/>
      <use xlink:href="#DejaVuSans-73" x="201.904297"/>
      <use xlink:href="#DejaVuSans-69" x="254.003906"/>
      <use xlink:href="#DejaVuSans-74" x="281.787109"/>
      <use xlink:href="#DejaVuSans-79" x="320.996094"/>
     </g>
    </g>
   </g>
   <g id="patch_3">
    <path d="M 108 768.96 
L 108 103.68 
" style="fill: none; stroke: #000000; stroke-width: 0.8; stroke-linejoin: miter; stroke-linecap: square"/>
   </g>
   <g id="patch_4">
    <path d="M 777.6 768.96 
L 777.6 103.68 
" style="fill: none; stroke: #000000; stroke-width: 0.8; stroke-linejoin: miter; stroke-linecap: square"/>
   </g>
   <g id="patch_5">
    <path d="M 108 768.96 
L 777.6 768.96 
" style="fill: none; stroke: #000000; stroke-width: 0.8; stroke-linejoin: miter; stroke-linecap: square"/>
   </g>
   <g id="patch_6">
    <path d="M 108 103.68 
L 777.6 103.68 
" style="fill: none; stroke: #000000; stroke-width: 0.8; stroke-linejoin: miter; stroke-linecap: square"/>
   </g>
   <g id="legend_1">
    <g id="patch_7">
     <path d="M 484.15 186.935 
L 766.4 186.935 
Q 769.6 186.935 769.6 183.735 
L 769.6 114.88 
Q 769.6 111.68 766.4 111.68 
L 484.15 111.68 
Q 480.95 111.68 480.95 114.88 
L 480.95 183.735 
Q 480.95 186.935 484.15 186.935 
z
" style="fill: #ffffff; opacity: 0.8; stroke: #cccccc; stroke-linejoin: miter"/>
    </g>
    <g id="patch_8">
     <path d="M 487.35 130.2375 
L 519.35 130.2375 
L 519.35 119.0375 
L 487.35 119.0375 
z
" style="fill: #0000ff; fill-opacity: 0.25; stroke: #0000ff; stroke-width: 3; stroke-linejoin: miter"/>
    </g>
    <g id="text_14">
     <!-- Training vs Test set similarity -->
     <g transform="translate(532.15 130.2375)scale(0.16 -0.16)">
      <defs>
       <path id="DejaVuSans-54" d="M -19 4666 
L 3928 4666 
L 3928 4134 
L 2272 4134 
L 2272 0 
L 1638 0 
L 1638 4134 
L -19 4134 
L -19 4666 
z
" transform="scale(0.015625)"/>
       <path id="DejaVuSans-67" d="M 2906 1791 
Q 2906 2416 2648 2759 
Q 2391 3103 1925 3103 
Q 1463 3103 1205 2759 
Q 947 2416 947 1791 
Q 947 1169 1205 825 
Q 1463 481 1925 481 
Q 2391 481 2648 825 
Q 2906 1169 2906 1791 
z
M 3481 434 
Q 3481 -459 3084 -895 
Q 2688 -1331 1869 -1331 
Q 1566 -1331 1297 -1286 
Q 1028 -1241 775 -1147 
L 775 -588 
Q 1028 -725 1275 -790 
Q 1522 -856 1778 -856 
Q 2344 -856 2625 -561 
Q 2906 -266 2906 331 
L 2906 616 
Q 2728 306 2450 153 
Q 2172 0 1784 0 
Q 1141 0 747 490 
Q 353 981 353 1791 
Q 353 2603 747 3093 
Q 1141 3584 1784 3584 
Q 2172 3584 2450 3431 
Q 2728 3278 2906 2969 
L 2906 3500 
L 3481 3500 
L 3481 434 
z
" transform="scale(0.015625)"/>
       <path id="DejaVuSans-20" transform="scale(0.015625)"/>
       <path id="DejaVuSans-76" d="M 191 3500 
L 800 3500 
L 1894 563 
L 2988 3500 
L 3597 3500 
L 2284 0 
L 1503 0 
L 191 3500 
z
" transform="scale(0.015625)"/>
      </defs>
      <use xlink:href="#DejaVuSans-54"/>
      <use xlink:href="#DejaVuSans-72" x="46.333984"/>
      <use xlink:href="#DejaVuSans-61" x="87.447266"/>
      <use xlink:href="#DejaVuSans-69" x="148.726562"/>
      <use xlink:href="#DejaVuSans-6e" x="176.509766"/>
      <use xlink:href="#DejaVuSans-69" x="239.888672"/>
      <use xlink:href="#DejaVuSans-6e" x="267.671875"/>
      <use xlink:href="#DejaVuSans-67" x="331.050781"/>
      <use xlink:href="#DejaVuSans-20" x="394.527344"/>
      <use xlink:href="#DejaVuSans-76" x="426.314453"/>
      <use xlink:href="#DejaVuSans-73" x="485.494141"/>
      <use xlink:href="#DejaVuSans-20" x="537.59375"/>
      <use xlink:href="#DejaVuSans-54" x="569.380859"/>
      <use xlink:href="#DejaVuSans-65" x="613.464844"/>
      <use xlink:href="#DejaVuSans-73" x="674.988281"/>
      <use xlink:href="#DejaVuSans-74" x="727.087891"/>
      <use xlink:href="#DejaVuSans-20" x="766.296875"/>
      <use xlink:href="#DejaVuSans-73" x="798.083984"/>
      <use xlink:href="#DejaVuSans-65" x="850.183594"/>
      <use xlink:href="#DejaVuSans-74" x="911.707031"/>
      <use xlink:href="#DejaVuSans-20" x="950.916016"/>
      <use xlink:href="#DejaVuSans-73" x="982.703125"/>
      <use xlink:href="#DejaVuSans-69" x="1034.802734"/>
      <use xlink:href="#DejaVuSans-6d" x="1062.585938"/>
      <use xlink:href="#DejaVuSans-69" x="1159.998047"/>
      <use xlink:href="#DejaVuSans-6c" x="1187.78125"/>
      <use xlink:href="#DejaVuSans-61" x="1215.564453"/>
      <use xlink:href="#DejaVuSans-72" x="1276.84375"/>
      <use xlink:href="#DejaVuSans-69" x="1317.957031"/>
      <use xlink:href="#DejaVuSans-74" x="1345.740234"/>
      <use xlink:href="#DejaVuSans-79" x="1384.949219"/>
     </g>
    </g>
    <g id="patch_9">
     <path d="M 487.35 153.7225 
L 519.35 153.7225 
L 519.35 142.5225 
L 487.35 142.5225 
z
" style="fill: #ff0000; fill-opacity: 0.25; stroke: #ff0000; stroke-width: 3; stroke-linejoin: miter"/>
    </g>
    <g id="text_15">
     <!-- Training set inner similarity -->
     <g transform="translate(532.15 153.7225)scale(0.16 -0.16)">
      <use xlink:href="#DejaVuSans-54"/>
      <use xlink:href="#DejaVuSans-72" x="46.333984"/>
      <use xlink:href="#DejaVuSans-61" x="87.447266"/>
      <use xlink:href="#DejaVuSans-69" x="148.726562"/>
      <use xlink:href="#DejaVuSans-6e" x="176.509766"/>
      <use xlink:href="#DejaVuSans-69" x="239.888672"/>
      <use xlink:href="#DejaVuSans-6e" x="267.671875"/>
      <use xlink:href="#DejaVuSans-67" x="331.050781"/>
      <use xlink:href="#DejaVuSans-20" x="394.527344"/>
      <use xlink:href="#DejaVuSans-73" x="426.314453"/>
      <use xlink:href="#DejaVuSans-65" x="478.414062"/>
      <use xlink:href="#DejaVuSans-74" x="539.9375"/>
      <use xlink:href="#DejaVuSans-20" x="579.146484"/>
      <use xlink:href="#DejaVuSans-69" x="610.933594"/>
      <use xlink:href="#DejaVuSans-6e" x="638.716797"/>
      <use xlink:href="#DejaVuSans-6e" x="702.095703"/>
      <use xlink:href="#DejaVuSans-65" x="765.474609"/>
      <use xlink:href="#DejaVuSans-72" x="826.998047"/>
      <use xlink:href="#DejaVuSans-20" x="868.111328"/>
      <use xlink:href="#DejaVuSans-73" x="899.898438"/>
      <use xlink:href="#DejaVuSans-69" x="951.998047"/>
      <use xlink:href="#DejaVuSans-6d" x="979.78125"/>
      <use xlink:href="#DejaVuSans-69" x="1077.193359"/>
      <use xlink:href="#DejaVuSans-6c" x="1104.976562"/>
      <use xlink:href="#DejaVuSans-61" x="1132.759766"/>
      <use xlink:href="#DejaVuSans-72" x="1194.039062"/>
      <use xlink:href="#DejaVuSans-69" x="1235.152344"/>
      <use xlink:href="#DejaVuSans-74" x="1262.935547"/>
      <use xlink:href="#DejaVuSans-79" x="1302.144531"/>
     </g>
    </g>
    <g id="patch_10">
     <path d="M 487.35 177.2075 
L 519.35 177.2075 
L 519.35 166.0075 
L 487.35 166.0075 
z
" style="fill: #008000; fill-opacity: 0.25; stroke: #008000; stroke-width: 3; stroke-linejoin: miter"/>
    </g>
    <g id="text_16">
     <!-- Test set inner similarity -->
     <g transform="translate(532.15 177.2075)scale(0.16 -0.16)">
      <use xlink:href="#DejaVuSans-54"/>
      <use xlink:href="#DejaVuSans-65" x="44.083984"/>
      <use xlink:href="#DejaVuSans-73" x="105.607422"/>
      <use xlink:href="#DejaVuSans-74" x="157.707031"/>
      <use xlink:href="#DejaVuSans-20" x="196.916016"/>
      <use xlink:href="#DejaVuSans-73" x="228.703125"/>
      <use xlink:href="#DejaVuSans-65" x="280.802734"/>
      <use xlink:href="#DejaVuSans-74" x="342.326172"/>
      <use xlink:href="#DejaVuSans-20" x="381.535156"/>
      <use xlink:href="#DejaVuSans-69" x="413.322266"/>
      <use xlink:href="#DejaVuSans-6e" x="441.105469"/>
      <use xlink:href="#DejaVuSans-6e" x="504.484375"/>
      <use xlink:href="#DejaVuSans-65" x="567.863281"/>
      <use xlink:href="#DejaVuSans-72" x="629.386719"/>
      <use xlink:href="#DejaVuSans-20" x="670.5"/>
      <use xlink:href="#DejaVuSans-73" x="702.287109"/>
      <use xlink:href="#DejaVuSans-69" x="754.386719"/>
      <use xlink:href="#DejaVuSans-6d" x="782.169922"/>
      <use xlink:href="#DejaVuSans-69" x="879.582031"/>
      <use xlink:href="#DejaVuSans-6c" x="907.365234"/>
      <use xlink:href="#DejaVuSans-61" x="935.148438"/>
      <use xlink:href="#DejaVuSans-72" x="996.427734"/>
      <use xlink:href="#DejaVuSans-69" x="1037.541016"/>
      <use xlink:href="#DejaVuSans-74" x="1065.324219"/>
      <use xlink:href="#DejaVuSans-79" x="1104.533203"/>
     </g>
    </g>
   </g>
  </g>
 </g>
 <defs>
  <clipPath id="p31047bc1f3">
   <rect x="108" y="103.68" width="669.6" height="665.28"/>
  </clipPath>
 </defs>
</svg>
