<?xml version="1.0" encoding="utf-8" standalone="no"?>
<!DOCTYPE svg PUBLIC "-//W3C//DTD SVG 1.1//EN"
  "http://www.w3.org/Graphics/SVG/1.1/DTD/svg11.dtd">
<svg xmlns:xlink="http://www.w3.org/1999/xlink" width="864pt" height="864pt" viewBox="0 0 864 864" xmlns="http://www.w3.org/2000/svg" version="1.1">
 <metadata>
  <rdf:RDF xmlns:dc="http://purl.org/dc/elements/1.1/" xmlns:cc="http://creativecommons.org/ns#" xmlns:rdf="http://www.w3.org/1999/02/22-rdf-syntax-ns#">
   <cc:Work>
    <dc:type rdf:resource="http://purl.org/dc/dcmitype/StillImage"/>
    <dc:date>2022-02-07T07:36:40.745111</dc:date>
    <dc:format>image/svg+xml</dc:format>
    <dc:creator>
     <cc:Agent>
      <dc:title>Matplotlib v3.5.1, https://matplotlib.org/</dc:title>
     </cc:Agent>
    </dc:creator>
   </cc:Work>
  </rdf:RDF>
 </metadata>
 <defs>
  <style type="text/css">*{stroke-linejoin: round; stroke-linecap: butt}</style>
 </defs>
 <g id="figure_1">
  <g id="patch_1">
   <path d="M 0 864 
L 864 864 
L 864 0 
L 0 0 
z
" style="fill: #ffffff"/>
  </g>
  <g id="axes_1">
   <g id="patch_2">
    <path d="M 108 768.96 
L 777.6 768.96 
L 777.6 103.68 
L 108 103.68 
z
" style="fill: #ffffff"/>
   </g>
   <g id="PolyCollection_1">
    <defs>
     <path id="me64737ba7b" d="M 139.497307 -95.040009 
L 139.497307 -95.04 
L 142.521221 -95.04 
L 145.545134 -95.04 
L 148.569048 -95.04 
L 151.592962 -95.04 
L 154.616876 -95.04 
L 157.640789 -95.04 
L 160.664703 -95.04 
L 163.688617 -95.04 
L 166.712531 -95.04 
L 169.736444 -95.04 
L 172.760358 -95.04 
L 175.784272 -95.04 
L 178.808186 -95.04 
L 181.8321 -95.04 
L 184.856013 -95.04 
L 187.879927 -95.04 
L 190.903841 -95.04 
L 193.927755 -95.04 
L 196.951668 -95.04 
L 199.975582 -95.04 
L 202.999496 -95.04 
L 206.02341 -95.04 
L 209.047323 -95.04 
L 212.071237 -95.04 
L 215.095151 -95.04 
L 218.119065 -95.04 
L 221.142978 -95.04 
L 224.166892 -95.04 
L 227.190806 -95.04 
L 230.21472 -95.04 
L 233.238633 -95.04 
L 236.262547 -95.04 
L 239.286461 -95.04 
L 242.310375 -95.04 
L 245.334289 -95.04 
L 248.358202 -95.04 
L 251.382116 -95.04 
L 254.40603 -95.04 
L 257.429944 -95.04 
L 260.453857 -95.04 
L 263.477771 -95.04 
L 266.501685 -95.04 
L 269.525599 -95.04 
L 272.549512 -95.04 
L 275.573426 -95.04 
L 278.59734 -95.04 
L 281.621254 -95.04 
L 284.645167 -95.04 
L 287.669081 -95.04 
L 290.692995 -95.04 
L 293.716909 -95.04 
L 296.740822 -95.04 
L 299.764736 -95.04 
L 302.78865 -95.04 
L 305.812564 -95.04 
L 308.836478 -95.04 
L 311.860391 -95.04 
L 314.884305 -95.04 
L 317.908219 -95.04 
L 320.932133 -95.04 
L 323.956046 -95.04 
L 326.97996 -95.04 
L 330.003874 -95.04 
L 333.027788 -95.04 
L 336.051701 -95.04 
L 339.075615 -95.04 
L 342.099529 -95.04 
L 345.123443 -95.04 
L 348.147356 -95.04 
L 351.17127 -95.04 
L 354.195184 -95.04 
L 357.219098 -95.04 
L 360.243011 -95.04 
L 363.266925 -95.04 
L 366.290839 -95.04 
L 369.314753 -95.04 
L 372.338666 -95.04 
L 375.36258 -95.04 
L 378.386494 -95.04 
L 381.410408 -95.04 
L 384.434322 -95.04 
L 387.458235 -95.04 
L 390.482149 -95.04 
L 393.506063 -95.04 
L 396.529977 -95.04 
L 399.55389 -95.04 
L 402.577804 -95.04 
L 405.601718 -95.04 
L 408.625632 -95.04 
L 411.649545 -95.04 
L 414.673459 -95.04 
L 417.697373 -95.04 
L 420.721287 -95.04 
L 423.7452 -95.04 
L 426.769114 -95.04 
L 429.793028 -95.04 
L 432.816942 -95.04 
L 435.840855 -95.04 
L 438.864769 -95.04 
L 441.888683 -95.04 
L 444.912597 -95.04 
L 447.936511 -95.04 
L 450.960424 -95.04 
L 453.984338 -95.04 
L 457.008252 -95.04 
L 460.032166 -95.04 
L 463.056079 -95.04 
L 466.079993 -95.04 
L 469.103907 -95.04 
L 472.127821 -95.04 
L 475.151734 -95.04 
L 478.175648 -95.04 
L 481.199562 -95.04 
L 484.223476 -95.04 
L 487.247389 -95.04 
L 490.271303 -95.04 
L 493.295217 -95.04 
L 496.319131 -95.04 
L 499.343044 -95.04 
L 502.366958 -95.04 
L 505.390872 -95.04 
L 508.414786 -95.04 
L 511.4387 -95.04 
L 514.462613 -95.04 
L 517.486527 -95.04 
L 520.510441 -95.04 
L 523.534355 -95.04 
L 526.558268 -95.04 
L 529.582182 -95.04 
L 532.606096 -95.04 
L 535.63001 -95.04 
L 538.653923 -95.04 
L 541.677837 -95.04 
L 544.701751 -95.04 
L 547.725665 -95.04 
L 550.749578 -95.04 
L 553.773492 -95.04 
L 556.797406 -95.04 
L 559.82132 -95.04 
L 562.845233 -95.04 
L 565.869147 -95.04 
L 568.893061 -95.04 
L 571.916975 -95.04 
L 574.940889 -95.04 
L 577.964802 -95.04 
L 580.988716 -95.04 
L 584.01263 -95.04 
L 587.036544 -95.04 
L 590.060457 -95.04 
L 593.084371 -95.04 
L 596.108285 -95.04 
L 599.132199 -95.04 
L 602.156112 -95.04 
L 605.180026 -95.04 
L 608.20394 -95.04 
L 611.227854 -95.04 
L 614.251767 -95.04 
L 617.275681 -95.04 
L 620.299595 -95.04 
L 623.323509 -95.04 
L 626.347422 -95.04 
L 629.371336 -95.04 
L 632.39525 -95.04 
L 635.419164 -95.04 
L 638.443078 -95.04 
L 641.466991 -95.04 
L 644.490905 -95.04 
L 647.514819 -95.04 
L 650.538733 -95.04 
L 653.562646 -95.04 
L 656.58656 -95.04 
L 659.610474 -95.04 
L 662.634388 -95.04 
L 665.658301 -95.04 
L 668.682215 -95.04 
L 671.706129 -95.04 
L 674.730043 -95.04 
L 677.753956 -95.04 
L 680.77787 -95.04 
L 683.801784 -95.04 
L 686.825698 -95.04 
L 689.849611 -95.04 
L 692.873525 -95.04 
L 695.897439 -95.04 
L 698.921353 -95.04 
L 701.945267 -95.04 
L 704.96918 -95.04 
L 707.993094 -95.04 
L 711.017008 -95.04 
L 714.040922 -95.04 
L 717.064835 -95.04 
L 720.088749 -95.04 
L 723.112663 -95.04 
L 726.136577 -95.04 
L 729.16049 -95.04 
L 732.184404 -95.04 
L 735.208318 -95.04 
L 738.232232 -95.04 
L 741.256145 -95.04 
L 741.256145 -95.040138 
L 741.256145 -95.040138 
L 738.232232 -95.045272 
L 735.208318 -95.094974 
L 732.184404 -95.257692 
L 729.16049 -95.464617 
L 726.136577 -95.53917 
L 723.112663 -95.64432 
L 720.088749 -95.875923 
L 717.064835 -96.127884 
L 714.040922 -96.351197 
L 711.017008 -96.730155 
L 707.993094 -97.168013 
L 704.96918 -97.607179 
L 701.945267 -98.200536 
L 698.921353 -98.791812 
L 695.897439 -99.445006 
L 692.873525 -99.88342 
L 689.849611 -100.297844 
L 686.825698 -100.843738 
L 683.801784 -101.567582 
L 680.77787 -102.934072 
L 677.753956 -104.292781 
L 674.730043 -105.73448 
L 671.706129 -107.304147 
L 668.682215 -108.616537 
L 665.658301 -109.519361 
L 662.634388 -110.76536 
L 659.610474 -112.390767 
L 656.58656 -113.904909 
L 653.562646 -115.667269 
L 650.538733 -117.58971 
L 647.514819 -118.100119 
L 644.490905 -118.94789 
L 641.466991 -120.785532 
L 638.443078 -121.986722 
L 635.419164 -123.079935 
L 632.39525 -125.81015 
L 629.371336 -128.662187 
L 626.347422 -130.395536 
L 623.323509 -131.746333 
L 620.299595 -134.302124 
L 617.275681 -137.027555 
L 614.251767 -138.319637 
L 611.227854 -137.936283 
L 608.20394 -139.157684 
L 605.180026 -141.453133 
L 602.156112 -143.71523 
L 599.132199 -146.014347 
L 596.108285 -148.411527 
L 593.084371 -150.073396 
L 590.060457 -151.678123 
L 587.036544 -152.999819 
L 584.01263 -154.545036 
L 580.988716 -156.993419 
L 577.964802 -158.536422 
L 574.940889 -160.472475 
L 571.916975 -164.031058 
L 568.893061 -165.688672 
L 565.869147 -164.448069 
L 562.845233 -165.301632 
L 559.82132 -169.875873 
L 556.797406 -171.751074 
L 553.773492 -171.129977 
L 550.749578 -171.313798 
L 547.725665 -172.916619 
L 544.701751 -175.686731 
L 541.677837 -178.290819 
L 538.653923 -181.253982 
L 535.63001 -188.218262 
L 532.606096 -198.066335 
L 529.582182 -204.09713 
L 526.558268 -205.645132 
L 523.534355 -206.082171 
L 520.510441 -204.991719 
L 517.486527 -200.216271 
L 514.462613 -197.064004 
L 511.4387 -195.667974 
L 508.414786 -193.911029 
L 505.390872 -191.469702 
L 502.366958 -188.887732 
L 499.343044 -187.346519 
L 496.319131 -186.761986 
L 493.295217 -187.731004 
L 490.271303 -195.425113 
L 487.247389 -205.659847 
L 484.223476 -213.287934 
L 481.199562 -221.873225 
L 478.175648 -234.114972 
L 475.151734 -251.189601 
L 472.127821 -271.737551 
L 469.103907 -292.987409 
L 466.079993 -307.290267 
L 463.056079 -316.275634 
L 460.032166 -328.457989 
L 457.008252 -343.958231 
L 453.984338 -366.778354 
L 450.960424 -394.883616 
L 447.936511 -421.14998 
L 444.912597 -447.08087 
L 441.888683 -474.305218 
L 438.864769 -497.719083 
L 435.840855 -512.777867 
L 432.816942 -525.154791 
L 429.793028 -542.102735 
L 426.769114 -562.337272 
L 423.7452 -574.133454 
L 420.721287 -582.808449 
L 417.697373 -593.079288 
L 414.673459 -605.313155 
L 411.649545 -619.893187 
L 408.625632 -638.331494 
L 405.601718 -651.13891 
L 402.577804 -658.782538 
L 399.55389 -666.473357 
L 396.529977 -671.640193 
L 393.506063 -674.3894 
L 390.482149 -680.593627 
L 387.458235 -686.681203 
L 384.434322 -681.278003 
L 381.410408 -672.602626 
L 378.386494 -671.413143 
L 375.36258 -677.221625 
L 372.338666 -681.590203 
L 369.314753 -685.345675 
L 366.290839 -685.472705 
L 363.266925 -685.859741 
L 360.243011 -687.214088 
L 357.219098 -682.545994 
L 354.195184 -669.364264 
L 351.17127 -652.51039 
L 348.147356 -638.968841 
L 345.123443 -615.899725 
L 342.099529 -590.364777 
L 339.075615 -568.173134 
L 336.051701 -546.714632 
L 333.027788 -523.809375 
L 330.003874 -499.219584 
L 326.97996 -476.483834 
L 323.956046 -454.879639 
L 320.932133 -437.40354 
L 317.908219 -422.755923 
L 314.884305 -407.791442 
L 311.860391 -390.703871 
L 308.836478 -379.182317 
L 305.812564 -369.782847 
L 302.78865 -357.992061 
L 299.764736 -346.306342 
L 296.740822 -332.935264 
L 293.716909 -316.431804 
L 290.692995 -298.379455 
L 287.669081 -282.330357 
L 284.645167 -269.292812 
L 281.621254 -259.005687 
L 278.59734 -251.63823 
L 275.573426 -244.690916 
L 272.549512 -235.658068 
L 269.525599 -226.098323 
L 266.501685 -217.93866 
L 263.477771 -210.856184 
L 260.453857 -202.743233 
L 257.429944 -193.520163 
L 254.40603 -184.688536 
L 251.382116 -175.61749 
L 248.358202 -167.163106 
L 245.334289 -159.676613 
L 242.310375 -152.944406 
L 239.286461 -146.163261 
L 236.262547 -139.404378 
L 233.238633 -133.475892 
L 230.21472 -128.979664 
L 227.190806 -123.857976 
L 224.166892 -118.164884 
L 221.142978 -113.689598 
L 218.119065 -111.07737 
L 215.095151 -108.677455 
L 212.071237 -106.14388 
L 209.047323 -104.108688 
L 206.02341 -102.373968 
L 202.999496 -101.565221 
L 199.975582 -101.310301 
L 196.951668 -100.568573 
L 193.927755 -99.019008 
L 190.903841 -97.471452 
L 187.879927 -96.561503 
L 184.856013 -96.108031 
L 181.8321 -95.943792 
L 178.808186 -96.063639 
L 175.784272 -96.044185 
L 172.760358 -95.677979 
L 169.736444 -95.416948 
L 166.712531 -95.345927 
L 163.688617 -95.522438 
L 160.664703 -95.913595 
L 157.640789 -95.861091 
L 154.616876 -95.355621 
L 151.592962 -95.095886 
L 148.569048 -95.047129 
L 145.545134 -95.041405 
L 142.521221 -95.040214 
L 139.497307 -95.040009 
z
" style="stroke: #0000ff; stroke-width: 3"/>
    </defs>
    <g clip-path="url(#p3c80316417)">
     <use xlink:href="#me64737ba7b" x="0" y="864" style="fill: #0000ff; fill-opacity: 0.25; stroke: #0000ff; stroke-width: 3"/>
    </g>
   </g>
   <g id="PolyCollection_2">
    <defs>
     <path id="me577e8ad6e" d="M 138.436364 -95.040003 
L 138.436364 -95.04 
L 141.470623 -95.04 
L 144.504883 -95.04 
L 147.539142 -95.04 
L 150.573402 -95.04 
L 153.607661 -95.04 
L 156.641921 -95.04 
L 159.67618 -95.04 
L 162.71044 -95.04 
L 165.744699 -95.04 
L 168.778959 -95.04 
L 171.813218 -95.04 
L 174.847478 -95.04 
L 177.881737 -95.04 
L 180.915997 -95.04 
L 183.950256 -95.04 
L 186.984516 -95.04 
L 190.018775 -95.04 
L 193.053035 -95.04 
L 196.087294 -95.04 
L 199.121554 -95.04 
L 202.155813 -95.04 
L 205.190073 -95.04 
L 208.224332 -95.04 
L 211.258592 -95.04 
L 214.292851 -95.04 
L 217.327111 -95.04 
L 220.36137 -95.04 
L 223.39563 -95.04 
L 226.429889 -95.04 
L 229.464149 -95.04 
L 232.498408 -95.04 
L 235.532668 -95.04 
L 238.566927 -95.04 
L 241.601187 -95.04 
L 244.635446 -95.04 
L 247.669706 -95.04 
L 250.703965 -95.04 
L 253.738225 -95.04 
L 256.772484 -95.04 
L 259.806744 -95.04 
L 262.841003 -95.04 
L 265.875263 -95.04 
L 268.909522 -95.04 
L 271.943782 -95.04 
L 274.978041 -95.04 
L 278.012301 -95.04 
L 281.04656 -95.04 
L 284.08082 -95.04 
L 287.115079 -95.04 
L 290.149339 -95.04 
L 293.183598 -95.04 
L 296.217858 -95.04 
L 299.252117 -95.04 
L 302.286377 -95.04 
L 305.320636 -95.04 
L 308.354896 -95.04 
L 311.389155 -95.04 
L 314.423415 -95.04 
L 317.457674 -95.04 
L 320.491934 -95.04 
L 323.526193 -95.04 
L 326.560453 -95.04 
L 329.594712 -95.04 
L 332.628972 -95.04 
L 335.663231 -95.04 
L 338.697491 -95.04 
L 341.73175 -95.04 
L 344.76601 -95.04 
L 347.800269 -95.04 
L 350.834529 -95.04 
L 353.868788 -95.04 
L 356.903048 -95.04 
L 359.937307 -95.04 
L 362.971567 -95.04 
L 366.005826 -95.04 
L 369.040086 -95.04 
L 372.074345 -95.04 
L 375.108605 -95.04 
L 378.142864 -95.04 
L 381.177124 -95.04 
L 384.211383 -95.04 
L 387.245643 -95.04 
L 390.279902 -95.04 
L 393.314162 -95.04 
L 396.348421 -95.04 
L 399.382681 -95.04 
L 402.41694 -95.04 
L 405.4512 -95.04 
L 408.485459 -95.04 
L 411.519719 -95.04 
L 414.553978 -95.04 
L 417.588238 -95.04 
L 420.622497 -95.04 
L 423.656757 -95.04 
L 426.691016 -95.04 
L 429.725276 -95.04 
L 432.759535 -95.04 
L 435.793795 -95.04 
L 438.828054 -95.04 
L 441.862314 -95.04 
L 444.896573 -95.04 
L 447.930833 -95.04 
L 450.965092 -95.04 
L 453.999352 -95.04 
L 457.033611 -95.04 
L 460.067871 -95.04 
L 463.10213 -95.04 
L 466.13639 -95.04 
L 469.170649 -95.04 
L 472.204909 -95.04 
L 475.239168 -95.04 
L 478.273428 -95.04 
L 481.307687 -95.04 
L 484.341947 -95.04 
L 487.376206 -95.04 
L 490.410466 -95.04 
L 493.444725 -95.04 
L 496.478985 -95.04 
L 499.513244 -95.04 
L 502.547504 -95.04 
L 505.581763 -95.04 
L 508.616023 -95.04 
L 511.650282 -95.04 
L 514.684542 -95.04 
L 517.718801 -95.04 
L 520.753061 -95.04 
L 523.78732 -95.04 
L 526.82158 -95.04 
L 529.855839 -95.04 
L 532.890099 -95.04 
L 535.924358 -95.04 
L 538.958618 -95.04 
L 541.992877 -95.04 
L 545.027137 -95.04 
L 548.061396 -95.04 
L 551.095656 -95.04 
L 554.129915 -95.04 
L 557.164175 -95.04 
L 560.198434 -95.04 
L 563.232694 -95.04 
L 566.266953 -95.04 
L 569.301213 -95.04 
L 572.335472 -95.04 
L 575.369732 -95.04 
L 578.403991 -95.04 
L 581.438251 -95.04 
L 584.47251 -95.04 
L 587.50677 -95.04 
L 590.541029 -95.04 
L 593.575289 -95.04 
L 596.609548 -95.04 
L 599.643808 -95.04 
L 602.678067 -95.04 
L 605.712327 -95.04 
L 608.746586 -95.04 
L 611.780846 -95.04 
L 614.815105 -95.04 
L 617.849365 -95.04 
L 620.883624 -95.04 
L 623.917884 -95.04 
L 626.952143 -95.04 
L 629.986403 -95.04 
L 633.020662 -95.04 
L 636.054922 -95.04 
L 639.089181 -95.04 
L 642.123441 -95.04 
L 645.1577 -95.04 
L 648.19196 -95.04 
L 651.226219 -95.04 
L 654.260479 -95.04 
L 657.294738 -95.04 
L 660.328998 -95.04 
L 663.363257 -95.04 
L 666.397517 -95.04 
L 669.431776 -95.04 
L 672.466036 -95.04 
L 675.500295 -95.04 
L 678.534555 -95.04 
L 681.568814 -95.04 
L 684.603074 -95.04 
L 687.637333 -95.04 
L 690.671593 -95.04 
L 693.705852 -95.04 
L 696.740112 -95.04 
L 699.774371 -95.04 
L 702.808631 -95.04 
L 705.84289 -95.04 
L 708.87715 -95.04 
L 711.911409 -95.04 
L 714.945669 -95.04 
L 717.979928 -95.04 
L 721.014188 -95.04 
L 724.048447 -95.04 
L 727.082707 -95.04 
L 730.116966 -95.04 
L 733.151226 -95.04 
L 736.185485 -95.04 
L 739.219745 -95.04 
L 742.254004 -95.04 
L 742.254004 -95.127583 
L 742.254004 -95.127583 
L 739.219745 -97.263745 
L 736.185485 -102.96432 
L 733.151226 -99.505646 
L 730.116966 -96.401362 
L 727.082707 -96.444596 
L 724.048447 -96.974281 
L 721.014188 -97.45971 
L 717.979928 -97.929652 
L 714.945669 -98.439331 
L 711.911409 -99.139262 
L 708.87715 -99.777465 
L 705.84289 -100.178054 
L 702.808631 -100.257419 
L 699.774371 -101.000468 
L 696.740112 -102.495828 
L 693.705852 -104.057667 
L 690.671593 -104.627439 
L 687.637333 -104.964457 
L 684.603074 -105.997342 
L 681.568814 -107.021868 
L 678.534555 -108.26793 
L 675.500295 -109.69915 
L 672.466036 -111.23467 
L 669.431776 -112.384194 
L 666.397517 -114.395763 
L 663.363257 -116.276267 
L 660.328998 -117.654935 
L 657.294738 -119.439631 
L 654.260479 -120.816584 
L 651.226219 -121.80973 
L 648.19196 -122.902147 
L 645.1577 -124.291247 
L 642.123441 -125.957177 
L 639.089181 -127.366687 
L 636.054922 -129.345408 
L 633.020662 -131.017275 
L 629.986403 -132.766888 
L 626.952143 -134.599252 
L 623.917884 -136.045343 
L 620.883624 -137.794111 
L 617.849365 -138.978165 
L 614.815105 -139.029606 
L 611.780846 -138.992038 
L 608.746586 -138.186601 
L 605.712327 -137.810427 
L 602.678067 -139.108386 
L 599.643808 -140.700749 
L 596.609548 -142.717315 
L 593.575289 -145.163243 
L 590.541029 -147.337432 
L 587.50677 -149.210917 
L 584.47251 -151.416724 
L 581.438251 -153.600383 
L 578.403991 -156.36863 
L 575.369732 -158.760558 
L 572.335472 -161.330145 
L 569.301213 -162.932346 
L 566.266953 -165.939553 
L 563.232694 -169.056571 
L 560.198434 -171.199462 
L 557.164175 -173.86838 
L 554.129915 -176.042683 
L 551.095656 -177.626285 
L 548.061396 -178.261866 
L 545.027137 -177.940438 
L 541.992877 -176.789094 
L 538.958618 -175.731388 
L 535.924358 -176.427727 
L 532.890099 -175.86168 
L 529.855839 -175.537819 
L 526.82158 -176.539933 
L 523.78732 -179.146791 
L 520.753061 -183.072279 
L 517.718801 -184.265091 
L 514.684542 -182.497387 
L 511.650282 -179.497767 
L 508.616023 -176.446455 
L 505.581763 -175.286356 
L 502.547504 -177.824096 
L 499.513244 -182.673713 
L 496.478985 -185.945051 
L 493.444725 -188.815301 
L 490.410466 -195.720284 
L 487.376206 -205.531825 
L 484.341947 -215.41299 
L 481.307687 -224.611737 
L 478.273428 -234.016063 
L 475.239168 -246.394078 
L 472.204909 -260.817141 
L 469.170649 -277.813034 
L 466.13639 -289.647337 
L 463.10213 -302.414754 
L 460.067871 -320.789838 
L 457.033611 -342.201815 
L 453.999352 -369.960555 
L 450.965092 -399.402061 
L 447.930833 -429.748825 
L 444.896573 -461.020447 
L 441.862314 -488.575463 
L 438.828054 -511.010694 
L 435.793795 -528.932483 
L 432.759535 -545.256083 
L 429.725276 -562.048788 
L 426.691016 -575.53888 
L 423.656757 -590.271171 
L 420.622497 -609.849831 
L 417.588238 -625.803624 
L 414.553978 -635.389653 
L 411.519719 -645.499929 
L 408.485459 -652.926882 
L 405.4512 -648.622744 
L 402.41694 -639.392402 
L 399.382681 -631.065043 
L 396.348421 -634.492297 
L 393.314162 -638.814467 
L 390.279902 -642.536125 
L 387.245643 -648.691261 
L 384.211383 -650.042992 
L 381.177124 -647.73355 
L 378.142864 -644.585485 
L 375.108605 -644.386729 
L 372.074345 -648.106011 
L 369.040086 -650.778507 
L 366.005826 -655.873561 
L 362.971567 -662.113362 
L 359.937307 -657.790666 
L 356.903048 -647.781264 
L 353.868788 -639.133982 
L 350.834529 -629.858832 
L 347.800269 -621.774711 
L 344.76601 -609.124411 
L 341.73175 -595.144163 
L 338.697491 -584.217799 
L 335.663231 -567.551372 
L 332.628972 -545.19922 
L 329.594712 -526.365225 
L 326.560453 -505.815483 
L 323.526193 -484.844717 
L 320.491934 -463.255111 
L 317.457674 -441.372125 
L 314.423415 -422.53377 
L 311.389155 -408.422868 
L 308.354896 -400.344697 
L 305.320636 -394.33468 
L 302.286377 -382.687751 
L 299.252117 -365.165225 
L 296.217858 -344.296322 
L 293.183598 -326.636579 
L 290.149339 -312.002521 
L 287.115079 -296.816871 
L 284.08082 -281.622262 
L 281.04656 -264.219475 
L 278.012301 -250.316418 
L 274.978041 -241.690172 
L 271.943782 -233.014868 
L 268.909522 -221.388245 
L 265.875263 -211.500109 
L 262.841003 -202.900104 
L 259.806744 -195.044997 
L 256.772484 -188.161823 
L 253.738225 -180.683517 
L 250.703965 -173.365596 
L 247.669706 -167.47214 
L 244.635446 -161.708843 
L 241.601187 -155.568059 
L 238.566927 -148.43509 
L 235.532668 -139.919248 
L 232.498408 -132.180722 
L 229.464149 -126.799281 
L 226.429889 -122.739954 
L 223.39563 -119.028354 
L 220.36137 -115.675416 
L 217.327111 -112.5243 
L 214.292851 -109.092201 
L 211.258592 -106.218843 
L 208.224332 -104.133421 
L 205.190073 -104.482693 
L 202.155813 -106.342315 
L 199.121554 -106.273412 
L 196.087294 -104.111179 
L 193.053035 -101.43682 
L 190.018775 -99.027829 
L 186.984516 -97.487689 
L 183.950256 -96.890919 
L 180.915997 -96.966632 
L 177.881737 -97.307922 
L 174.847478 -96.995151 
L 171.813218 -96.131847 
L 168.778959 -95.723955 
L 165.744699 -95.634886 
L 162.71044 -96.270776 
L 159.67618 -97.09149 
L 156.641921 -96.29999 
L 153.607661 -95.321417 
L 150.573402 -95.080293 
L 147.539142 -95.045489 
L 144.504883 -95.040737 
L 141.470623 -95.040087 
L 138.436364 -95.040003 
z
" style="stroke: #ff0000; stroke-width: 3"/>
    </defs>
    <g clip-path="url(#p3c80316417)">
     <use xlink:href="#me577e8ad6e" x="0" y="864" style="fill: #ff0000; fill-opacity: 0.25; stroke: #ff0000; stroke-width: 3"/>
    </g>
   </g>
   <g id="PolyCollection_3">
    <defs>
     <path id="m24591589ba" d="M 164.812827 -95.040033 
L 164.812827 -95.04 
L 167.739213 -95.04 
L 170.665599 -95.04 
L 173.591985 -95.04 
L 176.518371 -95.04 
L 179.444757 -95.04 
L 182.371143 -95.04 
L 185.297529 -95.04 
L 188.223915 -95.04 
L 191.150301 -95.04 
L 194.076687 -95.04 
L 197.003073 -95.04 
L 199.929459 -95.04 
L 202.855845 -95.04 
L 205.782231 -95.04 
L 208.708617 -95.04 
L 211.635003 -95.04 
L 214.561389 -95.04 
L 217.487775 -95.04 
L 220.414161 -95.04 
L 223.340547 -95.04 
L 226.266933 -95.04 
L 229.193319 -95.04 
L 232.119705 -95.04 
L 235.046091 -95.04 
L 237.972477 -95.04 
L 240.898862 -95.04 
L 243.825248 -95.04 
L 246.751634 -95.04 
L 249.67802 -95.04 
L 252.604406 -95.04 
L 255.530792 -95.04 
L 258.457178 -95.04 
L 261.383564 -95.04 
L 264.30995 -95.04 
L 267.236336 -95.04 
L 270.162722 -95.04 
L 273.089108 -95.04 
L 276.015494 -95.04 
L 278.94188 -95.04 
L 281.868266 -95.04 
L 284.794652 -95.04 
L 287.721038 -95.04 
L 290.647424 -95.04 
L 293.57381 -95.04 
L 296.500196 -95.04 
L 299.426582 -95.04 
L 302.352968 -95.04 
L 305.279354 -95.04 
L 308.20574 -95.04 
L 311.132126 -95.04 
L 314.058512 -95.04 
L 316.984898 -95.04 
L 319.911284 -95.04 
L 322.83767 -95.04 
L 325.764056 -95.04 
L 328.690442 -95.04 
L 331.616828 -95.04 
L 334.543214 -95.04 
L 337.4696 -95.04 
L 340.395986 -95.04 
L 343.322372 -95.04 
L 346.248758 -95.04 
L 349.175144 -95.04 
L 352.10153 -95.04 
L 355.027916 -95.04 
L 357.954302 -95.04 
L 360.880688 -95.04 
L 363.807073 -95.04 
L 366.733459 -95.04 
L 369.659845 -95.04 
L 372.586231 -95.04 
L 375.512617 -95.04 
L 378.439003 -95.04 
L 381.365389 -95.04 
L 384.291775 -95.04 
L 387.218161 -95.04 
L 390.144547 -95.04 
L 393.070933 -95.04 
L 395.997319 -95.04 
L 398.923705 -95.04 
L 401.850091 -95.04 
L 404.776477 -95.04 
L 407.702863 -95.04 
L 410.629249 -95.04 
L 413.555635 -95.04 
L 416.482021 -95.04 
L 419.408407 -95.04 
L 422.334793 -95.04 
L 425.261179 -95.04 
L 428.187565 -95.04 
L 431.113951 -95.04 
L 434.040337 -95.04 
L 436.966723 -95.04 
L 439.893109 -95.04 
L 442.819495 -95.04 
L 445.745881 -95.04 
L 448.672267 -95.04 
L 451.598653 -95.04 
L 454.525039 -95.04 
L 457.451425 -95.04 
L 460.377811 -95.04 
L 463.304197 -95.04 
L 466.230583 -95.04 
L 469.156969 -95.04 
L 472.083355 -95.04 
L 475.009741 -95.04 
L 477.936127 -95.04 
L 480.862513 -95.04 
L 483.788899 -95.04 
L 486.715284 -95.04 
L 489.64167 -95.04 
L 492.568056 -95.04 
L 495.494442 -95.04 
L 498.420828 -95.04 
L 501.347214 -95.04 
L 504.2736 -95.04 
L 507.199986 -95.04 
L 510.126372 -95.04 
L 513.052758 -95.04 
L 515.979144 -95.04 
L 518.90553 -95.04 
L 521.831916 -95.04 
L 524.758302 -95.04 
L 527.684688 -95.04 
L 530.611074 -95.04 
L 533.53746 -95.04 
L 536.463846 -95.04 
L 539.390232 -95.04 
L 542.316618 -95.04 
L 545.243004 -95.04 
L 548.16939 -95.04 
L 551.095776 -95.04 
L 554.022162 -95.04 
L 556.948548 -95.04 
L 559.874934 -95.04 
L 562.80132 -95.04 
L 565.727706 -95.04 
L 568.654092 -95.04 
L 571.580478 -95.04 
L 574.506864 -95.04 
L 577.43325 -95.04 
L 580.359636 -95.04 
L 583.286022 -95.04 
L 586.212408 -95.04 
L 589.138794 -95.04 
L 592.06518 -95.04 
L 594.991566 -95.04 
L 597.917952 -95.04 
L 600.844338 -95.04 
L 603.770724 -95.04 
L 606.69711 -95.04 
L 609.623495 -95.04 
L 612.549881 -95.04 
L 615.476267 -95.04 
L 618.402653 -95.04 
L 621.329039 -95.04 
L 624.255425 -95.04 
L 627.181811 -95.04 
L 630.108197 -95.04 
L 633.034583 -95.04 
L 635.960969 -95.04 
L 638.887355 -95.04 
L 641.813741 -95.04 
L 644.740127 -95.04 
L 647.666513 -95.04 
L 650.592899 -95.04 
L 653.519285 -95.04 
L 656.445671 -95.04 
L 659.372057 -95.04 
L 662.298443 -95.04 
L 665.224829 -95.04 
L 668.151215 -95.04 
L 671.077601 -95.04 
L 674.003987 -95.04 
L 676.930373 -95.04 
L 679.856759 -95.04 
L 682.783145 -95.04 
L 685.709531 -95.04 
L 688.635917 -95.04 
L 691.562303 -95.04 
L 694.488689 -95.04 
L 697.415075 -95.04 
L 700.341461 -95.04 
L 703.267847 -95.04 
L 706.194233 -95.04 
L 709.120619 -95.04 
L 712.047005 -95.04 
L 714.973391 -95.04 
L 717.899777 -95.04 
L 720.826163 -95.04 
L 723.752549 -95.04 
L 726.678935 -95.04 
L 729.605321 -95.04 
L 732.531706 -95.04 
L 735.458092 -95.04 
L 738.384478 -95.04 
L 741.310864 -95.04 
L 744.23725 -95.04 
L 747.163636 -95.04 
L 747.163636 -95.251054 
L 747.163636 -95.251054 
L 744.23725 -96.64511 
L 741.310864 -101.843111 
L 738.384478 -111.279235 
L 735.458092 -117.39849 
L 732.531706 -113.908262 
L 729.605321 -106.610512 
L 726.678935 -102.698562 
L 723.752549 -102.719008 
L 720.826163 -104.664785 
L 717.899777 -106.963308 
L 714.973391 -108.937225 
L 712.047005 -109.802204 
L 709.120619 -108.837796 
L 706.194233 -106.883918 
L 703.267847 -105.348813 
L 700.341461 -104.650904 
L 697.415075 -104.533002 
L 694.488689 -105.126456 
L 691.562303 -106.596343 
L 688.635917 -108.078277 
L 685.709531 -108.466553 
L 682.783145 -107.653192 
L 679.856759 -106.853817 
L 676.930373 -107.967499 
L 674.003987 -111.618974 
L 671.077601 -115.619869 
L 668.151215 -117.017293 
L 665.224829 -115.950354 
L 662.298443 -115.197704 
L 659.372057 -115.973642 
L 656.445671 -116.736724 
L 653.519285 -116.369395 
L 650.592899 -115.896396 
L 647.666513 -116.482969 
L 644.740127 -117.463052 
L 641.813741 -117.702862 
L 638.887355 -118.127858 
L 635.960969 -120.248534 
L 633.034583 -123.169548 
L 630.108197 -125.017117 
L 627.181811 -125.691564 
L 624.255425 -126.052761 
L 621.329039 -126.289352 
L 618.402653 -127.153482 
L 615.476267 -129.795009 
L 612.549881 -133.434951 
L 609.623495 -136.570128 
L 606.69711 -139.85496 
L 603.770724 -145.523208 
L 600.844338 -153.519118 
L 597.917952 -160.621498 
L 594.991566 -163.725207 
L 592.06518 -162.313241 
L 589.138794 -158.697425 
L 586.212408 -155.57299 
L 583.286022 -153.34036 
L 580.359636 -150.973721 
L 577.43325 -148.342029 
L 574.506864 -146.725985 
L 571.580478 -146.705836 
L 568.654092 -147.192872 
L 565.727706 -147.807265 
L 562.80132 -149.081429 
L 559.874934 -150.505636 
L 556.948548 -152.442688 
L 554.022162 -156.643611 
L 551.095776 -162.876027 
L 548.16939 -169.645886 
L 545.243004 -175.886176 
L 542.316618 -180.834799 
L 539.390232 -185.540468 
L 536.463846 -192.081135 
L 533.53746 -201.01871 
L 530.611074 -210.24196 
L 527.684688 -216.082665 
L 524.758302 -216.59191 
L 521.831916 -212.2906 
L 518.90553 -205.378337 
L 515.979144 -199.604202 
L 513.052758 -198.079129 
L 510.126372 -201.057645 
L 507.199986 -205.83932 
L 504.2736 -208.178108 
L 501.347214 -206.105959 
L 498.420828 -200.931782 
L 495.494442 -196.233299 
L 492.568056 -196.05149 
L 489.64167 -200.208018 
L 486.715284 -206.864638 
L 483.788899 -216.012617 
L 480.862513 -228.329019 
L 477.936127 -244.859514 
L 475.009741 -263.343733 
L 472.083355 -280.023459 
L 469.156969 -296.175496 
L 466.230583 -313.191284 
L 463.304197 -328.492908 
L 460.377811 -340.865081 
L 457.451425 -350.398943 
L 454.525039 -357.027647 
L 451.598653 -365.526729 
L 448.672267 -382.950734 
L 445.745881 -407.850473 
L 442.819495 -431.44087 
L 439.893109 -450.16119 
L 436.966723 -466.602026 
L 434.040337 -482.567025 
L 431.113951 -500.904395 
L 428.187565 -524.543771 
L 425.261179 -552.455307 
L 422.334793 -580.751758 
L 419.408407 -602.257903 
L 416.482021 -612.152975 
L 413.555635 -616.734789 
L 410.629249 -624.253922 
L 407.702863 -634.698359 
L 404.776477 -645.393012 
L 401.850091 -655.834145 
L 398.923705 -666.686451 
L 395.997319 -678.419705 
L 393.070933 -689.728909 
L 390.144547 -699.651804 
L 387.218161 -709.809026 
L 384.291775 -720.513174 
L 381.365389 -728.151355 
L 378.439003 -728.64 
L 375.512617 -723.044192 
L 372.586231 -716.981512 
L 369.659845 -713.99377 
L 366.733459 -712.999797 
L 363.807073 -712.247825 
L 360.880688 -710.391099 
L 357.954302 -704.214898 
L 355.027916 -688.49068 
L 352.10153 -662.683978 
L 349.175144 -634.396934 
L 346.248758 -607.430276 
L 343.322372 -578.948275 
L 340.395986 -552.112777 
L 337.4696 -533.030064 
L 334.543214 -518.775295 
L 331.616828 -500.90682 
L 328.690442 -475.336818 
L 325.764056 -447.129262 
L 322.83767 -424.531188 
L 319.911284 -409.835365 
L 316.984898 -399.151088 
L 314.058512 -386.436787 
L 311.132126 -368.57335 
L 308.20574 -349.113703 
L 305.279354 -334.830182 
L 302.352968 -327.936354 
L 299.426582 -323.402308 
L 296.500196 -315.285813 
L 293.57381 -302.690214 
L 290.647424 -287.751775 
L 287.721038 -273.255995 
L 284.794652 -261.660038 
L 281.868266 -253.67974 
L 278.94188 -248.73215 
L 276.015494 -244.973874 
L 273.089108 -240.209377 
L 270.162722 -233.803912 
L 267.236336 -226.437652 
L 264.30995 -218.740575 
L 261.383564 -210.486056 
L 258.457178 -201.309925 
L 255.530792 -191.619926 
L 252.604406 -181.77058 
L 249.67802 -171.605206 
L 246.751634 -161.58973 
L 243.825248 -152.92847 
L 240.898862 -145.841041 
L 237.972477 -139.807351 
L 235.046091 -135.025577 
L 232.119705 -131.463685 
L 229.193319 -127.580766 
L 226.266933 -122.112425 
L 223.340547 -116.109597 
L 220.414161 -111.310845 
L 217.487775 -108.069018 
L 214.561389 -105.91361 
L 211.635003 -104.294804 
L 208.708617 -102.603266 
L 205.782231 -100.507933 
L 202.855845 -98.428704 
L 199.929459 -96.985885 
L 197.003073 -96.18402 
L 194.076687 -95.734539 
L 191.150301 -95.477207 
L 188.223915 -95.320552 
L 185.297529 -95.208381 
L 182.371143 -95.126993 
L 179.444757 -95.077395 
L 176.518371 -95.054135 
L 173.591985 -95.044974 
L 170.665599 -95.041437 
L 167.739213 -95.04028 
L 164.812827 -95.040033 
z
" style="stroke: #008000; stroke-width: 3"/>
    </defs>
    <g clip-path="url(#p3c80316417)">
     <use xlink:href="#m24591589ba" x="0" y="864" style="fill: #008000; fill-opacity: 0.25; stroke: #008000; stroke-width: 3"/>
    </g>
   </g>
   <g id="matplotlib.axis_1">
    <g id="xtick_1">
     <g id="line2d_1">
      <defs>
       <path id="mb6161818b9" d="M 0 0 
L 0 3.5 
" style="stroke: #000000; stroke-width: 0.8"/>
      </defs>
      <g>
       <use xlink:href="#mb6161818b9" x="139.152176" y="768.96" style="stroke: #000000; stroke-width: 0.8"/>
      </g>
     </g>
     <g id="text_1">
      <!-- 0.0 -->
      <g transform="translate(131.200613 783.558437)scale(0.1 -0.1)">
       <defs>
        <path id="DejaVuSans-30" d="M 2034 4250 
Q 1547 4250 1301 3770 
Q 1056 3291 1056 2328 
Q 1056 1369 1301 889 
Q 1547 409 2034 409 
Q 2525 409 2770 889 
Q 3016 1369 3016 2328 
Q 3016 3291 2770 3770 
Q 2525 4250 2034 4250 
z
M 2034 4750 
Q 2819 4750 3233 4129 
Q 3647 3509 3647 2328 
Q 3647 1150 3233 529 
Q 2819 -91 2034 -91 
Q 1250 -91 836 529 
Q 422 1150 422 2328 
Q 422 3509 836 4129 
Q 1250 4750 2034 4750 
z
" transform="scale(0.015625)"/>
        <path id="DejaVuSans-2e" d="M 684 794 
L 1344 794 
L 1344 0 
L 684 0 
L 684 794 
z
" transform="scale(0.015625)"/>
       </defs>
       <use xlink:href="#DejaVuSans-30"/>
       <use xlink:href="#DejaVuSans-2e" x="63.623047"/>
       <use xlink:href="#DejaVuSans-30" x="95.410156"/>
      </g>
     </g>
    </g>
    <g id="xtick_2">
     <g id="line2d_2">
      <g>
       <use xlink:href="#mb6161818b9" x="258.478323" y="768.96" style="stroke: #000000; stroke-width: 0.8"/>
      </g>
     </g>
     <g id="text_2">
      <!-- 0.2 -->
      <g transform="translate(250.52676 783.558437)scale(0.1 -0.1)">
       <defs>
        <path id="DejaVuSans-32" d="M 1228 531 
L 3431 531 
L 3431 0 
L 469 0 
L 469 531 
Q 828 903 1448 1529 
Q 2069 2156 2228 2338 
Q 2531 2678 2651 2914 
Q 2772 3150 2772 3378 
Q 2772 3750 2511 3984 
Q 2250 4219 1831 4219 
Q 1534 4219 1204 4116 
Q 875 4013 500 3803 
L 500 4441 
Q 881 4594 1212 4672 
Q 1544 4750 1819 4750 
Q 2544 4750 2975 4387 
Q 3406 4025 3406 3419 
Q 3406 3131 3298 2873 
Q 3191 2616 2906 2266 
Q 2828 2175 2409 1742 
Q 1991 1309 1228 531 
z
" transform="scale(0.015625)"/>
       </defs>
       <use xlink:href="#DejaVuSans-30"/>
       <use xlink:href="#DejaVuSans-2e" x="63.623047"/>
       <use xlink:href="#DejaVuSans-32" x="95.410156"/>
      </g>
     </g>
    </g>
    <g id="xtick_3">
     <g id="line2d_3">
      <g>
       <use xlink:href="#mb6161818b9" x="377.80447" y="768.96" style="stroke: #000000; stroke-width: 0.8"/>
      </g>
     </g>
     <g id="text_3">
      <!-- 0.4 -->
      <g transform="translate(369.852908 783.558437)scale(0.1 -0.1)">
       <defs>
        <path id="DejaVuSans-34" d="M 2419 4116 
L 825 1625 
L 2419 1625 
L 2419 4116 
z
M 2253 4666 
L 3047 4666 
L 3047 1625 
L 3713 1625 
L 3713 1100 
L 3047 1100 
L 3047 0 
L 2419 0 
L 2419 1100 
L 313 1100 
L 313 1709 
L 2253 4666 
z
" transform="scale(0.015625)"/>
       </defs>
       <use xlink:href="#DejaVuSans-30"/>
       <use xlink:href="#DejaVuSans-2e" x="63.623047"/>
       <use xlink:href="#DejaVuSans-34" x="95.410156"/>
      </g>
     </g>
    </g>
    <g id="xtick_4">
     <g id="line2d_4">
      <g>
       <use xlink:href="#mb6161818b9" x="497.130617" y="768.96" style="stroke: #000000; stroke-width: 0.8"/>
      </g>
     </g>
     <g id="text_4">
      <!-- 0.6 -->
      <g transform="translate(489.179055 783.558437)scale(0.1 -0.1)">
       <defs>
        <path id="DejaVuSans-36" d="M 2113 2584 
Q 1688 2584 1439 2293 
Q 1191 2003 1191 1497 
Q 1191 994 1439 701 
Q 1688 409 2113 409 
Q 2538 409 2786 701 
Q 3034 994 3034 1497 
Q 3034 2003 2786 2293 
Q 2538 2584 2113 2584 
z
M 3366 4563 
L 3366 3988 
Q 3128 4100 2886 4159 
Q 2644 4219 2406 4219 
Q 1781 4219 1451 3797 
Q 1122 3375 1075 2522 
Q 1259 2794 1537 2939 
Q 1816 3084 2150 3084 
Q 2853 3084 3261 2657 
Q 3669 2231 3669 1497 
Q 3669 778 3244 343 
Q 2819 -91 2113 -91 
Q 1303 -91 875 529 
Q 447 1150 447 2328 
Q 447 3434 972 4092 
Q 1497 4750 2381 4750 
Q 2619 4750 2861 4703 
Q 3103 4656 3366 4563 
z
" transform="scale(0.015625)"/>
       </defs>
       <use xlink:href="#DejaVuSans-30"/>
       <use xlink:href="#DejaVuSans-2e" x="63.623047"/>
       <use xlink:href="#DejaVuSans-36" x="95.410156"/>
      </g>
     </g>
    </g>
    <g id="xtick_5">
     <g id="line2d_5">
      <g>
       <use xlink:href="#mb6161818b9" x="616.456764" y="768.96" style="stroke: #000000; stroke-width: 0.8"/>
      </g>
     </g>
     <g id="text_5">
      <!-- 0.8 -->
      <g transform="translate(608.505202 783.558437)scale(0.1 -0.1)">
       <defs>
        <path id="DejaVuSans-38" d="M 2034 2216 
Q 1584 2216 1326 1975 
Q 1069 1734 1069 1313 
Q 1069 891 1326 650 
Q 1584 409 2034 409 
Q 2484 409 2743 651 
Q 3003 894 3003 1313 
Q 3003 1734 2745 1975 
Q 2488 2216 2034 2216 
z
M 1403 2484 
Q 997 2584 770 2862 
Q 544 3141 544 3541 
Q 544 4100 942 4425 
Q 1341 4750 2034 4750 
Q 2731 4750 3128 4425 
Q 3525 4100 3525 3541 
Q 3525 3141 3298 2862 
Q 3072 2584 2669 2484 
Q 3125 2378 3379 2068 
Q 3634 1759 3634 1313 
Q 3634 634 3220 271 
Q 2806 -91 2034 -91 
Q 1263 -91 848 271 
Q 434 634 434 1313 
Q 434 1759 690 2068 
Q 947 2378 1403 2484 
z
M 1172 3481 
Q 1172 3119 1398 2916 
Q 1625 2713 2034 2713 
Q 2441 2713 2670 2916 
Q 2900 3119 2900 3481 
Q 2900 3844 2670 4047 
Q 2441 4250 2034 4250 
Q 1625 4250 1398 4047 
Q 1172 3844 1172 3481 
z
" transform="scale(0.015625)"/>
       </defs>
       <use xlink:href="#DejaVuSans-30"/>
       <use xlink:href="#DejaVuSans-2e" x="63.623047"/>
       <use xlink:href="#DejaVuSans-38" x="95.410156"/>
      </g>
     </g>
    </g>
    <g id="xtick_6">
     <g id="line2d_6">
      <g>
       <use xlink:href="#mb6161818b9" x="735.782912" y="768.96" style="stroke: #000000; stroke-width: 0.8"/>
      </g>
     </g>
     <g id="text_6">
      <!-- 1.0 -->
      <g transform="translate(727.831349 783.558437)scale(0.1 -0.1)">
       <defs>
        <path id="DejaVuSans-31" d="M 794 531 
L 1825 531 
L 1825 4091 
L 703 3866 
L 703 4441 
L 1819 4666 
L 2450 4666 
L 2450 531 
L 3481 531 
L 3481 0 
L 794 0 
L 794 531 
z
" transform="scale(0.015625)"/>
       </defs>
       <use xlink:href="#DejaVuSans-31"/>
       <use xlink:href="#DejaVuSans-2e" x="63.623047"/>
       <use xlink:href="#DejaVuSans-30" x="95.410156"/>
      </g>
     </g>
    </g>
    <g id="text_7">
     <!-- Similarity -->
     <g transform="translate(404.97625 801.795625)scale(0.16 -0.16)">
      <defs>
       <path id="DejaVuSans-53" d="M 3425 4513 
L 3425 3897 
Q 3066 4069 2747 4153 
Q 2428 4238 2131 4238 
Q 1616 4238 1336 4038 
Q 1056 3838 1056 3469 
Q 1056 3159 1242 3001 
Q 1428 2844 1947 2747 
L 2328 2669 
Q 3034 2534 3370 2195 
Q 3706 1856 3706 1288 
Q 3706 609 3251 259 
Q 2797 -91 1919 -91 
Q 1588 -91 1214 -16 
Q 841 59 441 206 
L 441 856 
Q 825 641 1194 531 
Q 1563 422 1919 422 
Q 2459 422 2753 634 
Q 3047 847 3047 1241 
Q 3047 1584 2836 1778 
Q 2625 1972 2144 2069 
L 1759 2144 
Q 1053 2284 737 2584 
Q 422 2884 422 3419 
Q 422 4038 858 4394 
Q 1294 4750 2059 4750 
Q 2388 4750 2728 4690 
Q 3069 4631 3425 4513 
z
" transform="scale(0.015625)"/>
       <path id="DejaVuSans-69" d="M 603 3500 
L 1178 3500 
L 1178 0 
L 603 0 
L 603 3500 
z
M 603 4863 
L 1178 4863 
L 1178 4134 
L 603 4134 
L 603 4863 
z
" transform="scale(0.015625)"/>
       <path id="DejaVuSans-6d" d="M 3328 2828 
Q 3544 3216 3844 3400 
Q 4144 3584 4550 3584 
Q 5097 3584 5394 3201 
Q 5691 2819 5691 2113 
L 5691 0 
L 5113 0 
L 5113 2094 
Q 5113 2597 4934 2840 
Q 4756 3084 4391 3084 
Q 3944 3084 3684 2787 
Q 3425 2491 3425 1978 
L 3425 0 
L 2847 0 
L 2847 2094 
Q 2847 2600 2669 2842 
Q 2491 3084 2119 3084 
Q 1678 3084 1418 2786 
Q 1159 2488 1159 1978 
L 1159 0 
L 581 0 
L 581 3500 
L 1159 3500 
L 1159 2956 
Q 1356 3278 1631 3431 
Q 1906 3584 2284 3584 
Q 2666 3584 2933 3390 
Q 3200 3197 3328 2828 
z
" transform="scale(0.015625)"/>
       <path id="DejaVuSans-6c" d="M 603 4863 
L 1178 4863 
L 1178 0 
L 603 0 
L 603 4863 
z
" transform="scale(0.015625)"/>
       <path id="DejaVuSans-61" d="M 2194 1759 
Q 1497 1759 1228 1600 
Q 959 1441 959 1056 
Q 959 750 1161 570 
Q 1363 391 1709 391 
Q 2188 391 2477 730 
Q 2766 1069 2766 1631 
L 2766 1759 
L 2194 1759 
z
M 3341 1997 
L 3341 0 
L 2766 0 
L 2766 531 
Q 2569 213 2275 61 
Q 1981 -91 1556 -91 
Q 1019 -91 701 211 
Q 384 513 384 1019 
Q 384 1609 779 1909 
Q 1175 2209 1959 2209 
L 2766 2209 
L 2766 2266 
Q 2766 2663 2505 2880 
Q 2244 3097 1772 3097 
Q 1472 3097 1187 3025 
Q 903 2953 641 2809 
L 641 3341 
Q 956 3463 1253 3523 
Q 1550 3584 1831 3584 
Q 2591 3584 2966 3190 
Q 3341 2797 3341 1997 
z
" transform="scale(0.015625)"/>
       <path id="DejaVuSans-72" d="M 2631 2963 
Q 2534 3019 2420 3045 
Q 2306 3072 2169 3072 
Q 1681 3072 1420 2755 
Q 1159 2438 1159 1844 
L 1159 0 
L 581 0 
L 581 3500 
L 1159 3500 
L 1159 2956 
Q 1341 3275 1631 3429 
Q 1922 3584 2338 3584 
Q 2397 3584 2469 3576 
Q 2541 3569 2628 3553 
L 2631 2963 
z
" transform="scale(0.015625)"/>
       <path id="DejaVuSans-74" d="M 1172 4494 
L 1172 3500 
L 2356 3500 
L 2356 3053 
L 1172 3053 
L 1172 1153 
Q 1172 725 1289 603 
Q 1406 481 1766 481 
L 2356 481 
L 2356 0 
L 1766 0 
Q 1100 0 847 248 
Q 594 497 594 1153 
L 594 3053 
L 172 3053 
L 172 3500 
L 594 3500 
L 594 4494 
L 1172 4494 
z
" transform="scale(0.015625)"/>
       <path id="DejaVuSans-79" d="M 2059 -325 
Q 1816 -950 1584 -1140 
Q 1353 -1331 966 -1331 
L 506 -1331 
L 506 -850 
L 844 -850 
Q 1081 -850 1212 -737 
Q 1344 -625 1503 -206 
L 1606 56 
L 191 3500 
L 800 3500 
L 1894 763 
L 2988 3500 
L 3597 3500 
L 2059 -325 
z
" transform="scale(0.015625)"/>
      </defs>
      <use xlink:href="#DejaVuSans-53"/>
      <use xlink:href="#DejaVuSans-69" x="63.476562"/>
      <use xlink:href="#DejaVuSans-6d" x="91.259766"/>
      <use xlink:href="#DejaVuSans-69" x="188.671875"/>
      <use xlink:href="#DejaVuSans-6c" x="216.455078"/>
      <use xlink:href="#DejaVuSans-61" x="244.238281"/>
      <use xlink:href="#DejaVuSans-72" x="305.517578"/>
      <use xlink:href="#DejaVuSans-69" x="346.630859"/>
      <use xlink:href="#DejaVuSans-74" x="374.414062"/>
      <use xlink:href="#DejaVuSans-79" x="413.623047"/>
     </g>
    </g>
   </g>
   <g id="matplotlib.axis_2">
    <g id="ytick_1">
     <g id="line2d_7">
      <defs>
       <path id="m1c0dffa528" d="M 0 0 
L -3.5 0 
" style="stroke: #000000; stroke-width: 0.8"/>
      </defs>
      <g>
       <use xlink:href="#m1c0dffa528" x="108" y="768.96" style="stroke: #000000; stroke-width: 0.8"/>
      </g>
     </g>
     <g id="text_8">
      <!-- 0.0 -->
      <g transform="translate(85.096875 772.759219)scale(0.1 -0.1)">
       <use xlink:href="#DejaVuSans-30"/>
       <use xlink:href="#DejaVuSans-2e" x="63.623047"/>
       <use xlink:href="#DejaVuSans-30" x="95.410156"/>
      </g>
     </g>
    </g>
    <g id="ytick_2">
     <g id="line2d_8">
      <g>
       <use xlink:href="#m1c0dffa528" x="108" y="685.492196" style="stroke: #000000; stroke-width: 0.8"/>
      </g>
     </g>
     <g id="text_9">
      <!-- 0.5 -->
      <g transform="translate(85.096875 689.291415)scale(0.1 -0.1)">
       <defs>
        <path id="DejaVuSans-35" d="M 691 4666 
L 3169 4666 
L 3169 4134 
L 1269 4134 
L 1269 2991 
Q 1406 3038 1543 3061 
Q 1681 3084 1819 3084 
Q 2600 3084 3056 2656 
Q 3513 2228 3513 1497 
Q 3513 744 3044 326 
Q 2575 -91 1722 -91 
Q 1428 -91 1123 -41 
Q 819 9 494 109 
L 494 744 
Q 775 591 1075 516 
Q 1375 441 1709 441 
Q 2250 441 2565 725 
Q 2881 1009 2881 1497 
Q 2881 1984 2565 2268 
Q 2250 2553 1709 2553 
Q 1456 2553 1204 2497 
Q 953 2441 691 2322 
L 691 4666 
z
" transform="scale(0.015625)"/>
       </defs>
       <use xlink:href="#DejaVuSans-30"/>
       <use xlink:href="#DejaVuSans-2e" x="63.623047"/>
       <use xlink:href="#DejaVuSans-35" x="95.410156"/>
      </g>
     </g>
    </g>
    <g id="ytick_3">
     <g id="line2d_9">
      <g>
       <use xlink:href="#m1c0dffa528" x="108" y="602.024392" style="stroke: #000000; stroke-width: 0.8"/>
      </g>
     </g>
     <g id="text_10">
      <!-- 1.0 -->
      <g transform="translate(85.096875 605.823611)scale(0.1 -0.1)">
       <use xlink:href="#DejaVuSans-31"/>
       <use xlink:href="#DejaVuSans-2e" x="63.623047"/>
       <use xlink:href="#DejaVuSans-30" x="95.410156"/>
      </g>
     </g>
    </g>
    <g id="ytick_4">
     <g id="line2d_10">
      <g>
       <use xlink:href="#m1c0dffa528" x="108" y="518.556589" style="stroke: #000000; stroke-width: 0.8"/>
      </g>
     </g>
     <g id="text_11">
      <!-- 1.5 -->
      <g transform="translate(85.096875 522.355807)scale(0.1 -0.1)">
       <use xlink:href="#DejaVuSans-31"/>
       <use xlink:href="#DejaVuSans-2e" x="63.623047"/>
       <use xlink:href="#DejaVuSans-35" x="95.410156"/>
      </g>
     </g>
    </g>
    <g id="ytick_5">
     <g id="line2d_11">
      <g>
       <use xlink:href="#m1c0dffa528" x="108" y="435.088785" style="stroke: #000000; stroke-width: 0.8"/>
      </g>
     </g>
     <g id="text_12">
      <!-- 2.0 -->
      <g transform="translate(85.096875 438.888004)scale(0.1 -0.1)">
       <use xlink:href="#DejaVuSans-32"/>
       <use xlink:href="#DejaVuSans-2e" x="63.623047"/>
       <use xlink:href="#DejaVuSans-30" x="95.410156"/>
      </g>
     </g>
    </g>
    <g id="ytick_6">
     <g id="line2d_12">
      <g>
       <use xlink:href="#m1c0dffa528" x="108" y="351.620981" style="stroke: #000000; stroke-width: 0.8"/>
      </g>
     </g>
     <g id="text_13">
      <!-- 2.5 -->
      <g transform="translate(85.096875 355.4202)scale(0.1 -0.1)">
       <use xlink:href="#DejaVuSans-32"/>
       <use xlink:href="#DejaVuSans-2e" x="63.623047"/>
       <use xlink:href="#DejaVuSans-35" x="95.410156"/>
      </g>
     </g>
    </g>
    <g id="ytick_7">
     <g id="line2d_13">
      <g>
       <use xlink:href="#m1c0dffa528" x="108" y="268.153177" style="stroke: #000000; stroke-width: 0.8"/>
      </g>
     </g>
     <g id="text_14">
      <!-- 3.0 -->
      <g transform="translate(85.096875 271.952396)scale(0.1 -0.1)">
       <defs>
        <path id="DejaVuSans-33" d="M 2597 2516 
Q 3050 2419 3304 2112 
Q 3559 1806 3559 1356 
Q 3559 666 3084 287 
Q 2609 -91 1734 -91 
Q 1441 -91 1130 -33 
Q 819 25 488 141 
L 488 750 
Q 750 597 1062 519 
Q 1375 441 1716 441 
Q 2309 441 2620 675 
Q 2931 909 2931 1356 
Q 2931 1769 2642 2001 
Q 2353 2234 1838 2234 
L 1294 2234 
L 1294 2753 
L 1863 2753 
Q 2328 2753 2575 2939 
Q 2822 3125 2822 3475 
Q 2822 3834 2567 4026 
Q 2313 4219 1838 4219 
Q 1578 4219 1281 4162 
Q 984 4106 628 3988 
L 628 4550 
Q 988 4650 1302 4700 
Q 1616 4750 1894 4750 
Q 2613 4750 3031 4423 
Q 3450 4097 3450 3541 
Q 3450 3153 3228 2886 
Q 3006 2619 2597 2516 
z
" transform="scale(0.015625)"/>
       </defs>
       <use xlink:href="#DejaVuSans-33"/>
       <use xlink:href="#DejaVuSans-2e" x="63.623047"/>
       <use xlink:href="#DejaVuSans-30" x="95.410156"/>
      </g>
     </g>
    </g>
    <g id="ytick_8">
     <g id="line2d_14">
      <g>
       <use xlink:href="#m1c0dffa528" x="108" y="184.685374" style="stroke: #000000; stroke-width: 0.8"/>
      </g>
     </g>
     <g id="text_15">
      <!-- 3.5 -->
      <g transform="translate(85.096875 188.484592)scale(0.1 -0.1)">
       <use xlink:href="#DejaVuSans-33"/>
       <use xlink:href="#DejaVuSans-2e" x="63.623047"/>
       <use xlink:href="#DejaVuSans-35" x="95.410156"/>
      </g>
     </g>
    </g>
    <g id="text_16">
     <!-- Density -->
     <g transform="translate(77.769375 466.73375)rotate(-90)scale(0.16 -0.16)">
      <defs>
       <path id="DejaVuSans-44" d="M 1259 4147 
L 1259 519 
L 2022 519 
Q 2988 519 3436 956 
Q 3884 1394 3884 2338 
Q 3884 3275 3436 3711 
Q 2988 4147 2022 4147 
L 1259 4147 
z
M 628 4666 
L 1925 4666 
Q 3281 4666 3915 4102 
Q 4550 3538 4550 2338 
Q 4550 1131 3912 565 
Q 3275 0 1925 0 
L 628 0 
L 628 4666 
z
" transform="scale(0.015625)"/>
       <path id="DejaVuSans-65" d="M 3597 1894 
L 3597 1613 
L 953 1613 
Q 991 1019 1311 708 
Q 1631 397 2203 397 
Q 2534 397 2845 478 
Q 3156 559 3463 722 
L 3463 178 
Q 3153 47 2828 -22 
Q 2503 -91 2169 -91 
Q 1331 -91 842 396 
Q 353 884 353 1716 
Q 353 2575 817 3079 
Q 1281 3584 2069 3584 
Q 2775 3584 3186 3129 
Q 3597 2675 3597 1894 
z
M 3022 2063 
Q 3016 2534 2758 2815 
Q 2500 3097 2075 3097 
Q 1594 3097 1305 2825 
Q 1016 2553 972 2059 
L 3022 2063 
z
" transform="scale(0.015625)"/>
       <path id="DejaVuSans-6e" d="M 3513 2113 
L 3513 0 
L 2938 0 
L 2938 2094 
Q 2938 2591 2744 2837 
Q 2550 3084 2163 3084 
Q 1697 3084 1428 2787 
Q 1159 2491 1159 1978 
L 1159 0 
L 581 0 
L 581 3500 
L 1159 3500 
L 1159 2956 
Q 1366 3272 1645 3428 
Q 1925 3584 2291 3584 
Q 2894 3584 3203 3211 
Q 3513 2838 3513 2113 
z
" transform="scale(0.015625)"/>
       <path id="DejaVuSans-73" d="M 2834 3397 
L 2834 2853 
Q 2591 2978 2328 3040 
Q 2066 3103 1784 3103 
Q 1356 3103 1142 2972 
Q 928 2841 928 2578 
Q 928 2378 1081 2264 
Q 1234 2150 1697 2047 
L 1894 2003 
Q 2506 1872 2764 1633 
Q 3022 1394 3022 966 
Q 3022 478 2636 193 
Q 2250 -91 1575 -91 
Q 1294 -91 989 -36 
Q 684 19 347 128 
L 347 722 
Q 666 556 975 473 
Q 1284 391 1588 391 
Q 1994 391 2212 530 
Q 2431 669 2431 922 
Q 2431 1156 2273 1281 
Q 2116 1406 1581 1522 
L 1381 1569 
Q 847 1681 609 1914 
Q 372 2147 372 2553 
Q 372 3047 722 3315 
Q 1072 3584 1716 3584 
Q 2034 3584 2315 3537 
Q 2597 3491 2834 3397 
z
" transform="scale(0.015625)"/>
      </defs>
      <use xlink:href="#DejaVuSans-44"/>
      <use xlink:href="#DejaVuSans-65" x="77.001953"/>
      <use xlink:href="#DejaVuSans-6e" x="138.525391"/>
      <use xlink:href="#DejaVuSans-73" x="201.904297"/>
      <use xlink:href="#DejaVuSans-69" x="254.003906"/>
      <use xlink:href="#DejaVuSans-74" x="281.787109"/>
      <use xlink:href="#DejaVuSans-79" x="320.996094"/>
     </g>
    </g>
   </g>
   <g id="patch_3">
    <path d="M 108 768.96 
L 108 103.68 
" style="fill: none; stroke: #000000; stroke-width: 0.8; stroke-linejoin: miter; stroke-linecap: square"/>
   </g>
   <g id="patch_4">
    <path d="M 777.6 768.96 
L 777.6 103.68 
" style="fill: none; stroke: #000000; stroke-width: 0.8; stroke-linejoin: miter; stroke-linecap: square"/>
   </g>
   <g id="patch_5">
    <path d="M 108 768.96 
L 777.6 768.96 
" style="fill: none; stroke: #000000; stroke-width: 0.8; stroke-linejoin: miter; stroke-linecap: square"/>
   </g>
   <g id="patch_6">
    <path d="M 108 103.68 
L 777.6 103.68 
" style="fill: none; stroke: #000000; stroke-width: 0.8; stroke-linejoin: miter; stroke-linecap: square"/>
   </g>
   <g id="legend_1">
    <g id="patch_7">
     <path d="M 484.15 186.935 
L 766.4 186.935 
Q 769.6 186.935 769.6 183.735 
L 769.6 114.88 
Q 769.6 111.68 766.4 111.68 
L 484.15 111.68 
Q 480.95 111.68 480.95 114.88 
L 480.95 183.735 
Q 480.95 186.935 484.15 186.935 
z
" style="fill: #ffffff; opacity: 0.8; stroke: #cccccc; stroke-linejoin: miter"/>
    </g>
    <g id="patch_8">
     <path d="M 487.35 130.2375 
L 519.35 130.2375 
L 519.35 119.0375 
L 487.35 119.0375 
z
" style="fill: #0000ff; fill-opacity: 0.25; stroke: #0000ff; stroke-width: 3; stroke-linejoin: miter"/>
    </g>
    <g id="text_17">
     <!-- Training vs Test set similarity -->
     <g transform="translate(532.15 130.2375)scale(0.16 -0.16)">
      <defs>
       <path id="DejaVuSans-54" d="M -19 4666 
L 3928 4666 
L 3928 4134 
L 2272 4134 
L 2272 0 
L 1638 0 
L 1638 4134 
L -19 4134 
L -19 4666 
z
" transform="scale(0.015625)"/>
       <path id="DejaVuSans-67" d="M 2906 1791 
Q 2906 2416 2648 2759 
Q 2391 3103 1925 3103 
Q 1463 3103 1205 2759 
Q 947 2416 947 1791 
Q 947 1169 1205 825 
Q 1463 481 1925 481 
Q 2391 481 2648 825 
Q 2906 1169 2906 1791 
z
M 3481 434 
Q 3481 -459 3084 -895 
Q 2688 -1331 1869 -1331 
Q 1566 -1331 1297 -1286 
Q 1028 -1241 775 -1147 
L 775 -588 
Q 1028 -725 1275 -790 
Q 1522 -856 1778 -856 
Q 2344 -856 2625 -561 
Q 2906 -266 2906 331 
L 2906 616 
Q 2728 306 2450 153 
Q 2172 0 1784 0 
Q 1141 0 747 490 
Q 353 981 353 1791 
Q 353 2603 747 3093 
Q 1141 3584 1784 3584 
Q 2172 3584 2450 3431 
Q 2728 3278 2906 2969 
L 2906 3500 
L 3481 3500 
L 3481 434 
z
" transform="scale(0.015625)"/>
       <path id="DejaVuSans-20" transform="scale(0.015625)"/>
       <path id="DejaVuSans-76" d="M 191 3500 
L 800 3500 
L 1894 563 
L 2988 3500 
L 3597 3500 
L 2284 0 
L 1503 0 
L 191 3500 
z
" transform="scale(0.015625)"/>
      </defs>
      <use xlink:href="#DejaVuSans-54"/>
      <use xlink:href="#DejaVuSans-72" x="46.333984"/>
      <use xlink:href="#DejaVuSans-61" x="87.447266"/>
      <use xlink:href="#DejaVuSans-69" x="148.726562"/>
      <use xlink:href="#DejaVuSans-6e" x="176.509766"/>
      <use xlink:href="#DejaVuSans-69" x="239.888672"/>
      <use xlink:href="#DejaVuSans-6e" x="267.671875"/>
      <use xlink:href="#DejaVuSans-67" x="331.050781"/>
      <use xlink:href="#DejaVuSans-20" x="394.527344"/>
      <use xlink:href="#DejaVuSans-76" x="426.314453"/>
      <use xlink:href="#DejaVuSans-73" x="485.494141"/>
      <use xlink:href="#DejaVuSans-20" x="537.59375"/>
      <use xlink:href="#DejaVuSans-54" x="569.380859"/>
      <use xlink:href="#DejaVuSans-65" x="613.464844"/>
      <use xlink:href="#DejaVuSans-73" x="674.988281"/>
      <use xlink:href="#DejaVuSans-74" x="727.087891"/>
      <use xlink:href="#DejaVuSans-20" x="766.296875"/>
      <use xlink:href="#DejaVuSans-73" x="798.083984"/>
      <use xlink:href="#DejaVuSans-65" x="850.183594"/>
      <use xlink:href="#DejaVuSans-74" x="911.707031"/>
      <use xlink:href="#DejaVuSans-20" x="950.916016"/>
      <use xlink:href="#DejaVuSans-73" x="982.703125"/>
      <use xlink:href="#DejaVuSans-69" x="1034.802734"/>
      <use xlink:href="#DejaVuSans-6d" x="1062.585938"/>
      <use xlink:href="#DejaVuSans-69" x="1159.998047"/>
      <use xlink:href="#DejaVuSans-6c" x="1187.78125"/>
      <use xlink:href="#DejaVuSans-61" x="1215.564453"/>
      <use xlink:href="#DejaVuSans-72" x="1276.84375"/>
      <use xlink:href="#DejaVuSans-69" x="1317.957031"/>
      <use xlink:href="#DejaVuSans-74" x="1345.740234"/>
      <use xlink:href="#DejaVuSans-79" x="1384.949219"/>
     </g>
    </g>
    <g id="patch_9">
     <path d="M 487.35 153.7225 
L 519.35 153.7225 
L 519.35 142.5225 
L 487.35 142.5225 
z
" style="fill: #ff0000; fill-opacity: 0.25; stroke: #ff0000; stroke-width: 3; stroke-linejoin: miter"/>
    </g>
    <g id="text_18">
     <!-- Training set inner similarity -->
     <g transform="translate(532.15 153.7225)scale(0.16 -0.16)">
      <use xlink:href="#DejaVuSans-54"/>
      <use xlink:href="#DejaVuSans-72" x="46.333984"/>
      <use xlink:href="#DejaVuSans-61" x="87.447266"/>
      <use xlink:href="#DejaVuSans-69" x="148.726562"/>
      <use xlink:href="#DejaVuSans-6e" x="176.509766"/>
      <use xlink:href="#DejaVuSans-69" x="239.888672"/>
      <use xlink:href="#DejaVuSans-6e" x="267.671875"/>
      <use xlink:href="#DejaVuSans-67" x="331.050781"/>
      <use xlink:href="#DejaVuSans-20" x="394.527344"/>
      <use xlink:href="#DejaVuSans-73" x="426.314453"/>
      <use xlink:href="#DejaVuSans-65" x="478.414062"/>
      <use xlink:href="#DejaVuSans-74" x="539.9375"/>
      <use xlink:href="#DejaVuSans-20" x="579.146484"/>
      <use xlink:href="#DejaVuSans-69" x="610.933594"/>
      <use xlink:href="#DejaVuSans-6e" x="638.716797"/>
      <use xlink:href="#DejaVuSans-6e" x="702.095703"/>
      <use xlink:href="#DejaVuSans-65" x="765.474609"/>
      <use xlink:href="#DejaVuSans-72" x="826.998047"/>
      <use xlink:href="#DejaVuSans-20" x="868.111328"/>
      <use xlink:href="#DejaVuSans-73" x="899.898438"/>
      <use xlink:href="#DejaVuSans-69" x="951.998047"/>
      <use xlink:href="#DejaVuSans-6d" x="979.78125"/>
      <use xlink:href="#DejaVuSans-69" x="1077.193359"/>
      <use xlink:href="#DejaVuSans-6c" x="1104.976562"/>
      <use xlink:href="#DejaVuSans-61" x="1132.759766"/>
      <use xlink:href="#DejaVuSans-72" x="1194.039062"/>
      <use xlink:href="#DejaVuSans-69" x="1235.152344"/>
      <use xlink:href="#DejaVuSans-74" x="1262.935547"/>
      <use xlink:href="#DejaVuSans-79" x="1302.144531"/>
     </g>
    </g>
    <g id="patch_10">
     <path d="M 487.35 177.2075 
L 519.35 177.2075 
L 519.35 166.0075 
L 487.35 166.0075 
z
" style="fill: #008000; fill-opacity: 0.25; stroke: #008000; stroke-width: 3; stroke-linejoin: miter"/>
    </g>
    <g id="text_19">
     <!-- Test set inner similarity -->
     <g transform="translate(532.15 177.2075)scale(0.16 -0.16)">
      <use xlink:href="#DejaVuSans-54"/>
      <use xlink:href="#DejaVuSans-65" x="44.083984"/>
      <use xlink:href="#DejaVuSans-73" x="105.607422"/>
      <use xlink:href="#DejaVuSans-74" x="157.707031"/>
      <use xlink:href="#DejaVuSans-20" x="196.916016"/>
      <use xlink:href="#DejaVuSans-73" x="228.703125"/>
      <use xlink:href="#DejaVuSans-65" x="280.802734"/>
      <use xlink:href="#DejaVuSans-74" x="342.326172"/>
      <use xlink:href="#DejaVuSans-20" x="381.535156"/>
      <use xlink:href="#DejaVuSans-69" x="413.322266"/>
      <use xlink:href="#DejaVuSans-6e" x="441.105469"/>
      <use xlink:href="#DejaVuSans-6e" x="504.484375"/>
      <use xlink:href="#DejaVuSans-65" x="567.863281"/>
      <use xlink:href="#DejaVuSans-72" x="629.386719"/>
      <use xlink:href="#DejaVuSans-20" x="670.5"/>
      <use xlink:href="#DejaVuSans-73" x="702.287109"/>
      <use xlink:href="#DejaVuSans-69" x="754.386719"/>
      <use xlink:href="#DejaVuSans-6d" x="782.169922"/>
      <use xlink:href="#DejaVuSans-69" x="879.582031"/>
      <use xlink:href="#DejaVuSans-6c" x="907.365234"/>
      <use xlink:href="#DejaVuSans-61" x="935.148438"/>
      <use xlink:href="#DejaVuSans-72" x="996.427734"/>
      <use xlink:href="#DejaVuSans-69" x="1037.541016"/>
      <use xlink:href="#DejaVuSans-74" x="1065.324219"/>
      <use xlink:href="#DejaVuSans-79" x="1104.533203"/>
     </g>
    </g>
   </g>
  </g>
 </g>
 <defs>
  <clipPath id="p3c80316417">
   <rect x="108" y="103.68" width="669.6" height="665.28"/>
  </clipPath>
 </defs>
</svg>
