<?xml version="1.0" encoding="utf-8" standalone="no"?>
<!DOCTYPE svg PUBLIC "-//W3C//DTD SVG 1.1//EN"
  "http://www.w3.org/Graphics/SVG/1.1/DTD/svg11.dtd">
<svg xmlns:xlink="http://www.w3.org/1999/xlink" width="864pt" height="864pt" viewBox="0 0 864 864" xmlns="http://www.w3.org/2000/svg" version="1.1">
 <metadata>
  <rdf:RDF xmlns:dc="http://purl.org/dc/elements/1.1/" xmlns:cc="http://creativecommons.org/ns#" xmlns:rdf="http://www.w3.org/1999/02/22-rdf-syntax-ns#">
   <cc:Work>
    <dc:type rdf:resource="http://purl.org/dc/dcmitype/StillImage"/>
    <dc:date>2022-02-07T07:37:01.094046</dc:date>
    <dc:format>image/svg+xml</dc:format>
    <dc:creator>
     <cc:Agent>
      <dc:title>Matplotlib v3.5.1, https://matplotlib.org/</dc:title>
     </cc:Agent>
    </dc:creator>
   </cc:Work>
  </rdf:RDF>
 </metadata>
 <defs>
  <style type="text/css">*{stroke-linejoin: round; stroke-linecap: butt}</style>
 </defs>
 <g id="figure_1">
  <g id="patch_1">
   <path d="M 0 864 
L 864 864 
L 864 0 
L 0 0 
z
" style="fill: #ffffff"/>
  </g>
  <g id="axes_1">
   <g id="patch_2">
    <path d="M 108 768.96 
L 777.6 768.96 
L 777.6 103.68 
L 108 103.68 
z
" style="fill: #ffffff"/>
   </g>
   <g id="PolyCollection_1">
    <defs>
     <path id="mbcb6db08ce" d="M 140.817536 -95.040009 
L 140.817536 -95.04 
L 143.829807 -95.04 
L 146.842077 -95.04 
L 149.854348 -95.04 
L 152.866619 -95.04 
L 155.878889 -95.04 
L 158.89116 -95.04 
L 161.903431 -95.04 
L 164.915702 -95.04 
L 167.927972 -95.04 
L 170.940243 -95.04 
L 173.952514 -95.04 
L 176.964784 -95.04 
L 179.977055 -95.04 
L 182.989326 -95.04 
L 186.001597 -95.04 
L 189.013867 -95.04 
L 192.026138 -95.04 
L 195.038409 -95.04 
L 198.050679 -95.04 
L 201.06295 -95.04 
L 204.075221 -95.04 
L 207.087492 -95.04 
L 210.099762 -95.04 
L 213.112033 -95.04 
L 216.124304 -95.04 
L 219.136574 -95.04 
L 222.148845 -95.04 
L 225.161116 -95.04 
L 228.173387 -95.04 
L 231.185657 -95.04 
L 234.197928 -95.04 
L 237.210199 -95.04 
L 240.22247 -95.04 
L 243.23474 -95.04 
L 246.247011 -95.04 
L 249.259282 -95.04 
L 252.271552 -95.04 
L 255.283823 -95.04 
L 258.296094 -95.04 
L 261.308365 -95.04 
L 264.320635 -95.04 
L 267.332906 -95.04 
L 270.345177 -95.04 
L 273.357447 -95.04 
L 276.369718 -95.04 
L 279.381989 -95.04 
L 282.39426 -95.04 
L 285.40653 -95.04 
L 288.418801 -95.04 
L 291.431072 -95.04 
L 294.443342 -95.04 
L 297.455613 -95.04 
L 300.467884 -95.04 
L 303.480155 -95.04 
L 306.492425 -95.04 
L 309.504696 -95.04 
L 312.516967 -95.04 
L 315.529237 -95.04 
L 318.541508 -95.04 
L 321.553779 -95.04 
L 324.56605 -95.04 
L 327.57832 -95.04 
L 330.590591 -95.04 
L 333.602862 -95.04 
L 336.615132 -95.04 
L 339.627403 -95.04 
L 342.639674 -95.04 
L 345.651945 -95.04 
L 348.664215 -95.04 
L 351.676486 -95.04 
L 354.688757 -95.04 
L 357.701027 -95.04 
L 360.713298 -95.04 
L 363.725569 -95.04 
L 366.73784 -95.04 
L 369.75011 -95.04 
L 372.762381 -95.04 
L 375.774652 -95.04 
L 378.786922 -95.04 
L 381.799193 -95.04 
L 384.811464 -95.04 
L 387.823735 -95.04 
L 390.836005 -95.04 
L 393.848276 -95.04 
L 396.860547 -95.04 
L 399.872817 -95.04 
L 402.885088 -95.04 
L 405.897359 -95.04 
L 408.90963 -95.04 
L 411.9219 -95.04 
L 414.934171 -95.04 
L 417.946442 -95.04 
L 420.958712 -95.04 
L 423.970983 -95.04 
L 426.983254 -95.04 
L 429.995525 -95.04 
L 433.007795 -95.04 
L 436.020066 -95.04 
L 439.032337 -95.04 
L 442.044607 -95.04 
L 445.056878 -95.04 
L 448.069149 -95.04 
L 451.08142 -95.04 
L 454.09369 -95.04 
L 457.105961 -95.04 
L 460.118232 -95.04 
L 463.130502 -95.04 
L 466.142773 -95.04 
L 469.155044 -95.04 
L 472.167315 -95.04 
L 475.179585 -95.04 
L 478.191856 -95.04 
L 481.204127 -95.04 
L 484.216397 -95.04 
L 487.228668 -95.04 
L 490.240939 -95.04 
L 493.25321 -95.04 
L 496.26548 -95.04 
L 499.277751 -95.04 
L 502.290022 -95.04 
L 505.302292 -95.04 
L 508.314563 -95.04 
L 511.326834 -95.04 
L 514.339105 -95.04 
L 517.351375 -95.04 
L 520.363646 -95.04 
L 523.375917 -95.04 
L 526.388187 -95.04 
L 529.400458 -95.04 
L 532.412729 -95.04 
L 535.425 -95.04 
L 538.43727 -95.04 
L 541.449541 -95.04 
L 544.461812 -95.04 
L 547.474083 -95.04 
L 550.486353 -95.04 
L 553.498624 -95.04 
L 556.510895 -95.04 
L 559.523165 -95.04 
L 562.535436 -95.04 
L 565.547707 -95.04 
L 568.559978 -95.04 
L 571.572248 -95.04 
L 574.584519 -95.04 
L 577.59679 -95.04 
L 580.60906 -95.04 
L 583.621331 -95.04 
L 586.633602 -95.04 
L 589.645873 -95.04 
L 592.658143 -95.04 
L 595.670414 -95.04 
L 598.682685 -95.04 
L 601.694955 -95.04 
L 604.707226 -95.04 
L 607.719497 -95.04 
L 610.731768 -95.04 
L 613.744038 -95.04 
L 616.756309 -95.04 
L 619.76858 -95.04 
L 622.78085 -95.04 
L 625.793121 -95.04 
L 628.805392 -95.04 
L 631.817663 -95.04 
L 634.829933 -95.04 
L 637.842204 -95.04 
L 640.854475 -95.04 
L 643.866745 -95.04 
L 646.879016 -95.04 
L 649.891287 -95.04 
L 652.903558 -95.04 
L 655.915828 -95.04 
L 658.928099 -95.04 
L 661.94037 -95.04 
L 664.95264 -95.04 
L 667.964911 -95.04 
L 670.977182 -95.04 
L 673.989453 -95.04 
L 677.001723 -95.04 
L 680.013994 -95.04 
L 683.026265 -95.04 
L 686.038535 -95.04 
L 689.050806 -95.04 
L 692.063077 -95.04 
L 695.075348 -95.04 
L 698.087618 -95.04 
L 701.099889 -95.04 
L 704.11216 -95.04 
L 707.12443 -95.04 
L 710.136701 -95.04 
L 713.148972 -95.04 
L 716.161243 -95.04 
L 719.173513 -95.04 
L 722.185784 -95.04 
L 725.198055 -95.04 
L 728.210325 -95.04 
L 731.222596 -95.04 
L 734.234867 -95.04 
L 737.247138 -95.04 
L 740.259408 -95.04 
L 740.259408 -95.040221 
L 740.259408 -95.040221 
L 737.247138 -95.050406 
L 734.234867 -95.168531 
L 731.222596 -95.522657 
L 728.210325 -95.772993 
L 725.198055 -95.781897 
L 722.185784 -95.96329 
L 719.173513 -96.464864 
L 716.161243 -97.099518 
L 713.148972 -97.74894 
L 710.136701 -98.319912 
L 707.12443 -98.82386 
L 704.11216 -99.241547 
L 701.099889 -99.856498 
L 698.087618 -100.823082 
L 695.075348 -101.830846 
L 692.063077 -102.605963 
L 689.050806 -102.91466 
L 686.038535 -103.830466 
L 683.026265 -104.648745 
L 680.013994 -105.85103 
L 677.001723 -108.107097 
L 673.989453 -110.602712 
L 670.977182 -112.302412 
L 667.964911 -113.468135 
L 664.95264 -114.877203 
L 661.94037 -116.215394 
L 658.928099 -117.703671 
L 655.915828 -119.110355 
L 652.903558 -120.084222 
L 649.891287 -120.916382 
L 646.879016 -121.477654 
L 643.866745 -122.081022 
L 640.854475 -123.614087 
L 637.842204 -126.001247 
L 634.829933 -128.604046 
L 631.817663 -130.248105 
L 628.805392 -131.781226 
L 625.793121 -133.1762 
L 622.78085 -134.218209 
L 619.76858 -135.578208 
L 616.756309 -136.804494 
L 613.744038 -137.436323 
L 610.731768 -137.437223 
L 607.719497 -136.730723 
L 604.707226 -138.168228 
L 601.694955 -140.680748 
L 598.682685 -143.579477 
L 595.670414 -146.658429 
L 592.658143 -148.475529 
L 589.645873 -149.454006 
L 586.633602 -151.443447 
L 583.621331 -153.748861 
L 580.60906 -155.893807 
L 577.59679 -157.861112 
L 574.584519 -159.414492 
L 571.572248 -162.109121 
L 568.559978 -165.948684 
L 565.547707 -169.906594 
L 562.535436 -172.356095 
L 559.523165 -173.961909 
L 556.510895 -176.128989 
L 553.498624 -177.246645 
L 550.486353 -177.100931 
L 547.474083 -177.385705 
L 544.461812 -178.057692 
L 541.449541 -179.310139 
L 538.43727 -181.008046 
L 535.425 -183.515073 
L 532.412729 -186.479588 
L 529.400458 -188.642743 
L 526.388187 -190.727687 
L 523.375917 -193.36129 
L 520.363646 -195.570635 
L 517.351375 -195.614997 
L 514.339105 -194.520844 
L 511.326834 -190.993486 
L 508.314563 -187.042078 
L 505.302292 -186.540911 
L 502.290022 -189.873467 
L 499.277751 -194.606035 
L 496.26548 -197.903098 
L 493.25321 -203.329815 
L 490.240939 -212.636181 
L 487.228668 -222.175494 
L 484.216397 -231.512587 
L 481.204127 -242.083488 
L 478.191856 -255.036485 
L 475.179585 -268.835506 
L 472.167315 -286.334228 
L 469.155044 -306.317105 
L 466.142773 -321.615046 
L 463.130502 -338.518652 
L 460.118232 -361.482283 
L 457.105961 -387.056302 
L 454.09369 -418.249756 
L 451.08142 -449.115392 
L 448.069149 -485.113782 
L 445.056878 -523.314521 
L 442.044607 -556.965074 
L 439.032337 -581.694713 
L 436.020066 -595.952384 
L 433.007795 -608.103554 
L 429.995525 -623.53568 
L 426.983254 -638.961555 
L 423.970983 -648.470359 
L 420.958712 -656.76761 
L 417.946442 -668.815936 
L 414.934171 -674.519809 
L 411.9219 -677.772275 
L 408.90963 -685.090091 
L 405.897359 -689.926181 
L 402.885088 -692.513995 
L 399.872817 -693.448503 
L 396.860547 -696.304786 
L 393.848276 -696.98677 
L 390.836005 -696.602456 
L 387.823735 -700.920101 
L 384.811464 -701.451635 
L 381.799193 -695.988134 
L 378.786922 -690.678856 
L 375.774652 -693.362418 
L 372.762381 -699.128693 
L 369.75011 -706.989105 
L 366.73784 -712.867416 
L 363.725569 -718.004949 
L 360.713298 -714.547802 
L 357.701027 -699.760516 
L 354.688757 -685.085156 
L 351.676486 -678.264838 
L 348.664215 -673.24965 
L 345.651945 -664.980381 
L 342.639674 -651.773301 
L 339.627403 -638.540564 
L 336.615132 -624.156629 
L 333.602862 -604.045084 
L 330.590591 -579.897623 
L 327.57832 -552.992224 
L 324.56605 -522.7894 
L 321.553779 -494.336441 
L 318.541508 -471.870635 
L 315.529237 -451.469703 
L 312.516967 -430.113169 
L 309.504696 -413.301116 
L 306.492425 -405.012256 
L 303.480155 -396.422711 
L 300.467884 -381.435583 
L 297.455613 -362.316769 
L 294.443342 -342.702719 
L 291.431072 -325.995875 
L 288.418801 -311.839581 
L 285.40653 -298.16564 
L 282.39426 -282.337987 
L 279.381989 -269.261092 
L 276.369718 -260.60282 
L 273.357447 -251.636835 
L 270.345177 -240.196758 
L 267.332906 -227.406356 
L 264.320635 -216.449884 
L 261.308365 -205.853233 
L 258.296094 -195.446679 
L 255.283823 -187.380674 
L 252.271552 -180.033619 
L 249.259282 -172.863191 
L 246.247011 -165.510377 
L 243.23474 -158.567216 
L 240.22247 -152.92717 
L 237.210199 -145.960217 
L 234.197928 -137.377034 
L 231.185657 -130.923384 
L 228.173387 -125.714187 
L 225.161116 -121.03537 
L 222.148845 -117.261188 
L 219.136574 -114.600257 
L 216.124304 -112.04214 
L 213.112033 -108.705535 
L 210.099762 -105.84674 
L 207.087492 -105.053182 
L 204.075221 -106.898845 
L 201.06295 -108.405032 
L 198.050679 -107.218073 
L 195.038409 -104.200523 
L 192.026138 -100.925471 
L 189.013867 -98.72005 
L 186.001597 -97.879062 
L 182.989326 -97.661129 
L 179.977055 -97.51628 
L 176.964784 -97.369252 
L 173.952514 -96.842887 
L 170.940243 -96.158912 
L 167.927972 -95.763498 
L 164.915702 -95.591607 
L 161.903431 -95.900883 
L 158.89116 -96.146554 
L 155.878889 -95.609219 
L 152.866619 -95.15225 
L 149.854348 -95.053596 
L 146.842077 -95.042021 
L 143.829807 -95.040227 
L 140.817536 -95.040009 
z
" style="stroke: #0000ff; stroke-width: 3"/>
    </defs>
    <g clip-path="url(#p27903ff330)">
     <use xlink:href="#mbcb6db08ce" x="0" y="864" style="fill: #0000ff; fill-opacity: 0.25; stroke: #0000ff; stroke-width: 3"/>
    </g>
   </g>
   <g id="PolyCollection_2">
    <defs>
     <path id="m90253415fa" d="M 138.436364 -95.040003 
L 138.436364 -95.04 
L 141.471656 -95.04 
L 144.506949 -95.04 
L 147.542242 -95.04 
L 150.577535 -95.04 
L 153.612827 -95.04 
L 156.64812 -95.04 
L 159.683413 -95.04 
L 162.718705 -95.04 
L 165.753998 -95.04 
L 168.789291 -95.04 
L 171.824584 -95.04 
L 174.859876 -95.04 
L 177.895169 -95.04 
L 180.930462 -95.04 
L 183.965755 -95.04 
L 187.001047 -95.04 
L 190.03634 -95.04 
L 193.071633 -95.04 
L 196.106925 -95.04 
L 199.142218 -95.04 
L 202.177511 -95.04 
L 205.212804 -95.04 
L 208.248096 -95.04 
L 211.283389 -95.04 
L 214.318682 -95.04 
L 217.353975 -95.04 
L 220.389267 -95.04 
L 223.42456 -95.04 
L 226.459853 -95.04 
L 229.495145 -95.04 
L 232.530438 -95.04 
L 235.565731 -95.04 
L 238.601024 -95.04 
L 241.636316 -95.04 
L 244.671609 -95.04 
L 247.706902 -95.04 
L 250.742195 -95.04 
L 253.777487 -95.04 
L 256.81278 -95.04 
L 259.848073 -95.04 
L 262.883365 -95.04 
L 265.918658 -95.04 
L 268.953951 -95.04 
L 271.989244 -95.04 
L 275.024536 -95.04 
L 278.059829 -95.04 
L 281.095122 -95.04 
L 284.130415 -95.04 
L 287.165707 -95.04 
L 290.201 -95.04 
L 293.236293 -95.04 
L 296.271585 -95.04 
L 299.306878 -95.04 
L 302.342171 -95.04 
L 305.377464 -95.04 
L 308.412756 -95.04 
L 311.448049 -95.04 
L 314.483342 -95.04 
L 317.518635 -95.04 
L 320.553927 -95.04 
L 323.58922 -95.04 
L 326.624513 -95.04 
L 329.659806 -95.04 
L 332.695098 -95.04 
L 335.730391 -95.04 
L 338.765684 -95.04 
L 341.800976 -95.04 
L 344.836269 -95.04 
L 347.871562 -95.04 
L 350.906855 -95.04 
L 353.942147 -95.04 
L 356.97744 -95.04 
L 360.012733 -95.04 
L 363.048026 -95.04 
L 366.083318 -95.04 
L 369.118611 -95.04 
L 372.153904 -95.04 
L 375.189196 -95.04 
L 378.224489 -95.04 
L 381.259782 -95.04 
L 384.295075 -95.04 
L 387.330367 -95.04 
L 390.36566 -95.04 
L 393.400953 -95.04 
L 396.436246 -95.04 
L 399.471538 -95.04 
L 402.506831 -95.04 
L 405.542124 -95.04 
L 408.577416 -95.04 
L 411.612709 -95.04 
L 414.648002 -95.04 
L 417.683295 -95.04 
L 420.718587 -95.04 
L 423.75388 -95.04 
L 426.789173 -95.04 
L 429.824466 -95.04 
L 432.859758 -95.04 
L 435.895051 -95.04 
L 438.930344 -95.04 
L 441.965636 -95.04 
L 445.000929 -95.04 
L 448.036222 -95.04 
L 451.071515 -95.04 
L 454.106807 -95.04 
L 457.1421 -95.04 
L 460.177393 -95.04 
L 463.212686 -95.04 
L 466.247978 -95.04 
L 469.283271 -95.04 
L 472.318564 -95.04 
L 475.353856 -95.04 
L 478.389149 -95.04 
L 481.424442 -95.04 
L 484.459735 -95.04 
L 487.495027 -95.04 
L 490.53032 -95.04 
L 493.565613 -95.04 
L 496.600906 -95.04 
L 499.636198 -95.04 
L 502.671491 -95.04 
L 505.706784 -95.04 
L 508.742076 -95.04 
L 511.777369 -95.04 
L 514.812662 -95.04 
L 517.847955 -95.04 
L 520.883247 -95.04 
L 523.91854 -95.04 
L 526.953833 -95.04 
L 529.989126 -95.04 
L 533.024418 -95.04 
L 536.059711 -95.04 
L 539.095004 -95.04 
L 542.130296 -95.04 
L 545.165589 -95.04 
L 548.200882 -95.04 
L 551.236175 -95.04 
L 554.271467 -95.04 
L 557.30676 -95.04 
L 560.342053 -95.04 
L 563.377346 -95.04 
L 566.412638 -95.04 
L 569.447931 -95.04 
L 572.483224 -95.04 
L 575.518516 -95.04 
L 578.553809 -95.04 
L 581.589102 -95.04 
L 584.624395 -95.04 
L 587.659687 -95.04 
L 590.69498 -95.04 
L 593.730273 -95.04 
L 596.765566 -95.04 
L 599.800858 -95.04 
L 602.836151 -95.04 
L 605.871444 -95.04 
L 608.906736 -95.04 
L 611.942029 -95.04 
L 614.977322 -95.04 
L 618.012615 -95.04 
L 621.047907 -95.04 
L 624.0832 -95.04 
L 627.118493 -95.04 
L 630.153786 -95.04 
L 633.189078 -95.04 
L 636.224371 -95.04 
L 639.259664 -95.04 
L 642.294956 -95.04 
L 645.330249 -95.04 
L 648.365542 -95.04 
L 651.400835 -95.04 
L 654.436127 -95.04 
L 657.47142 -95.04 
L 660.506713 -95.04 
L 663.542006 -95.04 
L 666.577298 -95.04 
L 669.612591 -95.04 
L 672.647884 -95.04 
L 675.683176 -95.04 
L 678.718469 -95.04 
L 681.753762 -95.04 
L 684.789055 -95.04 
L 687.824347 -95.04 
L 690.85964 -95.04 
L 693.894933 -95.04 
L 696.930226 -95.04 
L 699.965518 -95.04 
L 703.000811 -95.04 
L 706.036104 -95.04 
L 709.071397 -95.04 
L 712.106689 -95.04 
L 715.141982 -95.04 
L 718.177275 -95.04 
L 721.212567 -95.04 
L 724.24786 -95.04 
L 727.283153 -95.04 
L 730.318446 -95.04 
L 733.353738 -95.04 
L 736.389031 -95.04 
L 739.424324 -95.04 
L 742.459617 -95.04 
L 742.459617 -95.135723 
L 742.459617 -95.135723 
L 739.424324 -97.461273 
L 736.389031 -103.781576 
L 733.353738 -100.273218 
L 730.318446 -96.598524 
L 727.283153 -96.444788 
L 724.24786 -97.017555 
L 721.212567 -97.674394 
L 718.177275 -98.195572 
L 715.141982 -98.527221 
L 712.106689 -99.149237 
L 709.071397 -99.623554 
L 706.036104 -99.777285 
L 703.000811 -99.926345 
L 699.965518 -100.673617 
L 696.930226 -101.8832 
L 693.894933 -103.088039 
L 690.85964 -103.862588 
L 687.824347 -104.686305 
L 684.789055 -105.627086 
L 681.753762 -106.90873 
L 678.718469 -107.972988 
L 675.683176 -109.156545 
L 672.647884 -111.10762 
L 669.612591 -112.904245 
L 666.577298 -114.611095 
L 663.542006 -116.333564 
L 660.506713 -118.287398 
L 657.47142 -120.450582 
L 654.436127 -121.913869 
L 651.400835 -123.470568 
L 648.365542 -124.725186 
L 645.330249 -126.533884 
L 642.294956 -128.998575 
L 639.259664 -130.181926 
L 636.224371 -131.557559 
L 633.189078 -134.043804 
L 630.153786 -136.600842 
L 627.118493 -138.74329 
L 624.0832 -140.551115 
L 621.047907 -142.99498 
L 618.012615 -144.895666 
L 614.977322 -145.798672 
L 611.942029 -145.617792 
L 608.906736 -145.691707 
L 605.871444 -146.384517 
L 602.836151 -148.281157 
L 599.800858 -150.937761 
L 596.765566 -153.219385 
L 593.730273 -155.467402 
L 590.69498 -157.726072 
L 587.659687 -159.224776 
L 584.624395 -160.976264 
L 581.589102 -163.5691 
L 578.553809 -166.04463 
L 575.518516 -168.238635 
L 572.483224 -171.77521 
L 569.447931 -173.239162 
L 566.412638 -173.680095 
L 563.377346 -175.590996 
L 560.342053 -179.900743 
L 557.30676 -182.923388 
L 554.271467 -184.534046 
L 551.236175 -186.579588 
L 548.200882 -187.979346 
L 545.165589 -189.406104 
L 542.130296 -189.24728 
L 539.095004 -188.683034 
L 536.059711 -191.703613 
L 533.024418 -195.298415 
L 529.989126 -198.377587 
L 526.953833 -199.794155 
L 523.91854 -201.368433 
L 520.883247 -203.173922 
L 517.847955 -201.016053 
L 514.812662 -197.234153 
L 511.777369 -194.096847 
L 508.742076 -191.940331 
L 505.706784 -190.480815 
L 502.671491 -189.336029 
L 499.636198 -190.67246 
L 496.600906 -192.272981 
L 493.565613 -193.341947 
L 490.53032 -200.383236 
L 487.495027 -211.868783 
L 484.459735 -222.300354 
L 481.424442 -231.516669 
L 478.389149 -241.994776 
L 475.353856 -259.400838 
L 472.318564 -277.669759 
L 469.283271 -297.477158 
L 466.247978 -311.61044 
L 463.212686 -321.677861 
L 460.177393 -335.297829 
L 457.1421 -352.466336 
L 454.106807 -377.314325 
L 451.071515 -407.596532 
L 448.036222 -435.281377 
L 445.000929 -464.610493 
L 441.965636 -491.712731 
L 438.930344 -515.519577 
L 435.895051 -536.159371 
L 432.859758 -554.20517 
L 429.824466 -575.568483 
L 426.789173 -597.712236 
L 423.75388 -617.809127 
L 420.718587 -641.492637 
L 417.683295 -659.152295 
L 414.648002 -674.520478 
L 411.612709 -692.968901 
L 408.577416 -708.251227 
L 405.542124 -708.389052 
L 402.506831 -701.228987 
L 399.471538 -696.411478 
L 396.436246 -701.165825 
L 393.400953 -709.000093 
L 390.36566 -717.806491 
L 387.330367 -726.127517 
L 384.295075 -725.836548 
L 381.259782 -723.38952 
L 378.224489 -721.957101 
L 375.189196 -721.751384 
L 372.153904 -723.065753 
L 369.118611 -722.344764 
L 366.083318 -722.656005 
L 363.048026 -727.691607 
L 360.012733 -728.64 
L 356.97744 -724.850012 
L 353.942147 -713.524932 
L 350.906855 -694.076821 
L 347.871562 -679.129333 
L 344.836269 -654.352632 
L 341.800976 -629.33246 
L 338.765684 -609.558297 
L 335.730391 -588.21194 
L 332.695098 -562.452682 
L 329.659806 -540.879914 
L 326.624513 -520.818218 
L 323.58922 -502.153477 
L 320.553927 -483.48475 
L 317.518635 -463.183311 
L 314.483342 -446.131234 
L 311.448049 -432.522267 
L 308.412756 -424.381583 
L 305.377464 -414.99421 
L 302.342171 -401.681238 
L 299.306878 -384.918058 
L 296.271585 -364.677593 
L 293.236293 -345.854639 
L 290.201 -327.536111 
L 287.165707 -308.802596 
L 284.130415 -293.021526 
L 281.095122 -277.47216 
L 278.059829 -264.338319 
L 275.024536 -255.475408 
L 271.989244 -245.961628 
L 268.953951 -234.811272 
L 265.918658 -225.98228 
L 262.883365 -218.318186 
L 259.848073 -210.683337 
L 256.81278 -202.843057 
L 253.777487 -193.294539 
L 250.742195 -183.7658 
L 247.706902 -176.007258 
L 244.671609 -169.159461 
L 241.636316 -161.772999 
L 238.601024 -152.912109 
L 235.565731 -144.301623 
L 232.530438 -137.048343 
L 229.495145 -131.789106 
L 226.459853 -126.746959 
L 223.42456 -121.296258 
L 220.389267 -116.877107 
L 217.353975 -113.202069 
L 214.318682 -109.724312 
L 211.283389 -107.0275 
L 208.248096 -104.650526 
L 205.212804 -103.178157 
L 202.177511 -103.288269 
L 199.142218 -103.169712 
L 196.106925 -101.806638 
L 193.071633 -99.904597 
L 190.03634 -98.125498 
L 187.001047 -96.752163 
L 183.965755 -96.018748 
L 180.930462 -96.103677 
L 177.895169 -96.66632 
L 174.859876 -96.468968 
L 171.824584 -95.772263 
L 168.789291 -95.487258 
L 165.753998 -95.559323 
L 162.718705 -96.34494 
L 159.683413 -97.222074 
L 156.64812 -96.397887 
L 153.612827 -95.35962 
L 150.577535 -95.086713 
L 147.542242 -95.046375 
L 144.506949 -95.041045 
L 141.471656 -95.040117 
L 138.436364 -95.040003 
z
" style="stroke: #ff0000; stroke-width: 3"/>
    </defs>
    <g clip-path="url(#p27903ff330)">
     <use xlink:href="#m90253415fa" x="0" y="864" style="fill: #ff0000; fill-opacity: 0.25; stroke: #ff0000; stroke-width: 3"/>
    </g>
   </g>
   <g id="PolyCollection_3">
    <defs>
     <path id="m9681931e68" d="M 142.369546 -95.040027 
L 142.369546 -95.04 
L 145.408712 -95.04 
L 148.447878 -95.04 
L 151.487044 -95.04 
L 154.526211 -95.04 
L 157.565377 -95.04 
L 160.604543 -95.04 
L 163.64371 -95.04 
L 166.682876 -95.04 
L 169.722042 -95.04 
L 172.761208 -95.04 
L 175.800375 -95.04 
L 178.839541 -95.04 
L 181.878707 -95.04 
L 184.917874 -95.04 
L 187.95704 -95.04 
L 190.996206 -95.04 
L 194.035372 -95.04 
L 197.074539 -95.04 
L 200.113705 -95.04 
L 203.152871 -95.04 
L 206.192038 -95.04 
L 209.231204 -95.04 
L 212.27037 -95.04 
L 215.309536 -95.04 
L 218.348703 -95.04 
L 221.387869 -95.04 
L 224.427035 -95.04 
L 227.466202 -95.04 
L 230.505368 -95.04 
L 233.544534 -95.04 
L 236.5837 -95.04 
L 239.622867 -95.04 
L 242.662033 -95.04 
L 245.701199 -95.04 
L 248.740366 -95.04 
L 251.779532 -95.04 
L 254.818698 -95.04 
L 257.857864 -95.04 
L 260.897031 -95.04 
L 263.936197 -95.04 
L 266.975363 -95.04 
L 270.01453 -95.04 
L 273.053696 -95.04 
L 276.092862 -95.04 
L 279.132028 -95.04 
L 282.171195 -95.04 
L 285.210361 -95.04 
L 288.249527 -95.04 
L 291.288694 -95.04 
L 294.32786 -95.04 
L 297.367026 -95.04 
L 300.406192 -95.04 
L 303.445359 -95.04 
L 306.484525 -95.04 
L 309.523691 -95.04 
L 312.562858 -95.04 
L 315.602024 -95.04 
L 318.64119 -95.04 
L 321.680356 -95.04 
L 324.719523 -95.04 
L 327.758689 -95.04 
L 330.797855 -95.04 
L 333.837022 -95.04 
L 336.876188 -95.04 
L 339.915354 -95.04 
L 342.95452 -95.04 
L 345.993687 -95.04 
L 349.032853 -95.04 
L 352.072019 -95.04 
L 355.111186 -95.04 
L 358.150352 -95.04 
L 361.189518 -95.04 
L 364.228684 -95.04 
L 367.267851 -95.04 
L 370.307017 -95.04 
L 373.346183 -95.04 
L 376.38535 -95.04 
L 379.424516 -95.04 
L 382.463682 -95.04 
L 385.502848 -95.04 
L 388.542015 -95.04 
L 391.581181 -95.04 
L 394.620347 -95.04 
L 397.659514 -95.04 
L 400.69868 -95.04 
L 403.737846 -95.04 
L 406.777012 -95.04 
L 409.816179 -95.04 
L 412.855345 -95.04 
L 415.894511 -95.04 
L 418.933678 -95.04 
L 421.972844 -95.04 
L 425.01201 -95.04 
L 428.051176 -95.04 
L 431.090343 -95.04 
L 434.129509 -95.04 
L 437.168675 -95.04 
L 440.207842 -95.04 
L 443.247008 -95.04 
L 446.286174 -95.04 
L 449.32534 -95.04 
L 452.364507 -95.04 
L 455.403673 -95.04 
L 458.442839 -95.04 
L 461.482006 -95.04 
L 464.521172 -95.04 
L 467.560338 -95.04 
L 470.599504 -95.04 
L 473.638671 -95.04 
L 476.677837 -95.04 
L 479.717003 -95.04 
L 482.75617 -95.04 
L 485.795336 -95.04 
L 488.834502 -95.04 
L 491.873668 -95.04 
L 494.912835 -95.04 
L 497.952001 -95.04 
L 500.991167 -95.04 
L 504.030334 -95.04 
L 507.0695 -95.04 
L 510.108666 -95.04 
L 513.147832 -95.04 
L 516.186999 -95.04 
L 519.226165 -95.04 
L 522.265331 -95.04 
L 525.304498 -95.04 
L 528.343664 -95.04 
L 531.38283 -95.04 
L 534.421996 -95.04 
L 537.461163 -95.04 
L 540.500329 -95.04 
L 543.539495 -95.04 
L 546.578662 -95.04 
L 549.617828 -95.04 
L 552.656994 -95.04 
L 555.69616 -95.04 
L 558.735327 -95.04 
L 561.774493 -95.04 
L 564.813659 -95.04 
L 567.852826 -95.04 
L 570.891992 -95.04 
L 573.931158 -95.04 
L 576.970324 -95.04 
L 580.009491 -95.04 
L 583.048657 -95.04 
L 586.087823 -95.04 
L 589.12699 -95.04 
L 592.166156 -95.04 
L 595.205322 -95.04 
L 598.244488 -95.04 
L 601.283655 -95.04 
L 604.322821 -95.04 
L 607.361987 -95.04 
L 610.401154 -95.04 
L 613.44032 -95.04 
L 616.479486 -95.04 
L 619.518652 -95.04 
L 622.557819 -95.04 
L 625.596985 -95.04 
L 628.636151 -95.04 
L 631.675318 -95.04 
L 634.714484 -95.04 
L 637.75365 -95.04 
L 640.792816 -95.04 
L 643.831983 -95.04 
L 646.871149 -95.04 
L 649.910315 -95.04 
L 652.949482 -95.04 
L 655.988648 -95.04 
L 659.027814 -95.04 
L 662.06698 -95.04 
L 665.106147 -95.04 
L 668.145313 -95.04 
L 671.184479 -95.04 
L 674.223646 -95.04 
L 677.262812 -95.04 
L 680.301978 -95.04 
L 683.341144 -95.04 
L 686.380311 -95.04 
L 689.419477 -95.04 
L 692.458643 -95.04 
L 695.49781 -95.04 
L 698.536976 -95.04 
L 701.576142 -95.04 
L 704.615308 -95.04 
L 707.654475 -95.04 
L 710.693641 -95.04 
L 713.732807 -95.04 
L 716.771974 -95.04 
L 719.81114 -95.04 
L 722.850306 -95.04 
L 725.889472 -95.04 
L 728.928639 -95.04 
L 731.967805 -95.04 
L 735.006971 -95.04 
L 738.046138 -95.04 
L 741.085304 -95.04 
L 744.12447 -95.04 
L 747.163636 -95.04 
L 747.163636 -95.269445 
L 747.163636 -95.269445 
L 744.12447 -96.944895 
L 741.085304 -103.221381 
L 738.046138 -113.352419 
L 735.006971 -116.950864 
L 731.967805 -110.519882 
L 728.928639 -104.177029 
L 725.889472 -102.604949 
L 722.850306 -103.21922 
L 719.81114 -104.152385 
L 716.771974 -105.552021 
L 713.732807 -107.486676 
L 710.693641 -109.035651 
L 707.654475 -109.784503 
L 704.615308 -109.93893 
L 701.576142 -110.26271 
L 698.536976 -112.02349 
L 695.49781 -114.926638 
L 692.458643 -116.631955 
L 689.419477 -115.896364 
L 686.380311 -114.272521 
L 683.341144 -113.683334 
L 680.301978 -114.121677 
L 677.262812 -114.568092 
L 674.223646 -114.493635 
L 671.184479 -114.348162 
L 668.145313 -114.724035 
L 665.106147 -114.97089 
L 662.06698 -114.554472 
L 659.027814 -114.718957 
L 655.988648 -116.389451 
L 652.949482 -118.641682 
L 649.910315 -119.906866 
L 646.871149 -119.741517 
L 643.831983 -118.745107 
L 640.792816 -117.803914 
L 637.75365 -117.530079 
L 634.714484 -118.538696 
L 631.675318 -121.308995 
L 628.636151 -124.139567 
L 625.596985 -125.435572 
L 622.557819 -126.626161 
L 619.518652 -128.612058 
L 616.479486 -130.327003 
L 613.44032 -131.097853 
L 610.401154 -131.588594 
L 607.361987 -132.384427 
L 604.322821 -132.862384 
L 601.283655 -132.537718 
L 598.244488 -132.711119 
L 595.205322 -134.38424 
L 592.166156 -136.788567 
L 589.12699 -139.112025 
L 586.087823 -140.880418 
L 583.048657 -142.133713 
L 580.009491 -143.753888 
L 576.970324 -146.431906 
L 573.931158 -149.227191 
L 570.891992 -150.077708 
L 567.852826 -149.313815 
L 564.813659 -149.45185 
L 561.774493 -151.069546 
L 558.735327 -152.344965 
L 555.69616 -152.739722 
L 552.656994 -154.733771 
L 549.617828 -158.930533 
L 546.578662 -162.436344 
L 543.539495 -164.519962 
L 540.500329 -167.566877 
L 537.461163 -173.659881 
L 534.421996 -180.982404 
L 531.38283 -185.112851 
L 528.343664 -185.56739 
L 525.304498 -186.03375 
L 522.265331 -188.033071 
L 519.226165 -189.534465 
L 516.186999 -191.500897 
L 513.147832 -197.838948 
L 510.108666 -206.559758 
L 507.0695 -213.445037 
L 504.030334 -219.356034 
L 500.991167 -223.313416 
L 497.952001 -221.51585 
L 494.912835 -217.52537 
L 491.873668 -218.500804 
L 488.834502 -224.78725 
L 485.795336 -233.491294 
L 482.75617 -244.508436 
L 479.717003 -256.917506 
L 476.677837 -269.139535 
L 473.638671 -282.724892 
L 470.599504 -298.574894 
L 467.560338 -315.23991 
L 464.521172 -334.868151 
L 461.482006 -362.832775 
L 458.442839 -398.806262 
L 455.403673 -436.935336 
L 452.364507 -476.184872 
L 449.32534 -517.860975 
L 446.286174 -558.198127 
L 443.247008 -595.677874 
L 440.207842 -630.694846 
L 437.168675 -659.454203 
L 434.129509 -677.520954 
L 431.090343 -681.403944 
L 428.051176 -672.635049 
L 425.01201 -663.430945 
L 421.972844 -661.897096 
L 418.933678 -661.432584 
L 415.894511 -655.412622 
L 412.855345 -648.141701 
L 409.816179 -646.54356 
L 406.777012 -651.056118 
L 403.737846 -658.294281 
L 400.69868 -666.513992 
L 397.659514 -672.715344 
L 394.620347 -672.183637 
L 391.581181 -666.529022 
L 388.542015 -660.755578 
L 385.502848 -653.084487 
L 382.463682 -643.919909 
L 379.424516 -640.204392 
L 376.38535 -646.247069 
L 373.346183 -662.277861 
L 370.307017 -685.870473 
L 367.267851 -708.820022 
L 364.228684 -716.695744 
L 361.189518 -704.625283 
L 358.150352 -683.307779 
L 355.111186 -665.222317 
L 352.072019 -655.890642 
L 349.032853 -655.006746 
L 345.993687 -659.197974 
L 342.95452 -664.795485 
L 339.915354 -667.202365 
L 336.876188 -660.147246 
L 333.837022 -642.786103 
L 330.797855 -615.843126 
L 327.758689 -579.198549 
L 324.719523 -540.950475 
L 321.680356 -509.133993 
L 318.64119 -481.656007 
L 315.602024 -453.424514 
L 312.562858 -424.895748 
L 309.523691 -401.977079 
L 306.484525 -386.835797 
L 303.445359 -376.944845 
L 300.406192 -369.71525 
L 297.367026 -360.117941 
L 294.32786 -344.943781 
L 291.288694 -328.123072 
L 288.249527 -312.625785 
L 285.210361 -296.9565 
L 282.171195 -280.841591 
L 279.132028 -266.92947 
L 276.092862 -255.975127 
L 273.053696 -245.375679 
L 270.01453 -233.865958 
L 266.975363 -221.891557 
L 263.936197 -209.681385 
L 260.897031 -197.517129 
L 257.857864 -186.291682 
L 254.818698 -177.075798 
L 251.779532 -169.651927 
L 248.740366 -163.073606 
L 245.701199 -157.156186 
L 242.662033 -151.815309 
L 239.622867 -146.357003 
L 236.5837 -139.895833 
L 233.544534 -132.701685 
L 230.505368 -126.005247 
L 227.466202 -120.683523 
L 224.427035 -116.951046 
L 221.387869 -114.492034 
L 218.348703 -112.512359 
L 215.309536 -110.186428 
L 212.27037 -107.792498 
L 209.231204 -106.72567 
L 206.192038 -108.084568 
L 203.152871 -110.559878 
L 200.113705 -111.223429 
L 197.074539 -109.099529 
L 194.035372 -105.528738 
L 190.996206 -102.076358 
L 187.95704 -99.849112 
L 184.917874 -99.120104 
L 181.878707 -99.102312 
L 178.839541 -98.863125 
L 175.800375 -98.155754 
L 172.761208 -97.234665 
L 169.722042 -96.430822 
L 166.682876 -95.850784 
L 163.64371 -95.453446 
L 160.604543 -95.217982 
L 157.565377 -95.105228 
L 154.526211 -95.060656 
L 151.487044 -95.045807 
L 148.447878 -95.04141 
L 145.408712 -95.04025 
L 142.369546 -95.040027 
z
" style="stroke: #008000; stroke-width: 3"/>
    </defs>
    <g clip-path="url(#p27903ff330)">
     <use xlink:href="#m9681931e68" x="0" y="864" style="fill: #008000; fill-opacity: 0.25; stroke: #008000; stroke-width: 3"/>
    </g>
   </g>
   <g id="matplotlib.axis_1">
    <g id="xtick_1">
     <g id="line2d_1">
      <defs>
       <path id="me893cc16bf" d="M 0 0 
L 0 3.5 
" style="stroke: #000000; stroke-width: 0.8"/>
      </defs>
      <g>
       <use xlink:href="#me893cc16bf" x="139.167726" y="768.96" style="stroke: #000000; stroke-width: 0.8"/>
      </g>
     </g>
     <g id="text_1">
      <!-- 0.0 -->
      <g transform="translate(131.216163 783.558437)scale(0.1 -0.1)">
       <defs>
        <path id="DejaVuSans-30" d="M 2034 4250 
Q 1547 4250 1301 3770 
Q 1056 3291 1056 2328 
Q 1056 1369 1301 889 
Q 1547 409 2034 409 
Q 2525 409 2770 889 
Q 3016 1369 3016 2328 
Q 3016 3291 2770 3770 
Q 2525 4250 2034 4250 
z
M 2034 4750 
Q 2819 4750 3233 4129 
Q 3647 3509 3647 2328 
Q 3647 1150 3233 529 
Q 2819 -91 2034 -91 
Q 1250 -91 836 529 
Q 422 1150 422 2328 
Q 422 3509 836 4129 
Q 1250 4750 2034 4750 
z
" transform="scale(0.015625)"/>
        <path id="DejaVuSans-2e" d="M 684 794 
L 1344 794 
L 1344 0 
L 684 0 
L 684 794 
z
" transform="scale(0.015625)"/>
       </defs>
       <use xlink:href="#DejaVuSans-30"/>
       <use xlink:href="#DejaVuSans-2e" x="63.623047"/>
       <use xlink:href="#DejaVuSans-30" x="95.410156"/>
      </g>
     </g>
    </g>
    <g id="xtick_2">
     <g id="line2d_2">
      <g>
       <use xlink:href="#me893cc16bf" x="258.528442" y="768.96" style="stroke: #000000; stroke-width: 0.8"/>
      </g>
     </g>
     <g id="text_2">
      <!-- 0.2 -->
      <g transform="translate(250.576879 783.558437)scale(0.1 -0.1)">
       <defs>
        <path id="DejaVuSans-32" d="M 1228 531 
L 3431 531 
L 3431 0 
L 469 0 
L 469 531 
Q 828 903 1448 1529 
Q 2069 2156 2228 2338 
Q 2531 2678 2651 2914 
Q 2772 3150 2772 3378 
Q 2772 3750 2511 3984 
Q 2250 4219 1831 4219 
Q 1534 4219 1204 4116 
Q 875 4013 500 3803 
L 500 4441 
Q 881 4594 1212 4672 
Q 1544 4750 1819 4750 
Q 2544 4750 2975 4387 
Q 3406 4025 3406 3419 
Q 3406 3131 3298 2873 
Q 3191 2616 2906 2266 
Q 2828 2175 2409 1742 
Q 1991 1309 1228 531 
z
" transform="scale(0.015625)"/>
       </defs>
       <use xlink:href="#DejaVuSans-30"/>
       <use xlink:href="#DejaVuSans-2e" x="63.623047"/>
       <use xlink:href="#DejaVuSans-32" x="95.410156"/>
      </g>
     </g>
    </g>
    <g id="xtick_3">
     <g id="line2d_3">
      <g>
       <use xlink:href="#me893cc16bf" x="377.889158" y="768.96" style="stroke: #000000; stroke-width: 0.8"/>
      </g>
     </g>
     <g id="text_3">
      <!-- 0.4 -->
      <g transform="translate(369.937596 783.558437)scale(0.1 -0.1)">
       <defs>
        <path id="DejaVuSans-34" d="M 2419 4116 
L 825 1625 
L 2419 1625 
L 2419 4116 
z
M 2253 4666 
L 3047 4666 
L 3047 1625 
L 3713 1625 
L 3713 1100 
L 3047 1100 
L 3047 0 
L 2419 0 
L 2419 1100 
L 313 1100 
L 313 1709 
L 2253 4666 
z
" transform="scale(0.015625)"/>
       </defs>
       <use xlink:href="#DejaVuSans-30"/>
       <use xlink:href="#DejaVuSans-2e" x="63.623047"/>
       <use xlink:href="#DejaVuSans-34" x="95.410156"/>
      </g>
     </g>
    </g>
    <g id="xtick_4">
     <g id="line2d_4">
      <g>
       <use xlink:href="#me893cc16bf" x="497.249874" y="768.96" style="stroke: #000000; stroke-width: 0.8"/>
      </g>
     </g>
     <g id="text_4">
      <!-- 0.6 -->
      <g transform="translate(489.298312 783.558437)scale(0.1 -0.1)">
       <defs>
        <path id="DejaVuSans-36" d="M 2113 2584 
Q 1688 2584 1439 2293 
Q 1191 2003 1191 1497 
Q 1191 994 1439 701 
Q 1688 409 2113 409 
Q 2538 409 2786 701 
Q 3034 994 3034 1497 
Q 3034 2003 2786 2293 
Q 2538 2584 2113 2584 
z
M 3366 4563 
L 3366 3988 
Q 3128 4100 2886 4159 
Q 2644 4219 2406 4219 
Q 1781 4219 1451 3797 
Q 1122 3375 1075 2522 
Q 1259 2794 1537 2939 
Q 1816 3084 2150 3084 
Q 2853 3084 3261 2657 
Q 3669 2231 3669 1497 
Q 3669 778 3244 343 
Q 2819 -91 2113 -91 
Q 1303 -91 875 529 
Q 447 1150 447 2328 
Q 447 3434 972 4092 
Q 1497 4750 2381 4750 
Q 2619 4750 2861 4703 
Q 3103 4656 3366 4563 
z
" transform="scale(0.015625)"/>
       </defs>
       <use xlink:href="#DejaVuSans-30"/>
       <use xlink:href="#DejaVuSans-2e" x="63.623047"/>
       <use xlink:href="#DejaVuSans-36" x="95.410156"/>
      </g>
     </g>
    </g>
    <g id="xtick_5">
     <g id="line2d_5">
      <g>
       <use xlink:href="#me893cc16bf" x="616.610591" y="768.96" style="stroke: #000000; stroke-width: 0.8"/>
      </g>
     </g>
     <g id="text_5">
      <!-- 0.8 -->
      <g transform="translate(608.659028 783.558437)scale(0.1 -0.1)">
       <defs>
        <path id="DejaVuSans-38" d="M 2034 2216 
Q 1584 2216 1326 1975 
Q 1069 1734 1069 1313 
Q 1069 891 1326 650 
Q 1584 409 2034 409 
Q 2484 409 2743 651 
Q 3003 894 3003 1313 
Q 3003 1734 2745 1975 
Q 2488 2216 2034 2216 
z
M 1403 2484 
Q 997 2584 770 2862 
Q 544 3141 544 3541 
Q 544 4100 942 4425 
Q 1341 4750 2034 4750 
Q 2731 4750 3128 4425 
Q 3525 4100 3525 3541 
Q 3525 3141 3298 2862 
Q 3072 2584 2669 2484 
Q 3125 2378 3379 2068 
Q 3634 1759 3634 1313 
Q 3634 634 3220 271 
Q 2806 -91 2034 -91 
Q 1263 -91 848 271 
Q 434 634 434 1313 
Q 434 1759 690 2068 
Q 947 2378 1403 2484 
z
M 1172 3481 
Q 1172 3119 1398 2916 
Q 1625 2713 2034 2713 
Q 2441 2713 2670 2916 
Q 2900 3119 2900 3481 
Q 2900 3844 2670 4047 
Q 2441 4250 2034 4250 
Q 1625 4250 1398 4047 
Q 1172 3844 1172 3481 
z
" transform="scale(0.015625)"/>
       </defs>
       <use xlink:href="#DejaVuSans-30"/>
       <use xlink:href="#DejaVuSans-2e" x="63.623047"/>
       <use xlink:href="#DejaVuSans-38" x="95.410156"/>
      </g>
     </g>
    </g>
    <g id="xtick_6">
     <g id="line2d_6">
      <g>
       <use xlink:href="#me893cc16bf" x="735.971307" y="768.96" style="stroke: #000000; stroke-width: 0.8"/>
      </g>
     </g>
     <g id="text_6">
      <!-- 1.0 -->
      <g transform="translate(728.019744 783.558437)scale(0.1 -0.1)">
       <defs>
        <path id="DejaVuSans-31" d="M 794 531 
L 1825 531 
L 1825 4091 
L 703 3866 
L 703 4441 
L 1819 4666 
L 2450 4666 
L 2450 531 
L 3481 531 
L 3481 0 
L 794 0 
L 794 531 
z
" transform="scale(0.015625)"/>
       </defs>
       <use xlink:href="#DejaVuSans-31"/>
       <use xlink:href="#DejaVuSans-2e" x="63.623047"/>
       <use xlink:href="#DejaVuSans-30" x="95.410156"/>
      </g>
     </g>
    </g>
    <g id="text_7">
     <!-- Similarity -->
     <g transform="translate(404.97625 801.795625)scale(0.16 -0.16)">
      <defs>
       <path id="DejaVuSans-53" d="M 3425 4513 
L 3425 3897 
Q 3066 4069 2747 4153 
Q 2428 4238 2131 4238 
Q 1616 4238 1336 4038 
Q 1056 3838 1056 3469 
Q 1056 3159 1242 3001 
Q 1428 2844 1947 2747 
L 2328 2669 
Q 3034 2534 3370 2195 
Q 3706 1856 3706 1288 
Q 3706 609 3251 259 
Q 2797 -91 1919 -91 
Q 1588 -91 1214 -16 
Q 841 59 441 206 
L 441 856 
Q 825 641 1194 531 
Q 1563 422 1919 422 
Q 2459 422 2753 634 
Q 3047 847 3047 1241 
Q 3047 1584 2836 1778 
Q 2625 1972 2144 2069 
L 1759 2144 
Q 1053 2284 737 2584 
Q 422 2884 422 3419 
Q 422 4038 858 4394 
Q 1294 4750 2059 4750 
Q 2388 4750 2728 4690 
Q 3069 4631 3425 4513 
z
" transform="scale(0.015625)"/>
       <path id="DejaVuSans-69" d="M 603 3500 
L 1178 3500 
L 1178 0 
L 603 0 
L 603 3500 
z
M 603 4863 
L 1178 4863 
L 1178 4134 
L 603 4134 
L 603 4863 
z
" transform="scale(0.015625)"/>
       <path id="DejaVuSans-6d" d="M 3328 2828 
Q 3544 3216 3844 3400 
Q 4144 3584 4550 3584 
Q 5097 3584 5394 3201 
Q 5691 2819 5691 2113 
L 5691 0 
L 5113 0 
L 5113 2094 
Q 5113 2597 4934 2840 
Q 4756 3084 4391 3084 
Q 3944 3084 3684 2787 
Q 3425 2491 3425 1978 
L 3425 0 
L 2847 0 
L 2847 2094 
Q 2847 2600 2669 2842 
Q 2491 3084 2119 3084 
Q 1678 3084 1418 2786 
Q 1159 2488 1159 1978 
L 1159 0 
L 581 0 
L 581 3500 
L 1159 3500 
L 1159 2956 
Q 1356 3278 1631 3431 
Q 1906 3584 2284 3584 
Q 2666 3584 2933 3390 
Q 3200 3197 3328 2828 
z
" transform="scale(0.015625)"/>
       <path id="DejaVuSans-6c" d="M 603 4863 
L 1178 4863 
L 1178 0 
L 603 0 
L 603 4863 
z
" transform="scale(0.015625)"/>
       <path id="DejaVuSans-61" d="M 2194 1759 
Q 1497 1759 1228 1600 
Q 959 1441 959 1056 
Q 959 750 1161 570 
Q 1363 391 1709 391 
Q 2188 391 2477 730 
Q 2766 1069 2766 1631 
L 2766 1759 
L 2194 1759 
z
M 3341 1997 
L 3341 0 
L 2766 0 
L 2766 531 
Q 2569 213 2275 61 
Q 1981 -91 1556 -91 
Q 1019 -91 701 211 
Q 384 513 384 1019 
Q 384 1609 779 1909 
Q 1175 2209 1959 2209 
L 2766 2209 
L 2766 2266 
Q 2766 2663 2505 2880 
Q 2244 3097 1772 3097 
Q 1472 3097 1187 3025 
Q 903 2953 641 2809 
L 641 3341 
Q 956 3463 1253 3523 
Q 1550 3584 1831 3584 
Q 2591 3584 2966 3190 
Q 3341 2797 3341 1997 
z
" transform="scale(0.015625)"/>
       <path id="DejaVuSans-72" d="M 2631 2963 
Q 2534 3019 2420 3045 
Q 2306 3072 2169 3072 
Q 1681 3072 1420 2755 
Q 1159 2438 1159 1844 
L 1159 0 
L 581 0 
L 581 3500 
L 1159 3500 
L 1159 2956 
Q 1341 3275 1631 3429 
Q 1922 3584 2338 3584 
Q 2397 3584 2469 3576 
Q 2541 3569 2628 3553 
L 2631 2963 
z
" transform="scale(0.015625)"/>
       <path id="DejaVuSans-74" d="M 1172 4494 
L 1172 3500 
L 2356 3500 
L 2356 3053 
L 1172 3053 
L 1172 1153 
Q 1172 725 1289 603 
Q 1406 481 1766 481 
L 2356 481 
L 2356 0 
L 1766 0 
Q 1100 0 847 248 
Q 594 497 594 1153 
L 594 3053 
L 172 3053 
L 172 3500 
L 594 3500 
L 594 4494 
L 1172 4494 
z
" transform="scale(0.015625)"/>
       <path id="DejaVuSans-79" d="M 2059 -325 
Q 1816 -950 1584 -1140 
Q 1353 -1331 966 -1331 
L 506 -1331 
L 506 -850 
L 844 -850 
Q 1081 -850 1212 -737 
Q 1344 -625 1503 -206 
L 1606 56 
L 191 3500 
L 800 3500 
L 1894 763 
L 2988 3500 
L 3597 3500 
L 2059 -325 
z
" transform="scale(0.015625)"/>
      </defs>
      <use xlink:href="#DejaVuSans-53"/>
      <use xlink:href="#DejaVuSans-69" x="63.476562"/>
      <use xlink:href="#DejaVuSans-6d" x="91.259766"/>
      <use xlink:href="#DejaVuSans-69" x="188.671875"/>
      <use xlink:href="#DejaVuSans-6c" x="216.455078"/>
      <use xlink:href="#DejaVuSans-61" x="244.238281"/>
      <use xlink:href="#DejaVuSans-72" x="305.517578"/>
      <use xlink:href="#DejaVuSans-69" x="346.630859"/>
      <use xlink:href="#DejaVuSans-74" x="374.414062"/>
      <use xlink:href="#DejaVuSans-79" x="413.623047"/>
     </g>
    </g>
   </g>
   <g id="matplotlib.axis_2">
    <g id="ytick_1">
     <g id="line2d_7">
      <defs>
       <path id="m656c4d2649" d="M 0 0 
L -3.5 0 
" style="stroke: #000000; stroke-width: 0.8"/>
      </defs>
      <g>
       <use xlink:href="#m656c4d2649" x="108" y="768.96" style="stroke: #000000; stroke-width: 0.8"/>
      </g>
     </g>
     <g id="text_8">
      <!-- 0.0 -->
      <g transform="translate(85.096875 772.759219)scale(0.1 -0.1)">
       <use xlink:href="#DejaVuSans-30"/>
       <use xlink:href="#DejaVuSans-2e" x="63.623047"/>
       <use xlink:href="#DejaVuSans-30" x="95.410156"/>
      </g>
     </g>
    </g>
    <g id="ytick_2">
     <g id="line2d_8">
      <g>
       <use xlink:href="#m656c4d2649" x="108" y="677.817729" style="stroke: #000000; stroke-width: 0.8"/>
      </g>
     </g>
     <g id="text_9">
      <!-- 0.5 -->
      <g transform="translate(85.096875 681.616948)scale(0.1 -0.1)">
       <defs>
        <path id="DejaVuSans-35" d="M 691 4666 
L 3169 4666 
L 3169 4134 
L 1269 4134 
L 1269 2991 
Q 1406 3038 1543 3061 
Q 1681 3084 1819 3084 
Q 2600 3084 3056 2656 
Q 3513 2228 3513 1497 
Q 3513 744 3044 326 
Q 2575 -91 1722 -91 
Q 1428 -91 1123 -41 
Q 819 9 494 109 
L 494 744 
Q 775 591 1075 516 
Q 1375 441 1709 441 
Q 2250 441 2565 725 
Q 2881 1009 2881 1497 
Q 2881 1984 2565 2268 
Q 2250 2553 1709 2553 
Q 1456 2553 1204 2497 
Q 953 2441 691 2322 
L 691 4666 
z
" transform="scale(0.015625)"/>
       </defs>
       <use xlink:href="#DejaVuSans-30"/>
       <use xlink:href="#DejaVuSans-2e" x="63.623047"/>
       <use xlink:href="#DejaVuSans-35" x="95.410156"/>
      </g>
     </g>
    </g>
    <g id="ytick_3">
     <g id="line2d_9">
      <g>
       <use xlink:href="#m656c4d2649" x="108" y="586.675458" style="stroke: #000000; stroke-width: 0.8"/>
      </g>
     </g>
     <g id="text_10">
      <!-- 1.0 -->
      <g transform="translate(85.096875 590.474677)scale(0.1 -0.1)">
       <use xlink:href="#DejaVuSans-31"/>
       <use xlink:href="#DejaVuSans-2e" x="63.623047"/>
       <use xlink:href="#DejaVuSans-30" x="95.410156"/>
      </g>
     </g>
    </g>
    <g id="ytick_4">
     <g id="line2d_10">
      <g>
       <use xlink:href="#m656c4d2649" x="108" y="495.533187" style="stroke: #000000; stroke-width: 0.8"/>
      </g>
     </g>
     <g id="text_11">
      <!-- 1.5 -->
      <g transform="translate(85.096875 499.332406)scale(0.1 -0.1)">
       <use xlink:href="#DejaVuSans-31"/>
       <use xlink:href="#DejaVuSans-2e" x="63.623047"/>
       <use xlink:href="#DejaVuSans-35" x="95.410156"/>
      </g>
     </g>
    </g>
    <g id="ytick_5">
     <g id="line2d_11">
      <g>
       <use xlink:href="#m656c4d2649" x="108" y="404.390916" style="stroke: #000000; stroke-width: 0.8"/>
      </g>
     </g>
     <g id="text_12">
      <!-- 2.0 -->
      <g transform="translate(85.096875 408.190135)scale(0.1 -0.1)">
       <use xlink:href="#DejaVuSans-32"/>
       <use xlink:href="#DejaVuSans-2e" x="63.623047"/>
       <use xlink:href="#DejaVuSans-30" x="95.410156"/>
      </g>
     </g>
    </g>
    <g id="ytick_6">
     <g id="line2d_12">
      <g>
       <use xlink:href="#m656c4d2649" x="108" y="313.248645" style="stroke: #000000; stroke-width: 0.8"/>
      </g>
     </g>
     <g id="text_13">
      <!-- 2.5 -->
      <g transform="translate(85.096875 317.047864)scale(0.1 -0.1)">
       <use xlink:href="#DejaVuSans-32"/>
       <use xlink:href="#DejaVuSans-2e" x="63.623047"/>
       <use xlink:href="#DejaVuSans-35" x="95.410156"/>
      </g>
     </g>
    </g>
    <g id="ytick_7">
     <g id="line2d_13">
      <g>
       <use xlink:href="#m656c4d2649" x="108" y="222.106374" style="stroke: #000000; stroke-width: 0.8"/>
      </g>
     </g>
     <g id="text_14">
      <!-- 3.0 -->
      <g transform="translate(85.096875 225.905593)scale(0.1 -0.1)">
       <defs>
        <path id="DejaVuSans-33" d="M 2597 2516 
Q 3050 2419 3304 2112 
Q 3559 1806 3559 1356 
Q 3559 666 3084 287 
Q 2609 -91 1734 -91 
Q 1441 -91 1130 -33 
Q 819 25 488 141 
L 488 750 
Q 750 597 1062 519 
Q 1375 441 1716 441 
Q 2309 441 2620 675 
Q 2931 909 2931 1356 
Q 2931 1769 2642 2001 
Q 2353 2234 1838 2234 
L 1294 2234 
L 1294 2753 
L 1863 2753 
Q 2328 2753 2575 2939 
Q 2822 3125 2822 3475 
Q 2822 3834 2567 4026 
Q 2313 4219 1838 4219 
Q 1578 4219 1281 4162 
Q 984 4106 628 3988 
L 628 4550 
Q 988 4650 1302 4700 
Q 1616 4750 1894 4750 
Q 2613 4750 3031 4423 
Q 3450 4097 3450 3541 
Q 3450 3153 3228 2886 
Q 3006 2619 2597 2516 
z
" transform="scale(0.015625)"/>
       </defs>
       <use xlink:href="#DejaVuSans-33"/>
       <use xlink:href="#DejaVuSans-2e" x="63.623047"/>
       <use xlink:href="#DejaVuSans-30" x="95.410156"/>
      </g>
     </g>
    </g>
    <g id="ytick_8">
     <g id="line2d_14">
      <g>
       <use xlink:href="#m656c4d2649" x="108" y="130.964104" style="stroke: #000000; stroke-width: 0.8"/>
      </g>
     </g>
     <g id="text_15">
      <!-- 3.5 -->
      <g transform="translate(85.096875 134.763322)scale(0.1 -0.1)">
       <use xlink:href="#DejaVuSans-33"/>
       <use xlink:href="#DejaVuSans-2e" x="63.623047"/>
       <use xlink:href="#DejaVuSans-35" x="95.410156"/>
      </g>
     </g>
    </g>
    <g id="text_16">
     <!-- Density -->
     <g transform="translate(77.769375 466.73375)rotate(-90)scale(0.16 -0.16)">
      <defs>
       <path id="DejaVuSans-44" d="M 1259 4147 
L 1259 519 
L 2022 519 
Q 2988 519 3436 956 
Q 3884 1394 3884 2338 
Q 3884 3275 3436 3711 
Q 2988 4147 2022 4147 
L 1259 4147 
z
M 628 4666 
L 1925 4666 
Q 3281 4666 3915 4102 
Q 4550 3538 4550 2338 
Q 4550 1131 3912 565 
Q 3275 0 1925 0 
L 628 0 
L 628 4666 
z
" transform="scale(0.015625)"/>
       <path id="DejaVuSans-65" d="M 3597 1894 
L 3597 1613 
L 953 1613 
Q 991 1019 1311 708 
Q 1631 397 2203 397 
Q 2534 397 2845 478 
Q 3156 559 3463 722 
L 3463 178 
Q 3153 47 2828 -22 
Q 2503 -91 2169 -91 
Q 1331 -91 842 396 
Q 353 884 353 1716 
Q 353 2575 817 3079 
Q 1281 3584 2069 3584 
Q 2775 3584 3186 3129 
Q 3597 2675 3597 1894 
z
M 3022 2063 
Q 3016 2534 2758 2815 
Q 2500 3097 2075 3097 
Q 1594 3097 1305 2825 
Q 1016 2553 972 2059 
L 3022 2063 
z
" transform="scale(0.015625)"/>
       <path id="DejaVuSans-6e" d="M 3513 2113 
L 3513 0 
L 2938 0 
L 2938 2094 
Q 2938 2591 2744 2837 
Q 2550 3084 2163 3084 
Q 1697 3084 1428 2787 
Q 1159 2491 1159 1978 
L 1159 0 
L 581 0 
L 581 3500 
L 1159 3500 
L 1159 2956 
Q 1366 3272 1645 3428 
Q 1925 3584 2291 3584 
Q 2894 3584 3203 3211 
Q 3513 2838 3513 2113 
z
" transform="scale(0.015625)"/>
       <path id="DejaVuSans-73" d="M 2834 3397 
L 2834 2853 
Q 2591 2978 2328 3040 
Q 2066 3103 1784 3103 
Q 1356 3103 1142 2972 
Q 928 2841 928 2578 
Q 928 2378 1081 2264 
Q 1234 2150 1697 2047 
L 1894 2003 
Q 2506 1872 2764 1633 
Q 3022 1394 3022 966 
Q 3022 478 2636 193 
Q 2250 -91 1575 -91 
Q 1294 -91 989 -36 
Q 684 19 347 128 
L 347 722 
Q 666 556 975 473 
Q 1284 391 1588 391 
Q 1994 391 2212 530 
Q 2431 669 2431 922 
Q 2431 1156 2273 1281 
Q 2116 1406 1581 1522 
L 1381 1569 
Q 847 1681 609 1914 
Q 372 2147 372 2553 
Q 372 3047 722 3315 
Q 1072 3584 1716 3584 
Q 2034 3584 2315 3537 
Q 2597 3491 2834 3397 
z
" transform="scale(0.015625)"/>
      </defs>
      <use xlink:href="#DejaVuSans-44"/>
      <use xlink:href="#DejaVuSans-65" x="77.001953"/>
      <use xlink:href="#DejaVuSans-6e" x="138.525391"/>
      <use xlink:href="#DejaVuSans-73" x="201.904297"/>
      <use xlink:href="#DejaVuSans-69" x="254.003906"/>
      <use xlink:href="#DejaVuSans-74" x="281.787109"/>
      <use xlink:href="#DejaVuSans-79" x="320.996094"/>
     </g>
    </g>
   </g>
   <g id="patch_3">
    <path d="M 108 768.96 
L 108 103.68 
" style="fill: none; stroke: #000000; stroke-width: 0.8; stroke-linejoin: miter; stroke-linecap: square"/>
   </g>
   <g id="patch_4">
    <path d="M 777.6 768.96 
L 777.6 103.68 
" style="fill: none; stroke: #000000; stroke-width: 0.8; stroke-linejoin: miter; stroke-linecap: square"/>
   </g>
   <g id="patch_5">
    <path d="M 108 768.96 
L 777.6 768.96 
" style="fill: none; stroke: #000000; stroke-width: 0.8; stroke-linejoin: miter; stroke-linecap: square"/>
   </g>
   <g id="patch_6">
    <path d="M 108 103.68 
L 777.6 103.68 
" style="fill: none; stroke: #000000; stroke-width: 0.8; stroke-linejoin: miter; stroke-linecap: square"/>
   </g>
   <g id="legend_1">
    <g id="patch_7">
     <path d="M 484.15 186.935 
L 766.4 186.935 
Q 769.6 186.935 769.6 183.735 
L 769.6 114.88 
Q 769.6 111.68 766.4 111.68 
L 484.15 111.68 
Q 480.95 111.68 480.95 114.88 
L 480.95 183.735 
Q 480.95 186.935 484.15 186.935 
z
" style="fill: #ffffff; opacity: 0.8; stroke: #cccccc; stroke-linejoin: miter"/>
    </g>
    <g id="patch_8">
     <path d="M 487.35 130.2375 
L 519.35 130.2375 
L 519.35 119.0375 
L 487.35 119.0375 
z
" style="fill: #0000ff; fill-opacity: 0.25; stroke: #0000ff; stroke-width: 3; stroke-linejoin: miter"/>
    </g>
    <g id="text_17">
     <!-- Training vs Test set similarity -->
     <g transform="translate(532.15 130.2375)scale(0.16 -0.16)">
      <defs>
       <path id="DejaVuSans-54" d="M -19 4666 
L 3928 4666 
L 3928 4134 
L 2272 4134 
L 2272 0 
L 1638 0 
L 1638 4134 
L -19 4134 
L -19 4666 
z
" transform="scale(0.015625)"/>
       <path id="DejaVuSans-67" d="M 2906 1791 
Q 2906 2416 2648 2759 
Q 2391 3103 1925 3103 
Q 1463 3103 1205 2759 
Q 947 2416 947 1791 
Q 947 1169 1205 825 
Q 1463 481 1925 481 
Q 2391 481 2648 825 
Q 2906 1169 2906 1791 
z
M 3481 434 
Q 3481 -459 3084 -895 
Q 2688 -1331 1869 -1331 
Q 1566 -1331 1297 -1286 
Q 1028 -1241 775 -1147 
L 775 -588 
Q 1028 -725 1275 -790 
Q 1522 -856 1778 -856 
Q 2344 -856 2625 -561 
Q 2906 -266 2906 331 
L 2906 616 
Q 2728 306 2450 153 
Q 2172 0 1784 0 
Q 1141 0 747 490 
Q 353 981 353 1791 
Q 353 2603 747 3093 
Q 1141 3584 1784 3584 
Q 2172 3584 2450 3431 
Q 2728 3278 2906 2969 
L 2906 3500 
L 3481 3500 
L 3481 434 
z
" transform="scale(0.015625)"/>
       <path id="DejaVuSans-20" transform="scale(0.015625)"/>
       <path id="DejaVuSans-76" d="M 191 3500 
L 800 3500 
L 1894 563 
L 2988 3500 
L 3597 3500 
L 2284 0 
L 1503 0 
L 191 3500 
z
" transform="scale(0.015625)"/>
      </defs>
      <use xlink:href="#DejaVuSans-54"/>
      <use xlink:href="#DejaVuSans-72" x="46.333984"/>
      <use xlink:href="#DejaVuSans-61" x="87.447266"/>
      <use xlink:href="#DejaVuSans-69" x="148.726562"/>
      <use xlink:href="#DejaVuSans-6e" x="176.509766"/>
      <use xlink:href="#DejaVuSans-69" x="239.888672"/>
      <use xlink:href="#DejaVuSans-6e" x="267.671875"/>
      <use xlink:href="#DejaVuSans-67" x="331.050781"/>
      <use xlink:href="#DejaVuSans-20" x="394.527344"/>
      <use xlink:href="#DejaVuSans-76" x="426.314453"/>
      <use xlink:href="#DejaVuSans-73" x="485.494141"/>
      <use xlink:href="#DejaVuSans-20" x="537.59375"/>
      <use xlink:href="#DejaVuSans-54" x="569.380859"/>
      <use xlink:href="#DejaVuSans-65" x="613.464844"/>
      <use xlink:href="#DejaVuSans-73" x="674.988281"/>
      <use xlink:href="#DejaVuSans-74" x="727.087891"/>
      <use xlink:href="#DejaVuSans-20" x="766.296875"/>
      <use xlink:href="#DejaVuSans-73" x="798.083984"/>
      <use xlink:href="#DejaVuSans-65" x="850.183594"/>
      <use xlink:href="#DejaVuSans-74" x="911.707031"/>
      <use xlink:href="#DejaVuSans-20" x="950.916016"/>
      <use xlink:href="#DejaVuSans-73" x="982.703125"/>
      <use xlink:href="#DejaVuSans-69" x="1034.802734"/>
      <use xlink:href="#DejaVuSans-6d" x="1062.585938"/>
      <use xlink:href="#DejaVuSans-69" x="1159.998047"/>
      <use xlink:href="#DejaVuSans-6c" x="1187.78125"/>
      <use xlink:href="#DejaVuSans-61" x="1215.564453"/>
      <use xlink:href="#DejaVuSans-72" x="1276.84375"/>
      <use xlink:href="#DejaVuSans-69" x="1317.957031"/>
      <use xlink:href="#DejaVuSans-74" x="1345.740234"/>
      <use xlink:href="#DejaVuSans-79" x="1384.949219"/>
     </g>
    </g>
    <g id="patch_9">
     <path d="M 487.35 153.7225 
L 519.35 153.7225 
L 519.35 142.5225 
L 487.35 142.5225 
z
" style="fill: #ff0000; fill-opacity: 0.25; stroke: #ff0000; stroke-width: 3; stroke-linejoin: miter"/>
    </g>
    <g id="text_18">
     <!-- Training set inner similarity -->
     <g transform="translate(532.15 153.7225)scale(0.16 -0.16)">
      <use xlink:href="#DejaVuSans-54"/>
      <use xlink:href="#DejaVuSans-72" x="46.333984"/>
      <use xlink:href="#DejaVuSans-61" x="87.447266"/>
      <use xlink:href="#DejaVuSans-69" x="148.726562"/>
      <use xlink:href="#DejaVuSans-6e" x="176.509766"/>
      <use xlink:href="#DejaVuSans-69" x="239.888672"/>
      <use xlink:href="#DejaVuSans-6e" x="267.671875"/>
      <use xlink:href="#DejaVuSans-67" x="331.050781"/>
      <use xlink:href="#DejaVuSans-20" x="394.527344"/>
      <use xlink:href="#DejaVuSans-73" x="426.314453"/>
      <use xlink:href="#DejaVuSans-65" x="478.414062"/>
      <use xlink:href="#DejaVuSans-74" x="539.9375"/>
      <use xlink:href="#DejaVuSans-20" x="579.146484"/>
      <use xlink:href="#DejaVuSans-69" x="610.933594"/>
      <use xlink:href="#DejaVuSans-6e" x="638.716797"/>
      <use xlink:href="#DejaVuSans-6e" x="702.095703"/>
      <use xlink:href="#DejaVuSans-65" x="765.474609"/>
      <use xlink:href="#DejaVuSans-72" x="826.998047"/>
      <use xlink:href="#DejaVuSans-20" x="868.111328"/>
      <use xlink:href="#DejaVuSans-73" x="899.898438"/>
      <use xlink:href="#DejaVuSans-69" x="951.998047"/>
      <use xlink:href="#DejaVuSans-6d" x="979.78125"/>
      <use xlink:href="#DejaVuSans-69" x="1077.193359"/>
      <use xlink:href="#DejaVuSans-6c" x="1104.976562"/>
      <use xlink:href="#DejaVuSans-61" x="1132.759766"/>
      <use xlink:href="#DejaVuSans-72" x="1194.039062"/>
      <use xlink:href="#DejaVuSans-69" x="1235.152344"/>
      <use xlink:href="#DejaVuSans-74" x="1262.935547"/>
      <use xlink:href="#DejaVuSans-79" x="1302.144531"/>
     </g>
    </g>
    <g id="patch_10">
     <path d="M 487.35 177.2075 
L 519.35 177.2075 
L 519.35 166.0075 
L 487.35 166.0075 
z
" style="fill: #008000; fill-opacity: 0.25; stroke: #008000; stroke-width: 3; stroke-linejoin: miter"/>
    </g>
    <g id="text_19">
     <!-- Test set inner similarity -->
     <g transform="translate(532.15 177.2075)scale(0.16 -0.16)">
      <use xlink:href="#DejaVuSans-54"/>
      <use xlink:href="#DejaVuSans-65" x="44.083984"/>
      <use xlink:href="#DejaVuSans-73" x="105.607422"/>
      <use xlink:href="#DejaVuSans-74" x="157.707031"/>
      <use xlink:href="#DejaVuSans-20" x="196.916016"/>
      <use xlink:href="#DejaVuSans-73" x="228.703125"/>
      <use xlink:href="#DejaVuSans-65" x="280.802734"/>
      <use xlink:href="#DejaVuSans-74" x="342.326172"/>
      <use xlink:href="#DejaVuSans-20" x="381.535156"/>
      <use xlink:href="#DejaVuSans-69" x="413.322266"/>
      <use xlink:href="#DejaVuSans-6e" x="441.105469"/>
      <use xlink:href="#DejaVuSans-6e" x="504.484375"/>
      <use xlink:href="#DejaVuSans-65" x="567.863281"/>
      <use xlink:href="#DejaVuSans-72" x="629.386719"/>
      <use xlink:href="#DejaVuSans-20" x="670.5"/>
      <use xlink:href="#DejaVuSans-73" x="702.287109"/>
      <use xlink:href="#DejaVuSans-69" x="754.386719"/>
      <use xlink:href="#DejaVuSans-6d" x="782.169922"/>
      <use xlink:href="#DejaVuSans-69" x="879.582031"/>
      <use xlink:href="#DejaVuSans-6c" x="907.365234"/>
      <use xlink:href="#DejaVuSans-61" x="935.148438"/>
      <use xlink:href="#DejaVuSans-72" x="996.427734"/>
      <use xlink:href="#DejaVuSans-69" x="1037.541016"/>
      <use xlink:href="#DejaVuSans-74" x="1065.324219"/>
      <use xlink:href="#DejaVuSans-79" x="1104.533203"/>
     </g>
    </g>
   </g>
  </g>
 </g>
 <defs>
  <clipPath id="p27903ff330">
   <rect x="108" y="103.68" width="669.6" height="665.28"/>
  </clipPath>
 </defs>
</svg>
