<?xml version="1.0" encoding="utf-8" standalone="no"?>
<!DOCTYPE svg PUBLIC "-//W3C//DTD SVG 1.1//EN"
  "http://www.w3.org/Graphics/SVG/1.1/DTD/svg11.dtd">
<svg xmlns:xlink="http://www.w3.org/1999/xlink" width="864pt" height="864pt" viewBox="0 0 864 864" xmlns="http://www.w3.org/2000/svg" version="1.1">
 <metadata>
  <rdf:RDF xmlns:dc="http://purl.org/dc/elements/1.1/" xmlns:cc="http://creativecommons.org/ns#" xmlns:rdf="http://www.w3.org/1999/02/22-rdf-syntax-ns#">
   <cc:Work>
    <dc:type rdf:resource="http://purl.org/dc/dcmitype/StillImage"/>
    <dc:date>2022-02-07T07:36:23.995188</dc:date>
    <dc:format>image/svg+xml</dc:format>
    <dc:creator>
     <cc:Agent>
      <dc:title>Matplotlib v3.5.1, https://matplotlib.org/</dc:title>
     </cc:Agent>
    </dc:creator>
   </cc:Work>
  </rdf:RDF>
 </metadata>
 <defs>
  <style type="text/css">*{stroke-linejoin: round; stroke-linecap: butt}</style>
 </defs>
 <g id="figure_1">
  <g id="patch_1">
   <path d="M 0 864 
L 864 864 
L 864 0 
L 0 0 
z
" style="fill: #ffffff"/>
  </g>
  <g id="axes_1">
   <g id="patch_2">
    <path d="M 108 768.96 
L 777.6 768.96 
L 777.6 103.68 
L 108 103.68 
z
" style="fill: #ffffff"/>
   </g>
   <g id="PolyCollection_1">
    <defs>
     <path id="m9bd0de1793" d="M 139.160287 -95.040005 
L 139.160287 -95.04 
L 142.187453 -95.04 
L 145.21462 -95.04 
L 148.241787 -95.04 
L 151.268953 -95.04 
L 154.29612 -95.04 
L 157.323287 -95.04 
L 160.350453 -95.04 
L 163.37762 -95.04 
L 166.404787 -95.04 
L 169.431953 -95.04 
L 172.45912 -95.04 
L 175.486287 -95.04 
L 178.513453 -95.04 
L 181.54062 -95.04 
L 184.567787 -95.04 
L 187.594953 -95.04 
L 190.62212 -95.04 
L 193.649287 -95.04 
L 196.676453 -95.04 
L 199.70362 -95.04 
L 202.730787 -95.04 
L 205.757953 -95.04 
L 208.78512 -95.04 
L 211.812287 -95.04 
L 214.839453 -95.04 
L 217.86662 -95.04 
L 220.893787 -95.04 
L 223.920953 -95.04 
L 226.94812 -95.04 
L 229.975287 -95.04 
L 233.002453 -95.04 
L 236.02962 -95.04 
L 239.056787 -95.04 
L 242.083953 -95.04 
L 245.11112 -95.04 
L 248.138287 -95.04 
L 251.165453 -95.04 
L 254.19262 -95.04 
L 257.219787 -95.04 
L 260.246953 -95.04 
L 263.27412 -95.04 
L 266.301287 -95.04 
L 269.328453 -95.04 
L 272.35562 -95.04 
L 275.382787 -95.04 
L 278.409953 -95.04 
L 281.43712 -95.04 
L 284.464287 -95.04 
L 287.491453 -95.04 
L 290.51862 -95.04 
L 293.545787 -95.04 
L 296.572953 -95.04 
L 299.60012 -95.04 
L 302.627287 -95.04 
L 305.654453 -95.04 
L 308.68162 -95.04 
L 311.708787 -95.04 
L 314.735953 -95.04 
L 317.76312 -95.04 
L 320.790287 -95.04 
L 323.817453 -95.04 
L 326.84462 -95.04 
L 329.871787 -95.04 
L 332.898953 -95.04 
L 335.92612 -95.04 
L 338.953287 -95.04 
L 341.980453 -95.04 
L 345.00762 -95.04 
L 348.034787 -95.04 
L 351.061953 -95.04 
L 354.08912 -95.04 
L 357.116287 -95.04 
L 360.143453 -95.04 
L 363.17062 -95.04 
L 366.197787 -95.04 
L 369.224953 -95.04 
L 372.25212 -95.04 
L 375.279287 -95.04 
L 378.306453 -95.04 
L 381.33362 -95.04 
L 384.360787 -95.04 
L 387.387953 -95.04 
L 390.41512 -95.04 
L 393.442287 -95.04 
L 396.469453 -95.04 
L 399.49662 -95.04 
L 402.523787 -95.04 
L 405.550953 -95.04 
L 408.57812 -95.04 
L 411.605287 -95.04 
L 414.632453 -95.04 
L 417.65962 -95.04 
L 420.686787 -95.04 
L 423.713953 -95.04 
L 426.74112 -95.04 
L 429.768287 -95.04 
L 432.795453 -95.04 
L 435.82262 -95.04 
L 438.849787 -95.04 
L 441.876953 -95.04 
L 444.90412 -95.04 
L 447.931287 -95.04 
L 450.958453 -95.04 
L 453.98562 -95.04 
L 457.012787 -95.04 
L 460.039953 -95.04 
L 463.06712 -95.04 
L 466.094287 -95.04 
L 469.121453 -95.04 
L 472.14862 -95.04 
L 475.175787 -95.04 
L 478.202953 -95.04 
L 481.23012 -95.04 
L 484.257287 -95.04 
L 487.284453 -95.04 
L 490.31162 -95.04 
L 493.338787 -95.04 
L 496.365953 -95.04 
L 499.39312 -95.04 
L 502.420287 -95.04 
L 505.447453 -95.04 
L 508.47462 -95.04 
L 511.501787 -95.04 
L 514.528953 -95.04 
L 517.55612 -95.04 
L 520.583287 -95.04 
L 523.610453 -95.04 
L 526.63762 -95.04 
L 529.664787 -95.04 
L 532.691953 -95.04 
L 535.71912 -95.04 
L 538.746287 -95.04 
L 541.773453 -95.04 
L 544.80062 -95.04 
L 547.827787 -95.04 
L 550.854953 -95.04 
L 553.88212 -95.04 
L 556.909287 -95.04 
L 559.936453 -95.04 
L 562.96362 -95.04 
L 565.990787 -95.04 
L 569.017953 -95.04 
L 572.04512 -95.04 
L 575.072287 -95.04 
L 578.099453 -95.04 
L 581.12662 -95.04 
L 584.153787 -95.04 
L 587.180953 -95.04 
L 590.20812 -95.04 
L 593.235287 -95.04 
L 596.262453 -95.04 
L 599.28962 -95.04 
L 602.316787 -95.04 
L 605.343953 -95.04 
L 608.37112 -95.04 
L 611.398287 -95.04 
L 614.425453 -95.04 
L 617.45262 -95.04 
L 620.479787 -95.04 
L 623.506953 -95.04 
L 626.53412 -95.04 
L 629.561287 -95.04 
L 632.588453 -95.04 
L 635.61562 -95.04 
L 638.642787 -95.04 
L 641.669953 -95.04 
L 644.69712 -95.04 
L 647.724287 -95.04 
L 650.751453 -95.04 
L 653.77862 -95.04 
L 656.805787 -95.04 
L 659.832953 -95.04 
L 662.86012 -95.04 
L 665.887287 -95.04 
L 668.914453 -95.04 
L 671.94162 -95.04 
L 674.968787 -95.04 
L 677.995953 -95.04 
L 681.02312 -95.04 
L 684.050287 -95.04 
L 687.077453 -95.04 
L 690.10462 -95.04 
L 693.131787 -95.04 
L 696.158953 -95.04 
L 699.18612 -95.04 
L 702.213287 -95.04 
L 705.240453 -95.04 
L 708.26762 -95.04 
L 711.294787 -95.04 
L 714.321953 -95.04 
L 717.34912 -95.04 
L 720.376287 -95.04 
L 723.403453 -95.04 
L 726.43062 -95.04 
L 729.457787 -95.04 
L 732.484953 -95.04 
L 735.51212 -95.04 
L 738.539287 -95.04 
L 741.566453 -95.04 
L 741.566453 -95.040072 
L 741.566453 -95.040072 
L 738.539287 -95.043157 
L 735.51212 -95.076735 
L 732.484953 -95.169486 
L 729.457787 -95.283376 
L 726.43062 -95.472116 
L 723.403453 -95.701924 
L 720.376287 -96.131997 
L 717.34912 -96.641412 
L 714.321953 -97.017824 
L 711.294787 -97.428918 
L 708.26762 -98.009263 
L 705.240453 -98.342374 
L 702.213287 -98.881637 
L 699.18612 -99.724156 
L 696.158953 -100.588004 
L 693.131787 -101.577695 
L 690.10462 -102.723343 
L 687.077453 -103.557915 
L 684.050287 -104.379691 
L 681.02312 -105.549048 
L 677.995953 -106.638519 
L 674.968787 -107.897913 
L 671.94162 -109.855782 
L 668.914453 -111.616722 
L 665.887287 -113.525876 
L 662.86012 -114.657718 
L 659.832953 -115.681032 
L 656.805787 -117.77909 
L 653.77862 -118.858855 
L 650.751453 -119.707694 
L 647.724287 -121.095319 
L 644.69712 -122.237012 
L 641.669953 -123.541958 
L 638.642787 -124.211154 
L 635.61562 -124.862361 
L 632.588453 -126.706481 
L 629.561287 -128.809549 
L 626.53412 -129.970898 
L 623.506953 -131.000689 
L 620.479787 -133.044106 
L 617.45262 -134.884575 
L 614.425453 -135.837552 
L 611.398287 -136.021725 
L 608.37112 -135.472412 
L 605.343953 -135.550095 
L 602.316787 -136.553674 
L 599.28962 -137.36444 
L 596.262453 -139.394418 
L 593.235287 -142.50984 
L 590.20812 -144.332509 
L 587.180953 -145.366338 
L 584.153787 -147.307233 
L 581.12662 -150.184579 
L 578.099453 -151.55155 
L 575.072287 -152.616483 
L 572.04512 -155.274991 
L 569.017953 -157.937514 
L 565.990787 -159.95445 
L 562.96362 -163.243574 
L 559.936453 -167.076181 
L 556.909287 -168.072163 
L 553.88212 -167.482464 
L 550.854953 -167.325397 
L 547.827787 -168.410684 
L 544.80062 -169.097485 
L 541.773453 -168.400074 
L 538.746287 -168.595273 
L 535.71912 -169.152246 
L 532.691953 -169.478621 
L 529.664787 -170.678458 
L 526.63762 -172.202728 
L 523.610453 -172.275323 
L 520.583287 -172.918011 
L 517.55612 -173.408669 
L 514.528953 -172.430686 
L 511.501787 -171.040913 
L 508.47462 -170.066207 
L 505.447453 -169.854904 
L 502.420287 -171.697143 
L 499.39312 -176.56829 
L 496.365953 -182.153427 
L 493.338787 -187.324881 
L 490.31162 -196.01108 
L 487.284453 -207.132058 
L 484.257287 -218.153739 
L 481.23012 -228.850968 
L 478.202953 -240.171019 
L 475.175787 -254.751963 
L 472.14862 -273.22165 
L 469.121453 -293.51095 
L 466.094287 -308.62511 
L 463.06712 -323.520483 
L 460.039953 -336.96222 
L 457.012787 -349.354475 
L 453.98562 -369.919416 
L 450.958453 -395.255155 
L 447.931287 -423.199897 
L 444.90412 -451.915312 
L 441.876953 -476.315275 
L 438.849787 -497.995218 
L 435.82262 -510.367793 
L 432.795453 -522.073174 
L 429.768287 -537.536589 
L 426.74112 -555.657267 
L 423.713953 -574.11939 
L 420.686787 -596.41605 
L 417.65962 -613.653127 
L 414.632453 -626.214994 
L 411.605287 -643.393135 
L 408.57812 -655.919054 
L 405.550953 -651.950489 
L 402.523787 -644.382346 
L 399.49662 -644.228481 
L 396.469453 -652.580128 
L 393.442287 -658.191903 
L 390.41512 -663.318094 
L 387.387953 -669.351181 
L 384.360787 -670.485948 
L 381.33362 -674.995339 
L 378.306453 -679.377284 
L 375.279287 -684.735329 
L 372.25212 -691.950554 
L 369.224953 -696.176201 
L 366.197787 -701.832953 
L 363.17062 -711.65815 
L 360.143453 -708.613533 
L 357.116287 -700.528434 
L 354.08912 -690.814276 
L 351.061953 -673.401577 
L 348.034787 -657.368545 
L 345.00762 -638.557643 
L 341.980453 -619.920198 
L 338.953287 -602.224641 
L 335.92612 -581.841765 
L 332.898953 -559.765234 
L 329.871787 -540.856547 
L 326.84462 -525.550703 
L 323.817453 -509.537585 
L 320.790287 -490.458487 
L 317.76312 -471.420523 
L 314.735953 -453.883639 
L 311.708787 -439.693664 
L 308.68162 -435.483163 
L 305.654453 -430.521299 
L 302.627287 -415.982367 
L 299.60012 -393.436069 
L 296.572953 -366.805683 
L 293.545787 -340.50543 
L 290.51862 -318.53063 
L 287.491453 -301.399876 
L 284.464287 -288.837018 
L 281.43712 -276.978481 
L 278.409953 -265.944459 
L 275.382787 -256.22604 
L 272.35562 -244.718106 
L 269.328453 -231.448839 
L 266.301287 -220.08041 
L 263.27412 -211.899918 
L 260.246953 -204.838509 
L 257.219787 -196.506312 
L 254.19262 -186.782385 
L 251.165453 -175.980083 
L 248.138287 -166.681958 
L 245.11112 -159.370275 
L 242.083953 -153.170133 
L 239.056787 -147.117064 
L 236.02962 -140.91304 
L 233.002453 -134.432361 
L 229.975287 -128.911003 
L 226.94812 -123.948133 
L 223.920953 -119.69349 
L 220.893787 -115.77314 
L 217.86662 -111.74742 
L 214.839453 -107.81914 
L 211.812287 -104.721588 
L 208.78512 -102.489973 
L 205.757953 -101.542994 
L 202.730787 -101.940142 
L 199.70362 -101.692628 
L 196.676453 -100.260684 
L 193.649287 -98.773889 
L 190.62212 -97.531331 
L 187.594953 -96.608276 
L 184.567787 -96.120779 
L 181.54062 -95.9861 
L 178.513453 -96.105299 
L 175.486287 -96.068394 
L 172.45912 -95.709621 
L 169.431953 -95.454316 
L 166.404787 -95.374428 
L 163.37762 -95.590785 
L 160.350453 -95.97641 
L 157.323287 -95.773311 
L 154.29612 -95.284555 
L 151.268953 -95.091927 
L 148.241787 -95.049718 
L 145.21462 -95.041373 
L 142.187453 -95.040129 
L 139.160287 -95.040005 
z
" style="stroke: #0000ff; stroke-width: 3"/>
    </defs>
    <g clip-path="url(#pded09407b5)">
     <use xlink:href="#m9bd0de1793" x="0" y="864" style="fill: #0000ff; fill-opacity: 0.25; stroke: #0000ff; stroke-width: 3"/>
    </g>
   </g>
   <g id="PolyCollection_2">
    <defs>
     <path id="m69e5fc956b" d="M 138.436364 -95.040003 
L 138.436364 -95.04 
L 141.472625 -95.04 
L 144.508886 -95.04 
L 147.545148 -95.04 
L 150.581409 -95.04 
L 153.61767 -95.04 
L 156.653931 -95.04 
L 159.690193 -95.04 
L 162.726454 -95.04 
L 165.762715 -95.04 
L 168.798977 -95.04 
L 171.835238 -95.04 
L 174.871499 -95.04 
L 177.907761 -95.04 
L 180.944022 -95.04 
L 183.980283 -95.04 
L 187.016544 -95.04 
L 190.052806 -95.04 
L 193.089067 -95.04 
L 196.125328 -95.04 
L 199.16159 -95.04 
L 202.197851 -95.04 
L 205.234112 -95.04 
L 208.270374 -95.04 
L 211.306635 -95.04 
L 214.342896 -95.04 
L 217.379157 -95.04 
L 220.415419 -95.04 
L 223.45168 -95.04 
L 226.487941 -95.04 
L 229.524203 -95.04 
L 232.560464 -95.04 
L 235.596725 -95.04 
L 238.632987 -95.04 
L 241.669248 -95.04 
L 244.705509 -95.04 
L 247.74177 -95.04 
L 250.778032 -95.04 
L 253.814293 -95.04 
L 256.850554 -95.04 
L 259.886816 -95.04 
L 262.923077 -95.04 
L 265.959338 -95.04 
L 268.9956 -95.04 
L 272.031861 -95.04 
L 275.068122 -95.04 
L 278.104383 -95.04 
L 281.140645 -95.04 
L 284.176906 -95.04 
L 287.213167 -95.04 
L 290.249429 -95.04 
L 293.28569 -95.04 
L 296.321951 -95.04 
L 299.358213 -95.04 
L 302.394474 -95.04 
L 305.430735 -95.04 
L 308.466997 -95.04 
L 311.503258 -95.04 
L 314.539519 -95.04 
L 317.57578 -95.04 
L 320.612042 -95.04 
L 323.648303 -95.04 
L 326.684564 -95.04 
L 329.720826 -95.04 
L 332.757087 -95.04 
L 335.793348 -95.04 
L 338.82961 -95.04 
L 341.865871 -95.04 
L 344.902132 -95.04 
L 347.938393 -95.04 
L 350.974655 -95.04 
L 354.010916 -95.04 
L 357.047177 -95.04 
L 360.083439 -95.04 
L 363.1197 -95.04 
L 366.155961 -95.04 
L 369.192223 -95.04 
L 372.228484 -95.04 
L 375.264745 -95.04 
L 378.301006 -95.04 
L 381.337268 -95.04 
L 384.373529 -95.04 
L 387.40979 -95.04 
L 390.446052 -95.04 
L 393.482313 -95.04 
L 396.518574 -95.04 
L 399.554836 -95.04 
L 402.591097 -95.04 
L 405.627358 -95.04 
L 408.663619 -95.04 
L 411.699881 -95.04 
L 414.736142 -95.04 
L 417.772403 -95.04 
L 420.808665 -95.04 
L 423.844926 -95.04 
L 426.881187 -95.04 
L 429.917449 -95.04 
L 432.95371 -95.04 
L 435.989971 -95.04 
L 439.026232 -95.04 
L 442.062494 -95.04 
L 445.098755 -95.04 
L 448.135016 -95.04 
L 451.171278 -95.04 
L 454.207539 -95.04 
L 457.2438 -95.04 
L 460.280062 -95.04 
L 463.316323 -95.04 
L 466.352584 -95.04 
L 469.388845 -95.04 
L 472.425107 -95.04 
L 475.461368 -95.04 
L 478.497629 -95.04 
L 481.533891 -95.04 
L 484.570152 -95.04 
L 487.606413 -95.04 
L 490.642675 -95.04 
L 493.678936 -95.04 
L 496.715197 -95.04 
L 499.751458 -95.04 
L 502.78772 -95.04 
L 505.823981 -95.04 
L 508.860242 -95.04 
L 511.896504 -95.04 
L 514.932765 -95.04 
L 517.969026 -95.04 
L 521.005288 -95.04 
L 524.041549 -95.04 
L 527.07781 -95.04 
L 530.114071 -95.04 
L 533.150333 -95.04 
L 536.186594 -95.04 
L 539.222855 -95.04 
L 542.259117 -95.04 
L 545.295378 -95.04 
L 548.331639 -95.04 
L 551.367901 -95.04 
L 554.404162 -95.04 
L 557.440423 -95.04 
L 560.476684 -95.04 
L 563.512946 -95.04 
L 566.549207 -95.04 
L 569.585468 -95.04 
L 572.62173 -95.04 
L 575.657991 -95.04 
L 578.694252 -95.04 
L 581.730514 -95.04 
L 584.766775 -95.04 
L 587.803036 -95.04 
L 590.839298 -95.04 
L 593.875559 -95.04 
L 596.91182 -95.04 
L 599.948081 -95.04 
L 602.984343 -95.04 
L 606.020604 -95.04 
L 609.056865 -95.04 
L 612.093127 -95.04 
L 615.129388 -95.04 
L 618.165649 -95.04 
L 621.201911 -95.04 
L 624.238172 -95.04 
L 627.274433 -95.04 
L 630.310694 -95.04 
L 633.346956 -95.04 
L 636.383217 -95.04 
L 639.419478 -95.04 
L 642.45574 -95.04 
L 645.492001 -95.04 
L 648.528262 -95.04 
L 651.564524 -95.04 
L 654.600785 -95.04 
L 657.637046 -95.04 
L 660.673307 -95.04 
L 663.709569 -95.04 
L 666.74583 -95.04 
L 669.782091 -95.04 
L 672.818353 -95.04 
L 675.854614 -95.04 
L 678.890875 -95.04 
L 681.927137 -95.04 
L 684.963398 -95.04 
L 687.999659 -95.04 
L 691.03592 -95.04 
L 694.072182 -95.04 
L 697.108443 -95.04 
L 700.144704 -95.04 
L 703.180966 -95.04 
L 706.217227 -95.04 
L 709.253488 -95.04 
L 712.28975 -95.04 
L 715.326011 -95.04 
L 718.362272 -95.04 
L 721.398533 -95.04 
L 724.434795 -95.04 
L 727.471056 -95.04 
L 730.507317 -95.04 
L 733.543579 -95.04 
L 736.57984 -95.04 
L 739.616101 -95.04 
L 742.652363 -95.04 
L 742.652363 -95.130444 
L 742.652363 -95.130444 
L 739.616101 -97.317829 
L 736.57984 -103.304012 
L 733.543579 -100.100636 
L 730.507317 -96.791849 
L 727.471056 -96.591215 
L 724.434795 -96.935985 
L 721.398533 -97.579879 
L 718.362272 -98.059821 
L 715.326011 -98.643345 
L 712.28975 -99.514154 
L 709.253488 -99.914353 
L 706.217227 -100.167586 
L 703.180966 -100.328159 
L 700.144704 -100.930656 
L 697.108443 -102.153297 
L 694.072182 -103.491272 
L 691.03592 -103.881378 
L 687.999659 -104.072387 
L 684.963398 -104.973344 
L 681.927137 -105.959826 
L 678.890875 -107.152637 
L 675.854614 -108.831998 
L 672.818353 -110.632921 
L 669.782091 -111.885764 
L 666.74583 -113.052727 
L 663.709569 -114.291795 
L 660.673307 -116.262701 
L 657.637046 -117.923269 
L 654.600785 -119.338781 
L 651.564524 -121.177347 
L 648.528262 -122.001566 
L 645.492001 -123.21683 
L 642.45574 -125.210399 
L 639.419478 -126.750821 
L 636.383217 -128.97518 
L 633.346956 -131.314905 
L 630.310694 -133.609777 
L 627.274433 -135.868379 
L 624.238172 -137.770927 
L 621.201911 -139.696562 
L 618.165649 -141.330377 
L 615.129388 -142.090971 
L 612.093127 -141.985518 
L 609.056865 -141.905263 
L 606.020604 -142.984021 
L 602.984343 -145.428424 
L 599.948081 -148.49704 
L 596.91182 -151.175533 
L 593.875559 -152.822732 
L 590.839298 -154.123903 
L 587.803036 -155.786615 
L 584.766775 -157.865271 
L 581.730514 -159.984712 
L 578.694252 -162.27655 
L 575.657991 -164.744892 
L 572.62173 -168.046737 
L 569.585468 -169.502145 
L 566.549207 -170.671362 
L 563.512946 -172.460226 
L 560.476684 -175.201789 
L 557.440423 -178.432811 
L 554.404162 -181.03976 
L 551.367901 -183.415104 
L 548.331639 -184.899445 
L 545.295378 -185.923711 
L 542.259117 -186.157834 
L 539.222855 -186.360754 
L 536.186594 -190.57836 
L 533.150333 -196.068447 
L 530.114071 -199.240412 
L 527.07781 -200.599431 
L 524.041549 -203.199782 
L 521.005288 -206.321407 
L 517.969026 -203.999832 
L 514.932765 -200.38105 
L 511.896504 -197.383927 
L 508.860242 -194.162481 
L 505.823981 -192.189034 
L 502.78772 -192.469676 
L 499.751458 -193.926633 
L 496.715197 -192.959818 
L 493.678936 -193.445594 
L 490.642675 -199.963764 
L 487.606413 -209.002617 
L 484.570152 -217.546092 
L 481.533891 -225.990495 
L 478.497629 -236.014649 
L 475.461368 -250.718591 
L 472.425107 -267.127263 
L 469.388845 -285.058867 
L 466.352584 -297.918825 
L 463.316323 -307.869965 
L 460.280062 -325.446713 
L 457.2438 -349.270203 
L 454.207539 -377.913508 
L 451.171278 -408.499323 
L 448.135016 -439.791018 
L 445.098755 -471.671367 
L 442.062494 -501.134716 
L 439.026232 -523.507949 
L 435.989971 -543.938705 
L 432.95371 -561.408463 
L 429.917449 -579.743326 
L 426.881187 -596.791158 
L 423.844926 -610.169264 
L 420.808665 -623.223991 
L 417.772403 -635.670781 
L 414.736142 -643.609219 
L 411.699881 -650.857065 
L 408.663619 -660.648518 
L 405.627358 -666.332728 
L 402.591097 -667.101893 
L 399.554836 -665.007979 
L 396.518574 -666.769909 
L 393.482313 -668.847054 
L 390.446052 -672.345032 
L 387.40979 -678.534364 
L 384.373529 -677.027743 
L 381.337268 -667.802922 
L 378.301006 -661.934884 
L 375.264745 -661.951521 
L 372.228484 -662.68887 
L 369.192223 -664.672466 
L 366.155961 -666.37227 
L 363.1197 -665.898433 
L 360.083439 -665.157127 
L 357.047177 -656.923178 
L 354.010916 -643.836019 
L 350.974655 -632.941416 
L 347.938393 -624.881321 
L 344.902132 -608.28336 
L 341.865871 -589.136101 
L 338.82961 -574.596571 
L 335.793348 -558.613246 
L 332.757087 -536.764401 
L 329.720826 -513.685283 
L 326.684564 -486.969496 
L 323.648303 -461.638535 
L 320.612042 -440.356518 
L 317.57578 -420.201812 
L 314.539519 -402.380198 
L 311.503258 -385.454155 
L 308.466997 -371.751036 
L 305.430735 -362.299224 
L 302.394474 -352.981752 
L 299.358213 -343.280704 
L 296.321951 -330.127784 
L 293.28569 -317.24872 
L 290.249429 -304.425172 
L 287.213167 -289.841877 
L 284.176906 -274.255553 
L 281.140645 -258.025374 
L 278.104383 -246.366163 
L 275.068122 -239.010287 
L 272.031861 -231.500903 
L 268.9956 -222.022998 
L 265.959338 -213.550483 
L 262.923077 -205.524182 
L 259.886816 -196.589089 
L 256.850554 -189.03203 
L 253.814293 -182.168255 
L 250.778032 -175.700246 
L 247.74177 -169.858099 
L 244.705509 -163.501724 
L 241.669248 -156.823481 
L 238.632987 -149.020886 
L 235.596725 -139.971414 
L 232.560464 -132.556976 
L 229.524203 -127.714674 
L 226.487941 -123.077499 
L 223.45168 -118.293776 
L 220.415419 -114.918913 
L 217.379157 -112.711393 
L 214.342896 -110.004876 
L 211.306635 -107.405932 
L 208.270374 -105.387904 
L 205.234112 -105.177478 
L 202.197851 -106.373215 
L 199.16159 -106.408387 
L 196.125328 -104.483254 
L 193.089067 -101.578249 
L 190.052806 -99.006947 
L 187.016544 -97.505587 
L 183.980283 -96.912618 
L 180.944022 -97.002418 
L 177.907761 -97.351413 
L 174.871499 -97.007762 
L 171.835238 -96.116776 
L 168.798977 -95.71623 
L 165.762715 -95.644973 
L 162.726454 -96.296428 
L 159.690193 -97.131216 
L 156.653931 -96.347013 
L 153.61767 -95.329526 
L 150.581409 -95.075722 
L 147.545148 -95.044478 
L 144.508886 -95.040786 
L 141.472625 -95.040092 
L 138.436364 -95.040003 
z
" style="stroke: #ff0000; stroke-width: 3"/>
    </defs>
    <g clip-path="url(#pded09407b5)">
     <use xlink:href="#m69e5fc956b" x="0" y="864" style="fill: #ff0000; fill-opacity: 0.25; stroke: #ff0000; stroke-width: 3"/>
    </g>
   </g>
   <g id="PolyCollection_3">
    <defs>
     <path id="ma6e841df3b" d="M 165.476936 -95.040087 
L 165.476936 -95.04 
L 168.399985 -95.04 
L 171.323034 -95.04 
L 174.246083 -95.04 
L 177.169131 -95.04 
L 180.09218 -95.04 
L 183.015229 -95.04 
L 185.938278 -95.04 
L 188.861326 -95.04 
L 191.784375 -95.04 
L 194.707424 -95.04 
L 197.630473 -95.04 
L 200.553521 -95.04 
L 203.47657 -95.04 
L 206.399619 -95.04 
L 209.322667 -95.04 
L 212.245716 -95.04 
L 215.168765 -95.04 
L 218.091814 -95.04 
L 221.014862 -95.04 
L 223.937911 -95.04 
L 226.86096 -95.04 
L 229.784009 -95.04 
L 232.707057 -95.04 
L 235.630106 -95.04 
L 238.553155 -95.04 
L 241.476204 -95.04 
L 244.399252 -95.04 
L 247.322301 -95.04 
L 250.24535 -95.04 
L 253.168399 -95.04 
L 256.091447 -95.04 
L 259.014496 -95.04 
L 261.937545 -95.04 
L 264.860594 -95.04 
L 267.783642 -95.04 
L 270.706691 -95.04 
L 273.62974 -95.04 
L 276.552789 -95.04 
L 279.475837 -95.04 
L 282.398886 -95.04 
L 285.321935 -95.04 
L 288.244984 -95.04 
L 291.168032 -95.04 
L 294.091081 -95.04 
L 297.01413 -95.04 
L 299.937179 -95.04 
L 302.860227 -95.04 
L 305.783276 -95.04 
L 308.706325 -95.04 
L 311.629374 -95.04 
L 314.552422 -95.04 
L 317.475471 -95.04 
L 320.39852 -95.04 
L 323.321568 -95.04 
L 326.244617 -95.04 
L 329.167666 -95.04 
L 332.090715 -95.04 
L 335.013763 -95.04 
L 337.936812 -95.04 
L 340.859861 -95.04 
L 343.78291 -95.04 
L 346.705958 -95.04 
L 349.629007 -95.04 
L 352.552056 -95.04 
L 355.475105 -95.04 
L 358.398153 -95.04 
L 361.321202 -95.04 
L 364.244251 -95.04 
L 367.1673 -95.04 
L 370.090348 -95.04 
L 373.013397 -95.04 
L 375.936446 -95.04 
L 378.859495 -95.04 
L 381.782543 -95.04 
L 384.705592 -95.04 
L 387.628641 -95.04 
L 390.55169 -95.04 
L 393.474738 -95.04 
L 396.397787 -95.04 
L 399.320836 -95.04 
L 402.243885 -95.04 
L 405.166933 -95.04 
L 408.089982 -95.04 
L 411.013031 -95.04 
L 413.93608 -95.04 
L 416.859128 -95.04 
L 419.782177 -95.04 
L 422.705226 -95.04 
L 425.628275 -95.04 
L 428.551323 -95.04 
L 431.474372 -95.04 
L 434.397421 -95.04 
L 437.32047 -95.04 
L 440.243518 -95.04 
L 443.166567 -95.04 
L 446.089616 -95.04 
L 449.012664 -95.04 
L 451.935713 -95.04 
L 454.858762 -95.04 
L 457.781811 -95.04 
L 460.704859 -95.04 
L 463.627908 -95.04 
L 466.550957 -95.04 
L 469.474006 -95.04 
L 472.397054 -95.04 
L 475.320103 -95.04 
L 478.243152 -95.04 
L 481.166201 -95.04 
L 484.089249 -95.04 
L 487.012298 -95.04 
L 489.935347 -95.04 
L 492.858396 -95.04 
L 495.781444 -95.04 
L 498.704493 -95.04 
L 501.627542 -95.04 
L 504.550591 -95.04 
L 507.473639 -95.04 
L 510.396688 -95.04 
L 513.319737 -95.04 
L 516.242786 -95.04 
L 519.165834 -95.04 
L 522.088883 -95.04 
L 525.011932 -95.04 
L 527.934981 -95.04 
L 530.858029 -95.04 
L 533.781078 -95.04 
L 536.704127 -95.04 
L 539.627176 -95.04 
L 542.550224 -95.04 
L 545.473273 -95.04 
L 548.396322 -95.04 
L 551.319371 -95.04 
L 554.242419 -95.04 
L 557.165468 -95.04 
L 560.088517 -95.04 
L 563.011565 -95.04 
L 565.934614 -95.04 
L 568.857663 -95.04 
L 571.780712 -95.04 
L 574.70376 -95.04 
L 577.626809 -95.04 
L 580.549858 -95.04 
L 583.472907 -95.04 
L 586.395955 -95.04 
L 589.319004 -95.04 
L 592.242053 -95.04 
L 595.165102 -95.04 
L 598.08815 -95.04 
L 601.011199 -95.04 
L 603.934248 -95.04 
L 606.857297 -95.04 
L 609.780345 -95.04 
L 612.703394 -95.04 
L 615.626443 -95.04 
L 618.549492 -95.04 
L 621.47254 -95.04 
L 624.395589 -95.04 
L 627.318638 -95.04 
L 630.241687 -95.04 
L 633.164735 -95.04 
L 636.087784 -95.04 
L 639.010833 -95.04 
L 641.933882 -95.04 
L 644.85693 -95.04 
L 647.779979 -95.04 
L 650.703028 -95.04 
L 653.626077 -95.04 
L 656.549125 -95.04 
L 659.472174 -95.04 
L 662.395223 -95.04 
L 665.318272 -95.04 
L 668.24132 -95.04 
L 671.164369 -95.04 
L 674.087418 -95.04 
L 677.010467 -95.04 
L 679.933515 -95.04 
L 682.856564 -95.04 
L 685.779613 -95.04 
L 688.702661 -95.04 
L 691.62571 -95.04 
L 694.548759 -95.04 
L 697.471808 -95.04 
L 700.394856 -95.04 
L 703.317905 -95.04 
L 706.240954 -95.04 
L 709.164003 -95.04 
L 712.087051 -95.04 
L 715.0101 -95.04 
L 717.933149 -95.04 
L 720.856198 -95.04 
L 723.779246 -95.04 
L 726.702295 -95.04 
L 729.625344 -95.04 
L 732.548393 -95.04 
L 735.471441 -95.04 
L 738.39449 -95.04 
L 741.317539 -95.04 
L 744.240588 -95.04 
L 747.163636 -95.04 
L 747.163636 -95.246793 
L 747.163636 -95.246793 
L 744.240588 -96.685329 
L 741.317539 -102.008807 
L 738.39449 -110.834657 
L 735.471441 -114.52502 
L 732.548393 -109.054225 
L 729.625344 -102.908216 
L 726.702295 -101.357345 
L 723.779246 -102.035257 
L 720.856198 -102.533598 
L 717.933149 -102.568594 
L 715.0101 -102.461308 
L 712.087051 -102.427128 
L 709.164003 -102.352367 
L 706.240954 -101.990089 
L 703.317905 -101.698477 
L 700.394856 -102.338122 
L 697.471808 -103.865951 
L 694.548759 -105.218526 
L 691.62571 -105.977088 
L 688.702661 -106.693475 
L 685.779613 -107.49555 
L 682.856564 -108.278636 
L 679.933515 -109.352091 
L 677.010467 -110.863444 
L 674.087418 -112.514839 
L 671.164369 -114.215578 
L 668.24132 -116.526531 
L 665.318272 -119.313152 
L 662.395223 -121.689403 
L 659.472174 -123.208465 
L 656.549125 -123.719441 
L 653.626077 -123.270927 
L 650.703028 -122.55967 
L 647.779979 -122.325031 
L 644.85693 -122.550687 
L 641.933882 -123.123008 
L 639.010833 -124.426689 
L 636.087784 -126.552176 
L 633.164735 -128.41245 
L 630.241687 -128.744874 
L 627.318638 -127.645283 
L 624.395589 -126.532434 
L 621.47254 -126.265714 
L 618.549492 -126.242735 
L 615.626443 -125.800576 
L 612.703394 -125.278192 
L 609.780345 -125.132237 
L 606.857297 -125.151807 
L 603.934248 -125.562707 
L 601.011199 -127.125059 
L 598.08815 -129.978909 
L 595.165102 -133.251866 
L 592.242053 -136.385961 
L 589.319004 -139.058532 
L 586.395955 -140.071095 
L 583.472907 -139.765236 
L 580.549858 -140.414572 
L 577.626809 -142.484401 
L 574.70376 -144.286549 
L 571.780712 -145.375356 
L 568.857663 -146.469452 
L 565.934614 -147.662631 
L 563.011565 -148.465462 
L 560.088517 -148.146995 
L 557.165468 -146.793123 
L 554.242419 -145.207107 
L 551.319371 -143.731512 
L 548.396322 -143.066908 
L 545.473273 -145.126995 
L 542.550224 -149.594084 
L 539.627176 -152.876462 
L 536.704127 -153.269255 
L 533.781078 -152.735013 
L 530.858029 -152.810448 
L 527.934981 -152.88141 
L 525.011932 -152.829066 
L 522.088883 -152.526637 
L 519.165834 -151.91919 
L 516.242786 -152.392259 
L 513.319737 -154.324635 
L 510.396688 -157.03506 
L 507.473639 -160.165045 
L 504.550591 -162.708105 
L 501.627542 -164.629909 
L 498.704493 -167.429232 
L 495.781444 -171.375258 
L 492.858396 -178.04968 
L 489.935347 -189.011975 
L 487.012298 -200.788686 
L 484.089249 -210.924384 
L 481.166201 -222.671445 
L 478.243152 -238.326567 
L 475.320103 -254.430858 
L 472.397054 -268.021583 
L 469.474006 -280.041076 
L 466.550957 -291.745381 
L 463.627908 -304.902226 
L 460.704859 -320.514731 
L 457.781811 -337.771204 
L 454.858762 -357.120491 
L 451.935713 -377.085882 
L 449.012664 -394.409622 
L 446.089616 -411.52976 
L 443.166567 -434.243311 
L 440.243518 -459.98823 
L 437.32047 -479.099485 
L 434.397421 -490.868284 
L 431.474372 -501.863544 
L 428.551323 -512.253439 
L 425.628275 -521.839182 
L 422.705226 -537.283284 
L 419.782177 -559.355433 
L 416.859128 -584.123057 
L 413.93608 -611.446372 
L 411.013031 -636.447239 
L 408.089982 -647.415162 
L 405.166933 -639.432878 
L 402.243885 -621.952226 
L 399.320836 -610.751921 
L 396.397787 -615.848005 
L 393.474738 -634.628379 
L 390.55169 -655.29427 
L 387.628641 -668.580457 
L 384.705592 -675.267509 
L 381.782543 -680.374161 
L 378.859495 -684.466126 
L 375.936446 -687.632126 
L 373.013397 -694.273752 
L 370.090348 -704.885362 
L 367.1673 -716.576798 
L 364.244251 -726.898115 
L 361.321202 -728.64 
L 358.398153 -721.99893 
L 355.475105 -715.422561 
L 352.552056 -709.152697 
L 349.629007 -700.394641 
L 346.705958 -688.366574 
L 343.78291 -672.838528 
L 340.859861 -655.591823 
L 337.936812 -633.964538 
L 335.013763 -605.751086 
L 332.090715 -578.979174 
L 329.167666 -560.003334 
L 326.244617 -546.523533 
L 323.321568 -535.939944 
L 320.39852 -527.132275 
L 317.475471 -517.944859 
L 314.552422 -507.789093 
L 311.629374 -500.151659 
L 308.706325 -495.698976 
L 305.783276 -488.221323 
L 302.860227 -470.634392 
L 299.937179 -442.029541 
L 297.01413 -409.29027 
L 294.091081 -379.316833 
L 291.168032 -352.762241 
L 288.244984 -329.210614 
L 285.321935 -309.931397 
L 282.398886 -294.509692 
L 279.475837 -282.002361 
L 276.552789 -271.76592 
L 273.62974 -261.476808 
L 270.706691 -249.785479 
L 267.783642 -237.83302 
L 264.860594 -226.383924 
L 261.937545 -215.600028 
L 259.014496 -205.308432 
L 256.091447 -194.102805 
L 253.168399 -181.830714 
L 250.24535 -170.424677 
L 247.322301 -161.424872 
L 244.399252 -154.689592 
L 241.476204 -148.901275 
L 238.553155 -143.319302 
L 235.630106 -138.366715 
L 232.707057 -134.143009 
L 229.784009 -129.998495 
L 226.86096 -125.343179 
L 223.937911 -120.074686 
L 221.014862 -114.605642 
L 218.091814 -109.573227 
L 215.168765 -105.32751 
L 212.245716 -102.052864 
L 209.322667 -99.749632 
L 206.399619 -98.22623 
L 203.47657 -97.2779 
L 200.553521 -96.621538 
L 197.630473 -96.072626 
L 194.707424 -95.674371 
L 191.784375 -95.459091 
L 188.861326 -95.338638 
L 185.938278 -95.24414 
L 183.015229 -95.165834 
L 180.09218 -95.109036 
L 177.169131 -95.074613 
L 174.246083 -95.054579 
L 171.323034 -95.044325 
L 168.399985 -95.0408 
L 165.476936 -95.040087 
z
" style="stroke: #008000; stroke-width: 3"/>
    </defs>
    <g clip-path="url(#pded09407b5)">
     <use xlink:href="#ma6e841df3b" x="0" y="864" style="fill: #008000; fill-opacity: 0.25; stroke: #008000; stroke-width: 3"/>
    </g>
   </g>
   <g id="matplotlib.axis_1">
    <g id="xtick_1">
     <g id="line2d_1">
      <defs>
       <path id="m4c08431fe8" d="M 0 0 
L 0 3.5 
" style="stroke: #000000; stroke-width: 0.8"/>
      </defs>
      <g>
       <use xlink:href="#m4c08431fe8" x="139.18224" y="768.96" style="stroke: #000000; stroke-width: 0.8"/>
      </g>
     </g>
     <g id="text_1">
      <!-- 0.0 -->
      <g transform="translate(131.230678 783.558437)scale(0.1 -0.1)">
       <defs>
        <path id="DejaVuSans-30" d="M 2034 4250 
Q 1547 4250 1301 3770 
Q 1056 3291 1056 2328 
Q 1056 1369 1301 889 
Q 1547 409 2034 409 
Q 2525 409 2770 889 
Q 3016 1369 3016 2328 
Q 3016 3291 2770 3770 
Q 2525 4250 2034 4250 
z
M 2034 4750 
Q 2819 4750 3233 4129 
Q 3647 3509 3647 2328 
Q 3647 1150 3233 529 
Q 2819 -91 2034 -91 
Q 1250 -91 836 529 
Q 422 1150 422 2328 
Q 422 3509 836 4129 
Q 1250 4750 2034 4750 
z
" transform="scale(0.015625)"/>
        <path id="DejaVuSans-2e" d="M 684 794 
L 1344 794 
L 1344 0 
L 684 0 
L 684 794 
z
" transform="scale(0.015625)"/>
       </defs>
       <use xlink:href="#DejaVuSans-30"/>
       <use xlink:href="#DejaVuSans-2e" x="63.623047"/>
       <use xlink:href="#DejaVuSans-30" x="95.410156"/>
      </g>
     </g>
    </g>
    <g id="xtick_2">
     <g id="line2d_2">
      <g>
       <use xlink:href="#m4c08431fe8" x="258.575387" y="768.96" style="stroke: #000000; stroke-width: 0.8"/>
      </g>
     </g>
     <g id="text_2">
      <!-- 0.2 -->
      <g transform="translate(250.623824 783.558437)scale(0.1 -0.1)">
       <defs>
        <path id="DejaVuSans-32" d="M 1228 531 
L 3431 531 
L 3431 0 
L 469 0 
L 469 531 
Q 828 903 1448 1529 
Q 2069 2156 2228 2338 
Q 2531 2678 2651 2914 
Q 2772 3150 2772 3378 
Q 2772 3750 2511 3984 
Q 2250 4219 1831 4219 
Q 1534 4219 1204 4116 
Q 875 4013 500 3803 
L 500 4441 
Q 881 4594 1212 4672 
Q 1544 4750 1819 4750 
Q 2544 4750 2975 4387 
Q 3406 4025 3406 3419 
Q 3406 3131 3298 2873 
Q 3191 2616 2906 2266 
Q 2828 2175 2409 1742 
Q 1991 1309 1228 531 
z
" transform="scale(0.015625)"/>
       </defs>
       <use xlink:href="#DejaVuSans-30"/>
       <use xlink:href="#DejaVuSans-2e" x="63.623047"/>
       <use xlink:href="#DejaVuSans-32" x="95.410156"/>
      </g>
     </g>
    </g>
    <g id="xtick_3">
     <g id="line2d_3">
      <g>
       <use xlink:href="#m4c08431fe8" x="377.968534" y="768.96" style="stroke: #000000; stroke-width: 0.8"/>
      </g>
     </g>
     <g id="text_3">
      <!-- 0.4 -->
      <g transform="translate(370.016971 783.558437)scale(0.1 -0.1)">
       <defs>
        <path id="DejaVuSans-34" d="M 2419 4116 
L 825 1625 
L 2419 1625 
L 2419 4116 
z
M 2253 4666 
L 3047 4666 
L 3047 1625 
L 3713 1625 
L 3713 1100 
L 3047 1100 
L 3047 0 
L 2419 0 
L 2419 1100 
L 313 1100 
L 313 1709 
L 2253 4666 
z
" transform="scale(0.015625)"/>
       </defs>
       <use xlink:href="#DejaVuSans-30"/>
       <use xlink:href="#DejaVuSans-2e" x="63.623047"/>
       <use xlink:href="#DejaVuSans-34" x="95.410156"/>
      </g>
     </g>
    </g>
    <g id="xtick_4">
     <g id="line2d_4">
      <g>
       <use xlink:href="#m4c08431fe8" x="497.361681" y="768.96" style="stroke: #000000; stroke-width: 0.8"/>
      </g>
     </g>
     <g id="text_4">
      <!-- 0.6 -->
      <g transform="translate(489.410118 783.558437)scale(0.1 -0.1)">
       <defs>
        <path id="DejaVuSans-36" d="M 2113 2584 
Q 1688 2584 1439 2293 
Q 1191 2003 1191 1497 
Q 1191 994 1439 701 
Q 1688 409 2113 409 
Q 2538 409 2786 701 
Q 3034 994 3034 1497 
Q 3034 2003 2786 2293 
Q 2538 2584 2113 2584 
z
M 3366 4563 
L 3366 3988 
Q 3128 4100 2886 4159 
Q 2644 4219 2406 4219 
Q 1781 4219 1451 3797 
Q 1122 3375 1075 2522 
Q 1259 2794 1537 2939 
Q 1816 3084 2150 3084 
Q 2853 3084 3261 2657 
Q 3669 2231 3669 1497 
Q 3669 778 3244 343 
Q 2819 -91 2113 -91 
Q 1303 -91 875 529 
Q 447 1150 447 2328 
Q 447 3434 972 4092 
Q 1497 4750 2381 4750 
Q 2619 4750 2861 4703 
Q 3103 4656 3366 4563 
z
" transform="scale(0.015625)"/>
       </defs>
       <use xlink:href="#DejaVuSans-30"/>
       <use xlink:href="#DejaVuSans-2e" x="63.623047"/>
       <use xlink:href="#DejaVuSans-36" x="95.410156"/>
      </g>
     </g>
    </g>
    <g id="xtick_5">
     <g id="line2d_5">
      <g>
       <use xlink:href="#m4c08431fe8" x="616.754827" y="768.96" style="stroke: #000000; stroke-width: 0.8"/>
      </g>
     </g>
     <g id="text_5">
      <!-- 0.8 -->
      <g transform="translate(608.803265 783.558437)scale(0.1 -0.1)">
       <defs>
        <path id="DejaVuSans-38" d="M 2034 2216 
Q 1584 2216 1326 1975 
Q 1069 1734 1069 1313 
Q 1069 891 1326 650 
Q 1584 409 2034 409 
Q 2484 409 2743 651 
Q 3003 894 3003 1313 
Q 3003 1734 2745 1975 
Q 2488 2216 2034 2216 
z
M 1403 2484 
Q 997 2584 770 2862 
Q 544 3141 544 3541 
Q 544 4100 942 4425 
Q 1341 4750 2034 4750 
Q 2731 4750 3128 4425 
Q 3525 4100 3525 3541 
Q 3525 3141 3298 2862 
Q 3072 2584 2669 2484 
Q 3125 2378 3379 2068 
Q 3634 1759 3634 1313 
Q 3634 634 3220 271 
Q 2806 -91 2034 -91 
Q 1263 -91 848 271 
Q 434 634 434 1313 
Q 434 1759 690 2068 
Q 947 2378 1403 2484 
z
M 1172 3481 
Q 1172 3119 1398 2916 
Q 1625 2713 2034 2713 
Q 2441 2713 2670 2916 
Q 2900 3119 2900 3481 
Q 2900 3844 2670 4047 
Q 2441 4250 2034 4250 
Q 1625 4250 1398 4047 
Q 1172 3844 1172 3481 
z
" transform="scale(0.015625)"/>
       </defs>
       <use xlink:href="#DejaVuSans-30"/>
       <use xlink:href="#DejaVuSans-2e" x="63.623047"/>
       <use xlink:href="#DejaVuSans-38" x="95.410156"/>
      </g>
     </g>
    </g>
    <g id="xtick_6">
     <g id="line2d_6">
      <g>
       <use xlink:href="#m4c08431fe8" x="736.147974" y="768.96" style="stroke: #000000; stroke-width: 0.8"/>
      </g>
     </g>
     <g id="text_6">
      <!-- 1.0 -->
      <g transform="translate(728.196412 783.558437)scale(0.1 -0.1)">
       <defs>
        <path id="DejaVuSans-31" d="M 794 531 
L 1825 531 
L 1825 4091 
L 703 3866 
L 703 4441 
L 1819 4666 
L 2450 4666 
L 2450 531 
L 3481 531 
L 3481 0 
L 794 0 
L 794 531 
z
" transform="scale(0.015625)"/>
       </defs>
       <use xlink:href="#DejaVuSans-31"/>
       <use xlink:href="#DejaVuSans-2e" x="63.623047"/>
       <use xlink:href="#DejaVuSans-30" x="95.410156"/>
      </g>
     </g>
    </g>
    <g id="text_7">
     <!-- Similarity -->
     <g transform="translate(404.97625 801.795625)scale(0.16 -0.16)">
      <defs>
       <path id="DejaVuSans-53" d="M 3425 4513 
L 3425 3897 
Q 3066 4069 2747 4153 
Q 2428 4238 2131 4238 
Q 1616 4238 1336 4038 
Q 1056 3838 1056 3469 
Q 1056 3159 1242 3001 
Q 1428 2844 1947 2747 
L 2328 2669 
Q 3034 2534 3370 2195 
Q 3706 1856 3706 1288 
Q 3706 609 3251 259 
Q 2797 -91 1919 -91 
Q 1588 -91 1214 -16 
Q 841 59 441 206 
L 441 856 
Q 825 641 1194 531 
Q 1563 422 1919 422 
Q 2459 422 2753 634 
Q 3047 847 3047 1241 
Q 3047 1584 2836 1778 
Q 2625 1972 2144 2069 
L 1759 2144 
Q 1053 2284 737 2584 
Q 422 2884 422 3419 
Q 422 4038 858 4394 
Q 1294 4750 2059 4750 
Q 2388 4750 2728 4690 
Q 3069 4631 3425 4513 
z
" transform="scale(0.015625)"/>
       <path id="DejaVuSans-69" d="M 603 3500 
L 1178 3500 
L 1178 0 
L 603 0 
L 603 3500 
z
M 603 4863 
L 1178 4863 
L 1178 4134 
L 603 4134 
L 603 4863 
z
" transform="scale(0.015625)"/>
       <path id="DejaVuSans-6d" d="M 3328 2828 
Q 3544 3216 3844 3400 
Q 4144 3584 4550 3584 
Q 5097 3584 5394 3201 
Q 5691 2819 5691 2113 
L 5691 0 
L 5113 0 
L 5113 2094 
Q 5113 2597 4934 2840 
Q 4756 3084 4391 3084 
Q 3944 3084 3684 2787 
Q 3425 2491 3425 1978 
L 3425 0 
L 2847 0 
L 2847 2094 
Q 2847 2600 2669 2842 
Q 2491 3084 2119 3084 
Q 1678 3084 1418 2786 
Q 1159 2488 1159 1978 
L 1159 0 
L 581 0 
L 581 3500 
L 1159 3500 
L 1159 2956 
Q 1356 3278 1631 3431 
Q 1906 3584 2284 3584 
Q 2666 3584 2933 3390 
Q 3200 3197 3328 2828 
z
" transform="scale(0.015625)"/>
       <path id="DejaVuSans-6c" d="M 603 4863 
L 1178 4863 
L 1178 0 
L 603 0 
L 603 4863 
z
" transform="scale(0.015625)"/>
       <path id="DejaVuSans-61" d="M 2194 1759 
Q 1497 1759 1228 1600 
Q 959 1441 959 1056 
Q 959 750 1161 570 
Q 1363 391 1709 391 
Q 2188 391 2477 730 
Q 2766 1069 2766 1631 
L 2766 1759 
L 2194 1759 
z
M 3341 1997 
L 3341 0 
L 2766 0 
L 2766 531 
Q 2569 213 2275 61 
Q 1981 -91 1556 -91 
Q 1019 -91 701 211 
Q 384 513 384 1019 
Q 384 1609 779 1909 
Q 1175 2209 1959 2209 
L 2766 2209 
L 2766 2266 
Q 2766 2663 2505 2880 
Q 2244 3097 1772 3097 
Q 1472 3097 1187 3025 
Q 903 2953 641 2809 
L 641 3341 
Q 956 3463 1253 3523 
Q 1550 3584 1831 3584 
Q 2591 3584 2966 3190 
Q 3341 2797 3341 1997 
z
" transform="scale(0.015625)"/>
       <path id="DejaVuSans-72" d="M 2631 2963 
Q 2534 3019 2420 3045 
Q 2306 3072 2169 3072 
Q 1681 3072 1420 2755 
Q 1159 2438 1159 1844 
L 1159 0 
L 581 0 
L 581 3500 
L 1159 3500 
L 1159 2956 
Q 1341 3275 1631 3429 
Q 1922 3584 2338 3584 
Q 2397 3584 2469 3576 
Q 2541 3569 2628 3553 
L 2631 2963 
z
" transform="scale(0.015625)"/>
       <path id="DejaVuSans-74" d="M 1172 4494 
L 1172 3500 
L 2356 3500 
L 2356 3053 
L 1172 3053 
L 1172 1153 
Q 1172 725 1289 603 
Q 1406 481 1766 481 
L 2356 481 
L 2356 0 
L 1766 0 
Q 1100 0 847 248 
Q 594 497 594 1153 
L 594 3053 
L 172 3053 
L 172 3500 
L 594 3500 
L 594 4494 
L 1172 4494 
z
" transform="scale(0.015625)"/>
       <path id="DejaVuSans-79" d="M 2059 -325 
Q 1816 -950 1584 -1140 
Q 1353 -1331 966 -1331 
L 506 -1331 
L 506 -850 
L 844 -850 
Q 1081 -850 1212 -737 
Q 1344 -625 1503 -206 
L 1606 56 
L 191 3500 
L 800 3500 
L 1894 763 
L 2988 3500 
L 3597 3500 
L 2059 -325 
z
" transform="scale(0.015625)"/>
      </defs>
      <use xlink:href="#DejaVuSans-53"/>
      <use xlink:href="#DejaVuSans-69" x="63.476562"/>
      <use xlink:href="#DejaVuSans-6d" x="91.259766"/>
      <use xlink:href="#DejaVuSans-69" x="188.671875"/>
      <use xlink:href="#DejaVuSans-6c" x="216.455078"/>
      <use xlink:href="#DejaVuSans-61" x="244.238281"/>
      <use xlink:href="#DejaVuSans-72" x="305.517578"/>
      <use xlink:href="#DejaVuSans-69" x="346.630859"/>
      <use xlink:href="#DejaVuSans-74" x="374.414062"/>
      <use xlink:href="#DejaVuSans-79" x="413.623047"/>
     </g>
    </g>
   </g>
   <g id="matplotlib.axis_2">
    <g id="ytick_1">
     <g id="line2d_7">
      <defs>
       <path id="m51f0f23eb5" d="M 0 0 
L -3.5 0 
" style="stroke: #000000; stroke-width: 0.8"/>
      </defs>
      <g>
       <use xlink:href="#m51f0f23eb5" x="108" y="768.96" style="stroke: #000000; stroke-width: 0.8"/>
      </g>
     </g>
     <g id="text_8">
      <!-- 0.0 -->
      <g transform="translate(85.096875 772.759219)scale(0.1 -0.1)">
       <use xlink:href="#DejaVuSans-30"/>
       <use xlink:href="#DejaVuSans-2e" x="63.623047"/>
       <use xlink:href="#DejaVuSans-30" x="95.410156"/>
      </g>
     </g>
    </g>
    <g id="ytick_2">
     <g id="line2d_8">
      <g>
       <use xlink:href="#m51f0f23eb5" x="108" y="683.731174" style="stroke: #000000; stroke-width: 0.8"/>
      </g>
     </g>
     <g id="text_9">
      <!-- 0.5 -->
      <g transform="translate(85.096875 687.530393)scale(0.1 -0.1)">
       <defs>
        <path id="DejaVuSans-35" d="M 691 4666 
L 3169 4666 
L 3169 4134 
L 1269 4134 
L 1269 2991 
Q 1406 3038 1543 3061 
Q 1681 3084 1819 3084 
Q 2600 3084 3056 2656 
Q 3513 2228 3513 1497 
Q 3513 744 3044 326 
Q 2575 -91 1722 -91 
Q 1428 -91 1123 -41 
Q 819 9 494 109 
L 494 744 
Q 775 591 1075 516 
Q 1375 441 1709 441 
Q 2250 441 2565 725 
Q 2881 1009 2881 1497 
Q 2881 1984 2565 2268 
Q 2250 2553 1709 2553 
Q 1456 2553 1204 2497 
Q 953 2441 691 2322 
L 691 4666 
z
" transform="scale(0.015625)"/>
       </defs>
       <use xlink:href="#DejaVuSans-30"/>
       <use xlink:href="#DejaVuSans-2e" x="63.623047"/>
       <use xlink:href="#DejaVuSans-35" x="95.410156"/>
      </g>
     </g>
    </g>
    <g id="ytick_3">
     <g id="line2d_9">
      <g>
       <use xlink:href="#m51f0f23eb5" x="108" y="598.502348" style="stroke: #000000; stroke-width: 0.8"/>
      </g>
     </g>
     <g id="text_10">
      <!-- 1.0 -->
      <g transform="translate(85.096875 602.301567)scale(0.1 -0.1)">
       <use xlink:href="#DejaVuSans-31"/>
       <use xlink:href="#DejaVuSans-2e" x="63.623047"/>
       <use xlink:href="#DejaVuSans-30" x="95.410156"/>
      </g>
     </g>
    </g>
    <g id="ytick_4">
     <g id="line2d_10">
      <g>
       <use xlink:href="#m51f0f23eb5" x="108" y="513.273522" style="stroke: #000000; stroke-width: 0.8"/>
      </g>
     </g>
     <g id="text_11">
      <!-- 1.5 -->
      <g transform="translate(85.096875 517.072741)scale(0.1 -0.1)">
       <use xlink:href="#DejaVuSans-31"/>
       <use xlink:href="#DejaVuSans-2e" x="63.623047"/>
       <use xlink:href="#DejaVuSans-35" x="95.410156"/>
      </g>
     </g>
    </g>
    <g id="ytick_5">
     <g id="line2d_11">
      <g>
       <use xlink:href="#m51f0f23eb5" x="108" y="428.044696" style="stroke: #000000; stroke-width: 0.8"/>
      </g>
     </g>
     <g id="text_12">
      <!-- 2.0 -->
      <g transform="translate(85.096875 431.843915)scale(0.1 -0.1)">
       <use xlink:href="#DejaVuSans-32"/>
       <use xlink:href="#DejaVuSans-2e" x="63.623047"/>
       <use xlink:href="#DejaVuSans-30" x="95.410156"/>
      </g>
     </g>
    </g>
    <g id="ytick_6">
     <g id="line2d_12">
      <g>
       <use xlink:href="#m51f0f23eb5" x="108" y="342.81587" style="stroke: #000000; stroke-width: 0.8"/>
      </g>
     </g>
     <g id="text_13">
      <!-- 2.5 -->
      <g transform="translate(85.096875 346.615089)scale(0.1 -0.1)">
       <use xlink:href="#DejaVuSans-32"/>
       <use xlink:href="#DejaVuSans-2e" x="63.623047"/>
       <use xlink:href="#DejaVuSans-35" x="95.410156"/>
      </g>
     </g>
    </g>
    <g id="ytick_7">
     <g id="line2d_13">
      <g>
       <use xlink:href="#m51f0f23eb5" x="108" y="257.587044" style="stroke: #000000; stroke-width: 0.8"/>
      </g>
     </g>
     <g id="text_14">
      <!-- 3.0 -->
      <g transform="translate(85.096875 261.386263)scale(0.1 -0.1)">
       <defs>
        <path id="DejaVuSans-33" d="M 2597 2516 
Q 3050 2419 3304 2112 
Q 3559 1806 3559 1356 
Q 3559 666 3084 287 
Q 2609 -91 1734 -91 
Q 1441 -91 1130 -33 
Q 819 25 488 141 
L 488 750 
Q 750 597 1062 519 
Q 1375 441 1716 441 
Q 2309 441 2620 675 
Q 2931 909 2931 1356 
Q 2931 1769 2642 2001 
Q 2353 2234 1838 2234 
L 1294 2234 
L 1294 2753 
L 1863 2753 
Q 2328 2753 2575 2939 
Q 2822 3125 2822 3475 
Q 2822 3834 2567 4026 
Q 2313 4219 1838 4219 
Q 1578 4219 1281 4162 
Q 984 4106 628 3988 
L 628 4550 
Q 988 4650 1302 4700 
Q 1616 4750 1894 4750 
Q 2613 4750 3031 4423 
Q 3450 4097 3450 3541 
Q 3450 3153 3228 2886 
Q 3006 2619 2597 2516 
z
" transform="scale(0.015625)"/>
       </defs>
       <use xlink:href="#DejaVuSans-33"/>
       <use xlink:href="#DejaVuSans-2e" x="63.623047"/>
       <use xlink:href="#DejaVuSans-30" x="95.410156"/>
      </g>
     </g>
    </g>
    <g id="ytick_8">
     <g id="line2d_14">
      <g>
       <use xlink:href="#m51f0f23eb5" x="108" y="172.358218" style="stroke: #000000; stroke-width: 0.8"/>
      </g>
     </g>
     <g id="text_15">
      <!-- 3.5 -->
      <g transform="translate(85.096875 176.157436)scale(0.1 -0.1)">
       <use xlink:href="#DejaVuSans-33"/>
       <use xlink:href="#DejaVuSans-2e" x="63.623047"/>
       <use xlink:href="#DejaVuSans-35" x="95.410156"/>
      </g>
     </g>
    </g>
    <g id="text_16">
     <!-- Density -->
     <g transform="translate(77.769375 466.73375)rotate(-90)scale(0.16 -0.16)">
      <defs>
       <path id="DejaVuSans-44" d="M 1259 4147 
L 1259 519 
L 2022 519 
Q 2988 519 3436 956 
Q 3884 1394 3884 2338 
Q 3884 3275 3436 3711 
Q 2988 4147 2022 4147 
L 1259 4147 
z
M 628 4666 
L 1925 4666 
Q 3281 4666 3915 4102 
Q 4550 3538 4550 2338 
Q 4550 1131 3912 565 
Q 3275 0 1925 0 
L 628 0 
L 628 4666 
z
" transform="scale(0.015625)"/>
       <path id="DejaVuSans-65" d="M 3597 1894 
L 3597 1613 
L 953 1613 
Q 991 1019 1311 708 
Q 1631 397 2203 397 
Q 2534 397 2845 478 
Q 3156 559 3463 722 
L 3463 178 
Q 3153 47 2828 -22 
Q 2503 -91 2169 -91 
Q 1331 -91 842 396 
Q 353 884 353 1716 
Q 353 2575 817 3079 
Q 1281 3584 2069 3584 
Q 2775 3584 3186 3129 
Q 3597 2675 3597 1894 
z
M 3022 2063 
Q 3016 2534 2758 2815 
Q 2500 3097 2075 3097 
Q 1594 3097 1305 2825 
Q 1016 2553 972 2059 
L 3022 2063 
z
" transform="scale(0.015625)"/>
       <path id="DejaVuSans-6e" d="M 3513 2113 
L 3513 0 
L 2938 0 
L 2938 2094 
Q 2938 2591 2744 2837 
Q 2550 3084 2163 3084 
Q 1697 3084 1428 2787 
Q 1159 2491 1159 1978 
L 1159 0 
L 581 0 
L 581 3500 
L 1159 3500 
L 1159 2956 
Q 1366 3272 1645 3428 
Q 1925 3584 2291 3584 
Q 2894 3584 3203 3211 
Q 3513 2838 3513 2113 
z
" transform="scale(0.015625)"/>
       <path id="DejaVuSans-73" d="M 2834 3397 
L 2834 2853 
Q 2591 2978 2328 3040 
Q 2066 3103 1784 3103 
Q 1356 3103 1142 2972 
Q 928 2841 928 2578 
Q 928 2378 1081 2264 
Q 1234 2150 1697 2047 
L 1894 2003 
Q 2506 1872 2764 1633 
Q 3022 1394 3022 966 
Q 3022 478 2636 193 
Q 2250 -91 1575 -91 
Q 1294 -91 989 -36 
Q 684 19 347 128 
L 347 722 
Q 666 556 975 473 
Q 1284 391 1588 391 
Q 1994 391 2212 530 
Q 2431 669 2431 922 
Q 2431 1156 2273 1281 
Q 2116 1406 1581 1522 
L 1381 1569 
Q 847 1681 609 1914 
Q 372 2147 372 2553 
Q 372 3047 722 3315 
Q 1072 3584 1716 3584 
Q 2034 3584 2315 3537 
Q 2597 3491 2834 3397 
z
" transform="scale(0.015625)"/>
      </defs>
      <use xlink:href="#DejaVuSans-44"/>
      <use xlink:href="#DejaVuSans-65" x="77.001953"/>
      <use xlink:href="#DejaVuSans-6e" x="138.525391"/>
      <use xlink:href="#DejaVuSans-73" x="201.904297"/>
      <use xlink:href="#DejaVuSans-69" x="254.003906"/>
      <use xlink:href="#DejaVuSans-74" x="281.787109"/>
      <use xlink:href="#DejaVuSans-79" x="320.996094"/>
     </g>
    </g>
   </g>
   <g id="patch_3">
    <path d="M 108 768.96 
L 108 103.68 
" style="fill: none; stroke: #000000; stroke-width: 0.8; stroke-linejoin: miter; stroke-linecap: square"/>
   </g>
   <g id="patch_4">
    <path d="M 777.6 768.96 
L 777.6 103.68 
" style="fill: none; stroke: #000000; stroke-width: 0.8; stroke-linejoin: miter; stroke-linecap: square"/>
   </g>
   <g id="patch_5">
    <path d="M 108 768.96 
L 777.6 768.96 
" style="fill: none; stroke: #000000; stroke-width: 0.8; stroke-linejoin: miter; stroke-linecap: square"/>
   </g>
   <g id="patch_6">
    <path d="M 108 103.68 
L 777.6 103.68 
" style="fill: none; stroke: #000000; stroke-width: 0.8; stroke-linejoin: miter; stroke-linecap: square"/>
   </g>
   <g id="legend_1">
    <g id="patch_7">
     <path d="M 484.15 186.935 
L 766.4 186.935 
Q 769.6 186.935 769.6 183.735 
L 769.6 114.88 
Q 769.6 111.68 766.4 111.68 
L 484.15 111.68 
Q 480.95 111.68 480.95 114.88 
L 480.95 183.735 
Q 480.95 186.935 484.15 186.935 
z
" style="fill: #ffffff; opacity: 0.8; stroke: #cccccc; stroke-linejoin: miter"/>
    </g>
    <g id="patch_8">
     <path d="M 487.35 130.2375 
L 519.35 130.2375 
L 519.35 119.0375 
L 487.35 119.0375 
z
" style="fill: #0000ff; fill-opacity: 0.25; stroke: #0000ff; stroke-width: 3; stroke-linejoin: miter"/>
    </g>
    <g id="text_17">
     <!-- Training vs Test set similarity -->
     <g transform="translate(532.15 130.2375)scale(0.16 -0.16)">
      <defs>
       <path id="DejaVuSans-54" d="M -19 4666 
L 3928 4666 
L 3928 4134 
L 2272 4134 
L 2272 0 
L 1638 0 
L 1638 4134 
L -19 4134 
L -19 4666 
z
" transform="scale(0.015625)"/>
       <path id="DejaVuSans-67" d="M 2906 1791 
Q 2906 2416 2648 2759 
Q 2391 3103 1925 3103 
Q 1463 3103 1205 2759 
Q 947 2416 947 1791 
Q 947 1169 1205 825 
Q 1463 481 1925 481 
Q 2391 481 2648 825 
Q 2906 1169 2906 1791 
z
M 3481 434 
Q 3481 -459 3084 -895 
Q 2688 -1331 1869 -1331 
Q 1566 -1331 1297 -1286 
Q 1028 -1241 775 -1147 
L 775 -588 
Q 1028 -725 1275 -790 
Q 1522 -856 1778 -856 
Q 2344 -856 2625 -561 
Q 2906 -266 2906 331 
L 2906 616 
Q 2728 306 2450 153 
Q 2172 0 1784 0 
Q 1141 0 747 490 
Q 353 981 353 1791 
Q 353 2603 747 3093 
Q 1141 3584 1784 3584 
Q 2172 3584 2450 3431 
Q 2728 3278 2906 2969 
L 2906 3500 
L 3481 3500 
L 3481 434 
z
" transform="scale(0.015625)"/>
       <path id="DejaVuSans-20" transform="scale(0.015625)"/>
       <path id="DejaVuSans-76" d="M 191 3500 
L 800 3500 
L 1894 563 
L 2988 3500 
L 3597 3500 
L 2284 0 
L 1503 0 
L 191 3500 
z
" transform="scale(0.015625)"/>
      </defs>
      <use xlink:href="#DejaVuSans-54"/>
      <use xlink:href="#DejaVuSans-72" x="46.333984"/>
      <use xlink:href="#DejaVuSans-61" x="87.447266"/>
      <use xlink:href="#DejaVuSans-69" x="148.726562"/>
      <use xlink:href="#DejaVuSans-6e" x="176.509766"/>
      <use xlink:href="#DejaVuSans-69" x="239.888672"/>
      <use xlink:href="#DejaVuSans-6e" x="267.671875"/>
      <use xlink:href="#DejaVuSans-67" x="331.050781"/>
      <use xlink:href="#DejaVuSans-20" x="394.527344"/>
      <use xlink:href="#DejaVuSans-76" x="426.314453"/>
      <use xlink:href="#DejaVuSans-73" x="485.494141"/>
      <use xlink:href="#DejaVuSans-20" x="537.59375"/>
      <use xlink:href="#DejaVuSans-54" x="569.380859"/>
      <use xlink:href="#DejaVuSans-65" x="613.464844"/>
      <use xlink:href="#DejaVuSans-73" x="674.988281"/>
      <use xlink:href="#DejaVuSans-74" x="727.087891"/>
      <use xlink:href="#DejaVuSans-20" x="766.296875"/>
      <use xlink:href="#DejaVuSans-73" x="798.083984"/>
      <use xlink:href="#DejaVuSans-65" x="850.183594"/>
      <use xlink:href="#DejaVuSans-74" x="911.707031"/>
      <use xlink:href="#DejaVuSans-20" x="950.916016"/>
      <use xlink:href="#DejaVuSans-73" x="982.703125"/>
      <use xlink:href="#DejaVuSans-69" x="1034.802734"/>
      <use xlink:href="#DejaVuSans-6d" x="1062.585938"/>
      <use xlink:href="#DejaVuSans-69" x="1159.998047"/>
      <use xlink:href="#DejaVuSans-6c" x="1187.78125"/>
      <use xlink:href="#DejaVuSans-61" x="1215.564453"/>
      <use xlink:href="#DejaVuSans-72" x="1276.84375"/>
      <use xlink:href="#DejaVuSans-69" x="1317.957031"/>
      <use xlink:href="#DejaVuSans-74" x="1345.740234"/>
      <use xlink:href="#DejaVuSans-79" x="1384.949219"/>
     </g>
    </g>
    <g id="patch_9">
     <path d="M 487.35 153.7225 
L 519.35 153.7225 
L 519.35 142.5225 
L 487.35 142.5225 
z
" style="fill: #ff0000; fill-opacity: 0.25; stroke: #ff0000; stroke-width: 3; stroke-linejoin: miter"/>
    </g>
    <g id="text_18">
     <!-- Training set inner similarity -->
     <g transform="translate(532.15 153.7225)scale(0.16 -0.16)">
      <use xlink:href="#DejaVuSans-54"/>
      <use xlink:href="#DejaVuSans-72" x="46.333984"/>
      <use xlink:href="#DejaVuSans-61" x="87.447266"/>
      <use xlink:href="#DejaVuSans-69" x="148.726562"/>
      <use xlink:href="#DejaVuSans-6e" x="176.509766"/>
      <use xlink:href="#DejaVuSans-69" x="239.888672"/>
      <use xlink:href="#DejaVuSans-6e" x="267.671875"/>
      <use xlink:href="#DejaVuSans-67" x="331.050781"/>
      <use xlink:href="#DejaVuSans-20" x="394.527344"/>
      <use xlink:href="#DejaVuSans-73" x="426.314453"/>
      <use xlink:href="#DejaVuSans-65" x="478.414062"/>
      <use xlink:href="#DejaVuSans-74" x="539.9375"/>
      <use xlink:href="#DejaVuSans-20" x="579.146484"/>
      <use xlink:href="#DejaVuSans-69" x="610.933594"/>
      <use xlink:href="#DejaVuSans-6e" x="638.716797"/>
      <use xlink:href="#DejaVuSans-6e" x="702.095703"/>
      <use xlink:href="#DejaVuSans-65" x="765.474609"/>
      <use xlink:href="#DejaVuSans-72" x="826.998047"/>
      <use xlink:href="#DejaVuSans-20" x="868.111328"/>
      <use xlink:href="#DejaVuSans-73" x="899.898438"/>
      <use xlink:href="#DejaVuSans-69" x="951.998047"/>
      <use xlink:href="#DejaVuSans-6d" x="979.78125"/>
      <use xlink:href="#DejaVuSans-69" x="1077.193359"/>
      <use xlink:href="#DejaVuSans-6c" x="1104.976562"/>
      <use xlink:href="#DejaVuSans-61" x="1132.759766"/>
      <use xlink:href="#DejaVuSans-72" x="1194.039062"/>
      <use xlink:href="#DejaVuSans-69" x="1235.152344"/>
      <use xlink:href="#DejaVuSans-74" x="1262.935547"/>
      <use xlink:href="#DejaVuSans-79" x="1302.144531"/>
     </g>
    </g>
    <g id="patch_10">
     <path d="M 487.35 177.2075 
L 519.35 177.2075 
L 519.35 166.0075 
L 487.35 166.0075 
z
" style="fill: #008000; fill-opacity: 0.25; stroke: #008000; stroke-width: 3; stroke-linejoin: miter"/>
    </g>
    <g id="text_19">
     <!-- Test set inner similarity -->
     <g transform="translate(532.15 177.2075)scale(0.16 -0.16)">
      <use xlink:href="#DejaVuSans-54"/>
      <use xlink:href="#DejaVuSans-65" x="44.083984"/>
      <use xlink:href="#DejaVuSans-73" x="105.607422"/>
      <use xlink:href="#DejaVuSans-74" x="157.707031"/>
      <use xlink:href="#DejaVuSans-20" x="196.916016"/>
      <use xlink:href="#DejaVuSans-73" x="228.703125"/>
      <use xlink:href="#DejaVuSans-65" x="280.802734"/>
      <use xlink:href="#DejaVuSans-74" x="342.326172"/>
      <use xlink:href="#DejaVuSans-20" x="381.535156"/>
      <use xlink:href="#DejaVuSans-69" x="413.322266"/>
      <use xlink:href="#DejaVuSans-6e" x="441.105469"/>
      <use xlink:href="#DejaVuSans-6e" x="504.484375"/>
      <use xlink:href="#DejaVuSans-65" x="567.863281"/>
      <use xlink:href="#DejaVuSans-72" x="629.386719"/>
      <use xlink:href="#DejaVuSans-20" x="670.5"/>
      <use xlink:href="#DejaVuSans-73" x="702.287109"/>
      <use xlink:href="#DejaVuSans-69" x="754.386719"/>
      <use xlink:href="#DejaVuSans-6d" x="782.169922"/>
      <use xlink:href="#DejaVuSans-69" x="879.582031"/>
      <use xlink:href="#DejaVuSans-6c" x="907.365234"/>
      <use xlink:href="#DejaVuSans-61" x="935.148438"/>
      <use xlink:href="#DejaVuSans-72" x="996.427734"/>
      <use xlink:href="#DejaVuSans-69" x="1037.541016"/>
      <use xlink:href="#DejaVuSans-74" x="1065.324219"/>
      <use xlink:href="#DejaVuSans-79" x="1104.533203"/>
     </g>
    </g>
   </g>
  </g>
 </g>
 <defs>
  <clipPath id="pded09407b5">
   <rect x="108" y="103.68" width="669.6" height="665.28"/>
  </clipPath>
 </defs>
</svg>
