<?xml version="1.0" encoding="utf-8" standalone="no"?>
<!DOCTYPE svg PUBLIC "-//W3C//DTD SVG 1.1//EN"
  "http://www.w3.org/Graphics/SVG/1.1/DTD/svg11.dtd">
<svg xmlns:xlink="http://www.w3.org/1999/xlink" width="864pt" height="864pt" viewBox="0 0 864 864" xmlns="http://www.w3.org/2000/svg" version="1.1">
 <metadata>
  <rdf:RDF xmlns:dc="http://purl.org/dc/elements/1.1/" xmlns:cc="http://creativecommons.org/ns#" xmlns:rdf="http://www.w3.org/1999/02/22-rdf-syntax-ns#">
   <cc:Work>
    <dc:type rdf:resource="http://purl.org/dc/dcmitype/StillImage"/>
    <dc:date>2022-02-07T07:36:29.812914</dc:date>
    <dc:format>image/svg+xml</dc:format>
    <dc:creator>
     <cc:Agent>
      <dc:title>Matplotlib v3.5.1, https://matplotlib.org/</dc:title>
     </cc:Agent>
    </dc:creator>
   </cc:Work>
  </rdf:RDF>
 </metadata>
 <defs>
  <style type="text/css">*{stroke-linejoin: round; stroke-linecap: butt}</style>
 </defs>
 <g id="figure_1">
  <g id="patch_1">
   <path d="M 0 864 
L 864 864 
L 864 0 
L 0 0 
z
" style="fill: #ffffff"/>
  </g>
  <g id="axes_1">
   <g id="patch_2">
    <path d="M 108 768.96 
L 777.6 768.96 
L 777.6 103.68 
L 108 103.68 
z
" style="fill: #ffffff"/>
   </g>
   <g id="PolyCollection_1">
    <defs>
     <path id="mad4fe85aca" d="M 138.436364 -95.040005 
L 138.436364 -95.04 
L 141.457078 -95.04 
L 144.477793 -95.04 
L 147.498508 -95.04 
L 150.519222 -95.04 
L 153.539937 -95.04 
L 156.560652 -95.04 
L 159.581366 -95.04 
L 162.602081 -95.04 
L 165.622796 -95.04 
L 168.64351 -95.04 
L 171.664225 -95.04 
L 174.68494 -95.04 
L 177.705654 -95.04 
L 180.726369 -95.04 
L 183.747084 -95.04 
L 186.767798 -95.04 
L 189.788513 -95.04 
L 192.809227 -95.04 
L 195.829942 -95.04 
L 198.850657 -95.04 
L 201.871371 -95.04 
L 204.892086 -95.04 
L 207.912801 -95.04 
L 210.933515 -95.04 
L 213.95423 -95.04 
L 216.974945 -95.04 
L 219.995659 -95.04 
L 223.016374 -95.04 
L 226.037089 -95.04 
L 229.057803 -95.04 
L 232.078518 -95.04 
L 235.099233 -95.04 
L 238.119947 -95.04 
L 241.140662 -95.04 
L 244.161377 -95.04 
L 247.182091 -95.04 
L 250.202806 -95.04 
L 253.223521 -95.04 
L 256.244235 -95.04 
L 259.26495 -95.04 
L 262.285665 -95.04 
L 265.306379 -95.04 
L 268.327094 -95.04 
L 271.347809 -95.04 
L 274.368523 -95.04 
L 277.389238 -95.04 
L 280.409953 -95.04 
L 283.430667 -95.04 
L 286.451382 -95.04 
L 289.472097 -95.04 
L 292.492811 -95.04 
L 295.513526 -95.04 
L 298.534241 -95.04 
L 301.554955 -95.04 
L 304.57567 -95.04 
L 307.596384 -95.04 
L 310.617099 -95.04 
L 313.637814 -95.04 
L 316.658528 -95.04 
L 319.679243 -95.04 
L 322.699958 -95.04 
L 325.720672 -95.04 
L 328.741387 -95.04 
L 331.762102 -95.04 
L 334.782816 -95.04 
L 337.803531 -95.04 
L 340.824246 -95.04 
L 343.84496 -95.04 
L 346.865675 -95.04 
L 349.88639 -95.04 
L 352.907104 -95.04 
L 355.927819 -95.04 
L 358.948534 -95.04 
L 361.969248 -95.04 
L 364.989963 -95.04 
L 368.010678 -95.04 
L 371.031392 -95.04 
L 374.052107 -95.04 
L 377.072822 -95.04 
L 380.093536 -95.04 
L 383.114251 -95.04 
L 386.134966 -95.04 
L 389.15568 -95.04 
L 392.176395 -95.04 
L 395.19711 -95.04 
L 398.217824 -95.04 
L 401.238539 -95.04 
L 404.259254 -95.04 
L 407.279968 -95.04 
L 410.300683 -95.04 
L 413.321398 -95.04 
L 416.342112 -95.04 
L 419.362827 -95.04 
L 422.383542 -95.04 
L 425.404256 -95.04 
L 428.424971 -95.04 
L 431.445685 -95.04 
L 434.4664 -95.04 
L 437.487115 -95.04 
L 440.507829 -95.04 
L 443.528544 -95.04 
L 446.549259 -95.04 
L 449.569973 -95.04 
L 452.590688 -95.04 
L 455.611403 -95.04 
L 458.632117 -95.04 
L 461.652832 -95.04 
L 464.673547 -95.04 
L 467.694261 -95.04 
L 470.714976 -95.04 
L 473.735691 -95.04 
L 476.756405 -95.04 
L 479.77712 -95.04 
L 482.797835 -95.04 
L 485.818549 -95.04 
L 488.839264 -95.04 
L 491.859979 -95.04 
L 494.880693 -95.04 
L 497.901408 -95.04 
L 500.922123 -95.04 
L 503.942837 -95.04 
L 506.963552 -95.04 
L 509.984267 -95.04 
L 513.004981 -95.04 
L 516.025696 -95.04 
L 519.046411 -95.04 
L 522.067125 -95.04 
L 525.08784 -95.04 
L 528.108555 -95.04 
L 531.129269 -95.04 
L 534.149984 -95.04 
L 537.170699 -95.04 
L 540.191413 -95.04 
L 543.212128 -95.04 
L 546.232842 -95.04 
L 549.253557 -95.04 
L 552.274272 -95.04 
L 555.294986 -95.04 
L 558.315701 -95.04 
L 561.336416 -95.04 
L 564.35713 -95.04 
L 567.377845 -95.04 
L 570.39856 -95.04 
L 573.419274 -95.04 
L 576.439989 -95.04 
L 579.460704 -95.04 
L 582.481418 -95.04 
L 585.502133 -95.04 
L 588.522848 -95.04 
L 591.543562 -95.04 
L 594.564277 -95.04 
L 597.584992 -95.04 
L 600.605706 -95.04 
L 603.626421 -95.04 
L 606.647136 -95.04 
L 609.66785 -95.04 
L 612.688565 -95.04 
L 615.70928 -95.04 
L 618.729994 -95.04 
L 621.750709 -95.04 
L 624.771424 -95.04 
L 627.792138 -95.04 
L 630.812853 -95.04 
L 633.833568 -95.04 
L 636.854282 -95.04 
L 639.874997 -95.04 
L 642.895712 -95.04 
L 645.916426 -95.04 
L 648.937141 -95.04 
L 651.957856 -95.04 
L 654.97857 -95.04 
L 657.999285 -95.04 
L 661.02 -95.04 
L 664.040714 -95.04 
L 667.061429 -95.04 
L 670.082143 -95.04 
L 673.102858 -95.04 
L 676.123573 -95.04 
L 679.144287 -95.04 
L 682.165002 -95.04 
L 685.185717 -95.04 
L 688.206431 -95.04 
L 691.227146 -95.04 
L 694.247861 -95.04 
L 697.268575 -95.04 
L 700.28929 -95.04 
L 703.310005 -95.04 
L 706.330719 -95.04 
L 709.351434 -95.04 
L 712.372149 -95.04 
L 715.392863 -95.04 
L 718.413578 -95.04 
L 721.434293 -95.04 
L 724.455007 -95.04 
L 727.475722 -95.04 
L 730.496437 -95.04 
L 733.517151 -95.04 
L 736.537866 -95.04 
L 739.558581 -95.04 
L 739.558581 -95.040488 
L 739.558581 -95.040488 
L 736.537866 -95.051008 
L 733.517151 -95.109738 
L 730.496437 -95.218452 
L 727.475722 -95.378764 
L 724.455007 -95.606096 
L 721.434293 -95.889862 
L 718.413578 -96.439379 
L 715.392863 -96.98106 
L 712.372149 -97.470178 
L 709.351434 -97.940317 
L 706.330719 -98.128623 
L 703.310005 -98.43261 
L 700.28929 -99.286488 
L 697.268575 -100.528329 
L 694.247861 -101.755792 
L 691.227146 -102.446985 
L 688.206431 -102.589066 
L 685.185717 -103.495782 
L 682.165002 -104.663938 
L 679.144287 -106.061445 
L 676.123573 -107.342233 
L 673.102858 -108.185633 
L 670.082143 -109.398788 
L 667.061429 -110.624516 
L 664.040714 -112.470294 
L 661.02 -114.795423 
L 657.999285 -116.989759 
L 654.97857 -118.500715 
L 651.957856 -120.735472 
L 648.937141 -123.153879 
L 645.916426 -124.518823 
L 642.895712 -126.300515 
L 639.874997 -128.050724 
L 636.854282 -130.066532 
L 633.833568 -132.361347 
L 630.812853 -134.071314 
L 627.792138 -135.940729 
L 624.771424 -137.850639 
L 621.750709 -139.610104 
L 618.729994 -141.057682 
L 615.70928 -142.132584 
L 612.688565 -143.239538 
L 609.66785 -143.752616 
L 606.647136 -143.865112 
L 603.626421 -145.383388 
L 600.605706 -147.681767 
L 597.584992 -148.780793 
L 594.564277 -150.569802 
L 591.543562 -153.808148 
L 588.522848 -157.51291 
L 585.502133 -161.712195 
L 582.481418 -165.203272 
L 579.460704 -168.347548 
L 576.439989 -172.464527 
L 573.419274 -177.375139 
L 570.39856 -179.476936 
L 567.377845 -179.535858 
L 564.35713 -181.457756 
L 561.336416 -183.346548 
L 558.315701 -184.898996 
L 555.294986 -188.378775 
L 552.274272 -192.444382 
L 549.253557 -195.155215 
L 546.232842 -197.309609 
L 543.212128 -196.829203 
L 540.191413 -192.683871 
L 537.170699 -191.166059 
L 534.149984 -192.780198 
L 531.129269 -194.345311 
L 528.108555 -197.284795 
L 525.08784 -202.409231 
L 522.067125 -206.670629 
L 519.046411 -207.122619 
L 516.025696 -204.997161 
L 513.004981 -200.348258 
L 509.984267 -193.60077 
L 506.963552 -189.607296 
L 503.942837 -188.741244 
L 500.922123 -191.071156 
L 497.901408 -194.998446 
L 494.880693 -198.61286 
L 491.859979 -203.730047 
L 488.839264 -211.190534 
L 485.818549 -220.947481 
L 482.797835 -229.665895 
L 479.77712 -235.540326 
L 476.756405 -243.509653 
L 473.735691 -257.937505 
L 470.714976 -278.386881 
L 467.694261 -298.132804 
L 464.673547 -313.273733 
L 461.652832 -331.411362 
L 458.632117 -354.32429 
L 455.611403 -379.231628 
L 452.590688 -409.202565 
L 449.569973 -440.960258 
L 446.549259 -470.771278 
L 443.528544 -499.321754 
L 440.507829 -523.530738 
L 437.487115 -541.556915 
L 434.4664 -559.01599 
L 431.445685 -579.96854 
L 428.424971 -601.673556 
L 425.404256 -621.106648 
L 422.383542 -638.277184 
L 419.362827 -653.664951 
L 416.342112 -666.991546 
L 413.321398 -678.114494 
L 410.300683 -688.413298 
L 407.279968 -693.24772 
L 404.259254 -689.445932 
L 401.238539 -679.871919 
L 398.217824 -674.218116 
L 395.19711 -677.501436 
L 392.176395 -679.808193 
L 389.15568 -682.868275 
L 386.134966 -687.964788 
L 383.114251 -690.233336 
L 380.093536 -685.777594 
L 377.072822 -679.31932 
L 374.052107 -678.789801 
L 371.031392 -679.888011 
L 368.010678 -680.130829 
L 364.989963 -681.721282 
L 361.969248 -683.949023 
L 358.948534 -679.542071 
L 355.927819 -670.742911 
L 352.907104 -663.419732 
L 349.88639 -659.918386 
L 346.865675 -649.889746 
L 343.84496 -629.297632 
L 340.824246 -608.224065 
L 337.803531 -589.341121 
L 334.782816 -567.111048 
L 331.762102 -543.513553 
L 328.741387 -522.282215 
L 325.720672 -499.879401 
L 322.699958 -477.908003 
L 319.679243 -454.824822 
L 316.658528 -432.374371 
L 313.637814 -414.746932 
L 310.617099 -401.690002 
L 307.596384 -393.596955 
L 304.57567 -389.45355 
L 301.554955 -381.34212 
L 298.534241 -365.793393 
L 295.513526 -346.688309 
L 292.492811 -331.006528 
L 289.472097 -315.805966 
L 286.451382 -298.154799 
L 283.430667 -280.703966 
L 280.409953 -265.219134 
L 277.389238 -255.131858 
L 274.368523 -247.541477 
L 271.347809 -237.490105 
L 268.327094 -226.274016 
L 265.306379 -217.69562 
L 262.285665 -209.53978 
L 259.26495 -201.201503 
L 256.244235 -193.640757 
L 253.223521 -187.213536 
L 250.202806 -183.357717 
L 247.182091 -180.452544 
L 244.161377 -175.439459 
L 241.140662 -167.334944 
L 238.119947 -157.751915 
L 235.099233 -148.132389 
L 232.078518 -140.451578 
L 229.057803 -134.649551 
L 226.037089 -129.388344 
L 223.016374 -124.62767 
L 219.995659 -120.950591 
L 216.974945 -117.577584 
L 213.95423 -114.004322 
L 210.933515 -110.676628 
L 207.912801 -108.499925 
L 204.892086 -108.657326 
L 201.871371 -109.026278 
L 198.850657 -107.689498 
L 195.829942 -104.759774 
L 192.809227 -101.450737 
L 189.788513 -98.917825 
L 186.767798 -97.504669 
L 183.747084 -97.166165 
L 180.726369 -97.893694 
L 177.705654 -98.563478 
L 174.68494 -97.661503 
L 171.664225 -96.420943 
L 168.64351 -95.811266 
L 165.622796 -95.694955 
L 162.602081 -96.029114 
L 159.581366 -96.069573 
L 156.560652 -95.522086 
L 153.539937 -95.143944 
L 150.519222 -95.053536 
L 147.498508 -95.04172 
L 144.477793 -95.040469 
L 141.457078 -95.040088 
L 138.436364 -95.040005 
z
" style="stroke: #0000ff; stroke-width: 3"/>
    </defs>
    <g clip-path="url(#p68f2e0a007)">
     <use xlink:href="#mad4fe85aca" x="0" y="864" style="fill: #0000ff; fill-opacity: 0.25; stroke: #0000ff; stroke-width: 3"/>
    </g>
   </g>
   <g id="PolyCollection_2">
    <defs>
     <path id="mf95dcc6c65" d="M 140.945505 -95.040006 
L 140.945505 -95.04 
L 143.962652 -95.04 
L 146.979798 -95.04 
L 149.996945 -95.04 
L 153.014092 -95.04 
L 156.031238 -95.04 
L 159.048385 -95.04 
L 162.065531 -95.04 
L 165.082678 -95.04 
L 168.099824 -95.04 
L 171.116971 -95.04 
L 174.134117 -95.04 
L 177.151264 -95.04 
L 180.168411 -95.04 
L 183.185557 -95.04 
L 186.202704 -95.04 
L 189.21985 -95.04 
L 192.236997 -95.04 
L 195.254143 -95.04 
L 198.27129 -95.04 
L 201.288436 -95.04 
L 204.305583 -95.04 
L 207.32273 -95.04 
L 210.339876 -95.04 
L 213.357023 -95.04 
L 216.374169 -95.04 
L 219.391316 -95.04 
L 222.408462 -95.04 
L 225.425609 -95.04 
L 228.442756 -95.04 
L 231.459902 -95.04 
L 234.477049 -95.04 
L 237.494195 -95.04 
L 240.511342 -95.04 
L 243.528488 -95.04 
L 246.545635 -95.04 
L 249.562781 -95.04 
L 252.579928 -95.04 
L 255.597075 -95.04 
L 258.614221 -95.04 
L 261.631368 -95.04 
L 264.648514 -95.04 
L 267.665661 -95.04 
L 270.682807 -95.04 
L 273.699954 -95.04 
L 276.7171 -95.04 
L 279.734247 -95.04 
L 282.751394 -95.04 
L 285.76854 -95.04 
L 288.785687 -95.04 
L 291.802833 -95.04 
L 294.81998 -95.04 
L 297.837126 -95.04 
L 300.854273 -95.04 
L 303.871419 -95.04 
L 306.888566 -95.04 
L 309.905713 -95.04 
L 312.922859 -95.04 
L 315.940006 -95.04 
L 318.957152 -95.04 
L 321.974299 -95.04 
L 324.991445 -95.04 
L 328.008592 -95.04 
L 331.025739 -95.04 
L 334.042885 -95.04 
L 337.060032 -95.04 
L 340.077178 -95.04 
L 343.094325 -95.04 
L 346.111471 -95.04 
L 349.128618 -95.04 
L 352.145764 -95.04 
L 355.162911 -95.04 
L 358.180058 -95.04 
L 361.197204 -95.04 
L 364.214351 -95.04 
L 367.231497 -95.04 
L 370.248644 -95.04 
L 373.26579 -95.04 
L 376.282937 -95.04 
L 379.300083 -95.04 
L 382.31723 -95.04 
L 385.334377 -95.04 
L 388.351523 -95.04 
L 391.36867 -95.04 
L 394.385816 -95.04 
L 397.402963 -95.04 
L 400.420109 -95.04 
L 403.437256 -95.04 
L 406.454403 -95.04 
L 409.471549 -95.04 
L 412.488696 -95.04 
L 415.505842 -95.04 
L 418.522989 -95.04 
L 421.540135 -95.04 
L 424.557282 -95.04 
L 427.574428 -95.04 
L 430.591575 -95.04 
L 433.608722 -95.04 
L 436.625868 -95.04 
L 439.643015 -95.04 
L 442.660161 -95.04 
L 445.677308 -95.04 
L 448.694454 -95.04 
L 451.711601 -95.04 
L 454.728747 -95.04 
L 457.745894 -95.04 
L 460.763041 -95.04 
L 463.780187 -95.04 
L 466.797334 -95.04 
L 469.81448 -95.04 
L 472.831627 -95.04 
L 475.848773 -95.04 
L 478.86592 -95.04 
L 481.883067 -95.04 
L 484.900213 -95.04 
L 487.91736 -95.04 
L 490.934506 -95.04 
L 493.951653 -95.04 
L 496.968799 -95.04 
L 499.985946 -95.04 
L 503.003092 -95.04 
L 506.020239 -95.04 
L 509.037386 -95.04 
L 512.054532 -95.04 
L 515.071679 -95.04 
L 518.088825 -95.04 
L 521.105972 -95.04 
L 524.123118 -95.04 
L 527.140265 -95.04 
L 530.157411 -95.04 
L 533.174558 -95.04 
L 536.191705 -95.04 
L 539.208851 -95.04 
L 542.225998 -95.04 
L 545.243144 -95.04 
L 548.260291 -95.04 
L 551.277437 -95.04 
L 554.294584 -95.04 
L 557.311731 -95.04 
L 560.328877 -95.04 
L 563.346024 -95.04 
L 566.36317 -95.04 
L 569.380317 -95.04 
L 572.397463 -95.04 
L 575.41461 -95.04 
L 578.431756 -95.04 
L 581.448903 -95.04 
L 584.46605 -95.04 
L 587.483196 -95.04 
L 590.500343 -95.04 
L 593.517489 -95.04 
L 596.534636 -95.04 
L 599.551782 -95.04 
L 602.568929 -95.04 
L 605.586075 -95.04 
L 608.603222 -95.04 
L 611.620369 -95.04 
L 614.637515 -95.04 
L 617.654662 -95.04 
L 620.671808 -95.04 
L 623.688955 -95.04 
L 626.706101 -95.04 
L 629.723248 -95.04 
L 632.740395 -95.04 
L 635.757541 -95.04 
L 638.774688 -95.04 
L 641.791834 -95.04 
L 644.808981 -95.04 
L 647.826127 -95.04 
L 650.843274 -95.04 
L 653.86042 -95.04 
L 656.877567 -95.04 
L 659.894714 -95.04 
L 662.91186 -95.04 
L 665.929007 -95.04 
L 668.946153 -95.04 
L 671.9633 -95.04 
L 674.980446 -95.04 
L 677.997593 -95.04 
L 681.014739 -95.04 
L 684.031886 -95.04 
L 687.049033 -95.04 
L 690.066179 -95.04 
L 693.083326 -95.04 
L 696.100472 -95.04 
L 699.117619 -95.04 
L 702.134765 -95.04 
L 705.151912 -95.04 
L 708.169059 -95.04 
L 711.186205 -95.04 
L 714.203352 -95.04 
L 717.220498 -95.04 
L 720.237645 -95.04 
L 723.254791 -95.04 
L 726.271938 -95.04 
L 729.289084 -95.04 
L 732.306231 -95.04 
L 735.323378 -95.04 
L 738.340524 -95.04 
L 741.357671 -95.04 
L 741.357671 -95.137317 
L 741.357671 -95.137317 
L 738.340524 -97.613495 
L 735.323378 -104.020519 
L 732.306231 -100.064811 
L 729.289084 -96.910171 
L 726.271938 -96.816551 
L 723.254791 -97.175627 
L 720.237645 -97.786081 
L 717.220498 -98.293319 
L 714.203352 -98.96749 
L 711.186205 -99.762677 
L 708.169059 -100.202323 
L 705.151912 -100.503641 
L 702.134765 -100.521409 
L 699.117619 -101.081321 
L 696.100472 -102.215373 
L 693.083326 -103.541336 
L 690.066179 -104.354935 
L 687.049033 -104.979906 
L 684.031886 -105.447193 
L 681.014739 -106.509459 
L 677.997593 -107.647873 
L 674.980446 -109.388157 
L 671.9633 -111.826658 
L 668.946153 -113.493308 
L 665.929007 -115.216357 
L 662.91186 -116.385845 
L 659.894714 -117.528251 
L 656.877567 -119.544912 
L 653.86042 -120.917565 
L 650.843274 -121.532135 
L 647.826127 -122.098529 
L 644.808981 -123.146862 
L 641.791834 -124.461798 
L 638.774688 -125.715281 
L 635.757541 -127.253077 
L 632.740395 -129.708387 
L 629.723248 -132.228851 
L 626.706101 -134.00621 
L 623.688955 -135.207058 
L 620.671808 -136.994989 
L 617.654662 -139.127535 
L 614.637515 -140.249954 
L 611.620369 -139.684427 
L 608.603222 -139.225198 
L 605.586075 -139.862206 
L 602.568929 -141.530568 
L 599.551782 -143.562649 
L 596.534636 -146.877586 
L 593.517489 -149.183106 
L 590.500343 -150.203983 
L 587.483196 -150.868581 
L 584.46605 -151.206787 
L 581.448903 -153.150809 
L 578.431756 -155.271296 
L 575.41461 -155.643144 
L 572.397463 -157.445273 
L 569.380317 -160.106506 
L 566.36317 -162.131148 
L 563.346024 -164.176798 
L 560.328877 -168.5176 
L 557.311731 -171.321578 
L 554.294584 -170.572924 
L 551.277437 -170.6802 
L 548.260291 -171.496864 
L 545.243144 -172.905589 
L 542.225998 -175.170951 
L 539.208851 -178.291101 
L 536.191705 -182.798647 
L 533.174558 -187.918042 
L 530.157411 -191.415253 
L 527.140265 -191.13592 
L 524.123118 -190.439737 
L 521.105972 -192.044379 
L 518.088825 -191.510207 
L 515.071679 -189.379933 
L 512.054532 -189.005398 
L 509.037386 -188.538861 
L 506.020239 -187.763041 
L 503.003092 -187.768657 
L 499.985946 -189.161511 
L 496.968799 -190.11425 
L 493.951653 -190.653875 
L 490.934506 -198.006915 
L 487.91736 -209.786151 
L 484.900213 -219.154598 
L 481.883067 -229.615858 
L 478.86592 -242.794312 
L 475.848773 -261.055986 
L 472.831627 -279.096917 
L 469.81448 -297.769862 
L 466.797334 -312.271538 
L 463.780187 -322.404418 
L 460.763041 -336.285361 
L 457.745894 -352.004819 
L 454.728747 -376.092546 
L 451.711601 -404.852418 
L 448.694454 -435.4126 
L 445.677308 -468.411866 
L 442.660161 -499.547807 
L 439.643015 -527.203947 
L 436.625868 -547.072245 
L 433.608722 -559.67564 
L 430.591575 -574.963359 
L 427.574428 -592.76068 
L 424.557282 -606.204097 
L 421.540135 -624.175912 
L 418.522989 -640.722863 
L 415.505842 -650.153091 
L 412.488696 -661.683616 
L 409.471549 -677.996462 
L 406.454403 -682.920898 
L 403.437256 -681.809061 
L 400.420109 -683.819475 
L 397.402963 -691.172904 
L 394.385816 -698.34657 
L 391.36867 -704.114397 
L 388.351523 -714.138674 
L 385.334377 -712.628319 
L 382.31723 -705.455182 
L 379.300083 -703.142883 
L 376.282937 -706.443257 
L 373.26579 -710.92428 
L 370.248644 -717.16818 
L 367.231497 -722.020428 
L 364.214351 -728.64 
L 361.197204 -728.437496 
L 358.180058 -720.771347 
L 355.162911 -709.442927 
L 352.145764 -690.338501 
L 349.128618 -674.404287 
L 346.111471 -656.778054 
L 343.094325 -636.696923 
L 340.077178 -621.275466 
L 337.060032 -603.909008 
L 334.042885 -582.022402 
L 331.025739 -559.722024 
L 328.008592 -535.719652 
L 324.991445 -511.616221 
L 321.974299 -490.538389 
L 318.957152 -471.87772 
L 315.940006 -455.508298 
L 312.922859 -436.994478 
L 309.905713 -424.987461 
L 306.888566 -416.495637 
L 303.871419 -401.699619 
L 300.854273 -383.654806 
L 297.837126 -364.303683 
L 294.81998 -344.838293 
L 291.802833 -325.962154 
L 288.785687 -308.445053 
L 285.76854 -294.287181 
L 282.751394 -280.126169 
L 279.734247 -266.765028 
L 276.7171 -256.838475 
L 273.699954 -247.075358 
L 270.682807 -236.142185 
L 267.665661 -225.845097 
L 264.648514 -216.796129 
L 261.631368 -208.073358 
L 258.614221 -199.27833 
L 255.597075 -190.515184 
L 252.579928 -179.76942 
L 249.562781 -168.966111 
L 246.545635 -159.035161 
L 243.528488 -151.532305 
L 240.511342 -145.44039 
L 237.494195 -138.680505 
L 234.477049 -131.654139 
L 231.459902 -126.802905 
L 228.442756 -122.238847 
L 225.425609 -117.495631 
L 222.408462 -113.205986 
L 219.391316 -110.083896 
L 216.374169 -107.02654 
L 213.357023 -104.177239 
L 210.339876 -102.131658 
L 207.32273 -101.150923 
L 204.305583 -101.780862 
L 201.288436 -102.670368 
L 198.27129 -101.875271 
L 195.254143 -100.165166 
L 192.236997 -98.406865 
L 189.21985 -97.137258 
L 186.202704 -96.508737 
L 183.185557 -96.246545 
L 180.168411 -95.978734 
L 177.151264 -95.79194 
L 174.134117 -95.563303 
L 171.116971 -95.430361 
L 168.099824 -95.423665 
L 165.082678 -95.766622 
L 162.065531 -96.83325 
L 159.048385 -96.999988 
L 156.031238 -95.742485 
L 153.014092 -95.153133 
L 149.996945 -95.056125 
L 146.979798 -95.042337 
L 143.962652 -95.040228 
L 140.945505 -95.040006 
z
" style="stroke: #ff0000; stroke-width: 3"/>
    </defs>
    <g clip-path="url(#p68f2e0a007)">
     <use xlink:href="#mf95dcc6c65" x="0" y="864" style="fill: #ff0000; fill-opacity: 0.25; stroke: #ff0000; stroke-width: 3"/>
    </g>
   </g>
   <g id="PolyCollection_3">
    <defs>
     <path id="m6de2d4a394" d="M 142.343811 -95.040029 
L 142.343811 -95.04 
L 145.383107 -95.04 
L 148.422403 -95.04 
L 151.461698 -95.04 
L 154.500994 -95.04 
L 157.540289 -95.04 
L 160.579585 -95.04 
L 163.618881 -95.04 
L 166.658176 -95.04 
L 169.697472 -95.04 
L 172.736768 -95.04 
L 175.776063 -95.04 
L 178.815359 -95.04 
L 181.854654 -95.04 
L 184.89395 -95.04 
L 187.933246 -95.04 
L 190.972541 -95.04 
L 194.011837 -95.04 
L 197.051132 -95.04 
L 200.090428 -95.04 
L 203.129724 -95.04 
L 206.169019 -95.04 
L 209.208315 -95.04 
L 212.24761 -95.04 
L 215.286906 -95.04 
L 218.326202 -95.04 
L 221.365497 -95.04 
L 224.404793 -95.04 
L 227.444088 -95.04 
L 230.483384 -95.04 
L 233.52268 -95.04 
L 236.561975 -95.04 
L 239.601271 -95.04 
L 242.640566 -95.04 
L 245.679862 -95.04 
L 248.719158 -95.04 
L 251.758453 -95.04 
L 254.797749 -95.04 
L 257.837044 -95.04 
L 260.87634 -95.04 
L 263.915636 -95.04 
L 266.954931 -95.04 
L 269.994227 -95.04 
L 273.033522 -95.04 
L 276.072818 -95.04 
L 279.112114 -95.04 
L 282.151409 -95.04 
L 285.190705 -95.04 
L 288.23 -95.04 
L 291.269296 -95.04 
L 294.308592 -95.04 
L 297.347887 -95.04 
L 300.387183 -95.04 
L 303.426478 -95.04 
L 306.465774 -95.04 
L 309.50507 -95.04 
L 312.544365 -95.04 
L 315.583661 -95.04 
L 318.622956 -95.04 
L 321.662252 -95.04 
L 324.701548 -95.04 
L 327.740843 -95.04 
L 330.780139 -95.04 
L 333.819434 -95.04 
L 336.85873 -95.04 
L 339.898026 -95.04 
L 342.937321 -95.04 
L 345.976617 -95.04 
L 349.015912 -95.04 
L 352.055208 -95.04 
L 355.094504 -95.04 
L 358.133799 -95.04 
L 361.173095 -95.04 
L 364.21239 -95.04 
L 367.251686 -95.04 
L 370.290982 -95.04 
L 373.330277 -95.04 
L 376.369573 -95.04 
L 379.408868 -95.04 
L 382.448164 -95.04 
L 385.48746 -95.04 
L 388.526755 -95.04 
L 391.566051 -95.04 
L 394.605346 -95.04 
L 397.644642 -95.04 
L 400.683938 -95.04 
L 403.723233 -95.04 
L 406.762529 -95.04 
L 409.801824 -95.04 
L 412.84112 -95.04 
L 415.880416 -95.04 
L 418.919711 -95.04 
L 421.959007 -95.04 
L 424.998303 -95.04 
L 428.037598 -95.04 
L 431.076894 -95.04 
L 434.116189 -95.04 
L 437.155485 -95.04 
L 440.194781 -95.04 
L 443.234076 -95.04 
L 446.273372 -95.04 
L 449.312667 -95.04 
L 452.351963 -95.04 
L 455.391259 -95.04 
L 458.430554 -95.04 
L 461.46985 -95.04 
L 464.509145 -95.04 
L 467.548441 -95.04 
L 470.587737 -95.04 
L 473.627032 -95.04 
L 476.666328 -95.04 
L 479.705623 -95.04 
L 482.744919 -95.04 
L 485.784215 -95.04 
L 488.82351 -95.04 
L 491.862806 -95.04 
L 494.902101 -95.04 
L 497.941397 -95.04 
L 500.980693 -95.04 
L 504.019988 -95.04 
L 507.059284 -95.04 
L 510.098579 -95.04 
L 513.137875 -95.04 
L 516.177171 -95.04 
L 519.216466 -95.04 
L 522.255762 -95.04 
L 525.295057 -95.04 
L 528.334353 -95.04 
L 531.373649 -95.04 
L 534.412944 -95.04 
L 537.45224 -95.04 
L 540.491535 -95.04 
L 543.530831 -95.04 
L 546.570127 -95.04 
L 549.609422 -95.04 
L 552.648718 -95.04 
L 555.688013 -95.04 
L 558.727309 -95.04 
L 561.766605 -95.04 
L 564.8059 -95.04 
L 567.845196 -95.04 
L 570.884491 -95.04 
L 573.923787 -95.04 
L 576.963083 -95.04 
L 580.002378 -95.04 
L 583.041674 -95.04 
L 586.080969 -95.04 
L 589.120265 -95.04 
L 592.159561 -95.04 
L 595.198856 -95.04 
L 598.238152 -95.04 
L 601.277447 -95.04 
L 604.316743 -95.04 
L 607.356039 -95.04 
L 610.395334 -95.04 
L 613.43463 -95.04 
L 616.473925 -95.04 
L 619.513221 -95.04 
L 622.552517 -95.04 
L 625.591812 -95.04 
L 628.631108 -95.04 
L 631.670403 -95.04 
L 634.709699 -95.04 
L 637.748995 -95.04 
L 640.78829 -95.04 
L 643.827586 -95.04 
L 646.866881 -95.04 
L 649.906177 -95.04 
L 652.945473 -95.04 
L 655.984768 -95.04 
L 659.024064 -95.04 
L 662.063359 -95.04 
L 665.102655 -95.04 
L 668.141951 -95.04 
L 671.181246 -95.04 
L 674.220542 -95.04 
L 677.259838 -95.04 
L 680.299133 -95.04 
L 683.338429 -95.04 
L 686.377724 -95.04 
L 689.41702 -95.04 
L 692.456316 -95.04 
L 695.495611 -95.04 
L 698.534907 -95.04 
L 701.574202 -95.04 
L 704.613498 -95.04 
L 707.652794 -95.04 
L 710.692089 -95.04 
L 713.731385 -95.04 
L 716.77068 -95.04 
L 719.809976 -95.04 
L 722.849272 -95.04 
L 725.888567 -95.04 
L 728.927863 -95.04 
L 731.967158 -95.04 
L 735.006454 -95.04 
L 738.04575 -95.04 
L 741.085045 -95.04 
L 744.124341 -95.04 
L 747.163636 -95.04 
L 747.163636 -95.234023 
L 747.163636 -95.234023 
L 744.124341 -96.440152 
L 741.085045 -100.79408 
L 738.04575 -108.537737 
L 735.006454 -113.23891 
L 731.967158 -109.536012 
L 728.927863 -102.862764 
L 725.888567 -99.859535 
L 722.849272 -100.077153 
L 719.809976 -100.630599 
L 716.77068 -100.444749 
L 713.731385 -100.158462 
L 710.692089 -100.572599 
L 707.652794 -101.62125 
L 704.613498 -102.6614 
L 701.574202 -103.471045 
L 698.534907 -104.424139 
L 695.495611 -105.600469 
L 692.456316 -106.660435 
L 689.41702 -107.766468 
L 686.377724 -109.398321 
L 683.338429 -111.194511 
L 680.299133 -112.561736 
L 677.259838 -113.904707 
L 674.220542 -115.548984 
L 671.181246 -116.957545 
L 668.141951 -118.008417 
L 665.102655 -119.067856 
L 662.063359 -120.138584 
L 659.024064 -121.151024 
L 655.984768 -122.401315 
L 652.945473 -123.980716 
L 649.906177 -125.791105 
L 646.866881 -128.375901 
L 643.827586 -132.049331 
L 640.78829 -135.483599 
L 637.748995 -137.159907 
L 634.709699 -137.89113 
L 631.670403 -139.639291 
L 628.631108 -142.648071 
L 625.591812 -146.006194 
L 622.552517 -149.421888 
L 619.513221 -152.2179 
L 616.473925 -153.243427 
L 613.43463 -153.249058 
L 610.395334 -153.705604 
L 607.356039 -154.959314 
L 604.316743 -157.74715 
L 601.277447 -162.705037 
L 598.238152 -168.226285 
L 595.198856 -171.961468 
L 592.159561 -173.531243 
L 589.120265 -174.158252 
L 586.080969 -175.485092 
L 583.041674 -177.595958 
L 580.002378 -179.599277 
L 576.963083 -182.515866 
L 573.923787 -187.527904 
L 570.884491 -193.264944 
L 567.845196 -197.235825 
L 564.8059 -198.998073 
L 561.766605 -201.092796 
L 558.727309 -206.546045 
L 555.688013 -214.746648 
L 552.648718 -221.357701 
L 549.609422 -222.563786 
L 546.570127 -217.897279 
L 543.530831 -209.635066 
L 540.491535 -200.386434 
L 537.45224 -192.250924 
L 534.412944 -187.436546 
L 531.373649 -187.824944 
L 528.334353 -193.058558 
L 525.295057 -200.130063 
L 522.255762 -205.378117 
L 519.216466 -205.42508 
L 516.177171 -200.134748 
L 513.137875 -193.951555 
L 510.098579 -190.333275 
L 507.059284 -189.902141 
L 504.019988 -193.138585 
L 500.980693 -198.600152 
L 497.941397 -202.361912 
L 494.902101 -203.117561 
L 491.862806 -204.43107 
L 488.82351 -209.731188 
L 485.784215 -218.562537 
L 482.744919 -228.331982 
L 479.705623 -236.735245 
L 476.666328 -243.204236 
L 473.627032 -250.101331 
L 470.587737 -260.22227 
L 467.548441 -273.289907 
L 464.509145 -289.9051 
L 461.46985 -314.657456 
L 458.430554 -349.237714 
L 455.391259 -387.462856 
L 452.351963 -421.310451 
L 449.312667 -449.814696 
L 446.273372 -476.582565 
L 443.234076 -501.765466 
L 440.194781 -526.486302 
L 437.155485 -555.076495 
L 434.116189 -584.993895 
L 431.076894 -608.353322 
L 428.037598 -623.850071 
L 424.998303 -636.845831 
L 421.959007 -652.263107 
L 418.919711 -671.512044 
L 415.880416 -690.307749 
L 412.84112 -702.825763 
L 409.801824 -709.457147 
L 406.762529 -711.535812 
L 403.723233 -704.416099 
L 400.683938 -686.095969 
L 397.644642 -663.489907 
L 394.605346 -645.527386 
L 391.566051 -636.944367 
L 388.526755 -637.562515 
L 385.48746 -644.108671 
L 382.448164 -652.74437 
L 379.408868 -660.816304 
L 376.369573 -665.437906 
L 373.330277 -663.168741 
L 370.290982 -655.029396 
L 367.251686 -645.872021 
L 364.21239 -638.081437 
L 361.173095 -630.354734 
L 358.133799 -621.930743 
L 355.094504 -615.269194 
L 352.055208 -611.948026 
L 349.015912 -610.274657 
L 345.976617 -606.319113 
L 342.937321 -597.942611 
L 339.898026 -586.763417 
L 336.85873 -571.268496 
L 333.819434 -548.656628 
L 330.780139 -523.294387 
L 327.740843 -500.132153 
L 324.701548 -477.830334 
L 321.662252 -453.421414 
L 318.622956 -426.756456 
L 315.583661 -401.155111 
L 312.544365 -380.36558 
L 309.50507 -365.997252 
L 306.465774 -358.118776 
L 303.426478 -354.36391 
L 300.387183 -349.594224 
L 297.347887 -339.798132 
L 294.308592 -326.098633 
L 291.269296 -311.925578 
L 288.23 -297.818329 
L 285.190705 -282.60942 
L 282.151409 -267.849606 
L 279.112114 -257.308995 
L 276.072818 -251.081452 
L 273.033522 -244.365678 
L 269.994227 -234.066143 
L 266.954931 -222.174498 
L 263.915636 -211.597764 
L 260.87634 -203.063387 
L 257.837044 -196.697971 
L 254.797749 -193.429276 
L 251.758453 -193.814809 
L 248.719158 -196.3019 
L 245.679862 -197.291013 
L 242.640566 -193.232467 
L 239.601271 -183.459487 
L 236.561975 -170.590358 
L 233.52268 -158.07689 
L 230.483384 -148.086778 
L 227.444088 -140.904523 
L 224.404793 -135.724734 
L 221.365497 -131.773554 
L 218.326202 -128.301706 
L 215.286906 -124.794881 
L 212.24761 -121.399114 
L 209.208315 -118.535278 
L 206.169019 -116.603707 
L 203.129724 -115.221416 
L 200.090428 -113.190645 
L 197.051132 -109.959036 
L 194.011837 -106.051086 
L 190.972541 -102.37804 
L 187.933246 -99.794169 
L 184.89395 -98.802762 
L 181.854654 -99.178714 
L 178.815359 -99.808941 
L 175.776063 -99.487746 
L 172.736768 -98.187935 
L 169.697472 -96.816261 
L 166.658176 -95.923555 
L 163.618881 -95.464929 
L 160.579585 -95.250296 
L 157.540289 -95.14155 
L 154.500994 -95.079771 
L 151.461698 -95.051016 
L 148.422403 -95.042115 
L 145.383107 -95.040293 
L 142.343811 -95.040029 
z
" style="stroke: #008000; stroke-width: 3"/>
    </defs>
    <g clip-path="url(#p68f2e0a007)">
     <use xlink:href="#m6de2d4a394" x="0" y="864" style="fill: #008000; fill-opacity: 0.25; stroke: #008000; stroke-width: 3"/>
    </g>
   </g>
   <g id="matplotlib.axis_1">
    <g id="xtick_1">
     <g id="line2d_1">
      <defs>
       <path id="m4404e49e4f" d="M 0 0 
L 0 3.5 
" style="stroke: #000000; stroke-width: 0.8"/>
      </defs>
      <g>
       <use xlink:href="#m4404e49e4f" x="140.13698" y="768.96" style="stroke: #000000; stroke-width: 0.8"/>
      </g>
     </g>
     <g id="text_1">
      <!-- 0.0 -->
      <g transform="translate(132.185418 783.558437)scale(0.1 -0.1)">
       <defs>
        <path id="DejaVuSans-30" d="M 2034 4250 
Q 1547 4250 1301 3770 
Q 1056 3291 1056 2328 
Q 1056 1369 1301 889 
Q 1547 409 2034 409 
Q 2525 409 2770 889 
Q 3016 1369 3016 2328 
Q 3016 3291 2770 3770 
Q 2525 4250 2034 4250 
z
M 2034 4750 
Q 2819 4750 3233 4129 
Q 3647 3509 3647 2328 
Q 3647 1150 3233 529 
Q 2819 -91 2034 -91 
Q 1250 -91 836 529 
Q 422 1150 422 2328 
Q 422 3509 836 4129 
Q 1250 4750 2034 4750 
z
" transform="scale(0.015625)"/>
        <path id="DejaVuSans-2e" d="M 684 794 
L 1344 794 
L 1344 0 
L 684 0 
L 684 794 
z
" transform="scale(0.015625)"/>
       </defs>
       <use xlink:href="#DejaVuSans-30"/>
       <use xlink:href="#DejaVuSans-2e" x="63.623047"/>
       <use xlink:href="#DejaVuSans-30" x="95.410156"/>
      </g>
     </g>
    </g>
    <g id="xtick_2">
     <g id="line2d_2">
      <g>
       <use xlink:href="#m4404e49e4f" x="259.116697" y="768.96" style="stroke: #000000; stroke-width: 0.8"/>
      </g>
     </g>
     <g id="text_2">
      <!-- 0.2 -->
      <g transform="translate(251.165134 783.558437)scale(0.1 -0.1)">
       <defs>
        <path id="DejaVuSans-32" d="M 1228 531 
L 3431 531 
L 3431 0 
L 469 0 
L 469 531 
Q 828 903 1448 1529 
Q 2069 2156 2228 2338 
Q 2531 2678 2651 2914 
Q 2772 3150 2772 3378 
Q 2772 3750 2511 3984 
Q 2250 4219 1831 4219 
Q 1534 4219 1204 4116 
Q 875 4013 500 3803 
L 500 4441 
Q 881 4594 1212 4672 
Q 1544 4750 1819 4750 
Q 2544 4750 2975 4387 
Q 3406 4025 3406 3419 
Q 3406 3131 3298 2873 
Q 3191 2616 2906 2266 
Q 2828 2175 2409 1742 
Q 1991 1309 1228 531 
z
" transform="scale(0.015625)"/>
       </defs>
       <use xlink:href="#DejaVuSans-30"/>
       <use xlink:href="#DejaVuSans-2e" x="63.623047"/>
       <use xlink:href="#DejaVuSans-32" x="95.410156"/>
      </g>
     </g>
    </g>
    <g id="xtick_3">
     <g id="line2d_3">
      <g>
       <use xlink:href="#m4404e49e4f" x="378.096413" y="768.96" style="stroke: #000000; stroke-width: 0.8"/>
      </g>
     </g>
     <g id="text_3">
      <!-- 0.4 -->
      <g transform="translate(370.14485 783.558437)scale(0.1 -0.1)">
       <defs>
        <path id="DejaVuSans-34" d="M 2419 4116 
L 825 1625 
L 2419 1625 
L 2419 4116 
z
M 2253 4666 
L 3047 4666 
L 3047 1625 
L 3713 1625 
L 3713 1100 
L 3047 1100 
L 3047 0 
L 2419 0 
L 2419 1100 
L 313 1100 
L 313 1709 
L 2253 4666 
z
" transform="scale(0.015625)"/>
       </defs>
       <use xlink:href="#DejaVuSans-30"/>
       <use xlink:href="#DejaVuSans-2e" x="63.623047"/>
       <use xlink:href="#DejaVuSans-34" x="95.410156"/>
      </g>
     </g>
    </g>
    <g id="xtick_4">
     <g id="line2d_4">
      <g>
       <use xlink:href="#m4404e49e4f" x="497.076129" y="768.96" style="stroke: #000000; stroke-width: 0.8"/>
      </g>
     </g>
     <g id="text_4">
      <!-- 0.6 -->
      <g transform="translate(489.124567 783.558437)scale(0.1 -0.1)">
       <defs>
        <path id="DejaVuSans-36" d="M 2113 2584 
Q 1688 2584 1439 2293 
Q 1191 2003 1191 1497 
Q 1191 994 1439 701 
Q 1688 409 2113 409 
Q 2538 409 2786 701 
Q 3034 994 3034 1497 
Q 3034 2003 2786 2293 
Q 2538 2584 2113 2584 
z
M 3366 4563 
L 3366 3988 
Q 3128 4100 2886 4159 
Q 2644 4219 2406 4219 
Q 1781 4219 1451 3797 
Q 1122 3375 1075 2522 
Q 1259 2794 1537 2939 
Q 1816 3084 2150 3084 
Q 2853 3084 3261 2657 
Q 3669 2231 3669 1497 
Q 3669 778 3244 343 
Q 2819 -91 2113 -91 
Q 1303 -91 875 529 
Q 447 1150 447 2328 
Q 447 3434 972 4092 
Q 1497 4750 2381 4750 
Q 2619 4750 2861 4703 
Q 3103 4656 3366 4563 
z
" transform="scale(0.015625)"/>
       </defs>
       <use xlink:href="#DejaVuSans-30"/>
       <use xlink:href="#DejaVuSans-2e" x="63.623047"/>
       <use xlink:href="#DejaVuSans-36" x="95.410156"/>
      </g>
     </g>
    </g>
    <g id="xtick_5">
     <g id="line2d_5">
      <g>
       <use xlink:href="#m4404e49e4f" x="616.055846" y="768.96" style="stroke: #000000; stroke-width: 0.8"/>
      </g>
     </g>
     <g id="text_5">
      <!-- 0.8 -->
      <g transform="translate(608.104283 783.558437)scale(0.1 -0.1)">
       <defs>
        <path id="DejaVuSans-38" d="M 2034 2216 
Q 1584 2216 1326 1975 
Q 1069 1734 1069 1313 
Q 1069 891 1326 650 
Q 1584 409 2034 409 
Q 2484 409 2743 651 
Q 3003 894 3003 1313 
Q 3003 1734 2745 1975 
Q 2488 2216 2034 2216 
z
M 1403 2484 
Q 997 2584 770 2862 
Q 544 3141 544 3541 
Q 544 4100 942 4425 
Q 1341 4750 2034 4750 
Q 2731 4750 3128 4425 
Q 3525 4100 3525 3541 
Q 3525 3141 3298 2862 
Q 3072 2584 2669 2484 
Q 3125 2378 3379 2068 
Q 3634 1759 3634 1313 
Q 3634 634 3220 271 
Q 2806 -91 2034 -91 
Q 1263 -91 848 271 
Q 434 634 434 1313 
Q 434 1759 690 2068 
Q 947 2378 1403 2484 
z
M 1172 3481 
Q 1172 3119 1398 2916 
Q 1625 2713 2034 2713 
Q 2441 2713 2670 2916 
Q 2900 3119 2900 3481 
Q 2900 3844 2670 4047 
Q 2441 4250 2034 4250 
Q 1625 4250 1398 4047 
Q 1172 3844 1172 3481 
z
" transform="scale(0.015625)"/>
       </defs>
       <use xlink:href="#DejaVuSans-30"/>
       <use xlink:href="#DejaVuSans-2e" x="63.623047"/>
       <use xlink:href="#DejaVuSans-38" x="95.410156"/>
      </g>
     </g>
    </g>
    <g id="xtick_6">
     <g id="line2d_6">
      <g>
       <use xlink:href="#m4404e49e4f" x="735.035562" y="768.96" style="stroke: #000000; stroke-width: 0.8"/>
      </g>
     </g>
     <g id="text_6">
      <!-- 1.0 -->
      <g transform="translate(727.084 783.558437)scale(0.1 -0.1)">
       <defs>
        <path id="DejaVuSans-31" d="M 794 531 
L 1825 531 
L 1825 4091 
L 703 3866 
L 703 4441 
L 1819 4666 
L 2450 4666 
L 2450 531 
L 3481 531 
L 3481 0 
L 794 0 
L 794 531 
z
" transform="scale(0.015625)"/>
       </defs>
       <use xlink:href="#DejaVuSans-31"/>
       <use xlink:href="#DejaVuSans-2e" x="63.623047"/>
       <use xlink:href="#DejaVuSans-30" x="95.410156"/>
      </g>
     </g>
    </g>
    <g id="text_7">
     <!-- Similarity -->
     <g transform="translate(404.97625 801.795625)scale(0.16 -0.16)">
      <defs>
       <path id="DejaVuSans-53" d="M 3425 4513 
L 3425 3897 
Q 3066 4069 2747 4153 
Q 2428 4238 2131 4238 
Q 1616 4238 1336 4038 
Q 1056 3838 1056 3469 
Q 1056 3159 1242 3001 
Q 1428 2844 1947 2747 
L 2328 2669 
Q 3034 2534 3370 2195 
Q 3706 1856 3706 1288 
Q 3706 609 3251 259 
Q 2797 -91 1919 -91 
Q 1588 -91 1214 -16 
Q 841 59 441 206 
L 441 856 
Q 825 641 1194 531 
Q 1563 422 1919 422 
Q 2459 422 2753 634 
Q 3047 847 3047 1241 
Q 3047 1584 2836 1778 
Q 2625 1972 2144 2069 
L 1759 2144 
Q 1053 2284 737 2584 
Q 422 2884 422 3419 
Q 422 4038 858 4394 
Q 1294 4750 2059 4750 
Q 2388 4750 2728 4690 
Q 3069 4631 3425 4513 
z
" transform="scale(0.015625)"/>
       <path id="DejaVuSans-69" d="M 603 3500 
L 1178 3500 
L 1178 0 
L 603 0 
L 603 3500 
z
M 603 4863 
L 1178 4863 
L 1178 4134 
L 603 4134 
L 603 4863 
z
" transform="scale(0.015625)"/>
       <path id="DejaVuSans-6d" d="M 3328 2828 
Q 3544 3216 3844 3400 
Q 4144 3584 4550 3584 
Q 5097 3584 5394 3201 
Q 5691 2819 5691 2113 
L 5691 0 
L 5113 0 
L 5113 2094 
Q 5113 2597 4934 2840 
Q 4756 3084 4391 3084 
Q 3944 3084 3684 2787 
Q 3425 2491 3425 1978 
L 3425 0 
L 2847 0 
L 2847 2094 
Q 2847 2600 2669 2842 
Q 2491 3084 2119 3084 
Q 1678 3084 1418 2786 
Q 1159 2488 1159 1978 
L 1159 0 
L 581 0 
L 581 3500 
L 1159 3500 
L 1159 2956 
Q 1356 3278 1631 3431 
Q 1906 3584 2284 3584 
Q 2666 3584 2933 3390 
Q 3200 3197 3328 2828 
z
" transform="scale(0.015625)"/>
       <path id="DejaVuSans-6c" d="M 603 4863 
L 1178 4863 
L 1178 0 
L 603 0 
L 603 4863 
z
" transform="scale(0.015625)"/>
       <path id="DejaVuSans-61" d="M 2194 1759 
Q 1497 1759 1228 1600 
Q 959 1441 959 1056 
Q 959 750 1161 570 
Q 1363 391 1709 391 
Q 2188 391 2477 730 
Q 2766 1069 2766 1631 
L 2766 1759 
L 2194 1759 
z
M 3341 1997 
L 3341 0 
L 2766 0 
L 2766 531 
Q 2569 213 2275 61 
Q 1981 -91 1556 -91 
Q 1019 -91 701 211 
Q 384 513 384 1019 
Q 384 1609 779 1909 
Q 1175 2209 1959 2209 
L 2766 2209 
L 2766 2266 
Q 2766 2663 2505 2880 
Q 2244 3097 1772 3097 
Q 1472 3097 1187 3025 
Q 903 2953 641 2809 
L 641 3341 
Q 956 3463 1253 3523 
Q 1550 3584 1831 3584 
Q 2591 3584 2966 3190 
Q 3341 2797 3341 1997 
z
" transform="scale(0.015625)"/>
       <path id="DejaVuSans-72" d="M 2631 2963 
Q 2534 3019 2420 3045 
Q 2306 3072 2169 3072 
Q 1681 3072 1420 2755 
Q 1159 2438 1159 1844 
L 1159 0 
L 581 0 
L 581 3500 
L 1159 3500 
L 1159 2956 
Q 1341 3275 1631 3429 
Q 1922 3584 2338 3584 
Q 2397 3584 2469 3576 
Q 2541 3569 2628 3553 
L 2631 2963 
z
" transform="scale(0.015625)"/>
       <path id="DejaVuSans-74" d="M 1172 4494 
L 1172 3500 
L 2356 3500 
L 2356 3053 
L 1172 3053 
L 1172 1153 
Q 1172 725 1289 603 
Q 1406 481 1766 481 
L 2356 481 
L 2356 0 
L 1766 0 
Q 1100 0 847 248 
Q 594 497 594 1153 
L 594 3053 
L 172 3053 
L 172 3500 
L 594 3500 
L 594 4494 
L 1172 4494 
z
" transform="scale(0.015625)"/>
       <path id="DejaVuSans-79" d="M 2059 -325 
Q 1816 -950 1584 -1140 
Q 1353 -1331 966 -1331 
L 506 -1331 
L 506 -850 
L 844 -850 
Q 1081 -850 1212 -737 
Q 1344 -625 1503 -206 
L 1606 56 
L 191 3500 
L 800 3500 
L 1894 763 
L 2988 3500 
L 3597 3500 
L 2059 -325 
z
" transform="scale(0.015625)"/>
      </defs>
      <use xlink:href="#DejaVuSans-53"/>
      <use xlink:href="#DejaVuSans-69" x="63.476562"/>
      <use xlink:href="#DejaVuSans-6d" x="91.259766"/>
      <use xlink:href="#DejaVuSans-69" x="188.671875"/>
      <use xlink:href="#DejaVuSans-6c" x="216.455078"/>
      <use xlink:href="#DejaVuSans-61" x="244.238281"/>
      <use xlink:href="#DejaVuSans-72" x="305.517578"/>
      <use xlink:href="#DejaVuSans-69" x="346.630859"/>
      <use xlink:href="#DejaVuSans-74" x="374.414062"/>
      <use xlink:href="#DejaVuSans-79" x="413.623047"/>
     </g>
    </g>
   </g>
   <g id="matplotlib.axis_2">
    <g id="ytick_1">
     <g id="line2d_7">
      <defs>
       <path id="m2bfdfcbd26" d="M 0 0 
L -3.5 0 
" style="stroke: #000000; stroke-width: 0.8"/>
      </defs>
      <g>
       <use xlink:href="#m2bfdfcbd26" x="108" y="768.96" style="stroke: #000000; stroke-width: 0.8"/>
      </g>
     </g>
     <g id="text_8">
      <!-- 0.0 -->
      <g transform="translate(85.096875 772.759219)scale(0.1 -0.1)">
       <use xlink:href="#DejaVuSans-30"/>
       <use xlink:href="#DejaVuSans-2e" x="63.623047"/>
       <use xlink:href="#DejaVuSans-30" x="95.410156"/>
      </g>
     </g>
    </g>
    <g id="ytick_2">
     <g id="line2d_8">
      <g>
       <use xlink:href="#m2bfdfcbd26" x="108" y="679.780606" style="stroke: #000000; stroke-width: 0.8"/>
      </g>
     </g>
     <g id="text_9">
      <!-- 0.5 -->
      <g transform="translate(85.096875 683.579825)scale(0.1 -0.1)">
       <defs>
        <path id="DejaVuSans-35" d="M 691 4666 
L 3169 4666 
L 3169 4134 
L 1269 4134 
L 1269 2991 
Q 1406 3038 1543 3061 
Q 1681 3084 1819 3084 
Q 2600 3084 3056 2656 
Q 3513 2228 3513 1497 
Q 3513 744 3044 326 
Q 2575 -91 1722 -91 
Q 1428 -91 1123 -41 
Q 819 9 494 109 
L 494 744 
Q 775 591 1075 516 
Q 1375 441 1709 441 
Q 2250 441 2565 725 
Q 2881 1009 2881 1497 
Q 2881 1984 2565 2268 
Q 2250 2553 1709 2553 
Q 1456 2553 1204 2497 
Q 953 2441 691 2322 
L 691 4666 
z
" transform="scale(0.015625)"/>
       </defs>
       <use xlink:href="#DejaVuSans-30"/>
       <use xlink:href="#DejaVuSans-2e" x="63.623047"/>
       <use xlink:href="#DejaVuSans-35" x="95.410156"/>
      </g>
     </g>
    </g>
    <g id="ytick_3">
     <g id="line2d_9">
      <g>
       <use xlink:href="#m2bfdfcbd26" x="108" y="590.601213" style="stroke: #000000; stroke-width: 0.8"/>
      </g>
     </g>
     <g id="text_10">
      <!-- 1.0 -->
      <g transform="translate(85.096875 594.400431)scale(0.1 -0.1)">
       <use xlink:href="#DejaVuSans-31"/>
       <use xlink:href="#DejaVuSans-2e" x="63.623047"/>
       <use xlink:href="#DejaVuSans-30" x="95.410156"/>
      </g>
     </g>
    </g>
    <g id="ytick_4">
     <g id="line2d_10">
      <g>
       <use xlink:href="#m2bfdfcbd26" x="108" y="501.421819" style="stroke: #000000; stroke-width: 0.8"/>
      </g>
     </g>
     <g id="text_11">
      <!-- 1.5 -->
      <g transform="translate(85.096875 505.221038)scale(0.1 -0.1)">
       <use xlink:href="#DejaVuSans-31"/>
       <use xlink:href="#DejaVuSans-2e" x="63.623047"/>
       <use xlink:href="#DejaVuSans-35" x="95.410156"/>
      </g>
     </g>
    </g>
    <g id="ytick_5">
     <g id="line2d_11">
      <g>
       <use xlink:href="#m2bfdfcbd26" x="108" y="412.242425" style="stroke: #000000; stroke-width: 0.8"/>
      </g>
     </g>
     <g id="text_12">
      <!-- 2.0 -->
      <g transform="translate(85.096875 416.041644)scale(0.1 -0.1)">
       <use xlink:href="#DejaVuSans-32"/>
       <use xlink:href="#DejaVuSans-2e" x="63.623047"/>
       <use xlink:href="#DejaVuSans-30" x="95.410156"/>
      </g>
     </g>
    </g>
    <g id="ytick_6">
     <g id="line2d_12">
      <g>
       <use xlink:href="#m2bfdfcbd26" x="108" y="323.063031" style="stroke: #000000; stroke-width: 0.8"/>
      </g>
     </g>
     <g id="text_13">
      <!-- 2.5 -->
      <g transform="translate(85.096875 326.86225)scale(0.1 -0.1)">
       <use xlink:href="#DejaVuSans-32"/>
       <use xlink:href="#DejaVuSans-2e" x="63.623047"/>
       <use xlink:href="#DejaVuSans-35" x="95.410156"/>
      </g>
     </g>
    </g>
    <g id="ytick_7">
     <g id="line2d_13">
      <g>
       <use xlink:href="#m2bfdfcbd26" x="108" y="233.883638" style="stroke: #000000; stroke-width: 0.8"/>
      </g>
     </g>
     <g id="text_14">
      <!-- 3.0 -->
      <g transform="translate(85.096875 237.682856)scale(0.1 -0.1)">
       <defs>
        <path id="DejaVuSans-33" d="M 2597 2516 
Q 3050 2419 3304 2112 
Q 3559 1806 3559 1356 
Q 3559 666 3084 287 
Q 2609 -91 1734 -91 
Q 1441 -91 1130 -33 
Q 819 25 488 141 
L 488 750 
Q 750 597 1062 519 
Q 1375 441 1716 441 
Q 2309 441 2620 675 
Q 2931 909 2931 1356 
Q 2931 1769 2642 2001 
Q 2353 2234 1838 2234 
L 1294 2234 
L 1294 2753 
L 1863 2753 
Q 2328 2753 2575 2939 
Q 2822 3125 2822 3475 
Q 2822 3834 2567 4026 
Q 2313 4219 1838 4219 
Q 1578 4219 1281 4162 
Q 984 4106 628 3988 
L 628 4550 
Q 988 4650 1302 4700 
Q 1616 4750 1894 4750 
Q 2613 4750 3031 4423 
Q 3450 4097 3450 3541 
Q 3450 3153 3228 2886 
Q 3006 2619 2597 2516 
z
" transform="scale(0.015625)"/>
       </defs>
       <use xlink:href="#DejaVuSans-33"/>
       <use xlink:href="#DejaVuSans-2e" x="63.623047"/>
       <use xlink:href="#DejaVuSans-30" x="95.410156"/>
      </g>
     </g>
    </g>
    <g id="ytick_8">
     <g id="line2d_14">
      <g>
       <use xlink:href="#m2bfdfcbd26" x="108" y="144.704244" style="stroke: #000000; stroke-width: 0.8"/>
      </g>
     </g>
     <g id="text_15">
      <!-- 3.5 -->
      <g transform="translate(85.096875 148.503463)scale(0.1 -0.1)">
       <use xlink:href="#DejaVuSans-33"/>
       <use xlink:href="#DejaVuSans-2e" x="63.623047"/>
       <use xlink:href="#DejaVuSans-35" x="95.410156"/>
      </g>
     </g>
    </g>
    <g id="text_16">
     <!-- Density -->
     <g transform="translate(77.769375 466.73375)rotate(-90)scale(0.16 -0.16)">
      <defs>
       <path id="DejaVuSans-44" d="M 1259 4147 
L 1259 519 
L 2022 519 
Q 2988 519 3436 956 
Q 3884 1394 3884 2338 
Q 3884 3275 3436 3711 
Q 2988 4147 2022 4147 
L 1259 4147 
z
M 628 4666 
L 1925 4666 
Q 3281 4666 3915 4102 
Q 4550 3538 4550 2338 
Q 4550 1131 3912 565 
Q 3275 0 1925 0 
L 628 0 
L 628 4666 
z
" transform="scale(0.015625)"/>
       <path id="DejaVuSans-65" d="M 3597 1894 
L 3597 1613 
L 953 1613 
Q 991 1019 1311 708 
Q 1631 397 2203 397 
Q 2534 397 2845 478 
Q 3156 559 3463 722 
L 3463 178 
Q 3153 47 2828 -22 
Q 2503 -91 2169 -91 
Q 1331 -91 842 396 
Q 353 884 353 1716 
Q 353 2575 817 3079 
Q 1281 3584 2069 3584 
Q 2775 3584 3186 3129 
Q 3597 2675 3597 1894 
z
M 3022 2063 
Q 3016 2534 2758 2815 
Q 2500 3097 2075 3097 
Q 1594 3097 1305 2825 
Q 1016 2553 972 2059 
L 3022 2063 
z
" transform="scale(0.015625)"/>
       <path id="DejaVuSans-6e" d="M 3513 2113 
L 3513 0 
L 2938 0 
L 2938 2094 
Q 2938 2591 2744 2837 
Q 2550 3084 2163 3084 
Q 1697 3084 1428 2787 
Q 1159 2491 1159 1978 
L 1159 0 
L 581 0 
L 581 3500 
L 1159 3500 
L 1159 2956 
Q 1366 3272 1645 3428 
Q 1925 3584 2291 3584 
Q 2894 3584 3203 3211 
Q 3513 2838 3513 2113 
z
" transform="scale(0.015625)"/>
       <path id="DejaVuSans-73" d="M 2834 3397 
L 2834 2853 
Q 2591 2978 2328 3040 
Q 2066 3103 1784 3103 
Q 1356 3103 1142 2972 
Q 928 2841 928 2578 
Q 928 2378 1081 2264 
Q 1234 2150 1697 2047 
L 1894 2003 
Q 2506 1872 2764 1633 
Q 3022 1394 3022 966 
Q 3022 478 2636 193 
Q 2250 -91 1575 -91 
Q 1294 -91 989 -36 
Q 684 19 347 128 
L 347 722 
Q 666 556 975 473 
Q 1284 391 1588 391 
Q 1994 391 2212 530 
Q 2431 669 2431 922 
Q 2431 1156 2273 1281 
Q 2116 1406 1581 1522 
L 1381 1569 
Q 847 1681 609 1914 
Q 372 2147 372 2553 
Q 372 3047 722 3315 
Q 1072 3584 1716 3584 
Q 2034 3584 2315 3537 
Q 2597 3491 2834 3397 
z
" transform="scale(0.015625)"/>
      </defs>
      <use xlink:href="#DejaVuSans-44"/>
      <use xlink:href="#DejaVuSans-65" x="77.001953"/>
      <use xlink:href="#DejaVuSans-6e" x="138.525391"/>
      <use xlink:href="#DejaVuSans-73" x="201.904297"/>
      <use xlink:href="#DejaVuSans-69" x="254.003906"/>
      <use xlink:href="#DejaVuSans-74" x="281.787109"/>
      <use xlink:href="#DejaVuSans-79" x="320.996094"/>
     </g>
    </g>
   </g>
   <g id="patch_3">
    <path d="M 108 768.96 
L 108 103.68 
" style="fill: none; stroke: #000000; stroke-width: 0.8; stroke-linejoin: miter; stroke-linecap: square"/>
   </g>
   <g id="patch_4">
    <path d="M 777.6 768.96 
L 777.6 103.68 
" style="fill: none; stroke: #000000; stroke-width: 0.8; stroke-linejoin: miter; stroke-linecap: square"/>
   </g>
   <g id="patch_5">
    <path d="M 108 768.96 
L 777.6 768.96 
" style="fill: none; stroke: #000000; stroke-width: 0.8; stroke-linejoin: miter; stroke-linecap: square"/>
   </g>
   <g id="patch_6">
    <path d="M 108 103.68 
L 777.6 103.68 
" style="fill: none; stroke: #000000; stroke-width: 0.8; stroke-linejoin: miter; stroke-linecap: square"/>
   </g>
   <g id="legend_1">
    <g id="patch_7">
     <path d="M 484.15 186.935 
L 766.4 186.935 
Q 769.6 186.935 769.6 183.735 
L 769.6 114.88 
Q 769.6 111.68 766.4 111.68 
L 484.15 111.68 
Q 480.95 111.68 480.95 114.88 
L 480.95 183.735 
Q 480.95 186.935 484.15 186.935 
z
" style="fill: #ffffff; opacity: 0.8; stroke: #cccccc; stroke-linejoin: miter"/>
    </g>
    <g id="patch_8">
     <path d="M 487.35 130.2375 
L 519.35 130.2375 
L 519.35 119.0375 
L 487.35 119.0375 
z
" style="fill: #0000ff; fill-opacity: 0.25; stroke: #0000ff; stroke-width: 3; stroke-linejoin: miter"/>
    </g>
    <g id="text_17">
     <!-- Training vs Test set similarity -->
     <g transform="translate(532.15 130.2375)scale(0.16 -0.16)">
      <defs>
       <path id="DejaVuSans-54" d="M -19 4666 
L 3928 4666 
L 3928 4134 
L 2272 4134 
L 2272 0 
L 1638 0 
L 1638 4134 
L -19 4134 
L -19 4666 
z
" transform="scale(0.015625)"/>
       <path id="DejaVuSans-67" d="M 2906 1791 
Q 2906 2416 2648 2759 
Q 2391 3103 1925 3103 
Q 1463 3103 1205 2759 
Q 947 2416 947 1791 
Q 947 1169 1205 825 
Q 1463 481 1925 481 
Q 2391 481 2648 825 
Q 2906 1169 2906 1791 
z
M 3481 434 
Q 3481 -459 3084 -895 
Q 2688 -1331 1869 -1331 
Q 1566 -1331 1297 -1286 
Q 1028 -1241 775 -1147 
L 775 -588 
Q 1028 -725 1275 -790 
Q 1522 -856 1778 -856 
Q 2344 -856 2625 -561 
Q 2906 -266 2906 331 
L 2906 616 
Q 2728 306 2450 153 
Q 2172 0 1784 0 
Q 1141 0 747 490 
Q 353 981 353 1791 
Q 353 2603 747 3093 
Q 1141 3584 1784 3584 
Q 2172 3584 2450 3431 
Q 2728 3278 2906 2969 
L 2906 3500 
L 3481 3500 
L 3481 434 
z
" transform="scale(0.015625)"/>
       <path id="DejaVuSans-20" transform="scale(0.015625)"/>
       <path id="DejaVuSans-76" d="M 191 3500 
L 800 3500 
L 1894 563 
L 2988 3500 
L 3597 3500 
L 2284 0 
L 1503 0 
L 191 3500 
z
" transform="scale(0.015625)"/>
      </defs>
      <use xlink:href="#DejaVuSans-54"/>
      <use xlink:href="#DejaVuSans-72" x="46.333984"/>
      <use xlink:href="#DejaVuSans-61" x="87.447266"/>
      <use xlink:href="#DejaVuSans-69" x="148.726562"/>
      <use xlink:href="#DejaVuSans-6e" x="176.509766"/>
      <use xlink:href="#DejaVuSans-69" x="239.888672"/>
      <use xlink:href="#DejaVuSans-6e" x="267.671875"/>
      <use xlink:href="#DejaVuSans-67" x="331.050781"/>
      <use xlink:href="#DejaVuSans-20" x="394.527344"/>
      <use xlink:href="#DejaVuSans-76" x="426.314453"/>
      <use xlink:href="#DejaVuSans-73" x="485.494141"/>
      <use xlink:href="#DejaVuSans-20" x="537.59375"/>
      <use xlink:href="#DejaVuSans-54" x="569.380859"/>
      <use xlink:href="#DejaVuSans-65" x="613.464844"/>
      <use xlink:href="#DejaVuSans-73" x="674.988281"/>
      <use xlink:href="#DejaVuSans-74" x="727.087891"/>
      <use xlink:href="#DejaVuSans-20" x="766.296875"/>
      <use xlink:href="#DejaVuSans-73" x="798.083984"/>
      <use xlink:href="#DejaVuSans-65" x="850.183594"/>
      <use xlink:href="#DejaVuSans-74" x="911.707031"/>
      <use xlink:href="#DejaVuSans-20" x="950.916016"/>
      <use xlink:href="#DejaVuSans-73" x="982.703125"/>
      <use xlink:href="#DejaVuSans-69" x="1034.802734"/>
      <use xlink:href="#DejaVuSans-6d" x="1062.585938"/>
      <use xlink:href="#DejaVuSans-69" x="1159.998047"/>
      <use xlink:href="#DejaVuSans-6c" x="1187.78125"/>
      <use xlink:href="#DejaVuSans-61" x="1215.564453"/>
      <use xlink:href="#DejaVuSans-72" x="1276.84375"/>
      <use xlink:href="#DejaVuSans-69" x="1317.957031"/>
      <use xlink:href="#DejaVuSans-74" x="1345.740234"/>
      <use xlink:href="#DejaVuSans-79" x="1384.949219"/>
     </g>
    </g>
    <g id="patch_9">
     <path d="M 487.35 153.7225 
L 519.35 153.7225 
L 519.35 142.5225 
L 487.35 142.5225 
z
" style="fill: #ff0000; fill-opacity: 0.25; stroke: #ff0000; stroke-width: 3; stroke-linejoin: miter"/>
    </g>
    <g id="text_18">
     <!-- Training set inner similarity -->
     <g transform="translate(532.15 153.7225)scale(0.16 -0.16)">
      <use xlink:href="#DejaVuSans-54"/>
      <use xlink:href="#DejaVuSans-72" x="46.333984"/>
      <use xlink:href="#DejaVuSans-61" x="87.447266"/>
      <use xlink:href="#DejaVuSans-69" x="148.726562"/>
      <use xlink:href="#DejaVuSans-6e" x="176.509766"/>
      <use xlink:href="#DejaVuSans-69" x="239.888672"/>
      <use xlink:href="#DejaVuSans-6e" x="267.671875"/>
      <use xlink:href="#DejaVuSans-67" x="331.050781"/>
      <use xlink:href="#DejaVuSans-20" x="394.527344"/>
      <use xlink:href="#DejaVuSans-73" x="426.314453"/>
      <use xlink:href="#DejaVuSans-65" x="478.414062"/>
      <use xlink:href="#DejaVuSans-74" x="539.9375"/>
      <use xlink:href="#DejaVuSans-20" x="579.146484"/>
      <use xlink:href="#DejaVuSans-69" x="610.933594"/>
      <use xlink:href="#DejaVuSans-6e" x="638.716797"/>
      <use xlink:href="#DejaVuSans-6e" x="702.095703"/>
      <use xlink:href="#DejaVuSans-65" x="765.474609"/>
      <use xlink:href="#DejaVuSans-72" x="826.998047"/>
      <use xlink:href="#DejaVuSans-20" x="868.111328"/>
      <use xlink:href="#DejaVuSans-73" x="899.898438"/>
      <use xlink:href="#DejaVuSans-69" x="951.998047"/>
      <use xlink:href="#DejaVuSans-6d" x="979.78125"/>
      <use xlink:href="#DejaVuSans-69" x="1077.193359"/>
      <use xlink:href="#DejaVuSans-6c" x="1104.976562"/>
      <use xlink:href="#DejaVuSans-61" x="1132.759766"/>
      <use xlink:href="#DejaVuSans-72" x="1194.039062"/>
      <use xlink:href="#DejaVuSans-69" x="1235.152344"/>
      <use xlink:href="#DejaVuSans-74" x="1262.935547"/>
      <use xlink:href="#DejaVuSans-79" x="1302.144531"/>
     </g>
    </g>
    <g id="patch_10">
     <path d="M 487.35 177.2075 
L 519.35 177.2075 
L 519.35 166.0075 
L 487.35 166.0075 
z
" style="fill: #008000; fill-opacity: 0.25; stroke: #008000; stroke-width: 3; stroke-linejoin: miter"/>
    </g>
    <g id="text_19">
     <!-- Test set inner similarity -->
     <g transform="translate(532.15 177.2075)scale(0.16 -0.16)">
      <use xlink:href="#DejaVuSans-54"/>
      <use xlink:href="#DejaVuSans-65" x="44.083984"/>
      <use xlink:href="#DejaVuSans-73" x="105.607422"/>
      <use xlink:href="#DejaVuSans-74" x="157.707031"/>
      <use xlink:href="#DejaVuSans-20" x="196.916016"/>
      <use xlink:href="#DejaVuSans-73" x="228.703125"/>
      <use xlink:href="#DejaVuSans-65" x="280.802734"/>
      <use xlink:href="#DejaVuSans-74" x="342.326172"/>
      <use xlink:href="#DejaVuSans-20" x="381.535156"/>
      <use xlink:href="#DejaVuSans-69" x="413.322266"/>
      <use xlink:href="#DejaVuSans-6e" x="441.105469"/>
      <use xlink:href="#DejaVuSans-6e" x="504.484375"/>
      <use xlink:href="#DejaVuSans-65" x="567.863281"/>
      <use xlink:href="#DejaVuSans-72" x="629.386719"/>
      <use xlink:href="#DejaVuSans-20" x="670.5"/>
      <use xlink:href="#DejaVuSans-73" x="702.287109"/>
      <use xlink:href="#DejaVuSans-69" x="754.386719"/>
      <use xlink:href="#DejaVuSans-6d" x="782.169922"/>
      <use xlink:href="#DejaVuSans-69" x="879.582031"/>
      <use xlink:href="#DejaVuSans-6c" x="907.365234"/>
      <use xlink:href="#DejaVuSans-61" x="935.148438"/>
      <use xlink:href="#DejaVuSans-72" x="996.427734"/>
      <use xlink:href="#DejaVuSans-69" x="1037.541016"/>
      <use xlink:href="#DejaVuSans-74" x="1065.324219"/>
      <use xlink:href="#DejaVuSans-79" x="1104.533203"/>
     </g>
    </g>
   </g>
  </g>
 </g>
 <defs>
  <clipPath id="p68f2e0a007">
   <rect x="108" y="103.68" width="669.6" height="665.28"/>
  </clipPath>
 </defs>
</svg>
