<?xml version="1.0" encoding="utf-8" standalone="no"?>
<!DOCTYPE svg PUBLIC "-//W3C//DTD SVG 1.1//EN"
  "http://www.w3.org/Graphics/SVG/1.1/DTD/svg11.dtd">
<svg xmlns:xlink="http://www.w3.org/1999/xlink" width="864pt" height="864pt" viewBox="0 0 864 864" xmlns="http://www.w3.org/2000/svg" version="1.1">
 <metadata>
  <rdf:RDF xmlns:dc="http://purl.org/dc/elements/1.1/" xmlns:cc="http://creativecommons.org/ns#" xmlns:rdf="http://www.w3.org/1999/02/22-rdf-syntax-ns#">
   <cc:Work>
    <dc:type rdf:resource="http://purl.org/dc/dcmitype/StillImage"/>
    <dc:date>2022-02-07T07:36:19.848593</dc:date>
    <dc:format>image/svg+xml</dc:format>
    <dc:creator>
     <cc:Agent>
      <dc:title>Matplotlib v3.5.1, https://matplotlib.org/</dc:title>
     </cc:Agent>
    </dc:creator>
   </cc:Work>
  </rdf:RDF>
 </metadata>
 <defs>
  <style type="text/css">*{stroke-linejoin: round; stroke-linecap: butt}</style>
 </defs>
 <g id="figure_1">
  <g id="patch_1">
   <path d="M 0 864 
L 864 864 
L 864 0 
L 0 0 
z
" style="fill: #ffffff"/>
  </g>
  <g id="axes_1">
   <g id="patch_2">
    <path d="M 108 768.96 
L 777.6 768.96 
L 777.6 103.68 
L 108 103.68 
z
" style="fill: #ffffff"/>
   </g>
   <g id="PolyCollection_1">
    <defs>
     <path id="m2bec811400" d="M 138.816918 -95.040006 
L 138.816918 -95.04 
L 141.842226 -95.04 
L 144.867534 -95.04 
L 147.892842 -95.04 
L 150.918149 -95.04 
L 153.943457 -95.04 
L 156.968765 -95.04 
L 159.994073 -95.04 
L 163.01938 -95.04 
L 166.044688 -95.04 
L 169.069996 -95.04 
L 172.095304 -95.04 
L 175.120611 -95.04 
L 178.145919 -95.04 
L 181.171227 -95.04 
L 184.196535 -95.04 
L 187.221842 -95.04 
L 190.24715 -95.04 
L 193.272458 -95.04 
L 196.297765 -95.04 
L 199.323073 -95.04 
L 202.348381 -95.04 
L 205.373689 -95.04 
L 208.398996 -95.04 
L 211.424304 -95.04 
L 214.449612 -95.04 
L 217.47492 -95.04 
L 220.500227 -95.04 
L 223.525535 -95.04 
L 226.550843 -95.04 
L 229.576151 -95.04 
L 232.601458 -95.04 
L 235.626766 -95.04 
L 238.652074 -95.04 
L 241.677382 -95.04 
L 244.702689 -95.04 
L 247.727997 -95.04 
L 250.753305 -95.04 
L 253.778613 -95.04 
L 256.80392 -95.04 
L 259.829228 -95.04 
L 262.854536 -95.04 
L 265.879843 -95.04 
L 268.905151 -95.04 
L 271.930459 -95.04 
L 274.955767 -95.04 
L 277.981074 -95.04 
L 281.006382 -95.04 
L 284.03169 -95.04 
L 287.056998 -95.04 
L 290.082305 -95.04 
L 293.107613 -95.04 
L 296.132921 -95.04 
L 299.158229 -95.04 
L 302.183536 -95.04 
L 305.208844 -95.04 
L 308.234152 -95.04 
L 311.25946 -95.04 
L 314.284767 -95.04 
L 317.310075 -95.04 
L 320.335383 -95.04 
L 323.360691 -95.04 
L 326.385998 -95.04 
L 329.411306 -95.04 
L 332.436614 -95.04 
L 335.461922 -95.04 
L 338.487229 -95.04 
L 341.512537 -95.04 
L 344.537845 -95.04 
L 347.563152 -95.04 
L 350.58846 -95.04 
L 353.613768 -95.04 
L 356.639076 -95.04 
L 359.664383 -95.04 
L 362.689691 -95.04 
L 365.714999 -95.04 
L 368.740307 -95.04 
L 371.765614 -95.04 
L 374.790922 -95.04 
L 377.81623 -95.04 
L 380.841538 -95.04 
L 383.866845 -95.04 
L 386.892153 -95.04 
L 389.917461 -95.04 
L 392.942769 -95.04 
L 395.968076 -95.04 
L 398.993384 -95.04 
L 402.018692 -95.04 
L 405.044 -95.04 
L 408.069307 -95.04 
L 411.094615 -95.04 
L 414.119923 -95.04 
L 417.14523 -95.04 
L 420.170538 -95.04 
L 423.195846 -95.04 
L 426.221154 -95.04 
L 429.246461 -95.04 
L 432.271769 -95.04 
L 435.297077 -95.04 
L 438.322385 -95.04 
L 441.347692 -95.04 
L 444.373 -95.04 
L 447.398308 -95.04 
L 450.423616 -95.04 
L 453.448923 -95.04 
L 456.474231 -95.04 
L 459.499539 -95.04 
L 462.524847 -95.04 
L 465.550154 -95.04 
L 468.575462 -95.04 
L 471.60077 -95.04 
L 474.626078 -95.04 
L 477.651385 -95.04 
L 480.676693 -95.04 
L 483.702001 -95.04 
L 486.727308 -95.04 
L 489.752616 -95.04 
L 492.777924 -95.04 
L 495.803232 -95.04 
L 498.828539 -95.04 
L 501.853847 -95.04 
L 504.879155 -95.04 
L 507.904463 -95.04 
L 510.92977 -95.04 
L 513.955078 -95.04 
L 516.980386 -95.04 
L 520.005694 -95.04 
L 523.031001 -95.04 
L 526.056309 -95.04 
L 529.081617 -95.04 
L 532.106925 -95.04 
L 535.132232 -95.04 
L 538.15754 -95.04 
L 541.182848 -95.04 
L 544.208156 -95.04 
L 547.233463 -95.04 
L 550.258771 -95.04 
L 553.284079 -95.04 
L 556.309386 -95.04 
L 559.334694 -95.04 
L 562.360002 -95.04 
L 565.38531 -95.04 
L 568.410617 -95.04 
L 571.435925 -95.04 
L 574.461233 -95.04 
L 577.486541 -95.04 
L 580.511848 -95.04 
L 583.537156 -95.04 
L 586.562464 -95.04 
L 589.587772 -95.04 
L 592.613079 -95.04 
L 595.638387 -95.04 
L 598.663695 -95.04 
L 601.689003 -95.04 
L 604.71431 -95.04 
L 607.739618 -95.04 
L 610.764926 -95.04 
L 613.790234 -95.04 
L 616.815541 -95.04 
L 619.840849 -95.04 
L 622.866157 -95.04 
L 625.891464 -95.04 
L 628.916772 -95.04 
L 631.94208 -95.04 
L 634.967388 -95.04 
L 637.992695 -95.04 
L 641.018003 -95.04 
L 644.043311 -95.04 
L 647.068619 -95.04 
L 650.093926 -95.04 
L 653.119234 -95.04 
L 656.144542 -95.04 
L 659.16985 -95.04 
L 662.195157 -95.04 
L 665.220465 -95.04 
L 668.245773 -95.04 
L 671.271081 -95.04 
L 674.296388 -95.04 
L 677.321696 -95.04 
L 680.347004 -95.04 
L 683.372312 -95.04 
L 686.397619 -95.04 
L 689.422927 -95.04 
L 692.448235 -95.04 
L 695.473542 -95.04 
L 698.49885 -95.04 
L 701.524158 -95.04 
L 704.549466 -95.04 
L 707.574773 -95.04 
L 710.600081 -95.04 
L 713.625389 -95.04 
L 716.650697 -95.04 
L 719.676004 -95.04 
L 722.701312 -95.04 
L 725.72662 -95.04 
L 728.751928 -95.04 
L 731.777235 -95.04 
L 734.802543 -95.04 
L 737.827851 -95.04 
L 740.853159 -95.04 
L 740.853159 -95.040096 
L 740.853159 -95.040096 
L 737.827851 -95.044305 
L 734.802543 -95.09886 
L 731.777235 -95.313262 
L 728.751928 -95.627013 
L 725.72662 -95.857496 
L 722.701312 -95.938596 
L 719.676004 -96.296068 
L 716.650697 -96.93702 
L 713.625389 -97.406912 
L 710.600081 -97.944166 
L 707.574773 -98.704927 
L 704.549466 -99.204172 
L 701.524158 -99.620946 
L 698.49885 -100.468916 
L 695.473542 -101.831762 
L 692.448235 -102.914095 
L 689.422927 -103.648981 
L 686.397619 -104.275018 
L 683.372312 -105.546986 
L 680.347004 -106.996355 
L 677.321696 -108.259373 
L 674.296388 -109.697323 
L 671.271081 -111.376104 
L 668.245773 -113.314473 
L 665.220465 -115.809075 
L 662.195157 -117.987601 
L 659.16985 -120.345768 
L 656.144542 -122.301846 
L 653.119234 -124.080221 
L 650.093926 -125.812691 
L 647.068619 -127.045192 
L 644.043311 -129.158965 
L 641.018003 -131.807108 
L 637.992695 -133.37122 
L 634.967388 -135.433172 
L 631.94208 -138.038197 
L 628.916772 -140.698377 
L 625.891464 -144.144038 
L 622.866157 -146.552631 
L 619.840849 -147.841438 
L 616.815541 -148.488064 
L 613.790234 -148.785722 
L 610.764926 -147.109939 
L 607.739618 -145.540791 
L 604.71431 -146.446052 
L 601.689003 -148.041253 
L 598.663695 -151.123999 
L 595.638387 -153.474743 
L 592.613079 -154.760003 
L 589.587772 -156.532122 
L 586.562464 -158.105949 
L 583.537156 -159.800622 
L 580.511848 -162.141283 
L 577.486541 -164.237319 
L 574.461233 -166.774463 
L 571.435925 -168.512905 
L 568.410617 -169.843493 
L 565.38531 -173.277796 
L 562.360002 -177.029933 
L 559.334694 -180.340622 
L 556.309386 -182.70046 
L 553.284079 -183.649819 
L 550.258771 -185.188466 
L 547.233463 -187.038168 
L 544.208156 -188.051901 
L 541.182848 -187.348216 
L 538.15754 -189.842741 
L 535.132232 -195.130586 
L 532.106925 -198.575479 
L 529.081617 -198.128422 
L 526.056309 -196.079589 
L 523.031001 -197.036977 
L 520.005694 -200.242993 
L 516.980386 -200.170697 
L 513.955078 -196.166631 
L 510.92977 -191.395588 
L 507.904463 -188.623639 
L 504.879155 -186.278388 
L 501.853847 -185.266954 
L 498.828539 -186.439788 
L 495.803232 -188.85735 
L 492.777924 -191.427833 
L 489.752616 -198.892411 
L 486.727308 -209.496201 
L 483.702001 -219.333278 
L 480.676693 -228.815744 
L 477.651385 -242.821064 
L 474.626078 -261.504901 
L 471.60077 -278.98023 
L 468.575462 -293.489198 
L 465.550154 -301.062445 
L 462.524847 -308.689526 
L 459.499539 -321.394328 
L 456.474231 -343.08076 
L 453.448923 -374.907132 
L 450.423616 -408.764505 
L 447.398308 -442.175404 
L 444.373 -474.652393 
L 441.347692 -502.687306 
L 438.322385 -526.237947 
L 435.297077 -547.606823 
L 432.271769 -568.592084 
L 429.246461 -593.679215 
L 426.221154 -613.731804 
L 423.195846 -632.547899 
L 420.170538 -652.817593 
L 417.14523 -667.249585 
L 414.119923 -676.933007 
L 411.094615 -687.472689 
L 408.069307 -692.953176 
L 405.044 -690.851592 
L 402.018692 -686.802945 
L 398.993384 -685.923713 
L 395.968076 -692.162283 
L 392.942769 -698.921522 
L 389.917461 -708.134357 
L 386.892153 -716.553624 
L 383.866845 -713.435199 
L 380.841538 -701.15182 
L 377.81623 -693.960509 
L 374.790922 -693.762794 
L 371.765614 -692.454486 
L 368.740307 -688.77387 
L 365.714999 -689.27602 
L 362.689691 -692.953553 
L 359.664383 -695.98272 
L 356.639076 -692.245018 
L 353.613768 -678.907188 
L 350.58846 -661.146724 
L 347.563152 -641.412948 
L 344.537845 -618.689616 
L 341.512537 -600.31622 
L 338.487229 -583.968407 
L 335.461922 -565.665483 
L 332.436614 -545.867684 
L 329.411306 -525.786017 
L 326.385998 -504.934014 
L 323.360691 -485.034996 
L 320.335383 -463.971104 
L 317.310075 -443.892116 
L 314.284767 -428.472909 
L 311.25946 -417.212471 
L 308.234152 -407.382298 
L 305.208844 -394.960672 
L 302.183536 -378.428469 
L 299.158229 -361.014167 
L 296.132921 -345.221016 
L 293.107613 -332.251844 
L 290.082305 -316.704095 
L 287.056998 -300.778163 
L 284.03169 -283.716718 
L 281.006382 -264.549914 
L 277.981074 -248.469728 
L 274.955767 -238.489839 
L 271.930459 -230.017736 
L 268.905151 -221.275114 
L 265.879843 -213.689874 
L 262.854536 -206.628504 
L 259.829228 -200.307602 
L 256.80392 -193.904868 
L 253.778613 -184.862684 
L 250.753305 -174.917053 
L 247.727997 -166.101924 
L 244.702689 -157.648461 
L 241.677382 -149.875572 
L 238.652074 -141.93196 
L 235.626766 -133.298499 
L 232.601458 -126.646234 
L 229.576151 -122.601316 
L 226.550843 -118.956453 
L 223.525535 -115.061817 
L 220.500227 -111.663846 
L 217.47492 -108.51216 
L 214.449612 -105.654831 
L 211.424304 -103.441167 
L 208.398996 -102.080197 
L 205.373689 -102.501365 
L 202.348381 -104.112283 
L 199.323073 -104.427248 
L 196.297765 -102.83412 
L 193.272458 -100.495638 
L 190.24715 -98.359663 
L 187.221842 -96.949879 
L 184.196535 -96.339663 
L 181.171227 -96.256648 
L 178.145919 -96.256202 
L 175.120611 -95.887568 
L 172.095304 -95.578632 
L 169.069996 -95.615728 
L 166.044688 -96.277506 
L 163.01938 -98.053129 
L 159.994073 -98.822974 
L 156.968765 -96.974383 
L 153.943457 -95.477124 
L 150.918149 -95.10491 
L 147.892842 -95.049375 
L 144.867534 -95.041488 
L 141.842226 -95.04016 
L 138.816918 -95.040006 
z
" style="stroke: #0000ff; stroke-width: 3"/>
    </defs>
    <g clip-path="url(#pf4d8f9ae8f)">
     <use xlink:href="#m2bec811400" x="0" y="864" style="fill: #0000ff; fill-opacity: 0.25; stroke: #0000ff; stroke-width: 3"/>
    </g>
   </g>
   <g id="PolyCollection_2">
    <defs>
     <path id="mf3bd28ac3d" d="M 142.986106 -95.040003 
L 142.986106 -95.04 
L 145.994092 -95.04 
L 149.002079 -95.04 
L 152.010066 -95.04 
L 155.018052 -95.04 
L 158.026039 -95.04 
L 161.034026 -95.04 
L 164.042012 -95.04 
L 167.049999 -95.04 
L 170.057986 -95.04 
L 173.065973 -95.04 
L 176.073959 -95.04 
L 179.081946 -95.04 
L 182.089933 -95.04 
L 185.097919 -95.04 
L 188.105906 -95.04 
L 191.113893 -95.04 
L 194.121879 -95.04 
L 197.129866 -95.04 
L 200.137853 -95.04 
L 203.145839 -95.04 
L 206.153826 -95.04 
L 209.161813 -95.04 
L 212.169799 -95.04 
L 215.177786 -95.04 
L 218.185773 -95.04 
L 221.193759 -95.04 
L 224.201746 -95.04 
L 227.209733 -95.04 
L 230.217719 -95.04 
L 233.225706 -95.04 
L 236.233693 -95.04 
L 239.241679 -95.04 
L 242.249666 -95.04 
L 245.257653 -95.04 
L 248.265639 -95.04 
L 251.273626 -95.04 
L 254.281613 -95.04 
L 257.2896 -95.04 
L 260.297586 -95.04 
L 263.305573 -95.04 
L 266.31356 -95.04 
L 269.321546 -95.04 
L 272.329533 -95.04 
L 275.33752 -95.04 
L 278.345506 -95.04 
L 281.353493 -95.04 
L 284.36148 -95.04 
L 287.369466 -95.04 
L 290.377453 -95.04 
L 293.38544 -95.04 
L 296.393426 -95.04 
L 299.401413 -95.04 
L 302.4094 -95.04 
L 305.417386 -95.04 
L 308.425373 -95.04 
L 311.43336 -95.04 
L 314.441346 -95.04 
L 317.449333 -95.04 
L 320.45732 -95.04 
L 323.465306 -95.04 
L 326.473293 -95.04 
L 329.48128 -95.04 
L 332.489266 -95.04 
L 335.497253 -95.04 
L 338.50524 -95.04 
L 341.513226 -95.04 
L 344.521213 -95.04 
L 347.5292 -95.04 
L 350.537187 -95.04 
L 353.545173 -95.04 
L 356.55316 -95.04 
L 359.561147 -95.04 
L 362.569133 -95.04 
L 365.57712 -95.04 
L 368.585107 -95.04 
L 371.593093 -95.04 
L 374.60108 -95.04 
L 377.609067 -95.04 
L 380.617053 -95.04 
L 383.62504 -95.04 
L 386.633027 -95.04 
L 389.641013 -95.04 
L 392.649 -95.04 
L 395.656987 -95.04 
L 398.664973 -95.04 
L 401.67296 -95.04 
L 404.680947 -95.04 
L 407.688933 -95.04 
L 410.69692 -95.04 
L 413.704907 -95.04 
L 416.712893 -95.04 
L 419.72088 -95.04 
L 422.728867 -95.04 
L 425.736853 -95.04 
L 428.74484 -95.04 
L 431.752827 -95.04 
L 434.760814 -95.04 
L 437.7688 -95.04 
L 440.776787 -95.04 
L 443.784774 -95.04 
L 446.79276 -95.04 
L 449.800747 -95.04 
L 452.808734 -95.04 
L 455.81672 -95.04 
L 458.824707 -95.04 
L 461.832694 -95.04 
L 464.84068 -95.04 
L 467.848667 -95.04 
L 470.856654 -95.04 
L 473.86464 -95.04 
L 476.872627 -95.04 
L 479.880614 -95.04 
L 482.8886 -95.04 
L 485.896587 -95.04 
L 488.904574 -95.04 
L 491.91256 -95.04 
L 494.920547 -95.04 
L 497.928534 -95.04 
L 500.93652 -95.04 
L 503.944507 -95.04 
L 506.952494 -95.04 
L 509.96048 -95.04 
L 512.968467 -95.04 
L 515.976454 -95.04 
L 518.98444 -95.04 
L 521.992427 -95.04 
L 525.000414 -95.04 
L 528.008401 -95.04 
L 531.016387 -95.04 
L 534.024374 -95.04 
L 537.032361 -95.04 
L 540.040347 -95.04 
L 543.048334 -95.04 
L 546.056321 -95.04 
L 549.064307 -95.04 
L 552.072294 -95.04 
L 555.080281 -95.04 
L 558.088267 -95.04 
L 561.096254 -95.04 
L 564.104241 -95.04 
L 567.112227 -95.04 
L 570.120214 -95.04 
L 573.128201 -95.04 
L 576.136187 -95.04 
L 579.144174 -95.04 
L 582.152161 -95.04 
L 585.160147 -95.04 
L 588.168134 -95.04 
L 591.176121 -95.04 
L 594.184107 -95.04 
L 597.192094 -95.04 
L 600.200081 -95.04 
L 603.208067 -95.04 
L 606.216054 -95.04 
L 609.224041 -95.04 
L 612.232027 -95.04 
L 615.240014 -95.04 
L 618.248001 -95.04 
L 621.255988 -95.04 
L 624.263974 -95.04 
L 627.271961 -95.04 
L 630.279948 -95.04 
L 633.287934 -95.04 
L 636.295921 -95.04 
L 639.303908 -95.04 
L 642.311894 -95.04 
L 645.319881 -95.04 
L 648.327868 -95.04 
L 651.335854 -95.04 
L 654.343841 -95.04 
L 657.351828 -95.04 
L 660.359814 -95.04 
L 663.367801 -95.04 
L 666.375788 -95.04 
L 669.383774 -95.04 
L 672.391761 -95.04 
L 675.399748 -95.04 
L 678.407734 -95.04 
L 681.415721 -95.04 
L 684.423708 -95.04 
L 687.431694 -95.04 
L 690.439681 -95.04 
L 693.447668 -95.04 
L 696.455654 -95.04 
L 699.463641 -95.04 
L 702.471628 -95.04 
L 705.479615 -95.04 
L 708.487601 -95.04 
L 711.495588 -95.04 
L 714.503575 -95.04 
L 717.511561 -95.04 
L 720.519548 -95.04 
L 723.527535 -95.04 
L 726.535521 -95.04 
L 729.543508 -95.04 
L 732.551495 -95.04 
L 735.559481 -95.04 
L 738.567468 -95.04 
L 741.575455 -95.04 
L 741.575455 -95.13504 
L 741.575455 -95.13504 
L 738.567468 -97.521058 
L 735.559481 -103.753124 
L 732.551495 -99.870674 
L 729.543508 -96.653681 
L 726.535521 -96.610196 
L 723.527535 -97.148992 
L 720.519548 -97.801309 
L 717.511561 -98.231246 
L 714.503575 -98.737554 
L 711.495588 -99.442486 
L 708.487601 -99.719769 
L 705.479615 -99.859493 
L 702.471628 -99.970067 
L 699.463641 -100.714589 
L 696.455654 -101.832244 
L 693.447668 -102.943958 
L 690.439681 -103.525683 
L 687.431694 -103.990845 
L 684.423708 -104.822488 
L 681.415721 -105.43341 
L 678.407734 -106.626531 
L 675.399748 -108.216611 
L 672.391761 -110.20346 
L 669.383774 -111.65305 
L 666.375788 -112.668203 
L 663.367801 -113.647975 
L 660.359814 -114.757066 
L 657.351828 -116.335995 
L 654.343841 -117.727106 
L 651.335854 -118.829225 
L 648.327868 -119.898778 
L 645.319881 -120.67997 
L 642.311894 -121.829148 
L 639.303908 -122.864418 
L 636.295921 -124.225209 
L 633.287934 -126.104461 
L 630.279948 -128.604423 
L 627.271961 -129.84922 
L 624.263974 -130.18919 
L 621.255988 -132.001852 
L 618.248001 -134.15631 
L 615.240014 -135.597594 
L 612.232027 -136.298261 
L 609.224041 -137.429736 
L 606.216054 -137.746579 
L 603.208067 -140.149525 
L 600.200081 -142.808858 
L 597.192094 -145.110874 
L 594.184107 -148.000141 
L 591.176121 -149.832457 
L 588.168134 -151.225005 
L 585.160147 -153.331024 
L 582.152161 -155.510333 
L 579.144174 -157.313191 
L 576.136187 -159.134899 
L 573.128201 -162.286947 
L 570.120214 -165.573134 
L 567.112227 -166.23924 
L 564.104241 -167.209494 
L 561.096254 -169.70844 
L 558.088267 -171.991577 
L 555.080281 -173.427336 
L 552.072294 -175.203418 
L 549.064307 -176.3617 
L 546.056321 -177.622192 
L 543.048334 -178.657129 
L 540.040347 -178.257561 
L 537.032361 -179.19353 
L 534.024374 -182.429101 
L 531.016387 -186.71885 
L 528.008401 -190.546805 
L 525.000414 -193.612939 
L 521.992427 -195.461021 
L 518.98444 -193.509298 
L 515.976454 -190.134347 
L 512.968467 -189.485645 
L 509.96048 -187.961753 
L 506.952494 -187.210064 
L 503.944507 -188.291129 
L 500.93652 -191.40168 
L 497.928534 -194.315487 
L 494.920547 -194.657349 
L 491.91256 -200.911654 
L 488.904574 -211.071604 
L 485.896587 -220.515716 
L 482.8886 -230.029876 
L 479.880614 -240.223886 
L 476.872627 -252.702423 
L 473.86464 -267.470535 
L 470.856654 -287.856575 
L 467.848667 -307.994589 
L 464.84068 -322.599444 
L 461.832694 -341.572682 
L 458.824707 -363.389186 
L 455.81672 -385.927687 
L 452.808734 -412.033143 
L 449.800747 -439.319064 
L 446.79276 -469.80055 
L 443.784774 -498.776278 
L 440.776787 -525.460493 
L 437.7688 -544.713099 
L 434.760814 -557.091162 
L 431.752827 -571.473344 
L 428.74484 -586.614684 
L 425.736853 -600.5312 
L 422.728867 -613.490263 
L 419.72088 -628.688974 
L 416.712893 -640.581244 
L 413.704907 -649.81451 
L 410.69692 -663.799342 
L 407.688933 -674.448219 
L 404.680947 -674.869011 
L 401.67296 -672.283188 
L 398.664973 -672.565947 
L 395.656987 -677.058608 
L 392.649 -678.091786 
L 389.641013 -683.290268 
L 386.633027 -686.007312 
L 383.62504 -685.682169 
L 380.617053 -686.983174 
L 377.609067 -689.057221 
L 374.60108 -693.385277 
L 371.593093 -700.092078 
L 368.585107 -706.436883 
L 365.57712 -711.311917 
L 362.569133 -714.575182 
L 359.561147 -703.409201 
L 356.55316 -691.267001 
L 353.545173 -679.488828 
L 350.537187 -670.014944 
L 347.5292 -662.389965 
L 344.521213 -644.180195 
L 341.513226 -624.758736 
L 338.50524 -608.839808 
L 335.497253 -586.800359 
L 332.489266 -561.638202 
L 329.48128 -538.276263 
L 326.473293 -513.300441 
L 323.465306 -490.318158 
L 320.45732 -470.14156 
L 317.449333 -451.933894 
L 314.441346 -431.751882 
L 311.43336 -414.213426 
L 308.425373 -405.62431 
L 305.417386 -399.39054 
L 302.4094 -389.248633 
L 299.401413 -373.313478 
L 296.393426 -351.37692 
L 293.38544 -329.742553 
L 290.377453 -311.988948 
L 287.369466 -296.125435 
L 284.36148 -282.499664 
L 281.353493 -269.93735 
L 278.345506 -263.320982 
L 275.33752 -256.318862 
L 272.329533 -245.347279 
L 269.321546 -232.365991 
L 266.31356 -221.826712 
L 263.305573 -212.785075 
L 260.297586 -202.938405 
L 257.2896 -193.162834 
L 254.281613 -184.656443 
L 251.273626 -177.461757 
L 248.265639 -171.413146 
L 245.257653 -165.969984 
L 242.249666 -159.874729 
L 239.241679 -152.61573 
L 236.233693 -144.633086 
L 233.225706 -137.89265 
L 230.217719 -132.314733 
L 227.209733 -126.531475 
L 224.201746 -121.30628 
L 221.193759 -117.561405 
L 218.185773 -114.588016 
L 215.177786 -111.113541 
L 212.169799 -108.056041 
L 209.161813 -105.757228 
L 206.153826 -105.325902 
L 203.145839 -105.832099 
L 200.137853 -104.802199 
L 197.129866 -102.552816 
L 194.121879 -100.040925 
L 191.113893 -98.047304 
L 188.105906 -97.057527 
L 185.097919 -96.775999 
L 182.089933 -96.955629 
L 179.081946 -97.379446 
L 176.073959 -97.10398 
L 173.065973 -96.179704 
L 170.057986 -95.671883 
L 167.049999 -95.35341 
L 164.042012 -95.190545 
L 161.034026 -95.120014 
L 158.026039 -95.070421 
L 155.018052 -95.045781 
L 152.010066 -95.040646 
L 149.002079 -95.04025 
L 145.994092 -95.040069 
L 142.986106 -95.040003 
z
" style="stroke: #ff0000; stroke-width: 3"/>
    </defs>
    <g clip-path="url(#pf4d8f9ae8f)">
     <use xlink:href="#mf3bd28ac3d" x="0" y="864" style="fill: #ff0000; fill-opacity: 0.25; stroke: #ff0000; stroke-width: 3"/>
    </g>
   </g>
   <g id="PolyCollection_3">
    <defs>
     <path id="m2f455d2f50" d="M 138.436364 -95.040088 
L 138.436364 -95.04 
L 141.495295 -95.04 
L 144.554226 -95.04 
L 147.613157 -95.04 
L 150.672088 -95.04 
L 153.731019 -95.04 
L 156.78995 -95.04 
L 159.848881 -95.04 
L 162.907812 -95.04 
L 165.966743 -95.04 
L 169.025674 -95.04 
L 172.084605 -95.04 
L 175.143536 -95.04 
L 178.202467 -95.04 
L 181.261398 -95.04 
L 184.320329 -95.04 
L 187.37926 -95.04 
L 190.438191 -95.04 
L 193.497122 -95.04 
L 196.556053 -95.04 
L 199.614984 -95.04 
L 202.673915 -95.04 
L 205.732846 -95.04 
L 208.791777 -95.04 
L 211.850708 -95.04 
L 214.909639 -95.04 
L 217.96857 -95.04 
L 221.027501 -95.04 
L 224.086432 -95.04 
L 227.145363 -95.04 
L 230.204294 -95.04 
L 233.263225 -95.04 
L 236.322156 -95.04 
L 239.381087 -95.04 
L 242.440018 -95.04 
L 245.498949 -95.04 
L 248.55788 -95.04 
L 251.616811 -95.04 
L 254.675742 -95.04 
L 257.734673 -95.04 
L 260.793604 -95.04 
L 263.852535 -95.04 
L 266.911466 -95.04 
L 269.970397 -95.04 
L 273.029328 -95.04 
L 276.088259 -95.04 
L 279.14719 -95.04 
L 282.206122 -95.04 
L 285.265053 -95.04 
L 288.323984 -95.04 
L 291.382915 -95.04 
L 294.441846 -95.04 
L 297.500777 -95.04 
L 300.559708 -95.04 
L 303.618639 -95.04 
L 306.67757 -95.04 
L 309.736501 -95.04 
L 312.795432 -95.04 
L 315.854363 -95.04 
L 318.913294 -95.04 
L 321.972225 -95.04 
L 325.031156 -95.04 
L 328.090087 -95.04 
L 331.149018 -95.04 
L 334.207949 -95.04 
L 337.26688 -95.04 
L 340.325811 -95.04 
L 343.384742 -95.04 
L 346.443673 -95.04 
L 349.502604 -95.04 
L 352.561535 -95.04 
L 355.620466 -95.04 
L 358.679397 -95.04 
L 361.738328 -95.04 
L 364.797259 -95.04 
L 367.85619 -95.04 
L 370.915121 -95.04 
L 373.974052 -95.04 
L 377.032983 -95.04 
L 380.091914 -95.04 
L 383.150845 -95.04 
L 386.209776 -95.04 
L 389.268707 -95.04 
L 392.327638 -95.04 
L 395.386569 -95.04 
L 398.4455 -95.04 
L 401.504431 -95.04 
L 404.563362 -95.04 
L 407.622293 -95.04 
L 410.681224 -95.04 
L 413.740155 -95.04 
L 416.799086 -95.04 
L 419.858017 -95.04 
L 422.916948 -95.04 
L 425.975879 -95.04 
L 429.03481 -95.04 
L 432.093741 -95.04 
L 435.152672 -95.04 
L 438.211603 -95.04 
L 441.270534 -95.04 
L 444.329466 -95.04 
L 447.388397 -95.04 
L 450.447328 -95.04 
L 453.506259 -95.04 
L 456.56519 -95.04 
L 459.624121 -95.04 
L 462.683052 -95.04 
L 465.741983 -95.04 
L 468.800914 -95.04 
L 471.859845 -95.04 
L 474.918776 -95.04 
L 477.977707 -95.04 
L 481.036638 -95.04 
L 484.095569 -95.04 
L 487.1545 -95.04 
L 490.213431 -95.04 
L 493.272362 -95.04 
L 496.331293 -95.04 
L 499.390224 -95.04 
L 502.449155 -95.04 
L 505.508086 -95.04 
L 508.567017 -95.04 
L 511.625948 -95.04 
L 514.684879 -95.04 
L 517.74381 -95.04 
L 520.802741 -95.04 
L 523.861672 -95.04 
L 526.920603 -95.04 
L 529.979534 -95.04 
L 533.038465 -95.04 
L 536.097396 -95.04 
L 539.156327 -95.04 
L 542.215258 -95.04 
L 545.274189 -95.04 
L 548.33312 -95.04 
L 551.392051 -95.04 
L 554.450982 -95.04 
L 557.509913 -95.04 
L 560.568844 -95.04 
L 563.627775 -95.04 
L 566.686706 -95.04 
L 569.745637 -95.04 
L 572.804568 -95.04 
L 575.863499 -95.04 
L 578.92243 -95.04 
L 581.981361 -95.04 
L 585.040292 -95.04 
L 588.099223 -95.04 
L 591.158154 -95.04 
L 594.217085 -95.04 
L 597.276016 -95.04 
L 600.334947 -95.04 
L 603.393878 -95.04 
L 606.45281 -95.04 
L 609.511741 -95.04 
L 612.570672 -95.04 
L 615.629603 -95.04 
L 618.688534 -95.04 
L 621.747465 -95.04 
L 624.806396 -95.04 
L 627.865327 -95.04 
L 630.924258 -95.04 
L 633.983189 -95.04 
L 637.04212 -95.04 
L 640.101051 -95.04 
L 643.159982 -95.04 
L 646.218913 -95.04 
L 649.277844 -95.04 
L 652.336775 -95.04 
L 655.395706 -95.04 
L 658.454637 -95.04 
L 661.513568 -95.04 
L 664.572499 -95.04 
L 667.63143 -95.04 
L 670.690361 -95.04 
L 673.749292 -95.04 
L 676.808223 -95.04 
L 679.867154 -95.04 
L 682.926085 -95.04 
L 685.985016 -95.04 
L 689.043947 -95.04 
L 692.102878 -95.04 
L 695.161809 -95.04 
L 698.22074 -95.04 
L 701.279671 -95.04 
L 704.338602 -95.04 
L 707.397533 -95.04 
L 710.456464 -95.04 
L 713.515395 -95.04 
L 716.574326 -95.04 
L 719.633257 -95.04 
L 722.692188 -95.04 
L 725.751119 -95.04 
L 728.81005 -95.04 
L 731.868981 -95.04 
L 734.927912 -95.04 
L 737.986843 -95.04 
L 741.045774 -95.04 
L 744.104705 -95.04 
L 747.163636 -95.04 
L 747.163636 -95.246555 
L 747.163636 -95.246555 
L 744.104705 -96.596228 
L 741.045774 -101.563178 
L 737.986843 -110.335806 
L 734.927912 -115.361753 
L 731.868981 -110.893303 
L 728.81005 -103.281579 
L 725.751119 -99.468152 
L 722.692188 -99.144942 
L 719.633257 -99.868407 
L 716.574326 -100.705008 
L 713.515395 -101.890981 
L 710.456464 -103.261108 
L 707.397533 -104.131427 
L 704.338602 -104.429444 
L 701.279671 -104.754276 
L 698.22074 -105.776897 
L 695.161809 -107.608037 
L 692.102878 -109.361699 
L 689.043947 -110.39262 
L 685.985016 -111.225128 
L 682.926085 -112.593784 
L 679.867154 -114.425826 
L 676.808223 -116.289381 
L 673.749292 -118.138955 
L 670.690361 -119.97122 
L 667.63143 -121.994388 
L 664.572499 -124.490177 
L 661.513568 -127.255293 
L 658.454637 -129.827874 
L 655.395706 -131.664307 
L 652.336775 -132.516286 
L 649.277844 -133.220379 
L 646.218913 -134.872503 
L 643.159982 -137.455927 
L 640.101051 -140.789988 
L 637.04212 -144.671533 
L 633.983189 -147.77756 
L 630.924258 -149.716499 
L 627.865327 -152.009633 
L 624.806396 -155.589789 
L 621.747465 -159.837118 
L 618.688534 -163.082247 
L 615.629603 -163.35932 
L 612.570672 -161.395675 
L 609.511741 -159.758885 
L 606.45281 -158.596518 
L 603.393878 -156.653281 
L 600.334947 -154.339196 
L 597.276016 -153.411423 
L 594.217085 -154.830145 
L 591.158154 -157.400578 
L 588.099223 -159.395539 
L 585.040292 -161.55789 
L 581.981361 -165.857355 
L 578.92243 -171.148623 
L 575.863499 -174.3416 
L 572.804568 -175.79616 
L 569.745637 -177.980263 
L 566.686706 -181.470782 
L 563.627775 -186.406954 
L 560.568844 -193.52163 
L 557.509913 -200.769692 
L 554.450982 -204.895861 
L 551.392051 -205.175854 
L 548.33312 -202.753118 
L 545.274189 -200.601183 
L 542.215258 -201.38645 
L 539.156327 -203.594836 
L 536.097396 -203.383686 
L 533.038465 -199.598737 
L 529.979534 -194.995828 
L 526.920603 -193.737653 
L 523.861672 -197.875736 
L 520.802741 -204.822579 
L 517.74381 -209.278665 
L 514.684879 -208.632478 
L 511.625948 -203.619384 
L 508.567017 -196.249029 
L 505.508086 -190.029573 
L 502.449155 -187.293816 
L 499.390224 -186.39605 
L 496.331293 -186.09186 
L 493.272362 -188.530884 
L 490.213431 -195.523974 
L 487.1545 -205.538361 
L 484.095569 -215.728445 
L 481.036638 -225.472913 
L 477.977707 -236.906641 
L 474.918776 -250.59915 
L 471.859845 -262.914072 
L 468.800914 -270.997304 
L 465.741983 -275.252292 
L 462.683052 -278.458675 
L 459.624121 -286.554142 
L 456.56519 -305.54362 
L 453.506259 -335.435366 
L 450.447328 -370.240938 
L 447.388397 -405.130987 
L 444.329466 -438.834633 
L 441.270534 -470.564906 
L 438.211603 -500.52253 
L 435.152672 -527.476221 
L 432.093741 -549.160362 
L 429.03481 -569.648329 
L 425.975879 -595.314067 
L 422.916948 -624.816505 
L 419.858017 -652.570538 
L 416.799086 -678.162391 
L 413.740155 -702.573844 
L 410.681224 -719.698689 
L 407.622293 -721.768505 
L 404.563362 -712.004655 
L 401.504431 -702.915915 
L 398.4455 -703.367242 
L 395.386569 -712.912357 
L 392.327638 -724.510406 
L 389.268707 -728.64 
L 386.209776 -719.611375 
L 383.150845 -703.913669 
L 380.091914 -692.231937 
L 377.032983 -684.859681 
L 373.974052 -679.255327 
L 370.915121 -677.962418 
L 367.85619 -681.584851 
L 364.797259 -686.621355 
L 361.738328 -689.862418 
L 358.679397 -687.362158 
L 355.620466 -674.937015 
L 352.561535 -655.493968 
L 349.502604 -634.50121 
L 346.443673 -615.075194 
L 343.384742 -599.936559 
L 340.325811 -587.510859 
L 337.26688 -572.780917 
L 334.207949 -554.040817 
L 331.149018 -533.847075 
L 328.090087 -513.595133 
L 325.031156 -491.887064 
L 321.972225 -468.147573 
L 318.913294 -445.735333 
L 315.854363 -429.865213 
L 312.795432 -420.591457 
L 309.736501 -411.360389 
L 306.67757 -395.687222 
L 303.618639 -374.257053 
L 300.559708 -354.22148 
L 297.500777 -340.99954 
L 294.441846 -333.124639 
L 291.382915 -324.496854 
L 288.323984 -310.40601 
L 285.265053 -290.885922 
L 282.206122 -268.652179 
L 279.14719 -247.32162 
L 276.088259 -231.106456 
L 273.029328 -221.363983 
L 269.970397 -215.590292 
L 266.911466 -210.57663 
L 263.852535 -204.811041 
L 260.793604 -199.18536 
L 257.734673 -193.971824 
L 254.675742 -187.234637 
L 251.616811 -177.943816 
L 248.55788 -166.944901 
L 245.498949 -155.846555 
L 242.440018 -145.501171 
L 239.381087 -135.605419 
L 236.322156 -126.685447 
L 233.263225 -119.923422 
L 230.204294 -115.458073 
L 227.145363 -112.26054 
L 224.086432 -109.232719 
L 221.027501 -106.196757 
L 217.96857 -103.581787 
L 214.909639 -101.587039 
L 211.850708 -100.212856 
L 208.791777 -99.748211 
L 205.732846 -100.54068 
L 202.673915 -102.138756 
L 199.614984 -103.251463 
L 196.556053 -103.018688 
L 193.497122 -101.656952 
L 190.438191 -99.728637 
L 187.37926 -97.751027 
L 184.320329 -96.262842 
L 181.261398 -95.484394 
L 178.202467 -95.209136 
L 175.143536 -95.187428 
L 172.084605 -95.425995 
L 169.025674 -96.271713 
L 165.966743 -98.088581 
L 162.907812 -100.151945 
L 159.848881 -100.550825 
L 156.78995 -98.785787 
L 153.731019 -96.647939 
L 150.672088 -95.486027 
L 147.613157 -95.123912 
L 144.554226 -95.05143 
L 141.495295 -95.041173 
L 138.436364 -95.040088 
z
" style="stroke: #008000; stroke-width: 3"/>
    </defs>
    <g clip-path="url(#pf4d8f9ae8f)">
     <use xlink:href="#m2f455d2f50" x="0" y="864" style="fill: #008000; fill-opacity: 0.25; stroke: #008000; stroke-width: 3"/>
    </g>
   </g>
   <g id="matplotlib.axis_1">
    <g id="xtick_1">
     <g id="line2d_1">
      <defs>
       <path id="m413e7ef986" d="M 0 0 
L 0 3.5 
" style="stroke: #000000; stroke-width: 0.8"/>
      </defs>
      <g>
       <use xlink:href="#m413e7ef986" x="140.491904" y="768.96" style="stroke: #000000; stroke-width: 0.8"/>
      </g>
     </g>
     <g id="text_1">
      <!-- 0.0 -->
      <g transform="translate(132.540342 783.558437)scale(0.1 -0.1)">
       <defs>
        <path id="DejaVuSans-30" d="M 2034 4250 
Q 1547 4250 1301 3770 
Q 1056 3291 1056 2328 
Q 1056 1369 1301 889 
Q 1547 409 2034 409 
Q 2525 409 2770 889 
Q 3016 1369 3016 2328 
Q 3016 3291 2770 3770 
Q 2525 4250 2034 4250 
z
M 2034 4750 
Q 2819 4750 3233 4129 
Q 3647 3509 3647 2328 
Q 3647 1150 3233 529 
Q 2819 -91 2034 -91 
Q 1250 -91 836 529 
Q 422 1150 422 2328 
Q 422 3509 836 4129 
Q 1250 4750 2034 4750 
z
" transform="scale(0.015625)"/>
        <path id="DejaVuSans-2e" d="M 684 794 
L 1344 794 
L 1344 0 
L 684 0 
L 684 794 
z
" transform="scale(0.015625)"/>
       </defs>
       <use xlink:href="#DejaVuSans-30"/>
       <use xlink:href="#DejaVuSans-2e" x="63.623047"/>
       <use xlink:href="#DejaVuSans-30" x="95.410156"/>
      </g>
     </g>
    </g>
    <g id="xtick_2">
     <g id="line2d_2">
      <g>
       <use xlink:href="#m413e7ef986" x="259.440886" y="768.96" style="stroke: #000000; stroke-width: 0.8"/>
      </g>
     </g>
     <g id="text_2">
      <!-- 0.2 -->
      <g transform="translate(251.489323 783.558437)scale(0.1 -0.1)">
       <defs>
        <path id="DejaVuSans-32" d="M 1228 531 
L 3431 531 
L 3431 0 
L 469 0 
L 469 531 
Q 828 903 1448 1529 
Q 2069 2156 2228 2338 
Q 2531 2678 2651 2914 
Q 2772 3150 2772 3378 
Q 2772 3750 2511 3984 
Q 2250 4219 1831 4219 
Q 1534 4219 1204 4116 
Q 875 4013 500 3803 
L 500 4441 
Q 881 4594 1212 4672 
Q 1544 4750 1819 4750 
Q 2544 4750 2975 4387 
Q 3406 4025 3406 3419 
Q 3406 3131 3298 2873 
Q 3191 2616 2906 2266 
Q 2828 2175 2409 1742 
Q 1991 1309 1228 531 
z
" transform="scale(0.015625)"/>
       </defs>
       <use xlink:href="#DejaVuSans-30"/>
       <use xlink:href="#DejaVuSans-2e" x="63.623047"/>
       <use xlink:href="#DejaVuSans-32" x="95.410156"/>
      </g>
     </g>
    </g>
    <g id="xtick_3">
     <g id="line2d_3">
      <g>
       <use xlink:href="#m413e7ef986" x="378.389867" y="768.96" style="stroke: #000000; stroke-width: 0.8"/>
      </g>
     </g>
     <g id="text_3">
      <!-- 0.4 -->
      <g transform="translate(370.438304 783.558437)scale(0.1 -0.1)">
       <defs>
        <path id="DejaVuSans-34" d="M 2419 4116 
L 825 1625 
L 2419 1625 
L 2419 4116 
z
M 2253 4666 
L 3047 4666 
L 3047 1625 
L 3713 1625 
L 3713 1100 
L 3047 1100 
L 3047 0 
L 2419 0 
L 2419 1100 
L 313 1100 
L 313 1709 
L 2253 4666 
z
" transform="scale(0.015625)"/>
       </defs>
       <use xlink:href="#DejaVuSans-30"/>
       <use xlink:href="#DejaVuSans-2e" x="63.623047"/>
       <use xlink:href="#DejaVuSans-34" x="95.410156"/>
      </g>
     </g>
    </g>
    <g id="xtick_4">
     <g id="line2d_4">
      <g>
       <use xlink:href="#m413e7ef986" x="497.338848" y="768.96" style="stroke: #000000; stroke-width: 0.8"/>
      </g>
     </g>
     <g id="text_4">
      <!-- 0.6 -->
      <g transform="translate(489.387286 783.558437)scale(0.1 -0.1)">
       <defs>
        <path id="DejaVuSans-36" d="M 2113 2584 
Q 1688 2584 1439 2293 
Q 1191 2003 1191 1497 
Q 1191 994 1439 701 
Q 1688 409 2113 409 
Q 2538 409 2786 701 
Q 3034 994 3034 1497 
Q 3034 2003 2786 2293 
Q 2538 2584 2113 2584 
z
M 3366 4563 
L 3366 3988 
Q 3128 4100 2886 4159 
Q 2644 4219 2406 4219 
Q 1781 4219 1451 3797 
Q 1122 3375 1075 2522 
Q 1259 2794 1537 2939 
Q 1816 3084 2150 3084 
Q 2853 3084 3261 2657 
Q 3669 2231 3669 1497 
Q 3669 778 3244 343 
Q 2819 -91 2113 -91 
Q 1303 -91 875 529 
Q 447 1150 447 2328 
Q 447 3434 972 4092 
Q 1497 4750 2381 4750 
Q 2619 4750 2861 4703 
Q 3103 4656 3366 4563 
z
" transform="scale(0.015625)"/>
       </defs>
       <use xlink:href="#DejaVuSans-30"/>
       <use xlink:href="#DejaVuSans-2e" x="63.623047"/>
       <use xlink:href="#DejaVuSans-36" x="95.410156"/>
      </g>
     </g>
    </g>
    <g id="xtick_5">
     <g id="line2d_5">
      <g>
       <use xlink:href="#m413e7ef986" x="616.28783" y="768.96" style="stroke: #000000; stroke-width: 0.8"/>
      </g>
     </g>
     <g id="text_5">
      <!-- 0.8 -->
      <g transform="translate(608.336267 783.558437)scale(0.1 -0.1)">
       <defs>
        <path id="DejaVuSans-38" d="M 2034 2216 
Q 1584 2216 1326 1975 
Q 1069 1734 1069 1313 
Q 1069 891 1326 650 
Q 1584 409 2034 409 
Q 2484 409 2743 651 
Q 3003 894 3003 1313 
Q 3003 1734 2745 1975 
Q 2488 2216 2034 2216 
z
M 1403 2484 
Q 997 2584 770 2862 
Q 544 3141 544 3541 
Q 544 4100 942 4425 
Q 1341 4750 2034 4750 
Q 2731 4750 3128 4425 
Q 3525 4100 3525 3541 
Q 3525 3141 3298 2862 
Q 3072 2584 2669 2484 
Q 3125 2378 3379 2068 
Q 3634 1759 3634 1313 
Q 3634 634 3220 271 
Q 2806 -91 2034 -91 
Q 1263 -91 848 271 
Q 434 634 434 1313 
Q 434 1759 690 2068 
Q 947 2378 1403 2484 
z
M 1172 3481 
Q 1172 3119 1398 2916 
Q 1625 2713 2034 2713 
Q 2441 2713 2670 2916 
Q 2900 3119 2900 3481 
Q 2900 3844 2670 4047 
Q 2441 4250 2034 4250 
Q 1625 4250 1398 4047 
Q 1172 3844 1172 3481 
z
" transform="scale(0.015625)"/>
       </defs>
       <use xlink:href="#DejaVuSans-30"/>
       <use xlink:href="#DejaVuSans-2e" x="63.623047"/>
       <use xlink:href="#DejaVuSans-38" x="95.410156"/>
      </g>
     </g>
    </g>
    <g id="xtick_6">
     <g id="line2d_6">
      <g>
       <use xlink:href="#m413e7ef986" x="735.236811" y="768.96" style="stroke: #000000; stroke-width: 0.8"/>
      </g>
     </g>
     <g id="text_6">
      <!-- 1.0 -->
      <g transform="translate(727.285248 783.558437)scale(0.1 -0.1)">
       <defs>
        <path id="DejaVuSans-31" d="M 794 531 
L 1825 531 
L 1825 4091 
L 703 3866 
L 703 4441 
L 1819 4666 
L 2450 4666 
L 2450 531 
L 3481 531 
L 3481 0 
L 794 0 
L 794 531 
z
" transform="scale(0.015625)"/>
       </defs>
       <use xlink:href="#DejaVuSans-31"/>
       <use xlink:href="#DejaVuSans-2e" x="63.623047"/>
       <use xlink:href="#DejaVuSans-30" x="95.410156"/>
      </g>
     </g>
    </g>
    <g id="text_7">
     <!-- Similarity -->
     <g transform="translate(404.97625 801.795625)scale(0.16 -0.16)">
      <defs>
       <path id="DejaVuSans-53" d="M 3425 4513 
L 3425 3897 
Q 3066 4069 2747 4153 
Q 2428 4238 2131 4238 
Q 1616 4238 1336 4038 
Q 1056 3838 1056 3469 
Q 1056 3159 1242 3001 
Q 1428 2844 1947 2747 
L 2328 2669 
Q 3034 2534 3370 2195 
Q 3706 1856 3706 1288 
Q 3706 609 3251 259 
Q 2797 -91 1919 -91 
Q 1588 -91 1214 -16 
Q 841 59 441 206 
L 441 856 
Q 825 641 1194 531 
Q 1563 422 1919 422 
Q 2459 422 2753 634 
Q 3047 847 3047 1241 
Q 3047 1584 2836 1778 
Q 2625 1972 2144 2069 
L 1759 2144 
Q 1053 2284 737 2584 
Q 422 2884 422 3419 
Q 422 4038 858 4394 
Q 1294 4750 2059 4750 
Q 2388 4750 2728 4690 
Q 3069 4631 3425 4513 
z
" transform="scale(0.015625)"/>
       <path id="DejaVuSans-69" d="M 603 3500 
L 1178 3500 
L 1178 0 
L 603 0 
L 603 3500 
z
M 603 4863 
L 1178 4863 
L 1178 4134 
L 603 4134 
L 603 4863 
z
" transform="scale(0.015625)"/>
       <path id="DejaVuSans-6d" d="M 3328 2828 
Q 3544 3216 3844 3400 
Q 4144 3584 4550 3584 
Q 5097 3584 5394 3201 
Q 5691 2819 5691 2113 
L 5691 0 
L 5113 0 
L 5113 2094 
Q 5113 2597 4934 2840 
Q 4756 3084 4391 3084 
Q 3944 3084 3684 2787 
Q 3425 2491 3425 1978 
L 3425 0 
L 2847 0 
L 2847 2094 
Q 2847 2600 2669 2842 
Q 2491 3084 2119 3084 
Q 1678 3084 1418 2786 
Q 1159 2488 1159 1978 
L 1159 0 
L 581 0 
L 581 3500 
L 1159 3500 
L 1159 2956 
Q 1356 3278 1631 3431 
Q 1906 3584 2284 3584 
Q 2666 3584 2933 3390 
Q 3200 3197 3328 2828 
z
" transform="scale(0.015625)"/>
       <path id="DejaVuSans-6c" d="M 603 4863 
L 1178 4863 
L 1178 0 
L 603 0 
L 603 4863 
z
" transform="scale(0.015625)"/>
       <path id="DejaVuSans-61" d="M 2194 1759 
Q 1497 1759 1228 1600 
Q 959 1441 959 1056 
Q 959 750 1161 570 
Q 1363 391 1709 391 
Q 2188 391 2477 730 
Q 2766 1069 2766 1631 
L 2766 1759 
L 2194 1759 
z
M 3341 1997 
L 3341 0 
L 2766 0 
L 2766 531 
Q 2569 213 2275 61 
Q 1981 -91 1556 -91 
Q 1019 -91 701 211 
Q 384 513 384 1019 
Q 384 1609 779 1909 
Q 1175 2209 1959 2209 
L 2766 2209 
L 2766 2266 
Q 2766 2663 2505 2880 
Q 2244 3097 1772 3097 
Q 1472 3097 1187 3025 
Q 903 2953 641 2809 
L 641 3341 
Q 956 3463 1253 3523 
Q 1550 3584 1831 3584 
Q 2591 3584 2966 3190 
Q 3341 2797 3341 1997 
z
" transform="scale(0.015625)"/>
       <path id="DejaVuSans-72" d="M 2631 2963 
Q 2534 3019 2420 3045 
Q 2306 3072 2169 3072 
Q 1681 3072 1420 2755 
Q 1159 2438 1159 1844 
L 1159 0 
L 581 0 
L 581 3500 
L 1159 3500 
L 1159 2956 
Q 1341 3275 1631 3429 
Q 1922 3584 2338 3584 
Q 2397 3584 2469 3576 
Q 2541 3569 2628 3553 
L 2631 2963 
z
" transform="scale(0.015625)"/>
       <path id="DejaVuSans-74" d="M 1172 4494 
L 1172 3500 
L 2356 3500 
L 2356 3053 
L 1172 3053 
L 1172 1153 
Q 1172 725 1289 603 
Q 1406 481 1766 481 
L 2356 481 
L 2356 0 
L 1766 0 
Q 1100 0 847 248 
Q 594 497 594 1153 
L 594 3053 
L 172 3053 
L 172 3500 
L 594 3500 
L 594 4494 
L 1172 4494 
z
" transform="scale(0.015625)"/>
       <path id="DejaVuSans-79" d="M 2059 -325 
Q 1816 -950 1584 -1140 
Q 1353 -1331 966 -1331 
L 506 -1331 
L 506 -850 
L 844 -850 
Q 1081 -850 1212 -737 
Q 1344 -625 1503 -206 
L 1606 56 
L 191 3500 
L 800 3500 
L 1894 763 
L 2988 3500 
L 3597 3500 
L 2059 -325 
z
" transform="scale(0.015625)"/>
      </defs>
      <use xlink:href="#DejaVuSans-53"/>
      <use xlink:href="#DejaVuSans-69" x="63.476562"/>
      <use xlink:href="#DejaVuSans-6d" x="91.259766"/>
      <use xlink:href="#DejaVuSans-69" x="188.671875"/>
      <use xlink:href="#DejaVuSans-6c" x="216.455078"/>
      <use xlink:href="#DejaVuSans-61" x="244.238281"/>
      <use xlink:href="#DejaVuSans-72" x="305.517578"/>
      <use xlink:href="#DejaVuSans-69" x="346.630859"/>
      <use xlink:href="#DejaVuSans-74" x="374.414062"/>
      <use xlink:href="#DejaVuSans-79" x="413.623047"/>
     </g>
    </g>
   </g>
   <g id="matplotlib.axis_2">
    <g id="ytick_1">
     <g id="line2d_7">
      <defs>
       <path id="ma54804a222" d="M 0 0 
L -3.5 0 
" style="stroke: #000000; stroke-width: 0.8"/>
      </defs>
      <g>
       <use xlink:href="#ma54804a222" x="108" y="768.96" style="stroke: #000000; stroke-width: 0.8"/>
      </g>
     </g>
     <g id="text_8">
      <!-- 0.0 -->
      <g transform="translate(85.096875 772.759219)scale(0.1 -0.1)">
       <use xlink:href="#DejaVuSans-30"/>
       <use xlink:href="#DejaVuSans-2e" x="63.623047"/>
       <use xlink:href="#DejaVuSans-30" x="95.410156"/>
      </g>
     </g>
    </g>
    <g id="ytick_2">
     <g id="line2d_8">
      <g>
       <use xlink:href="#ma54804a222" x="108" y="680.513101" style="stroke: #000000; stroke-width: 0.8"/>
      </g>
     </g>
     <g id="text_9">
      <!-- 0.5 -->
      <g transform="translate(85.096875 684.31232)scale(0.1 -0.1)">
       <defs>
        <path id="DejaVuSans-35" d="M 691 4666 
L 3169 4666 
L 3169 4134 
L 1269 4134 
L 1269 2991 
Q 1406 3038 1543 3061 
Q 1681 3084 1819 3084 
Q 2600 3084 3056 2656 
Q 3513 2228 3513 1497 
Q 3513 744 3044 326 
Q 2575 -91 1722 -91 
Q 1428 -91 1123 -41 
Q 819 9 494 109 
L 494 744 
Q 775 591 1075 516 
Q 1375 441 1709 441 
Q 2250 441 2565 725 
Q 2881 1009 2881 1497 
Q 2881 1984 2565 2268 
Q 2250 2553 1709 2553 
Q 1456 2553 1204 2497 
Q 953 2441 691 2322 
L 691 4666 
z
" transform="scale(0.015625)"/>
       </defs>
       <use xlink:href="#DejaVuSans-30"/>
       <use xlink:href="#DejaVuSans-2e" x="63.623047"/>
       <use xlink:href="#DejaVuSans-35" x="95.410156"/>
      </g>
     </g>
    </g>
    <g id="ytick_3">
     <g id="line2d_9">
      <g>
       <use xlink:href="#ma54804a222" x="108" y="592.066202" style="stroke: #000000; stroke-width: 0.8"/>
      </g>
     </g>
     <g id="text_10">
      <!-- 1.0 -->
      <g transform="translate(85.096875 595.865421)scale(0.1 -0.1)">
       <use xlink:href="#DejaVuSans-31"/>
       <use xlink:href="#DejaVuSans-2e" x="63.623047"/>
       <use xlink:href="#DejaVuSans-30" x="95.410156"/>
      </g>
     </g>
    </g>
    <g id="ytick_4">
     <g id="line2d_10">
      <g>
       <use xlink:href="#ma54804a222" x="108" y="503.619303" style="stroke: #000000; stroke-width: 0.8"/>
      </g>
     </g>
     <g id="text_11">
      <!-- 1.5 -->
      <g transform="translate(85.096875 507.418522)scale(0.1 -0.1)">
       <use xlink:href="#DejaVuSans-31"/>
       <use xlink:href="#DejaVuSans-2e" x="63.623047"/>
       <use xlink:href="#DejaVuSans-35" x="95.410156"/>
      </g>
     </g>
    </g>
    <g id="ytick_5">
     <g id="line2d_11">
      <g>
       <use xlink:href="#ma54804a222" x="108" y="415.172404" style="stroke: #000000; stroke-width: 0.8"/>
      </g>
     </g>
     <g id="text_12">
      <!-- 2.0 -->
      <g transform="translate(85.096875 418.971623)scale(0.1 -0.1)">
       <use xlink:href="#DejaVuSans-32"/>
       <use xlink:href="#DejaVuSans-2e" x="63.623047"/>
       <use xlink:href="#DejaVuSans-30" x="95.410156"/>
      </g>
     </g>
    </g>
    <g id="ytick_6">
     <g id="line2d_12">
      <g>
       <use xlink:href="#ma54804a222" x="108" y="326.725506" style="stroke: #000000; stroke-width: 0.8"/>
      </g>
     </g>
     <g id="text_13">
      <!-- 2.5 -->
      <g transform="translate(85.096875 330.524724)scale(0.1 -0.1)">
       <use xlink:href="#DejaVuSans-32"/>
       <use xlink:href="#DejaVuSans-2e" x="63.623047"/>
       <use xlink:href="#DejaVuSans-35" x="95.410156"/>
      </g>
     </g>
    </g>
    <g id="ytick_7">
     <g id="line2d_13">
      <g>
       <use xlink:href="#ma54804a222" x="108" y="238.278607" style="stroke: #000000; stroke-width: 0.8"/>
      </g>
     </g>
     <g id="text_14">
      <!-- 3.0 -->
      <g transform="translate(85.096875 242.077825)scale(0.1 -0.1)">
       <defs>
        <path id="DejaVuSans-33" d="M 2597 2516 
Q 3050 2419 3304 2112 
Q 3559 1806 3559 1356 
Q 3559 666 3084 287 
Q 2609 -91 1734 -91 
Q 1441 -91 1130 -33 
Q 819 25 488 141 
L 488 750 
Q 750 597 1062 519 
Q 1375 441 1716 441 
Q 2309 441 2620 675 
Q 2931 909 2931 1356 
Q 2931 1769 2642 2001 
Q 2353 2234 1838 2234 
L 1294 2234 
L 1294 2753 
L 1863 2753 
Q 2328 2753 2575 2939 
Q 2822 3125 2822 3475 
Q 2822 3834 2567 4026 
Q 2313 4219 1838 4219 
Q 1578 4219 1281 4162 
Q 984 4106 628 3988 
L 628 4550 
Q 988 4650 1302 4700 
Q 1616 4750 1894 4750 
Q 2613 4750 3031 4423 
Q 3450 4097 3450 3541 
Q 3450 3153 3228 2886 
Q 3006 2619 2597 2516 
z
" transform="scale(0.015625)"/>
       </defs>
       <use xlink:href="#DejaVuSans-33"/>
       <use xlink:href="#DejaVuSans-2e" x="63.623047"/>
       <use xlink:href="#DejaVuSans-30" x="95.410156"/>
      </g>
     </g>
    </g>
    <g id="ytick_8">
     <g id="line2d_14">
      <g>
       <use xlink:href="#ma54804a222" x="108" y="149.831708" style="stroke: #000000; stroke-width: 0.8"/>
      </g>
     </g>
     <g id="text_15">
      <!-- 3.5 -->
      <g transform="translate(85.096875 153.630927)scale(0.1 -0.1)">
       <use xlink:href="#DejaVuSans-33"/>
       <use xlink:href="#DejaVuSans-2e" x="63.623047"/>
       <use xlink:href="#DejaVuSans-35" x="95.410156"/>
      </g>
     </g>
    </g>
    <g id="text_16">
     <!-- Density -->
     <g transform="translate(77.769375 466.73375)rotate(-90)scale(0.16 -0.16)">
      <defs>
       <path id="DejaVuSans-44" d="M 1259 4147 
L 1259 519 
L 2022 519 
Q 2988 519 3436 956 
Q 3884 1394 3884 2338 
Q 3884 3275 3436 3711 
Q 2988 4147 2022 4147 
L 1259 4147 
z
M 628 4666 
L 1925 4666 
Q 3281 4666 3915 4102 
Q 4550 3538 4550 2338 
Q 4550 1131 3912 565 
Q 3275 0 1925 0 
L 628 0 
L 628 4666 
z
" transform="scale(0.015625)"/>
       <path id="DejaVuSans-65" d="M 3597 1894 
L 3597 1613 
L 953 1613 
Q 991 1019 1311 708 
Q 1631 397 2203 397 
Q 2534 397 2845 478 
Q 3156 559 3463 722 
L 3463 178 
Q 3153 47 2828 -22 
Q 2503 -91 2169 -91 
Q 1331 -91 842 396 
Q 353 884 353 1716 
Q 353 2575 817 3079 
Q 1281 3584 2069 3584 
Q 2775 3584 3186 3129 
Q 3597 2675 3597 1894 
z
M 3022 2063 
Q 3016 2534 2758 2815 
Q 2500 3097 2075 3097 
Q 1594 3097 1305 2825 
Q 1016 2553 972 2059 
L 3022 2063 
z
" transform="scale(0.015625)"/>
       <path id="DejaVuSans-6e" d="M 3513 2113 
L 3513 0 
L 2938 0 
L 2938 2094 
Q 2938 2591 2744 2837 
Q 2550 3084 2163 3084 
Q 1697 3084 1428 2787 
Q 1159 2491 1159 1978 
L 1159 0 
L 581 0 
L 581 3500 
L 1159 3500 
L 1159 2956 
Q 1366 3272 1645 3428 
Q 1925 3584 2291 3584 
Q 2894 3584 3203 3211 
Q 3513 2838 3513 2113 
z
" transform="scale(0.015625)"/>
       <path id="DejaVuSans-73" d="M 2834 3397 
L 2834 2853 
Q 2591 2978 2328 3040 
Q 2066 3103 1784 3103 
Q 1356 3103 1142 2972 
Q 928 2841 928 2578 
Q 928 2378 1081 2264 
Q 1234 2150 1697 2047 
L 1894 2003 
Q 2506 1872 2764 1633 
Q 3022 1394 3022 966 
Q 3022 478 2636 193 
Q 2250 -91 1575 -91 
Q 1294 -91 989 -36 
Q 684 19 347 128 
L 347 722 
Q 666 556 975 473 
Q 1284 391 1588 391 
Q 1994 391 2212 530 
Q 2431 669 2431 922 
Q 2431 1156 2273 1281 
Q 2116 1406 1581 1522 
L 1381 1569 
Q 847 1681 609 1914 
Q 372 2147 372 2553 
Q 372 3047 722 3315 
Q 1072 3584 1716 3584 
Q 2034 3584 2315 3537 
Q 2597 3491 2834 3397 
z
" transform="scale(0.015625)"/>
      </defs>
      <use xlink:href="#DejaVuSans-44"/>
      <use xlink:href="#DejaVuSans-65" x="77.001953"/>
      <use xlink:href="#DejaVuSans-6e" x="138.525391"/>
      <use xlink:href="#DejaVuSans-73" x="201.904297"/>
      <use xlink:href="#DejaVuSans-69" x="254.003906"/>
      <use xlink:href="#DejaVuSans-74" x="281.787109"/>
      <use xlink:href="#DejaVuSans-79" x="320.996094"/>
     </g>
    </g>
   </g>
   <g id="patch_3">
    <path d="M 108 768.96 
L 108 103.68 
" style="fill: none; stroke: #000000; stroke-width: 0.8; stroke-linejoin: miter; stroke-linecap: square"/>
   </g>
   <g id="patch_4">
    <path d="M 777.6 768.96 
L 777.6 103.68 
" style="fill: none; stroke: #000000; stroke-width: 0.8; stroke-linejoin: miter; stroke-linecap: square"/>
   </g>
   <g id="patch_5">
    <path d="M 108 768.96 
L 777.6 768.96 
" style="fill: none; stroke: #000000; stroke-width: 0.8; stroke-linejoin: miter; stroke-linecap: square"/>
   </g>
   <g id="patch_6">
    <path d="M 108 103.68 
L 777.6 103.68 
" style="fill: none; stroke: #000000; stroke-width: 0.8; stroke-linejoin: miter; stroke-linecap: square"/>
   </g>
   <g id="legend_1">
    <g id="patch_7">
     <path d="M 484.15 186.935 
L 766.4 186.935 
Q 769.6 186.935 769.6 183.735 
L 769.6 114.88 
Q 769.6 111.68 766.4 111.68 
L 484.15 111.68 
Q 480.95 111.68 480.95 114.88 
L 480.95 183.735 
Q 480.95 186.935 484.15 186.935 
z
" style="fill: #ffffff; opacity: 0.8; stroke: #cccccc; stroke-linejoin: miter"/>
    </g>
    <g id="patch_8">
     <path d="M 487.35 130.2375 
L 519.35 130.2375 
L 519.35 119.0375 
L 487.35 119.0375 
z
" style="fill: #0000ff; fill-opacity: 0.25; stroke: #0000ff; stroke-width: 3; stroke-linejoin: miter"/>
    </g>
    <g id="text_17">
     <!-- Training vs Test set similarity -->
     <g transform="translate(532.15 130.2375)scale(0.16 -0.16)">
      <defs>
       <path id="DejaVuSans-54" d="M -19 4666 
L 3928 4666 
L 3928 4134 
L 2272 4134 
L 2272 0 
L 1638 0 
L 1638 4134 
L -19 4134 
L -19 4666 
z
" transform="scale(0.015625)"/>
       <path id="DejaVuSans-67" d="M 2906 1791 
Q 2906 2416 2648 2759 
Q 2391 3103 1925 3103 
Q 1463 3103 1205 2759 
Q 947 2416 947 1791 
Q 947 1169 1205 825 
Q 1463 481 1925 481 
Q 2391 481 2648 825 
Q 2906 1169 2906 1791 
z
M 3481 434 
Q 3481 -459 3084 -895 
Q 2688 -1331 1869 -1331 
Q 1566 -1331 1297 -1286 
Q 1028 -1241 775 -1147 
L 775 -588 
Q 1028 -725 1275 -790 
Q 1522 -856 1778 -856 
Q 2344 -856 2625 -561 
Q 2906 -266 2906 331 
L 2906 616 
Q 2728 306 2450 153 
Q 2172 0 1784 0 
Q 1141 0 747 490 
Q 353 981 353 1791 
Q 353 2603 747 3093 
Q 1141 3584 1784 3584 
Q 2172 3584 2450 3431 
Q 2728 3278 2906 2969 
L 2906 3500 
L 3481 3500 
L 3481 434 
z
" transform="scale(0.015625)"/>
       <path id="DejaVuSans-20" transform="scale(0.015625)"/>
       <path id="DejaVuSans-76" d="M 191 3500 
L 800 3500 
L 1894 563 
L 2988 3500 
L 3597 3500 
L 2284 0 
L 1503 0 
L 191 3500 
z
" transform="scale(0.015625)"/>
      </defs>
      <use xlink:href="#DejaVuSans-54"/>
      <use xlink:href="#DejaVuSans-72" x="46.333984"/>
      <use xlink:href="#DejaVuSans-61" x="87.447266"/>
      <use xlink:href="#DejaVuSans-69" x="148.726562"/>
      <use xlink:href="#DejaVuSans-6e" x="176.509766"/>
      <use xlink:href="#DejaVuSans-69" x="239.888672"/>
      <use xlink:href="#DejaVuSans-6e" x="267.671875"/>
      <use xlink:href="#DejaVuSans-67" x="331.050781"/>
      <use xlink:href="#DejaVuSans-20" x="394.527344"/>
      <use xlink:href="#DejaVuSans-76" x="426.314453"/>
      <use xlink:href="#DejaVuSans-73" x="485.494141"/>
      <use xlink:href="#DejaVuSans-20" x="537.59375"/>
      <use xlink:href="#DejaVuSans-54" x="569.380859"/>
      <use xlink:href="#DejaVuSans-65" x="613.464844"/>
      <use xlink:href="#DejaVuSans-73" x="674.988281"/>
      <use xlink:href="#DejaVuSans-74" x="727.087891"/>
      <use xlink:href="#DejaVuSans-20" x="766.296875"/>
      <use xlink:href="#DejaVuSans-73" x="798.083984"/>
      <use xlink:href="#DejaVuSans-65" x="850.183594"/>
      <use xlink:href="#DejaVuSans-74" x="911.707031"/>
      <use xlink:href="#DejaVuSans-20" x="950.916016"/>
      <use xlink:href="#DejaVuSans-73" x="982.703125"/>
      <use xlink:href="#DejaVuSans-69" x="1034.802734"/>
      <use xlink:href="#DejaVuSans-6d" x="1062.585938"/>
      <use xlink:href="#DejaVuSans-69" x="1159.998047"/>
      <use xlink:href="#DejaVuSans-6c" x="1187.78125"/>
      <use xlink:href="#DejaVuSans-61" x="1215.564453"/>
      <use xlink:href="#DejaVuSans-72" x="1276.84375"/>
      <use xlink:href="#DejaVuSans-69" x="1317.957031"/>
      <use xlink:href="#DejaVuSans-74" x="1345.740234"/>
      <use xlink:href="#DejaVuSans-79" x="1384.949219"/>
     </g>
    </g>
    <g id="patch_9">
     <path d="M 487.35 153.7225 
L 519.35 153.7225 
L 519.35 142.5225 
L 487.35 142.5225 
z
" style="fill: #ff0000; fill-opacity: 0.25; stroke: #ff0000; stroke-width: 3; stroke-linejoin: miter"/>
    </g>
    <g id="text_18">
     <!-- Training set inner similarity -->
     <g transform="translate(532.15 153.7225)scale(0.16 -0.16)">
      <use xlink:href="#DejaVuSans-54"/>
      <use xlink:href="#DejaVuSans-72" x="46.333984"/>
      <use xlink:href="#DejaVuSans-61" x="87.447266"/>
      <use xlink:href="#DejaVuSans-69" x="148.726562"/>
      <use xlink:href="#DejaVuSans-6e" x="176.509766"/>
      <use xlink:href="#DejaVuSans-69" x="239.888672"/>
      <use xlink:href="#DejaVuSans-6e" x="267.671875"/>
      <use xlink:href="#DejaVuSans-67" x="331.050781"/>
      <use xlink:href="#DejaVuSans-20" x="394.527344"/>
      <use xlink:href="#DejaVuSans-73" x="426.314453"/>
      <use xlink:href="#DejaVuSans-65" x="478.414062"/>
      <use xlink:href="#DejaVuSans-74" x="539.9375"/>
      <use xlink:href="#DejaVuSans-20" x="579.146484"/>
      <use xlink:href="#DejaVuSans-69" x="610.933594"/>
      <use xlink:href="#DejaVuSans-6e" x="638.716797"/>
      <use xlink:href="#DejaVuSans-6e" x="702.095703"/>
      <use xlink:href="#DejaVuSans-65" x="765.474609"/>
      <use xlink:href="#DejaVuSans-72" x="826.998047"/>
      <use xlink:href="#DejaVuSans-20" x="868.111328"/>
      <use xlink:href="#DejaVuSans-73" x="899.898438"/>
      <use xlink:href="#DejaVuSans-69" x="951.998047"/>
      <use xlink:href="#DejaVuSans-6d" x="979.78125"/>
      <use xlink:href="#DejaVuSans-69" x="1077.193359"/>
      <use xlink:href="#DejaVuSans-6c" x="1104.976562"/>
      <use xlink:href="#DejaVuSans-61" x="1132.759766"/>
      <use xlink:href="#DejaVuSans-72" x="1194.039062"/>
      <use xlink:href="#DejaVuSans-69" x="1235.152344"/>
      <use xlink:href="#DejaVuSans-74" x="1262.935547"/>
      <use xlink:href="#DejaVuSans-79" x="1302.144531"/>
     </g>
    </g>
    <g id="patch_10">
     <path d="M 487.35 177.2075 
L 519.35 177.2075 
L 519.35 166.0075 
L 487.35 166.0075 
z
" style="fill: #008000; fill-opacity: 0.25; stroke: #008000; stroke-width: 3; stroke-linejoin: miter"/>
    </g>
    <g id="text_19">
     <!-- Test set inner similarity -->
     <g transform="translate(532.15 177.2075)scale(0.16 -0.16)">
      <use xlink:href="#DejaVuSans-54"/>
      <use xlink:href="#DejaVuSans-65" x="44.083984"/>
      <use xlink:href="#DejaVuSans-73" x="105.607422"/>
      <use xlink:href="#DejaVuSans-74" x="157.707031"/>
      <use xlink:href="#DejaVuSans-20" x="196.916016"/>
      <use xlink:href="#DejaVuSans-73" x="228.703125"/>
      <use xlink:href="#DejaVuSans-65" x="280.802734"/>
      <use xlink:href="#DejaVuSans-74" x="342.326172"/>
      <use xlink:href="#DejaVuSans-20" x="381.535156"/>
      <use xlink:href="#DejaVuSans-69" x="413.322266"/>
      <use xlink:href="#DejaVuSans-6e" x="441.105469"/>
      <use xlink:href="#DejaVuSans-6e" x="504.484375"/>
      <use xlink:href="#DejaVuSans-65" x="567.863281"/>
      <use xlink:href="#DejaVuSans-72" x="629.386719"/>
      <use xlink:href="#DejaVuSans-20" x="670.5"/>
      <use xlink:href="#DejaVuSans-73" x="702.287109"/>
      <use xlink:href="#DejaVuSans-69" x="754.386719"/>
      <use xlink:href="#DejaVuSans-6d" x="782.169922"/>
      <use xlink:href="#DejaVuSans-69" x="879.582031"/>
      <use xlink:href="#DejaVuSans-6c" x="907.365234"/>
      <use xlink:href="#DejaVuSans-61" x="935.148438"/>
      <use xlink:href="#DejaVuSans-72" x="996.427734"/>
      <use xlink:href="#DejaVuSans-69" x="1037.541016"/>
      <use xlink:href="#DejaVuSans-74" x="1065.324219"/>
      <use xlink:href="#DejaVuSans-79" x="1104.533203"/>
     </g>
    </g>
   </g>
  </g>
 </g>
 <defs>
  <clipPath id="pf4d8f9ae8f">
   <rect x="108" y="103.68" width="669.6" height="665.28"/>
  </clipPath>
 </defs>
</svg>
